<svg width="24" height="24" viewBox="0 0 24 24" fill="none" xmlns="http://www.w3.org/2000/svg">
<path d="M12 6.528V3C12 2.73478 12.1054 2.48043 12.2929 2.29289C12.4804 2.10536 12.7348 2 13 2M12 6.528C12.8633 5.75584 13.9317 5.25017 15.0761 5.07181C16.2205 4.89346 17.3921 5.05016 18.4495 5.52299C19.5068 5.99583 20.4047 6.7646 21.0347 7.73649C21.6647 8.70839 22 9.84187 22 11.0001C22.0156 14.6823 20.6763 18.2416 18.237 21.0001C17.7893 21.501 17.1865 21.8371 16.525 21.9546C15.8636 22.0721 15.1818 21.9641 14.589 21.6481C13.7923 21.223 12.9031 21.0006 12 21.0006C11.097 21.0006 10.2078 21.223 9.41102 21.6481C8.81821 21.9641 8.13647 22.0721 7.47503 21.9546C6.81359 21.8371 6.21073 21.501 5.76302 21.0001C3.33188 18.2368 1.99371 14.6807 2.00002 11.0001C2.00005 9.84187 2.33531 8.70839 2.96535 7.73649C3.59539 6.7646 4.49326 5.99583 5.55059 5.52299C6.60793 5.05016 7.77952 4.89346 8.92395 5.07181C10.0684 5.25017 11.1367 5.75584 12 6.528Z" stroke="black" stroke-width="2" stroke-linecap="round" stroke-linejoin="round"/>
</svg>
