<svg width="40" height="41" viewBox="0 0 40 41" fill="none" xmlns="http://www.w3.org/2000/svg">
<path d="M36.3265 3.76562H3.67346V5.43909H36.3265V3.76562Z" fill="black"/>
<path d="M37.9591 5.43848H2.04077V7.11195H37.9591V5.43848Z" fill="black"/>
<path d="M5.30608 7.1123H2.04077V8.78577H5.30608V7.1123Z" fill="black"/>
<path d="M37.9592 7.1123H34.6938V8.78577H37.9592V7.1123Z" fill="black"/>
<path d="M5.30608 8.78613H2.04077V10.4596H5.30608V8.78613Z" fill="black"/>
<path d="M37.9592 8.78613H34.6938V10.4596H37.9592V8.78613Z" fill="black"/>
<path d="M5.30608 10.459H2.04077V12.1325H5.30608V10.459Z" fill="black"/>
<path d="M37.9592 10.459H34.6938V12.1325H37.9592V10.459Z" fill="black"/>
<path d="M37.9591 12.1328H2.04077V13.8063H37.9591V12.1328Z" fill="black"/>
<path d="M36.3265 13.8057H3.67346V15.4791H36.3265V13.8057Z" fill="black"/>
<path d="M8.57146 15.4795H5.30615V17.153H8.57146V15.4795Z" fill="black"/>
<path d="M34.6939 15.4795H31.4286V17.153H34.6939V15.4795Z" fill="black"/>
<path d="M8.57146 17.1533H5.30615V18.8268H8.57146V17.1533Z" fill="black"/>
<path d="M34.6939 17.1533H31.4286V18.8268H34.6939V17.1533Z" fill="black"/>
<path d="M8.57146 18.8262H5.30615V20.4996H8.57146V18.8262Z" fill="black"/>
<path d="M24.898 18.8262H15.1021V20.4996H24.898V18.8262Z" fill="black"/>
<path d="M34.6939 18.8262H31.4286V20.4996H34.6939V18.8262Z" fill="black"/>
<path d="M8.57146 20.5H5.30615V22.1735H8.57146V20.5Z" fill="black"/>
<path d="M24.898 20.5H15.1021V22.1735H24.898V20.5Z" fill="black"/>
<path d="M34.6939 20.5H31.4286V22.1735H34.6939V20.5Z" fill="black"/>
<path d="M8.57146 22.1738H5.30615V23.8473H8.57146V22.1738Z" fill="black"/>
<path d="M34.6939 22.1738H31.4286V23.8473H34.6939V22.1738Z" fill="black"/>
<path d="M8.57146 23.8467H5.30615V25.5201H8.57146V23.8467Z" fill="black"/>
<path d="M34.6939 23.8467H31.4286V25.5201H34.6939V23.8467Z" fill="black"/>
<path d="M8.57146 25.5205H5.30615V27.194H8.57146V25.5205Z" fill="black"/>
<path d="M34.6939 25.5205H31.4286V27.194H34.6939V25.5205Z" fill="black"/>
<path d="M8.57146 27.1943H5.30615V28.8678H8.57146V27.1943Z" fill="black"/>
<path d="M34.6939 27.1943H31.4286V28.8678H34.6939V27.1943Z" fill="black"/>
<path d="M8.57146 28.8672H5.30615V30.5407H8.57146V28.8672Z" fill="black"/>
<path d="M34.6939 28.8672H31.4286V30.5407H34.6939V28.8672Z" fill="black"/>
<path d="M8.57146 30.541H5.30615V32.2145H8.57146V30.541Z" fill="black"/>
<path d="M34.6939 30.541H31.4286V32.2145H34.6939V30.541Z" fill="black"/>
<path d="M8.57146 32.2139H5.30615V33.8873H8.57146V32.2139Z" fill="black"/>
<path d="M34.6939 32.2139H31.4286V33.8873H34.6939V32.2139Z" fill="black"/>
<path d="M34.6939 33.8877H5.30615V35.5612H34.6939V33.8877Z" fill="black"/>
<path d="M33.0612 35.5615H6.93872V37.235H33.0612V35.5615Z" fill="black"/>
</svg>
