<svg width="40" height="41" viewBox="0 0 40 41" fill="none" xmlns="http://www.w3.org/2000/svg">
<path d="M23.2654 2.0918H16.7347V3.76527H23.2654V2.0918Z" fill="black"/>
<path d="M26.5306 3.76562H13.4694V5.43909H26.5306V3.76562Z" fill="black"/>
<path d="M18.3674 5.43848H11.8368V7.11195H18.3674V5.43848Z" fill="black"/>
<path d="M28.1633 5.43848H21.6327V7.11195H28.1633V5.43848Z" fill="black"/>
<path d="M15.102 7.1123H8.57141V8.78577H15.102V7.1123Z" fill="black"/>
<path d="M31.4286 7.1123H24.8979V8.78577H31.4286V7.1123Z" fill="black"/>
<path d="M13.4694 8.78613H5.30615V10.4596H13.4694V8.78613Z" fill="black"/>
<path d="M34.6939 8.78613H26.5306V10.4596H34.6939V8.78613Z" fill="black"/>
<path d="M10.2041 10.459H3.67346V12.1325H10.2041V10.459Z" fill="black"/>
<path d="M36.3265 10.459H29.7959V12.1325H36.3265V10.459Z" fill="black"/>
<path d="M10.2041 12.1328H3.67346V13.8063H10.2041V12.1328Z" fill="black"/>
<path d="M36.3265 12.1328H29.7959V13.8063H36.3265V12.1328Z" fill="black"/>
<path d="M13.4694 13.8057H3.67346V15.4791H13.4694V13.8057Z" fill="black"/>
<path d="M36.3266 13.8057H26.5306V15.4791H36.3266V13.8057Z" fill="black"/>
<path d="M6.93877 15.4795H3.67346V17.153H6.93877V15.4795Z" fill="black"/>
<path d="M16.7347 15.4795H8.57141V17.153H16.7347V15.4795Z" fill="black"/>
<path d="M31.4285 15.4795H23.2653V17.153H31.4285V15.4795Z" fill="black"/>
<path d="M36.3266 15.4795H33.0613V17.153H36.3266V15.4795Z" fill="black"/>
<path d="M6.93877 17.1533H3.67346V18.8268H6.93877V17.1533Z" fill="black"/>
<path d="M28.1633 17.1533H11.8368V18.8268H28.1633V17.1533Z" fill="black"/>
<path d="M36.3266 17.1533H33.0613V18.8268H36.3266V17.1533Z" fill="black"/>
<path d="M6.93877 18.8262H3.67346V20.4996H6.93877V18.8262Z" fill="black"/>
<path d="M24.898 18.8262H15.1021V20.4996H24.898V18.8262Z" fill="black"/>
<path d="M36.3266 18.8262H33.0613V20.4996H36.3266V18.8262Z" fill="black"/>
<path d="M6.93877 20.5H3.67346V22.1735H6.93877V20.5Z" fill="black"/>
<path d="M21.6326 20.5H18.3673V22.1735H21.6326V20.5Z" fill="black"/>
<path d="M36.3266 20.5H33.0613V22.1735H36.3266V20.5Z" fill="black"/>
<path d="M6.93877 22.1738H3.67346V23.8473H6.93877V22.1738Z" fill="black"/>
<path d="M21.6326 22.1738H18.3673V23.8473H21.6326V22.1738Z" fill="black"/>
<path d="M36.3266 22.1738H33.0613V23.8473H36.3266V22.1738Z" fill="black"/>
<path d="M6.93877 23.8467H3.67346V25.5201H6.93877V23.8467Z" fill="black"/>
<path d="M21.6326 23.8467H18.3673V25.5201H21.6326V23.8467Z" fill="black"/>
<path d="M36.3266 23.8467H33.0613V25.5201H36.3266V23.8467Z" fill="black"/>
<path d="M6.93877 25.5205H3.67346V27.194H6.93877V25.5205Z" fill="black"/>
<path d="M21.6326 25.5205H18.3673V27.194H21.6326V25.5205Z" fill="black"/>
<path d="M36.3266 25.5205H33.0613V27.194H36.3266V25.5205Z" fill="black"/>
<path d="M6.93877 27.1943H3.67346V28.8678H6.93877V27.1943Z" fill="black"/>
<path d="M21.6326 27.1943H18.3673V28.8678H21.6326V27.1943Z" fill="black"/>
<path d="M36.3266 27.1943H33.0613V28.8678H36.3266V27.1943Z" fill="black"/>
<path d="M10.2041 28.8672H3.67346V30.5407H10.2041V28.8672Z" fill="black"/>
<path d="M21.6326 28.8672H18.3673V30.5407H21.6326V28.8672Z" fill="black"/>
<path d="M36.3265 28.8672H29.7959V30.5407H36.3265V28.8672Z" fill="black"/>
<path d="M13.4694 30.541H5.30615V32.2145H13.4694V30.541Z" fill="black"/>
<path d="M21.6326 30.541H18.3673V32.2145H21.6326V30.541Z" fill="black"/>
<path d="M34.6939 30.541H26.5306V32.2145H34.6939V30.541Z" fill="black"/>
<path d="M15.102 32.2139H8.57141V33.8873H15.102V32.2139Z" fill="black"/>
<path d="M21.6326 32.2139H18.3673V33.8873H21.6326V32.2139Z" fill="black"/>
<path d="M31.4286 32.2139H24.8979V33.8873H31.4286V32.2139Z" fill="black"/>
<path d="M28.1633 33.8877H11.8368V35.5612H28.1633V33.8877Z" fill="black"/>
<path d="M26.5306 35.5615H13.4694V37.235H26.5306V35.5615Z" fill="black"/>
<path d="M23.2654 37.2344H16.7347V38.9078H23.2654V37.2344Z" fill="black"/>
</svg>
