<svg width="41" height="40" viewBox="0 0 41 40" fill="none" xmlns="http://www.w3.org/2000/svg">
<path d="M27.1939 2.04102H13.8062V3.67367H27.1939V2.04102Z" fill="black"/>
<path d="M28.8674 3.67383H12.1327V5.30648H28.8674V3.67383Z" fill="black"/>
<path d="M15.4797 5.30566H7.1123V6.93832H15.4797V5.30566Z" fill="black"/>
<path d="M33.8877 5.30566H25.5204V6.93832H33.8877V5.30566Z" fill="black"/>
<path d="M15.4795 6.93848H5.43872V8.57113H15.4795V6.93848Z" fill="black"/>
<path d="M35.5612 6.93848H25.5204V8.57113H35.5612V6.93848Z" fill="black"/>
<path d="M8.78566 8.57129H5.43872V10.2039H8.78566V8.57129Z" fill="black"/>
<path d="M28.8674 8.57129H12.1327V10.2039H28.8674V8.57129Z" fill="black"/>
<path d="M35.5612 8.57129H32.2142V10.2039H35.5612V8.57129Z" fill="black"/>
<path d="M8.78566 10.2041H5.43872V11.8368H8.78566V10.2041Z" fill="black"/>
<path d="M27.1939 10.2041H13.8062V11.8368H27.1939V10.2041Z" fill="black"/>
<path d="M35.5612 10.2041H32.2142V11.8368H35.5612V10.2041Z" fill="black"/>
<path d="M8.78566 11.8369H5.43872V13.4696H8.78566V11.8369Z" fill="black"/>
<path d="M35.5612 11.8369H32.2142V13.4696H35.5612V11.8369Z" fill="black"/>
<path d="M8.78566 13.4697H5.43872V15.1024H8.78566V13.4697Z" fill="black"/>
<path d="M35.5612 13.4697H32.2142V15.1024H35.5612V13.4697Z" fill="black"/>
<path d="M8.78566 15.1016H5.43872V16.7342H8.78566V15.1016Z" fill="black"/>
<path d="M35.5612 15.1016H32.2142V16.7342H35.5612V15.1016Z" fill="black"/>
<path d="M8.78566 16.7344H5.43872V18.367H8.78566V16.7344Z" fill="black"/>
<path d="M35.5612 16.7344H32.2142V18.367H35.5612V16.7344Z" fill="black"/>
<path d="M8.78566 18.3672H5.43872V19.9998H8.78566V18.3672Z" fill="black"/>
<path d="M35.5612 18.3672H32.2142V19.9998H35.5612V18.3672Z" fill="black"/>
<path d="M8.78566 20H5.43872V21.6327H8.78566V20Z" fill="black"/>
<path d="M35.5612 20H32.2142V21.6327H35.5612V20Z" fill="black"/>
<path d="M8.78566 21.6328H5.43872V23.2655H8.78566V21.6328Z" fill="black"/>
<path d="M35.5612 21.6328H32.2142V23.2655H35.5612V21.6328Z" fill="black"/>
<path d="M8.78566 23.2656H5.43872V24.8983H8.78566V23.2656Z" fill="black"/>
<path d="M35.5612 23.2656H32.2142V24.8983H35.5612V23.2656Z" fill="black"/>
<path d="M8.78566 24.8984H5.43872V26.5311H8.78566V24.8984Z" fill="black"/>
<path d="M35.5612 24.8984H32.2142V26.5311H35.5612V24.8984Z" fill="black"/>
<path d="M8.78566 26.5303H5.43872V28.1629H8.78566V26.5303Z" fill="black"/>
<path d="M35.5612 26.5303H32.2142V28.1629H35.5612V26.5303Z" fill="black"/>
<path d="M8.78566 28.1631H5.43872V29.7957H8.78566V28.1631Z" fill="black"/>
<path d="M35.5612 28.1631H32.2142V29.7957H35.5612V28.1631Z" fill="black"/>
<path d="M8.78566 29.7959H5.43872V31.4286H8.78566V29.7959Z" fill="black"/>
<path d="M35.5612 29.7959H32.2142V31.4286H35.5612V29.7959Z" fill="black"/>
<path d="M8.78566 31.4287H5.43872V33.0614H8.78566V31.4287Z" fill="black"/>
<path d="M35.5612 31.4287H32.2142V33.0614H35.5612V31.4287Z" fill="black"/>
<path d="M8.78566 33.0615H5.43872V34.6942H8.78566V33.0615Z" fill="black"/>
<path d="M35.5612 33.0615H32.2142V34.6942H35.5612V33.0615Z" fill="black"/>
<path d="M35.5612 34.6943H5.43872V36.327H35.5612V34.6943Z" fill="black"/>
<path d="M33.8878 36.3262H7.1123V37.9588H33.8878V36.3262Z" fill="black"/>
</svg>
