<svg width="41" height="40" viewBox="0 0 41 40" fill="none" xmlns="http://www.w3.org/2000/svg">
<path d="M27.1939 2.04102H7.1123V3.67367H27.1939V2.04102Z" fill="black"/>
<path d="M28.8673 3.67383H5.43872V5.30648H28.8673V3.67383Z" fill="black"/>
<path d="M8.78566 5.30566H5.43872V6.93832H8.78566V5.30566Z" fill="black"/>
<path d="M30.5409 5.30566H22.1736V6.93832H30.5409V5.30566Z" fill="black"/>
<path d="M8.78566 6.93848H5.43872V8.57113H8.78566V6.93848Z" fill="black"/>
<path d="M25.5205 6.93848H22.1736V8.57113H25.5205V6.93848Z" fill="black"/>
<path d="M32.2143 6.93848H27.1938V8.57113H32.2143V6.93848Z" fill="black"/>
<path d="M8.78566 8.57129H5.43872V10.2039H8.78566V8.57129Z" fill="black"/>
<path d="M25.5205 8.57129H22.1736V10.2039H25.5205V8.57129Z" fill="black"/>
<path d="M32.2144 8.57129H28.8674V10.2039H32.2144V8.57129Z" fill="black"/>
<path d="M8.78566 10.2041H5.43872V11.8368H8.78566V10.2041Z" fill="black"/>
<path d="M25.5205 10.2041H22.1736V11.8368H25.5205V10.2041Z" fill="black"/>
<path d="M8.78566 11.8369H5.43872V13.4696H8.78566V11.8369Z" fill="black"/>
<path d="M27.194 11.8369H22.1736V13.4696H27.194V11.8369Z" fill="black"/>
<path d="M8.78566 13.4697H5.43872V15.1024H8.78566V13.4697Z" fill="black"/>
<path d="M25.5204 13.4697H23.8469V15.1024H25.5204V13.4697Z" fill="black"/>
<path d="M37.2346 13.4697H30.5408V15.1024H37.2346V13.4697Z" fill="black"/>
<path d="M8.78566 15.1016H5.43872V16.7342H8.78566V15.1016Z" fill="black"/>
<path d="M38.9082 15.1016H28.8674V16.7342H38.9082V15.1016Z" fill="black"/>
<path d="M8.78566 16.7344H5.43872V18.367H8.78566V16.7344Z" fill="black"/>
<path d="M32.2143 16.7344H27.1938V18.367H32.2143V16.7344Z" fill="black"/>
<path d="M38.9082 16.7344H35.5613V18.367H38.9082V16.7344Z" fill="black"/>
<path d="M8.78566 18.3672H5.43872V19.9998H8.78566V18.3672Z" fill="black"/>
<path d="M30.5409 18.3672H25.5205V19.9998H30.5409V18.3672Z" fill="black"/>
<path d="M38.9082 18.3672H35.5613V19.9998H38.9082V18.3672Z" fill="black"/>
<path d="M8.78566 20H5.43872V21.6327H8.78566V20Z" fill="black"/>
<path d="M28.8673 20H23.8469V21.6327H28.8673V20Z" fill="black"/>
<path d="M38.9081 20H33.8877V21.6327H38.9081V20Z" fill="black"/>
<path d="M8.78566 21.6328H5.43872V23.2655H8.78566V21.6328Z" fill="black"/>
<path d="M27.194 21.6328H22.1736V23.2655H27.194V21.6328Z" fill="black"/>
<path d="M37.2348 21.6328H32.2144V23.2655H37.2348V21.6328Z" fill="black"/>
<path d="M8.78566 23.2656H5.43872V24.8983H8.78566V23.2656Z" fill="black"/>
<path d="M25.5205 23.2656H22.1736V24.8983H25.5205V23.2656Z" fill="black"/>
<path d="M35.5612 23.2656H30.5408V24.8983H35.5612V23.2656Z" fill="black"/>
<path d="M8.78566 24.8984H5.43872V26.5311H8.78566V24.8984Z" fill="black"/>
<path d="M25.5204 24.8984H20.5V26.5311H25.5204V24.8984Z" fill="black"/>
<path d="M33.8878 24.8984H28.8674V26.5311H33.8878V24.8984Z" fill="black"/>
<path d="M8.78566 26.5303H5.43872V28.1629H8.78566V26.5303Z" fill="black"/>
<path d="M32.2143 26.5303H20.5V28.1629H32.2143V26.5303Z" fill="black"/>
<path d="M8.78566 28.1631H5.43872V29.7957H8.78566V28.1631Z" fill="black"/>
<path d="M17.153 28.1631H12.1326V29.7957H17.153V28.1631Z" fill="black"/>
<path d="M30.5408 28.1631H20.5V29.7957H30.5408V28.1631Z" fill="black"/>
<path d="M8.78566 29.7959H5.43872V31.4286H8.78566V29.7959Z" fill="black"/>
<path d="M17.153 29.7959H12.1326V31.4286H17.153V29.7959Z" fill="black"/>
<path d="M27.1939 29.7959H20.5V31.4286H27.1939V29.7959Z" fill="black"/>
<path d="M8.78566 31.4287H5.43872V33.0614H8.78566V31.4287Z" fill="black"/>
<path d="M35.5613 31.4287H32.2144V33.0614H35.5613V31.4287Z" fill="black"/>
<path d="M8.78566 33.0615H5.43872V34.6942H8.78566V33.0615Z" fill="black"/>
<path d="M35.5613 33.0615H32.2144V34.6942H35.5613V33.0615Z" fill="black"/>
<path d="M35.5612 34.6943H5.43872V36.327H35.5612V34.6943Z" fill="black"/>
<path d="M33.8878 36.3262H7.1123V37.9588H33.8878V36.3262Z" fill="black"/>
</svg>
