<svg width="41" height="40" viewBox="0 0 41 40" fill="none" xmlns="http://www.w3.org/2000/svg">
<path d="M27.1939 2.04102H7.1123V3.67367H27.1939V2.04102Z" fill="black"/>
<path d="M28.8673 3.67383H5.43872V5.30648H28.8673V3.67383Z" fill="black"/>
<path d="M8.78566 5.30566H5.43872V6.93832H8.78566V5.30566Z" fill="black"/>
<path d="M30.5408 5.30566H22.1735V6.93832H30.5408V5.30566Z" fill="black"/>
<path d="M8.78566 6.93848H5.43872V8.57113H8.78566V6.93848Z" fill="black"/>
<path d="M25.5204 6.93848H22.1735V8.57113H25.5204V6.93848Z" fill="black"/>
<path d="M32.2143 6.93848H27.1938V8.57113H32.2143V6.93848Z" fill="black"/>
<path d="M8.78566 8.57129H5.43872V10.2039H8.78566V8.57129Z" fill="black"/>
<path d="M25.5204 8.57129H22.1735V10.2039H25.5204V8.57129Z" fill="black"/>
<path d="M33.8877 8.57129H28.8673V10.2039H33.8877V8.57129Z" fill="black"/>
<path d="M8.78566 10.2041H5.43872V11.8368H8.78566V10.2041Z" fill="black"/>
<path d="M25.5204 10.2041H22.1735V11.8368H25.5204V10.2041Z" fill="black"/>
<path d="M35.5612 10.2041H30.5408V11.8368H35.5612V10.2041Z" fill="black"/>
<path d="M8.78566 11.8369H5.43872V13.4696H8.78566V11.8369Z" fill="black"/>
<path d="M35.5612 11.8369H22.1735V13.4696H35.5612V11.8369Z" fill="black"/>
<path d="M8.78566 13.4697H5.43872V15.1024H8.78566V13.4697Z" fill="black"/>
<path d="M35.5612 13.4697H23.8469V15.1024H35.5612V13.4697Z" fill="black"/>
<path d="M8.78566 15.1016H5.43872V16.7342H8.78566V15.1016Z" fill="black"/>
<path d="M35.5612 15.1016H32.2142V16.7342H35.5612V15.1016Z" fill="black"/>
<path d="M8.78566 16.7344H5.43872V18.367H8.78566V16.7344Z" fill="black"/>
<path d="M35.5612 16.7344H32.2142V18.367H35.5612V16.7344Z" fill="black"/>
<path d="M8.78566 18.3672H5.43872V19.9998H8.78566V18.3672Z" fill="black"/>
<path d="M18.8266 18.3672H15.4796V19.9998H18.8266V18.3672Z" fill="black"/>
<path d="M35.5612 18.3672H32.2142V19.9998H35.5612V18.3672Z" fill="black"/>
<path d="M20.5 20H15.4796V21.6327H20.5V20Z" fill="black"/>
<path d="M35.5612 20H32.2142V21.6327H35.5612V20Z" fill="black"/>
<path d="M22.1735 21.6328H17.1531V23.2655H22.1735V21.6328Z" fill="black"/>
<path d="M35.5612 21.6328H32.2142V23.2655H35.5612V21.6328Z" fill="black"/>
<path d="M23.847 23.2656H7.1123V24.8983H23.847V23.2656Z" fill="black"/>
<path d="M35.5612 23.2656H32.2142V24.8983H35.5612V23.2656Z" fill="black"/>
<path d="M23.8469 24.8984H5.43872V26.5311H23.8469V24.8984Z" fill="black"/>
<path d="M35.5612 24.8984H32.2142V26.5311H35.5612V24.8984Z" fill="black"/>
<path d="M8.78566 26.5303H5.43872V28.1629H8.78566V26.5303Z" fill="black"/>
<path d="M22.1735 26.5303H17.1531V28.1629H22.1735V26.5303Z" fill="black"/>
<path d="M35.5612 26.5303H32.2142V28.1629H35.5612V26.5303Z" fill="black"/>
<path d="M8.78566 28.1631H5.43872V29.7957H8.78566V28.1631Z" fill="black"/>
<path d="M20.5 28.1631H15.4796V29.7957H20.5V28.1631Z" fill="black"/>
<path d="M35.5612 28.1631H32.2142V29.7957H35.5612V28.1631Z" fill="black"/>
<path d="M8.78566 29.7959H5.43872V31.4286H8.78566V29.7959Z" fill="black"/>
<path d="M18.8266 29.7959H15.4796V31.4286H18.8266V29.7959Z" fill="black"/>
<path d="M35.5612 29.7959H32.2142V31.4286H35.5612V29.7959Z" fill="black"/>
<path d="M8.78566 31.4287H5.43872V33.0614H8.78566V31.4287Z" fill="black"/>
<path d="M35.5612 31.4287H32.2142V33.0614H35.5612V31.4287Z" fill="black"/>
<path d="M8.78566 33.0615H5.43872V34.6942H8.78566V33.0615Z" fill="black"/>
<path d="M35.5612 33.0615H32.2142V34.6942H35.5612V33.0615Z" fill="black"/>
<path d="M35.5612 34.6943H5.43872V36.327H35.5612V34.6943Z" fill="black"/>
<path d="M33.8878 36.3262H7.1123V37.9588H33.8878V36.3262Z" fill="black"/>
</svg>
