<svg width="40" height="40" viewBox="0 0 40 40" fill="none" xmlns="http://www.w3.org/2000/svg">
<path d="M26.5306 2.04102H6.93872V3.67367H26.5306V2.04102Z" fill="black"/>
<path d="M28.1633 3.67383H5.30615V5.30648H28.1633V3.67383Z" fill="black"/>
<path d="M8.57146 5.30566H5.30615V6.93832H8.57146V5.30566Z" fill="black"/>
<path d="M29.7958 5.30566H21.6326V6.93832H29.7958V5.30566Z" fill="black"/>
<path d="M8.57146 6.93848H5.30615V8.57113H8.57146V6.93848Z" fill="black"/>
<path d="M24.8979 6.93848H21.6326V8.57113H24.8979V6.93848Z" fill="black"/>
<path d="M31.4285 6.93848H26.5305V8.57113H31.4285V6.93848Z" fill="black"/>
<path d="M8.57146 8.57129H5.30615V10.2039H8.57146V8.57129Z" fill="black"/>
<path d="M24.8979 8.57129H21.6326V10.2039H24.8979V8.57129Z" fill="black"/>
<path d="M33.0613 8.57129H28.1633V10.2039H33.0613V8.57129Z" fill="black"/>
<path d="M8.57146 10.2041H5.30615V11.8368H8.57146V10.2041Z" fill="black"/>
<path d="M24.8979 10.2041H21.6326V11.8368H24.8979V10.2041Z" fill="black"/>
<path d="M34.6939 10.2041H29.7959V11.8368H34.6939V10.2041Z" fill="black"/>
<path d="M8.57146 11.8369H5.30615V13.4696H8.57146V11.8369Z" fill="black"/>
<path d="M34.6938 11.8369H21.6326V13.4696H34.6938V11.8369Z" fill="black"/>
<path d="M8.57146 13.4697H5.30615V15.1024H8.57146V13.4697Z" fill="black"/>
<path d="M34.694 13.4697H23.2654V15.1024H34.694V13.4697Z" fill="black"/>
<path d="M8.57146 15.1016H5.30615V16.7342H8.57146V15.1016Z" fill="black"/>
<path d="M34.6938 15.1016H31.4285V16.7342H34.6938V15.1016Z" fill="black"/>
<path d="M8.57146 16.7344H5.30615V18.367H8.57146V16.7344Z" fill="black"/>
<path d="M34.6938 16.7344H31.4285V18.367H34.6938V16.7344Z" fill="black"/>
<path d="M34.6938 18.3672H31.4285V19.9998H34.6938V18.3672Z" fill="black"/>
<path d="M15.1021 20H8.57153V21.6327H15.1021V20Z" fill="black"/>
<path d="M34.6938 20H31.4285V21.6327H34.6938V20Z" fill="black"/>
<path d="M16.7346 21.6328H6.93872V23.2655H16.7346V21.6328Z" fill="black"/>
<path d="M34.6938 21.6328H31.4285V23.2655H34.6938V21.6328Z" fill="black"/>
<path d="M10.204 23.2656H6.93872V24.8983H10.204V23.2656Z" fill="black"/>
<path d="M16.7348 23.2656H13.4695V24.8983H16.7348V23.2656Z" fill="black"/>
<path d="M34.6938 23.2656H31.4285V24.8983H34.6938V23.2656Z" fill="black"/>
<path d="M10.204 24.8984H6.93872V26.5311H10.204V24.8984Z" fill="black"/>
<path d="M16.7348 24.8984H13.4695V26.5311H16.7348V24.8984Z" fill="black"/>
<path d="M34.6938 24.8984H31.4285V26.5311H34.6938V24.8984Z" fill="black"/>
<path d="M18.3674 26.5303H5.30615V28.1629H18.3674V26.5303Z" fill="black"/>
<path d="M34.6938 26.5303H31.4285V28.1629H34.6938V26.5303Z" fill="black"/>
<path d="M20.0001 28.1631H3.67358V29.7957H20.0001V28.1631Z" fill="black"/>
<path d="M34.6938 28.1631H31.4285V29.7957H34.6938V28.1631Z" fill="black"/>
<path d="M6.93889 29.7959H3.67358V31.4286H6.93889V29.7959Z" fill="black"/>
<path d="M19.9999 29.7959H16.7346V31.4286H19.9999V29.7959Z" fill="black"/>
<path d="M34.6938 29.7959H31.4285V31.4286H34.6938V29.7959Z" fill="black"/>
<path d="M6.93889 31.4287H3.67358V33.0614H6.93889V31.4287Z" fill="black"/>
<path d="M19.9999 31.4287H16.7346V33.0614H19.9999V31.4287Z" fill="black"/>
<path d="M34.6938 31.4287H31.4285V33.0614H34.6938V31.4287Z" fill="black"/>
<path d="M6.93889 33.0615H3.67358V34.6942H6.93889V33.0615Z" fill="black"/>
<path d="M19.9999 33.0615H16.7346V34.6942H19.9999V33.0615Z" fill="black"/>
<path d="M34.6938 33.0615H31.4285V34.6942H34.6938V33.0615Z" fill="black"/>
<path d="M20.0001 34.6943H3.67358V36.327H20.0001V34.6943Z" fill="black"/>
<path d="M34.694 34.6943H23.2654V36.327H34.694V34.6943Z" fill="black"/>
<path d="M18.3674 36.3262H5.30615V37.9588H18.3674V36.3262Z" fill="black"/>
<path d="M33.0613 36.3262H23.2654V37.9588H33.0613V36.3262Z" fill="black"/>
</svg>
