<svg width="40" height="40" viewBox="0 0 40 40" fill="none" xmlns="http://www.w3.org/2000/svg">
<path d="M26.5306 2.04102H6.93872V3.67367H26.5306V2.04102Z" fill="black"/>
<path d="M28.1633 3.67383H5.30615V5.30648H28.1633V3.67383Z" fill="black"/>
<path d="M8.57146 5.30566H5.30615V6.93832H8.57146V5.30566Z" fill="black"/>
<path d="M29.796 5.30566H21.6327V6.93832H29.796V5.30566Z" fill="black"/>
<path d="M8.57146 6.93848H5.30615V8.57113H8.57146V6.93848Z" fill="black"/>
<path d="M24.898 6.93848H21.6327V8.57113H24.898V6.93848Z" fill="black"/>
<path d="M31.4286 6.93848H26.5306V8.57113H31.4286V6.93848Z" fill="black"/>
<path d="M8.57146 8.57129H5.30615V10.2039H8.57146V8.57129Z" fill="black"/>
<path d="M24.898 8.57129H21.6327V10.2039H24.898V8.57129Z" fill="black"/>
<path d="M33.0612 8.57129H28.1632V10.2039H33.0612V8.57129Z" fill="black"/>
<path d="M8.57146 10.2041H5.30615V11.8368H8.57146V10.2041Z" fill="black"/>
<path d="M24.898 10.2041H21.6327V11.8368H24.898V10.2041Z" fill="black"/>
<path d="M34.6939 10.2041H29.7959V11.8368H34.6939V10.2041Z" fill="black"/>
<path d="M8.57146 11.8369H5.30615V13.4696H8.57146V11.8369Z" fill="black"/>
<path d="M34.6939 11.8369H21.6327V13.4696H34.6939V11.8369Z" fill="black"/>
<path d="M8.57146 13.4697H5.30615V15.1024H8.57146V13.4697Z" fill="black"/>
<path d="M34.6938 13.4697H23.2653V15.1024H34.6938V13.4697Z" fill="black"/>
<path d="M8.57146 15.1016H5.30615V16.7342H8.57146V15.1016Z" fill="black"/>
<path d="M34.6939 15.1016H31.4286V16.7342H34.6939V15.1016Z" fill="black"/>
<path d="M8.57146 16.7344H5.30615V18.367H8.57146V16.7344Z" fill="black"/>
<path d="M34.6939 16.7344H31.4286V18.367H34.6939V16.7344Z" fill="black"/>
<path d="M8.57146 18.3672H5.30615V19.9998H8.57146V18.3672Z" fill="black"/>
<path d="M21.6326 18.3672H18.3673V19.9998H21.6326V18.3672Z" fill="black"/>
<path d="M34.6939 18.3672H31.4286V19.9998H34.6939V18.3672Z" fill="black"/>
<path d="M8.57146 20H5.30615V21.6327H8.57146V20Z" fill="black"/>
<path d="M21.6326 20H18.3673V21.6327H21.6326V20Z" fill="black"/>
<path d="M34.6939 20H31.4286V21.6327H34.6939V20Z" fill="black"/>
<path d="M8.57146 21.6328H5.30615V23.2655H8.57146V21.6328Z" fill="black"/>
<path d="M21.6326 21.6328H18.3673V23.2655H21.6326V21.6328Z" fill="black"/>
<path d="M34.6939 21.6328H31.4286V23.2655H34.6939V21.6328Z" fill="black"/>
<path d="M8.57146 23.2656H5.30615V24.8983H8.57146V23.2656Z" fill="black"/>
<path d="M16.7347 23.2656H13.4694V24.8983H16.7347V23.2656Z" fill="black"/>
<path d="M21.6326 23.2656H18.3673V24.8983H21.6326V23.2656Z" fill="black"/>
<path d="M26.5306 23.2656H23.2653V24.8983H26.5306V23.2656Z" fill="black"/>
<path d="M34.6939 23.2656H31.4286V24.8983H34.6939V23.2656Z" fill="black"/>
<path d="M8.57146 24.8984H5.30615V26.5311H8.57146V24.8984Z" fill="black"/>
<path d="M26.5306 24.8984H13.4694V26.5311H26.5306V24.8984Z" fill="black"/>
<path d="M34.6939 24.8984H31.4286V26.5311H34.6939V24.8984Z" fill="black"/>
<path d="M8.57146 26.5303H5.30615V28.1629H8.57146V26.5303Z" fill="black"/>
<path d="M24.898 26.5303H15.1021V28.1629H24.898V26.5303Z" fill="black"/>
<path d="M34.6939 26.5303H31.4286V28.1629H34.6939V26.5303Z" fill="black"/>
<path d="M8.57146 28.1631H5.30615V29.7957H8.57146V28.1631Z" fill="black"/>
<path d="M23.2654 28.1631H16.7347V29.7957H23.2654V28.1631Z" fill="black"/>
<path d="M34.6939 28.1631H31.4286V29.7957H34.6939V28.1631Z" fill="black"/>
<path d="M8.57146 29.7959H5.30615V31.4286H8.57146V29.7959Z" fill="black"/>
<path d="M21.6326 29.7959H18.3673V31.4286H21.6326V29.7959Z" fill="black"/>
<path d="M34.6939 29.7959H31.4286V31.4286H34.6939V29.7959Z" fill="black"/>
<path d="M8.57146 31.4287H5.30615V33.0614H8.57146V31.4287Z" fill="black"/>
<path d="M34.6939 31.4287H31.4286V33.0614H34.6939V31.4287Z" fill="black"/>
<path d="M8.57146 33.0615H5.30615V34.6942H8.57146V33.0615Z" fill="black"/>
<path d="M34.6939 33.0615H31.4286V34.6942H34.6939V33.0615Z" fill="black"/>
<path d="M34.6939 34.6943H5.30615V36.327H34.6939V34.6943Z" fill="black"/>
<path d="M33.0612 36.3262H6.93872V37.9588H33.0612V36.3262Z" fill="black"/>
</svg>
