<svg width="42" height="40" viewBox="0 0 42 40" fill="none" xmlns="http://www.w3.org/2000/svg">
<path d="M27.8571 2.04102H7.28564V3.67367H27.8571V2.04102Z" fill="black"/>
<path d="M29.5715 3.67383H5.57153V5.30648H29.5715V3.67383Z" fill="black"/>
<path d="M9.0001 5.30566H5.57153V6.93832H9.0001V5.30566Z" fill="black"/>
<path d="M31.2858 5.30566H22.7144V6.93832H31.2858V5.30566Z" fill="black"/>
<path d="M9.0001 6.93848H5.57153V8.57113H9.0001V6.93848Z" fill="black"/>
<path d="M26.1429 6.93848H22.7144V8.57113H26.1429V6.93848Z" fill="black"/>
<path d="M33 6.93848H27.8572V8.57113H33V6.93848Z" fill="black"/>
<path d="M9.0001 8.57129H5.57153V10.2039H9.0001V8.57129Z" fill="black"/>
<path d="M26.1429 8.57129H22.7144V10.2039H26.1429V8.57129Z" fill="black"/>
<path d="M34.7144 8.57129H29.5715V10.2039H34.7144V8.57129Z" fill="black"/>
<path d="M9.0001 10.2041H5.57153V11.8368H9.0001V10.2041Z" fill="black"/>
<path d="M26.1429 10.2041H22.7144V11.8368H26.1429V10.2041Z" fill="black"/>
<path d="M36.4285 10.2041H31.2856V11.8368H36.4285V10.2041Z" fill="black"/>
<path d="M9.0001 11.8369H5.57153V13.4696H9.0001V11.8369Z" fill="black"/>
<path d="M36.4286 11.8369H22.7144V13.4696H36.4286V11.8369Z" fill="black"/>
<path d="M9.0001 13.4697H5.57153V15.1024H9.0001V13.4697Z" fill="black"/>
<path d="M36.4285 13.4697H24.4285V15.1024H36.4285V13.4697Z" fill="black"/>
<path d="M9.0001 15.1016H5.57153V16.7342H9.0001V15.1016Z" fill="black"/>
<path d="M21 15.1016H14.1428V16.7342H21V15.1016Z" fill="black"/>
<path d="M36.4286 15.1016H33V16.7342H36.4286V15.1016Z" fill="black"/>
<path d="M9.0001 16.7344H5.57153V18.367H9.0001V16.7344Z" fill="black"/>
<path d="M22.7142 16.7344H12.4285V18.367H22.7142V16.7344Z" fill="black"/>
<path d="M36.4286 16.7344H33V18.367H36.4286V16.7344Z" fill="black"/>
<path d="M9.0001 18.3672H5.57153V19.9998H9.0001V18.3672Z" fill="black"/>
<path d="M15.857 18.3672H12.4285V19.9998H15.857V18.3672Z" fill="black"/>
<path d="M22.7142 18.3672H19.2856V19.9998H22.7142V18.3672Z" fill="black"/>
<path d="M36.4286 18.3672H33V19.9998H36.4286V18.3672Z" fill="black"/>
<path d="M9.0001 20H5.57153V21.6327H9.0001V20Z" fill="black"/>
<path d="M15.857 20H12.4285V21.6327H15.857V20Z" fill="black"/>
<path d="M22.7142 20H19.2856V21.6327H22.7142V20Z" fill="black"/>
<path d="M36.4286 20H33V21.6327H36.4286V20Z" fill="black"/>
<path d="M9.0001 21.6328H5.57153V23.2655H9.0001V21.6328Z" fill="black"/>
<path d="M22.7142 21.6328H12.4285V23.2655H22.7142V21.6328Z" fill="black"/>
<path d="M36.4286 21.6328H33V23.2655H36.4286V21.6328Z" fill="black"/>
<path d="M9.0001 23.2656H5.57153V24.8983H9.0001V23.2656Z" fill="black"/>
<path d="M21 23.2656H14.1428V24.8983H21V23.2656Z" fill="black"/>
<path d="M36.4285 23.2656H26.1428V24.8983H36.4285V23.2656Z" fill="black"/>
<path d="M9.0001 24.8984H5.57153V26.5311H9.0001V24.8984Z" fill="black"/>
<path d="M36.4285 24.8984H24.4285V26.5311H36.4285V24.8984Z" fill="black"/>
<path d="M9.0001 26.5303H5.57153V28.1629H9.0001V26.5303Z" fill="black"/>
<path d="M27.8572 26.5303H22.7144V28.1629H27.8572V26.5303Z" fill="black"/>
<path d="M36.4285 26.5303H31.2856V28.1629H36.4285V26.5303Z" fill="black"/>
<path d="M9.0001 28.1631H5.57153V29.7957H9.0001V28.1631Z" fill="black"/>
<path d="M26.1429 28.1631H21V29.7957H26.1429V28.1631Z" fill="black"/>
<path d="M36.4286 28.1631H33V29.7957H36.4286V28.1631Z" fill="black"/>
<path d="M9.0001 29.7959H5.57153V31.4286H9.0001V29.7959Z" fill="black"/>
<path d="M24.4285 29.7959H19.2856V31.4286H24.4285V29.7959Z" fill="black"/>
<path d="M36.4286 29.7959H33V31.4286H36.4286V29.7959Z" fill="black"/>
<path d="M9.0001 31.4287H5.57153V33.0614H9.0001V31.4287Z" fill="black"/>
<path d="M22.7144 31.4287H17.5715V33.0614H22.7144V31.4287Z" fill="black"/>
<path d="M36.4286 31.4287H33V33.0614H36.4286V31.4287Z" fill="black"/>
<path d="M9.0001 33.0615H5.57153V34.6942H9.0001V33.0615Z" fill="black"/>
<path d="M21 33.0615H15.8572V34.6942H21V33.0615Z" fill="black"/>
<path d="M36.4286 33.0615H33V34.6942H36.4286V33.0615Z" fill="black"/>
<path d="M36.4287 34.6943H5.57153V36.327H36.4287V34.6943Z" fill="black"/>
<path d="M34.7142 36.3262H7.28564V37.9588H34.7142V36.3262Z" fill="black"/>
</svg>
