<svg width="41" height="41" viewBox="0 0 41 41" fill="none" xmlns="http://www.w3.org/2000/svg">
<path d="M17.153 3.76562H3.76526V5.43909H17.153V3.76562Z" fill="black"/>
<path d="M18.8265 5.43848H2.0918V7.11195H18.8265V5.43848Z" fill="black"/>
<path d="M5.43874 7.1123H2.0918V8.78577H5.43874V7.1123Z" fill="black"/>
<path d="M18.8266 7.1123H15.4796V8.78577H18.8266V7.1123Z" fill="black"/>
<path d="M5.43874 8.78613H2.0918V10.4596H5.43874V8.78613Z" fill="black"/>
<path d="M33.8878 8.78613H15.4796V10.4596H33.8878V8.78613Z" fill="black"/>
<path d="M5.43874 10.459H2.0918V12.1325H5.43874V10.459Z" fill="black"/>
<path d="M35.5612 10.459H17.1531V12.1325H35.5612V10.459Z" fill="black"/>
<path d="M5.43874 12.1328H2.0918V13.8063H5.43874V12.1328Z" fill="black"/>
<path d="M35.5612 12.1328H32.2142V13.8063H35.5612V12.1328Z" fill="black"/>
<path d="M5.43874 13.8057H2.0918V15.4791H5.43874V13.8057Z" fill="black"/>
<path d="M35.5612 13.8057H32.2142V15.4791H35.5612V13.8057Z" fill="black"/>
<path d="M5.43874 15.4795H2.0918V17.153H5.43874V15.4795Z" fill="black"/>
<path d="M37.2347 15.4795H12.1327V17.153H37.2347V15.4795Z" fill="black"/>
<path d="M5.43874 17.1533H2.0918V18.8268H5.43874V17.1533Z" fill="black"/>
<path d="M38.9082 17.1533H12.1327V18.8268H38.9082V17.1533Z" fill="black"/>
<path d="M5.43874 18.8262H2.0918V20.4996H5.43874V18.8262Z" fill="black"/>
<path d="M15.4796 18.8262H10.4592V20.4996H15.4796V18.8262Z" fill="black"/>
<path d="M38.9082 18.8262H35.5613V20.4996H38.9082V18.8262Z" fill="black"/>
<path d="M5.43874 20.5H2.0918V22.1735H5.43874V20.5Z" fill="black"/>
<path d="M13.8062 20.5H10.4592V22.1735H13.8062V20.5Z" fill="black"/>
<path d="M38.9082 20.5H35.5613V22.1735H38.9082V20.5Z" fill="black"/>
<path d="M5.43874 22.1738H2.0918V23.8473H5.43874V22.1738Z" fill="black"/>
<path d="M13.8062 22.1738H8.78577V23.8473H13.8062V22.1738Z" fill="black"/>
<path d="M38.9082 22.1738H35.5613V23.8473H38.9082V22.1738Z" fill="black"/>
<path d="M5.43874 23.8467H2.0918V25.5201H5.43874V23.8467Z" fill="black"/>
<path d="M12.1327 23.8467H8.78577V25.5201H12.1327V23.8467Z" fill="black"/>
<path d="M38.9081 23.8467H33.8877V25.5201H38.9081V23.8467Z" fill="black"/>
<path d="M5.43874 25.5205H2.0918V27.194H5.43874V25.5205Z" fill="black"/>
<path d="M37.2346 25.5205H33.8877V27.194H37.2346V25.5205Z" fill="black"/>
<path d="M5.43874 27.1943H2.0918V28.8678H5.43874V27.1943Z" fill="black"/>
<path d="M37.2346 27.1943H33.8877V28.8678H37.2346V27.1943Z" fill="black"/>
<path d="M5.43874 28.8672H2.0918V30.5407H5.43874V28.8672Z" fill="black"/>
<path d="M37.2346 28.8672H32.2142V30.5407H37.2346V28.8672Z" fill="black"/>
<path d="M5.43874 30.541H2.0918V32.2145H5.43874V30.541Z" fill="black"/>
<path d="M37.2346 30.541H32.2142V32.2145H37.2346V30.541Z" fill="black"/>
<path d="M35.5612 32.2139H2.0918V33.8873H35.5612V32.2139Z" fill="black"/>
<path d="M33.8877 33.8877H3.76526V35.5612H33.8877V33.8877Z" fill="black"/>
</svg>
