<svg width="42" height="41" viewBox="0 0 42 41" fill="none" xmlns="http://www.w3.org/2000/svg">
<path d="M17.5715 3.76562H3.85718V5.43909H17.5715V3.76562Z" fill="black"/>
<path d="M19.2857 5.43848H2.14282V7.11195H19.2857V5.43848Z" fill="black"/>
<path d="M5.57139 7.1123H2.14282V8.78577H5.57139V7.1123Z" fill="black"/>
<path d="M19.2857 7.1123H15.8572V8.78577H19.2857V7.1123Z" fill="black"/>
<path d="M5.57139 8.78613H2.14282V10.4596H5.57139V8.78613Z" fill="black"/>
<path d="M38.1429 8.78613H15.8572V10.4596H38.1429V8.78613Z" fill="black"/>
<path d="M5.57139 10.459H2.14282V12.1325H5.57139V10.459Z" fill="black"/>
<path d="M39.8572 10.459H17.5715V12.1325H39.8572V10.459Z" fill="black"/>
<path d="M5.57139 12.1328H2.14282V13.8063H5.57139V12.1328Z" fill="black"/>
<path d="M39.857 12.1328H36.4285V13.8063H39.857V12.1328Z" fill="black"/>
<path d="M5.57139 13.8057H2.14282V15.4791H5.57139V13.8057Z" fill="black"/>
<path d="M39.857 13.8057H36.4285V15.4791H39.857V13.8057Z" fill="black"/>
<path d="M5.57139 15.4795H2.14282V17.153H5.57139V15.4795Z" fill="black"/>
<path d="M15.857 15.4795H12.4285V17.153H15.857V15.4795Z" fill="black"/>
<path d="M39.857 15.4795H36.4285V17.153H39.857V15.4795Z" fill="black"/>
<path d="M17.5713 17.1533H12.4285V18.8268H17.5713V17.1533Z" fill="black"/>
<path d="M39.857 17.1533H36.4285V18.8268H39.857V17.1533Z" fill="black"/>
<path d="M19.2857 18.8262H14.1428V20.4996H19.2857V18.8262Z" fill="black"/>
<path d="M39.857 18.8262H36.4285V20.4996H39.857V18.8262Z" fill="black"/>
<path d="M21 20.5H3.85718V22.1735H21V20.5Z" fill="black"/>
<path d="M39.857 20.5H36.4285V22.1735H39.857V20.5Z" fill="black"/>
<path d="M21 22.1738H2.14282V23.8473H21V22.1738Z" fill="black"/>
<path d="M39.857 22.1738H36.4285V23.8473H39.857V22.1738Z" fill="black"/>
<path d="M5.57139 23.8467H2.14282V25.5201H5.57139V23.8467Z" fill="black"/>
<path d="M19.2857 23.8467H14.1428V25.5201H19.2857V23.8467Z" fill="black"/>
<path d="M39.857 23.8467H36.4285V25.5201H39.857V23.8467Z" fill="black"/>
<path d="M5.57139 25.5205H2.14282V27.194H5.57139V25.5205Z" fill="black"/>
<path d="M17.5713 25.5205H12.4285V27.194H17.5713V25.5205Z" fill="black"/>
<path d="M39.857 25.5205H36.4285V27.194H39.857V25.5205Z" fill="black"/>
<path d="M5.57139 27.1943H2.14282V28.8678H5.57139V27.1943Z" fill="black"/>
<path d="M15.857 27.1943H12.4285V28.8678H15.857V27.1943Z" fill="black"/>
<path d="M39.857 27.1943H36.4285V28.8678H39.857V27.1943Z" fill="black"/>
<path d="M5.57139 28.8672H2.14282V30.5407H5.57139V28.8672Z" fill="black"/>
<path d="M39.857 28.8672H36.4285V30.5407H39.857V28.8672Z" fill="black"/>
<path d="M5.57139 30.541H2.14282V32.2145H5.57139V30.541Z" fill="black"/>
<path d="M39.857 30.541H36.4285V32.2145H39.857V30.541Z" fill="black"/>
<path d="M39.8571 32.2139H2.14282V33.8873H39.8571V32.2139Z" fill="black"/>
<path d="M38.1429 33.8877H3.85718V35.5612H38.1429V33.8877Z" fill="black"/>
</svg>
