<svg width="40" height="41" viewBox="0 0 40 41" fill="none" xmlns="http://www.w3.org/2000/svg">
<path d="M21.6326 3.76562H11.8367V5.43909H21.6326V3.76562Z" fill="black"/>
<path d="M23.2653 5.43848H10.2041V7.11195H23.2653V5.43848Z" fill="black"/>
<path d="M13.4694 7.1123H10.2041V8.78577H13.4694V7.1123Z" fill="black"/>
<path d="M36.3265 7.1123H20V8.78577H36.3265V7.1123Z" fill="black"/>
<path d="M13.4694 8.78613H10.2041V10.4596H13.4694V8.78613Z" fill="black"/>
<path d="M37.9591 8.78613H21.6326V10.4596H37.9591V8.78613Z" fill="black"/>
<path d="M13.4694 10.459H10.2041V12.1325H13.4694V10.459Z" fill="black"/>
<path d="M37.9592 10.459H34.6938V12.1325H37.9592V10.459Z" fill="black"/>
<path d="M6.93889 12.1328H3.67358V13.8063H6.93889V12.1328Z" fill="black"/>
<path d="M13.4694 12.1328H10.2041V13.8063H13.4694V12.1328Z" fill="black"/>
<path d="M37.9592 12.1328H34.6938V13.8063H37.9592V12.1328Z" fill="black"/>
<path d="M6.93873 13.8057H2.04077V15.4791H6.93873V13.8057Z" fill="black"/>
<path d="M13.4694 13.8057H10.2041V15.4791H13.4694V13.8057Z" fill="black"/>
<path d="M37.9592 13.8057H34.6938V15.4791H37.9592V13.8057Z" fill="black"/>
<path d="M5.30608 15.4795H2.04077V17.153H5.30608V15.4795Z" fill="black"/>
<path d="M13.4694 15.4795H10.2041V17.153H13.4694V15.4795Z" fill="black"/>
<path d="M37.9592 15.4795H34.6938V17.153H37.9592V15.4795Z" fill="black"/>
<path d="M5.30608 17.1533H2.04077V18.8268H5.30608V17.1533Z" fill="black"/>
<path d="M13.4694 17.1533H10.2041V18.8268H13.4694V17.1533Z" fill="black"/>
<path d="M37.9592 17.1533H34.6938V18.8268H37.9592V17.1533Z" fill="black"/>
<path d="M5.30608 18.8262H2.04077V20.4996H5.30608V18.8262Z" fill="black"/>
<path d="M13.4694 18.8262H10.2041V20.4996H13.4694V18.8262Z" fill="black"/>
<path d="M37.9592 18.8262H34.6938V20.4996H37.9592V18.8262Z" fill="black"/>
<path d="M5.30608 20.5H2.04077V22.1735H5.30608V20.5Z" fill="black"/>
<path d="M13.4694 20.5H10.2041V22.1735H13.4694V20.5Z" fill="black"/>
<path d="M37.9592 20.5H34.6938V22.1735H37.9592V20.5Z" fill="black"/>
<path d="M5.30608 22.1738H2.04077V23.8473H5.30608V22.1738Z" fill="black"/>
<path d="M13.4694 22.1738H10.2041V23.8473H13.4694V22.1738Z" fill="black"/>
<path d="M37.9592 22.1738H34.6938V23.8473H37.9592V22.1738Z" fill="black"/>
<path d="M5.30608 23.8467H2.04077V25.5201H5.30608V23.8467Z" fill="black"/>
<path d="M13.4694 23.8467H10.2041V25.5201H13.4694V23.8467Z" fill="black"/>
<path d="M37.9592 23.8467H34.6938V25.5201H37.9592V23.8467Z" fill="black"/>
<path d="M5.30608 25.5205H2.04077V27.194H5.30608V25.5205Z" fill="black"/>
<path d="M37.9592 25.5205H10.2041V27.194H37.9592V25.5205Z" fill="black"/>
<path d="M5.30608 27.1943H2.04077V28.8678H5.30608V27.1943Z" fill="black"/>
<path d="M36.3265 27.1943H11.8367V28.8678H36.3265V27.1943Z" fill="black"/>
<path d="M5.30608 28.8672H2.04077V30.5407H5.30608V28.8672Z" fill="black"/>
<path d="M5.30608 30.541H2.04077V32.2145H5.30608V30.541Z" fill="black"/>
<path d="M5.30608 32.2139H2.04077V33.8873H5.30608V32.2139Z" fill="black"/>
<path d="M29.7958 32.2139H26.5305V33.8873H29.7958V32.2139Z" fill="black"/>
<path d="M29.7959 33.8877H2.04077V35.5612H29.7959V33.8877Z" fill="black"/>
<path d="M28.1634 35.5615H3.67358V37.235H28.1634V35.5615Z" fill="black"/>
</svg>
