<svg width="41" height="41" viewBox="0 0 41 41" fill="none" xmlns="http://www.w3.org/2000/svg">
<path d="M17.1531 3.76562H3.76538V5.43909H17.1531V3.76562Z" fill="black"/>
<path d="M18.8265 5.43848H2.0918V7.11195H18.8265V5.43848Z" fill="black"/>
<path d="M5.43874 7.1123H2.0918V8.78577H5.43874V7.1123Z" fill="black"/>
<path d="M18.8264 7.1123H15.4795V8.78577H18.8264V7.1123Z" fill="black"/>
<path d="M5.43874 8.78613H2.0918V10.4596H5.43874V8.78613Z" fill="black"/>
<path d="M37.2346 8.78613H15.4795V10.4596H37.2346V8.78613Z" fill="black"/>
<path d="M5.43874 10.459H2.0918V12.1325H5.43874V10.459Z" fill="black"/>
<path d="M38.9082 10.459H17.1531V12.1325H38.9082V10.459Z" fill="black"/>
<path d="M5.43874 12.1328H2.0918V13.8063H5.43874V12.1328Z" fill="black"/>
<path d="M38.9082 12.1328H35.5613V13.8063H38.9082V12.1328Z" fill="black"/>
<path d="M5.43874 13.8057H2.0918V15.4791H5.43874V13.8057Z" fill="black"/>
<path d="M38.9082 13.8057H35.5613V15.4791H38.9082V13.8057Z" fill="black"/>
<path d="M5.43874 15.4795H2.0918V17.153H5.43874V15.4795Z" fill="black"/>
<path d="M38.9082 15.4795H35.5613V17.153H38.9082V15.4795Z" fill="black"/>
<path d="M5.43874 17.1533H2.0918V18.8268H5.43874V17.1533Z" fill="black"/>
<path d="M38.9082 17.1533H35.5613V18.8268H38.9082V17.1533Z" fill="black"/>
<path d="M5.43874 18.8262H2.0918V20.4996H5.43874V18.8262Z" fill="black"/>
<path d="M38.9082 18.8262H35.5613V20.4996H38.9082V18.8262Z" fill="black"/>
<path d="M5.43874 20.5H2.0918V22.1735H5.43874V20.5Z" fill="black"/>
<path d="M38.9082 20.5H35.5613V22.1735H38.9082V20.5Z" fill="black"/>
<path d="M5.43874 22.1738H2.0918V23.8473H5.43874V22.1738Z" fill="black"/>
<path d="M38.9082 22.1738H35.5613V23.8473H38.9082V22.1738Z" fill="black"/>
<path d="M5.43874 23.8467H2.0918V25.5201H5.43874V23.8467Z" fill="black"/>
<path d="M38.9082 23.8467H35.5613V25.5201H38.9082V23.8467Z" fill="black"/>
<path d="M5.43874 25.5205H2.0918V27.194H5.43874V25.5205Z" fill="black"/>
<path d="M38.9082 25.5205H35.5613V27.194H38.9082V25.5205Z" fill="black"/>
<path d="M5.43874 27.1943H2.0918V28.8678H5.43874V27.1943Z" fill="black"/>
<path d="M38.9082 27.1943H35.5613V28.8678H38.9082V27.1943Z" fill="black"/>
<path d="M5.43874 28.8672H2.0918V30.5407H5.43874V28.8672Z" fill="black"/>
<path d="M38.9082 28.8672H35.5613V30.5407H38.9082V28.8672Z" fill="black"/>
<path d="M5.43874 30.541H2.0918V32.2145H5.43874V30.541Z" fill="black"/>
<path d="M38.9082 30.541H35.5613V32.2145H38.9082V30.541Z" fill="black"/>
<path d="M38.9081 32.2139H2.0918V33.8873H38.9081V32.2139Z" fill="black"/>
<path d="M37.2348 33.8877H3.76538V35.5612H37.2348V33.8877Z" fill="black"/>
</svg>
