<svg width="41" height="40" viewBox="0 0 41 40" fill="none" xmlns="http://www.w3.org/2000/svg">
<path d="M22.1735 3.67383H18.8265V5.30648H22.1735V3.67383Z" fill="black"/>
<path d="M22.1735 5.30566H18.8265V6.93832H22.1735V5.30566Z" fill="black"/>
<path d="M15.4795 6.93848H3.76526V8.57113H15.4795V6.93848Z" fill="black"/>
<path d="M22.1735 6.93848H18.8265V8.57113H22.1735V6.93848Z" fill="black"/>
<path d="M37.2347 6.93848H25.5204V8.57113H37.2347V6.93848Z" fill="black"/>
<path d="M15.4796 8.57129H2.0918V10.2039H15.4796V8.57129Z" fill="black"/>
<path d="M22.1735 8.57129H18.8265V10.2039H22.1735V8.57129Z" fill="black"/>
<path d="M38.9081 8.57129H25.5204V10.2039H38.9081V8.57129Z" fill="black"/>
<path d="M5.43874 10.2041H2.0918V11.8368H5.43874V10.2041Z" fill="black"/>
<path d="M22.1735 10.2041H18.8265V11.8368H22.1735V10.2041Z" fill="black"/>
<path d="M38.9082 10.2041H35.5613V11.8368H38.9082V10.2041Z" fill="black"/>
<path d="M5.43874 11.8369H2.0918V13.4696H5.43874V11.8369Z" fill="black"/>
<path d="M22.1735 11.8369H18.8265V13.4696H22.1735V11.8369Z" fill="black"/>
<path d="M38.9082 11.8369H35.5613V13.4696H38.9082V11.8369Z" fill="black"/>
<path d="M5.43874 13.4697H2.0918V15.1024H5.43874V13.4697Z" fill="black"/>
<path d="M22.1735 13.4697H18.8265V15.1024H22.1735V13.4697Z" fill="black"/>
<path d="M38.9082 13.4697H35.5613V15.1024H38.9082V13.4697Z" fill="black"/>
<path d="M5.43874 15.1016H2.0918V16.7342H5.43874V15.1016Z" fill="black"/>
<path d="M22.1735 15.1016H18.8265V16.7342H22.1735V15.1016Z" fill="black"/>
<path d="M38.9082 15.1016H35.5613V16.7342H38.9082V15.1016Z" fill="black"/>
<path d="M5.43874 16.7344H2.0918V18.367H5.43874V16.7344Z" fill="black"/>
<path d="M15.4796 16.7344H12.1327V18.367H15.4796V16.7344Z" fill="black"/>
<path d="M22.1735 16.7344H18.8265V18.367H22.1735V16.7344Z" fill="black"/>
<path d="M28.8673 16.7344H25.5204V18.367H28.8673V16.7344Z" fill="black"/>
<path d="M38.9082 16.7344H35.5613V18.367H38.9082V16.7344Z" fill="black"/>
<path d="M5.43874 18.3672H2.0918V19.9998H5.43874V18.3672Z" fill="black"/>
<path d="M17.1531 18.3672H12.1327V19.9998H17.1531V18.3672Z" fill="black"/>
<path d="M22.1735 18.3672H18.8265V19.9998H22.1735V18.3672Z" fill="black"/>
<path d="M28.8673 18.3672H23.8469V19.9998H28.8673V18.3672Z" fill="black"/>
<path d="M38.9082 18.3672H35.5613V19.9998H38.9082V18.3672Z" fill="black"/>
<path d="M5.43874 20H2.0918V21.6327H5.43874V20Z" fill="black"/>
<path d="M27.1939 20H13.8062V21.6327H27.1939V20Z" fill="black"/>
<path d="M38.9082 20H35.5613V21.6327H38.9082V20Z" fill="black"/>
<path d="M5.43874 21.6328H2.0918V23.2655H5.43874V21.6328Z" fill="black"/>
<path d="M25.5204 21.6328H15.4796V23.2655H25.5204V21.6328Z" fill="black"/>
<path d="M38.9082 21.6328H35.5613V23.2655H38.9082V21.6328Z" fill="black"/>
<path d="M5.43874 23.2656H2.0918V24.8983H5.43874V23.2656Z" fill="black"/>
<path d="M23.847 23.2656H17.1531V24.8983H23.847V23.2656Z" fill="black"/>
<path d="M38.9082 23.2656H35.5613V24.8983H38.9082V23.2656Z" fill="black"/>
<path d="M5.43874 24.8984H2.0918V26.5311H5.43874V24.8984Z" fill="black"/>
<path d="M22.1735 24.8984H18.8265V26.5311H22.1735V24.8984Z" fill="black"/>
<path d="M38.9082 24.8984H35.5613V26.5311H38.9082V24.8984Z" fill="black"/>
<path d="M5.43874 26.5303H2.0918V28.1629H5.43874V26.5303Z" fill="black"/>
<path d="M38.9082 26.5303H35.5613V28.1629H38.9082V26.5303Z" fill="black"/>
<path d="M5.43874 28.1631H2.0918V29.7957H5.43874V28.1631Z" fill="black"/>
<path d="M38.9082 28.1631H35.5613V29.7957H38.9082V28.1631Z" fill="black"/>
<path d="M38.9081 29.7959H2.0918V31.4286H38.9081V29.7959Z" fill="black"/>
<path d="M37.2346 31.4287H3.76526V33.0614H37.2346V31.4287Z" fill="black"/>
</svg>
