<svg width="41" height="40" viewBox="0 0 41 40" fill="none" xmlns="http://www.w3.org/2000/svg">
<path d="M32.2143 5.30566H8.78577V6.93832H32.2143V5.30566Z" fill="black"/>
<path d="M32.2143 6.93848H8.78577V8.57113H32.2143V6.93848Z" fill="black"/>
<path d="M12.1327 8.57129H7.1123V10.2039H12.1327V8.57129Z" fill="black"/>
<path d="M33.8877 8.57129H28.8673V10.2039H33.8877V8.57129Z" fill="black"/>
<path d="M10.4591 10.2041H5.43872V11.8368H10.4591V10.2041Z" fill="black"/>
<path d="M35.5612 10.2041H30.5408V11.8368H35.5612V10.2041Z" fill="black"/>
<path d="M10.4591 11.8369H5.43872V13.4696H10.4591V11.8369Z" fill="black"/>
<path d="M35.5612 11.8369H30.5408V13.4696H35.5612V11.8369Z" fill="black"/>
<path d="M8.78567 13.4697H3.76526V15.1024H8.78567V13.4697Z" fill="black"/>
<path d="M37.2346 13.4697H32.2142V15.1024H37.2346V13.4697Z" fill="black"/>
<path d="M8.78567 15.1016H3.76526V16.7342H8.78567V15.1016Z" fill="black"/>
<path d="M37.2346 15.1016H32.2142V16.7342H37.2346V15.1016Z" fill="black"/>
<path d="M7.11221 16.7344H2.0918V18.367H7.11221V16.7344Z" fill="black"/>
<path d="M38.9081 16.7344H33.8877V18.367H38.9081V16.7344Z" fill="black"/>
<path d="M15.4796 18.3672H2.0918V19.9998H15.4796V18.3672Z" fill="black"/>
<path d="M38.9081 18.3672H25.5204V19.9998H38.9081V18.3672Z" fill="black"/>
<path d="M17.153 20H2.0918V21.6327H17.153V20Z" fill="black"/>
<path d="M38.9081 20H23.8469V21.6327H38.9081V20Z" fill="black"/>
<path d="M5.43874 21.6328H2.0918V23.2655H5.43874V21.6328Z" fill="black"/>
<path d="M17.1531 21.6328H13.8062V23.2655H17.1531V21.6328Z" fill="black"/>
<path d="M27.1939 21.6328H23.8469V23.2655H27.1939V21.6328Z" fill="black"/>
<path d="M38.9082 21.6328H35.5613V23.2655H38.9082V21.6328Z" fill="black"/>
<path d="M5.43874 23.2656H2.0918V24.8983H5.43874V23.2656Z" fill="black"/>
<path d="M27.1939 23.2656H13.8062V24.8983H27.1939V23.2656Z" fill="black"/>
<path d="M38.9082 23.2656H35.5613V24.8983H38.9082V23.2656Z" fill="black"/>
<path d="M5.43874 24.8984H2.0918V26.5311H5.43874V24.8984Z" fill="black"/>
<path d="M25.5204 24.8984H15.4796V26.5311H25.5204V24.8984Z" fill="black"/>
<path d="M38.9082 24.8984H35.5613V26.5311H38.9082V24.8984Z" fill="black"/>
<path d="M5.43874 26.5303H2.0918V28.1629H5.43874V26.5303Z" fill="black"/>
<path d="M38.9082 26.5303H35.5613V28.1629H38.9082V26.5303Z" fill="black"/>
<path d="M5.43874 28.1631H2.0918V29.7957H5.43874V28.1631Z" fill="black"/>
<path d="M38.9082 28.1631H35.5613V29.7957H38.9082V28.1631Z" fill="black"/>
<path d="M5.43874 29.7959H2.0918V31.4286H5.43874V29.7959Z" fill="black"/>
<path d="M38.9082 29.7959H35.5613V31.4286H38.9082V29.7959Z" fill="black"/>
<path d="M38.9081 31.4287H2.0918V33.0614H38.9081V31.4287Z" fill="black"/>
<path d="M37.2346 33.0615H3.76526V34.6942H37.2346V33.0615Z" fill="black"/>
</svg>
