<svg width="41" height="40" viewBox="0 0 41 40" fill="none" xmlns="http://www.w3.org/2000/svg">
<path d="M30.5408 2.04102H23.8469V3.67367H30.5408V2.04102Z" fill="black"/>
<path d="M33.8878 3.67383H20.5V5.30648H33.8878V3.67383Z" fill="black"/>
<path d="M25.5204 5.30566H18.8265V6.93832H25.5204V5.30566Z" fill="black"/>
<path d="M33.8877 5.30566H28.8673V6.93832H33.8877V5.30566Z" fill="black"/>
<path d="M22.1735 6.93848H17.1531V8.57113H22.1735V6.93848Z" fill="black"/>
<path d="M35.5612 6.93848H30.5408V8.57113H35.5612V6.93848Z" fill="black"/>
<path d="M20.5 8.57129H15.4796V10.2039H20.5V8.57129Z" fill="black"/>
<path d="M28.8673 8.57129H25.5204V10.2039H28.8673V8.57129Z" fill="black"/>
<path d="M35.5612 8.57129H32.2142V10.2039H35.5612V8.57129Z" fill="black"/>
<path d="M18.8266 10.2041H13.8062V11.8368H18.8266V10.2041Z" fill="black"/>
<path d="M28.8673 10.2041H23.8469V11.8368H28.8673V10.2041Z" fill="black"/>
<path d="M35.5612 10.2041H32.2142V11.8368H35.5612V10.2041Z" fill="black"/>
<path d="M17.1531 11.8369H12.1327V13.4696H17.1531V11.8369Z" fill="black"/>
<path d="M27.1939 11.8369H22.1735V13.4696H27.1939V11.8369Z" fill="black"/>
<path d="M35.5612 11.8369H30.5408V13.4696H35.5612V11.8369Z" fill="black"/>
<path d="M17.1531 13.4697H10.4592V15.1024H17.1531V13.4697Z" fill="black"/>
<path d="M25.5204 13.4697H20.5V15.1024H25.5204V13.4697Z" fill="black"/>
<path d="M33.8877 13.4697H30.5408V15.1024H33.8877V13.4697Z" fill="black"/>
<path d="M15.4796 15.1016H8.78577V16.7342H15.4796V15.1016Z" fill="black"/>
<path d="M23.8469 15.1016H18.8265V16.7342H23.8469V15.1016Z" fill="black"/>
<path d="M33.8877 15.1016H28.8673V16.7342H33.8877V15.1016Z" fill="black"/>
<path d="M13.8062 16.7344H7.1123V18.367H13.8062V16.7344Z" fill="black"/>
<path d="M22.1735 16.7344H17.1531V18.367H22.1735V16.7344Z" fill="black"/>
<path d="M32.2143 16.7344H27.1938V18.367H32.2143V16.7344Z" fill="black"/>
<path d="M12.1327 18.3672H7.1123V19.9998H12.1327V18.3672Z" fill="black"/>
<path d="M20.5 18.3672H15.4796V19.9998H20.5V18.3672Z" fill="black"/>
<path d="M30.5408 18.3672H25.5204V19.9998H30.5408V18.3672Z" fill="black"/>
<path d="M38.9081 18.3672H33.8877V19.9998H38.9081V18.3672Z" fill="black"/>
<path d="M10.4591 20H5.43872V21.6327H10.4591V20Z" fill="black"/>
<path d="M18.8266 20H13.8062V21.6327H18.8266V20Z" fill="black"/>
<path d="M28.8673 20H23.8469V21.6327H28.8673V20Z" fill="black"/>
<path d="M37.2346 20H32.2142V21.6327H37.2346V20Z" fill="black"/>
<path d="M8.78567 21.6328H3.76526V23.2655H8.78567V21.6328Z" fill="black"/>
<path d="M17.1531 21.6328H12.1327V23.2655H17.1531V21.6328Z" fill="black"/>
<path d="M27.1939 21.6328H22.1735V23.2655H27.1939V21.6328Z" fill="black"/>
<path d="M35.5612 21.6328H30.5408V23.2655H35.5612V21.6328Z" fill="black"/>
<path d="M7.1122 23.2656H3.76526V24.8983H7.1122V23.2656Z" fill="black"/>
<path d="M15.4796 23.2656H10.4592V24.8983H15.4796V23.2656Z" fill="black"/>
<path d="M25.5204 23.2656H20.5V24.8983H25.5204V23.2656Z" fill="black"/>
<path d="M33.8877 23.2656H28.8673V24.8983H33.8877V23.2656Z" fill="black"/>
<path d="M7.1122 24.8984H3.76526V26.5311H7.1122V24.8984Z" fill="black"/>
<path d="M13.8062 24.8984H10.4592V26.5311H13.8062V24.8984Z" fill="black"/>
<path d="M23.8469 24.8984H18.8265V26.5311H23.8469V24.8984Z" fill="black"/>
<path d="M32.2143 24.8984H27.1938V26.5311H32.2143V24.8984Z" fill="black"/>
<path d="M7.1122 26.5303H3.76526V28.1629H7.1122V26.5303Z" fill="black"/>
<path d="M13.8062 26.5303H10.4592V28.1629H13.8062V26.5303Z" fill="black"/>
<path d="M22.1735 26.5303H17.1531V28.1629H22.1735V26.5303Z" fill="black"/>
<path d="M30.5408 26.5303H25.5204V28.1629H30.5408V26.5303Z" fill="black"/>
<path d="M7.1122 28.1631H3.76526V29.7957H7.1122V28.1631Z" fill="black"/>
<path d="M20.5 28.1631H10.4592V29.7957H20.5V28.1631Z" fill="black"/>
<path d="M28.8673 28.1631H23.8469V29.7957H28.8673V28.1631Z" fill="black"/>
<path d="M8.78567 29.7959H3.76526V31.4286H8.78567V29.7959Z" fill="black"/>
<path d="M18.8266 29.7959H12.1327V31.4286H18.8266V29.7959Z" fill="black"/>
<path d="M28.8673 29.7959H22.1735V31.4286H28.8673V29.7959Z" fill="black"/>
<path d="M10.4591 31.4287H5.43872V33.0614H10.4591V31.4287Z" fill="black"/>
<path d="M27.1939 31.4287H20.5V33.0614H27.1939V31.4287Z" fill="black"/>
<path d="M12.1327 33.0615H7.1123V34.6942H12.1327V33.0615Z" fill="black"/>
<path d="M25.5204 33.0615H18.8265V34.6942H25.5204V33.0615Z" fill="black"/>
<path d="M22.1735 34.6943H8.78577V36.327H22.1735V34.6943Z" fill="black"/>
<path d="M20.5 36.3262H10.4592V37.9588H20.5V36.3262Z" fill="black"/>
</svg>
