<svg width="40" height="40" viewBox="0 0 40 40" fill="none" xmlns="http://www.w3.org/2000/svg">
<path d="M28.1633 3.67383H5.30615V5.30648H28.1633V3.67383Z" fill="black"/>
<path d="M29.7959 5.30566H3.67346V6.93832H29.7959V5.30566Z" fill="black"/>
<path d="M6.93877 6.93848H3.67346V8.57113H6.93877V6.93848Z" fill="black"/>
<path d="M13.4694 6.93848H10.2041V8.57113H13.4694V6.93848Z" fill="black"/>
<path d="M31.4286 6.93848H26.5306V8.57113H31.4286V6.93848Z" fill="black"/>
<path d="M6.93877 8.57129H3.67346V10.2039H6.93877V8.57129Z" fill="black"/>
<path d="M13.4694 8.57129H10.2041V10.2039H13.4694V8.57129Z" fill="black"/>
<path d="M33.0612 8.57129H28.1633V10.2039H33.0612V8.57129Z" fill="black"/>
<path d="M6.93877 10.2041H3.67346V11.8368H6.93877V10.2041Z" fill="black"/>
<path d="M13.4694 10.2041H10.2041V11.8368H13.4694V10.2041Z" fill="black"/>
<path d="M34.6939 10.2041H29.7959V11.8368H34.6939V10.2041Z" fill="black"/>
<path d="M6.93877 11.8369H3.67346V13.4696H6.93877V11.8369Z" fill="black"/>
<path d="M26.5306 11.8369H10.2041V13.4696H26.5306V11.8369Z" fill="black"/>
<path d="M36.3265 11.8369H31.4286V13.4696H36.3265V11.8369Z" fill="black"/>
<path d="M6.93877 13.4697H3.67346V15.1024H6.93877V13.4697Z" fill="black"/>
<path d="M26.5306 13.4697H11.8367V15.1024H26.5306V13.4697Z" fill="black"/>
<path d="M36.3265 13.4697H33.0612V15.1024H36.3265V13.4697Z" fill="black"/>
<path d="M6.93877 15.1016H3.67346V16.7342H6.93877V15.1016Z" fill="black"/>
<path d="M36.3265 15.1016H33.0612V16.7342H36.3265V15.1016Z" fill="black"/>
<path d="M6.93877 16.7344H3.67346V18.367H6.93877V16.7344Z" fill="black"/>
<path d="M36.3265 16.7344H33.0612V18.367H36.3265V16.7344Z" fill="black"/>
<path d="M6.93877 18.3672H3.67346V19.9998H6.93877V18.3672Z" fill="black"/>
<path d="M36.3265 18.3672H33.0612V19.9998H36.3265V18.3672Z" fill="black"/>
<path d="M6.93877 20H3.67346V21.6327H6.93877V20Z" fill="black"/>
<path d="M28.1633 20H11.8367V21.6327H28.1633V20Z" fill="black"/>
<path d="M36.3265 20H33.0612V21.6327H36.3265V20Z" fill="black"/>
<path d="M6.93877 21.6328H3.67346V23.2655H6.93877V21.6328Z" fill="black"/>
<path d="M29.7959 21.6328H10.2041V23.2655H29.7959V21.6328Z" fill="black"/>
<path d="M36.3265 21.6328H33.0612V23.2655H36.3265V21.6328Z" fill="black"/>
<path d="M6.93877 23.2656H3.67346V24.8983H6.93877V23.2656Z" fill="black"/>
<path d="M13.4694 23.2656H10.2041V24.8983H13.4694V23.2656Z" fill="black"/>
<path d="M29.7959 23.2656H26.5306V24.8983H29.7959V23.2656Z" fill="black"/>
<path d="M36.3265 23.2656H33.0612V24.8983H36.3265V23.2656Z" fill="black"/>
<path d="M6.93877 24.8984H3.67346V26.5311H6.93877V24.8984Z" fill="black"/>
<path d="M13.4694 24.8984H10.2041V26.5311H13.4694V24.8984Z" fill="black"/>
<path d="M29.7959 24.8984H26.5306V26.5311H29.7959V24.8984Z" fill="black"/>
<path d="M36.3265 24.8984H33.0612V26.5311H36.3265V24.8984Z" fill="black"/>
<path d="M6.93877 26.5303H3.67346V28.1629H6.93877V26.5303Z" fill="black"/>
<path d="M13.4694 26.5303H10.2041V28.1629H13.4694V26.5303Z" fill="black"/>
<path d="M29.7959 26.5303H26.5306V28.1629H29.7959V26.5303Z" fill="black"/>
<path d="M36.3265 26.5303H33.0612V28.1629H36.3265V26.5303Z" fill="black"/>
<path d="M6.93877 28.1631H3.67346V29.7957H6.93877V28.1631Z" fill="black"/>
<path d="M13.4694 28.1631H10.2041V29.7957H13.4694V28.1631Z" fill="black"/>
<path d="M29.7959 28.1631H26.5306V29.7957H29.7959V28.1631Z" fill="black"/>
<path d="M36.3265 28.1631H33.0612V29.7957H36.3265V28.1631Z" fill="black"/>
<path d="M6.93877 29.7959H3.67346V31.4286H6.93877V29.7959Z" fill="black"/>
<path d="M13.4694 29.7959H10.2041V31.4286H13.4694V29.7959Z" fill="black"/>
<path d="M29.7959 29.7959H26.5306V31.4286H29.7959V29.7959Z" fill="black"/>
<path d="M36.3265 29.7959H33.0612V31.4286H36.3265V29.7959Z" fill="black"/>
<path d="M6.93877 31.4287H3.67346V33.0614H6.93877V31.4287Z" fill="black"/>
<path d="M13.4694 31.4287H10.2041V33.0614H13.4694V31.4287Z" fill="black"/>
<path d="M29.7959 31.4287H26.5306V33.0614H29.7959V31.4287Z" fill="black"/>
<path d="M36.3265 31.4287H33.0612V33.0614H36.3265V31.4287Z" fill="black"/>
<path d="M36.3265 33.0615H3.67346V34.6942H36.3265V33.0615Z" fill="black"/>
<path d="M34.6939 34.6943H5.30615V36.327H34.6939V34.6943Z" fill="black"/>
</svg>
