<svg width="24" height="24" viewBox="0 0 24 24" fill="none" xmlns="http://www.w3.org/2000/svg">
<path d="M12 6C12 5.73478 12.1054 2.48043 12.2929 2.29289C12.4804 2.10536 12.7348 2 13 2" stroke="#1C1F21" stroke-width="2" stroke-linecap="round" stroke-linejoin="round"/>
<path d="M12 6.52775C12.8633 5.75559 13.9317 5.24992 15.0761 5.07156C16.2205 4.89321 17.3921 5.04991 18.4495 5.52274C19.5068 5.99558 20.4047 6.76435 21.0347 7.73624C21.6647 8.70814 22 9.84162 22 10.9999C22.0156 14.6821 20.6763 18.2414 18.237 20.9999C17.7893 21.5008 17.1865 21.8369 16.525 21.9544C15.8636 22.0719 15.1818 21.9639 14.589 21.6479C13.7923 21.2228 12.9031 21.0004 12 21.0004C11.097 21.0004 10.2078 21.2228 9.41102 21.6479C8.81821 21.9639 8.13647 22.0719 7.47503 21.9544C6.81359 21.8369 6.21073 21.5008 5.76302 20.9999C3.33188 18.2366 1.99371 14.6805 2.00002 10.9999C2.00005 9.84162 2.33531 8.70814 2.96535 7.73624C3.59539 6.76435 4.49326 5.99558 5.55059 5.52274C6.60793 5.04991 7.77952 4.89321 8.92395 5.07156C10.0684 5.24992 11.1367 5.75559 12 6.52775Z" fill="#DDDDDD" stroke="#1C1F21" stroke-width="2" stroke-linecap="round" stroke-linejoin="round"/>
</svg>
