<svg width="24" height="24" viewBox="0 0 24 24" fill="none" xmlns="http://www.w3.org/2000/svg">
<path d="M3.99999 13.9996C3.81076 14.0003 3.62522 13.9472 3.46495 13.8466C3.30467 13.746 3.17623 13.602 3.09454 13.4313C3.01286 13.2606 2.98129 13.0702 3.00349 12.8823C3.0257 12.6944 3.10077 12.5166 3.21999 12.3696L13.12 2.16968C13.1943 2.08396 13.2955 2.02604 13.407 2.00541C13.5185 1.98479 13.6337 2.00269 13.7337 2.05618C13.8337 2.10968 13.9126 2.19558 13.9573 2.29979C14.0021 2.404 14.0101 2.52033 13.98 2.62968L12.06 8.64968C12.0034 8.8012 11.9844 8.9642 12.0046 9.12469C12.0248 9.28517 12.0837 9.43836 12.1761 9.57111C12.2685 9.70385 12.3918 9.8122 12.5353 9.88684C12.6788 9.96149 12.8382 10.0002 13 9.99964H20C20.1892 9.99904 20.3748 10.0521 20.535 10.1527C20.6953 10.2533 20.8238 10.3973 20.9054 10.568C20.9871 10.7387 21.0187 10.9291 20.9965 11.117C20.9743 11.3049 20.8992 11.4827 20.78 11.6296L10.88 21.8296C10.8057 21.9154 10.7045 21.9733 10.593 21.9939C10.4815 22.0145 10.3663 21.9966 10.2663 21.9431C10.1663 21.8896 10.0874 21.8037 10.0427 21.6995C9.99791 21.5953 9.98991 21.479 10.02 21.3696L11.94 15.3496C11.9966 15.1981 12.0156 15.0351 11.9954 14.8746C11.9752 14.7141 11.9163 14.561 11.8239 14.4282C11.7315 14.2955 11.6082 14.1871 11.4647 14.1125C11.3212 14.0378 11.1617 13.9991 11 13.9996H3.99999Z" fill="#DDDDDD" stroke="#1C1F21" stroke-width="2" stroke-linecap="round" stroke-linejoin="round"/>
</svg>
