<svg width="41" height="40" viewBox="0 0 41 40" fill="none" xmlns="http://www.w3.org/2000/svg">
<path d="M37.2346 6.93848H3.76526V8.57113H37.2346V6.93848Z" fill="black"/>
<path d="M38.9081 8.57129H2.0918V10.2039H38.9081V8.57129Z" fill="black"/>
<path d="M5.43874 10.2041H2.0918V11.8368H5.43874V10.2041Z" fill="black"/>
<path d="M38.9082 10.2041H35.5613V11.8368H38.9082V10.2041Z" fill="black"/>
<path d="M5.43874 11.8369H2.0918V13.4696H5.43874V11.8369Z" fill="black"/>
<path d="M38.9082 11.8369H35.5613V13.4696H38.9082V11.8369Z" fill="black"/>
<path d="M5.43874 13.4697H2.0918V15.1024H5.43874V13.4697Z" fill="black"/>
<path d="M38.9082 13.4697H35.5613V15.1024H38.9082V13.4697Z" fill="black"/>
<path d="M38.9081 15.1016H2.0918V16.7342H38.9081V15.1016Z" fill="black"/>
<path d="M38.9081 16.7344H2.0918V18.367H38.9081V16.7344Z" fill="black"/>
<path d="M5.43874 18.3672H2.0918V19.9998H5.43874V18.3672Z" fill="black"/>
<path d="M38.9082 18.3672H35.5613V19.9998H38.9082V18.3672Z" fill="black"/>
<path d="M5.43874 20H2.0918V21.6327H5.43874V20Z" fill="black"/>
<path d="M38.9082 20H35.5613V21.6327H38.9082V20Z" fill="black"/>
<path d="M5.43874 21.6328H2.0918V23.2655H5.43874V21.6328Z" fill="black"/>
<path d="M38.9082 21.6328H35.5613V23.2655H38.9082V21.6328Z" fill="black"/>
<path d="M5.43874 23.2656H2.0918V24.8983H5.43874V23.2656Z" fill="black"/>
<path d="M38.9082 23.2656H35.5613V24.8983H38.9082V23.2656Z" fill="black"/>
<path d="M5.43874 24.8984H2.0918V26.5311H5.43874V24.8984Z" fill="black"/>
<path d="M38.9082 24.8984H35.5613V26.5311H38.9082V24.8984Z" fill="black"/>
<path d="M5.43874 26.5303H2.0918V28.1629H5.43874V26.5303Z" fill="black"/>
<path d="M38.9082 26.5303H35.5613V28.1629H38.9082V26.5303Z" fill="black"/>
<path d="M5.43874 28.1631H2.0918V29.7957H5.43874V28.1631Z" fill="black"/>
<path d="M38.9082 28.1631H35.5613V29.7957H38.9082V28.1631Z" fill="black"/>
<path d="M38.9081 29.7959H2.0918V31.4286H38.9081V29.7959Z" fill="black"/>
<path d="M37.2346 31.4287H3.76526V33.0614H37.2346V31.4287Z" fill="black"/>
</svg>
