<svg width="40" height="40" viewBox="0 0 40 40" fill="none" xmlns="http://www.w3.org/2000/svg">
<path d="M21.6326 2.04102H18.3673V3.67367H21.6326V2.04102Z" fill="black"/>
<path d="M21.6326 3.67383H18.3673V5.30648H21.6326V3.67383Z" fill="black"/>
<path d="M21.6326 5.30566H18.3673V6.93832H21.6326V5.30566Z" fill="black"/>
<path d="M29.796 6.93848H11.8368V8.57113H29.796V6.93848Z" fill="black"/>
<path d="M29.7959 8.57129H10.2041V10.2039H29.7959V8.57129Z" fill="black"/>
<path d="M13.4694 10.2041H8.57141V11.8368H13.4694V10.2041Z" fill="black"/>
<path d="M21.6326 10.2041H18.3673V11.8368H21.6326V10.2041Z" fill="black"/>
<path d="M11.8367 11.8369H8.57141V13.4696H11.8367V11.8369Z" fill="black"/>
<path d="M21.6326 11.8369H18.3673V13.4696H21.6326V11.8369Z" fill="black"/>
<path d="M11.8367 13.4697H8.57141V15.1024H11.8367V13.4697Z" fill="black"/>
<path d="M21.6326 13.4697H18.3673V15.1024H21.6326V13.4697Z" fill="black"/>
<path d="M11.8367 15.1016H8.57141V16.7342H11.8367V15.1016Z" fill="black"/>
<path d="M21.6326 15.1016H18.3673V16.7342H21.6326V15.1016Z" fill="black"/>
<path d="M13.4694 16.7344H8.57141V18.367H13.4694V16.7344Z" fill="black"/>
<path d="M21.6326 16.7344H18.3673V18.367H21.6326V16.7344Z" fill="black"/>
<path d="M28.1633 18.3672H10.2041V19.9998H28.1633V18.3672Z" fill="black"/>
<path d="M29.796 20H11.8368V21.6327H29.796V20Z" fill="black"/>
<path d="M21.6326 21.6328H18.3673V23.2655H21.6326V21.6328Z" fill="black"/>
<path d="M31.4286 21.6328H26.5306V23.2655H31.4286V21.6328Z" fill="black"/>
<path d="M21.6326 23.2656H18.3673V24.8983H21.6326V23.2656Z" fill="black"/>
<path d="M31.4285 23.2656H28.1632V24.8983H31.4285V23.2656Z" fill="black"/>
<path d="M21.6326 24.8984H18.3673V26.5311H21.6326V24.8984Z" fill="black"/>
<path d="M31.4285 24.8984H28.1632V26.5311H31.4285V24.8984Z" fill="black"/>
<path d="M21.6326 26.5303H18.3673V28.1629H21.6326V26.5303Z" fill="black"/>
<path d="M31.4285 26.5303H28.1632V28.1629H31.4285V26.5303Z" fill="black"/>
<path d="M21.6326 28.1631H18.3673V29.7957H21.6326V28.1631Z" fill="black"/>
<path d="M31.4286 28.1631H26.5306V29.7957H31.4286V28.1631Z" fill="black"/>
<path d="M29.7959 29.7959H8.57141V31.4286H29.7959V29.7959Z" fill="black"/>
<path d="M28.1632 31.4287H8.57141V33.0614H28.1632V31.4287Z" fill="black"/>
<path d="M21.6326 33.0615H18.3673V34.6942H21.6326V33.0615Z" fill="black"/>
<path d="M21.6326 34.6943H18.3673V36.327H21.6326V34.6943Z" fill="black"/>
<path d="M21.6326 36.3262H18.3673V37.9588H21.6326V36.3262Z" fill="black"/>
</svg>
