<svg width="41" height="42" viewBox="0 0 41 42" fill="none" xmlns="http://www.w3.org/2000/svg">
<path d="M28.8674 5.57129H18.8265V7.28557H28.8674V5.57129Z" fill="black"/>
<path d="M32.2143 7.28613H15.4796V9.00042H32.2143V7.28613Z" fill="black"/>
<path d="M20.5 9H13.8062V10.7143H20.5V9Z" fill="black"/>
<path d="M33.8877 9H27.1938V10.7143H33.8877V9Z" fill="black"/>
<path d="M17.1531 10.7139H12.1327V12.4282H17.1531V10.7139Z" fill="black"/>
<path d="M33.8877 10.7139H30.5408V12.4282H33.8877V10.7139Z" fill="black"/>
<path d="M15.4796 12.4287H10.4592V14.143H15.4796V12.4287Z" fill="black"/>
<path d="M13.8062 14.1426H10.4592V15.8569H13.8062V14.1426Z" fill="black"/>
<path d="M28.8673 15.8574H5.43872V17.5717H28.8673V15.8574Z" fill="black"/>
<path d="M28.8673 17.5713H5.43872V19.2856H28.8673V17.5713Z" fill="black"/>
<path d="M12.1327 19.2861H8.78577V21.0004H12.1327V19.2861Z" fill="black"/>
<path d="M12.1327 21H8.78577V22.7143H12.1327V21Z" fill="black"/>
<path d="M23.8469 22.7139H5.43872V24.4282H23.8469V22.7139Z" fill="black"/>
<path d="M23.8469 24.4287H5.43872V26.143H23.8469V24.4287Z" fill="black"/>
<path d="M13.8062 26.1426H10.4592V27.8569H13.8062V26.1426Z" fill="black"/>
<path d="M15.4796 27.8574H10.4592V29.5717H15.4796V27.8574Z" fill="black"/>
<path d="M17.1531 29.5713H12.1327V31.2856H17.1531V29.5713Z" fill="black"/>
<path d="M33.8877 29.5713H30.5408V31.2856H33.8877V29.5713Z" fill="black"/>
<path d="M20.5 31.2861H13.8062V33.0004H20.5V31.2861Z" fill="black"/>
<path d="M33.8877 31.2861H27.1938V33.0004H33.8877V31.2861Z" fill="black"/>
<path d="M32.2143 33H15.4796V34.7143H32.2143V33Z" fill="black"/>
<path d="M28.8674 34.7139H18.8265V36.4282H28.8674V34.7139Z" fill="black"/>
</svg>
