<svg width="41" height="41" viewBox="0 0 41 41" fill="none" xmlns="http://www.w3.org/2000/svg">
<path d="M17.1531 2.0918H10.4592V3.76527H17.1531V2.0918Z" fill="black"/>
<path d="M30.5408 2.0918H23.8469V3.76527H30.5408V2.0918Z" fill="black"/>
<path d="M18.8266 3.76562H8.78577V5.43909H18.8266V3.76562Z" fill="black"/>
<path d="M32.2143 3.76562H22.1735V5.43909H32.2143V3.76562Z" fill="black"/>
<path d="M12.1327 5.43848H7.1123V7.11195H12.1327V5.43848Z" fill="black"/>
<path d="M25.5204 5.43848H15.4796V7.11195H25.5204V5.43848Z" fill="black"/>
<path d="M33.8877 5.43848H28.8673V7.11195H33.8877V5.43848Z" fill="black"/>
<path d="M10.4592 7.1123H7.1123V8.78577H10.4592V7.1123Z" fill="black"/>
<path d="M23.847 7.1123H17.1531V8.78577H23.847V7.1123Z" fill="black"/>
<path d="M33.8877 7.1123H30.5408V8.78577H33.8877V7.1123Z" fill="black"/>
<path d="M12.1327 8.78613H7.1123V10.4596H12.1327V8.78613Z" fill="black"/>
<path d="M23.847 8.78613H17.1531V10.4596H23.847V8.78613Z" fill="black"/>
<path d="M33.8877 8.78613H28.8673V10.4596H33.8877V8.78613Z" fill="black"/>
<path d="M35.5612 10.459H5.43872V12.1325H35.5612V10.459Z" fill="black"/>
<path d="M37.2346 12.1328H3.76526V13.8063H37.2346V12.1328Z" fill="black"/>
<path d="M7.1122 13.8057H3.76526V15.4791H7.1122V13.8057Z" fill="black"/>
<path d="M22.1735 13.8057H18.8265V15.4791H22.1735V13.8057Z" fill="black"/>
<path d="M37.2346 13.8057H33.8877V15.4791H37.2346V13.8057Z" fill="black"/>
<path d="M7.1122 15.4795H3.76526V17.153H7.1122V15.4795Z" fill="black"/>
<path d="M22.1735 15.4795H18.8265V17.153H22.1735V15.4795Z" fill="black"/>
<path d="M37.2346 15.4795H33.8877V17.153H37.2346V15.4795Z" fill="black"/>
<path d="M37.2346 17.1533H3.76526V18.8268H37.2346V17.1533Z" fill="black"/>
<path d="M35.5612 18.8262H5.43872V20.4996H35.5612V18.8262Z" fill="black"/>
<path d="M8.78566 20.5H5.43872V22.1735H8.78566V20.5Z" fill="black"/>
<path d="M22.1735 20.5H18.8265V22.1735H22.1735V20.5Z" fill="black"/>
<path d="M35.5612 20.5H32.2142V22.1735H35.5612V20.5Z" fill="black"/>
<path d="M8.78566 22.1738H5.43872V23.8473H8.78566V22.1738Z" fill="black"/>
<path d="M22.1735 22.1738H18.8265V23.8473H22.1735V22.1738Z" fill="black"/>
<path d="M35.5612 22.1738H32.2142V23.8473H35.5612V22.1738Z" fill="black"/>
<path d="M8.78566 23.8467H5.43872V25.5201H8.78566V23.8467Z" fill="black"/>
<path d="M22.1735 23.8467H18.8265V25.5201H22.1735V23.8467Z" fill="black"/>
<path d="M35.5612 23.8467H32.2142V25.5201H35.5612V23.8467Z" fill="black"/>
<path d="M8.78566 25.5205H5.43872V27.194H8.78566V25.5205Z" fill="black"/>
<path d="M22.1735 25.5205H18.8265V27.194H22.1735V25.5205Z" fill="black"/>
<path d="M35.5612 25.5205H32.2142V27.194H35.5612V25.5205Z" fill="black"/>
<path d="M8.78566 27.1943H5.43872V28.8678H8.78566V27.1943Z" fill="black"/>
<path d="M22.1735 27.1943H18.8265V28.8678H22.1735V27.1943Z" fill="black"/>
<path d="M35.5612 27.1943H32.2142V28.8678H35.5612V27.1943Z" fill="black"/>
<path d="M8.78566 28.8672H5.43872V30.5407H8.78566V28.8672Z" fill="black"/>
<path d="M22.1735 28.8672H18.8265V30.5407H22.1735V28.8672Z" fill="black"/>
<path d="M35.5612 28.8672H32.2142V30.5407H35.5612V28.8672Z" fill="black"/>
<path d="M8.78566 30.541H5.43872V32.2145H8.78566V30.541Z" fill="black"/>
<path d="M22.1735 30.541H18.8265V32.2145H22.1735V30.541Z" fill="black"/>
<path d="M35.5612 30.541H32.2142V32.2145H35.5612V30.541Z" fill="black"/>
<path d="M8.78566 32.2139H5.43872V33.8873H8.78566V32.2139Z" fill="black"/>
<path d="M22.1735 32.2139H18.8265V33.8873H22.1735V32.2139Z" fill="black"/>
<path d="M35.5612 32.2139H32.2142V33.8873H35.5612V32.2139Z" fill="black"/>
<path d="M35.5612 33.8877H5.43872V35.5612H35.5612V33.8877Z" fill="black"/>
<path d="M33.8878 35.5615H7.1123V37.235H33.8878V35.5615Z" fill="black"/>
</svg>
