<svg width="40" height="40" viewBox="0 0 40 40" fill="none" xmlns="http://www.w3.org/2000/svg">
<path d="M31.4286 3.67383H8.57141V5.30648H31.4286V3.67383Z" fill="black"/>
<path d="M31.4286 5.30566H8.57141V6.93832H31.4286V5.30566Z" fill="black"/>
<path d="M23.2653 6.93848H18.3673V8.57113H23.2653V6.93848Z" fill="black"/>
<path d="M24.898 8.57129H20V10.2039H24.898V8.57129Z" fill="black"/>
<path d="M24.898 10.2041H21.6327V11.8368H24.898V10.2041Z" fill="black"/>
<path d="M31.4286 11.8369H8.57141V13.4696H31.4286V11.8369Z" fill="black"/>
<path d="M31.4286 13.4697H8.57141V15.1024H31.4286V13.4697Z" fill="black"/>
<path d="M24.898 15.1016H21.6327V16.7342H24.898V15.1016Z" fill="black"/>
<path d="M24.898 16.7344H20V18.367H24.898V16.7344Z" fill="black"/>
<path d="M23.2653 18.3672H18.3673V19.9998H23.2653V18.3672Z" fill="black"/>
<path d="M21.6326 20H8.57141V21.6327H21.6326V20Z" fill="black"/>
<path d="M20 21.6328H8.57141V23.2655H20V21.6328Z" fill="black"/>
<path d="M15.1021 23.2656H10.2041V24.8983H15.1021V23.2656Z" fill="black"/>
<path d="M16.7348 24.8984H11.8368V26.5311H16.7348V24.8984Z" fill="black"/>
<path d="M18.3673 26.5303H13.4694V28.1629H18.3673V26.5303Z" fill="black"/>
<path d="M20 28.1631H15.1021V29.7957H20V28.1631Z" fill="black"/>
<path d="M21.6327 29.7959H16.7347V31.4286H21.6327V29.7959Z" fill="black"/>
<path d="M24.8979 31.4287H18.3673V33.0614H24.8979V31.4287Z" fill="black"/>
<path d="M24.898 33.0615H20V34.6942H24.898V33.0615Z" fill="black"/>
<path d="M24.898 34.6943H21.6327V36.327H24.898V34.6943Z" fill="black"/>
</svg>
