<svg width="40" height="40" viewBox="0 0 40 40" fill="none" xmlns="http://www.w3.org/2000/svg">
<path d="M23.2653 2.04102H16.7347V3.67367H23.2653V2.04102Z" fill="black"/>
<path d="M26.5306 3.67383H13.4694V5.30648H26.5306V3.67383Z" fill="black"/>
<path d="M18.3673 5.30566H11.8367V6.93832H18.3673V5.30566Z" fill="black"/>
<path d="M28.1632 5.30566H21.6326V6.93832H28.1632V5.30566Z" fill="black"/>
<path d="M16.7347 6.93848H8.57141V8.57113H16.7347V6.93848Z" fill="black"/>
<path d="M31.4286 6.93848H24.8979V8.57113H31.4286V6.93848Z" fill="black"/>
<path d="M20 8.57129H5.30615V10.2039H20V8.57129Z" fill="black"/>
<path d="M34.6939 8.57129H26.5306V10.2039H34.6939V8.57129Z" fill="black"/>
<path d="M10.2041 10.2041H3.67346V11.8368H10.2041V10.2041Z" fill="black"/>
<path d="M23.2653 10.2041H15.1021V11.8368H23.2653V10.2041Z" fill="black"/>
<path d="M36.3265 10.2041H29.7959V11.8368H36.3265V10.2041Z" fill="black"/>
<path d="M10.2041 11.8369H3.67346V13.4696H10.2041V11.8369Z" fill="black"/>
<path d="M24.898 11.8369H18.3674V13.4696H24.898V11.8369Z" fill="black"/>
<path d="M36.3265 11.8369H29.7959V13.4696H36.3265V11.8369Z" fill="black"/>
<path d="M13.4694 13.4697H3.67346V15.1024H13.4694V13.4697Z" fill="black"/>
<path d="M36.3265 13.4697H21.6326V15.1024H36.3265V13.4697Z" fill="black"/>
<path d="M6.93877 15.1016H3.67346V16.7342H6.93877V15.1016Z" fill="black"/>
<path d="M16.7347 15.1016H8.57141V16.7342H16.7347V15.1016Z" fill="black"/>
<path d="M31.4286 15.1016H23.2653V16.7342H31.4286V15.1016Z" fill="black"/>
<path d="M36.3265 15.1016H33.0612V16.7342H36.3265V15.1016Z" fill="black"/>
<path d="M6.93877 16.7344H3.67346V18.367H6.93877V16.7344Z" fill="black"/>
<path d="M28.1633 16.7344H11.8367V18.367H28.1633V16.7344Z" fill="black"/>
<path d="M36.3265 16.7344H33.0612V18.367H36.3265V16.7344Z" fill="black"/>
<path d="M6.93877 18.3672H3.67346V19.9998H6.93877V18.3672Z" fill="black"/>
<path d="M24.898 18.3672H15.1021V19.9998H24.898V18.3672Z" fill="black"/>
<path d="M36.3265 18.3672H33.0612V19.9998H36.3265V18.3672Z" fill="black"/>
<path d="M6.93877 20H3.67346V21.6327H6.93877V20Z" fill="black"/>
<path d="M21.6327 20H18.3674V21.6327H21.6327V20Z" fill="black"/>
<path d="M36.3265 20H33.0612V21.6327H36.3265V20Z" fill="black"/>
<path d="M6.93877 21.6328H3.67346V23.2655H6.93877V21.6328Z" fill="black"/>
<path d="M21.6327 21.6328H18.3674V23.2655H21.6327V21.6328Z" fill="black"/>
<path d="M36.3265 21.6328H33.0612V23.2655H36.3265V21.6328Z" fill="black"/>
<path d="M6.93877 23.2656H3.67346V24.8983H6.93877V23.2656Z" fill="black"/>
<path d="M21.6327 23.2656H18.3674V24.8983H21.6327V23.2656Z" fill="black"/>
<path d="M36.3265 23.2656H33.0612V24.8983H36.3265V23.2656Z" fill="black"/>
<path d="M6.93877 24.8984H3.67346V26.5311H6.93877V24.8984Z" fill="black"/>
<path d="M21.6327 24.8984H18.3674V26.5311H21.6327V24.8984Z" fill="black"/>
<path d="M36.3265 24.8984H33.0612V26.5311H36.3265V24.8984Z" fill="black"/>
<path d="M6.93877 26.5303H3.67346V28.1629H6.93877V26.5303Z" fill="black"/>
<path d="M21.6327 26.5303H18.3674V28.1629H21.6327V26.5303Z" fill="black"/>
<path d="M36.3265 26.5303H33.0612V28.1629H36.3265V26.5303Z" fill="black"/>
<path d="M10.2041 28.1631H3.67346V29.7957H10.2041V28.1631Z" fill="black"/>
<path d="M21.6327 28.1631H18.3674V29.7957H21.6327V28.1631Z" fill="black"/>
<path d="M36.3265 28.1631H29.7959V29.7957H36.3265V28.1631Z" fill="black"/>
<path d="M13.4694 29.7959H5.30615V31.4286H13.4694V29.7959Z" fill="black"/>
<path d="M21.6327 29.7959H18.3674V31.4286H21.6327V29.7959Z" fill="black"/>
<path d="M34.6939 29.7959H26.5306V31.4286H34.6939V29.7959Z" fill="black"/>
<path d="M15.102 31.4287H8.57141V33.0614H15.102V31.4287Z" fill="black"/>
<path d="M21.6327 31.4287H18.3674V33.0614H21.6327V31.4287Z" fill="black"/>
<path d="M31.4286 31.4287H24.8979V33.0614H31.4286V31.4287Z" fill="black"/>
<path d="M28.1633 33.0615H11.8367V34.6942H28.1633V33.0615Z" fill="black"/>
<path d="M26.5306 34.6943H13.4694V36.327H26.5306V34.6943Z" fill="black"/>
<path d="M23.2653 36.3262H16.7347V37.9588H23.2653V36.3262Z" fill="black"/>
</svg>
