<svg width="41" height="41" viewBox="0 0 41 41" fill="none" xmlns="http://www.w3.org/2000/svg">
<path d="M28.8674 3.76562H18.8265V5.43909H28.8674V3.76562Z" fill="black"/>
<path d="M30.5408 5.43848H17.1531V7.11195H30.5408V5.43848Z" fill="black"/>
<path d="M22.1735 7.1123H15.4796V8.78577H22.1735V7.1123Z" fill="black"/>
<path d="M32.2143 7.1123H25.5204V8.78577H32.2143V7.1123Z" fill="black"/>
<path d="M20.5 8.78613H15.4796V10.4596H20.5V8.78613Z" fill="black"/>
<path d="M32.2143 8.78613H27.1938V10.4596H32.2143V8.78613Z" fill="black"/>
<path d="M18.8266 10.459H15.4796V12.1325H18.8266V10.459Z" fill="black"/>
<path d="M32.2142 10.459H28.8673V12.1325H32.2142V10.459Z" fill="black"/>
<path d="M18.8266 12.1328H15.4796V13.8063H18.8266V12.1328Z" fill="black"/>
<path d="M32.2142 12.1328H28.8673V13.8063H32.2142V12.1328Z" fill="black"/>
<path d="M18.8266 13.8057H15.4796V15.4791H18.8266V13.8057Z" fill="black"/>
<path d="M18.8266 15.4795H15.4796V17.153H18.8266V15.4795Z" fill="black"/>
<path d="M18.8266 17.1533H15.4796V18.8268H18.8266V17.1533Z" fill="black"/>
<path d="M18.8266 18.8262H15.4796V20.4996H18.8266V18.8262Z" fill="black"/>
<path d="M28.8674 20.5H8.78577V22.1735H28.8674V20.5Z" fill="black"/>
<path d="M28.8674 22.1738H8.78577V23.8473H28.8674V22.1738Z" fill="black"/>
<path d="M18.8266 23.8467H15.4796V25.5201H18.8266V23.8467Z" fill="black"/>
<path d="M18.8266 25.5205H15.4796V27.194H18.8266V25.5205Z" fill="black"/>
<path d="M18.8266 27.1943H15.4796V28.8678H18.8266V27.1943Z" fill="black"/>
<path d="M18.8266 28.8672H15.4796V30.5407H18.8266V28.8672Z" fill="black"/>
<path d="M18.8266 30.541H15.4796V32.2145H18.8266V30.541Z" fill="black"/>
<path d="M18.8266 32.2139H15.4796V33.8873H18.8266V32.2139Z" fill="black"/>
<path d="M32.2143 33.8877H8.78577V35.5612H32.2143V33.8877Z" fill="black"/>
<path d="M32.2143 35.5615H8.78577V37.235H32.2143V35.5615Z" fill="black"/>
</svg>
