<svg width="40" height="41" viewBox="0 0 40 41" fill="none" xmlns="http://www.w3.org/2000/svg">
<path d="M11.8367 2.0918H6.93872V3.76527H11.8367V2.0918Z" fill="black"/>
<path d="M18.3673 2.0918H13.4694V3.76527H18.3673V2.0918Z" fill="black"/>
<path d="M26.5306 2.0918H21.6327V3.76527H26.5306V2.0918Z" fill="black"/>
<path d="M33.0612 2.0918H28.1632V3.76527H33.0612V2.0918Z" fill="black"/>
<path d="M34.6939 3.76562H5.30615V5.43909H34.6939V3.76562Z" fill="black"/>
<path d="M8.57146 5.43848H5.30615V7.11195H8.57146V5.43848Z" fill="black"/>
<path d="M15.1021 5.43848H10.2041V7.11195H15.1021V5.43848Z" fill="black"/>
<path d="M23.2654 5.43848H16.7347V7.11195H23.2654V5.43848Z" fill="black"/>
<path d="M29.7959 5.43848H24.8979V7.11195H29.7959V5.43848Z" fill="black"/>
<path d="M34.6939 5.43848H31.4286V7.11195H34.6939V5.43848Z" fill="black"/>
<path d="M8.57146 7.1123H5.30615V8.78577H8.57146V7.1123Z" fill="black"/>
<path d="M34.6939 7.1123H31.4286V8.78577H34.6939V7.1123Z" fill="black"/>
<path d="M8.57146 8.78613H5.30615V10.4596H8.57146V8.78613Z" fill="black"/>
<path d="M34.6939 8.78613H31.4286V10.4596H34.6939V8.78613Z" fill="black"/>
<path d="M8.57146 10.459H5.30615V12.1325H8.57146V10.459Z" fill="black"/>
<path d="M21.6326 10.459H18.3673V12.1325H21.6326V10.459Z" fill="black"/>
<path d="M34.6939 10.459H31.4286V12.1325H34.6939V10.459Z" fill="black"/>
<path d="M8.57146 12.1328H5.30615V13.8063H8.57146V12.1328Z" fill="black"/>
<path d="M28.1632 12.1328H13.4694V13.8063H28.1632V12.1328Z" fill="black"/>
<path d="M34.6939 12.1328H31.4286V13.8063H34.6939V12.1328Z" fill="black"/>
<path d="M8.57146 13.8057H5.30615V15.4791H8.57146V13.8057Z" fill="black"/>
<path d="M28.1633 13.8057H11.8368V15.4791H28.1633V13.8057Z" fill="black"/>
<path d="M34.6939 13.8057H31.4286V15.4791H34.6939V13.8057Z" fill="black"/>
<path d="M8.57146 15.4795H5.30615V17.153H8.57146V15.4795Z" fill="black"/>
<path d="M15.1021 15.4795H11.8368V17.153H15.1021V15.4795Z" fill="black"/>
<path d="M21.6326 15.4795H18.3673V17.153H21.6326V15.4795Z" fill="black"/>
<path d="M34.6939 15.4795H31.4286V17.153H34.6939V15.4795Z" fill="black"/>
<path d="M8.57146 17.1533H5.30615V18.8268H8.57146V17.1533Z" fill="black"/>
<path d="M15.1021 17.1533H11.8368V18.8268H15.1021V17.1533Z" fill="black"/>
<path d="M21.6326 17.1533H18.3673V18.8268H21.6326V17.1533Z" fill="black"/>
<path d="M34.6939 17.1533H31.4286V18.8268H34.6939V17.1533Z" fill="black"/>
<path d="M8.57146 18.8262H5.30615V20.4996H8.57146V18.8262Z" fill="black"/>
<path d="M26.5307 18.8262H11.8368V20.4996H26.5307V18.8262Z" fill="black"/>
<path d="M34.6939 18.8262H31.4286V20.4996H34.6939V18.8262Z" fill="black"/>
<path d="M8.57146 20.5H5.30615V22.1735H8.57146V20.5Z" fill="black"/>
<path d="M28.1632 20.5H13.4694V22.1735H28.1632V20.5Z" fill="black"/>
<path d="M34.6939 20.5H31.4286V22.1735H34.6939V20.5Z" fill="black"/>
<path d="M8.57146 22.1738H5.30615V23.8473H8.57146V22.1738Z" fill="black"/>
<path d="M21.6326 22.1738H18.3673V23.8473H21.6326V22.1738Z" fill="black"/>
<path d="M28.1633 22.1738H24.8979V23.8473H28.1633V22.1738Z" fill="black"/>
<path d="M34.6939 22.1738H31.4286V23.8473H34.6939V22.1738Z" fill="black"/>
<path d="M8.57146 23.8467H5.30615V25.5201H8.57146V23.8467Z" fill="black"/>
<path d="M21.6326 23.8467H18.3673V25.5201H21.6326V23.8467Z" fill="black"/>
<path d="M28.1633 23.8467H24.8979V25.5201H28.1633V23.8467Z" fill="black"/>
<path d="M34.6939 23.8467H31.4286V25.5201H34.6939V23.8467Z" fill="black"/>
<path d="M8.57146 25.5205H5.30615V27.194H8.57146V25.5205Z" fill="black"/>
<path d="M28.1633 25.5205H11.8368V27.194H28.1633V25.5205Z" fill="black"/>
<path d="M34.6939 25.5205H31.4286V27.194H34.6939V25.5205Z" fill="black"/>
<path d="M8.57146 27.1943H5.30615V28.8678H8.57146V27.1943Z" fill="black"/>
<path d="M26.5307 27.1943H11.8368V28.8678H26.5307V27.1943Z" fill="black"/>
<path d="M34.6939 27.1943H31.4286V28.8678H34.6939V27.1943Z" fill="black"/>
<path d="M8.57146 28.8672H5.30615V30.5407H8.57146V28.8672Z" fill="black"/>
<path d="M21.6326 28.8672H18.3673V30.5407H21.6326V28.8672Z" fill="black"/>
<path d="M34.6939 28.8672H31.4286V30.5407H34.6939V28.8672Z" fill="black"/>
<path d="M8.57146 30.541H5.30615V32.2145H8.57146V30.541Z" fill="black"/>
<path d="M34.6939 30.541H31.4286V32.2145H34.6939V30.541Z" fill="black"/>
<path d="M8.57146 32.2139H5.30615V33.8873H8.57146V32.2139Z" fill="black"/>
<path d="M34.6939 32.2139H31.4286V33.8873H34.6939V32.2139Z" fill="black"/>
<path d="M8.57146 33.8877H5.30615V35.5612H8.57146V33.8877Z" fill="black"/>
<path d="M15.1021 33.8877H10.2041V35.5612H15.1021V33.8877Z" fill="black"/>
<path d="M23.2654 33.8877H16.7347V35.5612H23.2654V33.8877Z" fill="black"/>
<path d="M29.7959 33.8877H24.8979V35.5612H29.7959V33.8877Z" fill="black"/>
<path d="M34.6939 33.8877H31.4286V35.5612H34.6939V33.8877Z" fill="black"/>
<path d="M34.6939 35.5615H5.30615V37.235H34.6939V35.5615Z" fill="black"/>
<path d="M11.8367 37.2344H6.93872V38.9078H11.8367V37.2344Z" fill="black"/>
<path d="M18.3673 37.2344H13.4694V38.9078H18.3673V37.2344Z" fill="black"/>
<path d="M26.5306 37.2344H21.6327V38.9078H26.5306V37.2344Z" fill="black"/>
<path d="M33.0612 37.2344H28.1632V38.9078H33.0612V37.2344Z" fill="black"/>
</svg>
