<svg width="41" height="40" viewBox="0 0 41 40" fill="none" xmlns="http://www.w3.org/2000/svg">
<path d="M8.78567 2.04102H2.0918V3.67367H8.78567V2.04102Z" fill="black"/>
<path d="M8.78567 3.67383H2.0918V5.30648H8.78567V3.67383Z" fill="black"/>
<path d="M10.4591 5.30566H5.43872V6.93832H10.4591V5.30566Z" fill="black"/>
<path d="M10.4591 6.93848H5.43872V8.57113H10.4591V6.93848Z" fill="black"/>
<path d="M10.4592 8.57129H7.1123V10.2039H10.4592V8.57129Z" fill="black"/>
<path d="M38.9082 10.2041H7.1123V11.8368H38.9082V10.2041Z" fill="black"/>
<path d="M38.9082 11.8369H7.1123V13.4696H38.9082V11.8369Z" fill="black"/>
<path d="M12.1327 13.4697H7.1123V15.1024H12.1327V13.4697Z" fill="black"/>
<path d="M38.9082 13.4697H35.5613V15.1024H38.9082V13.4697Z" fill="black"/>
<path d="M12.1327 15.1016H7.1123V16.7342H12.1327V15.1016Z" fill="black"/>
<path d="M38.9081 15.1016H33.8877V16.7342H38.9081V15.1016Z" fill="black"/>
<path d="M12.1327 16.7344H8.78577V18.367H12.1327V16.7344Z" fill="black"/>
<path d="M37.2346 16.7344H33.8877V18.367H37.2346V16.7344Z" fill="black"/>
<path d="M12.1327 18.3672H8.78577V19.9998H12.1327V18.3672Z" fill="black"/>
<path d="M37.2346 18.3672H33.8877V19.9998H37.2346V18.3672Z" fill="black"/>
<path d="M12.1327 20H8.78577V21.6327H12.1327V20Z" fill="black"/>
<path d="M37.2346 20H33.8877V21.6327H37.2346V20Z" fill="black"/>
<path d="M13.8062 21.6328H8.78577V23.2655H13.8062V21.6328Z" fill="black"/>
<path d="M37.2346 21.6328H32.2142V23.2655H37.2346V21.6328Z" fill="black"/>
<path d="M13.8062 23.2656H10.4592V24.8983H13.8062V23.2656Z" fill="black"/>
<path d="M37.2346 23.2656H32.2142V24.8983H37.2346V23.2656Z" fill="black"/>
<path d="M35.5613 24.8984H10.4592V26.5311H35.5613V24.8984Z" fill="black"/>
<path d="M33.8878 26.5303H12.1327V28.1629H33.8878V26.5303Z" fill="black"/>
<path d="M15.4796 31.4287H12.1327V33.0614H15.4796V31.4287Z" fill="black"/>
<path d="M33.8877 31.4287H30.5408V33.0614H33.8877V31.4287Z" fill="black"/>
<path d="M17.1531 33.0615H10.4592V34.6942H17.1531V33.0615Z" fill="black"/>
<path d="M35.5612 33.0615H28.8673V34.6942H35.5612V33.0615Z" fill="black"/>
<path d="M17.1531 34.6943H10.4592V36.327H17.1531V34.6943Z" fill="black"/>
<path d="M35.5612 34.6943H28.8673V36.327H35.5612V34.6943Z" fill="black"/>
<path d="M15.4796 36.3262H12.1327V37.9588H15.4796V36.3262Z" fill="black"/>
<path d="M33.8877 36.3262H30.5408V37.9588H33.8877V36.3262Z" fill="black"/>
</svg>
