<svg width="41" height="40" viewBox="0 0 41 40" fill="none" xmlns="http://www.w3.org/2000/svg">
<path d="M17.1531 5.30566H13.8062V6.93832H17.1531V5.30566Z" fill="black"/>
<path d="M27.1939 5.30566H23.8469V6.93832H27.1939V5.30566Z" fill="black"/>
<path d="M17.1531 6.93848H12.1327V8.57113H17.1531V6.93848Z" fill="black"/>
<path d="M28.8673 6.93848H23.8469V8.57113H28.8673V6.93848Z" fill="black"/>
<path d="M15.4796 8.57129H12.1327V10.2039H15.4796V8.57129Z" fill="black"/>
<path d="M28.8673 8.57129H25.5204V10.2039H28.8673V8.57129Z" fill="black"/>
<path d="M15.4796 10.2041H10.4592V11.8368H15.4796V10.2041Z" fill="black"/>
<path d="M30.5408 10.2041H25.5204V11.8368H30.5408V10.2041Z" fill="black"/>
<path d="M13.8062 11.8369H10.4592V13.4696H13.8062V11.8369Z" fill="black"/>
<path d="M30.5408 11.8369H27.1938V13.4696H30.5408V11.8369Z" fill="black"/>
<path d="M13.8062 13.4697H8.78577V15.1024H13.8062V13.4697Z" fill="black"/>
<path d="M32.2143 13.4697H27.1938V15.1024H32.2143V13.4697Z" fill="black"/>
<path d="M12.1327 15.1016H8.78577V16.7342H12.1327V15.1016Z" fill="black"/>
<path d="M32.2142 15.1016H28.8673V16.7342H32.2142V15.1016Z" fill="black"/>
<path d="M38.9081 16.7344H2.0918V18.367H38.9081V16.7344Z" fill="black"/>
<path d="M38.9081 18.3672H2.0918V19.9998H38.9081V18.3672Z" fill="black"/>
<path d="M8.78566 20H5.43872V21.6327H8.78566V20Z" fill="black"/>
<path d="M17.1531 20H13.8062V21.6327H17.1531V20Z" fill="black"/>
<path d="M27.1939 20H23.8469V21.6327H27.1939V20Z" fill="black"/>
<path d="M35.5612 20H32.2142V21.6327H35.5612V20Z" fill="black"/>
<path d="M8.78566 21.6328H5.43872V23.2655H8.78566V21.6328Z" fill="black"/>
<path d="M17.1531 21.6328H13.8062V23.2655H17.1531V21.6328Z" fill="black"/>
<path d="M27.1939 21.6328H23.8469V23.2655H27.1939V21.6328Z" fill="black"/>
<path d="M35.5612 21.6328H32.2142V23.2655H35.5612V21.6328Z" fill="black"/>
<path d="M35.5612 23.2656H5.43872V24.8983H35.5612V23.2656Z" fill="black"/>
<path d="M35.5612 24.8984H5.43872V26.5311H35.5612V24.8984Z" fill="black"/>
<path d="M35.5613 26.5303H7.1123V28.1629H35.5613V26.5303Z" fill="black"/>
<path d="M10.4592 28.1631H7.1123V29.7957H10.4592V28.1631Z" fill="black"/>
<path d="M18.8266 28.1631H15.4796V29.7957H18.8266V28.1631Z" fill="black"/>
<path d="M25.5204 28.1631H22.1735V29.7957H25.5204V28.1631Z" fill="black"/>
<path d="M33.8877 28.1631H30.5408V29.7957H33.8877V28.1631Z" fill="black"/>
<path d="M10.4592 29.7959H7.1123V31.4286H10.4592V29.7959Z" fill="black"/>
<path d="M18.8266 29.7959H15.4796V31.4286H18.8266V29.7959Z" fill="black"/>
<path d="M25.5204 29.7959H22.1735V31.4286H25.5204V29.7959Z" fill="black"/>
<path d="M33.8877 29.7959H30.5408V31.4286H33.8877V29.7959Z" fill="black"/>
<path d="M33.8878 31.4287H7.1123V33.0614H33.8878V31.4287Z" fill="black"/>
<path d="M32.2143 33.0615H8.78577V34.6942H32.2143V33.0615Z" fill="black"/>
</svg>
