<svg width="41" height="40" viewBox="0 0 41 40" fill="none" xmlns="http://www.w3.org/2000/svg">
<path d="M22.1735 2.04102H3.76532V3.67367H22.1735V2.04102Z" fill="black"/>
<path d="M23.847 3.67383H2.09186V5.30648H23.847V3.67383Z" fill="black"/>
<path d="M5.4388 5.30566H2.09186V6.93832H5.4388V5.30566Z" fill="black"/>
<path d="M25.5204 5.30566H20.5V6.93832H25.5204V5.30566Z" fill="black"/>
<path d="M5.4388 6.93848H2.09186V8.57113H5.4388V6.93848Z" fill="black"/>
<path d="M27.1939 6.93848H22.1735V8.57113H27.1939V6.93848Z" fill="black"/>
<path d="M5.4388 8.57129H2.09186V10.2039H5.4388V8.57129Z" fill="black"/>
<path d="M28.8673 8.57129H23.8469V10.2039H28.8673V8.57129Z" fill="black"/>
<path d="M5.4388 10.2041H2.09186V11.8368H5.4388V10.2041Z" fill="black"/>
<path d="M15.4796 10.2041H10.4592V11.8368H15.4796V10.2041Z" fill="black"/>
<path d="M30.5408 10.2041H25.5204V11.8368H30.5408V10.2041Z" fill="black"/>
<path d="M5.4388 11.8369H2.09186V13.4696H5.4388V11.8369Z" fill="black"/>
<path d="M15.4796 11.8369H10.4592V13.4696H15.4796V11.8369Z" fill="black"/>
<path d="M32.2143 11.8369H27.1938V13.4696H32.2143V11.8369Z" fill="black"/>
<path d="M5.4388 13.4697H2.09186V15.1024H5.4388V13.4697Z" fill="black"/>
<path d="M15.4796 13.4697H10.4592V15.1024H15.4796V13.4697Z" fill="black"/>
<path d="M33.8878 13.4697H28.8674V15.1024H33.8878V13.4697Z" fill="black"/>
<path d="M5.4388 15.1016H2.09186V16.7342H5.4388V15.1016Z" fill="black"/>
<path d="M35.5612 15.1016H30.5408V16.7342H35.5612V15.1016Z" fill="black"/>
<path d="M5.4388 16.7344H2.09186V18.367H5.4388V16.7344Z" fill="black"/>
<path d="M37.2347 16.7344H32.2143V18.367H37.2347V16.7344Z" fill="black"/>
<path d="M5.4388 18.3672H2.09186V19.9998H5.4388V18.3672Z" fill="black"/>
<path d="M38.9082 18.3672H33.8878V19.9998H38.9082V18.3672Z" fill="black"/>
<path d="M7.11227 20H2.09186V21.6327H7.11227V20Z" fill="black"/>
<path d="M38.9082 20H35.5612V21.6327H38.9082V20Z" fill="black"/>
<path d="M8.78573 21.6328H3.76532V23.2655H8.78573V21.6328Z" fill="black"/>
<path d="M38.9082 21.6328H35.5612V23.2655H38.9082V21.6328Z" fill="black"/>
<path d="M10.4592 23.2656H5.43878V24.8983H10.4592V23.2656Z" fill="black"/>
<path d="M38.9082 23.2656H33.8878V24.8983H38.9082V23.2656Z" fill="black"/>
<path d="M12.1327 24.8984H7.11224V26.5311H12.1327V24.8984Z" fill="black"/>
<path d="M37.2347 24.8984H32.2143V26.5311H37.2347V24.8984Z" fill="black"/>
<path d="M13.8061 26.5303H8.78571V28.1629H13.8061V26.5303Z" fill="black"/>
<path d="M35.5612 26.5303H30.5408V28.1629H35.5612V26.5303Z" fill="black"/>
<path d="M15.4796 28.1631H10.4592V29.7957H15.4796V28.1631Z" fill="black"/>
<path d="M33.8878 28.1631H28.8674V29.7957H33.8878V28.1631Z" fill="black"/>
<path d="M17.153 29.7959H12.1326V31.4286H17.153V29.7959Z" fill="black"/>
<path d="M32.2143 29.7959H27.1938V31.4286H32.2143V29.7959Z" fill="black"/>
<path d="M18.8266 31.4287H13.8062V33.0614H18.8266V31.4287Z" fill="black"/>
<path d="M30.5408 31.4287H25.5204V33.0614H30.5408V31.4287Z" fill="black"/>
<path d="M20.5 33.0615H15.4796V34.6942H20.5V33.0615Z" fill="black"/>
<path d="M28.8673 33.0615H23.8469V34.6942H28.8673V33.0615Z" fill="black"/>
<path d="M27.1939 34.6943H17.1531V36.327H27.1939V34.6943Z" fill="black"/>
<path d="M25.5204 36.3262H18.8265V37.9588H25.5204V36.3262Z" fill="black"/>
</svg>
