<svg width="40" height="42" viewBox="0 0 40 42" fill="none" xmlns="http://www.w3.org/2000/svg">
<path d="M23.2653 5.57129H3.67346V7.28557H23.2653V5.57129Z" fill="black"/>
<path d="M24.898 7.28613H2.04083V9.00042H24.898V7.28613Z" fill="black"/>
<path d="M5.30614 9H2.04083V10.7143H5.30614V9Z" fill="black"/>
<path d="M24.8979 9H21.6326V10.7143H24.8979V9Z" fill="black"/>
<path d="M5.30614 10.7139H2.04083V12.4282H5.30614V10.7139Z" fill="black"/>
<path d="M24.8979 10.7139H21.6326V12.4282H24.8979V10.7139Z" fill="black"/>
<path d="M5.30614 12.4287H2.04083V14.143H5.30614V12.4287Z" fill="black"/>
<path d="M31.4285 12.4287H21.6326V14.143H31.4285V12.4287Z" fill="black"/>
<path d="M5.30614 14.1426H2.04083V15.8569H5.30614V14.1426Z" fill="black"/>
<path d="M33.0612 14.1426H21.6326V15.8569H33.0612V14.1426Z" fill="black"/>
<path d="M5.30614 15.8574H2.04083V17.5717H5.30614V15.8574Z" fill="black"/>
<path d="M24.8979 15.8574H21.6326V17.5717H24.8979V15.8574Z" fill="black"/>
<path d="M34.6939 15.8574H29.7959V17.5717H34.6939V15.8574Z" fill="black"/>
<path d="M5.30614 17.5713H2.04083V19.2856H5.30614V17.5713Z" fill="black"/>
<path d="M24.8979 17.5713H21.6326V19.2856H24.8979V17.5713Z" fill="black"/>
<path d="M34.6939 17.5713H31.4286V19.2856H34.6939V17.5713Z" fill="black"/>
<path d="M5.30614 19.2861H2.04083V21.0004H5.30614V19.2861Z" fill="black"/>
<path d="M24.8979 19.2861H21.6326V21.0004H24.8979V19.2861Z" fill="black"/>
<path d="M36.3265 19.2861H31.4286V21.0004H36.3265V19.2861Z" fill="black"/>
<path d="M5.30614 21H2.04083V22.7143H5.30614V21Z" fill="black"/>
<path d="M24.8979 21H21.6326V22.7143H24.8979V21Z" fill="black"/>
<path d="M37.9592 21H33.0612V22.7143H37.9592V21Z" fill="black"/>
<path d="M5.30614 22.7139H2.04083V24.4282H5.30614V22.7139Z" fill="black"/>
<path d="M24.8979 22.7139H21.6326V24.4282H24.8979V22.7139Z" fill="black"/>
<path d="M37.9592 22.7139H34.6938V24.4282H37.9592V22.7139Z" fill="black"/>
<path d="M5.30614 24.4287H2.04083V26.143H5.30614V24.4287Z" fill="black"/>
<path d="M24.8979 24.4287H21.6326V26.143H24.8979V24.4287Z" fill="black"/>
<path d="M37.9592 24.4287H34.6938V26.143H37.9592V24.4287Z" fill="black"/>
<path d="M5.30614 26.1426H2.04083V27.8569H5.30614V26.1426Z" fill="black"/>
<path d="M15.102 26.1426H8.57141V27.8569H15.102V26.1426Z" fill="black"/>
<path d="M31.4285 26.1426H21.6326V27.8569H31.4285V26.1426Z" fill="black"/>
<path d="M37.9592 26.1426H34.6938V27.8569H37.9592V26.1426Z" fill="black"/>
<path d="M5.30614 27.8574H2.04083V29.5717H5.30614V27.8574Z" fill="black"/>
<path d="M16.7347 27.8574H6.93878V29.5717H16.7347V27.8574Z" fill="black"/>
<path d="M33.0612 27.8574H21.6326V29.5717H33.0612V27.8574Z" fill="black"/>
<path d="M37.9592 27.8574H34.6938V29.5717H37.9592V27.8574Z" fill="black"/>
<path d="M10.2041 29.5713H2.04083V31.2856H10.2041V29.5713Z" fill="black"/>
<path d="M26.5306 29.5713H13.4694V31.2856H26.5306V29.5713Z" fill="black"/>
<path d="M37.9592 29.5713H29.7959V31.2856H37.9592V29.5713Z" fill="black"/>
<path d="M10.2041 31.2861H3.67346V33.0004H10.2041V31.2861Z" fill="black"/>
<path d="M26.5306 31.2861H13.4694V33.0004H26.5306V31.2861Z" fill="black"/>
<path d="M36.3265 31.2861H29.7959V33.0004H36.3265V31.2861Z" fill="black"/>
<path d="M16.7347 33H6.93878V34.7143H16.7347V33Z" fill="black"/>
<path d="M33.0612 33H23.2653V34.7143H33.0612V33Z" fill="black"/>
<path d="M15.102 34.7139H8.57141V36.4282H15.102V34.7139Z" fill="black"/>
<path d="M31.4286 34.7139H24.8979V36.4282H31.4286V34.7139Z" fill="black"/>
</svg>
