<svg width="41" height="41" viewBox="0 0 41 41" fill="none" xmlns="http://www.w3.org/2000/svg">
<path d="M5.43874 2.0918H2.0918V3.76527H5.43874V2.0918Z" fill="black"/>
<path d="M25.5204 2.0918H15.4796V3.76527H25.5204V2.0918Z" fill="black"/>
<path d="M7.11221 3.76562H2.0918V5.43909H7.11221V3.76562Z" fill="black"/>
<path d="M27.1939 3.76562H13.8062V5.43909H27.1939V3.76562Z" fill="black"/>
<path d="M8.78567 5.43848H3.76526V7.11195H8.78567V5.43848Z" fill="black"/>
<path d="M17.1531 5.43848H13.8062V7.11195H17.1531V5.43848Z" fill="black"/>
<path d="M28.8673 5.43848H23.8469V7.11195H28.8673V5.43848Z" fill="black"/>
<path d="M10.4591 7.1123H5.43872V8.78577H10.4591V7.1123Z" fill="black"/>
<path d="M30.5408 7.1123H25.5204V8.78577H30.5408V7.1123Z" fill="black"/>
<path d="M12.1327 8.78613H7.1123V10.4596H12.1327V8.78613Z" fill="black"/>
<path d="M32.2143 8.78613H27.1938V10.4596H32.2143V8.78613Z" fill="black"/>
<path d="M13.8062 10.459H8.78577V12.1325H13.8062V10.459Z" fill="black"/>
<path d="M32.2142 10.459H28.8673V12.1325H32.2142V10.459Z" fill="black"/>
<path d="M15.4796 12.1328H8.78577V13.8063H15.4796V12.1328Z" fill="black"/>
<path d="M32.2142 12.1328H28.8673V13.8063H32.2142V12.1328Z" fill="black"/>
<path d="M17.1531 13.8057H8.78577V15.4791H17.1531V13.8057Z" fill="black"/>
<path d="M32.2142 13.8057H28.8673V15.4791H32.2142V13.8057Z" fill="black"/>
<path d="M12.1327 15.4795H8.78577V17.153H12.1327V15.4795Z" fill="black"/>
<path d="M18.8266 15.4795H13.8062V17.153H18.8266V15.4795Z" fill="black"/>
<path d="M32.2142 15.4795H28.8673V17.153H32.2142V15.4795Z" fill="black"/>
<path d="M12.1327 17.1533H8.78577V18.8268H12.1327V17.1533Z" fill="black"/>
<path d="M20.5 17.1533H15.4796V18.8268H20.5V17.1533Z" fill="black"/>
<path d="M32.2142 17.1533H28.8673V18.8268H32.2142V17.1533Z" fill="black"/>
<path d="M12.1327 18.8262H7.1123V20.4996H12.1327V18.8262Z" fill="black"/>
<path d="M22.1735 18.8262H17.1531V20.4996H22.1735V18.8262Z" fill="black"/>
<path d="M33.8877 18.8262H28.8673V20.4996H33.8877V18.8262Z" fill="black"/>
<path d="M10.4592 20.5H7.1123V22.1735H10.4592V20.5Z" fill="black"/>
<path d="M23.8469 20.5H18.8265V22.1735H23.8469V20.5Z" fill="black"/>
<path d="M33.8877 20.5H30.5408V22.1735H33.8877V20.5Z" fill="black"/>
<path d="M10.4591 22.1738H5.43872V23.8473H10.4591V22.1738Z" fill="black"/>
<path d="M25.5204 22.1738H20.5V23.8473H25.5204V22.1738Z" fill="black"/>
<path d="M35.5612 22.1738H30.5408V23.8473H35.5612V22.1738Z" fill="black"/>
<path d="M8.78566 23.8467H5.43872V25.5201H8.78566V23.8467Z" fill="black"/>
<path d="M27.1939 23.8467H22.1735V25.5201H27.1939V23.8467Z" fill="black"/>
<path d="M35.5612 23.8467H32.2142V25.5201H35.5612V23.8467Z" fill="black"/>
<path d="M8.78567 25.5205H3.76526V27.194H8.78567V25.5205Z" fill="black"/>
<path d="M28.8673 25.5205H23.8469V27.194H28.8673V25.5205Z" fill="black"/>
<path d="M30.5408 27.1943H3.76526V28.8678H30.5408V27.1943Z" fill="black"/>
<path d="M32.2142 28.8672H5.43872V30.5407H32.2142V28.8672Z" fill="black"/>
<path d="M33.8877 30.541H28.8673V32.2145H33.8877V30.541Z" fill="black"/>
<path d="M35.5612 32.2139H30.5408V33.8873H35.5612V32.2139Z" fill="black"/>
<path d="M18.8266 33.8877H15.4796V35.5612H18.8266V33.8877Z" fill="black"/>
<path d="M25.5204 33.8877H22.1735V35.5612H25.5204V33.8877Z" fill="black"/>
<path d="M37.2346 33.8877H32.2142V35.5612H37.2346V33.8877Z" fill="black"/>
<path d="M25.5204 35.5615H15.4796V37.235H25.5204V35.5615Z" fill="black"/>
<path d="M38.9081 35.5615H33.8877V37.235H38.9081V35.5615Z" fill="black"/>
<path d="M23.847 37.2344H17.1531V38.9078H23.847V37.2344Z" fill="black"/>
<path d="M38.9082 37.2344H35.5613V38.9078H38.9082V37.2344Z" fill="black"/>
</svg>
