<svg width="40" height="41" viewBox="0 0 40 41" fill="none" xmlns="http://www.w3.org/2000/svg">
<path d="M31.4286 3.76562H8.57141V5.43909H31.4286V3.76562Z" fill="black"/>
<path d="M33.0612 5.43848H6.93872V7.11195H33.0612V5.43848Z" fill="black"/>
<path d="M10.204 7.1123H6.93872V8.78577H10.204V7.1123Z" fill="black"/>
<path d="M33.0612 7.1123H29.7959V8.78577H33.0612V7.1123Z" fill="black"/>
<path d="M10.204 8.78613H6.93872V10.4596H10.204V8.78613Z" fill="black"/>
<path d="M33.0612 8.78613H29.7959V10.4596H33.0612V8.78613Z" fill="black"/>
<path d="M10.204 10.459H6.93872V12.1325H10.204V10.459Z" fill="black"/>
<path d="M33.0612 10.459H29.7959V12.1325H33.0612V10.459Z" fill="black"/>
<path d="M10.204 12.1328H6.93872V13.8063H10.204V12.1328Z" fill="black"/>
<path d="M33.0612 12.1328H29.7959V13.8063H33.0612V12.1328Z" fill="black"/>
<path d="M10.204 13.8057H6.93872V15.4791H10.204V13.8057Z" fill="black"/>
<path d="M33.0612 13.8057H29.7959V15.4791H33.0612V13.8057Z" fill="black"/>
<path d="M10.204 15.4795H6.93872V17.153H10.204V15.4795Z" fill="black"/>
<path d="M33.0612 15.4795H29.7959V17.153H33.0612V15.4795Z" fill="black"/>
<path d="M10.204 17.1533H6.93872V18.8268H10.204V17.1533Z" fill="black"/>
<path d="M33.0612 17.1533H29.7959V18.8268H33.0612V17.1533Z" fill="black"/>
<path d="M10.204 18.8262H6.93872V20.4996H10.204V18.8262Z" fill="black"/>
<path d="M33.0612 18.8262H29.7959V20.4996H33.0612V18.8262Z" fill="black"/>
<path d="M10.204 20.5H6.93872V22.1735H10.204V20.5Z" fill="black"/>
<path d="M33.0612 20.5H29.7959V22.1735H33.0612V20.5Z" fill="black"/>
<path d="M10.204 22.1738H6.93872V23.8473H10.204V22.1738Z" fill="black"/>
<path d="M33.0612 22.1738H29.7959V23.8473H33.0612V22.1738Z" fill="black"/>
<path d="M10.204 23.8467H6.93872V25.5201H10.204V23.8467Z" fill="black"/>
<path d="M33.0612 23.8467H29.7959V25.5201H33.0612V23.8467Z" fill="black"/>
<path d="M10.204 25.5205H6.93872V27.194H10.204V25.5205Z" fill="black"/>
<path d="M33.0612 25.5205H29.7959V27.194H33.0612V25.5205Z" fill="black"/>
<path d="M10.204 27.1943H6.93872V28.8678H10.204V27.1943Z" fill="black"/>
<path d="M33.0612 27.1943H29.7959V28.8678H33.0612V27.1943Z" fill="black"/>
<path d="M10.204 28.8672H6.93872V30.5407H10.204V28.8672Z" fill="black"/>
<path d="M23.2654 28.8672H16.7347V30.5407H23.2654V28.8672Z" fill="black"/>
<path d="M33.0612 28.8672H29.7959V30.5407H33.0612V28.8672Z" fill="black"/>
<path d="M10.204 30.541H6.93872V32.2145H10.204V30.541Z" fill="black"/>
<path d="M26.5306 30.541H13.4694V32.2145H26.5306V30.541Z" fill="black"/>
<path d="M33.0612 30.541H29.7959V32.2145H33.0612V30.541Z" fill="black"/>
<path d="M10.204 32.2139H6.93872V33.8873H10.204V32.2139Z" fill="black"/>
<path d="M18.3674 32.2139H11.8368V33.8873H18.3674V32.2139Z" fill="black"/>
<path d="M28.1633 32.2139H21.6327V33.8873H28.1633V32.2139Z" fill="black"/>
<path d="M33.0612 32.2139H29.7959V33.8873H33.0612V32.2139Z" fill="black"/>
<path d="M15.102 33.8877H6.93872V35.5612H15.102V33.8877Z" fill="black"/>
<path d="M33.0612 33.8877H24.8979V35.5612H33.0612V33.8877Z" fill="black"/>
<path d="M13.4694 35.5615H8.57141V37.235H13.4694V35.5615Z" fill="black"/>
<path d="M31.4286 35.5615H26.5306V37.235H31.4286V35.5615Z" fill="black"/>
</svg>
