<svg width="41" height="40" viewBox="0 0 41 40" fill="none" xmlns="http://www.w3.org/2000/svg">
<path d="M15.4795 2.04102H8.78564V3.67367H15.4795V2.04102Z" fill="black"/>
<path d="M18.8265 3.67383H8.78564V5.30648H18.8265V3.67383Z" fill="black"/>
<path d="M22.1734 5.30566H8.78564V6.93832H22.1734V5.30566Z" fill="black"/>
<path d="M12.1326 6.93848H8.78564V8.57113H12.1326V6.93848Z" fill="black"/>
<path d="M25.5203 6.93848H15.4795V8.57113H25.5203V6.93848Z" fill="black"/>
<path d="M12.1326 8.57129H8.78564V10.2039H12.1326V8.57129Z" fill="black"/>
<path d="M28.8672 8.57129H18.8264V10.2039H28.8672V8.57129Z" fill="black"/>
<path d="M12.1326 10.2041H8.78564V11.8368H12.1326V10.2041Z" fill="black"/>
<path d="M32.2144 10.2041H22.1736V11.8368H32.2144V10.2041Z" fill="black"/>
<path d="M12.1326 11.8369H8.78564V13.4696H12.1326V11.8369Z" fill="black"/>
<path d="M33.8879 11.8369H25.5205V13.4696H33.8879V11.8369Z" fill="black"/>
<path d="M12.1326 13.4697H8.78564V15.1024H12.1326V13.4697Z" fill="black"/>
<path d="M33.8878 13.4697H28.8674V15.1024H33.8878V13.4697Z" fill="black"/>
<path d="M12.1326 15.1016H8.78564V16.7342H12.1326V15.1016Z" fill="black"/>
<path d="M33.8879 15.1016H25.5205V16.7342H33.8879V15.1016Z" fill="black"/>
<path d="M12.1326 16.7344H8.78564V18.367H12.1326V16.7344Z" fill="black"/>
<path d="M32.2144 16.7344H22.1736V18.367H32.2144V16.7344Z" fill="black"/>
<path d="M12.1326 18.3672H8.78564V19.9998H12.1326V18.3672Z" fill="black"/>
<path d="M28.8672 18.3672H18.8264V19.9998H28.8672V18.3672Z" fill="black"/>
<path d="M12.1326 20H8.78564V21.6327H12.1326V20Z" fill="black"/>
<path d="M25.5203 20H15.4795V21.6327H25.5203V20Z" fill="black"/>
<path d="M22.1734 21.6328H8.78564V23.2655H22.1734V21.6328Z" fill="black"/>
<path d="M18.8265 23.2656H8.78564V24.8983H18.8265V23.2656Z" fill="black"/>
<path d="M15.4795 24.8984H8.78564V26.5311H15.4795V24.8984Z" fill="black"/>
<path d="M12.1326 26.5303H8.78564V28.1629H12.1326V26.5303Z" fill="black"/>
<path d="M12.1326 28.1631H8.78564V29.7957H12.1326V28.1631Z" fill="black"/>
<path d="M12.1326 29.7959H8.78564V31.4286H12.1326V29.7959Z" fill="black"/>
<path d="M12.1326 31.4287H8.78564V33.0614H12.1326V31.4287Z" fill="black"/>
<path d="M12.1326 33.0615H8.78564V34.6942H12.1326V33.0615Z" fill="black"/>
<path d="M12.1326 34.6943H8.78564V36.327H12.1326V34.6943Z" fill="black"/>
<path d="M12.1326 36.3262H8.78564V37.9588H12.1326V36.3262Z" fill="black"/>
</svg>
