<svg width="40" height="40" viewBox="0 0 40 40" fill="none" xmlns="http://www.w3.org/2000/svg">
<path d="M18.3675 2.04102H8.57153V3.67367H18.3675V2.04102Z" fill="black"/>
<path d="M23.2653 3.67383H6.93872V5.30648H23.2653V3.67383Z" fill="black"/>
<path d="M33.0613 3.67383H28.1633V5.30648H33.0613V3.67383Z" fill="black"/>
<path d="M10.2041 5.30566H5.30615V6.93832H10.2041V5.30566Z" fill="black"/>
<path d="M34.6938 5.30566H16.7346V6.93832H34.6938V5.30566Z" fill="black"/>
<path d="M8.57146 6.93848H5.30615V8.57113H8.57146V6.93848Z" fill="black"/>
<path d="M29.7958 6.93848H21.6326V8.57113H29.7958V6.93848Z" fill="black"/>
<path d="M34.6938 6.93848H31.4285V8.57113H34.6938V6.93848Z" fill="black"/>
<path d="M8.57146 8.57129H5.30615V10.2039H8.57146V8.57129Z" fill="black"/>
<path d="M34.6938 8.57129H31.4285V10.2039H34.6938V8.57129Z" fill="black"/>
<path d="M8.57146 10.2041H5.30615V11.8368H8.57146V10.2041Z" fill="black"/>
<path d="M34.6938 10.2041H31.4285V11.8368H34.6938V10.2041Z" fill="black"/>
<path d="M8.57146 11.8369H5.30615V13.4696H8.57146V11.8369Z" fill="black"/>
<path d="M34.6938 11.8369H31.4285V13.4696H34.6938V11.8369Z" fill="black"/>
<path d="M8.57146 13.4697H5.30615V15.1024H8.57146V13.4697Z" fill="black"/>
<path d="M34.6938 13.4697H31.4285V15.1024H34.6938V13.4697Z" fill="black"/>
<path d="M8.57146 15.1016H5.30615V16.7342H8.57146V15.1016Z" fill="black"/>
<path d="M34.6938 15.1016H31.4285V16.7342H34.6938V15.1016Z" fill="black"/>
<path d="M8.57146 16.7344H5.30615V18.367H8.57146V16.7344Z" fill="black"/>
<path d="M34.6938 16.7344H31.4285V18.367H34.6938V16.7344Z" fill="black"/>
<path d="M8.57146 18.3672H5.30615V19.9998H8.57146V18.3672Z" fill="black"/>
<path d="M34.6938 18.3672H31.4285V19.9998H34.6938V18.3672Z" fill="black"/>
<path d="M8.57146 20H5.30615V21.6327H8.57146V20Z" fill="black"/>
<path d="M34.6938 20H31.4285V21.6327H34.6938V20Z" fill="black"/>
<path d="M18.3674 21.6328H5.30615V23.2655H18.3674V21.6328Z" fill="black"/>
<path d="M34.6938 21.6328H31.4285V23.2655H34.6938V21.6328Z" fill="black"/>
<path d="M23.2653 23.2656H5.30615V24.8983H23.2653V23.2656Z" fill="black"/>
<path d="M34.6939 23.2656H29.7959V24.8983H34.6939V23.2656Z" fill="black"/>
<path d="M10.2041 24.8984H5.30615V26.5311H10.2041V24.8984Z" fill="black"/>
<path d="M33.0611 24.8984H16.7346V26.5311H33.0611V24.8984Z" fill="black"/>
<path d="M8.57146 26.5303H5.30615V28.1629H8.57146V26.5303Z" fill="black"/>
<path d="M31.4285 26.5303H21.6326V28.1629H31.4285V26.5303Z" fill="black"/>
<path d="M8.57146 28.1631H5.30615V29.7957H8.57146V28.1631Z" fill="black"/>
<path d="M8.57146 29.7959H5.30615V31.4286H8.57146V29.7959Z" fill="black"/>
<path d="M8.57146 31.4287H5.30615V33.0614H8.57146V31.4287Z" fill="black"/>
<path d="M8.57146 33.0615H5.30615V34.6942H8.57146V33.0615Z" fill="black"/>
<path d="M8.57146 34.6943H5.30615V36.327H8.57146V34.6943Z" fill="black"/>
<path d="M8.57146 36.3262H5.30615V37.9588H8.57146V36.3262Z" fill="black"/>
</svg>
