<svg width="40" height="41" viewBox="0 0 40 41" fill="none" xmlns="http://www.w3.org/2000/svg">
<path d="M36.3265 3.76562H3.67346V5.43909H36.3265V3.76562Z" fill="black"/>
<path d="M37.9591 5.43848H2.04077V7.11195H37.9591V5.43848Z" fill="black"/>
<path d="M6.93873 7.1123H2.04077V8.78577H6.93873V7.1123Z" fill="black"/>
<path d="M37.9592 7.1123H33.0613V8.78577H37.9592V7.1123Z" fill="black"/>
<path d="M8.57142 8.78613H3.67346V10.4596H8.57142V8.78613Z" fill="black"/>
<path d="M36.3265 8.78613H31.4286V10.4596H36.3265V8.78613Z" fill="black"/>
<path d="M8.57142 10.459H3.67346V12.1325H8.57142V10.459Z" fill="black"/>
<path d="M36.3265 10.459H31.4286V12.1325H36.3265V10.459Z" fill="black"/>
<path d="M10.2041 12.1328H5.30615V13.8063H10.2041V12.1328Z" fill="black"/>
<path d="M34.6939 12.1328H29.7959V13.8063H34.6939V12.1328Z" fill="black"/>
<path d="M11.8367 13.8057H6.93872V15.4791H11.8367V13.8057Z" fill="black"/>
<path d="M33.0612 13.8057H28.1632V15.4791H33.0612V13.8057Z" fill="black"/>
<path d="M13.4694 15.4795H8.57141V17.153H13.4694V15.4795Z" fill="black"/>
<path d="M31.4286 15.4795H26.5306V17.153H31.4286V15.4795Z" fill="black"/>
<path d="M15.1021 17.1533H10.2041V18.8268H15.1021V17.1533Z" fill="black"/>
<path d="M29.7959 17.1533H24.8979V18.8268H29.7959V17.1533Z" fill="black"/>
<path d="M16.7348 18.8262H11.8368V20.4996H16.7348V18.8262Z" fill="black"/>
<path d="M28.1632 18.8262H23.2653V20.4996H28.1632V18.8262Z" fill="black"/>
<path d="M18.3673 20.5H13.4694V22.1735H18.3673V20.5Z" fill="black"/>
<path d="M26.5306 20.5H21.6327V22.1735H26.5306V20.5Z" fill="black"/>
<path d="M18.3674 22.1738H15.1021V23.8473H18.3674V22.1738Z" fill="black"/>
<path d="M24.898 22.1738H21.6327V23.8473H24.898V22.1738Z" fill="black"/>
<path d="M18.3674 23.8467H15.1021V25.5201H18.3674V23.8467Z" fill="black"/>
<path d="M24.898 23.8467H21.6327V25.5201H24.898V23.8467Z" fill="black"/>
<path d="M18.3674 25.5205H15.1021V27.194H18.3674V25.5205Z" fill="black"/>
<path d="M24.898 25.5205H21.6327V27.194H24.898V25.5205Z" fill="black"/>
<path d="M18.3674 27.1943H15.1021V28.8678H18.3674V27.1943Z" fill="black"/>
<path d="M24.898 27.1943H21.6327V28.8678H24.898V27.1943Z" fill="black"/>
<path d="M18.3674 28.8672H15.1021V30.5407H18.3674V28.8672Z" fill="black"/>
<path d="M24.898 28.8672H21.6327V30.5407H24.898V28.8672Z" fill="black"/>
<path d="M18.3674 30.541H15.1021V32.2145H18.3674V30.541Z" fill="black"/>
<path d="M24.898 30.541H21.6327V32.2145H24.898V30.541Z" fill="black"/>
<path d="M18.3674 32.2139H15.1021V33.8873H18.3674V32.2139Z" fill="black"/>
<path d="M24.898 32.2139H21.6327V33.8873H24.898V32.2139Z" fill="black"/>
<path d="M20 33.8877H15.1021V35.5612H20V33.8877Z" fill="black"/>
<path d="M24.898 33.8877H21.6327V35.5612H24.898V33.8877Z" fill="black"/>
<path d="M24.898 35.5615H16.7347V37.235H24.898V35.5615Z" fill="black"/>
<path d="M23.2653 37.2344H18.3673V38.9078H23.2653V37.2344Z" fill="black"/>
</svg>
