<svg width="40" height="40" viewBox="0 0 40 40" fill="none" xmlns="http://www.w3.org/2000/svg">
<path d="M16.7347 5.30566H8.57141V6.93832H16.7347V5.30566Z" fill="black"/>
<path d="M31.4285 5.30566H23.2653V6.93832H31.4285V5.30566Z" fill="black"/>
<path d="M34.6939 6.93848H5.30615V8.57113H34.6939V6.93848Z" fill="black"/>
<path d="M10.2041 8.57129H3.67346V10.2039H10.2041V8.57129Z" fill="black"/>
<path d="M24.898 8.57129H15.1021V10.2039H24.898V8.57129Z" fill="black"/>
<path d="M36.3265 8.57129H29.7959V10.2039H36.3265V8.57129Z" fill="black"/>
<path d="M6.93877 10.2041H3.67346V11.8368H6.93877V10.2041Z" fill="black"/>
<path d="M21.6326 10.2041H18.3673V11.8368H21.6326V10.2041Z" fill="black"/>
<path d="M36.3266 10.2041H33.0613V11.8368H36.3266V10.2041Z" fill="black"/>
<path d="M6.93873 11.8369H2.04077V13.4696H6.93873V11.8369Z" fill="black"/>
<path d="M37.9592 11.8369H33.0613V13.4696H37.9592V11.8369Z" fill="black"/>
<path d="M5.30608 13.4697H2.04077V15.1024H5.30608V13.4697Z" fill="black"/>
<path d="M37.9592 13.4697H34.6938V15.1024H37.9592V13.4697Z" fill="black"/>
<path d="M5.30608 15.1016H2.04077V16.7342H5.30608V15.1016Z" fill="black"/>
<path d="M37.9592 15.1016H34.6938V16.7342H37.9592V15.1016Z" fill="black"/>
<path d="M5.30608 16.7344H2.04077V18.367H5.30608V16.7344Z" fill="black"/>
<path d="M37.9592 16.7344H34.6938V18.367H37.9592V16.7344Z" fill="black"/>
<path d="M6.93873 18.3672H2.04077V19.9998H6.93873V18.3672Z" fill="black"/>
<path d="M37.9592 18.3672H33.0613V19.9998H37.9592V18.3672Z" fill="black"/>
<path d="M6.93877 20H3.67346V21.6327H6.93877V20Z" fill="black"/>
<path d="M36.3266 20H33.0613V21.6327H36.3266V20Z" fill="black"/>
<path d="M8.57142 21.6328H3.67346V23.2655H8.57142V21.6328Z" fill="black"/>
<path d="M36.3265 21.6328H31.4286V23.2655H36.3265V21.6328Z" fill="black"/>
<path d="M10.2041 23.2656H5.30615V24.8983H10.2041V23.2656Z" fill="black"/>
<path d="M34.6939 23.2656H29.7959V24.8983H34.6939V23.2656Z" fill="black"/>
<path d="M11.8367 24.8984H6.93872V26.5311H11.8367V24.8984Z" fill="black"/>
<path d="M33.0612 24.8984H28.1632V26.5311H33.0612V24.8984Z" fill="black"/>
<path d="M13.4694 26.5303H8.57141V28.1629H13.4694V26.5303Z" fill="black"/>
<path d="M31.4286 26.5303H26.5306V28.1629H31.4286V26.5303Z" fill="black"/>
<path d="M15.1021 28.1631H10.2041V29.7957H15.1021V28.1631Z" fill="black"/>
<path d="M29.7959 28.1631H24.8979V29.7957H29.7959V28.1631Z" fill="black"/>
<path d="M16.7348 29.7959H11.8368V31.4286H16.7348V29.7959Z" fill="black"/>
<path d="M28.1632 29.7959H23.2653V31.4286H28.1632V29.7959Z" fill="black"/>
<path d="M18.3673 31.4287H13.4694V33.0614H18.3673V31.4287Z" fill="black"/>
<path d="M26.5306 31.4287H21.6327V33.0614H26.5306V31.4287Z" fill="black"/>
<path d="M24.898 33.0615H15.1021V34.6942H24.898V33.0615Z" fill="black"/>
<path d="M23.2654 34.6943H16.7347V36.327H23.2654V34.6943Z" fill="black"/>
</svg>
