<svg width="40" height="40" viewBox="0 0 40 40" fill="none" xmlns="http://www.w3.org/2000/svg">
<path d="M23.2652 2.04102H16.7346V3.67367H23.2652V2.04102Z" fill="black"/>
<path d="M24.898 3.67383H15.1021V5.30648H24.898V3.67383Z" fill="black"/>
<path d="M18.3674 5.30566H13.4695V6.93832H18.3674V5.30566Z" fill="black"/>
<path d="M26.5305 5.30566H21.6326V6.93832H26.5305V5.30566Z" fill="black"/>
<path d="M16.7346 6.93848H11.8367V8.57113H16.7346V6.93848Z" fill="black"/>
<path d="M28.1633 6.93848H23.2654V8.57113H28.1633V6.93848Z" fill="black"/>
<path d="M15.1021 8.57129H8.57153V10.2039H15.1021V8.57129Z" fill="black"/>
<path d="M31.4286 8.57129H24.8979V10.2039H31.4286V8.57129Z" fill="black"/>
<path d="M13.4693 10.2041H6.93872V11.8368H13.4693V10.2041Z" fill="black"/>
<path d="M33.0611 10.2041H26.5305V11.8368H33.0611V10.2041Z" fill="black"/>
<path d="M11.8368 11.8369H5.30615V13.4696H11.8368V11.8369Z" fill="black"/>
<path d="M34.6939 11.8369H28.1633V13.4696H34.6939V11.8369Z" fill="black"/>
<path d="M8.57154 13.4697H3.67358V15.1024H8.57154V13.4697Z" fill="black"/>
<path d="M36.3264 13.4697H31.4285V15.1024H36.3264V13.4697Z" fill="black"/>
<path d="M6.93889 15.1016H3.67358V16.7342H6.93889V15.1016Z" fill="black"/>
<path d="M36.3266 15.1016H33.0613V16.7342H36.3266V15.1016Z" fill="black"/>
<path d="M6.93889 16.7344H3.67358V18.367H6.93889V16.7344Z" fill="black"/>
<path d="M36.3266 16.7344H33.0613V18.367H36.3266V16.7344Z" fill="black"/>
<path d="M6.93889 18.3672H3.67358V19.9998H6.93889V18.3672Z" fill="black"/>
<path d="M24.898 18.3672H15.1021V19.9998H24.898V18.3672Z" fill="black"/>
<path d="M36.3266 18.3672H33.0613V19.9998H36.3266V18.3672Z" fill="black"/>
<path d="M6.93889 20H3.67358V21.6327H6.93889V20Z" fill="black"/>
<path d="M26.5307 20H13.4695V21.6327H26.5307V20Z" fill="black"/>
<path d="M36.3266 20H33.0613V21.6327H36.3266V20Z" fill="black"/>
<path d="M6.93889 21.6328H3.67358V23.2655H6.93889V21.6328Z" fill="black"/>
<path d="M16.7348 21.6328H13.4695V23.2655H16.7348V21.6328Z" fill="black"/>
<path d="M26.5307 21.6328H23.2654V23.2655H26.5307V21.6328Z" fill="black"/>
<path d="M36.3266 21.6328H33.0613V23.2655H36.3266V21.6328Z" fill="black"/>
<path d="M6.93889 23.2656H3.67358V24.8983H6.93889V23.2656Z" fill="black"/>
<path d="M16.7348 23.2656H13.4695V24.8983H16.7348V23.2656Z" fill="black"/>
<path d="M26.5307 23.2656H23.2654V24.8983H26.5307V23.2656Z" fill="black"/>
<path d="M36.3266 23.2656H33.0613V24.8983H36.3266V23.2656Z" fill="black"/>
<path d="M6.93889 24.8984H3.67358V26.5311H6.93889V24.8984Z" fill="black"/>
<path d="M16.7348 24.8984H13.4695V26.5311H16.7348V24.8984Z" fill="black"/>
<path d="M26.5307 24.8984H23.2654V26.5311H26.5307V24.8984Z" fill="black"/>
<path d="M36.3266 24.8984H33.0613V26.5311H36.3266V24.8984Z" fill="black"/>
<path d="M6.93889 26.5303H3.67358V28.1629H6.93889V26.5303Z" fill="black"/>
<path d="M16.7348 26.5303H13.4695V28.1629H16.7348V26.5303Z" fill="black"/>
<path d="M26.5307 26.5303H23.2654V28.1629H26.5307V26.5303Z" fill="black"/>
<path d="M36.3266 26.5303H33.0613V28.1629H36.3266V26.5303Z" fill="black"/>
<path d="M6.93889 28.1631H3.67358V29.7957H6.93889V28.1631Z" fill="black"/>
<path d="M16.7348 28.1631H13.4695V29.7957H16.7348V28.1631Z" fill="black"/>
<path d="M26.5307 28.1631H23.2654V29.7957H26.5307V28.1631Z" fill="black"/>
<path d="M36.3266 28.1631H33.0613V29.7957H36.3266V28.1631Z" fill="black"/>
<path d="M6.93889 29.7959H3.67358V31.4286H6.93889V29.7959Z" fill="black"/>
<path d="M16.7348 29.7959H13.4695V31.4286H16.7348V29.7959Z" fill="black"/>
<path d="M26.5307 29.7959H23.2654V31.4286H26.5307V29.7959Z" fill="black"/>
<path d="M36.3266 29.7959H33.0613V31.4286H36.3266V29.7959Z" fill="black"/>
<path d="M6.93889 31.4287H3.67358V33.0614H6.93889V31.4287Z" fill="black"/>
<path d="M16.7348 31.4287H13.4695V33.0614H16.7348V31.4287Z" fill="black"/>
<path d="M26.5307 31.4287H23.2654V33.0614H26.5307V31.4287Z" fill="black"/>
<path d="M36.3266 31.4287H33.0613V33.0614H36.3266V31.4287Z" fill="black"/>
<path d="M36.3266 33.0615H3.67358V34.6942H36.3266V33.0615Z" fill="black"/>
<path d="M34.6939 34.6943H5.30615V36.327H34.6939V34.6943Z" fill="black"/>
</svg>
