<svg width="40" height="40" viewBox="0 0 40 40" fill="none" xmlns="http://www.w3.org/2000/svg">
<path d="M24.898 2.04102H15.1021V3.67367H24.898V2.04102Z" fill="black"/>
<path d="M28.1633 3.67383H11.8368V5.30648H28.1633V3.67383Z" fill="black"/>
<path d="M16.7347 5.30566H10.2041V6.93832H16.7347V5.30566Z" fill="black"/>
<path d="M29.7959 5.30566H23.2653V6.93832H29.7959V5.30566Z" fill="black"/>
<path d="M13.4694 6.93848H8.57141V8.57113H13.4694V6.93848Z" fill="black"/>
<path d="M31.4286 6.93848H26.5306V8.57113H31.4286V6.93848Z" fill="black"/>
<path d="M11.8367 8.57129H6.93872V10.2039H11.8367V8.57129Z" fill="black"/>
<path d="M33.0612 8.57129H28.1632V10.2039H33.0612V8.57129Z" fill="black"/>
<path d="M10.204 10.2041H6.93872V11.8368H10.204V10.2041Z" fill="black"/>
<path d="M23.2654 10.2041H16.7347V11.8368H23.2654V10.2041Z" fill="black"/>
<path d="M33.0612 10.2041H29.7959V11.8368H33.0612V10.2041Z" fill="black"/>
<path d="M10.2041 11.8369H5.30615V13.4696H10.2041V11.8369Z" fill="black"/>
<path d="M24.898 11.8369H15.1021V13.4696H24.898V11.8369Z" fill="black"/>
<path d="M34.6939 11.8369H29.7959V13.4696H34.6939V11.8369Z" fill="black"/>
<path d="M8.57146 13.4697H5.30615V15.1024H8.57146V13.4697Z" fill="black"/>
<path d="M18.3673 13.4697H13.4694V15.1024H18.3673V13.4697Z" fill="black"/>
<path d="M26.5306 13.4697H21.6327V15.1024H26.5306V13.4697Z" fill="black"/>
<path d="M34.6939 13.4697H31.4286V15.1024H34.6939V13.4697Z" fill="black"/>
<path d="M8.57146 15.1016H5.30615V16.7342H8.57146V15.1016Z" fill="black"/>
<path d="M16.7347 15.1016H13.4694V16.7342H16.7347V15.1016Z" fill="black"/>
<path d="M26.5306 15.1016H23.2653V16.7342H26.5306V15.1016Z" fill="black"/>
<path d="M34.6939 15.1016H31.4286V16.7342H34.6939V15.1016Z" fill="black"/>
<path d="M8.57146 16.7344H5.30615V18.367H8.57146V16.7344Z" fill="black"/>
<path d="M16.7347 16.7344H13.4694V18.367H16.7347V16.7344Z" fill="black"/>
<path d="M26.5306 16.7344H23.2653V18.367H26.5306V16.7344Z" fill="black"/>
<path d="M34.6939 16.7344H31.4286V18.367H34.6939V16.7344Z" fill="black"/>
<path d="M8.57146 18.3672H5.30615V19.9998H8.57146V18.3672Z" fill="black"/>
<path d="M18.3673 18.3672H13.4694V19.9998H18.3673V18.3672Z" fill="black"/>
<path d="M26.5306 18.3672H21.6327V19.9998H26.5306V18.3672Z" fill="black"/>
<path d="M34.6939 18.3672H31.4286V19.9998H34.6939V18.3672Z" fill="black"/>
<path d="M10.2041 20H5.30615V21.6327H10.2041V20Z" fill="black"/>
<path d="M24.898 20H15.1021V21.6327H24.898V20Z" fill="black"/>
<path d="M34.6939 20H29.7959V21.6327H34.6939V20Z" fill="black"/>
<path d="M10.204 21.6328H6.93872V23.2655H10.204V21.6328Z" fill="black"/>
<path d="M23.2654 21.6328H16.7347V23.2655H23.2654V21.6328Z" fill="black"/>
<path d="M33.0612 21.6328H29.7959V23.2655H33.0612V21.6328Z" fill="black"/>
<path d="M11.8367 23.2656H6.93872V24.8983H11.8367V23.2656Z" fill="black"/>
<path d="M33.0612 23.2656H28.1632V24.8983H33.0612V23.2656Z" fill="black"/>
<path d="M11.8367 24.8984H8.57141V26.5311H11.8367V24.8984Z" fill="black"/>
<path d="M31.4285 24.8984H28.1632V26.5311H31.4285V24.8984Z" fill="black"/>
<path d="M13.4694 26.5303H8.57141V28.1629H13.4694V26.5303Z" fill="black"/>
<path d="M31.4286 26.5303H26.5306V28.1629H31.4286V26.5303Z" fill="black"/>
<path d="M15.1021 28.1631H10.2041V29.7957H15.1021V28.1631Z" fill="black"/>
<path d="M29.7959 28.1631H24.8979V29.7957H29.7959V28.1631Z" fill="black"/>
<path d="M16.7348 29.7959H11.8368V31.4286H16.7348V29.7959Z" fill="black"/>
<path d="M28.1632 29.7959H23.2653V31.4286H28.1632V29.7959Z" fill="black"/>
<path d="M18.3674 31.4287H11.8368V33.0614H18.3674V31.4287Z" fill="black"/>
<path d="M28.1633 31.4287H21.6327V33.0614H28.1633V31.4287Z" fill="black"/>
<path d="M26.5306 33.0615H13.4694V34.6942H26.5306V33.0615Z" fill="black"/>
<path d="M24.898 34.6943H15.1021V36.327H24.898V34.6943Z" fill="black"/>
<path d="M21.6326 36.3262H18.3673V37.9588H21.6326V36.3262Z" fill="black"/>
</svg>
