<svg width="40" height="41" viewBox="0 0 40 41" fill="none" xmlns="http://www.w3.org/2000/svg">
<path d="M18.3673 3.76562H11.8367V5.43909H18.3673V3.76562Z" fill="black"/>
<path d="M21.6326 5.43848H8.57141V7.11195H21.6326V5.43848Z" fill="black"/>
<path d="M36.3265 5.43848H28.1633V7.11195H36.3265V5.43848Z" fill="black"/>
<path d="M36.3266 7.1123H5.30615V8.78577H36.3266V7.1123Z" fill="black"/>
<path d="M11.8367 8.78613H3.67346V10.4596H11.8367V8.78613Z" fill="black"/>
<path d="M16.7347 8.78613H13.4694V10.4596H16.7347V8.78613Z" fill="black"/>
<path d="M31.4286 8.78613H18.3674V10.4596H31.4286V8.78613Z" fill="black"/>
<path d="M36.3265 8.78613H33.0612V10.4596H36.3265V8.78613Z" fill="black"/>
<path d="M8.57142 10.459H3.67346V12.1325H8.57142V10.459Z" fill="black"/>
<path d="M16.7347 10.459H13.4694V12.1325H16.7347V10.459Z" fill="black"/>
<path d="M28.1632 10.459H21.6326V12.1325H28.1632V10.459Z" fill="black"/>
<path d="M36.3265 10.459H33.0612V12.1325H36.3265V10.459Z" fill="black"/>
<path d="M6.93877 12.1328H3.67346V13.8063H6.93877V12.1328Z" fill="black"/>
<path d="M16.7347 12.1328H13.4694V13.8063H16.7347V12.1328Z" fill="black"/>
<path d="M26.5306 12.1328H23.2653V13.8063H26.5306V12.1328Z" fill="black"/>
<path d="M36.3265 12.1328H33.0612V13.8063H36.3265V12.1328Z" fill="black"/>
<path d="M6.93877 13.8057H3.67346V15.4791H6.93877V13.8057Z" fill="black"/>
<path d="M16.7347 13.8057H13.4694V15.4791H16.7347V13.8057Z" fill="black"/>
<path d="M26.5306 13.8057H23.2653V15.4791H26.5306V13.8057Z" fill="black"/>
<path d="M36.3265 13.8057H33.0612V15.4791H36.3265V13.8057Z" fill="black"/>
<path d="M6.93877 15.4795H3.67346V17.153H6.93877V15.4795Z" fill="black"/>
<path d="M16.7347 15.4795H13.4694V17.153H16.7347V15.4795Z" fill="black"/>
<path d="M26.5306 15.4795H23.2653V17.153H26.5306V15.4795Z" fill="black"/>
<path d="M36.3265 15.4795H33.0612V17.153H36.3265V15.4795Z" fill="black"/>
<path d="M6.93877 17.1533H3.67346V18.8268H6.93877V17.1533Z" fill="black"/>
<path d="M16.7347 17.1533H13.4694V18.8268H16.7347V17.1533Z" fill="black"/>
<path d="M26.5306 17.1533H23.2653V18.8268H26.5306V17.1533Z" fill="black"/>
<path d="M36.3265 17.1533H33.0612V18.8268H36.3265V17.1533Z" fill="black"/>
<path d="M6.93877 18.8262H3.67346V20.4996H6.93877V18.8262Z" fill="black"/>
<path d="M16.7347 18.8262H13.4694V20.4996H16.7347V18.8262Z" fill="black"/>
<path d="M26.5306 18.8262H23.2653V20.4996H26.5306V18.8262Z" fill="black"/>
<path d="M36.3265 18.8262H33.0612V20.4996H36.3265V18.8262Z" fill="black"/>
<path d="M6.93877 20.5H3.67346V22.1735H6.93877V20.5Z" fill="black"/>
<path d="M16.7347 20.5H13.4694V22.1735H16.7347V20.5Z" fill="black"/>
<path d="M26.5306 20.5H23.2653V22.1735H26.5306V20.5Z" fill="black"/>
<path d="M36.3265 20.5H33.0612V22.1735H36.3265V20.5Z" fill="black"/>
<path d="M6.93877 22.1738H3.67346V23.8473H6.93877V22.1738Z" fill="black"/>
<path d="M16.7347 22.1738H13.4694V23.8473H16.7347V22.1738Z" fill="black"/>
<path d="M26.5306 22.1738H23.2653V23.8473H26.5306V22.1738Z" fill="black"/>
<path d="M36.3265 22.1738H33.0612V23.8473H36.3265V22.1738Z" fill="black"/>
<path d="M6.93877 23.8467H3.67346V25.5201H6.93877V23.8467Z" fill="black"/>
<path d="M16.7347 23.8467H13.4694V25.5201H16.7347V23.8467Z" fill="black"/>
<path d="M26.5306 23.8467H23.2653V25.5201H26.5306V23.8467Z" fill="black"/>
<path d="M36.3265 23.8467H33.0612V25.5201H36.3265V23.8467Z" fill="black"/>
<path d="M6.93877 25.5205H3.67346V27.194H6.93877V25.5205Z" fill="black"/>
<path d="M16.7347 25.5205H13.4694V27.194H16.7347V25.5205Z" fill="black"/>
<path d="M26.5306 25.5205H23.2653V27.194H26.5306V25.5205Z" fill="black"/>
<path d="M36.3265 25.5205H33.0612V27.194H36.3265V25.5205Z" fill="black"/>
<path d="M6.93877 27.1943H3.67346V28.8678H6.93877V27.1943Z" fill="black"/>
<path d="M16.7347 27.1943H13.4694V28.8678H16.7347V27.1943Z" fill="black"/>
<path d="M26.5306 27.1943H23.2653V28.8678H26.5306V27.1943Z" fill="black"/>
<path d="M36.3265 27.1943H33.0612V28.8678H36.3265V27.1943Z" fill="black"/>
<path d="M6.93877 28.8672H3.67346V30.5407H6.93877V28.8672Z" fill="black"/>
<path d="M18.3673 28.8672H11.8367V30.5407H18.3673V28.8672Z" fill="black"/>
<path d="M26.5306 28.8672H23.2653V30.5407H26.5306V28.8672Z" fill="black"/>
<path d="M36.3265 28.8672H31.4286V30.5407H36.3265V28.8672Z" fill="black"/>
<path d="M6.93877 30.541H3.67346V32.2145H6.93877V30.541Z" fill="black"/>
<path d="M21.6326 30.541H8.57141V32.2145H21.6326V30.541Z" fill="black"/>
<path d="M26.5306 30.541H23.2653V32.2145H26.5306V30.541Z" fill="black"/>
<path d="M36.3265 30.541H28.1633V32.2145H36.3265V30.541Z" fill="black"/>
<path d="M34.6939 32.2139H3.67346V33.8873H34.6939V32.2139Z" fill="black"/>
<path d="M11.8367 33.8877H3.67346V35.5612H11.8367V33.8877Z" fill="black"/>
<path d="M31.4286 33.8877H18.3674V35.5612H31.4286V33.8877Z" fill="black"/>
<path d="M28.1632 35.5615H21.6326V37.235H28.1632V35.5615Z" fill="black"/>
</svg>
