<svg width="41" height="40" viewBox="0 0 41 40" fill="none" xmlns="http://www.w3.org/2000/svg">
<path d="M35.5612 2.04102H28.8673V3.67367H35.5612V2.04102Z" fill="black"/>
<path d="M37.2347 3.67383H27.1938V5.30648H37.2347V3.67383Z" fill="black"/>
<path d="M30.5408 5.30566H25.5204V6.93832H30.5408V5.30566Z" fill="black"/>
<path d="M38.9081 5.30566H33.8877V6.93832H38.9081V5.30566Z" fill="black"/>
<path d="M28.8673 6.93848H23.8469V8.57113H28.8673V6.93848Z" fill="black"/>
<path d="M38.9082 6.93848H35.5613V8.57113H38.9082V6.93848Z" fill="black"/>
<path d="M28.8673 8.57129H22.1735V10.2039H28.8673V8.57129Z" fill="black"/>
<path d="M38.9082 8.57129H35.5613V10.2039H38.9082V8.57129Z" fill="black"/>
<path d="M30.5408 10.2041H20.5V11.8368H30.5408V10.2041Z" fill="black"/>
<path d="M38.9081 10.2041H33.8877V11.8368H38.9081V10.2041Z" fill="black"/>
<path d="M23.8469 11.8369H18.8265V13.4696H23.8469V11.8369Z" fill="black"/>
<path d="M37.2347 11.8369H27.1938V13.4696H37.2347V11.8369Z" fill="black"/>
<path d="M22.1735 13.4697H17.1531V15.1024H22.1735V13.4697Z" fill="black"/>
<path d="M35.5612 13.4697H28.8673V15.1024H35.5612V13.4697Z" fill="black"/>
<path d="M20.5 15.1016H15.4796V16.7342H20.5V15.1016Z" fill="black"/>
<path d="M33.8877 15.1016H28.8673V16.7342H33.8877V15.1016Z" fill="black"/>
<path d="M18.8266 16.7344H13.8062V18.367H18.8266V16.7344Z" fill="black"/>
<path d="M32.2143 16.7344H27.1938V18.367H32.2143V16.7344Z" fill="black"/>
<path d="M17.1531 18.3672H12.1327V19.9998H17.1531V18.3672Z" fill="black"/>
<path d="M30.5408 18.3672H25.5204V19.9998H30.5408V18.3672Z" fill="black"/>
<path d="M15.4796 20H10.4592V21.6327H15.4796V20Z" fill="black"/>
<path d="M28.8673 20H23.8469V21.6327H28.8673V20Z" fill="black"/>
<path d="M13.8062 21.6328H8.78577V23.2655H13.8062V21.6328Z" fill="black"/>
<path d="M27.1939 21.6328H22.1735V23.2655H27.1939V21.6328Z" fill="black"/>
<path d="M12.1327 23.2656H7.1123V24.8983H12.1327V23.2656Z" fill="black"/>
<path d="M25.5204 23.2656H20.5V24.8983H25.5204V23.2656Z" fill="black"/>
<path d="M10.4591 24.8984H5.43872V26.5311H10.4591V24.8984Z" fill="black"/>
<path d="M23.8469 24.8984H18.8265V26.5311H23.8469V24.8984Z" fill="black"/>
<path d="M8.78567 26.5303H3.76526V28.1629H8.78567V26.5303Z" fill="black"/>
<path d="M22.1735 26.5303H17.1531V28.1629H22.1735V26.5303Z" fill="black"/>
<path d="M7.1122 28.1631H3.76526V29.7957H7.1122V28.1631Z" fill="black"/>
<path d="M20.5 28.1631H15.4796V29.7957H20.5V28.1631Z" fill="black"/>
<path d="M7.1122 29.7959H3.76526V31.4286H7.1122V29.7959Z" fill="black"/>
<path d="M18.8266 29.7959H13.8062V31.4286H18.8266V29.7959Z" fill="black"/>
<path d="M7.11221 31.4287H2.0918V33.0614H7.11221V31.4287Z" fill="black"/>
<path d="M17.1531 31.4287H12.1327V33.0614H17.1531V31.4287Z" fill="black"/>
<path d="M15.4796 33.0615H2.0918V34.6942H15.4796V33.0615Z" fill="black"/>
<path d="M13.8061 34.6943H2.0918V36.327H13.8061V34.6943Z" fill="black"/>
<path d="M8.78567 36.3262H2.0918V37.9588H8.78567V36.3262Z" fill="black"/>
</svg>
