<svg width="41" height="40" viewBox="0 0 41 40" fill="none" xmlns="http://www.w3.org/2000/svg">
<path d="M13.8061 3.67383H7.11224V5.30648H13.8061V3.67383Z" fill="black"/>
<path d="M15.4796 5.30566H5.43878V6.93832H15.4796V5.30566Z" fill="black"/>
<path d="M35.5612 5.30566H32.2143V6.93832H35.5612V5.30566Z" fill="black"/>
<path d="M8.78573 6.93848H3.76532V8.57113H8.78573V6.93848Z" fill="black"/>
<path d="M17.153 6.93848H12.1326V8.57113H17.153V6.93848Z" fill="black"/>
<path d="M35.5612 6.93848H30.5408V8.57113H35.5612V6.93848Z" fill="black"/>
<path d="M7.11226 8.57129H3.76532V10.2039H7.11226V8.57129Z" fill="black"/>
<path d="M17.1531 8.57129H13.8062V10.2039H17.1531V8.57129Z" fill="black"/>
<path d="M33.8878 8.57129H28.8674V10.2039H33.8878V8.57129Z" fill="black"/>
<path d="M7.11226 10.2041H3.76532V11.8368H7.11226V10.2041Z" fill="black"/>
<path d="M17.1531 10.2041H13.8062V11.8368H17.1531V10.2041Z" fill="black"/>
<path d="M32.2143 10.2041H27.1938V11.8368H32.2143V10.2041Z" fill="black"/>
<path d="M8.78573 11.8369H3.76532V13.4696H8.78573V11.8369Z" fill="black"/>
<path d="M17.153 11.8369H12.1326V13.4696H17.153V11.8369Z" fill="black"/>
<path d="M30.5408 11.8369H25.5204V13.4696H30.5408V11.8369Z" fill="black"/>
<path d="M17.1531 13.4697H5.43878V15.1024H17.1531V13.4697Z" fill="black"/>
<path d="M28.8673 13.4697H23.8469V15.1024H28.8673V13.4697Z" fill="black"/>
<path d="M18.8265 15.1016H7.11224V16.7342H18.8265V15.1016Z" fill="black"/>
<path d="M27.1939 15.1016H22.1735V16.7342H27.1939V15.1016Z" fill="black"/>
<path d="M25.5204 16.7344H15.4796V18.367H25.5204V16.7344Z" fill="black"/>
<path d="M23.847 18.3672H17.1531V19.9998H23.847V18.3672Z" fill="black"/>
<path d="M22.1735 20H17.1531V21.6327H22.1735V20Z" fill="black"/>
<path d="M20.5 21.6328H15.4796V23.2655H20.5V21.6328Z" fill="black"/>
<path d="M18.8265 23.2656H7.11224V24.8983H18.8265V23.2656Z" fill="black"/>
<path d="M27.1939 23.2656H23.8469V24.8983H27.1939V23.2656Z" fill="black"/>
<path d="M17.1531 24.8984H5.43878V26.5311H17.1531V24.8984Z" fill="black"/>
<path d="M28.8673 24.8984H23.8469V26.5311H28.8673V24.8984Z" fill="black"/>
<path d="M8.78573 26.5303H3.76532V28.1629H8.78573V26.5303Z" fill="black"/>
<path d="M17.153 26.5303H12.1326V28.1629H17.153V26.5303Z" fill="black"/>
<path d="M30.5408 26.5303H25.5204V28.1629H30.5408V26.5303Z" fill="black"/>
<path d="M7.11226 28.1631H3.76532V29.7957H7.11226V28.1631Z" fill="black"/>
<path d="M17.1531 28.1631H13.8062V29.7957H17.1531V28.1631Z" fill="black"/>
<path d="M32.2143 28.1631H27.1938V29.7957H32.2143V28.1631Z" fill="black"/>
<path d="M7.11226 29.7959H3.76532V31.4286H7.11226V29.7959Z" fill="black"/>
<path d="M17.1531 29.7959H13.8062V31.4286H17.1531V29.7959Z" fill="black"/>
<path d="M33.8878 29.7959H28.8674V31.4286H33.8878V29.7959Z" fill="black"/>
<path d="M8.78573 31.4287H3.76532V33.0614H8.78573V31.4287Z" fill="black"/>
<path d="M17.153 31.4287H12.1326V33.0614H17.153V31.4287Z" fill="black"/>
<path d="M35.5612 31.4287H30.5408V33.0614H35.5612V31.4287Z" fill="black"/>
<path d="M15.4796 33.0615H5.43878V34.6942H15.4796V33.0615Z" fill="black"/>
<path d="M35.5612 33.0615H32.2143V34.6942H35.5612V33.0615Z" fill="black"/>
<path d="M13.8061 34.6943H7.11224V36.327H13.8061V34.6943Z" fill="black"/>
</svg>
