<svg width="41" height="40" viewBox="0 0 41 40" fill="none" xmlns="http://www.w3.org/2000/svg">
<path d="M23.847 3.67383H13.8062V5.30648H23.847V3.67383Z" fill="black"/>
<path d="M27.1939 5.30566H10.4592V6.93832H27.1939V5.30566Z" fill="black"/>
<path d="M15.4796 6.93848H8.78577V8.57113H15.4796V6.93848Z" fill="black"/>
<path d="M28.8673 6.93848H22.1735V8.57113H28.8673V6.93848Z" fill="black"/>
<path d="M12.1327 8.57129H7.1123V10.2039H12.1327V8.57129Z" fill="black"/>
<path d="M30.5408 8.57129H25.5204V10.2039H30.5408V8.57129Z" fill="black"/>
<path d="M10.4591 10.2041H5.43872V11.8368H10.4591V10.2041Z" fill="black"/>
<path d="M32.2143 10.2041H27.1938V11.8368H32.2143V10.2041Z" fill="black"/>
<path d="M8.78566 11.8369H5.43872V13.4696H8.78566V11.8369Z" fill="black"/>
<path d="M32.2142 11.8369H28.8673V13.4696H32.2142V11.8369Z" fill="black"/>
<path d="M8.78567 13.4697H3.76526V15.1024H8.78567V13.4697Z" fill="black"/>
<path d="M33.8877 13.4697H28.8673V15.1024H33.8877V13.4697Z" fill="black"/>
<path d="M7.1122 15.1016H3.76526V16.7342H7.1122V15.1016Z" fill="black"/>
<path d="M33.8877 15.1016H30.5408V16.7342H33.8877V15.1016Z" fill="black"/>
<path d="M7.1122 16.7344H3.76526V18.367H7.1122V16.7344Z" fill="black"/>
<path d="M33.8877 16.7344H30.5408V18.367H33.8877V16.7344Z" fill="black"/>
<path d="M7.1122 18.3672H3.76526V19.9998H7.1122V18.3672Z" fill="black"/>
<path d="M33.8877 18.3672H30.5408V19.9998H33.8877V18.3672Z" fill="black"/>
<path d="M7.1122 20H3.76526V21.6327H7.1122V20Z" fill="black"/>
<path d="M33.8877 20H30.5408V21.6327H33.8877V20Z" fill="black"/>
<path d="M8.78567 21.6328H3.76526V23.2655H8.78567V21.6328Z" fill="black"/>
<path d="M33.8877 21.6328H28.8673V23.2655H33.8877V21.6328Z" fill="black"/>
<path d="M8.78566 23.2656H5.43872V24.8983H8.78566V23.2656Z" fill="black"/>
<path d="M32.2142 23.2656H28.8673V24.8983H32.2142V23.2656Z" fill="black"/>
<path d="M10.4591 24.8984H5.43872V26.5311H10.4591V24.8984Z" fill="black"/>
<path d="M32.2143 24.8984H27.1938V26.5311H32.2143V24.8984Z" fill="black"/>
<path d="M12.1327 26.5303H7.1123V28.1629H12.1327V26.5303Z" fill="black"/>
<path d="M30.5408 26.5303H25.5204V28.1629H30.5408V26.5303Z" fill="black"/>
<path d="M15.4796 28.1631H8.78577V29.7957H15.4796V28.1631Z" fill="black"/>
<path d="M32.2143 28.1631H22.1735V29.7957H32.2143V28.1631Z" fill="black"/>
<path d="M27.1939 29.7959H10.4592V31.4286H27.1939V29.7959Z" fill="black"/>
<path d="M33.8877 29.7959H28.8673V31.4286H33.8877V29.7959Z" fill="black"/>
<path d="M23.847 31.4287H13.8062V33.0614H23.847V31.4287Z" fill="black"/>
<path d="M35.5612 31.4287H30.5408V33.0614H35.5612V31.4287Z" fill="black"/>
<path d="M37.2346 33.0615H32.2142V34.6942H37.2346V33.0615Z" fill="black"/>
<path d="M37.2346 34.6943H33.8877V36.327H37.2346V34.6943Z" fill="black"/>
</svg>
