<svg width="40" height="40" viewBox="0 0 40 40" fill="none" xmlns="http://www.w3.org/2000/svg">
<path d="M23.2653 2.04102H16.7347V3.67367H23.2653V2.04102Z" fill="black"/>
<path d="M24.898 3.67383H15.1021V5.30648H24.898V3.67383Z" fill="black"/>
<path d="M18.3674 5.30566H15.1021V6.93832H18.3674V5.30566Z" fill="black"/>
<path d="M24.8979 5.30566H21.6326V6.93832H24.8979V5.30566Z" fill="black"/>
<path d="M18.3673 6.93848H13.4694V8.57113H18.3673V6.93848Z" fill="black"/>
<path d="M26.5306 6.93848H21.6326V8.57113H26.5306V6.93848Z" fill="black"/>
<path d="M16.7347 8.57129H5.30615V10.2039H16.7347V8.57129Z" fill="black"/>
<path d="M34.6939 8.57129H23.2653V10.2039H34.6939V8.57129Z" fill="black"/>
<path d="M16.7347 10.2041H3.67346V11.8368H16.7347V10.2041Z" fill="black"/>
<path d="M36.3265 10.2041H23.2653V11.8368H36.3265V10.2041Z" fill="black"/>
<path d="M6.93877 11.8369H3.67346V13.4696H6.93877V11.8369Z" fill="black"/>
<path d="M36.3265 11.8369H33.0612V13.4696H36.3265V11.8369Z" fill="black"/>
<path d="M6.93877 13.4697H3.67346V15.1024H6.93877V13.4697Z" fill="black"/>
<path d="M23.2653 13.4697H16.7347V15.1024H23.2653V13.4697Z" fill="black"/>
<path d="M36.3265 13.4697H33.0612V15.1024H36.3265V13.4697Z" fill="black"/>
<path d="M8.57142 15.1016H3.67346V16.7342H8.57142V15.1016Z" fill="black"/>
<path d="M24.898 15.1016H15.1021V16.7342H24.898V15.1016Z" fill="black"/>
<path d="M36.3265 15.1016H31.4286V16.7342H36.3265V15.1016Z" fill="black"/>
<path d="M10.2041 16.7344H5.30615V18.367H10.2041V16.7344Z" fill="black"/>
<path d="M18.3673 16.7344H13.4694V18.367H18.3673V16.7344Z" fill="black"/>
<path d="M26.5306 16.7344H21.6326V18.367H26.5306V16.7344Z" fill="black"/>
<path d="M34.6939 16.7344H29.7959V18.367H34.6939V16.7344Z" fill="black"/>
<path d="M10.2041 18.3672H6.93878V19.9998H10.2041V18.3672Z" fill="black"/>
<path d="M16.7347 18.3672H13.4694V19.9998H16.7347V18.3672Z" fill="black"/>
<path d="M26.5306 18.3672H23.2653V19.9998H26.5306V18.3672Z" fill="black"/>
<path d="M33.0612 18.3672H29.7959V19.9998H33.0612V18.3672Z" fill="black"/>
<path d="M10.2041 20H6.93878V21.6327H10.2041V20Z" fill="black"/>
<path d="M16.7347 20H13.4694V21.6327H16.7347V20Z" fill="black"/>
<path d="M26.5306 20H23.2653V21.6327H26.5306V20Z" fill="black"/>
<path d="M33.0612 20H29.7959V21.6327H33.0612V20Z" fill="black"/>
<path d="M10.2041 21.6328H5.30615V23.2655H10.2041V21.6328Z" fill="black"/>
<path d="M18.3673 21.6328H13.4694V23.2655H18.3673V21.6328Z" fill="black"/>
<path d="M26.5306 21.6328H21.6326V23.2655H26.5306V21.6328Z" fill="black"/>
<path d="M34.6939 21.6328H29.7959V23.2655H34.6939V21.6328Z" fill="black"/>
<path d="M8.57142 23.2656H3.67346V24.8983H8.57142V23.2656Z" fill="black"/>
<path d="M24.898 23.2656H15.1021V24.8983H24.898V23.2656Z" fill="black"/>
<path d="M36.3265 23.2656H31.4286V24.8983H36.3265V23.2656Z" fill="black"/>
<path d="M6.93877 24.8984H3.67346V26.5311H6.93877V24.8984Z" fill="black"/>
<path d="M23.2653 24.8984H16.7347V26.5311H23.2653V24.8984Z" fill="black"/>
<path d="M36.3265 24.8984H33.0612V26.5311H36.3265V24.8984Z" fill="black"/>
<path d="M6.93877 26.5303H3.67346V28.1629H6.93877V26.5303Z" fill="black"/>
<path d="M36.3265 26.5303H33.0612V28.1629H36.3265V26.5303Z" fill="black"/>
<path d="M16.7347 28.1631H3.67346V29.7957H16.7347V28.1631Z" fill="black"/>
<path d="M36.3265 28.1631H23.2653V29.7957H36.3265V28.1631Z" fill="black"/>
<path d="M16.7347 29.7959H5.30615V31.4286H16.7347V29.7959Z" fill="black"/>
<path d="M34.6939 29.7959H23.2653V31.4286H34.6939V29.7959Z" fill="black"/>
<path d="M18.3673 31.4287H13.4694V33.0614H18.3673V31.4287Z" fill="black"/>
<path d="M26.5306 31.4287H21.6326V33.0614H26.5306V31.4287Z" fill="black"/>
<path d="M18.3674 33.0615H15.1021V34.6942H18.3674V33.0615Z" fill="black"/>
<path d="M24.8979 33.0615H21.6326V34.6942H24.8979V33.0615Z" fill="black"/>
<path d="M24.898 34.6943H15.1021V36.327H24.898V34.6943Z" fill="black"/>
<path d="M23.2653 36.3262H16.7347V37.9588H23.2653V36.3262Z" fill="black"/>
</svg>
