<svg width="41" height="40" viewBox="0 0 41 40" fill="none" xmlns="http://www.w3.org/2000/svg">
<path d="M15.4796 5.30566H8.78577V6.93832H15.4796V5.30566Z" fill="black"/>
<path d="M17.1531 6.93848H7.1123V8.57113H17.1531V6.93848Z" fill="black"/>
<path d="M10.4591 8.57129H5.43872V10.2039H10.4591V8.57129Z" fill="black"/>
<path d="M18.8266 8.57129H13.8062V10.2039H18.8266V8.57129Z" fill="black"/>
<path d="M8.78566 10.2041H5.43872V11.8368H8.78566V10.2041Z" fill="black"/>
<path d="M33.8878 10.2041H15.4796V11.8368H33.8878V10.2041Z" fill="black"/>
<path d="M8.78566 11.8369H5.43872V13.4696H8.78566V11.8369Z" fill="black"/>
<path d="M33.8878 11.8369H15.4796V13.4696H33.8878V11.8369Z" fill="black"/>
<path d="M10.4591 13.4697H5.43872V15.1024H10.4591V13.4697Z" fill="black"/>
<path d="M18.8266 13.4697H13.8062V15.1024H18.8266V13.4697Z" fill="black"/>
<path d="M17.1531 15.1016H7.1123V16.7342H17.1531V15.1016Z" fill="black"/>
<path d="M15.4796 16.7344H8.78577V18.367H15.4796V16.7344Z" fill="black"/>
<path d="M32.2143 21.6328H25.5204V23.2655H32.2143V21.6328Z" fill="black"/>
<path d="M33.8877 23.2656H23.8469V24.8983H33.8877V23.2656Z" fill="black"/>
<path d="M27.1939 24.8984H22.1735V26.5311H27.1939V24.8984Z" fill="black"/>
<path d="M35.5612 24.8984H30.5408V26.5311H35.5612V24.8984Z" fill="black"/>
<path d="M25.5205 26.5303H7.1123V28.1629H25.5205V26.5303Z" fill="black"/>
<path d="M35.5612 26.5303H32.2142V28.1629H35.5612V26.5303Z" fill="black"/>
<path d="M25.5205 28.1631H7.1123V29.7957H25.5205V28.1631Z" fill="black"/>
<path d="M35.5612 28.1631H32.2142V29.7957H35.5612V28.1631Z" fill="black"/>
<path d="M27.1939 29.7959H22.1735V31.4286H27.1939V29.7959Z" fill="black"/>
<path d="M35.5612 29.7959H30.5408V31.4286H35.5612V29.7959Z" fill="black"/>
<path d="M33.8877 31.4287H23.8469V33.0614H33.8877V31.4287Z" fill="black"/>
<path d="M32.2143 33.0615H25.5204V34.6942H32.2143V33.0615Z" fill="black"/>
</svg>
