<svg width="40" height="40" viewBox="0 0 40 40" fill="none" xmlns="http://www.w3.org/2000/svg">
<path d="M33.0613 2.04102H26.5306V3.67367H33.0613V2.04102Z" fill="black"/>
<path d="M34.6939 3.67383H24.8979V5.30648H34.6939V3.67383Z" fill="black"/>
<path d="M28.1633 5.30566H23.2653V6.93832H28.1633V5.30566Z" fill="black"/>
<path d="M36.3265 5.30566H31.4286V6.93832H36.3265V5.30566Z" fill="black"/>
<path d="M26.5306 6.93848H23.2653V8.57113H26.5306V6.93848Z" fill="black"/>
<path d="M36.3265 6.93848H33.0612V8.57113H36.3265V6.93848Z" fill="black"/>
<path d="M26.5306 8.57129H23.2653V10.2039H26.5306V8.57129Z" fill="black"/>
<path d="M36.3265 8.57129H33.0612V10.2039H36.3265V8.57129Z" fill="black"/>
<path d="M28.1632 10.2041H21.6326V11.8368H28.1632V10.2041Z" fill="black"/>
<path d="M36.3265 10.2041H31.4286V11.8368H36.3265V10.2041Z" fill="black"/>
<path d="M34.6939 11.8369H18.3674V13.4696H34.6939V11.8369Z" fill="black"/>
<path d="M13.4694 13.4697H6.93878V15.1024H13.4694V13.4697Z" fill="black"/>
<path d="M23.2653 13.4697H16.7347V15.1024H23.2653V13.4697Z" fill="black"/>
<path d="M33.0613 13.4697H26.5306V15.1024H33.0613V13.4697Z" fill="black"/>
<path d="M21.6327 15.1016H5.30615V16.7342H21.6327V15.1016Z" fill="black"/>
<path d="M8.57142 16.7344H3.67346V18.367H8.57142V16.7344Z" fill="black"/>
<path d="M18.3673 16.7344H11.8367V18.367H18.3673V16.7344Z" fill="black"/>
<path d="M6.93877 18.3672H3.67346V19.9998H6.93877V18.3672Z" fill="black"/>
<path d="M16.7347 18.3672H13.4694V19.9998H16.7347V18.3672Z" fill="black"/>
<path d="M6.93877 20H3.67346V21.6327H6.93877V20Z" fill="black"/>
<path d="M16.7347 20H13.4694V21.6327H16.7347V20Z" fill="black"/>
<path d="M8.57142 21.6328H3.67346V23.2655H8.57142V21.6328Z" fill="black"/>
<path d="M18.3673 21.6328H11.8367V23.2655H18.3673V21.6328Z" fill="black"/>
<path d="M21.6327 23.2656H5.30615V24.8983H21.6327V23.2656Z" fill="black"/>
<path d="M13.4694 24.8984H6.93878V26.5311H13.4694V24.8984Z" fill="black"/>
<path d="M23.2653 24.8984H16.7347V26.5311H23.2653V24.8984Z" fill="black"/>
<path d="M33.0613 24.8984H26.5306V26.5311H33.0613V24.8984Z" fill="black"/>
<path d="M34.6939 26.5303H18.3674V28.1629H34.6939V26.5303Z" fill="black"/>
<path d="M28.1632 28.1631H21.6326V29.7957H28.1632V28.1631Z" fill="black"/>
<path d="M36.3265 28.1631H31.4286V29.7957H36.3265V28.1631Z" fill="black"/>
<path d="M26.5306 29.7959H23.2653V31.4286H26.5306V29.7959Z" fill="black"/>
<path d="M36.3265 29.7959H33.0612V31.4286H36.3265V29.7959Z" fill="black"/>
<path d="M26.5306 31.4287H23.2653V33.0614H26.5306V31.4287Z" fill="black"/>
<path d="M36.3265 31.4287H33.0612V33.0614H36.3265V31.4287Z" fill="black"/>
<path d="M28.1633 33.0615H23.2653V34.6942H28.1633V33.0615Z" fill="black"/>
<path d="M36.3265 33.0615H31.4286V34.6942H36.3265V33.0615Z" fill="black"/>
<path d="M34.6939 34.6943H24.8979V36.327H34.6939V34.6943Z" fill="black"/>
<path d="M33.0613 36.3262H26.5306V37.9588H33.0613V36.3262Z" fill="black"/>
</svg>
