<svg width="40" height="41" viewBox="0 0 40 41" fill="none" xmlns="http://www.w3.org/2000/svg">
<path d="M21.6327 2.0918H18.3674V3.76527H21.6327V2.0918Z" fill="black"/>
<path d="M34.6939 2.0918H31.4286V3.76527H34.6939V2.0918Z" fill="black"/>
<path d="M23.2653 3.76562H16.7347V5.43909H23.2653V3.76562Z" fill="black"/>
<path d="M34.6939 3.76562H31.4286V5.43909H34.6939V3.76562Z" fill="black"/>
<path d="M23.2653 5.43848H16.7347V7.11195H23.2653V5.43848Z" fill="black"/>
<path d="M37.9592 5.43848H28.1633V7.11195H37.9592V5.43848Z" fill="black"/>
<path d="M23.2653 7.1123H16.7347V8.78577H23.2653V7.1123Z" fill="black"/>
<path d="M37.9592 7.1123H28.1633V8.78577H37.9592V7.1123Z" fill="black"/>
<path d="M24.898 8.78613H15.1021V10.4596H24.898V8.78613Z" fill="black"/>
<path d="M34.6939 8.78613H31.4286V10.4596H34.6939V8.78613Z" fill="black"/>
<path d="M18.3674 10.459H15.1021V12.1325H18.3674V10.459Z" fill="black"/>
<path d="M24.8979 10.459H21.6326V12.1325H24.8979V10.459Z" fill="black"/>
<path d="M34.6939 10.459H31.4286V12.1325H34.6939V10.459Z" fill="black"/>
<path d="M18.3674 12.1328H15.1021V13.8063H18.3674V12.1328Z" fill="black"/>
<path d="M24.8979 12.1328H21.6326V13.8063H24.8979V12.1328Z" fill="black"/>
<path d="M18.3674 13.8057H15.1021V15.4791H18.3674V13.8057Z" fill="black"/>
<path d="M24.8979 13.8057H21.6326V15.4791H24.8979V13.8057Z" fill="black"/>
<path d="M18.3673 15.4795H8.57141V17.153H18.3673V15.4795Z" fill="black"/>
<path d="M31.4285 15.4795H21.6326V17.153H31.4285V15.4795Z" fill="black"/>
<path d="M16.7347 17.1533H3.67346V18.8268H16.7347V17.1533Z" fill="black"/>
<path d="M36.3265 17.1533H23.2653V18.8268H36.3265V17.1533Z" fill="black"/>
<path d="M10.2041 18.8262H2.04083V20.4996H10.2041V18.8262Z" fill="black"/>
<path d="M37.9592 18.8262H29.7959V20.4996H37.9592V18.8262Z" fill="black"/>
<path d="M10.2041 20.5H2.04083V22.1735H10.2041V20.5Z" fill="black"/>
<path d="M37.9592 20.5H29.7959V22.1735H37.9592V20.5Z" fill="black"/>
<path d="M16.7347 22.1738H3.67346V23.8473H16.7347V22.1738Z" fill="black"/>
<path d="M36.3265 22.1738H23.2653V23.8473H36.3265V22.1738Z" fill="black"/>
<path d="M18.3673 23.8467H8.57141V25.5201H18.3673V23.8467Z" fill="black"/>
<path d="M31.4285 23.8467H21.6326V25.5201H31.4285V23.8467Z" fill="black"/>
<path d="M18.3674 25.5205H15.1021V27.194H18.3674V25.5205Z" fill="black"/>
<path d="M24.8979 25.5205H21.6326V27.194H24.8979V25.5205Z" fill="black"/>
<path d="M18.3674 27.1943H15.1021V28.8678H18.3674V27.1943Z" fill="black"/>
<path d="M24.8979 27.1943H21.6326V28.8678H24.8979V27.1943Z" fill="black"/>
<path d="M10.2041 28.8672H3.67346V30.5407H10.2041V28.8672Z" fill="black"/>
<path d="M18.3674 28.8672H15.1021V30.5407H18.3674V28.8672Z" fill="black"/>
<path d="M24.8979 28.8672H21.6326V30.5407H24.8979V28.8672Z" fill="black"/>
<path d="M11.8368 30.541H2.04083V32.2145H11.8368V30.541Z" fill="black"/>
<path d="M24.898 30.541H15.1021V32.2145H24.898V30.541Z" fill="black"/>
<path d="M5.30614 32.2139H2.04083V33.8873H5.30614V32.2139Z" fill="black"/>
<path d="M11.8367 32.2139H8.57141V33.8873H11.8367V32.2139Z" fill="black"/>
<path d="M23.2653 32.2139H16.7347V33.8873H23.2653V32.2139Z" fill="black"/>
<path d="M5.30614 33.8877H2.04083V35.5612H5.30614V33.8877Z" fill="black"/>
<path d="M11.8367 33.8877H8.57141V35.5612H11.8367V33.8877Z" fill="black"/>
<path d="M23.2653 33.8877H16.7347V35.5612H23.2653V33.8877Z" fill="black"/>
<path d="M11.8368 35.5615H2.04083V37.235H11.8368V35.5615Z" fill="black"/>
<path d="M23.2653 35.5615H16.7347V37.235H23.2653V35.5615Z" fill="black"/>
<path d="M10.2041 37.2344H3.67346V38.9078H10.2041V37.2344Z" fill="black"/>
<path d="M21.6327 37.2344H18.3674V38.9078H21.6327V37.2344Z" fill="black"/>
</svg>
