<svg width="41" height="41" viewBox="0 0 41 41" fill="none" xmlns="http://www.w3.org/2000/svg">
<path d="M22.1735 2.0918H18.8265V3.76527H22.1735V2.0918Z" fill="black"/>
<path d="M23.847 3.76562H17.1531V5.43909H23.847V3.76562Z" fill="black"/>
<path d="M23.847 5.43848H17.1531V7.11195H23.847V5.43848Z" fill="black"/>
<path d="M25.5204 7.1123H15.4796V8.78577H25.5204V7.1123Z" fill="black"/>
<path d="M18.8266 8.78613H15.4796V10.4596H18.8266V8.78613Z" fill="black"/>
<path d="M25.5204 8.78613H22.1735V10.4596H25.5204V8.78613Z" fill="black"/>
<path d="M18.8266 10.459H13.8062V12.1325H18.8266V10.459Z" fill="black"/>
<path d="M27.1939 10.459H22.1735V12.1325H27.1939V10.459Z" fill="black"/>
<path d="M17.1531 12.1328H7.1123V13.8063H17.1531V12.1328Z" fill="black"/>
<path d="M33.8877 12.1328H23.8469V13.8063H33.8877V12.1328Z" fill="black"/>
<path d="M15.4796 13.8057H2.0918V15.4791H15.4796V13.8057Z" fill="black"/>
<path d="M38.9081 13.8057H25.5204V15.4791H38.9081V13.8057Z" fill="black"/>
<path d="M10.4591 15.4795H2.0918V17.153H10.4591V15.4795Z" fill="black"/>
<path d="M38.9081 15.4795H30.5408V17.153H38.9081V15.4795Z" fill="black"/>
<path d="M7.11221 17.1533H2.0918V18.8268H7.11221V17.1533Z" fill="black"/>
<path d="M38.9081 17.1533H33.8877V18.8268H38.9081V17.1533Z" fill="black"/>
<path d="M10.4591 18.8262H3.76526V20.4996H10.4591V18.8262Z" fill="black"/>
<path d="M37.2346 18.8262H30.5408V20.4996H37.2346V18.8262Z" fill="black"/>
<path d="M12.1326 20.5H5.43872V22.1735H12.1326V20.5Z" fill="black"/>
<path d="M35.5612 20.5H28.8673V22.1735H35.5612V20.5Z" fill="black"/>
<path d="M12.1327 22.1738H7.1123V23.8473H12.1327V22.1738Z" fill="black"/>
<path d="M33.8877 22.1738H28.8673V23.8473H33.8877V22.1738Z" fill="black"/>
<path d="M13.8062 23.8467H8.78577V25.5201H13.8062V23.8467Z" fill="black"/>
<path d="M32.2143 23.8467H27.1938V25.5201H32.2143V23.8467Z" fill="black"/>
<path d="M13.8062 25.5205H8.78577V27.194H13.8062V25.5205Z" fill="black"/>
<path d="M32.2143 25.5205H27.1938V27.194H32.2143V25.5205Z" fill="black"/>
<path d="M12.1327 27.1943H8.78577V28.8678H12.1327V27.1943Z" fill="black"/>
<path d="M32.2142 27.1943H28.8673V28.8678H32.2142V27.1943Z" fill="black"/>
<path d="M12.1327 28.8672H8.78577V30.5407H12.1327V28.8672Z" fill="black"/>
<path d="M22.1735 28.8672H18.8265V30.5407H22.1735V28.8672Z" fill="black"/>
<path d="M32.2142 28.8672H28.8673V30.5407H32.2142V28.8672Z" fill="black"/>
<path d="M12.1327 30.541H8.78577V32.2145H12.1327V30.541Z" fill="black"/>
<path d="M25.5204 30.541H15.4796V32.2145H25.5204V30.541Z" fill="black"/>
<path d="M32.2142 30.541H28.8673V32.2145H32.2142V30.541Z" fill="black"/>
<path d="M32.2143 32.2139H8.78577V33.8873H32.2143V32.2139Z" fill="black"/>
<path d="M17.1531 33.8877H8.78577V35.5612H17.1531V33.8877Z" fill="black"/>
<path d="M32.2143 33.8877H23.8469V35.5612H32.2143V33.8877Z" fill="black"/>
<path d="M13.8062 35.5615H8.78577V37.235H13.8062V35.5615Z" fill="black"/>
<path d="M32.2143 35.5615H27.1938V37.235H32.2143V35.5615Z" fill="black"/>
</svg>
