<svg width="41" height="40" viewBox="0 0 41 40" fill="none" xmlns="http://www.w3.org/2000/svg">
<path d="M27.1939 2.04102H13.8062V3.67367H27.1939V2.04102Z" fill="black"/>
<path d="M28.8674 3.67383H12.1327V5.30648H28.8674V3.67383Z" fill="black"/>
<path d="M15.4796 5.30566H12.1327V6.93832H15.4796V5.30566Z" fill="black"/>
<path d="M28.8673 5.30566H25.5204V6.93832H28.8673V5.30566Z" fill="black"/>
<path d="M15.4796 6.93848H12.1327V8.57113H15.4796V6.93848Z" fill="black"/>
<path d="M28.8673 6.93848H25.5204V8.57113H28.8673V6.93848Z" fill="black"/>
<path d="M37.2346 8.57129H3.76526V10.2039H37.2346V8.57129Z" fill="black"/>
<path d="M37.2346 10.2041H3.76526V11.8368H37.2346V10.2041Z" fill="black"/>
<path d="M10.4592 11.8369H7.1123V13.4696H10.4592V11.8369Z" fill="black"/>
<path d="M33.8877 11.8369H30.5408V13.4696H33.8877V11.8369Z" fill="black"/>
<path d="M10.4592 13.4697H7.1123V15.1024H10.4592V13.4697Z" fill="black"/>
<path d="M33.8877 13.4697H30.5408V15.1024H33.8877V13.4697Z" fill="black"/>
<path d="M10.4592 15.1016H7.1123V16.7342H10.4592V15.1016Z" fill="black"/>
<path d="M33.8877 15.1016H30.5408V16.7342H33.8877V15.1016Z" fill="black"/>
<path d="M10.4592 16.7344H7.1123V18.367H10.4592V16.7344Z" fill="black"/>
<path d="M18.8266 16.7344H15.4796V18.367H18.8266V16.7344Z" fill="black"/>
<path d="M25.5204 16.7344H22.1735V18.367H25.5204V16.7344Z" fill="black"/>
<path d="M33.8877 16.7344H30.5408V18.367H33.8877V16.7344Z" fill="black"/>
<path d="M10.4592 18.3672H7.1123V19.9998H10.4592V18.3672Z" fill="black"/>
<path d="M18.8266 18.3672H15.4796V19.9998H18.8266V18.3672Z" fill="black"/>
<path d="M25.5204 18.3672H22.1735V19.9998H25.5204V18.3672Z" fill="black"/>
<path d="M33.8877 18.3672H30.5408V19.9998H33.8877V18.3672Z" fill="black"/>
<path d="M10.4592 20H7.1123V21.6327H10.4592V20Z" fill="black"/>
<path d="M18.8266 20H15.4796V21.6327H18.8266V20Z" fill="black"/>
<path d="M25.5204 20H22.1735V21.6327H25.5204V20Z" fill="black"/>
<path d="M33.8877 20H30.5408V21.6327H33.8877V20Z" fill="black"/>
<path d="M10.4592 21.6328H7.1123V23.2655H10.4592V21.6328Z" fill="black"/>
<path d="M18.8266 21.6328H15.4796V23.2655H18.8266V21.6328Z" fill="black"/>
<path d="M25.5204 21.6328H22.1735V23.2655H25.5204V21.6328Z" fill="black"/>
<path d="M33.8877 21.6328H30.5408V23.2655H33.8877V21.6328Z" fill="black"/>
<path d="M10.4592 23.2656H7.1123V24.8983H10.4592V23.2656Z" fill="black"/>
<path d="M18.8266 23.2656H15.4796V24.8983H18.8266V23.2656Z" fill="black"/>
<path d="M25.5204 23.2656H22.1735V24.8983H25.5204V23.2656Z" fill="black"/>
<path d="M33.8877 23.2656H30.5408V24.8983H33.8877V23.2656Z" fill="black"/>
<path d="M10.4592 24.8984H7.1123V26.5311H10.4592V24.8984Z" fill="black"/>
<path d="M18.8266 24.8984H15.4796V26.5311H18.8266V24.8984Z" fill="black"/>
<path d="M25.5204 24.8984H22.1735V26.5311H25.5204V24.8984Z" fill="black"/>
<path d="M33.8877 24.8984H30.5408V26.5311H33.8877V24.8984Z" fill="black"/>
<path d="M10.4592 26.5303H7.1123V28.1629H10.4592V26.5303Z" fill="black"/>
<path d="M18.8266 26.5303H15.4796V28.1629H18.8266V26.5303Z" fill="black"/>
<path d="M25.5204 26.5303H22.1735V28.1629H25.5204V26.5303Z" fill="black"/>
<path d="M33.8877 26.5303H30.5408V28.1629H33.8877V26.5303Z" fill="black"/>
<path d="M10.4592 28.1631H7.1123V29.7957H10.4592V28.1631Z" fill="black"/>
<path d="M18.8266 28.1631H15.4796V29.7957H18.8266V28.1631Z" fill="black"/>
<path d="M25.5204 28.1631H22.1735V29.7957H25.5204V28.1631Z" fill="black"/>
<path d="M33.8877 28.1631H30.5408V29.7957H33.8877V28.1631Z" fill="black"/>
<path d="M10.4592 29.7959H7.1123V31.4286H10.4592V29.7959Z" fill="black"/>
<path d="M33.8877 29.7959H30.5408V31.4286H33.8877V29.7959Z" fill="black"/>
<path d="M10.4592 31.4287H7.1123V33.0614H10.4592V31.4287Z" fill="black"/>
<path d="M33.8877 31.4287H30.5408V33.0614H33.8877V31.4287Z" fill="black"/>
<path d="M10.4592 33.0615H7.1123V34.6942H10.4592V33.0615Z" fill="black"/>
<path d="M33.8877 33.0615H30.5408V34.6942H33.8877V33.0615Z" fill="black"/>
<path d="M33.8878 34.6943H7.1123V36.327H33.8878V34.6943Z" fill="black"/>
<path d="M32.2143 36.3262H8.78577V37.9588H32.2143V36.3262Z" fill="black"/>
</svg>
