<svg width="24" height="24" viewBox="0 0 24 24" fill="none" xmlns="http://www.w3.org/2000/svg">
<path d="M22 11.0001L20.704 9.70406C20.4809 9.47911 20.2154 9.30056 19.923 9.17872C19.6305 9.05687 19.3168 8.99414 19 8.99414C18.6832 8.99414 18.3695 9.05687 18.077 9.17872C17.7846 9.30056 17.5191 9.47911 17.296 9.70406L11 16.0001M4 8C3.46957 8 2.96086 8.21071 2.58579 8.58579C2.21071 8.96086 2 9.46957 2 10V20C2 20.5304 2.21071 21.0391 2.58579 21.4142C2.96086 21.7893 3.46957 22 4 22H14C14.5304 22 15.0391 21.7893 15.4142 21.4142C15.7893 21.0391 16 20.5304 16 20M14 7C14 7.55228 13.5523 8 13 8C12.4477 8 12 7.55228 12 7C12 6.44772 12.4477 6 13 6C13.5523 6 14 6.44772 14 7ZM10 2H20C21.1046 2 22 2.89543 22 4V14C22 15.1046 21.1046 16 20 16H10C8.89543 16 8 15.1046 8 14V4C8 2.89543 8.89543 2 10 2Z" stroke="black" stroke-width="2" stroke-linecap="round" stroke-linejoin="round"/>
</svg>
