<svg width="24" height="24" viewBox="0 0 24 24" fill="none" xmlns="http://www.w3.org/2000/svg">
<path d="M16 9C16.5044 9.67234 16.8311 10.461 16.95 11.293M19.364 5.63623C20.643 6.91449 21.5073 8.54839 21.8442 10.325C22.1812 12.1016 21.9752 13.9384 21.253 15.5962M2 2L22 22M7 7L6.413 7.587C6.2824 7.71838 6.12703 7.82253 5.95589 7.89342C5.78475 7.96432 5.60124 8.00054 5.416 8H3C2.73478 8 2.48043 8.10536 2.29289 8.29289C2.10536 8.48043 2 8.73478 2 9V15C2 15.2652 2.10536 15.5196 2.29289 15.7071C2.48043 15.8946 2.73478 16 3 16H5.416C5.60124 15.9995 5.78475 16.0357 5.95589 16.1066C6.12703 16.1775 6.2824 16.2816 6.413 16.413L9.796 19.797C9.8946 19.8958 10.0203 19.9631 10.1572 19.9904C10.2941 20.0177 10.436 20.0037 10.5649 19.9503C10.6939 19.8968 10.804 19.8063 10.8815 19.6902C10.959 19.5741 11.0002 19.4376 11 19.298V11M9.82788 4.17207C9.92377 4.07581 10.0461 4.0102 10.1793 3.98355C10.3125 3.95689 10.4507 3.9704 10.5762 4.02235C10.7017 4.0743 10.809 4.16235 10.8844 4.27535C10.9599 4.38835 11 4.52121 10.9999 4.65707V5.34307" stroke="black" stroke-width="2" stroke-linecap="round" stroke-linejoin="round"/>
</svg>
