<svg width="24" height="24" viewBox="0 0 24 24" fill="none" xmlns="http://www.w3.org/2000/svg">
<path d="M18.3119 19.7514C19.5788 18.7203 21.5 16.5 21.5 13.5H10.3901V2.5C7 2.5 5.18863 4.49351 4.17208 5.77211C3.15553 7.05071 2.46767 8.55886 2.16863 10.1647C1.8696 11.7706 1.96849 13.4252 2.45667 14.984C2.94485 16.5428 3.80745 17.9583 4.96906 19.1067C6.13066 20.2551 7.55591 21.1015 9.12018 21.5719C10.6845 22.0422 12.3401 22.1222 13.9425 21.8049C15.5448 21.4875 17.045 20.7825 18.3119 19.7514Z" fill="#DDDDDD" stroke="#1C1F21" stroke-width="2" stroke-linecap="round" stroke-linejoin="round"/>
<path d="M22.1443 10.0968C22.1941 10.5931 21.7845 10.9991 21.2855 10.9991L14.0525 11C13.8127 11 13.5828 10.9048 13.4132 10.7352C13.2437 10.5657 13.1484 10.3357 13.1484 10.0959V2.86301C13.1484 2.36394 13.5534 1.95437 14.0506 2.0041C16.1262 2.21208 18.0659 3.13147 19.541 4.60642C21.0162 6.08137 21.936 8.02112 22.1443 10.0968Z" fill="#DDDDDD" stroke="#1C1F21" stroke-width="2" stroke-linecap="round" stroke-linejoin="round"/>
</svg>
