<svg width="24" height="24" viewBox="0 0 24 24" fill="none" xmlns="http://www.w3.org/2000/svg">
<path d="M3 3V19C3 19.5304 3.21071 20.0391 3.58579 20.4142C3.96086 20.7893 4.46957 21 5 21H21" stroke="#1C1F21" stroke-width="2" stroke-linecap="round" stroke-linejoin="round"/>
<path d="M7.146 10.8539C7.05253 10.9476 7.00003 11.0746 7 11.2069V15.9999C7 16.2651 7.10536 16.5195 7.29289 16.707C7.48043 16.8946 7.73478 16.9999 8 16.9999H18C18.2652 16.9999 18.5196 16.8946 18.7071 16.707C18.8946 16.5195 19 16.2651 19 15.9999V8.20692C19 8.10799 18.9706 8.01128 18.9156 7.92905C18.8606 7.84681 18.7824 7.78274 18.691 7.74495C18.5996 7.70716 18.499 7.69734 18.402 7.71674C18.3049 7.73614 18.2159 7.78388 18.146 7.85393L13.854 12.1459C13.8076 12.1925 13.7524 12.2294 13.6916 12.2546C13.6309 12.2798 13.5658 12.2928 13.5 12.2928C13.4342 12.2928 13.3691 12.2798 13.3084 12.2546C13.2476 12.2294 13.1924 12.1925 13.146 12.1459L9.854 8.85393C9.80755 8.80736 9.75238 8.77042 9.69163 8.74521C9.63089 8.72001 9.56577 8.70703 9.5 8.70703C9.43423 8.70703 9.36911 8.72001 9.30837 8.74521C9.24762 8.77042 9.19245 8.80736 9.146 8.85393L7.146 10.8539Z" fill="#DDDDDD" stroke="#1C1F21" stroke-width="2" stroke-linecap="round" stroke-linejoin="round"/>
</svg>
