<svg width="41" height="41" viewBox="0 0 41 41" fill="none" xmlns="http://www.w3.org/2000/svg">
<path d="M17.1531 2.0918H13.8062V3.76527H17.1531V2.0918Z" fill="black"/>
<path d="M18.8266 3.76562H12.1327V5.43909H18.8266V3.76562Z" fill="black"/>
<path d="M18.8266 5.43848H12.1327V7.11195H18.8266V5.43848Z" fill="black"/>
<path d="M18.8266 7.1123H12.1327V8.78577H18.8266V7.1123Z" fill="black"/>
<path d="M18.8266 8.78613H12.1327V10.4596H18.8266V8.78613Z" fill="black"/>
<path d="M20.5 10.459H10.4592V12.1325H20.5V10.459Z" fill="black"/>
<path d="M13.8062 12.1328H10.4592V13.8063H13.8062V12.1328Z" fill="black"/>
<path d="M20.5 12.1328H17.1531V13.8063H20.5V12.1328Z" fill="black"/>
<path d="M13.8062 13.8057H10.4592V15.4791H13.8062V13.8057Z" fill="black"/>
<path d="M20.5 13.8057H17.1531V15.4791H20.5V13.8057Z" fill="black"/>
<path d="M13.8062 15.4795H10.4592V17.153H13.8062V15.4795Z" fill="black"/>
<path d="M20.5 15.4795H17.1531V17.153H20.5V15.4795Z" fill="black"/>
<path d="M13.8062 17.1533H8.78577V18.8268H13.8062V17.1533Z" fill="black"/>
<path d="M22.1735 17.1533H17.1531V18.8268H22.1735V17.1533Z" fill="black"/>
<path d="M12.1326 18.8262H2.0918V20.4996H12.1326V18.8262Z" fill="black"/>
<path d="M22.1735 18.8262H18.8265V20.4996H22.1735V18.8262Z" fill="black"/>
<path d="M38.9081 18.8262H30.5408V20.4996H38.9081V18.8262Z" fill="black"/>
<path d="M10.4591 20.5H2.0918V22.1735H10.4591V20.5Z" fill="black"/>
<path d="M22.1735 20.5H18.8265V22.1735H22.1735V20.5Z" fill="black"/>
<path d="M38.9081 20.5H28.8673V22.1735H38.9081V20.5Z" fill="black"/>
<path d="M23.8469 22.1738H18.8265V23.8473H23.8469V22.1738Z" fill="black"/>
<path d="M32.2143 22.1738H27.1938V23.8473H32.2143V22.1738Z" fill="black"/>
<path d="M23.8469 23.8467H20.5V25.5201H23.8469V23.8467Z" fill="black"/>
<path d="M30.5408 23.8467H27.1938V25.5201H30.5408V23.8467Z" fill="black"/>
<path d="M23.8469 25.5205H20.5V27.194H23.8469V25.5205Z" fill="black"/>
<path d="M30.5408 25.5205H27.1938V27.194H30.5408V25.5205Z" fill="black"/>
<path d="M23.8469 27.1943H20.5V28.8678H23.8469V27.1943Z" fill="black"/>
<path d="M30.5408 27.1943H27.1938V28.8678H30.5408V27.1943Z" fill="black"/>
<path d="M30.5408 28.8672H20.5V30.5407H30.5408V28.8672Z" fill="black"/>
<path d="M28.8673 30.541H22.1735V32.2145H28.8673V30.541Z" fill="black"/>
<path d="M28.8673 32.2139H22.1735V33.8873H28.8673V32.2139Z" fill="black"/>
<path d="M28.8673 33.8877H22.1735V35.5612H28.8673V33.8877Z" fill="black"/>
<path d="M28.8673 35.5615H22.1735V37.235H28.8673V35.5615Z" fill="black"/>
<path d="M27.1939 37.2344H23.8469V38.9078H27.1939V37.2344Z" fill="black"/>
</svg>
