<svg width="41" height="41" viewBox="0 0 41 41" fill="none" xmlns="http://www.w3.org/2000/svg">
<path d="M7.1122 3.76562H3.76526V5.43909H7.1122V3.76562Z" fill="black"/>
<path d="M7.1122 5.43848H3.76526V7.11195H7.1122V5.43848Z" fill="black"/>
<path d="M7.1122 7.1123H3.76526V8.78577H7.1122V7.1123Z" fill="black"/>
<path d="M7.1122 8.78613H3.76526V10.4596H7.1122V8.78613Z" fill="black"/>
<path d="M7.1122 10.459H3.76526V12.1325H7.1122V10.459Z" fill="black"/>
<path d="M7.1122 12.1328H3.76526V13.8063H7.1122V12.1328Z" fill="black"/>
<path d="M33.8877 12.1328H28.8673V13.8063H33.8877V12.1328Z" fill="black"/>
<path d="M7.1122 13.8057H3.76526V15.4791H7.1122V13.8057Z" fill="black"/>
<path d="M18.8266 13.8057H13.8062V15.4791H18.8266V13.8057Z" fill="black"/>
<path d="M33.8877 13.8057H27.1938V15.4791H33.8877V13.8057Z" fill="black"/>
<path d="M7.1122 15.4795H3.76526V17.153H7.1122V15.4795Z" fill="black"/>
<path d="M20.5 15.4795H12.1327V17.153H20.5V15.4795Z" fill="black"/>
<path d="M33.8877 15.4795H25.5204V17.153H33.8877V15.4795Z" fill="black"/>
<path d="M7.1122 17.1533H3.76526V18.8268H7.1122V17.1533Z" fill="black"/>
<path d="M15.4796 17.1533H10.4592V18.8268H15.4796V17.1533Z" fill="black"/>
<path d="M22.1735 17.1533H17.1531V18.8268H22.1735V17.1533Z" fill="black"/>
<path d="M28.8673 17.1533H23.8469V18.8268H28.8673V17.1533Z" fill="black"/>
<path d="M33.8877 17.1533H30.5408V18.8268H33.8877V17.1533Z" fill="black"/>
<path d="M7.1122 18.8262H3.76526V20.4996H7.1122V18.8262Z" fill="black"/>
<path d="M13.8062 18.8262H10.4592V20.4996H13.8062V18.8262Z" fill="black"/>
<path d="M27.1939 18.8262H18.8265V20.4996H27.1939V18.8262Z" fill="black"/>
<path d="M33.8877 18.8262H30.5408V20.4996H33.8877V18.8262Z" fill="black"/>
<path d="M7.1122 20.5H3.76526V22.1735H7.1122V20.5Z" fill="black"/>
<path d="M13.8062 20.5H10.4592V22.1735H13.8062V20.5Z" fill="black"/>
<path d="M25.5204 20.5H20.5V22.1735H25.5204V20.5Z" fill="black"/>
<path d="M33.8877 20.5H30.5408V22.1735H33.8877V20.5Z" fill="black"/>
<path d="M7.1122 22.1738H3.76526V23.8473H7.1122V22.1738Z" fill="black"/>
<path d="M13.8062 22.1738H10.4592V23.8473H13.8062V22.1738Z" fill="black"/>
<path d="M33.8877 22.1738H30.5408V23.8473H33.8877V22.1738Z" fill="black"/>
<path d="M7.1122 23.8467H3.76526V25.5201H7.1122V23.8467Z" fill="black"/>
<path d="M13.8062 23.8467H10.4592V25.5201H13.8062V23.8467Z" fill="black"/>
<path d="M33.8877 23.8467H30.5408V25.5201H33.8877V23.8467Z" fill="black"/>
<path d="M7.1122 25.5205H3.76526V27.194H7.1122V25.5205Z" fill="black"/>
<path d="M13.8062 25.5205H10.4592V27.194H13.8062V25.5205Z" fill="black"/>
<path d="M33.8877 25.5205H30.5408V27.194H33.8877V25.5205Z" fill="black"/>
<path d="M7.1122 27.1943H3.76526V28.8678H7.1122V27.1943Z" fill="black"/>
<path d="M33.8878 27.1943H10.4592V28.8678H33.8878V27.1943Z" fill="black"/>
<path d="M7.1122 28.8672H3.76526V30.5407H7.1122V28.8672Z" fill="black"/>
<path d="M32.2143 28.8672H12.1327V30.5407H32.2143V28.8672Z" fill="black"/>
<path d="M7.1122 30.541H3.76526V32.2145H7.1122V30.541Z" fill="black"/>
<path d="M7.1122 32.2139H3.76526V33.8873H7.1122V32.2139Z" fill="black"/>
<path d="M37.2346 33.8877H3.76526V35.5612H37.2346V33.8877Z" fill="black"/>
<path d="M37.2346 35.5615H5.43872V37.235H37.2346V35.5615Z" fill="black"/>
</svg>
