<svg width="41" height="40" viewBox="0 0 41 40" fill="none" xmlns="http://www.w3.org/2000/svg">
<path d="M7.1122 3.67383H3.76526V5.30648H7.1122V3.67383Z" fill="black"/>
<path d="M7.1122 5.30566H3.76526V6.93832H7.1122V5.30566Z" fill="black"/>
<path d="M7.1122 6.93848H3.76526V8.57113H7.1122V6.93848Z" fill="black"/>
<path d="M7.1122 8.57129H3.76526V10.2039H7.1122V8.57129Z" fill="black"/>
<path d="M7.1122 10.2041H3.76526V11.8368H7.1122V10.2041Z" fill="black"/>
<path d="M7.1122 11.8369H3.76526V13.4696H7.1122V11.8369Z" fill="black"/>
<path d="M7.1122 13.4697H3.76526V15.1024H7.1122V13.4697Z" fill="black"/>
<path d="M33.8877 13.4697H30.5408V15.1024H33.8877V13.4697Z" fill="black"/>
<path d="M7.1122 15.1016H3.76526V16.7342H7.1122V15.1016Z" fill="black"/>
<path d="M18.8266 15.1016H15.4796V16.7342H18.8266V15.1016Z" fill="black"/>
<path d="M33.8877 15.1016H28.8673V16.7342H33.8877V15.1016Z" fill="black"/>
<path d="M7.1122 16.7344H3.76526V18.367H7.1122V16.7344Z" fill="black"/>
<path d="M20.5 16.7344H13.8062V18.367H20.5V16.7344Z" fill="black"/>
<path d="M32.2143 16.7344H27.1938V18.367H32.2143V16.7344Z" fill="black"/>
<path d="M7.1122 18.3672H3.76526V19.9998H7.1122V18.3672Z" fill="black"/>
<path d="M22.1735 18.3672H12.1327V19.9998H22.1735V18.3672Z" fill="black"/>
<path d="M30.5408 18.3672H25.5204V19.9998H30.5408V18.3672Z" fill="black"/>
<path d="M7.1122 20H3.76526V21.6327H7.1122V20Z" fill="black"/>
<path d="M15.4796 20H10.4592V21.6327H15.4796V20Z" fill="black"/>
<path d="M28.8674 20H18.8265V21.6327H28.8674V20Z" fill="black"/>
<path d="M7.1122 21.6328H3.76526V23.2655H7.1122V21.6328Z" fill="black"/>
<path d="M13.8062 21.6328H10.4592V23.2655H13.8062V21.6328Z" fill="black"/>
<path d="M27.1939 21.6328H20.5V23.2655H27.1939V21.6328Z" fill="black"/>
<path d="M7.1122 23.2656H3.76526V24.8983H7.1122V23.2656Z" fill="black"/>
<path d="M25.5204 23.2656H22.1735V24.8983H25.5204V23.2656Z" fill="black"/>
<path d="M7.1122 24.8984H3.76526V26.5311H7.1122V24.8984Z" fill="black"/>
<path d="M7.1122 26.5303H3.76526V28.1629H7.1122V26.5303Z" fill="black"/>
<path d="M7.1122 28.1631H3.76526V29.7957H7.1122V28.1631Z" fill="black"/>
<path d="M7.1122 29.7959H3.76526V31.4286H7.1122V29.7959Z" fill="black"/>
<path d="M7.1122 31.4287H3.76526V33.0614H7.1122V31.4287Z" fill="black"/>
<path d="M37.2346 33.0615H3.76526V34.6942H37.2346V33.0615Z" fill="black"/>
<path d="M37.2346 34.6943H5.43872V36.327H37.2346V34.6943Z" fill="black"/>
</svg>
