<svg width="40" height="41" viewBox="0 0 40 41" fill="none" xmlns="http://www.w3.org/2000/svg">
<path d="M10.2041 3.76562H6.93878V5.43909H10.2041V3.76562Z" fill="black"/>
<path d="M21.6327 3.76562H18.3674V5.43909H21.6327V3.76562Z" fill="black"/>
<path d="M33.0612 3.76562H29.7959V5.43909H33.0612V3.76562Z" fill="black"/>
<path d="M10.2041 5.43848H6.93878V7.11195H10.2041V5.43848Z" fill="black"/>
<path d="M21.6327 5.43848H18.3674V7.11195H21.6327V5.43848Z" fill="black"/>
<path d="M33.0612 5.43848H29.7959V7.11195H33.0612V5.43848Z" fill="black"/>
<path d="M10.2041 7.1123H6.93878V8.78577H10.2041V7.1123Z" fill="black"/>
<path d="M21.6327 7.1123H18.3674V8.78577H21.6327V7.1123Z" fill="black"/>
<path d="M33.0612 7.1123H29.7959V8.78577H33.0612V7.1123Z" fill="black"/>
<path d="M10.2041 8.78613H6.93878V10.4596H10.2041V8.78613Z" fill="black"/>
<path d="M21.6327 8.78613H18.3674V10.4596H21.6327V8.78613Z" fill="black"/>
<path d="M33.0612 8.78613H29.7959V10.4596H33.0612V8.78613Z" fill="black"/>
<path d="M10.2041 10.459H6.93878V12.1325H10.2041V10.459Z" fill="black"/>
<path d="M21.6327 10.459H18.3674V12.1325H21.6327V10.459Z" fill="black"/>
<path d="M33.0612 10.459H29.7959V12.1325H33.0612V10.459Z" fill="black"/>
<path d="M10.2041 12.1328H6.93878V13.8063H10.2041V12.1328Z" fill="black"/>
<path d="M24.898 12.1328H15.1021V13.8063H24.898V12.1328Z" fill="black"/>
<path d="M33.0612 12.1328H29.7959V13.8063H33.0612V12.1328Z" fill="black"/>
<path d="M10.2041 13.8057H6.93878V15.4791H10.2041V13.8057Z" fill="black"/>
<path d="M24.898 13.8057H15.1021V15.4791H24.898V13.8057Z" fill="black"/>
<path d="M33.0612 13.8057H29.7959V15.4791H33.0612V13.8057Z" fill="black"/>
<path d="M10.2041 15.4795H6.93878V17.153H10.2041V15.4795Z" fill="black"/>
<path d="M33.0612 15.4795H29.7959V17.153H33.0612V15.4795Z" fill="black"/>
<path d="M10.2041 17.1533H6.93878V18.8268H10.2041V17.1533Z" fill="black"/>
<path d="M33.0612 17.1533H29.7959V18.8268H33.0612V17.1533Z" fill="black"/>
<path d="M21.6327 18.8262H18.3674V20.4996H21.6327V18.8262Z" fill="black"/>
<path d="M33.0612 18.8262H29.7959V20.4996H33.0612V18.8262Z" fill="black"/>
<path d="M21.6327 20.5H18.3674V22.1735H21.6327V20.5Z" fill="black"/>
<path d="M33.0612 20.5H29.7959V22.1735H33.0612V20.5Z" fill="black"/>
<path d="M13.4694 22.1738H3.67346V23.8473H13.4694V22.1738Z" fill="black"/>
<path d="M21.6327 22.1738H18.3674V23.8473H21.6327V22.1738Z" fill="black"/>
<path d="M13.4694 23.8467H3.67346V25.5201H13.4694V23.8467Z" fill="black"/>
<path d="M21.6327 23.8467H18.3674V25.5201H21.6327V23.8467Z" fill="black"/>
<path d="M10.2041 25.5205H6.93878V27.194H10.2041V25.5205Z" fill="black"/>
<path d="M21.6327 25.5205H18.3674V27.194H21.6327V25.5205Z" fill="black"/>
<path d="M36.3266 25.5205H26.5306V27.194H36.3266V25.5205Z" fill="black"/>
<path d="M10.2041 27.1943H6.93878V28.8678H10.2041V27.1943Z" fill="black"/>
<path d="M21.6327 27.1943H18.3674V28.8678H21.6327V27.1943Z" fill="black"/>
<path d="M36.3266 27.1943H26.5306V28.8678H36.3266V27.1943Z" fill="black"/>
<path d="M10.2041 28.8672H6.93878V30.5407H10.2041V28.8672Z" fill="black"/>
<path d="M21.6327 28.8672H18.3674V30.5407H21.6327V28.8672Z" fill="black"/>
<path d="M33.0612 28.8672H29.7959V30.5407H33.0612V28.8672Z" fill="black"/>
<path d="M10.2041 30.541H6.93878V32.2145H10.2041V30.541Z" fill="black"/>
<path d="M21.6327 30.541H18.3674V32.2145H21.6327V30.541Z" fill="black"/>
<path d="M33.0612 30.541H29.7959V32.2145H33.0612V30.541Z" fill="black"/>
<path d="M10.2041 32.2139H6.93878V33.8873H10.2041V32.2139Z" fill="black"/>
<path d="M21.6327 32.2139H18.3674V33.8873H21.6327V32.2139Z" fill="black"/>
<path d="M33.0612 32.2139H29.7959V33.8873H33.0612V32.2139Z" fill="black"/>
<path d="M10.2041 33.8877H6.93878V35.5612H10.2041V33.8877Z" fill="black"/>
<path d="M21.6327 33.8877H18.3674V35.5612H21.6327V33.8877Z" fill="black"/>
<path d="M33.0612 33.8877H29.7959V35.5612H33.0612V33.8877Z" fill="black"/>
<path d="M10.2041 35.5615H6.93878V37.235H10.2041V35.5615Z" fill="black"/>
<path d="M21.6327 35.5615H18.3674V37.235H21.6327V35.5615Z" fill="black"/>
<path d="M33.0612 35.5615H29.7959V37.235H33.0612V35.5615Z" fill="black"/>
</svg>
