<svg width="41" height="40" viewBox="0 0 41 40" fill="none" xmlns="http://www.w3.org/2000/svg">
<path d="M25.5204 3.67383H22.1735V5.30648H25.5204V3.67383Z" fill="black"/>
<path d="M25.5204 5.30566H22.1735V6.93832H25.5204V5.30566Z" fill="black"/>
<path d="M18.8265 6.93848H3.76526V8.57113H18.8265V6.93848Z" fill="black"/>
<path d="M37.2347 6.93848H22.1735V8.57113H37.2347V6.93848Z" fill="black"/>
<path d="M18.8265 8.57129H3.76526V10.2039H18.8265V8.57129Z" fill="black"/>
<path d="M37.2347 8.57129H22.1735V10.2039H37.2347V8.57129Z" fill="black"/>
<path d="M25.5204 10.2041H22.1735V11.8368H25.5204V10.2041Z" fill="black"/>
<path d="M25.5204 11.8369H22.1735V13.4696H25.5204V11.8369Z" fill="black"/>
<path d="M15.4796 15.1016H12.1327V16.7342H15.4796V15.1016Z" fill="black"/>
<path d="M15.4796 16.7344H12.1327V18.367H15.4796V16.7344Z" fill="black"/>
<path d="M15.4795 18.3672H3.76526V19.9998H15.4795V18.3672Z" fill="black"/>
<path d="M37.2347 18.3672H18.8265V19.9998H37.2347V18.3672Z" fill="black"/>
<path d="M15.4795 20H3.76526V21.6327H15.4795V20Z" fill="black"/>
<path d="M37.2347 20H18.8265V21.6327H37.2347V20Z" fill="black"/>
<path d="M15.4796 21.6328H12.1327V23.2655H15.4796V21.6328Z" fill="black"/>
<path d="M15.4796 23.2656H12.1327V24.8983H15.4796V23.2656Z" fill="black"/>
<path d="M28.8673 26.5303H25.5204V28.1629H28.8673V26.5303Z" fill="black"/>
<path d="M28.8673 28.1631H25.5204V29.7957H28.8673V28.1631Z" fill="black"/>
<path d="M22.1734 29.7959H3.76526V31.4286H22.1734V29.7959Z" fill="black"/>
<path d="M37.2347 29.7959H25.5204V31.4286H37.2347V29.7959Z" fill="black"/>
<path d="M22.1734 31.4287H3.76526V33.0614H22.1734V31.4287Z" fill="black"/>
<path d="M37.2347 31.4287H25.5204V33.0614H37.2347V31.4287Z" fill="black"/>
<path d="M28.8673 33.0615H25.5204V34.6942H28.8673V33.0615Z" fill="black"/>
<path d="M28.8673 34.6943H25.5204V36.327H28.8673V34.6943Z" fill="black"/>
</svg>
