<svg width="40" height="40" viewBox="0 0 40 40" fill="none" xmlns="http://www.w3.org/2000/svg">
<path d="M37.9592 10.2041H24.8979V11.8368H37.9592V10.2041Z" fill="black"/>
<path d="M37.9592 11.8369H24.8979V13.4696H37.9592V11.8369Z" fill="black"/>
<path d="M37.9592 13.4697H31.4286V15.1024H37.9592V13.4697Z" fill="black"/>
<path d="M15.102 15.1016H13.4694V16.7342H15.102V15.1016Z" fill="black"/>
<path d="M37.9592 15.1016H29.7959V16.7342H37.9592V15.1016Z" fill="black"/>
<path d="M16.7348 16.7344H11.8368V18.367H16.7348V16.7344Z" fill="black"/>
<path d="M33.0612 16.7344H28.1632V18.367H33.0612V16.7344Z" fill="black"/>
<path d="M37.9592 16.7344H34.6938V18.367H37.9592V16.7344Z" fill="black"/>
<path d="M18.3674 18.3672H10.2041V19.9998H18.3674V18.3672Z" fill="black"/>
<path d="M31.4286 18.3672H26.5306V19.9998H31.4286V18.3672Z" fill="black"/>
<path d="M37.9592 18.3672H34.6938V19.9998H37.9592V18.3672Z" fill="black"/>
<path d="M13.4694 20H8.57141V21.6327H13.4694V20Z" fill="black"/>
<path d="M20 20H15.1021V21.6327H20V20Z" fill="black"/>
<path d="M29.7959 20H24.8979V21.6327H29.7959V20Z" fill="black"/>
<path d="M37.9592 20H34.6938V21.6327H37.9592V20Z" fill="black"/>
<path d="M11.8367 21.6328H6.93872V23.2655H11.8367V21.6328Z" fill="black"/>
<path d="M21.6327 21.6328H16.7347V23.2655H21.6327V21.6328Z" fill="black"/>
<path d="M28.1632 21.6328H23.2653V23.2655H28.1632V21.6328Z" fill="black"/>
<path d="M37.9592 21.6328H34.6938V23.2655H37.9592V21.6328Z" fill="black"/>
<path d="M10.2041 23.2656H5.30615V24.8983H10.2041V23.2656Z" fill="black"/>
<path d="M26.5306 23.2656H18.3673V24.8983H26.5306V23.2656Z" fill="black"/>
<path d="M8.57142 24.8984H3.67346V26.5311H8.57142V24.8984Z" fill="black"/>
<path d="M24.898 24.8984H20V26.5311H24.898V24.8984Z" fill="black"/>
<path d="M6.93873 26.5303H2.04077V28.1629H6.93873V26.5303Z" fill="black"/>
<path d="M23.2653 26.5303H21.6327V28.1629H23.2653V26.5303Z" fill="black"/>
<path d="M5.30608 28.1631H2.04077V29.7957H5.30608V28.1631Z" fill="black"/>
</svg>
