<svg width="41" height="41" viewBox="0 0 41 41" fill="none" xmlns="http://www.w3.org/2000/svg">
<path d="M15.4796 3.76562H8.78577V5.43909H15.4796V3.76562Z" fill="black"/>
<path d="M32.2143 3.76562H25.5204V5.43909H32.2143V3.76562Z" fill="black"/>
<path d="M15.4797 5.43848H7.1123V7.11195H15.4797V5.43848Z" fill="black"/>
<path d="M33.8877 5.43848H25.5204V7.11195H33.8877V5.43848Z" fill="black"/>
<path d="M10.4592 7.1123H7.1123V8.78577H10.4592V7.1123Z" fill="black"/>
<path d="M33.8877 7.1123H30.5408V8.78577H33.8877V7.1123Z" fill="black"/>
<path d="M10.4592 8.78613H7.1123V10.4596H10.4592V8.78613Z" fill="black"/>
<path d="M33.8877 8.78613H30.5408V10.4596H33.8877V8.78613Z" fill="black"/>
<path d="M10.4592 10.459H7.1123V12.1325H10.4592V10.459Z" fill="black"/>
<path d="M33.8877 10.459H30.5408V12.1325H33.8877V10.459Z" fill="black"/>
<path d="M10.4592 12.1328H7.1123V13.8063H10.4592V12.1328Z" fill="black"/>
<path d="M33.8877 12.1328H30.5408V13.8063H33.8877V12.1328Z" fill="black"/>
<path d="M10.4592 13.8057H7.1123V15.4791H10.4592V13.8057Z" fill="black"/>
<path d="M33.8877 13.8057H30.5408V15.4791H33.8877V13.8057Z" fill="black"/>
<path d="M10.4592 15.4795H7.1123V17.153H10.4592V15.4795Z" fill="black"/>
<path d="M33.8877 15.4795H30.5408V17.153H33.8877V15.4795Z" fill="black"/>
<path d="M10.4592 17.1533H7.1123V18.8268H10.4592V17.1533Z" fill="black"/>
<path d="M33.8877 17.1533H30.5408V18.8268H33.8877V17.1533Z" fill="black"/>
<path d="M10.4591 18.8262H3.76526V20.4996H10.4591V18.8262Z" fill="black"/>
<path d="M37.2346 18.8262H30.5408V20.4996H37.2346V18.8262Z" fill="black"/>
<path d="M10.4591 20.5H3.76526V22.1735H10.4591V20.5Z" fill="black"/>
<path d="M37.2346 20.5H30.5408V22.1735H37.2346V20.5Z" fill="black"/>
<path d="M10.4592 22.1738H7.1123V23.8473H10.4592V22.1738Z" fill="black"/>
<path d="M33.8877 22.1738H30.5408V23.8473H33.8877V22.1738Z" fill="black"/>
<path d="M10.4592 23.8467H7.1123V25.5201H10.4592V23.8467Z" fill="black"/>
<path d="M33.8877 23.8467H30.5408V25.5201H33.8877V23.8467Z" fill="black"/>
<path d="M10.4592 25.5205H7.1123V27.194H10.4592V25.5205Z" fill="black"/>
<path d="M33.8877 25.5205H30.5408V27.194H33.8877V25.5205Z" fill="black"/>
<path d="M10.4592 27.1943H7.1123V28.8678H10.4592V27.1943Z" fill="black"/>
<path d="M33.8877 27.1943H30.5408V28.8678H33.8877V27.1943Z" fill="black"/>
<path d="M10.4592 28.8672H7.1123V30.5407H10.4592V28.8672Z" fill="black"/>
<path d="M33.8877 28.8672H30.5408V30.5407H33.8877V28.8672Z" fill="black"/>
<path d="M10.4592 30.541H7.1123V32.2145H10.4592V30.541Z" fill="black"/>
<path d="M33.8877 30.541H30.5408V32.2145H33.8877V30.541Z" fill="black"/>
<path d="M10.4592 32.2139H7.1123V33.8873H10.4592V32.2139Z" fill="black"/>
<path d="M33.8877 32.2139H30.5408V33.8873H33.8877V32.2139Z" fill="black"/>
<path d="M15.4797 33.8877H7.1123V35.5612H15.4797V33.8877Z" fill="black"/>
<path d="M33.8877 33.8877H25.5204V35.5612H33.8877V33.8877Z" fill="black"/>
<path d="M15.4796 35.5615H8.78577V37.235H15.4796V35.5615Z" fill="black"/>
<path d="M32.2143 35.5615H25.5204V37.235H32.2143V35.5615Z" fill="black"/>
</svg>
