<svg width="40" height="41" viewBox="0 0 40 41" fill="none" xmlns="http://www.w3.org/2000/svg">
<path d="M24.8979 5.43848H23.2653V7.11195H24.8979V5.43848Z" fill="black"/>
<path d="M26.5306 7.1123H21.6327V8.78577H26.5306V7.1123Z" fill="black"/>
<path d="M24.898 8.78613H21.6327V10.4596H24.898V8.78613Z" fill="black"/>
<path d="M24.898 10.459H21.6327V12.1325H24.898V10.459Z" fill="black"/>
<path d="M11.8367 12.1328H8.57141V13.8063H11.8367V12.1328Z" fill="black"/>
<path d="M24.898 12.1328H20V13.8063H24.898V12.1328Z" fill="black"/>
<path d="M31.4285 12.1328H28.1632V13.8063H31.4285V12.1328Z" fill="black"/>
<path d="M11.8367 13.8057H6.93872V15.4791H11.8367V13.8057Z" fill="black"/>
<path d="M23.2653 13.8057H20V15.4791H23.2653V13.8057Z" fill="black"/>
<path d="M33.0612 13.8057H28.1632V15.4791H33.0612V13.8057Z" fill="black"/>
<path d="M10.2041 15.4795H5.30615V17.153H10.2041V15.4795Z" fill="black"/>
<path d="M23.2653 15.4795H20V17.153H23.2653V15.4795Z" fill="black"/>
<path d="M34.6939 15.4795H29.7959V17.153H34.6939V15.4795Z" fill="black"/>
<path d="M8.57142 17.1533H3.67346V18.8268H8.57142V17.1533Z" fill="black"/>
<path d="M23.2653 17.1533H18.3673V18.8268H23.2653V17.1533Z" fill="black"/>
<path d="M36.3265 17.1533H31.4286V18.8268H36.3265V17.1533Z" fill="black"/>
<path d="M6.93873 18.8262H2.04077V20.4996H6.93873V18.8262Z" fill="black"/>
<path d="M21.6326 18.8262H18.3673V20.4996H21.6326V18.8262Z" fill="black"/>
<path d="M37.9592 18.8262H33.0613V20.4996H37.9592V18.8262Z" fill="black"/>
<path d="M6.93873 20.5H2.04077V22.1735H6.93873V20.5Z" fill="black"/>
<path d="M21.6326 20.5H18.3673V22.1735H21.6326V20.5Z" fill="black"/>
<path d="M37.9592 20.5H33.0613V22.1735H37.9592V20.5Z" fill="black"/>
<path d="M8.57142 22.1738H3.67346V23.8473H8.57142V22.1738Z" fill="black"/>
<path d="M21.6327 22.1738H16.7347V23.8473H21.6327V22.1738Z" fill="black"/>
<path d="M36.3265 22.1738H31.4286V23.8473H36.3265V22.1738Z" fill="black"/>
<path d="M10.2041 23.8467H5.30615V25.5201H10.2041V23.8467Z" fill="black"/>
<path d="M20 23.8467H16.7347V25.5201H20V23.8467Z" fill="black"/>
<path d="M34.6939 23.8467H29.7959V25.5201H34.6939V23.8467Z" fill="black"/>
<path d="M11.8367 25.5205H6.93872V27.194H11.8367V25.5205Z" fill="black"/>
<path d="M20 25.5205H16.7347V27.194H20V25.5205Z" fill="black"/>
<path d="M33.0612 25.5205H28.1632V27.194H33.0612V25.5205Z" fill="black"/>
<path d="M11.8367 27.1943H8.57141V28.8678H11.8367V27.1943Z" fill="black"/>
<path d="M20 27.1943H15.1021V28.8678H20V27.1943Z" fill="black"/>
<path d="M31.4285 27.1943H28.1632V28.8678H31.4285V27.1943Z" fill="black"/>
<path d="M18.3674 28.8672H15.1021V30.5407H18.3674V28.8672Z" fill="black"/>
<path d="M18.3674 30.541H15.1021V32.2145H18.3674V30.541Z" fill="black"/>
<path d="M18.3673 32.2139H13.4694V33.8873H18.3673V32.2139Z" fill="black"/>
<path d="M16.7347 33.8877H15.1021V35.5612H16.7347V33.8877Z" fill="black"/>
</svg>
