<svg width="41" height="41" viewBox="0 0 41 41" fill="none" xmlns="http://www.w3.org/2000/svg">
<path d="M15.4796 8.78613H12.1327V10.4596H15.4796V8.78613Z" fill="black"/>
<path d="M28.8673 8.78613H25.5204V10.4596H28.8673V8.78613Z" fill="black"/>
<path d="M15.4796 10.459H10.4592V12.1325H15.4796V10.459Z" fill="black"/>
<path d="M30.5408 10.459H25.5204V12.1325H30.5408V10.459Z" fill="black"/>
<path d="M13.8062 12.1328H8.78577V13.8063H13.8062V12.1328Z" fill="black"/>
<path d="M32.2143 12.1328H27.1938V13.8063H32.2143V12.1328Z" fill="black"/>
<path d="M12.1327 13.8057H7.1123V15.4791H12.1327V13.8057Z" fill="black"/>
<path d="M33.8877 13.8057H28.8673V15.4791H33.8877V13.8057Z" fill="black"/>
<path d="M10.4591 15.4795H5.43872V17.153H10.4591V15.4795Z" fill="black"/>
<path d="M35.5612 15.4795H30.5408V17.153H35.5612V15.4795Z" fill="black"/>
<path d="M8.78567 17.1533H3.76526V18.8268H8.78567V17.1533Z" fill="black"/>
<path d="M37.2346 17.1533H32.2142V18.8268H37.2346V17.1533Z" fill="black"/>
<path d="M7.11221 18.8262H2.0918V20.4996H7.11221V18.8262Z" fill="black"/>
<path d="M38.9081 18.8262H33.8877V20.4996H38.9081V18.8262Z" fill="black"/>
<path d="M7.11221 20.5H2.0918V22.1735H7.11221V20.5Z" fill="black"/>
<path d="M38.9081 20.5H33.8877V22.1735H38.9081V20.5Z" fill="black"/>
<path d="M8.78567 22.1738H3.76526V23.8473H8.78567V22.1738Z" fill="black"/>
<path d="M37.2346 22.1738H32.2142V23.8473H37.2346V22.1738Z" fill="black"/>
<path d="M10.4591 23.8467H5.43872V25.5201H10.4591V23.8467Z" fill="black"/>
<path d="M35.5612 23.8467H30.5408V25.5201H35.5612V23.8467Z" fill="black"/>
<path d="M12.1327 25.5205H7.1123V27.194H12.1327V25.5205Z" fill="black"/>
<path d="M33.8877 25.5205H28.8673V27.194H33.8877V25.5205Z" fill="black"/>
<path d="M13.8062 27.1943H8.78577V28.8678H13.8062V27.1943Z" fill="black"/>
<path d="M32.2143 27.1943H27.1938V28.8678H32.2143V27.1943Z" fill="black"/>
<path d="M15.4796 28.8672H10.4592V30.5407H15.4796V28.8672Z" fill="black"/>
<path d="M30.5408 28.8672H25.5204V30.5407H30.5408V28.8672Z" fill="black"/>
<path d="M15.4796 30.541H12.1327V32.2145H15.4796V30.541Z" fill="black"/>
<path d="M28.8673 30.541H25.5204V32.2145H28.8673V30.541Z" fill="black"/>
</svg>
