<svg width="40" height="40" viewBox="0 0 40 40" fill="none" xmlns="http://www.w3.org/2000/svg">
<path d="M26.5306 2.04102H3.67346V3.67367H26.5306V2.04102Z" fill="black"/>
<path d="M28.1632 3.67383H2.04077V5.30648H28.1632V3.67383Z" fill="black"/>
<path d="M5.30608 5.30566H2.04077V6.93832H5.30608V5.30566Z" fill="black"/>
<path d="M28.1633 5.30566H24.8979V6.93832H28.1633V5.30566Z" fill="black"/>
<path d="M5.30608 6.93848H2.04077V8.57113H5.30608V6.93848Z" fill="black"/>
<path d="M28.1633 6.93848H24.8979V8.57113H28.1633V6.93848Z" fill="black"/>
<path d="M5.30608 8.57129H2.04077V10.2039H5.30608V8.57129Z" fill="black"/>
<path d="M5.30608 10.2041H2.04077V11.8368H5.30608V10.2041Z" fill="black"/>
<path d="M5.30608 11.8369H2.04077V13.4696H5.30608V11.8369Z" fill="black"/>
<path d="M36.3265 11.8369H13.4694V13.4696H36.3265V11.8369Z" fill="black"/>
<path d="M5.30608 13.4697H2.04077V15.1024H5.30608V13.4697Z" fill="black"/>
<path d="M37.9592 13.4697H11.8368V15.1024H37.9592V13.4697Z" fill="black"/>
<path d="M5.30608 15.1016H2.04077V16.7342H5.30608V15.1016Z" fill="black"/>
<path d="M15.1021 15.1016H11.8368V16.7342H15.1021V15.1016Z" fill="black"/>
<path d="M37.9592 15.1016H34.6938V16.7342H37.9592V15.1016Z" fill="black"/>
<path d="M5.30608 16.7344H2.04077V18.367H5.30608V16.7344Z" fill="black"/>
<path d="M15.1021 16.7344H11.8368V18.367H15.1021V16.7344Z" fill="black"/>
<path d="M37.9592 16.7344H34.6938V18.367H37.9592V16.7344Z" fill="black"/>
<path d="M5.30608 18.3672H2.04077V19.9998H5.30608V18.3672Z" fill="black"/>
<path d="M15.1021 18.3672H11.8368V19.9998H15.1021V18.3672Z" fill="black"/>
<path d="M37.9592 18.3672H34.6938V19.9998H37.9592V18.3672Z" fill="black"/>
<path d="M5.30608 20H2.04077V21.6327H5.30608V20Z" fill="black"/>
<path d="M15.1021 20H11.8368V21.6327H15.1021V20Z" fill="black"/>
<path d="M37.9592 20H34.6938V21.6327H37.9592V20Z" fill="black"/>
<path d="M5.30608 21.6328H2.04077V23.2655H5.30608V21.6328Z" fill="black"/>
<path d="M15.1021 21.6328H11.8368V23.2655H15.1021V21.6328Z" fill="black"/>
<path d="M37.9592 21.6328H34.6938V23.2655H37.9592V21.6328Z" fill="black"/>
<path d="M5.30608 23.2656H2.04077V24.8983H5.30608V23.2656Z" fill="black"/>
<path d="M15.1021 23.2656H11.8368V24.8983H15.1021V23.2656Z" fill="black"/>
<path d="M37.9592 23.2656H34.6938V24.8983H37.9592V23.2656Z" fill="black"/>
<path d="M8.57138 24.8984H2.04077V26.5311H8.57138V24.8984Z" fill="black"/>
<path d="M15.1021 24.8984H11.8368V26.5311H15.1021V24.8984Z" fill="black"/>
<path d="M37.9592 24.8984H34.6938V26.5311H37.9592V24.8984Z" fill="black"/>
<path d="M8.57142 26.5303H3.67346V28.1629H8.57142V26.5303Z" fill="black"/>
<path d="M15.1021 26.5303H11.8368V28.1629H15.1021V26.5303Z" fill="black"/>
<path d="M37.9592 26.5303H34.6938V28.1629H37.9592V26.5303Z" fill="black"/>
<path d="M15.1021 28.1631H11.8368V29.7957H15.1021V28.1631Z" fill="black"/>
<path d="M37.9592 28.1631H34.6938V29.7957H37.9592V28.1631Z" fill="black"/>
<path d="M15.1021 29.7959H11.8368V31.4286H15.1021V29.7959Z" fill="black"/>
<path d="M37.9592 29.7959H34.6938V31.4286H37.9592V29.7959Z" fill="black"/>
<path d="M15.1021 31.4287H11.8368V33.0614H15.1021V31.4287Z" fill="black"/>
<path d="M37.9592 31.4287H34.6938V33.0614H37.9592V31.4287Z" fill="black"/>
<path d="M15.1021 33.0615H11.8368V34.6942H15.1021V33.0615Z" fill="black"/>
<path d="M37.9592 33.0615H34.6938V34.6942H37.9592V33.0615Z" fill="black"/>
<path d="M37.9592 34.6943H11.8368V36.327H37.9592V34.6943Z" fill="black"/>
<path d="M36.3265 36.3262H13.4694V37.9588H36.3265V36.3262Z" fill="black"/>
</svg>
