<svg width="41" height="40" viewBox="0 0 41 40" fill="none" xmlns="http://www.w3.org/2000/svg">
<path d="M23.847 3.67383H17.1531V5.30648H23.847V3.67383Z" fill="black"/>
<path d="M25.5204 5.30566H15.4796V6.93832H25.5204V5.30566Z" fill="black"/>
<path d="M18.8266 6.93848H15.4796V8.57113H18.8266V6.93848Z" fill="black"/>
<path d="M25.5204 6.93848H22.1735V8.57113H25.5204V6.93848Z" fill="black"/>
<path d="M18.8266 8.57129H15.4796V10.2039H18.8266V8.57129Z" fill="black"/>
<path d="M25.5204 8.57129H22.1735V10.2039H25.5204V8.57129Z" fill="black"/>
<path d="M25.5204 10.2041H15.4796V11.8368H25.5204V10.2041Z" fill="black"/>
<path d="M25.5204 11.8369H15.4796V13.4696H25.5204V11.8369Z" fill="black"/>
<path d="M18.8266 13.4697H15.4796V15.1024H18.8266V13.4697Z" fill="black"/>
<path d="M25.5204 13.4697H22.1735V15.1024H25.5204V13.4697Z" fill="black"/>
<path d="M18.8266 15.1016H13.8062V16.7342H18.8266V15.1016Z" fill="black"/>
<path d="M27.1939 15.1016H22.1735V16.7342H27.1939V15.1016Z" fill="black"/>
<path d="M17.1531 16.7344H13.8062V18.367H17.1531V16.7344Z" fill="black"/>
<path d="M27.1939 16.7344H23.8469V18.367H27.1939V16.7344Z" fill="black"/>
<path d="M10.4592 18.3672H7.1123V19.9998H10.4592V18.3672Z" fill="black"/>
<path d="M17.1531 18.3672H12.1327V19.9998H17.1531V18.3672Z" fill="black"/>
<path d="M33.8877 18.3672H30.5408V19.9998H33.8877V18.3672Z" fill="black"/>
<path d="M15.4797 20H7.1123V21.6327H15.4797V20Z" fill="black"/>
<path d="M33.8877 20H28.8673V21.6327H33.8877V20Z" fill="black"/>
<path d="M17.1531 21.6328H8.78577V23.2655H17.1531V21.6328Z" fill="black"/>
<path d="M32.2143 21.6328H23.8469V23.2655H32.2143V21.6328Z" fill="black"/>
<path d="M30.5409 23.2656H8.78577V24.8983H30.5409V23.2656Z" fill="black"/>
<path d="M12.1327 24.8984H8.78577V26.5311H12.1327V24.8984Z" fill="black"/>
<path d="M27.1939 24.8984H13.8062V26.5311H27.1939V24.8984Z" fill="black"/>
<path d="M12.1327 26.5303H7.1123V28.1629H12.1327V26.5303Z" fill="black"/>
<path d="M33.8877 26.5303H30.5408V28.1629H33.8877V26.5303Z" fill="black"/>
<path d="M10.4592 28.1631H7.1123V29.7957H10.4592V28.1631Z" fill="black"/>
<path d="M33.8877 28.1631H30.5408V29.7957H33.8877V28.1631Z" fill="black"/>
<path d="M10.4591 29.7959H5.43872V31.4286H10.4591V29.7959Z" fill="black"/>
<path d="M35.5612 29.7959H30.5408V31.4286H35.5612V29.7959Z" fill="black"/>
<path d="M8.78566 31.4287H5.43872V33.0614H8.78566V31.4287Z" fill="black"/>
<path d="M35.5612 31.4287H32.2142V33.0614H35.5612V31.4287Z" fill="black"/>
<path d="M8.78567 33.0615H3.76526V34.6942H8.78567V33.0615Z" fill="black"/>
<path d="M37.2346 33.0615H32.2142V34.6942H37.2346V33.0615Z" fill="black"/>
<path d="M7.1122 34.6943H3.76526V36.327H7.1122V34.6943Z" fill="black"/>
<path d="M37.2346 34.6943H33.8877V36.327H37.2346V34.6943Z" fill="black"/>
</svg>
