<svg width="40" height="41" viewBox="0 0 40 41" fill="none" xmlns="http://www.w3.org/2000/svg">
<path d="M23.2654 13.8057H16.7347V15.4791H23.2654V13.8057Z" fill="black"/>
<path d="M24.898 15.4795H15.1021V17.153H24.898V15.4795Z" fill="black"/>
<path d="M18.3673 17.1533H13.4694V18.8268H18.3673V17.1533Z" fill="black"/>
<path d="M26.5306 17.1533H21.6327V18.8268H26.5306V17.1533Z" fill="black"/>
<path d="M16.7347 18.8262H3.67346V20.4996H16.7347V18.8262Z" fill="black"/>
<path d="M36.3265 18.8262H23.2653V20.4996H36.3265V18.8262Z" fill="black"/>
<path d="M16.7347 20.5H3.67346V22.1735H16.7347V20.5Z" fill="black"/>
<path d="M36.3265 20.5H23.2653V22.1735H36.3265V20.5Z" fill="black"/>
<path d="M18.3673 22.1738H13.4694V23.8473H18.3673V22.1738Z" fill="black"/>
<path d="M26.5306 22.1738H21.6327V23.8473H26.5306V22.1738Z" fill="black"/>
<path d="M24.898 23.8467H15.1021V25.5201H24.898V23.8467Z" fill="black"/>
<path d="M23.2654 25.5205H16.7347V27.194H23.2654V25.5205Z" fill="black"/>
</svg>
