<svg width="41" height="41" viewBox="0 0 41 41" fill="none" xmlns="http://www.w3.org/2000/svg">
<path d="M12.1327 3.76562H8.78577V5.43909H12.1327V3.76562Z" fill="black"/>
<path d="M33.8877 3.76562H27.1938V5.43909H33.8877V3.76562Z" fill="black"/>
<path d="M12.1327 5.43848H8.78577V7.11195H12.1327V5.43848Z" fill="black"/>
<path d="M35.5612 5.43848H25.5204V7.11195H35.5612V5.43848Z" fill="black"/>
<path d="M12.1327 7.1123H8.78577V8.78577H12.1327V7.1123Z" fill="black"/>
<path d="M28.8673 7.1123H23.8469V8.78577H28.8673V7.1123Z" fill="black"/>
<path d="M37.2346 7.1123H32.2142V8.78577H37.2346V7.1123Z" fill="black"/>
<path d="M12.1327 8.78613H8.78577V10.4596H12.1327V8.78613Z" fill="black"/>
<path d="M27.1939 8.78613H18.8265V10.4596H27.1939V8.78613Z" fill="black"/>
<path d="M37.2346 8.78613H33.8877V10.4596H37.2346V8.78613Z" fill="black"/>
<path d="M12.1327 10.459H8.78577V12.1325H12.1327V10.459Z" fill="black"/>
<path d="M27.1939 10.459H17.1531V12.1325H27.1939V10.459Z" fill="black"/>
<path d="M37.2346 10.459H33.8877V12.1325H37.2346V10.459Z" fill="black"/>
<path d="M12.1327 12.1328H8.78577V13.8063H12.1327V12.1328Z" fill="black"/>
<path d="M22.1735 12.1328H13.8062V13.8063H22.1735V12.1328Z" fill="black"/>
<path d="M28.8673 12.1328H23.8469V13.8063H28.8673V12.1328Z" fill="black"/>
<path d="M37.2346 12.1328H32.2142V13.8063H37.2346V12.1328Z" fill="black"/>
<path d="M18.8266 13.8057H8.78577V15.4791H18.8266V13.8057Z" fill="black"/>
<path d="M35.5612 13.8057H25.5204V15.4791H35.5612V13.8057Z" fill="black"/>
<path d="M15.4796 15.4795H8.78577V17.153H15.4796V15.4795Z" fill="black"/>
<path d="M33.8877 15.4795H27.1938V17.153H33.8877V15.4795Z" fill="black"/>
<path d="M15.4796 17.1533H8.78577V18.8268H15.4796V17.1533Z" fill="black"/>
<path d="M13.8062 18.8262H8.78577V20.4996H13.8062V18.8262Z" fill="black"/>
<path d="M13.8062 20.5H8.78577V22.1735H13.8062V20.5Z" fill="black"/>
<path d="M12.1327 22.1738H8.78577V23.8473H12.1327V22.1738Z" fill="black"/>
<path d="M13.8062 23.8467H7.1123V25.5201H13.8062V23.8467Z" fill="black"/>
<path d="M15.4795 25.5205H5.43872V27.194H15.4795V25.5205Z" fill="black"/>
<path d="M8.78567 27.1943H3.76526V28.8678H8.78567V27.1943Z" fill="black"/>
<path d="M17.1531 27.1943H12.1327V28.8678H17.1531V27.1943Z" fill="black"/>
<path d="M7.1122 28.8672H3.76526V30.5407H7.1122V28.8672Z" fill="black"/>
<path d="M17.1531 28.8672H13.8062V30.5407H17.1531V28.8672Z" fill="black"/>
<path d="M7.1122 30.541H3.76526V32.2145H7.1122V30.541Z" fill="black"/>
<path d="M17.1531 30.541H13.8062V32.2145H17.1531V30.541Z" fill="black"/>
<path d="M8.78567 32.2139H3.76526V33.8873H8.78567V32.2139Z" fill="black"/>
<path d="M17.1531 32.2139H12.1327V33.8873H17.1531V32.2139Z" fill="black"/>
<path d="M15.4795 33.8877H5.43872V35.5612H15.4795V33.8877Z" fill="black"/>
<path d="M13.8062 35.5615H7.1123V37.235H13.8062V35.5615Z" fill="black"/>
</svg>
