<svg width="41" height="40" viewBox="0 0 41 40" fill="none" xmlns="http://www.w3.org/2000/svg">
<path d="M13.8061 3.67383H5.43872V5.30648H13.8061V3.67383Z" fill="black"/>
<path d="M35.5612 3.67383H27.1938V5.30648H35.5612V3.67383Z" fill="black"/>
<path d="M13.8061 5.30566H3.76526V6.93832H13.8061V5.30566Z" fill="black"/>
<path d="M37.2347 5.30566H27.1938V6.93832H37.2347V5.30566Z" fill="black"/>
<path d="M7.1122 6.93848H3.76526V8.57113H7.1122V6.93848Z" fill="black"/>
<path d="M37.2346 6.93848H33.8877V8.57113H37.2346V6.93848Z" fill="black"/>
<path d="M7.1122 8.57129H3.76526V10.2039H7.1122V8.57129Z" fill="black"/>
<path d="M37.2346 8.57129H33.8877V10.2039H37.2346V8.57129Z" fill="black"/>
<path d="M7.1122 10.2041H3.76526V11.8368H7.1122V10.2041Z" fill="black"/>
<path d="M23.847 10.2041H12.1327V11.8368H23.847V10.2041Z" fill="black"/>
<path d="M37.2346 10.2041H33.8877V11.8368H37.2346V10.2041Z" fill="black"/>
<path d="M7.1122 11.8369H3.76526V13.4696H7.1122V11.8369Z" fill="black"/>
<path d="M25.5205 11.8369H10.4592V13.4696H25.5205V11.8369Z" fill="black"/>
<path d="M37.2346 11.8369H33.8877V13.4696H37.2346V11.8369Z" fill="black"/>
<path d="M13.8062 13.4697H10.4592V15.1024H13.8062V13.4697Z" fill="black"/>
<path d="M25.5204 13.4697H22.1735V15.1024H25.5204V13.4697Z" fill="black"/>
<path d="M13.8062 15.1016H10.4592V16.7342H13.8062V15.1016Z" fill="black"/>
<path d="M25.5204 15.1016H22.1735V16.7342H25.5204V15.1016Z" fill="black"/>
<path d="M13.8062 16.7344H10.4592V18.367H13.8062V16.7344Z" fill="black"/>
<path d="M25.5204 16.7344H22.1735V18.367H25.5204V16.7344Z" fill="black"/>
<path d="M28.8674 18.3672H10.4592V19.9998H28.8674V18.3672Z" fill="black"/>
<path d="M30.5409 20H12.1327V21.6327H30.5409V20Z" fill="black"/>
<path d="M18.8266 21.6328H15.4796V23.2655H18.8266V21.6328Z" fill="black"/>
<path d="M30.5408 21.6328H27.1938V23.2655H30.5408V21.6328Z" fill="black"/>
<path d="M18.8266 23.2656H15.4796V24.8983H18.8266V23.2656Z" fill="black"/>
<path d="M30.5408 23.2656H27.1938V24.8983H30.5408V23.2656Z" fill="black"/>
<path d="M18.8266 24.8984H15.4796V26.5311H18.8266V24.8984Z" fill="black"/>
<path d="M30.5408 24.8984H27.1938V26.5311H30.5408V24.8984Z" fill="black"/>
<path d="M7.1122 26.5303H3.76526V28.1629H7.1122V26.5303Z" fill="black"/>
<path d="M30.5408 26.5303H15.4796V28.1629H30.5408V26.5303Z" fill="black"/>
<path d="M37.2346 26.5303H33.8877V28.1629H37.2346V26.5303Z" fill="black"/>
<path d="M7.1122 28.1631H3.76526V29.7957H7.1122V28.1631Z" fill="black"/>
<path d="M28.8674 28.1631H17.1531V29.7957H28.8674V28.1631Z" fill="black"/>
<path d="M37.2346 28.1631H33.8877V29.7957H37.2346V28.1631Z" fill="black"/>
<path d="M7.1122 29.7959H3.76526V31.4286H7.1122V29.7959Z" fill="black"/>
<path d="M37.2346 29.7959H33.8877V31.4286H37.2346V29.7959Z" fill="black"/>
<path d="M7.1122 31.4287H3.76526V33.0614H7.1122V31.4287Z" fill="black"/>
<path d="M37.2346 31.4287H33.8877V33.0614H37.2346V31.4287Z" fill="black"/>
<path d="M13.8061 33.0615H3.76526V34.6942H13.8061V33.0615Z" fill="black"/>
<path d="M37.2347 33.0615H27.1938V34.6942H37.2347V33.0615Z" fill="black"/>
<path d="M13.8061 34.6943H5.43872V36.327H13.8061V34.6943Z" fill="black"/>
<path d="M35.5612 34.6943H27.1938V36.327H35.5612V34.6943Z" fill="black"/>
</svg>
