<svg width="41" height="40" viewBox="0 0 41 40" fill="none" xmlns="http://www.w3.org/2000/svg">
<path d="M32.2143 2.04102H23.8469V3.67367H32.2143V2.04102Z" fill="black"/>
<path d="M35.5612 3.67383H22.1735V5.30648H35.5612V3.67383Z" fill="black"/>
<path d="M27.1939 5.30566H20.5V6.93832H27.1939V5.30566Z" fill="black"/>
<path d="M37.2346 5.30566H30.5408V6.93832H37.2346V5.30566Z" fill="black"/>
<path d="M23.8469 6.93848H18.8265V8.57113H23.8469V6.93848Z" fill="black"/>
<path d="M38.9081 6.93848H33.8877V8.57113H38.9081V6.93848Z" fill="black"/>
<path d="M22.1735 8.57129H18.8265V10.2039H22.1735V8.57129Z" fill="black"/>
<path d="M38.9081 8.57129H33.8877V10.2039H38.9081V8.57129Z" fill="black"/>
<path d="M38.9082 10.2041H35.5613V11.8368H38.9082V10.2041Z" fill="black"/>
<path d="M38.9082 11.8369H35.5613V13.4696H38.9082V11.8369Z" fill="black"/>
<path d="M22.1735 13.4697H12.1327V15.1024H22.1735V13.4697Z" fill="black"/>
<path d="M38.9082 13.4697H35.5613V15.1024H38.9082V13.4697Z" fill="black"/>
<path d="M23.847 15.1016H10.4592V16.7342H23.847V15.1016Z" fill="black"/>
<path d="M38.9081 15.1016H33.8877V16.7342H38.9081V15.1016Z" fill="black"/>
<path d="M13.8062 16.7344H8.78577V18.367H13.8062V16.7344Z" fill="black"/>
<path d="M25.5204 16.7344H20.5V18.367H25.5204V16.7344Z" fill="black"/>
<path d="M37.2346 16.7344H32.2142V18.367H37.2346V16.7344Z" fill="black"/>
<path d="M12.1327 18.3672H7.1123V19.9998H12.1327V18.3672Z" fill="black"/>
<path d="M25.5204 18.3672H22.1735V19.9998H25.5204V18.3672Z" fill="black"/>
<path d="M35.5612 18.3672H30.5408V19.9998H35.5612V18.3672Z" fill="black"/>
<path d="M10.4591 20H5.43872V21.6327H10.4591V20Z" fill="black"/>
<path d="M18.8266 20H15.4796V21.6327H18.8266V20Z" fill="black"/>
<path d="M33.8877 20H28.8673V21.6327H33.8877V20Z" fill="black"/>
<path d="M8.78567 21.6328H3.76526V23.2655H8.78567V21.6328Z" fill="black"/>
<path d="M20.5 21.6328H15.4796V23.2655H20.5V21.6328Z" fill="black"/>
<path d="M32.2143 21.6328H27.1938V23.2655H32.2143V21.6328Z" fill="black"/>
<path d="M7.11221 23.2656H2.0918V24.8983H7.11221V23.2656Z" fill="black"/>
<path d="M30.5408 23.2656H17.1531V24.8983H30.5408V23.2656Z" fill="black"/>
<path d="M5.43874 24.8984H2.0918V26.5311H5.43874V24.8984Z" fill="black"/>
<path d="M28.8674 24.8984H18.8265V26.5311H28.8674V24.8984Z" fill="black"/>
<path d="M5.43874 26.5303H2.0918V28.1629H5.43874V26.5303Z" fill="black"/>
<path d="M5.43874 28.1631H2.0918V29.7957H5.43874V28.1631Z" fill="black"/>
<path d="M7.11221 29.7959H2.0918V31.4286H7.11221V29.7959Z" fill="black"/>
<path d="M22.1735 29.7959H18.8265V31.4286H22.1735V29.7959Z" fill="black"/>
<path d="M7.11221 31.4287H2.0918V33.0614H7.11221V31.4287Z" fill="black"/>
<path d="M22.1735 31.4287H17.1531V33.0614H22.1735V31.4287Z" fill="black"/>
<path d="M10.4591 33.0615H3.76526V34.6942H10.4591V33.0615Z" fill="black"/>
<path d="M20.5 33.0615H13.8062V34.6942H20.5V33.0615Z" fill="black"/>
<path d="M18.8265 34.6943H5.43872V36.327H18.8265V34.6943Z" fill="black"/>
<path d="M17.1531 36.3262H8.78577V37.9588H17.1531V36.3262Z" fill="black"/>
</svg>
