<svg width="41" height="40" viewBox="0 0 41 40" fill="none" xmlns="http://www.w3.org/2000/svg">
<path d="M17.1531 10.2041H7.1123V11.8368H17.1531V10.2041Z" fill="black"/>
<path d="M33.8877 10.2041H23.8469V11.8368H33.8877V10.2041Z" fill="black"/>
<path d="M17.153 11.8369H5.43872V13.4696H17.153V11.8369Z" fill="black"/>
<path d="M35.5612 11.8369H23.8469V13.4696H35.5612V11.8369Z" fill="black"/>
<path d="M8.78567 13.4697H3.76526V15.1024H8.78567V13.4697Z" fill="black"/>
<path d="M37.2346 13.4697H32.2142V15.1024H37.2346V13.4697Z" fill="black"/>
<path d="M7.11221 15.1016H2.0918V16.7342H7.11221V15.1016Z" fill="black"/>
<path d="M38.9081 15.1016H33.8877V16.7342H38.9081V15.1016Z" fill="black"/>
<path d="M5.43874 16.7344H2.0918V18.367H5.43874V16.7344Z" fill="black"/>
<path d="M38.9082 16.7344H35.5613V18.367H38.9082V16.7344Z" fill="black"/>
<path d="M5.43874 18.3672H2.0918V19.9998H5.43874V18.3672Z" fill="black"/>
<path d="M28.8674 18.3672H12.1327V19.9998H28.8674V18.3672Z" fill="black"/>
<path d="M38.9082 18.3672H35.5613V19.9998H38.9082V18.3672Z" fill="black"/>
<path d="M5.43874 20H2.0918V21.6327H5.43874V20Z" fill="black"/>
<path d="M28.8674 20H12.1327V21.6327H28.8674V20Z" fill="black"/>
<path d="M38.9082 20H35.5613V21.6327H38.9082V20Z" fill="black"/>
<path d="M5.43874 21.6328H2.0918V23.2655H5.43874V21.6328Z" fill="black"/>
<path d="M38.9082 21.6328H35.5613V23.2655H38.9082V21.6328Z" fill="black"/>
<path d="M7.11221 23.2656H2.0918V24.8983H7.11221V23.2656Z" fill="black"/>
<path d="M38.9081 23.2656H33.8877V24.8983H38.9081V23.2656Z" fill="black"/>
<path d="M8.78567 24.8984H3.76526V26.5311H8.78567V24.8984Z" fill="black"/>
<path d="M37.2346 24.8984H32.2142V26.5311H37.2346V24.8984Z" fill="black"/>
<path d="M17.153 26.5303H5.43872V28.1629H17.153V26.5303Z" fill="black"/>
<path d="M35.5612 26.5303H23.8469V28.1629H35.5612V26.5303Z" fill="black"/>
<path d="M17.1531 28.1631H7.1123V29.7957H17.1531V28.1631Z" fill="black"/>
<path d="M33.8877 28.1631H23.8469V29.7957H33.8877V28.1631Z" fill="black"/>
</svg>
