<svg width="40" height="40" viewBox="0 0 40 40" fill="none" xmlns="http://www.w3.org/2000/svg">
<path d="M36.3265 2.04102H3.67346V3.67367H36.3265V2.04102Z" fill="black"/>
<path d="M37.9591 3.67383H2.04077V5.30648H37.9591V3.67383Z" fill="black"/>
<path d="M5.30608 5.30566H2.04077V6.93832H5.30608V5.30566Z" fill="black"/>
<path d="M37.9592 5.30566H34.6938V6.93832H37.9592V5.30566Z" fill="black"/>
<path d="M5.30608 6.93848H2.04077V8.57113H5.30608V6.93848Z" fill="black"/>
<path d="M37.9592 6.93848H34.6938V8.57113H37.9592V6.93848Z" fill="black"/>
<path d="M5.30608 8.57129H2.04077V10.2039H5.30608V8.57129Z" fill="black"/>
<path d="M11.8367 8.57129H8.57141V10.2039H11.8367V8.57129Z" fill="black"/>
<path d="M37.9592 8.57129H34.6938V10.2039H37.9592V8.57129Z" fill="black"/>
<path d="M5.30608 10.2041H2.04077V11.8368H5.30608V10.2041Z" fill="black"/>
<path d="M11.8367 10.2041H8.57141V11.8368H11.8367V10.2041Z" fill="black"/>
<path d="M37.9592 10.2041H34.6938V11.8368H37.9592V10.2041Z" fill="black"/>
<path d="M5.30608 11.8369H2.04077V13.4696H5.30608V11.8369Z" fill="black"/>
<path d="M37.9592 11.8369H34.6938V13.4696H37.9592V11.8369Z" fill="black"/>
<path d="M5.30608 13.4697H2.04077V15.1024H5.30608V13.4697Z" fill="black"/>
<path d="M37.9592 13.4697H34.6938V15.1024H37.9592V13.4697Z" fill="black"/>
<path d="M37.9591 15.1016H2.04077V16.7342H37.9591V15.1016Z" fill="black"/>
<path d="M36.3265 16.7344H3.67346V18.367H36.3265V16.7344Z" fill="black"/>
<path d="M36.3265 21.6328H3.67346V23.2655H36.3265V21.6328Z" fill="black"/>
<path d="M37.9591 23.2656H2.04077V24.8983H37.9591V23.2656Z" fill="black"/>
<path d="M5.30608 24.8984H2.04077V26.5311H5.30608V24.8984Z" fill="black"/>
<path d="M37.9592 24.8984H34.6938V26.5311H37.9592V24.8984Z" fill="black"/>
<path d="M5.30608 26.5303H2.04077V28.1629H5.30608V26.5303Z" fill="black"/>
<path d="M37.9592 26.5303H34.6938V28.1629H37.9592V26.5303Z" fill="black"/>
<path d="M5.30608 28.1631H2.04077V29.7957H5.30608V28.1631Z" fill="black"/>
<path d="M11.8367 28.1631H8.57141V29.7957H11.8367V28.1631Z" fill="black"/>
<path d="M37.9592 28.1631H34.6938V29.7957H37.9592V28.1631Z" fill="black"/>
<path d="M5.30608 29.7959H2.04077V31.4286H5.30608V29.7959Z" fill="black"/>
<path d="M11.8367 29.7959H8.57141V31.4286H11.8367V29.7959Z" fill="black"/>
<path d="M37.9592 29.7959H34.6938V31.4286H37.9592V29.7959Z" fill="black"/>
<path d="M5.30608 31.4287H2.04077V33.0614H5.30608V31.4287Z" fill="black"/>
<path d="M37.9592 31.4287H34.6938V33.0614H37.9592V31.4287Z" fill="black"/>
<path d="M5.30608 33.0615H2.04077V34.6942H5.30608V33.0615Z" fill="black"/>
<path d="M37.9592 33.0615H34.6938V34.6942H37.9592V33.0615Z" fill="black"/>
<path d="M37.9591 34.6943H2.04077V36.327H37.9591V34.6943Z" fill="black"/>
<path d="M36.3265 36.3262H3.67346V37.9588H36.3265V36.3262Z" fill="black"/>
</svg>
