<svg width="41" height="40" viewBox="0 0 41 40" fill="none" xmlns="http://www.w3.org/2000/svg">
<path d="M37.2346 2.04102H3.76526V3.67367H37.2346V2.04102Z" fill="black"/>
<path d="M38.9081 3.67383H2.0918V5.30648H38.9081V3.67383Z" fill="black"/>
<path d="M5.43874 5.30566H2.0918V6.93832H5.43874V5.30566Z" fill="black"/>
<path d="M38.9082 5.30566H35.5613V6.93832H38.9082V5.30566Z" fill="black"/>
<path d="M5.43874 6.93848H2.0918V8.57113H5.43874V6.93848Z" fill="black"/>
<path d="M38.9082 6.93848H35.5613V8.57113H38.9082V6.93848Z" fill="black"/>
<path d="M5.43874 8.57129H2.0918V10.2039H5.43874V8.57129Z" fill="black"/>
<path d="M12.1327 8.57129H8.78577V10.2039H12.1327V8.57129Z" fill="black"/>
<path d="M38.9082 8.57129H35.5613V10.2039H38.9082V8.57129Z" fill="black"/>
<path d="M5.43874 10.2041H2.0918V11.8368H5.43874V10.2041Z" fill="black"/>
<path d="M12.1327 10.2041H8.78577V11.8368H12.1327V10.2041Z" fill="black"/>
<path d="M38.9082 10.2041H35.5613V11.8368H38.9082V10.2041Z" fill="black"/>
<path d="M5.43874 11.8369H2.0918V13.4696H5.43874V11.8369Z" fill="black"/>
<path d="M18.8265 11.8369H17.1531V13.4696H18.8265V11.8369Z" fill="black"/>
<path d="M23.8469 11.8369H22.1735V13.4696H23.8469V11.8369Z" fill="black"/>
<path d="M38.9082 11.8369H35.5613V13.4696H38.9082V11.8369Z" fill="black"/>
<path d="M5.43874 13.4697H2.0918V15.1024H5.43874V13.4697Z" fill="black"/>
<path d="M25.5204 13.4697H15.4796V15.1024H25.5204V13.4697Z" fill="black"/>
<path d="M38.9082 13.4697H35.5613V15.1024H38.9082V13.4697Z" fill="black"/>
<path d="M8.78567 15.1016H2.0918V16.7342H8.78567V15.1016Z" fill="black"/>
<path d="M27.1939 15.1016H13.8062V16.7342H27.1939V15.1016Z" fill="black"/>
<path d="M38.9081 15.1016H32.2142V16.7342H38.9081V15.1016Z" fill="black"/>
<path d="M8.78567 16.7344H3.76526V18.367H8.78567V16.7344Z" fill="black"/>
<path d="M18.8266 16.7344H12.1327V18.367H18.8266V16.7344Z" fill="black"/>
<path d="M28.8673 16.7344H22.1735V18.367H28.8673V16.7344Z" fill="black"/>
<path d="M37.2346 16.7344H32.2142V18.367H37.2346V16.7344Z" fill="black"/>
<path d="M17.1531 18.3672H13.8062V19.9998H17.1531V18.3672Z" fill="black"/>
<path d="M27.1939 18.3672H23.8469V19.9998H27.1939V18.3672Z" fill="black"/>
<path d="M17.1531 20H13.8062V21.6327H17.1531V20Z" fill="black"/>
<path d="M27.1939 20H23.8469V21.6327H27.1939V20Z" fill="black"/>
<path d="M8.78567 21.6328H3.76526V23.2655H8.78567V21.6328Z" fill="black"/>
<path d="M18.8266 21.6328H12.1327V23.2655H18.8266V21.6328Z" fill="black"/>
<path d="M28.8673 21.6328H22.1735V23.2655H28.8673V21.6328Z" fill="black"/>
<path d="M37.2346 21.6328H32.2142V23.2655H37.2346V21.6328Z" fill="black"/>
<path d="M8.78567 23.2656H2.0918V24.8983H8.78567V23.2656Z" fill="black"/>
<path d="M27.1939 23.2656H13.8062V24.8983H27.1939V23.2656Z" fill="black"/>
<path d="M38.9081 23.2656H32.2142V24.8983H38.9081V23.2656Z" fill="black"/>
<path d="M5.43874 24.8984H2.0918V26.5311H5.43874V24.8984Z" fill="black"/>
<path d="M25.5204 24.8984H15.4796V26.5311H25.5204V24.8984Z" fill="black"/>
<path d="M38.9082 24.8984H35.5613V26.5311H38.9082V24.8984Z" fill="black"/>
<path d="M5.43874 26.5303H2.0918V28.1629H5.43874V26.5303Z" fill="black"/>
<path d="M18.8265 26.5303H17.1531V28.1629H18.8265V26.5303Z" fill="black"/>
<path d="M23.8469 26.5303H22.1735V28.1629H23.8469V26.5303Z" fill="black"/>
<path d="M38.9082 26.5303H35.5613V28.1629H38.9082V26.5303Z" fill="black"/>
<path d="M5.43874 28.1631H2.0918V29.7957H5.43874V28.1631Z" fill="black"/>
<path d="M12.1327 28.1631H8.78577V29.7957H12.1327V28.1631Z" fill="black"/>
<path d="M38.9082 28.1631H35.5613V29.7957H38.9082V28.1631Z" fill="black"/>
<path d="M5.43874 29.7959H2.0918V31.4286H5.43874V29.7959Z" fill="black"/>
<path d="M12.1327 29.7959H8.78577V31.4286H12.1327V29.7959Z" fill="black"/>
<path d="M38.9082 29.7959H35.5613V31.4286H38.9082V29.7959Z" fill="black"/>
<path d="M5.43874 31.4287H2.0918V33.0614H5.43874V31.4287Z" fill="black"/>
<path d="M38.9082 31.4287H35.5613V33.0614H38.9082V31.4287Z" fill="black"/>
<path d="M5.43874 33.0615H2.0918V34.6942H5.43874V33.0615Z" fill="black"/>
<path d="M38.9082 33.0615H35.5613V34.6942H38.9082V33.0615Z" fill="black"/>
<path d="M38.9081 34.6943H2.0918V36.327H38.9081V34.6943Z" fill="black"/>
<path d="M37.2346 36.3262H3.76526V37.9588H37.2346V36.3262Z" fill="black"/>
</svg>
