<svg width="40" height="40" viewBox="0 0 40 40" fill="none" xmlns="http://www.w3.org/2000/svg">
<path d="M8.57146 6.93848H5.30615V8.57113H8.57146V6.93848Z" fill="black"/>
<path d="M10.2041 8.57129H5.30615V10.2039H10.2041V8.57129Z" fill="black"/>
<path d="M11.8367 10.2041H6.93878V11.8368H11.8367V10.2041Z" fill="black"/>
<path d="M13.4694 11.8369H8.57141V13.4696H13.4694V11.8369Z" fill="black"/>
<path d="M15.1021 13.4697H10.2041V15.1024H15.1021V13.4697Z" fill="black"/>
<path d="M16.7347 15.1016H11.8367V16.7342H16.7347V15.1016Z" fill="black"/>
<path d="M18.3673 16.7344H13.4694V18.367H18.3673V16.7344Z" fill="black"/>
<path d="M18.3673 18.3672H13.4694V19.9998H18.3673V18.3672Z" fill="black"/>
<path d="M16.7347 20H11.8367V21.6327H16.7347V20Z" fill="black"/>
<path d="M15.1021 21.6328H10.2041V23.2655H15.1021V21.6328Z" fill="black"/>
<path d="M13.4694 23.2656H8.57141V24.8983H13.4694V23.2656Z" fill="black"/>
<path d="M11.8367 24.8984H6.93878V26.5311H11.8367V24.8984Z" fill="black"/>
<path d="M10.2041 26.5303H5.30615V28.1629H10.2041V26.5303Z" fill="black"/>
<path d="M8.57146 28.1631H5.30615V29.7957H8.57146V28.1631Z" fill="black"/>
<path d="M34.6939 29.7959H18.3674V31.4286H34.6939V29.7959Z" fill="black"/>
<path d="M34.6939 31.4287H18.3674V33.0614H34.6939V31.4287Z" fill="black"/>
</svg>
