<svg width="41" height="42" viewBox="0 0 41 42" fill="none" xmlns="http://www.w3.org/2000/svg">
<path d="M22.1735 5.57129H8.78571V7.28557H22.1735V5.57129Z" fill="black"/>
<path d="M23.8469 7.28613H7.11224V9.00042H23.8469V7.28613Z" fill="black"/>
<path d="M10.4592 9H7.11224V10.7143H10.4592V9Z" fill="black"/>
<path d="M23.8469 9H20.5V10.7143H23.8469V9Z" fill="black"/>
<path d="M10.4592 10.7139H7.11224V12.4282H10.4592V10.7139Z" fill="black"/>
<path d="M23.8469 10.7139H20.5V12.4282H23.8469V10.7139Z" fill="black"/>
<path d="M10.4592 12.4287H7.11224V14.143H10.4592V12.4287Z" fill="black"/>
<path d="M23.8469 12.4287H20.5V14.143H23.8469V12.4287Z" fill="black"/>
<path d="M10.4592 14.1426H7.11224V15.8569H10.4592V14.1426Z" fill="black"/>
<path d="M23.8469 14.1426H20.5V15.8569H23.8469V14.1426Z" fill="black"/>
<path d="M23.8469 15.8574H7.11224V17.5717H23.8469V15.8574Z" fill="black"/>
<path d="M22.1735 17.5713H8.78571V19.2856H22.1735V17.5713Z" fill="black"/>
<path d="M32.2143 22.7139H18.8265V24.4282H32.2143V22.7139Z" fill="black"/>
<path d="M33.8878 24.4287H17.1531V26.143H33.8878V24.4287Z" fill="black"/>
<path d="M20.5 26.1426H17.1531V27.8569H20.5V26.1426Z" fill="black"/>
<path d="M33.8878 26.1426H30.5408V27.8569H33.8878V26.1426Z" fill="black"/>
<path d="M20.5 27.8574H17.1531V29.5717H20.5V27.8574Z" fill="black"/>
<path d="M33.8878 27.8574H30.5408V29.5717H33.8878V27.8574Z" fill="black"/>
<path d="M20.5 29.5713H17.1531V31.2856H20.5V29.5713Z" fill="black"/>
<path d="M33.8878 29.5713H30.5408V31.2856H33.8878V29.5713Z" fill="black"/>
<path d="M20.5 31.2861H17.1531V33.0004H20.5V31.2861Z" fill="black"/>
<path d="M33.8878 31.2861H30.5408V33.0004H33.8878V31.2861Z" fill="black"/>
<path d="M33.8878 33H17.1531V34.7143H33.8878V33Z" fill="black"/>
<path d="M32.2143 34.7139H18.8265V36.4282H32.2143V34.7139Z" fill="black"/>
</svg>
