<svg width="24" height="24" viewBox="0 0 24 24" fill="none" xmlns="http://www.w3.org/2000/svg">
<path d="M18.3119 19.7514C19.4341 18.8381 21.0696 16.9918 21.4286 14.497C21.5073 13.9504 21.0523 13.5 20.5 13.5H11.3901C10.8379 13.5 10.3901 13.0523 10.3901 12.5V3.5C10.3901 2.94772 9.93985 2.49239 9.39178 2.56051C6.63522 2.90316 5.0839 4.62523 4.17208 5.77211C3.15553 7.05071 2.46767 8.55886 2.16863 10.1647C1.8696 11.7706 1.96849 13.4252 2.45667 14.984C2.94485 16.5428 3.80745 17.9583 4.96906 19.1067C6.13066 20.2551 7.55591 21.1015 9.12018 21.5719C10.6845 22.0422 12.3401 22.1222 13.9425 21.8049C15.5448 21.4875 17.045 20.7825 18.3119 19.7514Z" fill="#D9D9D9"/>
<path d="M21.95 11.0024C22.005 11.5514 21.552 12.0004 21 12.0004L12.999 12.0014C12.7338 12.0014 12.4795 11.8961 12.2919 11.7085C12.1044 11.521 11.999 11.2666 11.999 11.0014V3.00141C11.999 2.44941 12.447 1.99641 12.997 2.05141C15.2929 2.28145 17.4386 3.29835 19.0703 4.92973C20.7021 6.56111 21.7195 8.70658 21.95 11.0024Z" fill="#A4A5A6"/>
</svg>
