<svg width="24" height="24" viewBox="0 0 24 24" fill="none" xmlns="http://www.w3.org/2000/svg">
<path d="M20 12.9995C20 17.9995 16.5 20.4995 12.34 21.9495C12.1222 22.0233 11.8855 22.0197 11.67 21.9395C7.5 20.4995 4 17.9995 4 12.9995V5.99947C4 5.73425 4.10536 5.4799 4.29289 5.29236C4.48043 5.10483 4.73478 4.99947 5 4.99947C7 4.99947 9.5 3.79947 11.24 2.27947C11.4519 2.09847 11.7214 1.99902 12 1.99902C12.2786 1.99902 12.5481 2.09847 12.76 2.27947C14.51 3.80947 17 4.99947 19 4.99947C19.2652 4.99947 19.5196 5.10483 19.7071 5.29236C19.8946 5.4799 20 5.73425 20 5.99947V12.9995Z" fill="#DDDDDD" stroke="#1C1F21" stroke-width="2" stroke-linecap="round" stroke-linejoin="round"/>
</svg>
