<svg width="24" height="24" viewBox="0 0 24 24" fill="none" xmlns="http://www.w3.org/2000/svg">
<path d="M12 7V21M12 7C11.6383 5.5094 11.0154 4.23501 10.2127 3.34311C9.41003 2.45121 8.46469 1.98314 7.5 1.99995C6.83696 1.99995 6.20107 2.26334 5.73223 2.73218C5.26339 3.20102 5 3.83691 5 4.49995C5 5.16299 5.26339 5.79887 5.73223 6.26772C6.20107 6.73656 6.83696 6.99995 7.5 6.99995M12 7C12.3617 5.5094 12.9846 4.23501 13.7873 3.34311C14.59 2.45121 15.5353 1.98314 16.5 1.99995C17.163 1.99995 17.7989 2.26334 18.2678 2.73218C18.7366 3.20102 19 3.83691 19 4.49995C19 5.16299 18.7366 5.79887 18.2678 6.26772C17.7989 6.73656 17.163 6.99995 16.5 6.99995M20 11V19C20 19.5304 19.7893 20.0391 19.4142 20.4142C19.0391 20.7893 18.5304 21 18 21H6C5.46957 21 4.96086 20.7893 4.58579 20.4142C4.21071 20.0391 4 19.5304 4 19V11M20 11C20.5523 11 21 10.5523 21 10V8C21 7.44772 20.5523 7 20 7H4C3.44772 7 3 7.44772 3 8V10C3 10.5523 3.44772 11 4 11M20 11H4" stroke="black" stroke-width="2" stroke-linecap="round" stroke-linejoin="round"/>
</svg>
