<svg width="24" height="24" viewBox="0 0 24 24" fill="none" xmlns="http://www.w3.org/2000/svg">
<path d="M12 17V7M16 8H10C9.46957 8 8.96086 8.21071 8.58579 8.58579C8.21071 8.96086 8 9.46957 8 10C8 10.5304 8.21071 11.0391 8.58579 11.4142C8.96086 11.7893 9.46957 12 10 12H14C14.5304 12 15.0391 12.2107 15.4142 12.5858C15.7893 12.9609 16 13.4696 16 14C16 14.5304 15.7893 15.0391 15.4142 15.4142C15.0391 15.7893 14.5304 16 14 16H8M4 3.00016C4 2.73494 4.10536 2.48059 4.29289 2.29305C4.48043 2.10552 4.73478 2.00016 5 2.00016C5.24762 1.9988 5.49048 2.06819 5.7 2.20016L6.633 2.80016C6.84204 2.93374 7.08493 3.00472 7.333 3.00472C7.58107 3.00472 7.82396 2.93374 8.033 2.80016L8.967 2.20016C9.17604 2.06658 9.41893 1.99561 9.667 1.99561C9.91507 1.99561 10.158 2.06658 10.367 2.20016L11.3 2.80016C11.509 2.93374 11.7519 3.00472 12 3.00472C12.2481 3.00472 12.491 2.93374 12.7 2.80016L13.633 2.20016C13.842 2.06658 14.0849 1.99561 14.333 1.99561C14.5811 1.99561 14.824 2.06658 15.033 2.20016L15.967 2.80016C16.176 2.93374 16.4189 3.00472 16.667 3.00472C16.9151 3.00472 17.158 2.93374 17.367 2.80016L18.3 2.20016C18.5095 2.06819 18.7524 1.9988 19 2.00016C19.2652 2.00016 19.5196 2.10552 19.7071 2.29305C19.8946 2.48059 20 2.73494 20 3.00016V21.0002C20 21.2654 19.8946 21.5197 19.7071 21.7073C19.5196 21.8948 19.2652 22.0002 19 22.0002C18.7524 22.0015 18.5095 21.9321 18.3 21.8002L17.367 21.2002C17.158 21.0666 16.9151 20.9956 16.667 20.9956C16.4189 20.9956 16.176 21.0666 15.967 21.2002L15.033 21.8002C14.824 21.9337 14.5811 22.0047 14.333 22.0047C14.0849 22.0047 13.842 21.9337 13.633 21.8002L12.7 21.2002C12.491 21.0666 12.2481 20.9956 12 20.9956C11.7519 20.9956 11.509 21.0666 11.3 21.2002L10.367 21.8002C10.158 21.9337 9.91507 22.0047 9.667 22.0047C9.41893 22.0047 9.17604 21.9337 8.967 21.8002L8.033 21.2002C7.82396 21.0666 7.58107 20.9956 7.333 20.9956C7.08493 20.9956 6.84204 21.0666 6.633 21.2002L5.7 21.8002C5.49048 21.9321 5.24762 22.0015 5 22.0002C4.73478 22.0002 4.48043 21.8948 4.29289 21.7073C4.10536 21.5197 4 21.2654 4 21.0002V3.00016Z" stroke="black" stroke-width="2" stroke-linecap="round" stroke-linejoin="round"/>
</svg>
