<svg width="40" height="41" viewBox="0 0 40 41" fill="none" xmlns="http://www.w3.org/2000/svg">
<path d="M20 7.1123H10.2041V8.78577H20V7.1123Z" fill="black"/>
<path d="M23.2653 8.78613H6.93872V10.4596H23.2653V8.78613Z" fill="black"/>
<path d="M11.8368 10.459H5.30615V12.1325H11.8368V10.459Z" fill="black"/>
<path d="M24.8979 10.459H18.3673V12.1325H24.8979V10.459Z" fill="black"/>
<path d="M8.57142 12.1328H3.67346V13.8063H8.57142V12.1328Z" fill="black"/>
<path d="M26.5306 12.1328H21.6327V13.8063H26.5306V12.1328Z" fill="black"/>
<path d="M6.93877 13.8057H3.67346V15.4791H6.93877V13.8057Z" fill="black"/>
<path d="M26.5306 13.8057H23.2653V15.4791H26.5306V13.8057Z" fill="black"/>
<path d="M6.93873 15.4795H2.04077V17.153H6.93873V15.4795Z" fill="black"/>
<path d="M33.0612 15.4795H23.2653V17.153H33.0612V15.4795Z" fill="black"/>
<path d="M5.30608 17.1533H2.04077V18.8268H5.30608V17.1533Z" fill="black"/>
<path d="M34.6939 17.1533H24.8979V18.8268H34.6939V17.1533Z" fill="black"/>
<path d="M5.30608 18.8262H2.04077V20.4996H5.30608V18.8262Z" fill="black"/>
<path d="M36.3265 18.8262H31.4286V20.4996H36.3265V18.8262Z" fill="black"/>
<path d="M5.30608 20.5H2.04077V22.1735H5.30608V20.5Z" fill="black"/>
<path d="M37.9592 20.5H33.0613V22.1735H37.9592V20.5Z" fill="black"/>
<path d="M5.30608 22.1738H2.04077V23.8473H5.30608V22.1738Z" fill="black"/>
<path d="M37.9592 22.1738H34.6938V23.8473H37.9592V22.1738Z" fill="black"/>
<path d="M6.93873 23.8467H2.04077V25.5201H6.93873V23.8467Z" fill="black"/>
<path d="M37.9592 23.8467H34.6938V25.5201H37.9592V23.8467Z" fill="black"/>
<path d="M6.93877 25.5205H3.67346V27.194H6.93877V25.5205Z" fill="black"/>
<path d="M37.9592 25.5205H34.6938V27.194H37.9592V25.5205Z" fill="black"/>
<path d="M8.57142 27.1943H3.67346V28.8678H8.57142V27.1943Z" fill="black"/>
<path d="M37.9592 27.1943H33.0613V28.8678H37.9592V27.1943Z" fill="black"/>
<path d="M11.8368 28.8672H5.30615V30.5407H11.8368V28.8672Z" fill="black"/>
<path d="M36.3265 28.8672H31.4286V30.5407H36.3265V28.8672Z" fill="black"/>
<path d="M34.6938 30.541H6.93872V32.2145H34.6938V30.541Z" fill="black"/>
<path d="M33.0612 32.2139H10.2041V33.8873H33.0612V32.2139Z" fill="black"/>
</svg>
