<svg width="41" height="41" viewBox="0 0 41 41" fill="none" xmlns="http://www.w3.org/2000/svg">
<path d="M20.5 3.76562H10.4592V5.43909H20.5V3.76562Z" fill="black"/>
<path d="M23.847 5.43848H7.1123V7.11195H23.847V5.43848Z" fill="black"/>
<path d="M12.1326 7.1123H5.43872V8.78577H12.1326V7.1123Z" fill="black"/>
<path d="M25.5204 7.1123H18.8265V8.78577H25.5204V7.1123Z" fill="black"/>
<path d="M8.78567 8.78613H3.76526V10.4596H8.78567V8.78613Z" fill="black"/>
<path d="M27.1939 8.78613H22.1735V10.4596H27.1939V8.78613Z" fill="black"/>
<path d="M7.1122 10.459H3.76526V12.1325H7.1122V10.459Z" fill="black"/>
<path d="M27.1939 10.459H23.8469V12.1325H27.1939V10.459Z" fill="black"/>
<path d="M7.11221 12.1328H2.0918V13.8063H7.11221V12.1328Z" fill="black"/>
<path d="M33.8877 12.1328H23.8469V13.8063H33.8877V12.1328Z" fill="black"/>
<path d="M5.43874 13.8057H2.0918V15.4791H5.43874V13.8057Z" fill="black"/>
<path d="M35.5612 13.8057H25.5204V15.4791H35.5612V13.8057Z" fill="black"/>
<path d="M5.43874 15.4795H2.0918V17.153H5.43874V15.4795Z" fill="black"/>
<path d="M37.2346 15.4795H32.2142V17.153H37.2346V15.4795Z" fill="black"/>
<path d="M5.43874 17.1533H2.0918V18.8268H5.43874V17.1533Z" fill="black"/>
<path d="M38.9081 17.1533H33.8877V18.8268H38.9081V17.1533Z" fill="black"/>
<path d="M5.43874 18.8262H2.0918V20.4996H5.43874V18.8262Z" fill="black"/>
<path d="M38.9082 18.8262H35.5613V20.4996H38.9082V18.8262Z" fill="black"/>
<path d="M7.11221 20.5H2.0918V22.1735H7.11221V20.5Z" fill="black"/>
<path d="M22.1735 20.5H18.8265V22.1735H22.1735V20.5Z" fill="black"/>
<path d="M38.9082 20.5H35.5613V22.1735H38.9082V20.5Z" fill="black"/>
<path d="M7.1122 22.1738H3.76526V23.8473H7.1122V22.1738Z" fill="black"/>
<path d="M22.1735 22.1738H18.8265V23.8473H22.1735V22.1738Z" fill="black"/>
<path d="M38.9082 22.1738H35.5613V23.8473H38.9082V22.1738Z" fill="black"/>
<path d="M8.78567 23.8467H3.76526V25.5201H8.78567V23.8467Z" fill="black"/>
<path d="M22.1735 23.8467H18.8265V25.5201H22.1735V23.8467Z" fill="black"/>
<path d="M38.9081 23.8467H33.8877V25.5201H38.9081V23.8467Z" fill="black"/>
<path d="M8.78566 25.5205H5.43872V27.194H8.78566V25.5205Z" fill="black"/>
<path d="M22.1735 25.5205H18.8265V27.194H22.1735V25.5205Z" fill="black"/>
<path d="M37.2346 25.5205H32.2142V27.194H37.2346V25.5205Z" fill="black"/>
<path d="M15.4796 27.1943H12.1327V28.8678H15.4796V27.1943Z" fill="black"/>
<path d="M22.1735 27.1943H18.8265V28.8678H22.1735V27.1943Z" fill="black"/>
<path d="M28.8673 27.1943H25.5204V28.8678H28.8673V27.1943Z" fill="black"/>
<path d="M35.5612 27.1943H32.2142V28.8678H35.5612V27.1943Z" fill="black"/>
<path d="M17.1531 28.8672H12.1327V30.5407H17.1531V28.8672Z" fill="black"/>
<path d="M22.1735 28.8672H18.8265V30.5407H22.1735V28.8672Z" fill="black"/>
<path d="M28.8673 28.8672H23.8469V30.5407H28.8673V28.8672Z" fill="black"/>
<path d="M27.1939 30.541H13.8062V32.2145H27.1939V30.541Z" fill="black"/>
<path d="M25.5204 32.2139H15.4796V33.8873H25.5204V32.2139Z" fill="black"/>
<path d="M23.847 33.8877H17.1531V35.5612H23.847V33.8877Z" fill="black"/>
<path d="M22.1735 35.5615H18.8265V37.235H22.1735V35.5615Z" fill="black"/>
</svg>
