<svg width="40" height="41" viewBox="0 0 40 41" fill="none" xmlns="http://www.w3.org/2000/svg">
<path d="M20 3.76562H10.2041V5.43909H20V3.76562Z" fill="black"/>
<path d="M23.2653 5.43848H6.93872V7.11195H23.2653V5.43848Z" fill="black"/>
<path d="M11.8368 7.1123H5.30615V8.78577H11.8368V7.1123Z" fill="black"/>
<path d="M24.8979 7.1123H18.3673V8.78577H24.8979V7.1123Z" fill="black"/>
<path d="M8.57142 8.78613H3.67346V10.4596H8.57142V8.78613Z" fill="black"/>
<path d="M26.5306 8.78613H21.6327V10.4596H26.5306V8.78613Z" fill="black"/>
<path d="M6.93877 10.459H3.67346V12.1325H6.93877V10.459Z" fill="black"/>
<path d="M26.5306 10.459H23.2653V12.1325H26.5306V10.459Z" fill="black"/>
<path d="M6.93873 12.1328H2.04077V13.8063H6.93873V12.1328Z" fill="black"/>
<path d="M33.0612 12.1328H23.2653V13.8063H33.0612V12.1328Z" fill="black"/>
<path d="M5.30608 13.8057H2.04077V15.4791H5.30608V13.8057Z" fill="black"/>
<path d="M34.6939 13.8057H24.8979V15.4791H34.6939V13.8057Z" fill="black"/>
<path d="M5.30608 15.4795H2.04077V17.153H5.30608V15.4795Z" fill="black"/>
<path d="M36.3265 15.4795H31.4286V17.153H36.3265V15.4795Z" fill="black"/>
<path d="M5.30608 17.1533H2.04077V18.8268H5.30608V17.1533Z" fill="black"/>
<path d="M37.9592 17.1533H33.0613V18.8268H37.9592V17.1533Z" fill="black"/>
<path d="M5.30608 18.8262H2.04077V20.4996H5.30608V18.8262Z" fill="black"/>
<path d="M37.9592 18.8262H34.6938V20.4996H37.9592V18.8262Z" fill="black"/>
<path d="M6.93873 20.5H2.04077V22.1735H6.93873V20.5Z" fill="black"/>
<path d="M37.9592 20.5H34.6938V22.1735H37.9592V20.5Z" fill="black"/>
<path d="M6.93877 22.1738H3.67346V23.8473H6.93877V22.1738Z" fill="black"/>
<path d="M15.1021 22.1738H11.8368V23.8473H15.1021V22.1738Z" fill="black"/>
<path d="M28.1633 22.1738H24.8979V23.8473H28.1633V22.1738Z" fill="black"/>
<path d="M37.9592 22.1738H34.6938V23.8473H37.9592V22.1738Z" fill="black"/>
<path d="M8.57142 23.8467H3.67346V25.5201H8.57142V23.8467Z" fill="black"/>
<path d="M15.1021 23.8467H11.8368V25.5201H15.1021V23.8467Z" fill="black"/>
<path d="M28.1633 23.8467H24.8979V25.5201H28.1633V23.8467Z" fill="black"/>
<path d="M37.9592 23.8467H33.0613V25.5201H37.9592V23.8467Z" fill="black"/>
<path d="M8.57146 25.5205H5.30615V27.194H8.57146V25.5205Z" fill="black"/>
<path d="M15.1021 25.5205H11.8368V27.194H15.1021V25.5205Z" fill="black"/>
<path d="M21.6326 25.5205H18.3673V27.194H21.6326V25.5205Z" fill="black"/>
<path d="M28.1633 25.5205H24.8979V27.194H28.1633V25.5205Z" fill="black"/>
<path d="M36.3265 25.5205H31.4286V27.194H36.3265V25.5205Z" fill="black"/>
<path d="M15.1021 27.1943H11.8368V28.8678H15.1021V27.1943Z" fill="black"/>
<path d="M21.6326 27.1943H18.3673V28.8678H21.6326V27.1943Z" fill="black"/>
<path d="M28.1633 27.1943H24.8979V28.8678H28.1633V27.1943Z" fill="black"/>
<path d="M34.6939 27.1943H31.4286V28.8678H34.6939V27.1943Z" fill="black"/>
<path d="M15.1021 28.8672H11.8368V30.5407H15.1021V28.8672Z" fill="black"/>
<path d="M21.6326 28.8672H18.3673V30.5407H21.6326V28.8672Z" fill="black"/>
<path d="M28.1633 28.8672H24.8979V30.5407H28.1633V28.8672Z" fill="black"/>
<path d="M15.1021 30.541H11.8368V32.2145H15.1021V30.541Z" fill="black"/>
<path d="M21.6326 30.541H18.3673V32.2145H21.6326V30.541Z" fill="black"/>
<path d="M28.1633 30.541H24.8979V32.2145H28.1633V30.541Z" fill="black"/>
<path d="M15.1021 32.2139H11.8368V33.8873H15.1021V32.2139Z" fill="black"/>
<path d="M21.6326 32.2139H18.3673V33.8873H21.6326V32.2139Z" fill="black"/>
<path d="M28.1633 32.2139H24.8979V33.8873H28.1633V32.2139Z" fill="black"/>
<path d="M15.1021 33.8877H11.8368V35.5612H15.1021V33.8877Z" fill="black"/>
<path d="M21.6326 33.8877H18.3673V35.5612H21.6326V33.8877Z" fill="black"/>
<path d="M28.1633 33.8877H24.8979V35.5612H28.1633V33.8877Z" fill="black"/>
<path d="M21.6326 35.5615H18.3673V37.235H21.6326V35.5615Z" fill="black"/>
<path d="M21.6326 37.2344H18.3673V38.9078H21.6326V37.2344Z" fill="black"/>
</svg>
