<svg width="41" height="42" viewBox="0 0 41 42" fill="none" xmlns="http://www.w3.org/2000/svg">
<path d="M27.1939 2.14258H13.8062V3.85686H27.1939V2.14258Z" fill="black"/>
<path d="M30.5409 3.85742H10.4592V5.57171H30.5409V3.85742Z" fill="black"/>
<path d="M17.1531 5.57129H8.78577V7.28557H17.1531V5.57129Z" fill="black"/>
<path d="M32.2143 5.57129H23.8469V7.28557H32.2143V5.57129Z" fill="black"/>
<path d="M13.8062 7.28613H7.1123V9.00042H13.8062V7.28613Z" fill="black"/>
<path d="M33.8877 7.28613H28.8673V9.00042H33.8877V7.28613Z" fill="black"/>
<path d="M13.8061 9H5.43872V10.7143H13.8061V9Z" fill="black"/>
<path d="M35.5612 9H30.5408V10.7143H35.5612V9Z" fill="black"/>
<path d="M8.78567 10.7139H3.76526V12.4282H8.78567V10.7139Z" fill="black"/>
<path d="M15.4796 10.7139H10.4592V12.4282H15.4796V10.7139Z" fill="black"/>
<path d="M37.2346 10.7139H32.2142V12.4282H37.2346V10.7139Z" fill="black"/>
<path d="M7.1122 12.4287H3.76526V14.143H7.1122V12.4287Z" fill="black"/>
<path d="M20.5 12.4287H12.1327V14.143H20.5V12.4287Z" fill="black"/>
<path d="M37.2347 12.4287H27.1938V14.143H37.2347V12.4287Z" fill="black"/>
<path d="M7.11221 14.1426H2.0918V15.8569H7.11221V14.1426Z" fill="black"/>
<path d="M22.1735 14.1426H13.8062V15.8569H22.1735V14.1426Z" fill="black"/>
<path d="M38.9081 14.1426H25.5204V15.8569H38.9081V14.1426Z" fill="black"/>
<path d="M7.11221 15.8574H2.0918V17.5717H7.11221V15.8574Z" fill="black"/>
<path d="M22.1735 15.8574H18.8265V17.5717H22.1735V15.8574Z" fill="black"/>
<path d="M28.8673 15.8574H25.5204V17.5717H28.8673V15.8574Z" fill="black"/>
<path d="M38.9081 15.8574H33.8877V17.5717H38.9081V15.8574Z" fill="black"/>
<path d="M12.1326 17.5713H2.0918V19.2856H12.1326V17.5713Z" fill="black"/>
<path d="M22.1735 17.5713H18.8265V19.2856H22.1735V17.5713Z" fill="black"/>
<path d="M28.8673 17.5713H25.5204V19.2856H28.8673V17.5713Z" fill="black"/>
<path d="M38.9082 17.5713H35.5613V19.2856H38.9082V17.5713Z" fill="black"/>
<path d="M13.8061 19.2861H2.0918V21.0004H13.8061V19.2861Z" fill="black"/>
<path d="M28.8674 19.2861H18.8265V21.0004H28.8674V19.2861Z" fill="black"/>
<path d="M38.9082 19.2861H35.5613V21.0004H38.9082V19.2861Z" fill="black"/>
<path d="M5.43874 21H2.0918V22.7143H5.43874V21Z" fill="black"/>
<path d="M13.8062 21H10.4592V22.7143H13.8062V21Z" fill="black"/>
<path d="M27.1939 21H20.5V22.7143H27.1939V21Z" fill="black"/>
<path d="M38.9082 21H35.5613V22.7143H38.9082V21Z" fill="black"/>
<path d="M5.43874 22.7139H2.0918V24.4282H5.43874V22.7139Z" fill="black"/>
<path d="M13.8062 22.7139H10.4592V24.4282H13.8062V22.7139Z" fill="black"/>
<path d="M38.9082 22.7139H35.5613V24.4282H38.9082V22.7139Z" fill="black"/>
<path d="M7.11221 24.4287H2.0918V26.143H7.11221V24.4287Z" fill="black"/>
<path d="M13.8062 24.4287H10.4592V26.143H13.8062V24.4287Z" fill="black"/>
<path d="M38.9081 24.4287H25.5204V26.143H38.9081V24.4287Z" fill="black"/>
<path d="M7.11221 26.1426H2.0918V27.8569H7.11221V26.1426Z" fill="black"/>
<path d="M18.8266 26.1426H10.4592V27.8569H18.8266V26.1426Z" fill="black"/>
<path d="M38.9081 26.1426H23.8469V27.8569H38.9081V26.1426Z" fill="black"/>
<path d="M7.1122 27.8574H3.76526V29.5717H7.1122V27.8574Z" fill="black"/>
<path d="M20.5 27.8574H12.1327V29.5717H20.5V27.8574Z" fill="black"/>
<path d="M27.1939 27.8574H23.8469V29.5717H27.1939V27.8574Z" fill="black"/>
<path d="M37.2346 27.8574H33.8877V29.5717H37.2346V27.8574Z" fill="black"/>
<path d="M8.78567 29.5713H3.76526V31.2856H8.78567V29.5713Z" fill="black"/>
<path d="M20.5 29.5713H17.1531V31.2856H20.5V29.5713Z" fill="black"/>
<path d="M27.1939 29.5713H23.8469V31.2856H27.1939V29.5713Z" fill="black"/>
<path d="M37.2346 29.5713H32.2142V31.2856H37.2346V29.5713Z" fill="black"/>
<path d="M10.4591 31.2861H5.43872V33.0004H10.4591V31.2861Z" fill="black"/>
<path d="M20.5 31.2861H17.1531V33.0004H20.5V31.2861Z" fill="black"/>
<path d="M27.1939 31.2861H23.8469V33.0004H27.1939V31.2861Z" fill="black"/>
<path d="M35.5612 31.2861H30.5408V33.0004H35.5612V31.2861Z" fill="black"/>
<path d="M12.1327 33H7.1123V34.7143H12.1327V33Z" fill="black"/>
<path d="M20.5 33H17.1531V34.7143H20.5V33Z" fill="black"/>
<path d="M27.1939 33H23.8469V34.7143H27.1939V33Z" fill="black"/>
<path d="M33.8877 33H28.8673V34.7143H33.8877V33Z" fill="black"/>
<path d="M20.5001 34.7139H8.78577V36.4282H20.5001V34.7139Z" fill="black"/>
<path d="M32.2143 34.7139H23.8469V36.4282H32.2143V34.7139Z" fill="black"/>
<path d="M30.5409 36.4287H10.4592V38.143H30.5409V36.4287Z" fill="black"/>
<path d="M27.1939 38.1426H13.8062V39.8569H27.1939V38.1426Z" fill="black"/>
</svg>
