<svg width="41" height="41" viewBox="0 0 41 41" fill="none" xmlns="http://www.w3.org/2000/svg">
<path d="M22.1735 3.76562H13.8062V5.43909H22.1735V3.76562Z" fill="black"/>
<path d="M22.1735 5.43848H12.1327V7.11195H22.1735V5.43848Z" fill="black"/>
<path d="M22.1735 7.1123H8.78577V8.78577H22.1735V7.1123Z" fill="black"/>
<path d="M13.8062 8.78613H7.1123V10.4596H13.8062V8.78613Z" fill="black"/>
<path d="M20.5 8.78613H17.1531V10.4596H20.5V8.78613Z" fill="black"/>
<path d="M10.4592 10.459H7.1123V12.1325H10.4592V10.459Z" fill="black"/>
<path d="M20.5 10.459H17.1531V12.1325H20.5V10.459Z" fill="black"/>
<path d="M10.4591 12.1328H5.43872V13.8063H10.4591V12.1328Z" fill="black"/>
<path d="M20.5 12.1328H17.1531V13.8063H20.5V12.1328Z" fill="black"/>
<path d="M8.78567 13.8057H3.76526V15.4791H8.78567V13.8057Z" fill="black"/>
<path d="M20.5 13.8057H17.1531V15.4791H20.5V13.8057Z" fill="black"/>
<path d="M8.78567 15.4795H3.76526V17.153H8.78567V15.4795Z" fill="black"/>
<path d="M22.1735 15.4795H17.1531V17.153H22.1735V15.4795Z" fill="black"/>
<path d="M7.1122 17.1533H3.76526V18.8268H7.1122V17.1533Z" fill="black"/>
<path d="M23.8469 17.1533H18.8265V18.8268H23.8469V17.1533Z" fill="black"/>
<path d="M7.1122 18.8262H3.76526V20.4996H7.1122V18.8262Z" fill="black"/>
<path d="M25.5204 18.8262H20.5V20.4996H25.5204V18.8262Z" fill="black"/>
<path d="M37.2346 18.8262H32.2142V20.4996H37.2346V18.8262Z" fill="black"/>
<path d="M7.1122 20.5H3.76526V22.1735H7.1122V20.5Z" fill="black"/>
<path d="M37.2347 20.5H22.1735V22.1735H37.2347V20.5Z" fill="black"/>
<path d="M7.1122 22.1738H3.76526V23.8473H7.1122V22.1738Z" fill="black"/>
<path d="M37.2347 22.1738H23.8469V23.8473H37.2347V22.1738Z" fill="black"/>
<path d="M8.78567 23.8467H3.76526V25.5201H8.78567V23.8467Z" fill="black"/>
<path d="M37.2346 23.8467H32.2142V25.5201H37.2346V23.8467Z" fill="black"/>
<path d="M8.78567 25.5205H3.76526V27.194H8.78567V25.5205Z" fill="black"/>
<path d="M37.2346 25.5205H32.2142V27.194H37.2346V25.5205Z" fill="black"/>
<path d="M10.4591 27.1943H5.43872V28.8678H10.4591V27.1943Z" fill="black"/>
<path d="M35.5612 27.1943H30.5408V28.8678H35.5612V27.1943Z" fill="black"/>
<path d="M10.4592 28.8672H7.1123V30.5407H10.4592V28.8672Z" fill="black"/>
<path d="M33.8877 28.8672H30.5408V30.5407H33.8877V28.8672Z" fill="black"/>
<path d="M13.8062 30.541H7.1123V32.2145H13.8062V30.541Z" fill="black"/>
<path d="M33.8877 30.541H27.1938V32.2145H33.8877V30.541Z" fill="black"/>
<path d="M17.1531 32.2139H8.78577V33.8873H17.1531V32.2139Z" fill="black"/>
<path d="M32.2143 32.2139H23.8469V33.8873H32.2143V32.2139Z" fill="black"/>
<path d="M28.8674 33.8877H12.1327V35.5612H28.8674V33.8877Z" fill="black"/>
<path d="M27.1939 35.5615H13.8062V37.235H27.1939V35.5615Z" fill="black"/>
</svg>
