<svg width="40" height="41" viewBox="0 0 40 41" fill="none" xmlns="http://www.w3.org/2000/svg">
<path d="M21.6326 2.0918H18.3673V3.76527H21.6326V2.0918Z" fill="black"/>
<path d="M21.6326 3.76562H18.3673V5.43909H21.6326V3.76562Z" fill="black"/>
<path d="M21.6326 5.43848H18.3673V7.11195H21.6326V5.43848Z" fill="black"/>
<path d="M10.204 7.1123H6.93872V8.78577H10.204V7.1123Z" fill="black"/>
<path d="M21.6326 7.1123H18.3673V8.78577H21.6326V7.1123Z" fill="black"/>
<path d="M33.0612 7.1123H29.7959V8.78577H33.0612V7.1123Z" fill="black"/>
<path d="M11.8367 8.78613H6.93872V10.4596H11.8367V8.78613Z" fill="black"/>
<path d="M33.0612 8.78613H28.1632V10.4596H33.0612V8.78613Z" fill="black"/>
<path d="M11.8367 10.459H8.57141V12.1325H11.8367V10.459Z" fill="black"/>
<path d="M31.4285 10.459H28.1632V12.1325H31.4285V10.459Z" fill="black"/>
<path d="M23.2654 12.1328H16.7347V13.8063H23.2654V12.1328Z" fill="black"/>
<path d="M26.5306 13.8057H13.4694V15.4791H26.5306V13.8057Z" fill="black"/>
<path d="M18.3673 15.4795H13.4694V17.153H18.3673V15.4795Z" fill="black"/>
<path d="M26.5306 15.4795H21.6327V17.153H26.5306V15.4795Z" fill="black"/>
<path d="M16.7348 17.1533H11.8368V18.8268H16.7348V17.1533Z" fill="black"/>
<path d="M28.1632 17.1533H23.2653V18.8268H28.1632V17.1533Z" fill="black"/>
<path d="M8.57138 18.8262H2.04077V20.4996H8.57138V18.8262Z" fill="black"/>
<path d="M15.1021 18.8262H11.8368V20.4996H15.1021V18.8262Z" fill="black"/>
<path d="M28.1633 18.8262H24.8979V20.4996H28.1633V18.8262Z" fill="black"/>
<path d="M37.9592 18.8262H31.4286V20.4996H37.9592V18.8262Z" fill="black"/>
<path d="M8.57138 20.5H2.04077V22.1735H8.57138V20.5Z" fill="black"/>
<path d="M15.1021 20.5H11.8368V22.1735H15.1021V20.5Z" fill="black"/>
<path d="M28.1633 20.5H24.8979V22.1735H28.1633V20.5Z" fill="black"/>
<path d="M37.9592 20.5H31.4286V22.1735H37.9592V20.5Z" fill="black"/>
<path d="M16.7348 22.1738H11.8368V23.8473H16.7348V22.1738Z" fill="black"/>
<path d="M28.1632 22.1738H23.2653V23.8473H28.1632V22.1738Z" fill="black"/>
<path d="M18.3673 23.8467H13.4694V25.5201H18.3673V23.8467Z" fill="black"/>
<path d="M26.5306 23.8467H21.6327V25.5201H26.5306V23.8467Z" fill="black"/>
<path d="M26.5306 25.5205H13.4694V27.194H26.5306V25.5205Z" fill="black"/>
<path d="M23.2654 27.1943H16.7347V28.8678H23.2654V27.1943Z" fill="black"/>
<path d="M11.8367 28.8672H8.57141V30.5407H11.8367V28.8672Z" fill="black"/>
<path d="M31.4285 28.8672H28.1632V30.5407H31.4285V28.8672Z" fill="black"/>
<path d="M11.8367 30.541H6.93872V32.2145H11.8367V30.541Z" fill="black"/>
<path d="M33.0612 30.541H28.1632V32.2145H33.0612V30.541Z" fill="black"/>
<path d="M10.204 32.2139H6.93872V33.8873H10.204V32.2139Z" fill="black"/>
<path d="M21.6326 32.2139H18.3673V33.8873H21.6326V32.2139Z" fill="black"/>
<path d="M33.0612 32.2139H29.7959V33.8873H33.0612V32.2139Z" fill="black"/>
<path d="M21.6326 33.8877H18.3673V35.5612H21.6326V33.8877Z" fill="black"/>
<path d="M21.6326 35.5615H18.3673V37.235H21.6326V35.5615Z" fill="black"/>
<path d="M21.6326 37.2344H18.3673V38.9078H21.6326V37.2344Z" fill="black"/>
</svg>
