<svg width="41" height="41" viewBox="0 0 41 41" fill="none" xmlns="http://www.w3.org/2000/svg">
<path d="M22.1735 2.0918H18.8265V3.76527H22.1735V2.0918Z" fill="black"/>
<path d="M23.847 3.76562H17.1531V5.43909H23.847V3.76562Z" fill="black"/>
<path d="M25.5204 5.43848H15.4796V7.11195H25.5204V5.43848Z" fill="black"/>
<path d="M27.1939 7.1123H13.8062V8.78577H27.1939V7.1123Z" fill="black"/>
<path d="M17.1531 8.78613H12.1327V10.4596H17.1531V8.78613Z" fill="black"/>
<path d="M22.1735 8.78613H18.8265V10.4596H22.1735V8.78613Z" fill="black"/>
<path d="M28.8673 8.78613H23.8469V10.4596H28.8673V8.78613Z" fill="black"/>
<path d="M15.4796 10.459H12.1327V12.1325H15.4796V10.459Z" fill="black"/>
<path d="M22.1735 10.459H18.8265V12.1325H22.1735V10.459Z" fill="black"/>
<path d="M28.8673 10.459H25.5204V12.1325H28.8673V10.459Z" fill="black"/>
<path d="M22.1735 12.1328H18.8265V13.8063H22.1735V12.1328Z" fill="black"/>
<path d="M22.1735 13.8057H18.8265V15.4791H22.1735V13.8057Z" fill="black"/>
<path d="M22.1735 15.4795H18.8265V17.153H22.1735V15.4795Z" fill="black"/>
<path d="M10.4592 17.1533H7.1123V18.8268H10.4592V17.1533Z" fill="black"/>
<path d="M22.1735 17.1533H18.8265V18.8268H22.1735V17.1533Z" fill="black"/>
<path d="M33.8877 17.1533H30.5408V18.8268H33.8877V17.1533Z" fill="black"/>
<path d="M12.1327 18.8262H7.1123V20.4996H12.1327V18.8262Z" fill="black"/>
<path d="M33.8877 18.8262H28.8673V20.4996H33.8877V18.8262Z" fill="black"/>
<path d="M12.1327 20.5H8.78577V22.1735H12.1327V20.5Z" fill="black"/>
<path d="M32.2142 20.5H28.8673V22.1735H32.2142V20.5Z" fill="black"/>
<path d="M23.847 22.1738H17.1531V23.8473H23.847V22.1738Z" fill="black"/>
<path d="M27.1939 23.8467H13.8062V25.5201H27.1939V23.8467Z" fill="black"/>
<path d="M18.8266 25.5205H13.8062V27.194H18.8266V25.5205Z" fill="black"/>
<path d="M27.1939 25.5205H22.1735V27.194H27.1939V25.5205Z" fill="black"/>
<path d="M17.1531 27.1943H12.1327V28.8678H17.1531V27.1943Z" fill="black"/>
<path d="M28.8673 27.1943H23.8469V28.8678H28.8673V27.1943Z" fill="black"/>
<path d="M8.78567 28.8672H2.0918V30.5407H8.78567V28.8672Z" fill="black"/>
<path d="M15.4796 28.8672H12.1327V30.5407H15.4796V28.8672Z" fill="black"/>
<path d="M28.8673 28.8672H25.5204V30.5407H28.8673V28.8672Z" fill="black"/>
<path d="M38.9081 28.8672H32.2142V30.5407H38.9081V28.8672Z" fill="black"/>
<path d="M8.78567 30.541H2.0918V32.2145H8.78567V30.541Z" fill="black"/>
<path d="M15.4796 30.541H12.1327V32.2145H15.4796V30.541Z" fill="black"/>
<path d="M28.8673 30.541H25.5204V32.2145H28.8673V30.541Z" fill="black"/>
<path d="M38.9081 30.541H32.2142V32.2145H38.9081V30.541Z" fill="black"/>
<path d="M38.9081 35.5615H2.0918V37.235H38.9081V35.5615Z" fill="black"/>
<path d="M38.9081 37.2344H2.0918V38.9078H38.9081V37.2344Z" fill="black"/>
</svg>
