<svg width="40" height="40" viewBox="0 0 40 40" fill="none" xmlns="http://www.w3.org/2000/svg">
<path d="M21.6327 2.04102H18.3674V3.67367H21.6327V2.04102Z" fill="black"/>
<path d="M21.6327 3.67383H18.3674V5.30648H21.6327V3.67383Z" fill="black"/>
<path d="M21.6327 5.30566H18.3674V6.93832H21.6327V5.30566Z" fill="black"/>
<path d="M21.6327 6.93848H18.3674V8.57113H21.6327V6.93848Z" fill="black"/>
<path d="M15.102 8.57129H11.8367V10.2039H15.102V8.57129Z" fill="black"/>
<path d="M21.6327 8.57129H18.3674V10.2039H21.6327V8.57129Z" fill="black"/>
<path d="M28.1633 8.57129H24.8979V10.2039H28.1633V8.57129Z" fill="black"/>
<path d="M16.7347 10.2041H11.8367V11.8368H16.7347V10.2041Z" fill="black"/>
<path d="M21.6327 10.2041H18.3674V11.8368H21.6327V10.2041Z" fill="black"/>
<path d="M28.1633 10.2041H23.2653V11.8368H28.1633V10.2041Z" fill="black"/>
<path d="M26.5306 11.8369H13.4694V13.4696H26.5306V11.8369Z" fill="black"/>
<path d="M24.898 13.4697H15.1021V15.1024H24.898V13.4697Z" fill="black"/>
<path d="M23.2653 15.1016H16.7347V16.7342H23.2653V15.1016Z" fill="black"/>
<path d="M10.2041 16.7344H6.93878V18.367H10.2041V16.7344Z" fill="black"/>
<path d="M21.6327 16.7344H18.3674V18.367H21.6327V16.7344Z" fill="black"/>
<path d="M33.0612 16.7344H29.7959V18.367H33.0612V16.7344Z" fill="black"/>
<path d="M11.8367 18.3672H6.93878V19.9998H11.8367V18.3672Z" fill="black"/>
<path d="M33.0612 18.3672H28.1633V19.9998H33.0612V18.3672Z" fill="black"/>
<path d="M11.8367 20H8.57141V21.6327H11.8367V20Z" fill="black"/>
<path d="M31.4286 20H28.1633V21.6327H31.4286V20Z" fill="black"/>
<path d="M23.2653 21.6328H16.7347V23.2655H23.2653V21.6328Z" fill="black"/>
<path d="M26.5306 23.2656H13.4694V24.8983H26.5306V23.2656Z" fill="black"/>
<path d="M18.3673 24.8984H13.4694V26.5311H18.3673V24.8984Z" fill="black"/>
<path d="M26.5306 24.8984H21.6326V26.5311H26.5306V24.8984Z" fill="black"/>
<path d="M16.7347 26.5303H11.8367V28.1629H16.7347V26.5303Z" fill="black"/>
<path d="M28.1633 26.5303H23.2653V28.1629H28.1633V26.5303Z" fill="black"/>
<path d="M8.57144 28.1631H2.04083V29.7957H8.57144V28.1631Z" fill="black"/>
<path d="M15.102 28.1631H11.8367V29.7957H15.102V28.1631Z" fill="black"/>
<path d="M28.1633 28.1631H24.8979V29.7957H28.1633V28.1631Z" fill="black"/>
<path d="M37.9592 28.1631H31.4286V29.7957H37.9592V28.1631Z" fill="black"/>
<path d="M8.57144 29.7959H2.04083V31.4286H8.57144V29.7959Z" fill="black"/>
<path d="M15.102 29.7959H11.8367V31.4286H15.102V29.7959Z" fill="black"/>
<path d="M28.1633 29.7959H24.8979V31.4286H28.1633V29.7959Z" fill="black"/>
<path d="M37.9592 29.7959H31.4286V31.4286H37.9592V29.7959Z" fill="black"/>
<path d="M37.9592 34.6943H2.04083V36.327H37.9592V34.6943Z" fill="black"/>
<path d="M37.9592 36.3262H2.04083V37.9588H37.9592V36.3262Z" fill="black"/>
</svg>
