<svg width="41" height="41" viewBox="0 0 41 41" fill="none" xmlns="http://www.w3.org/2000/svg">
<path d="M22.1735 5.43848H15.4796V7.11195H22.1735V5.43848Z" fill="black"/>
<path d="M23.847 7.1123H15.4796V8.78577H23.847V7.1123Z" fill="black"/>
<path d="M23.8469 8.78613H20.5V10.4596H23.8469V8.78613Z" fill="black"/>
<path d="M23.8469 10.459H20.5V12.1325H23.8469V10.459Z" fill="black"/>
<path d="M35.5612 10.459H30.5408V12.1325H35.5612V10.459Z" fill="black"/>
<path d="M23.8469 12.1328H2.0918V13.8063H23.8469V12.1328Z" fill="black"/>
<path d="M37.2347 12.1328H28.8673V13.8063H37.2347V12.1328Z" fill="black"/>
<path d="M22.1734 13.8057H2.0918V15.4791H22.1734V13.8057Z" fill="black"/>
<path d="M32.2142 13.8057H28.8673V15.4791H32.2142V13.8057Z" fill="black"/>
<path d="M38.9081 13.8057H33.8877V15.4791H38.9081V13.8057Z" fill="black"/>
<path d="M38.9082 15.4795H35.5613V17.153H38.9082V15.4795Z" fill="black"/>
<path d="M38.9081 17.1533H33.8877V18.8268H38.9081V17.1533Z" fill="black"/>
<path d="M37.2347 18.8262H2.0918V20.4996H37.2347V18.8262Z" fill="black"/>
<path d="M35.5612 20.5H2.0918V22.1735H35.5612V20.5Z" fill="black"/>
<path d="M27.1938 25.5205H2.0918V27.194H27.1938V25.5205Z" fill="black"/>
<path d="M28.8673 27.1943H2.0918V28.8678H28.8673V27.1943Z" fill="black"/>
<path d="M28.8673 28.8672H25.5204V30.5407H28.8673V28.8672Z" fill="black"/>
<path d="M28.8673 30.541H25.5204V32.2145H28.8673V30.541Z" fill="black"/>
<path d="M28.8673 32.2139H20.5V33.8873H28.8673V32.2139Z" fill="black"/>
<path d="M27.1939 33.8877H20.5V35.5612H27.1939V33.8877Z" fill="black"/>
</svg>
