<svg width="24" height="24" viewBox="0 0 24 24" fill="none" xmlns="http://www.w3.org/2000/svg">
<path d="M13.971 4.28502C14.2745 4.10292 14.6209 4.00462 14.9748 4.00016C15.3287 3.99569 15.6774 4.08522 15.9854 4.2596C16.2934 4.43398 16.5496 4.68697 16.7279 4.99274C16.9061 5.2985 17 5.64609 17 6.00002V18C17 18.3539 16.9061 18.7015 16.7279 19.0073C16.5496 19.3131 16.2934 19.5661 15.9854 19.7404C15.6774 19.9148 15.3287 20.0043 14.9748 19.9999C14.6209 19.9954 14.2745 19.8971 13.971 19.715L3.97402 13.717C3.67725 13.5397 3.43151 13.2885 3.26077 12.9879C3.09003 12.6873 3.00012 12.3476 2.99982 12.0019C2.99952 11.6562 3.08883 11.3163 3.25904 11.0154C3.42926 10.7145 3.67456 10.4628 3.97102 10.285L13.971 4.28502Z" fill="#DDDDDD" stroke="#1C1F21" stroke-width="2" stroke-linecap="round" stroke-linejoin="round"/>
<path d="M21 20V4" stroke="#1C1F21" stroke-width="2" stroke-linecap="round" stroke-linejoin="round"/>
</svg>
