<svg width="40" height="41" viewBox="0 0 40 41" fill="none" xmlns="http://www.w3.org/2000/svg">
<path d="M21.6326 3.76562H18.3673V5.43909H21.6326V3.76562Z" fill="black"/>
<path d="M21.6326 5.43848H18.3673V7.11195H21.6326V5.43848Z" fill="black"/>
<path d="M21.6326 7.1123H18.3673V8.78577H21.6326V7.1123Z" fill="black"/>
<path d="M21.6326 8.78613H18.3673V10.4596H21.6326V8.78613Z" fill="black"/>
<path d="M21.6326 10.459H18.3673V12.1325H21.6326V10.459Z" fill="black"/>
<path d="M21.6326 12.1328H18.3673V13.8063H21.6326V12.1328Z" fill="black"/>
<path d="M21.6326 13.8057H18.3673V15.4791H21.6326V13.8057Z" fill="black"/>
<path d="M21.6326 15.4795H18.3673V17.153H21.6326V15.4795Z" fill="black"/>
<path d="M11.8367 17.1533H8.57141V18.8268H11.8367V17.1533Z" fill="black"/>
<path d="M21.6326 17.1533H18.3673V18.8268H21.6326V17.1533Z" fill="black"/>
<path d="M31.4285 17.1533H28.1632V18.8268H31.4285V17.1533Z" fill="black"/>
<path d="M13.4694 18.8262H8.57141V20.4996H13.4694V18.8262Z" fill="black"/>
<path d="M21.6326 18.8262H18.3673V20.4996H21.6326V18.8262Z" fill="black"/>
<path d="M31.4286 18.8262H26.5306V20.4996H31.4286V18.8262Z" fill="black"/>
<path d="M15.1021 20.5H10.2041V22.1735H15.1021V20.5Z" fill="black"/>
<path d="M21.6326 20.5H18.3673V22.1735H21.6326V20.5Z" fill="black"/>
<path d="M29.7959 20.5H24.8979V22.1735H29.7959V20.5Z" fill="black"/>
<path d="M16.7348 22.1738H11.8368V23.8473H16.7348V22.1738Z" fill="black"/>
<path d="M21.6326 22.1738H18.3673V23.8473H21.6326V22.1738Z" fill="black"/>
<path d="M28.1632 22.1738H23.2653V23.8473H28.1632V22.1738Z" fill="black"/>
<path d="M26.5306 23.8467H13.4694V25.5201H26.5306V23.8467Z" fill="black"/>
<path d="M24.898 25.5205H15.1021V27.194H24.898V25.5205Z" fill="black"/>
<path d="M23.2654 27.1943H16.7347V28.8678H23.2654V27.1943Z" fill="black"/>
<path d="M21.6326 28.8672H18.3673V30.5407H21.6326V28.8672Z" fill="black"/>
<path d="M33.0612 33.8877H6.93872V35.5612H33.0612V33.8877Z" fill="black"/>
<path d="M33.0612 35.5615H6.93872V37.235H33.0612V35.5615Z" fill="black"/>
</svg>
