<svg width="41" height="41" viewBox="0 0 41 41" fill="none" xmlns="http://www.w3.org/2000/svg">
<path d="M15.4796 3.76562H12.1327V5.43909H15.4796V3.76562Z" fill="black"/>
<path d="M15.4796 5.43848H10.4592V7.11195H15.4796V5.43848Z" fill="black"/>
<path d="M13.8062 7.1123H8.78577V8.78577H13.8062V7.1123Z" fill="black"/>
<path d="M12.1327 8.78613H7.1123V10.4596H12.1327V8.78613Z" fill="black"/>
<path d="M35.5612 10.459H5.43872V12.1325H35.5612V10.459Z" fill="black"/>
<path d="M35.5612 12.1328H5.43872V13.8063H35.5612V12.1328Z" fill="black"/>
<path d="M12.1327 13.8057H7.1123V15.4791H12.1327V13.8057Z" fill="black"/>
<path d="M13.8062 15.4795H8.78577V17.153H13.8062V15.4795Z" fill="black"/>
<path d="M15.4796 17.1533H10.4592V18.8268H15.4796V17.1533Z" fill="black"/>
<path d="M15.4796 18.8262H12.1327V20.4996H15.4796V18.8262Z" fill="black"/>
<path d="M28.8673 20.5H25.5204V22.1735H28.8673V20.5Z" fill="black"/>
<path d="M30.5408 22.1738H25.5204V23.8473H30.5408V22.1738Z" fill="black"/>
<path d="M32.2143 23.8467H27.1938V25.5201H32.2143V23.8467Z" fill="black"/>
<path d="M33.8877 25.5205H28.8673V27.194H33.8877V25.5205Z" fill="black"/>
<path d="M35.5612 27.1943H5.43872V28.8678H35.5612V27.1943Z" fill="black"/>
<path d="M35.5612 28.8672H5.43872V30.5407H35.5612V28.8672Z" fill="black"/>
<path d="M33.8877 30.541H28.8673V32.2145H33.8877V30.541Z" fill="black"/>
<path d="M32.2143 32.2139H27.1938V33.8873H32.2143V32.2139Z" fill="black"/>
<path d="M30.5408 33.8877H25.5204V35.5612H30.5408V33.8877Z" fill="black"/>
<path d="M28.8673 35.5615H25.5204V37.235H28.8673V35.5615Z" fill="black"/>
</svg>
