<svg width="40" height="40" viewBox="0 0 40 40" fill="none" xmlns="http://www.w3.org/2000/svg">
<path d="M21.6326 3.67383H18.3673V5.30648H21.6326V3.67383Z" fill="black"/>
<path d="M23.2654 5.30566H16.7347V6.93832H23.2654V5.30566Z" fill="black"/>
<path d="M24.898 6.93848H15.1021V8.57113H24.898V6.93848Z" fill="black"/>
<path d="M26.5306 8.57129H13.4694V10.2039H26.5306V8.57129Z" fill="black"/>
<path d="M16.7348 10.2041H11.8368V11.8368H16.7348V10.2041Z" fill="black"/>
<path d="M21.6326 10.2041H18.3673V11.8368H21.6326V10.2041Z" fill="black"/>
<path d="M28.1632 10.2041H23.2653V11.8368H28.1632V10.2041Z" fill="black"/>
<path d="M15.1021 11.8369H10.2041V13.4696H15.1021V11.8369Z" fill="black"/>
<path d="M21.6326 11.8369H18.3673V13.4696H21.6326V11.8369Z" fill="black"/>
<path d="M29.7959 11.8369H24.8979V13.4696H29.7959V11.8369Z" fill="black"/>
<path d="M13.4694 13.4697H8.57141V15.1024H13.4694V13.4697Z" fill="black"/>
<path d="M21.6326 13.4697H18.3673V15.1024H21.6326V13.4697Z" fill="black"/>
<path d="M31.4286 13.4697H26.5306V15.1024H31.4286V13.4697Z" fill="black"/>
<path d="M11.8367 15.1016H8.57141V16.7342H11.8367V15.1016Z" fill="black"/>
<path d="M21.6326 15.1016H18.3673V16.7342H21.6326V15.1016Z" fill="black"/>
<path d="M31.4285 15.1016H28.1632V16.7342H31.4285V15.1016Z" fill="black"/>
<path d="M21.6326 16.7344H18.3673V18.367H21.6326V16.7344Z" fill="black"/>
<path d="M21.6326 18.3672H18.3673V19.9998H21.6326V18.3672Z" fill="black"/>
<path d="M21.6326 20H18.3673V21.6327H21.6326V20Z" fill="black"/>
<path d="M21.6326 21.6328H18.3673V23.2655H21.6326V21.6328Z" fill="black"/>
<path d="M21.6326 23.2656H18.3673V24.8983H21.6326V23.2656Z" fill="black"/>
<path d="M21.6326 24.8984H18.3673V26.5311H21.6326V24.8984Z" fill="black"/>
<path d="M21.6326 26.5303H18.3673V28.1629H21.6326V26.5303Z" fill="black"/>
<path d="M21.6326 28.1631H18.3673V29.7957H21.6326V28.1631Z" fill="black"/>
<path d="M33.0612 33.0615H6.93872V34.6942H33.0612V33.0615Z" fill="black"/>
<path d="M33.0612 34.6943H6.93872V36.327H33.0612V34.6943Z" fill="black"/>
</svg>
