<svg width="41" height="40" viewBox="0 0 41 40" fill="none" xmlns="http://www.w3.org/2000/svg">
<path d="M22.1735 6.93848H18.8265V8.57113H22.1735V6.93848Z" fill="black"/>
<path d="M22.1735 8.57129H17.1531V10.2039H22.1735V8.57129Z" fill="black"/>
<path d="M20.5 10.2041H15.4796V11.8368H20.5V10.2041Z" fill="black"/>
<path d="M18.8266 11.8369H13.8062V13.4696H18.8266V11.8369Z" fill="black"/>
<path d="M17.1531 13.4697H12.1327V15.1024H17.1531V13.4697Z" fill="black"/>
<path d="M15.4796 15.1016H10.4592V16.7342H15.4796V15.1016Z" fill="black"/>
<path d="M13.8062 16.7344H8.78577V18.367H13.8062V16.7344Z" fill="black"/>
<path d="M33.8878 18.3672H7.1123V19.9998H33.8878V18.3672Z" fill="black"/>
<path d="M33.8878 20H7.1123V21.6327H33.8878V20Z" fill="black"/>
<path d="M13.8062 21.6328H8.78577V23.2655H13.8062V21.6328Z" fill="black"/>
<path d="M15.4796 23.2656H10.4592V24.8983H15.4796V23.2656Z" fill="black"/>
<path d="M17.1531 24.8984H12.1327V26.5311H17.1531V24.8984Z" fill="black"/>
<path d="M18.8266 26.5303H13.8062V28.1629H18.8266V26.5303Z" fill="black"/>
<path d="M20.5 28.1631H15.4796V29.7957H20.5V28.1631Z" fill="black"/>
<path d="M22.1735 29.7959H17.1531V31.4286H22.1735V29.7959Z" fill="black"/>
<path d="M22.1735 31.4287H18.8265V33.0614H22.1735V31.4287Z" fill="black"/>
</svg>
