<svg width="41" height="41" viewBox="0 0 41 41" fill="none" xmlns="http://www.w3.org/2000/svg">
<path d="M13.8062 10.459H10.4592V12.1325H13.8062V10.459Z" fill="black"/>
<path d="M30.5408 10.459H27.1938V12.1325H30.5408V10.459Z" fill="black"/>
<path d="M15.4796 12.1328H10.4592V13.8063H15.4796V12.1328Z" fill="black"/>
<path d="M30.5408 12.1328H27.1938V13.8063H30.5408V12.1328Z" fill="black"/>
<path d="M17.1531 13.8057H12.1327V15.4791H17.1531V13.8057Z" fill="black"/>
<path d="M30.5408 13.8057H27.1938V15.4791H30.5408V13.8057Z" fill="black"/>
<path d="M18.8266 15.4795H13.8062V17.153H18.8266V15.4795Z" fill="black"/>
<path d="M30.5408 15.4795H27.1938V17.153H30.5408V15.4795Z" fill="black"/>
<path d="M20.5 17.1533H15.4796V18.8268H20.5V17.1533Z" fill="black"/>
<path d="M30.5408 17.1533H27.1938V18.8268H30.5408V17.1533Z" fill="black"/>
<path d="M22.1735 18.8262H17.1531V20.4996H22.1735V18.8262Z" fill="black"/>
<path d="M30.5408 18.8262H27.1938V20.4996H30.5408V18.8262Z" fill="black"/>
<path d="M23.8469 20.5H18.8265V22.1735H23.8469V20.5Z" fill="black"/>
<path d="M30.5408 20.5H27.1938V22.1735H30.5408V20.5Z" fill="black"/>
<path d="M25.5204 22.1738H20.5V23.8473H25.5204V22.1738Z" fill="black"/>
<path d="M30.5408 22.1738H27.1938V23.8473H30.5408V22.1738Z" fill="black"/>
<path d="M30.5408 23.8467H22.1735V25.5201H30.5408V23.8467Z" fill="black"/>
<path d="M30.5408 25.5205H23.8469V27.194H30.5408V25.5205Z" fill="black"/>
<path d="M30.5409 27.1943H10.4592V28.8678H30.5409V27.1943Z" fill="black"/>
<path d="M30.5409 28.8672H10.4592V30.5407H30.5409V28.8672Z" fill="black"/>
</svg>
