<svg width="40" height="41" viewBox="0 0 40 41" fill="none" xmlns="http://www.w3.org/2000/svg">
<path d="M13.4694 10.459H10.2041V12.1325H13.4694V10.459Z" fill="black"/>
<path d="M29.7959 10.459H26.5306V12.1325H29.7959V10.459Z" fill="black"/>
<path d="M13.4694 12.1328H10.2041V13.8063H13.4694V12.1328Z" fill="black"/>
<path d="M29.7959 12.1328H24.8979V13.8063H29.7959V12.1328Z" fill="black"/>
<path d="M13.4694 13.8057H10.2041V15.4791H13.4694V13.8057Z" fill="black"/>
<path d="M28.1632 13.8057H23.2653V15.4791H28.1632V13.8057Z" fill="black"/>
<path d="M13.4694 15.4795H10.2041V17.153H13.4694V15.4795Z" fill="black"/>
<path d="M26.5306 15.4795H21.6327V17.153H26.5306V15.4795Z" fill="black"/>
<path d="M13.4694 17.1533H10.2041V18.8268H13.4694V17.1533Z" fill="black"/>
<path d="M24.898 17.1533H20V18.8268H24.898V17.1533Z" fill="black"/>
<path d="M13.4694 18.8262H10.2041V20.4996H13.4694V18.8262Z" fill="black"/>
<path d="M23.2653 18.8262H18.3673V20.4996H23.2653V18.8262Z" fill="black"/>
<path d="M13.4694 20.5H10.2041V22.1735H13.4694V20.5Z" fill="black"/>
<path d="M21.6327 20.5H16.7347V22.1735H21.6327V20.5Z" fill="black"/>
<path d="M13.4694 22.1738H10.2041V23.8473H13.4694V22.1738Z" fill="black"/>
<path d="M20 22.1738H15.1021V23.8473H20V22.1738Z" fill="black"/>
<path d="M18.3674 23.8467H10.2041V25.5201H18.3674V23.8467Z" fill="black"/>
<path d="M16.7347 25.5205H10.2041V27.194H16.7347V25.5205Z" fill="black"/>
<path d="M29.7959 27.1943H10.2041V28.8678H29.7959V27.1943Z" fill="black"/>
<path d="M29.7959 28.8672H10.2041V30.5407H29.7959V28.8672Z" fill="black"/>
</svg>
