<svg width="40" height="40" viewBox="0 0 40 40" fill="none" xmlns="http://www.w3.org/2000/svg">
<path d="M29.7959 10.2041H10.2041V11.8368H29.7959V10.2041Z" fill="black"/>
<path d="M29.7959 11.8369H10.2041V13.4696H29.7959V11.8369Z" fill="black"/>
<path d="M16.7347 13.4697H10.2041V15.1024H16.7347V13.4697Z" fill="black"/>
<path d="M18.3674 15.1016H10.2041V16.7342H18.3674V15.1016Z" fill="black"/>
<path d="M13.4694 16.7344H10.2041V18.367H13.4694V16.7344Z" fill="black"/>
<path d="M20 16.7344H15.1021V18.367H20V16.7344Z" fill="black"/>
<path d="M13.4694 18.3672H10.2041V19.9998H13.4694V18.3672Z" fill="black"/>
<path d="M21.6327 18.3672H16.7347V19.9998H21.6327V18.3672Z" fill="black"/>
<path d="M13.4694 20H10.2041V21.6327H13.4694V20Z" fill="black"/>
<path d="M23.2653 20H18.3673V21.6327H23.2653V20Z" fill="black"/>
<path d="M13.4694 21.6328H10.2041V23.2655H13.4694V21.6328Z" fill="black"/>
<path d="M24.898 21.6328H20V23.2655H24.898V21.6328Z" fill="black"/>
<path d="M13.4694 23.2656H10.2041V24.8983H13.4694V23.2656Z" fill="black"/>
<path d="M26.5306 23.2656H21.6327V24.8983H26.5306V23.2656Z" fill="black"/>
<path d="M13.4694 24.8984H10.2041V26.5311H13.4694V24.8984Z" fill="black"/>
<path d="M28.1632 24.8984H23.2653V26.5311H28.1632V24.8984Z" fill="black"/>
<path d="M13.4694 26.5303H10.2041V28.1629H13.4694V26.5303Z" fill="black"/>
<path d="M29.7959 26.5303H24.8979V28.1629H29.7959V26.5303Z" fill="black"/>
<path d="M13.4694 28.1631H10.2041V29.7957H13.4694V28.1631Z" fill="black"/>
<path d="M29.7959 28.1631H26.5306V29.7957H29.7959V28.1631Z" fill="black"/>
</svg>
