<svg width="40" height="40" viewBox="0 0 40 40" fill="none" xmlns="http://www.w3.org/2000/svg">
<path d="M21.6326 6.93848H18.3673V8.57113H21.6326V6.93848Z" fill="black"/>
<path d="M23.2654 8.57129H16.7347V10.2039H23.2654V8.57129Z" fill="black"/>
<path d="M24.898 10.2041H15.1021V11.8368H24.898V10.2041Z" fill="black"/>
<path d="M26.5306 11.8369H13.4694V13.4696H26.5306V11.8369Z" fill="black"/>
<path d="M16.7348 13.4697H11.8368V15.1024H16.7348V13.4697Z" fill="black"/>
<path d="M21.6326 13.4697H18.3673V15.1024H21.6326V13.4697Z" fill="black"/>
<path d="M28.1632 13.4697H23.2653V15.1024H28.1632V13.4697Z" fill="black"/>
<path d="M15.1021 15.1016H10.2041V16.7342H15.1021V15.1016Z" fill="black"/>
<path d="M21.6326 15.1016H18.3673V16.7342H21.6326V15.1016Z" fill="black"/>
<path d="M29.7959 15.1016H24.8979V16.7342H29.7959V15.1016Z" fill="black"/>
<path d="M13.4694 16.7344H8.57141V18.367H13.4694V16.7344Z" fill="black"/>
<path d="M21.6326 16.7344H18.3673V18.367H21.6326V16.7344Z" fill="black"/>
<path d="M31.4286 16.7344H26.5306V18.367H31.4286V16.7344Z" fill="black"/>
<path d="M11.8367 18.3672H6.93872V19.9998H11.8367V18.3672Z" fill="black"/>
<path d="M21.6326 18.3672H18.3673V19.9998H21.6326V18.3672Z" fill="black"/>
<path d="M33.0612 18.3672H28.1632V19.9998H33.0612V18.3672Z" fill="black"/>
<path d="M10.204 20H6.93872V21.6327H10.204V20Z" fill="black"/>
<path d="M21.6326 20H18.3673V21.6327H21.6326V20Z" fill="black"/>
<path d="M33.0612 20H29.7959V21.6327H33.0612V20Z" fill="black"/>
<path d="M21.6326 21.6328H18.3673V23.2655H21.6326V21.6328Z" fill="black"/>
<path d="M21.6326 23.2656H18.3673V24.8983H21.6326V23.2656Z" fill="black"/>
<path d="M21.6326 24.8984H18.3673V26.5311H21.6326V24.8984Z" fill="black"/>
<path d="M21.6326 26.5303H18.3673V28.1629H21.6326V26.5303Z" fill="black"/>
<path d="M21.6326 28.1631H18.3673V29.7957H21.6326V28.1631Z" fill="black"/>
<path d="M21.6326 29.7959H18.3673V31.4286H21.6326V29.7959Z" fill="black"/>
<path d="M21.6326 31.4287H18.3673V33.0614H21.6326V31.4287Z" fill="black"/>
</svg>
