<svg width="41" height="40" viewBox="0 0 41 40" fill="none" xmlns="http://www.w3.org/2000/svg">
<path d="M13.8062 5.30566H10.4592V6.93832H13.8062V5.30566Z" fill="black"/>
<path d="M30.5408 5.30566H27.1938V6.93832H30.5408V5.30566Z" fill="black"/>
<path d="M15.4796 6.93848H8.78577V8.57113H15.4796V6.93848Z" fill="black"/>
<path d="M30.5408 6.93848H27.1938V8.57113H30.5408V6.93848Z" fill="black"/>
<path d="M17.1531 8.57129H7.1123V10.2039H17.1531V8.57129Z" fill="black"/>
<path d="M30.5408 8.57129H27.1938V10.2039H30.5408V8.57129Z" fill="black"/>
<path d="M18.8265 10.2041H5.43872V11.8368H18.8265V10.2041Z" fill="black"/>
<path d="M30.5408 10.2041H27.1938V11.8368H30.5408V10.2041Z" fill="black"/>
<path d="M8.78567 11.8369H3.76526V13.4696H8.78567V11.8369Z" fill="black"/>
<path d="M13.8062 11.8369H10.4592V13.4696H13.8062V11.8369Z" fill="black"/>
<path d="M20.5 11.8369H15.4796V13.4696H20.5V11.8369Z" fill="black"/>
<path d="M30.5408 11.8369H27.1938V13.4696H30.5408V11.8369Z" fill="black"/>
<path d="M7.1122 13.4697H3.76526V15.1024H7.1122V13.4697Z" fill="black"/>
<path d="M13.8062 13.4697H10.4592V15.1024H13.8062V13.4697Z" fill="black"/>
<path d="M20.5 13.4697H17.1531V15.1024H20.5V13.4697Z" fill="black"/>
<path d="M30.5408 13.4697H27.1938V15.1024H30.5408V13.4697Z" fill="black"/>
<path d="M13.8062 15.1016H10.4592V16.7342H13.8062V15.1016Z" fill="black"/>
<path d="M30.5408 15.1016H27.1938V16.7342H30.5408V15.1016Z" fill="black"/>
<path d="M13.8062 16.7344H10.4592V18.367H13.8062V16.7344Z" fill="black"/>
<path d="M30.5408 16.7344H27.1938V18.367H30.5408V16.7344Z" fill="black"/>
<path d="M13.8062 18.3672H10.4592V19.9998H13.8062V18.3672Z" fill="black"/>
<path d="M30.5408 18.3672H27.1938V19.9998H30.5408V18.3672Z" fill="black"/>
<path d="M13.8062 20H10.4592V21.6327H13.8062V20Z" fill="black"/>
<path d="M30.5408 20H27.1938V21.6327H30.5408V20Z" fill="black"/>
<path d="M13.8062 21.6328H10.4592V23.2655H13.8062V21.6328Z" fill="black"/>
<path d="M30.5408 21.6328H27.1938V23.2655H30.5408V21.6328Z" fill="black"/>
<path d="M13.8062 23.2656H10.4592V24.8983H13.8062V23.2656Z" fill="black"/>
<path d="M30.5408 23.2656H27.1938V24.8983H30.5408V23.2656Z" fill="black"/>
<path d="M13.8062 24.8984H10.4592V26.5311H13.8062V24.8984Z" fill="black"/>
<path d="M23.8469 24.8984H20.5V26.5311H23.8469V24.8984Z" fill="black"/>
<path d="M30.5408 24.8984H27.1938V26.5311H30.5408V24.8984Z" fill="black"/>
<path d="M37.2346 24.8984H33.8877V26.5311H37.2346V24.8984Z" fill="black"/>
<path d="M13.8062 26.5303H10.4592V28.1629H13.8062V26.5303Z" fill="black"/>
<path d="M25.5204 26.5303H20.5V28.1629H25.5204V26.5303Z" fill="black"/>
<path d="M30.5408 26.5303H27.1938V28.1629H30.5408V26.5303Z" fill="black"/>
<path d="M37.2346 26.5303H32.2142V28.1629H37.2346V26.5303Z" fill="black"/>
<path d="M13.8062 28.1631H10.4592V29.7957H13.8062V28.1631Z" fill="black"/>
<path d="M35.5612 28.1631H22.1735V29.7957H35.5612V28.1631Z" fill="black"/>
<path d="M13.8062 29.7959H10.4592V31.4286H13.8062V29.7959Z" fill="black"/>
<path d="M33.8877 29.7959H23.8469V31.4286H33.8877V29.7959Z" fill="black"/>
<path d="M13.8062 31.4287H10.4592V33.0614H13.8062V31.4287Z" fill="black"/>
<path d="M32.2143 31.4287H25.5204V33.0614H32.2143V31.4287Z" fill="black"/>
<path d="M13.8062 33.0615H10.4592V34.6942H13.8062V33.0615Z" fill="black"/>
<path d="M30.5408 33.0615H27.1938V34.6942H30.5408V33.0615Z" fill="black"/>
</svg>
