<svg width="41" height="40" viewBox="0 0 41 40" fill="none" xmlns="http://www.w3.org/2000/svg">
<path d="M22.1735 6.93848H18.8265V8.57113H22.1735V6.93848Z" fill="black"/>
<path d="M23.8469 8.57129H18.8265V10.2039H23.8469V8.57129Z" fill="black"/>
<path d="M25.5204 10.2041H20.5V11.8368H25.5204V10.2041Z" fill="black"/>
<path d="M27.1939 11.8369H22.1735V13.4696H27.1939V11.8369Z" fill="black"/>
<path d="M28.8673 13.4697H23.8469V15.1024H28.8673V13.4697Z" fill="black"/>
<path d="M30.5408 15.1016H25.5204V16.7342H30.5408V15.1016Z" fill="black"/>
<path d="M32.2143 16.7344H27.1938V18.367H32.2143V16.7344Z" fill="black"/>
<path d="M33.8878 18.3672H7.1123V19.9998H33.8878V18.3672Z" fill="black"/>
<path d="M33.8878 20H7.1123V21.6327H33.8878V20Z" fill="black"/>
<path d="M32.2143 21.6328H27.1938V23.2655H32.2143V21.6328Z" fill="black"/>
<path d="M30.5408 23.2656H25.5204V24.8983H30.5408V23.2656Z" fill="black"/>
<path d="M28.8673 24.8984H23.8469V26.5311H28.8673V24.8984Z" fill="black"/>
<path d="M27.1939 26.5303H22.1735V28.1629H27.1939V26.5303Z" fill="black"/>
<path d="M25.5204 28.1631H20.5V29.7957H25.5204V28.1631Z" fill="black"/>
<path d="M23.8469 29.7959H18.8265V31.4286H23.8469V29.7959Z" fill="black"/>
<path d="M22.1735 31.4287H18.8265V33.0614H22.1735V31.4287Z" fill="black"/>
</svg>
