<svg width="40" height="41" viewBox="0 0 40 41" fill="none" xmlns="http://www.w3.org/2000/svg">
<path d="M21.6326 7.1123H18.3673V8.78577H21.6326V7.1123Z" fill="black"/>
<path d="M21.6326 8.78613H18.3673V10.4596H21.6326V8.78613Z" fill="black"/>
<path d="M21.6326 10.459H18.3673V12.1325H21.6326V10.459Z" fill="black"/>
<path d="M21.6326 12.1328H18.3673V13.8063H21.6326V12.1328Z" fill="black"/>
<path d="M21.6326 13.8057H18.3673V15.4791H21.6326V13.8057Z" fill="black"/>
<path d="M21.6326 15.4795H18.3673V17.153H21.6326V15.4795Z" fill="black"/>
<path d="M21.6326 17.1533H18.3673V18.8268H21.6326V17.1533Z" fill="black"/>
<path d="M10.204 18.8262H6.93872V20.4996H10.204V18.8262Z" fill="black"/>
<path d="M21.6326 18.8262H18.3673V20.4996H21.6326V18.8262Z" fill="black"/>
<path d="M33.0612 18.8262H29.7959V20.4996H33.0612V18.8262Z" fill="black"/>
<path d="M11.8367 20.5H6.93872V22.1735H11.8367V20.5Z" fill="black"/>
<path d="M21.6326 20.5H18.3673V22.1735H21.6326V20.5Z" fill="black"/>
<path d="M33.0612 20.5H28.1632V22.1735H33.0612V20.5Z" fill="black"/>
<path d="M13.4694 22.1738H8.57141V23.8473H13.4694V22.1738Z" fill="black"/>
<path d="M21.6326 22.1738H18.3673V23.8473H21.6326V22.1738Z" fill="black"/>
<path d="M31.4286 22.1738H26.5306V23.8473H31.4286V22.1738Z" fill="black"/>
<path d="M15.1021 23.8467H10.2041V25.5201H15.1021V23.8467Z" fill="black"/>
<path d="M21.6326 23.8467H18.3673V25.5201H21.6326V23.8467Z" fill="black"/>
<path d="M29.7959 23.8467H24.8979V25.5201H29.7959V23.8467Z" fill="black"/>
<path d="M16.7348 25.5205H11.8368V27.194H16.7348V25.5205Z" fill="black"/>
<path d="M21.6326 25.5205H18.3673V27.194H21.6326V25.5205Z" fill="black"/>
<path d="M28.1632 25.5205H23.2653V27.194H28.1632V25.5205Z" fill="black"/>
<path d="M26.5306 27.1943H13.4694V28.8678H26.5306V27.1943Z" fill="black"/>
<path d="M24.898 28.8672H15.1021V30.5407H24.898V28.8672Z" fill="black"/>
<path d="M23.2654 30.541H16.7347V32.2145H23.2654V30.541Z" fill="black"/>
<path d="M21.6326 32.2139H18.3673V33.8873H21.6326V32.2139Z" fill="black"/>
</svg>
