<svg width="41" height="40" viewBox="0 0 41 40" fill="none" xmlns="http://www.w3.org/2000/svg">
<path d="M30.5409 10.2041H10.4592V11.8368H30.5409V10.2041Z" fill="black"/>
<path d="M30.5409 11.8369H10.4592V13.4696H30.5409V11.8369Z" fill="black"/>
<path d="M30.5408 13.4697H23.8469V15.1024H30.5408V13.4697Z" fill="black"/>
<path d="M30.5408 15.1016H22.1735V16.7342H30.5408V15.1016Z" fill="black"/>
<path d="M25.5204 16.7344H20.5V18.367H25.5204V16.7344Z" fill="black"/>
<path d="M30.5408 16.7344H27.1938V18.367H30.5408V16.7344Z" fill="black"/>
<path d="M23.8469 18.3672H18.8265V19.9998H23.8469V18.3672Z" fill="black"/>
<path d="M30.5408 18.3672H27.1938V19.9998H30.5408V18.3672Z" fill="black"/>
<path d="M22.1735 20H17.1531V21.6327H22.1735V20Z" fill="black"/>
<path d="M30.5408 20H27.1938V21.6327H30.5408V20Z" fill="black"/>
<path d="M20.5 21.6328H15.4796V23.2655H20.5V21.6328Z" fill="black"/>
<path d="M30.5408 21.6328H27.1938V23.2655H30.5408V21.6328Z" fill="black"/>
<path d="M18.8266 23.2656H13.8062V24.8983H18.8266V23.2656Z" fill="black"/>
<path d="M30.5408 23.2656H27.1938V24.8983H30.5408V23.2656Z" fill="black"/>
<path d="M17.1531 24.8984H12.1327V26.5311H17.1531V24.8984Z" fill="black"/>
<path d="M30.5408 24.8984H27.1938V26.5311H30.5408V24.8984Z" fill="black"/>
<path d="M15.4796 26.5303H10.4592V28.1629H15.4796V26.5303Z" fill="black"/>
<path d="M30.5408 26.5303H27.1938V28.1629H30.5408V26.5303Z" fill="black"/>
<path d="M13.8062 28.1631H10.4592V29.7957H13.8062V28.1631Z" fill="black"/>
<path d="M30.5408 28.1631H27.1938V29.7957H30.5408V28.1631Z" fill="black"/>
</svg>
