<svg width="40" height="40" viewBox="0 0 40 40" fill="none" xmlns="http://www.w3.org/2000/svg">
<path d="M11.8367 13.4697H8.57141V15.1024H11.8367V13.4697Z" fill="black"/>
<path d="M31.4285 13.4697H28.1632V15.1024H31.4285V13.4697Z" fill="black"/>
<path d="M13.4694 15.1016H8.57141V16.7342H13.4694V15.1016Z" fill="black"/>
<path d="M31.4286 15.1016H26.5306V16.7342H31.4286V15.1016Z" fill="black"/>
<path d="M15.1021 16.7344H10.2041V18.367H15.1021V16.7344Z" fill="black"/>
<path d="M29.7959 16.7344H24.8979V18.367H29.7959V16.7344Z" fill="black"/>
<path d="M16.7348 18.3672H11.8368V19.9998H16.7348V18.3672Z" fill="black"/>
<path d="M28.1632 18.3672H23.2653V19.9998H28.1632V18.3672Z" fill="black"/>
<path d="M18.3673 20H13.4694V21.6327H18.3673V20Z" fill="black"/>
<path d="M26.5306 20H21.6327V21.6327H26.5306V20Z" fill="black"/>
<path d="M24.898 21.6328H15.1021V23.2655H24.898V21.6328Z" fill="black"/>
<path d="M23.2654 23.2656H16.7347V24.8983H23.2654V23.2656Z" fill="black"/>
<path d="M21.6326 24.8984H18.3673V26.5311H21.6326V24.8984Z" fill="black"/>
</svg>
