<svg width="41" height="40" viewBox="0 0 41 40" fill="none" xmlns="http://www.w3.org/2000/svg">
<path d="M27.1939 8.57129H23.8469V10.2039H27.1939V8.57129Z" fill="black"/>
<path d="M27.1939 10.2041H22.1735V11.8368H27.1939V10.2041Z" fill="black"/>
<path d="M25.5204 11.8369H20.5V13.4696H25.5204V11.8369Z" fill="black"/>
<path d="M23.8469 13.4697H18.8265V15.1024H23.8469V13.4697Z" fill="black"/>
<path d="M22.1735 15.1016H17.1531V16.7342H22.1735V15.1016Z" fill="black"/>
<path d="M20.5 16.7344H15.4796V18.367H20.5V16.7344Z" fill="black"/>
<path d="M18.8266 18.3672H13.8062V19.9998H18.8266V18.3672Z" fill="black"/>
<path d="M18.8266 20H13.8062V21.6327H18.8266V20Z" fill="black"/>
<path d="M20.5 21.6328H15.4796V23.2655H20.5V21.6328Z" fill="black"/>
<path d="M22.1735 23.2656H17.1531V24.8983H22.1735V23.2656Z" fill="black"/>
<path d="M23.8469 24.8984H18.8265V26.5311H23.8469V24.8984Z" fill="black"/>
<path d="M25.5204 26.5303H20.5V28.1629H25.5204V26.5303Z" fill="black"/>
<path d="M27.1939 28.1631H22.1735V29.7957H27.1939V28.1631Z" fill="black"/>
<path d="M27.1939 29.7959H23.8469V31.4286H27.1939V29.7959Z" fill="black"/>
</svg>
