<svg width="40" height="40" viewBox="0 0 40 40" fill="none" xmlns="http://www.w3.org/2000/svg">
<path d="M21.6326 13.4697H18.3673V15.1024H21.6326V13.4697Z" fill="black"/>
<path d="M23.2654 15.1016H16.7347V16.7342H23.2654V15.1016Z" fill="black"/>
<path d="M24.898 16.7344H15.1021V18.367H24.898V16.7344Z" fill="black"/>
<path d="M18.3673 18.3672H13.4694V19.9998H18.3673V18.3672Z" fill="black"/>
<path d="M26.5306 18.3672H21.6327V19.9998H26.5306V18.3672Z" fill="black"/>
<path d="M16.7348 20H11.8368V21.6327H16.7348V20Z" fill="black"/>
<path d="M28.1632 20H23.2653V21.6327H28.1632V20Z" fill="black"/>
<path d="M15.1021 21.6328H10.2041V23.2655H15.1021V21.6328Z" fill="black"/>
<path d="M29.7959 21.6328H24.8979V23.2655H29.7959V21.6328Z" fill="black"/>
<path d="M13.4694 23.2656H8.57141V24.8983H13.4694V23.2656Z" fill="black"/>
<path d="M31.4286 23.2656H26.5306V24.8983H31.4286V23.2656Z" fill="black"/>
<path d="M11.8367 24.8984H8.57141V26.5311H11.8367V24.8984Z" fill="black"/>
<path d="M31.4285 24.8984H28.1632V26.5311H31.4285V24.8984Z" fill="black"/>
</svg>
