<svg width="40" height="40" viewBox="0 0 40 40" fill="none" xmlns="http://www.w3.org/2000/svg">
<path d="M16.7347 8.57129H13.4694V10.2039H16.7347V8.57129Z" fill="black"/>
<path d="M18.3673 10.2041H13.4694V11.8368H18.3673V10.2041Z" fill="black"/>
<path d="M20 11.8369H15.1021V13.4696H20V11.8369Z" fill="black"/>
<path d="M21.6327 13.4697H16.7347V15.1024H21.6327V13.4697Z" fill="black"/>
<path d="M23.2653 15.1016H18.3673V16.7342H23.2653V15.1016Z" fill="black"/>
<path d="M24.898 16.7344H20V18.367H24.898V16.7344Z" fill="black"/>
<path d="M26.5306 18.3672H21.6327V19.9998H26.5306V18.3672Z" fill="black"/>
<path d="M26.5306 20H21.6327V21.6327H26.5306V20Z" fill="black"/>
<path d="M24.898 21.6328H20V23.2655H24.898V21.6328Z" fill="black"/>
<path d="M23.2653 23.2656H18.3673V24.8983H23.2653V23.2656Z" fill="black"/>
<path d="M21.6327 24.8984H16.7347V26.5311H21.6327V24.8984Z" fill="black"/>
<path d="M20 26.5303H15.1021V28.1629H20V26.5303Z" fill="black"/>
<path d="M18.3673 28.1631H13.4694V29.7957H18.3673V28.1631Z" fill="black"/>
<path d="M16.7347 29.7959H13.4694V31.4286H16.7347V29.7959Z" fill="black"/>
</svg>
