<svg width="40" height="40" viewBox="0 0 40 40" fill="none" xmlns="http://www.w3.org/2000/svg">
<path d="M8.57146 5.30566H5.30615V6.93832H8.57146V5.30566Z" fill="black"/>
<path d="M8.57146 6.93848H5.30615V8.57113H8.57146V6.93848Z" fill="black"/>
<path d="M8.57146 8.57129H5.30615V10.2039H8.57146V8.57129Z" fill="black"/>
<path d="M8.57146 10.2041H5.30615V11.8368H8.57146V10.2041Z" fill="black"/>
<path d="M8.57146 11.8369H5.30615V13.4696H8.57146V11.8369Z" fill="black"/>
<path d="M8.57146 13.4697H5.30615V15.1024H8.57146V13.4697Z" fill="black"/>
<path d="M8.57146 15.1016H5.30615V16.7342H8.57146V15.1016Z" fill="black"/>
<path d="M26.5306 15.1016H23.2653V16.7342H26.5306V15.1016Z" fill="black"/>
<path d="M8.57146 16.7344H5.30615V18.367H8.57146V16.7344Z" fill="black"/>
<path d="M28.1632 16.7344H23.2653V18.367H28.1632V16.7344Z" fill="black"/>
<path d="M8.57146 18.3672H5.30615V19.9998H8.57146V18.3672Z" fill="black"/>
<path d="M29.7959 18.3672H24.8979V19.9998H29.7959V18.3672Z" fill="black"/>
<path d="M10.2041 20H5.30615V21.6327H10.2041V20Z" fill="black"/>
<path d="M31.4286 20H26.5306V21.6327H31.4286V20Z" fill="black"/>
<path d="M11.8367 21.6328H6.93872V23.2655H11.8367V21.6328Z" fill="black"/>
<path d="M33.0612 21.6328H28.1632V23.2655H33.0612V21.6328Z" fill="black"/>
<path d="M34.6938 23.2656H6.93872V24.8983H34.6938V23.2656Z" fill="black"/>
<path d="M34.6939 24.8984H10.2041V26.5311H34.6939V24.8984Z" fill="black"/>
<path d="M33.0612 26.5303H28.1632V28.1629H33.0612V26.5303Z" fill="black"/>
<path d="M31.4286 28.1631H26.5306V29.7957H31.4286V28.1631Z" fill="black"/>
<path d="M29.7959 29.7959H24.8979V31.4286H29.7959V29.7959Z" fill="black"/>
<path d="M28.1632 31.4287H23.2653V33.0614H28.1632V31.4287Z" fill="black"/>
<path d="M26.5306 33.0615H23.2653V34.6942H26.5306V33.0615Z" fill="black"/>
</svg>
