<svg width="40" height="40" viewBox="0 0 40 40" fill="none" xmlns="http://www.w3.org/2000/svg">
<path d="M21.6327 2.04102H18.3674V3.67367H21.6327V2.04102Z" fill="black"/>
<path d="M23.2653 3.67383H16.7347V5.30648H23.2653V3.67383Z" fill="black"/>
<path d="M24.898 5.30566H15.1021V6.93832H24.898V5.30566Z" fill="black"/>
<path d="M26.5306 6.93848H13.4694V8.57113H26.5306V6.93848Z" fill="black"/>
<path d="M16.7347 8.57129H13.4694V10.2039H16.7347V8.57129Z" fill="black"/>
<path d="M21.6327 8.57129H18.3674V10.2039H21.6327V8.57129Z" fill="black"/>
<path d="M26.5306 8.57129H23.2653V10.2039H26.5306V8.57129Z" fill="black"/>
<path d="M21.6327 10.2041H18.3674V11.8368H21.6327V10.2041Z" fill="black"/>
<path d="M21.6327 11.8369H18.3674V13.4696H21.6327V11.8369Z" fill="black"/>
<path d="M10.2041 13.4697H6.93878V15.1024H10.2041V13.4697Z" fill="black"/>
<path d="M21.6327 13.4697H18.3674V15.1024H21.6327V13.4697Z" fill="black"/>
<path d="M33.0612 13.4697H29.7959V15.1024H33.0612V13.4697Z" fill="black"/>
<path d="M10.2041 15.1016H5.30615V16.7342H10.2041V15.1016Z" fill="black"/>
<path d="M21.6327 15.1016H18.3674V16.7342H21.6327V15.1016Z" fill="black"/>
<path d="M34.6939 15.1016H29.7959V16.7342H34.6939V15.1016Z" fill="black"/>
<path d="M8.57142 16.7344H3.67346V18.367H8.57142V16.7344Z" fill="black"/>
<path d="M21.6327 16.7344H18.3674V18.367H21.6327V16.7344Z" fill="black"/>
<path d="M36.3265 16.7344H31.4286V18.367H36.3265V16.7344Z" fill="black"/>
<path d="M37.9592 18.3672H2.04083V19.9998H37.9592V18.3672Z" fill="black"/>
<path d="M37.9592 20H2.04083V21.6327H37.9592V20Z" fill="black"/>
<path d="M8.57142 21.6328H3.67346V23.2655H8.57142V21.6328Z" fill="black"/>
<path d="M21.6327 21.6328H18.3674V23.2655H21.6327V21.6328Z" fill="black"/>
<path d="M36.3265 21.6328H31.4286V23.2655H36.3265V21.6328Z" fill="black"/>
<path d="M10.2041 23.2656H5.30615V24.8983H10.2041V23.2656Z" fill="black"/>
<path d="M21.6327 23.2656H18.3674V24.8983H21.6327V23.2656Z" fill="black"/>
<path d="M34.6939 23.2656H29.7959V24.8983H34.6939V23.2656Z" fill="black"/>
<path d="M10.2041 24.8984H6.93878V26.5311H10.2041V24.8984Z" fill="black"/>
<path d="M21.6327 24.8984H18.3674V26.5311H21.6327V24.8984Z" fill="black"/>
<path d="M33.0612 24.8984H29.7959V26.5311H33.0612V24.8984Z" fill="black"/>
<path d="M21.6327 26.5303H18.3674V28.1629H21.6327V26.5303Z" fill="black"/>
<path d="M21.6327 28.1631H18.3674V29.7957H21.6327V28.1631Z" fill="black"/>
<path d="M16.7347 29.7959H13.4694V31.4286H16.7347V29.7959Z" fill="black"/>
<path d="M21.6327 29.7959H18.3674V31.4286H21.6327V29.7959Z" fill="black"/>
<path d="M26.5306 29.7959H23.2653V31.4286H26.5306V29.7959Z" fill="black"/>
<path d="M26.5306 31.4287H13.4694V33.0614H26.5306V31.4287Z" fill="black"/>
<path d="M24.898 33.0615H15.1021V34.6942H24.898V33.0615Z" fill="black"/>
<path d="M23.2653 34.6943H16.7347V36.327H23.2653V34.6943Z" fill="black"/>
<path d="M21.6327 36.3262H18.3674V37.9588H21.6327V36.3262Z" fill="black"/>
</svg>
