<svg width="40" height="40" viewBox="0 0 40 40" fill="none" xmlns="http://www.w3.org/2000/svg">
<path d="M6.93877 3.67383H3.67346V5.30648H6.93877V3.67383Z" fill="black"/>
<path d="M26.5306 3.67383H13.4694V5.30648H26.5306V3.67383Z" fill="black"/>
<path d="M6.93877 5.30566H3.67346V6.93832H6.93877V5.30566Z" fill="black"/>
<path d="M28.1633 5.30566H10.2041V6.93832H28.1633V5.30566Z" fill="black"/>
<path d="M6.93877 6.93848H3.67346V8.57113H6.93877V6.93848Z" fill="black"/>
<path d="M16.7347 6.93848H8.57141V8.57113H16.7347V6.93848Z" fill="black"/>
<path d="M31.4286 6.93848H23.2653V8.57113H31.4286V6.93848Z" fill="black"/>
<path d="M11.8367 8.57129H3.67346V10.2039H11.8367V8.57129Z" fill="black"/>
<path d="M33.0613 8.57129H26.5306V10.2039H33.0613V8.57129Z" fill="black"/>
<path d="M10.2041 10.2041H3.67346V11.8368H10.2041V10.2041Z" fill="black"/>
<path d="M33.0612 10.2041H29.7959V11.8368H33.0612V10.2041Z" fill="black"/>
<path d="M15.102 11.8369H3.67346V13.4696H15.102V11.8369Z" fill="black"/>
<path d="M34.6939 11.8369H29.7959V13.4696H34.6939V11.8369Z" fill="black"/>
<path d="M15.102 13.4697H3.67346V15.1024H15.102V13.4697Z" fill="black"/>
<path d="M36.3265 13.4697H31.4286V15.1024H36.3265V13.4697Z" fill="black"/>
<path d="M36.3265 15.1016H31.4286V16.7342H36.3265V15.1016Z" fill="black"/>
<path d="M36.3265 16.7344H33.0612V18.367H36.3265V16.7344Z" fill="black"/>
<path d="M6.93877 18.3672H3.67346V19.9998H6.93877V18.3672Z" fill="black"/>
<path d="M36.3265 18.3672H33.0612V19.9998H36.3265V18.3672Z" fill="black"/>
<path d="M6.93877 20H3.67346V21.6327H6.93877V20Z" fill="black"/>
<path d="M36.3265 20H33.0612V21.6327H36.3265V20Z" fill="black"/>
<path d="M6.93877 21.6328H3.67346V23.2655H6.93877V21.6328Z" fill="black"/>
<path d="M36.3265 21.6328H33.0612V23.2655H36.3265V21.6328Z" fill="black"/>
<path d="M8.57142 23.2656H3.67346V24.8983H8.57142V23.2656Z" fill="black"/>
<path d="M36.3265 23.2656H31.4286V24.8983H36.3265V23.2656Z" fill="black"/>
<path d="M8.57142 24.8984H3.67346V26.5311H8.57142V24.8984Z" fill="black"/>
<path d="M36.3265 24.8984H31.4286V26.5311H36.3265V24.8984Z" fill="black"/>
<path d="M10.2041 26.5303H5.30615V28.1629H10.2041V26.5303Z" fill="black"/>
<path d="M34.6939 26.5303H29.7959V28.1629H34.6939V26.5303Z" fill="black"/>
<path d="M10.2041 28.1631H6.93878V29.7957H10.2041V28.1631Z" fill="black"/>
<path d="M33.0612 28.1631H29.7959V29.7957H33.0612V28.1631Z" fill="black"/>
<path d="M13.4694 29.7959H6.93878V31.4286H13.4694V29.7959Z" fill="black"/>
<path d="M33.0613 29.7959H26.5306V31.4286H33.0613V29.7959Z" fill="black"/>
<path d="M16.7347 31.4287H8.57141V33.0614H16.7347V31.4287Z" fill="black"/>
<path d="M31.4286 31.4287H23.2653V33.0614H31.4286V31.4287Z" fill="black"/>
<path d="M28.1633 33.0615H11.8367V34.6942H28.1633V33.0615Z" fill="black"/>
<path d="M26.5306 34.6943H13.4694V36.327H26.5306V34.6943Z" fill="black"/>
</svg>
