<svg width="41" height="40" viewBox="0 0 41 40" fill="none" xmlns="http://www.w3.org/2000/svg">
<path d="M27.1939 3.67383H13.8062V5.30648H27.1939V3.67383Z" fill="black"/>
<path d="M37.2347 3.67383H33.8878V5.30648H37.2347V3.67383Z" fill="black"/>
<path d="M30.5408 5.30566H12.1326V6.93832H30.5408V5.30566Z" fill="black"/>
<path d="M37.2347 5.30566H33.8878V6.93832H37.2347V5.30566Z" fill="black"/>
<path d="M17.1531 6.93848H8.78571V8.57113H17.1531V6.93848Z" fill="black"/>
<path d="M32.2143 6.93848H23.8469V8.57113H32.2143V6.93848Z" fill="black"/>
<path d="M37.2347 6.93848H33.8878V8.57113H37.2347V6.93848Z" fill="black"/>
<path d="M13.8061 8.57129H7.11224V10.2039H13.8061V8.57129Z" fill="black"/>
<path d="M37.2347 8.57129H28.8674V10.2039H37.2347V8.57129Z" fill="black"/>
<path d="M10.4592 10.2041H7.11224V11.8368H10.4592V10.2041Z" fill="black"/>
<path d="M37.2347 10.2041H30.5408V11.8368H37.2347V10.2041Z" fill="black"/>
<path d="M10.4592 11.8369H5.43878V13.4696H10.4592V11.8369Z" fill="black"/>
<path d="M37.2347 11.8369H25.5204V13.4696H37.2347V11.8369Z" fill="black"/>
<path d="M8.78573 13.4697H3.76532V15.1024H8.78573V13.4697Z" fill="black"/>
<path d="M37.2347 13.4697H25.5204V15.1024H37.2347V13.4697Z" fill="black"/>
<path d="M8.78573 15.1016H3.76532V16.7342H8.78573V15.1016Z" fill="black"/>
<path d="M7.11226 16.7344H3.76532V18.367H7.11226V16.7344Z" fill="black"/>
<path d="M7.11226 18.3672H3.76532V19.9998H7.11226V18.3672Z" fill="black"/>
<path d="M37.2347 18.3672H33.8878V19.9998H37.2347V18.3672Z" fill="black"/>
<path d="M7.11226 20H3.76532V21.6327H7.11226V20Z" fill="black"/>
<path d="M37.2347 20H33.8878V21.6327H37.2347V20Z" fill="black"/>
<path d="M7.11226 21.6328H3.76532V23.2655H7.11226V21.6328Z" fill="black"/>
<path d="M37.2347 21.6328H33.8878V23.2655H37.2347V21.6328Z" fill="black"/>
<path d="M8.78573 23.2656H3.76532V24.8983H8.78573V23.2656Z" fill="black"/>
<path d="M37.2347 23.2656H32.2143V24.8983H37.2347V23.2656Z" fill="black"/>
<path d="M8.78573 24.8984H3.76532V26.5311H8.78573V24.8984Z" fill="black"/>
<path d="M37.2347 24.8984H32.2143V26.5311H37.2347V24.8984Z" fill="black"/>
<path d="M10.4592 26.5303H5.43878V28.1629H10.4592V26.5303Z" fill="black"/>
<path d="M35.5612 26.5303H30.5408V28.1629H35.5612V26.5303Z" fill="black"/>
<path d="M10.4592 28.1631H7.11224V29.7957H10.4592V28.1631Z" fill="black"/>
<path d="M33.8878 28.1631H30.5408V29.7957H33.8878V28.1631Z" fill="black"/>
<path d="M13.8061 29.7959H7.11224V31.4286H13.8061V29.7959Z" fill="black"/>
<path d="M33.8877 29.7959H27.1938V31.4286H33.8877V29.7959Z" fill="black"/>
<path d="M17.1531 31.4287H8.78571V33.0614H17.1531V31.4287Z" fill="black"/>
<path d="M32.2143 31.4287H23.8469V33.0614H32.2143V31.4287Z" fill="black"/>
<path d="M28.8673 33.0615H12.1326V34.6942H28.8673V33.0615Z" fill="black"/>
<path d="M27.1939 34.6943H13.8062V36.327H27.1939V34.6943Z" fill="black"/>
</svg>
