<svg width="40" height="40" viewBox="0 0 40 40" fill="none" xmlns="http://www.w3.org/2000/svg">
<path d="M11.8368 5.30566H5.30615V6.93832H11.8368V5.30566Z" fill="black"/>
<path d="M36.3266 5.30566H33.0613V6.93832H36.3266V5.30566Z" fill="black"/>
<path d="M15.102 6.93848H3.67346V8.57113H15.102V6.93848Z" fill="black"/>
<path d="M36.3266 6.93848H33.0613V8.57113H36.3266V6.93848Z" fill="black"/>
<path d="M6.93877 8.57129H3.67346V10.2039H6.93877V8.57129Z" fill="black"/>
<path d="M16.7347 8.57129H10.2041V10.2039H16.7347V8.57129Z" fill="black"/>
<path d="M36.3266 8.57129H33.0613V10.2039H36.3266V8.57129Z" fill="black"/>
<path d="M6.93877 10.2041H3.67346V11.8368H6.93877V10.2041Z" fill="black"/>
<path d="M20 10.2041H13.4694V11.8368H20V10.2041Z" fill="black"/>
<path d="M36.3266 10.2041H33.0613V11.8368H36.3266V10.2041Z" fill="black"/>
<path d="M6.93877 11.8369H3.67346V13.4696H6.93877V11.8369Z" fill="black"/>
<path d="M23.2653 11.8369H15.1021V13.4696H23.2653V11.8369Z" fill="black"/>
<path d="M36.3266 11.8369H33.0613V13.4696H36.3266V11.8369Z" fill="black"/>
<path d="M6.93877 13.4697H3.67346V15.1024H6.93877V13.4697Z" fill="black"/>
<path d="M24.8979 13.4697H18.3673V15.1024H24.8979V13.4697Z" fill="black"/>
<path d="M36.3266 13.4697H33.0613V15.1024H36.3266V13.4697Z" fill="black"/>
<path d="M6.93877 15.1016H3.67346V16.7342H6.93877V15.1016Z" fill="black"/>
<path d="M28.1633 15.1016H21.6327V16.7342H28.1633V15.1016Z" fill="black"/>
<path d="M36.3266 15.1016H33.0613V16.7342H36.3266V15.1016Z" fill="black"/>
<path d="M6.93877 16.7344H3.67346V18.367H6.93877V16.7344Z" fill="black"/>
<path d="M29.7959 16.7344H23.2653V18.367H29.7959V16.7344Z" fill="black"/>
<path d="M36.3266 16.7344H33.0613V18.367H36.3266V16.7344Z" fill="black"/>
<path d="M6.93877 18.3672H3.67346V19.9998H6.93877V18.3672Z" fill="black"/>
<path d="M29.7959 18.3672H26.5306V19.9998H29.7959V18.3672Z" fill="black"/>
<path d="M36.3266 18.3672H33.0613V19.9998H36.3266V18.3672Z" fill="black"/>
<path d="M6.93877 20H3.67346V21.6327H6.93877V20Z" fill="black"/>
<path d="M29.7959 20H26.5306V21.6327H29.7959V20Z" fill="black"/>
<path d="M36.3266 20H33.0613V21.6327H36.3266V20Z" fill="black"/>
<path d="M6.93877 21.6328H3.67346V23.2655H6.93877V21.6328Z" fill="black"/>
<path d="M29.7959 21.6328H23.2653V23.2655H29.7959V21.6328Z" fill="black"/>
<path d="M36.3266 21.6328H33.0613V23.2655H36.3266V21.6328Z" fill="black"/>
<path d="M6.93877 23.2656H3.67346V24.8983H6.93877V23.2656Z" fill="black"/>
<path d="M28.1633 23.2656H21.6327V24.8983H28.1633V23.2656Z" fill="black"/>
<path d="M36.3266 23.2656H33.0613V24.8983H36.3266V23.2656Z" fill="black"/>
<path d="M6.93877 24.8984H3.67346V26.5311H6.93877V24.8984Z" fill="black"/>
<path d="M24.8979 24.8984H18.3673V26.5311H24.8979V24.8984Z" fill="black"/>
<path d="M36.3266 24.8984H33.0613V26.5311H36.3266V24.8984Z" fill="black"/>
<path d="M6.93877 26.5303H3.67346V28.1629H6.93877V26.5303Z" fill="black"/>
<path d="M23.2653 26.5303H15.1021V28.1629H23.2653V26.5303Z" fill="black"/>
<path d="M36.3266 26.5303H33.0613V28.1629H36.3266V26.5303Z" fill="black"/>
<path d="M6.93877 28.1631H3.67346V29.7957H6.93877V28.1631Z" fill="black"/>
<path d="M20 28.1631H13.4694V29.7957H20V28.1631Z" fill="black"/>
<path d="M36.3266 28.1631H33.0613V29.7957H36.3266V28.1631Z" fill="black"/>
<path d="M6.93877 29.7959H3.67346V31.4286H6.93877V29.7959Z" fill="black"/>
<path d="M16.7347 29.7959H10.2041V31.4286H16.7347V29.7959Z" fill="black"/>
<path d="M36.3266 29.7959H33.0613V31.4286H36.3266V29.7959Z" fill="black"/>
<path d="M15.102 31.4287H3.67346V33.0614H15.102V31.4287Z" fill="black"/>
<path d="M36.3266 31.4287H33.0613V33.0614H36.3266V31.4287Z" fill="black"/>
<path d="M11.8368 33.0615H5.30615V34.6942H11.8368V33.0615Z" fill="black"/>
<path d="M36.3266 33.0615H33.0613V34.6942H36.3266V33.0615Z" fill="black"/>
</svg>
