<svg width="41" height="41" viewBox="0 0 41 41" fill="none" xmlns="http://www.w3.org/2000/svg">
<path d="M28.8673 5.43848H22.1735V7.11195H28.8673V5.43848Z" fill="black"/>
<path d="M37.2346 5.43848H33.8877V7.11195H37.2346V5.43848Z" fill="black"/>
<path d="M30.5408 7.1123H18.8265V8.78577H30.5408V7.1123Z" fill="black"/>
<path d="M37.2346 7.1123H33.8877V8.78577H37.2346V7.1123Z" fill="black"/>
<path d="M23.847 8.78613H17.1531V10.4596H23.847V8.78613Z" fill="black"/>
<path d="M30.5408 8.78613H27.1938V10.4596H30.5408V8.78613Z" fill="black"/>
<path d="M37.2346 8.78613H33.8877V10.4596H37.2346V8.78613Z" fill="black"/>
<path d="M20.5 10.459H13.8062V12.1325H20.5V10.459Z" fill="black"/>
<path d="M30.5408 10.459H27.1938V12.1325H30.5408V10.459Z" fill="black"/>
<path d="M37.2346 10.459H33.8877V12.1325H37.2346V10.459Z" fill="black"/>
<path d="M18.8266 12.1328H10.4592V13.8063H18.8266V12.1328Z" fill="black"/>
<path d="M30.5408 12.1328H27.1938V13.8063H30.5408V12.1328Z" fill="black"/>
<path d="M37.2346 12.1328H33.8877V13.8063H37.2346V12.1328Z" fill="black"/>
<path d="M15.4796 13.8057H8.78577V15.4791H15.4796V13.8057Z" fill="black"/>
<path d="M30.5408 13.8057H27.1938V15.4791H30.5408V13.8057Z" fill="black"/>
<path d="M37.2346 13.8057H33.8877V15.4791H37.2346V13.8057Z" fill="black"/>
<path d="M12.1326 15.4795H5.43872V17.153H12.1326V15.4795Z" fill="black"/>
<path d="M30.5408 15.4795H27.1938V17.153H30.5408V15.4795Z" fill="black"/>
<path d="M37.2346 15.4795H33.8877V17.153H37.2346V15.4795Z" fill="black"/>
<path d="M10.4591 17.1533H3.76526V18.8268H10.4591V17.1533Z" fill="black"/>
<path d="M30.5408 17.1533H27.1938V18.8268H30.5408V17.1533Z" fill="black"/>
<path d="M37.2346 17.1533H33.8877V18.8268H37.2346V17.1533Z" fill="black"/>
<path d="M7.1122 18.8262H3.76526V20.4996H7.1122V18.8262Z" fill="black"/>
<path d="M30.5408 18.8262H27.1938V20.4996H30.5408V18.8262Z" fill="black"/>
<path d="M37.2346 18.8262H33.8877V20.4996H37.2346V18.8262Z" fill="black"/>
<path d="M7.1122 20.5H3.76526V22.1735H7.1122V20.5Z" fill="black"/>
<path d="M30.5408 20.5H27.1938V22.1735H30.5408V20.5Z" fill="black"/>
<path d="M37.2346 20.5H33.8877V22.1735H37.2346V20.5Z" fill="black"/>
<path d="M10.4591 22.1738H3.76526V23.8473H10.4591V22.1738Z" fill="black"/>
<path d="M30.5408 22.1738H27.1938V23.8473H30.5408V22.1738Z" fill="black"/>
<path d="M37.2346 22.1738H33.8877V23.8473H37.2346V22.1738Z" fill="black"/>
<path d="M12.1326 23.8467H5.43872V25.5201H12.1326V23.8467Z" fill="black"/>
<path d="M30.5408 23.8467H27.1938V25.5201H30.5408V23.8467Z" fill="black"/>
<path d="M37.2346 23.8467H33.8877V25.5201H37.2346V23.8467Z" fill="black"/>
<path d="M15.4796 25.5205H8.78577V27.194H15.4796V25.5205Z" fill="black"/>
<path d="M30.5408 25.5205H27.1938V27.194H30.5408V25.5205Z" fill="black"/>
<path d="M37.2346 25.5205H33.8877V27.194H37.2346V25.5205Z" fill="black"/>
<path d="M18.8266 27.1943H10.4592V28.8678H18.8266V27.1943Z" fill="black"/>
<path d="M30.5408 27.1943H27.1938V28.8678H30.5408V27.1943Z" fill="black"/>
<path d="M37.2346 27.1943H33.8877V28.8678H37.2346V27.1943Z" fill="black"/>
<path d="M20.5 28.8672H13.8062V30.5407H20.5V28.8672Z" fill="black"/>
<path d="M30.5408 28.8672H27.1938V30.5407H30.5408V28.8672Z" fill="black"/>
<path d="M37.2346 28.8672H33.8877V30.5407H37.2346V28.8672Z" fill="black"/>
<path d="M23.847 30.541H17.1531V32.2145H23.847V30.541Z" fill="black"/>
<path d="M30.5408 30.541H27.1938V32.2145H30.5408V30.541Z" fill="black"/>
<path d="M37.2346 30.541H33.8877V32.2145H37.2346V30.541Z" fill="black"/>
<path d="M30.5408 32.2139H18.8265V33.8873H30.5408V32.2139Z" fill="black"/>
<path d="M37.2346 32.2139H33.8877V33.8873H37.2346V32.2139Z" fill="black"/>
<path d="M28.8673 33.8877H22.1735V35.5612H28.8673V33.8877Z" fill="black"/>
<path d="M37.2346 33.8877H33.8877V35.5612H37.2346V33.8877Z" fill="black"/>
</svg>
