<svg width="41" height="42" viewBox="0 0 41 42" fill="none" xmlns="http://www.w3.org/2000/svg">
<path d="M22.1735 2.14258H18.8265V3.85686H22.1735V2.14258Z" fill="black"/>
<path d="M22.1735 3.85742H18.8265V5.57171H22.1735V3.85742Z" fill="black"/>
<path d="M22.1735 5.57129H18.8265V7.28557H22.1735V5.57129Z" fill="black"/>
<path d="M22.1735 7.28613H18.8265V9.00042H22.1735V7.28613Z" fill="black"/>
<path d="M22.1735 12.4287H18.8265V14.143H22.1735V12.4287Z" fill="black"/>
<path d="M10.4592 14.1426H7.11224V15.8569H10.4592V14.1426Z" fill="black"/>
<path d="M22.1735 14.1426H18.8265V15.8569H22.1735V14.1426Z" fill="black"/>
<path d="M33.8878 14.1426H30.5408V15.8569H33.8878V14.1426Z" fill="black"/>
<path d="M10.4592 15.8574H5.43878V17.5717H10.4592V15.8574Z" fill="black"/>
<path d="M22.1735 15.8574H18.8265V17.5717H22.1735V15.8574Z" fill="black"/>
<path d="M35.5612 15.8574H30.5408V17.5717H35.5612V15.8574Z" fill="black"/>
<path d="M8.78573 17.5713H3.76532V19.2856H8.78573V17.5713Z" fill="black"/>
<path d="M22.1735 17.5713H18.8265V19.2856H22.1735V17.5713Z" fill="black"/>
<path d="M37.2347 17.5713H32.2143V19.2856H37.2347V17.5713Z" fill="black"/>
<path d="M15.4796 19.2861H2.09186V21.0004H15.4796V19.2861Z" fill="black"/>
<path d="M38.9081 19.2861H25.5204V21.0004H38.9081V19.2861Z" fill="black"/>
<path d="M15.4796 21H2.09186V22.7143H15.4796V21Z" fill="black"/>
<path d="M38.9081 21H25.5204V22.7143H38.9081V21Z" fill="black"/>
<path d="M8.78573 22.7139H3.76532V24.4282H8.78573V22.7139Z" fill="black"/>
<path d="M22.1735 22.7139H18.8265V24.4282H22.1735V22.7139Z" fill="black"/>
<path d="M37.2347 22.7139H32.2143V24.4282H37.2347V22.7139Z" fill="black"/>
<path d="M10.4592 24.4287H5.43878V26.143H10.4592V24.4287Z" fill="black"/>
<path d="M22.1735 24.4287H18.8265V26.143H22.1735V24.4287Z" fill="black"/>
<path d="M35.5612 24.4287H30.5408V26.143H35.5612V24.4287Z" fill="black"/>
<path d="M10.4592 26.1426H7.11224V27.8569H10.4592V26.1426Z" fill="black"/>
<path d="M22.1735 26.1426H18.8265V27.8569H22.1735V26.1426Z" fill="black"/>
<path d="M33.8878 26.1426H30.5408V27.8569H33.8878V26.1426Z" fill="black"/>
<path d="M22.1735 27.8574H18.8265V29.5717H22.1735V27.8574Z" fill="black"/>
<path d="M22.1735 33H18.8265V34.7143H22.1735V33Z" fill="black"/>
<path d="M22.1735 34.7139H18.8265V36.4282H22.1735V34.7139Z" fill="black"/>
<path d="M22.1735 36.4287H18.8265V38.143H22.1735V36.4287Z" fill="black"/>
<path d="M22.1735 38.1426H18.8265V39.8569H22.1735V38.1426Z" fill="black"/>
</svg>
