<svg width="40" height="42" viewBox="0 0 40 42" fill="none" xmlns="http://www.w3.org/2000/svg">
<path d="M21.6327 2.14258H18.3674V3.85686H21.6327V2.14258Z" fill="black"/>
<path d="M23.2653 3.85742H16.7347V5.57171H23.2653V3.85742Z" fill="black"/>
<path d="M24.898 5.57129H15.1021V7.28557H24.898V5.57129Z" fill="black"/>
<path d="M26.5306 7.28613H13.4694V9.00042H26.5306V7.28613Z" fill="black"/>
<path d="M16.7347 9H13.4694V10.7143H16.7347V9Z" fill="black"/>
<path d="M21.6327 9H18.3674V10.7143H21.6327V9Z" fill="black"/>
<path d="M26.5306 9H23.2653V10.7143H26.5306V9Z" fill="black"/>
<path d="M21.6327 10.7139H18.3674V12.4282H21.6327V10.7139Z" fill="black"/>
<path d="M21.6327 12.4287H18.3674V14.143H21.6327V12.4287Z" fill="black"/>
<path d="M21.6327 14.1426H18.3674V15.8569H21.6327V14.1426Z" fill="black"/>
<path d="M8.57144 19.2861H2.04083V21.0004H8.57144V19.2861Z" fill="black"/>
<path d="M18.3673 19.2861H11.8367V21.0004H18.3673V19.2861Z" fill="black"/>
<path d="M28.1632 19.2861H21.6326V21.0004H28.1632V19.2861Z" fill="black"/>
<path d="M37.9592 19.2861H31.4286V21.0004H37.9592V19.2861Z" fill="black"/>
<path d="M8.57144 21H2.04083V22.7143H8.57144V21Z" fill="black"/>
<path d="M18.3673 21H11.8367V22.7143H18.3673V21Z" fill="black"/>
<path d="M28.1632 21H21.6326V22.7143H28.1632V21Z" fill="black"/>
<path d="M37.9592 21H31.4286V22.7143H37.9592V21Z" fill="black"/>
<path d="M21.6327 26.1426H18.3674V27.8569H21.6327V26.1426Z" fill="black"/>
<path d="M21.6327 27.8574H18.3674V29.5717H21.6327V27.8574Z" fill="black"/>
<path d="M21.6327 29.5713H18.3674V31.2856H21.6327V29.5713Z" fill="black"/>
<path d="M16.7347 31.2861H13.4694V33.0004H16.7347V31.2861Z" fill="black"/>
<path d="M21.6327 31.2861H18.3674V33.0004H21.6327V31.2861Z" fill="black"/>
<path d="M26.5306 31.2861H23.2653V33.0004H26.5306V31.2861Z" fill="black"/>
<path d="M26.5306 33H13.4694V34.7143H26.5306V33Z" fill="black"/>
<path d="M24.898 34.7139H15.1021V36.4282H24.898V34.7139Z" fill="black"/>
<path d="M23.2653 36.4287H16.7347V38.143H23.2653V36.4287Z" fill="black"/>
<path d="M21.6327 38.1426H18.3674V39.8569H21.6327V38.1426Z" fill="black"/>
</svg>
