<svg width="24" height="24" viewBox="0 0 24 24" fill="none" xmlns="http://www.w3.org/2000/svg">
<path d="M13.9711 4.28502C14.2746 4.10292 14.621 4.00462 14.9749 4.00016C15.3288 3.99569 15.6775 4.08522 15.9855 4.2596C16.2935 4.43398 16.5497 4.68697 16.728 4.99274C16.9062 5.2985 17.0001 5.64609 17.0001 6.00002V18C17.0001 18.3539 16.9062 18.7015 16.728 19.0073C16.5497 19.3131 16.2935 19.5661 15.9855 19.7404C15.6775 19.9148 15.3288 20.0043 14.9749 19.9999C14.621 19.9954 14.2746 19.8971 13.9711 19.715L3.97408 13.717C3.67731 13.5397 3.43157 13.2885 3.26083 12.9879C3.09009 12.6873 3.00018 12.3476 2.99988 12.0019C2.99958 11.6562 3.08889 11.3163 3.2591 11.0154C3.42932 10.7145 3.67462 10.4628 3.97108 10.285L13.9711 4.28502Z" fill="#A4A5A6"/>
<path d="M21 20V4" stroke="#DDDDDD" stroke-width="2" stroke-linecap="round" stroke-linejoin="round"/>
</svg>
