<svg width="24" height="24" viewBox="0 0 24 24" fill="none" xmlns="http://www.w3.org/2000/svg">
<path d="M10 15H6C4.93913 15 3.92172 15.4214 3.17157 16.1716C2.42143 16.9217 2 17.9391 2 19V21M14.3049 16.5299L15.2279 16.1479M15.2279 13.8522L14.3049 13.4692M16.852 12.2282L16.469 11.3052M16.852 17.772L16.469 18.696M19.1479 12.2282L19.5309 11.3052M19.5299 18.696L19.1479 17.772M20.772 13.8522L21.696 13.4692M20.772 16.1479L21.696 16.5309M21 15C21 16.6569 19.6569 18 18 18C16.3431 18 15 16.6569 15 15C15 13.3431 16.3431 12 18 12C19.6569 12 21 13.3431 21 15ZM13 7C13 9.20914 11.2091 11 9 11C6.79086 11 5 9.20914 5 7C5 4.79086 6.79086 3 9 3C11.2091 3 13 4.79086 13 7Z" stroke="black" stroke-width="2" stroke-linecap="round" stroke-linejoin="round"/>
</svg>
