<svg width="24" height="24" viewBox="0 0 24 24" fill="none" xmlns="http://www.w3.org/2000/svg">
<path d="M6 15V3V15ZM6 15C4.34315 15 3 16.3431 3 18C3 19.6569 4.34315 21 6 21C7.65685 21 9 19.6569 9 18C9 16.3431 7.65685 15 6 15Z" fill="#DDDDDD"/>
<path d="M18 9C16.3431 9 15 7.65685 15 6C15 4.34315 16.3431 3 18 3C19.6569 3 21 4.34315 21 6C21 7.65685 19.6569 9 18 9Z" fill="#DDDDDD"/>
<path d="M6 15C6 12.6131 6.94821 10.3239 8.63604 8.63604C9.92403 7.42403 13 5.2 15 6M6 15V3M6 15C4.34315 15 3 16.3431 3 18C3 19.6569 4.34315 21 6 21C7.65685 21 9 19.6569 9 18C9 16.3431 7.65685 15 6 15ZM15 6C15 7.65685 16.3431 9 18 9C19.6569 9 21 7.65685 21 6C21 4.34315 19.6569 3 18 3C16.3431 3 15 4.34315 15 6Z" stroke="#1C1F21" stroke-width="2" stroke-linecap="round" stroke-linejoin="round"/>
</svg>
