<svg width="24" height="24" viewBox="0 0 24 24" fill="none" xmlns="http://www.w3.org/2000/svg">
<path d="M2.99206 16.342C3.1391 16.7129 3.17183 17.1193 3.08606 17.509L2.02106 20.799C1.98674 20.9658 1.99561 21.1387 2.04683 21.3011C2.09805 21.4636 2.18992 21.6103 2.31372 21.7273C2.43753 21.8443 2.58917 21.9277 2.75426 21.9697C2.91935 22.0116 3.09242 22.0107 3.25706 21.967L6.67006 20.969C7.03777 20.8961 7.41859 20.9279 7.76906 21.061C9.90444 22.0582 12.3234 22.2692 14.5992 21.6567C16.875 21.0442 18.8613 19.6477 20.2078 17.7134C21.5542 15.7791 22.1742 13.4314 21.9584 11.0845C21.7425 8.73769 20.7048 6.54247 19.0281 4.88619C17.3515 3.22992 15.1438 2.21904 12.7944 2.0319C10.4451 1.84475 8.10519 2.49338 6.1875 3.86334C4.26981 5.23329 2.89759 7.23654 2.31295 9.51964C1.72831 11.8027 1.96883 14.219 2.99206 16.342Z" stroke="black" stroke-width="2" stroke-linecap="round" stroke-linejoin="round"/>
</svg>
