<svg width="40" height="41" viewBox="0 0 40 41" fill="none" xmlns="http://www.w3.org/2000/svg">
<path d="M26.5306 5.43848H13.4694V7.11195H26.5306V5.43848Z" fill="black"/>
<path d="M28.1633 7.1123H11.8368V8.78577H28.1633V7.1123Z" fill="black"/>
<path d="M15.1021 8.78613H11.8368V10.4596H15.1021V8.78613Z" fill="black"/>
<path d="M28.1633 8.78613H24.8979V10.4596H28.1633V8.78613Z" fill="black"/>
<path d="M15.102 10.459H3.67346V12.1325H15.102V10.459Z" fill="black"/>
<path d="M36.3265 10.459H24.8979V12.1325H36.3265V10.459Z" fill="black"/>
<path d="M13.4693 12.1328H2.04077V13.8063H13.4693V12.1328Z" fill="black"/>
<path d="M37.9592 12.1328H26.5306V13.8063H37.9592V12.1328Z" fill="black"/>
<path d="M5.30608 13.8057H2.04077V15.4791H5.30608V13.8057Z" fill="black"/>
<path d="M37.9592 13.8057H34.6938V15.4791H37.9592V13.8057Z" fill="black"/>
<path d="M5.30608 15.4795H2.04077V17.153H5.30608V15.4795Z" fill="black"/>
<path d="M23.2654 15.4795H16.7347V17.153H23.2654V15.4795Z" fill="black"/>
<path d="M37.9592 15.4795H34.6938V17.153H37.9592V15.4795Z" fill="black"/>
<path d="M5.30608 17.1533H2.04077V18.8268H5.30608V17.1533Z" fill="black"/>
<path d="M24.898 17.1533H15.1021V18.8268H24.898V17.1533Z" fill="black"/>
<path d="M37.9592 17.1533H34.6938V18.8268H37.9592V17.1533Z" fill="black"/>
<path d="M5.30608 18.8262H2.04077V20.4996H5.30608V18.8262Z" fill="black"/>
<path d="M18.3673 18.8262H13.4694V20.4996H18.3673V18.8262Z" fill="black"/>
<path d="M26.5306 18.8262H21.6327V20.4996H26.5306V18.8262Z" fill="black"/>
<path d="M37.9592 18.8262H34.6938V20.4996H37.9592V18.8262Z" fill="black"/>
<path d="M5.30608 20.5H2.04077V22.1735H5.30608V20.5Z" fill="black"/>
<path d="M16.7347 20.5H13.4694V22.1735H16.7347V20.5Z" fill="black"/>
<path d="M26.5306 20.5H23.2653V22.1735H26.5306V20.5Z" fill="black"/>
<path d="M37.9592 20.5H34.6938V22.1735H37.9592V20.5Z" fill="black"/>
<path d="M5.30608 22.1738H2.04077V23.8473H5.30608V22.1738Z" fill="black"/>
<path d="M16.7347 22.1738H13.4694V23.8473H16.7347V22.1738Z" fill="black"/>
<path d="M26.5306 22.1738H23.2653V23.8473H26.5306V22.1738Z" fill="black"/>
<path d="M37.9592 22.1738H34.6938V23.8473H37.9592V22.1738Z" fill="black"/>
<path d="M5.30608 23.8467H2.04077V25.5201H5.30608V23.8467Z" fill="black"/>
<path d="M18.3673 23.8467H13.4694V25.5201H18.3673V23.8467Z" fill="black"/>
<path d="M26.5306 23.8467H21.6327V25.5201H26.5306V23.8467Z" fill="black"/>
<path d="M37.9592 23.8467H34.6938V25.5201H37.9592V23.8467Z" fill="black"/>
<path d="M5.30608 25.5205H2.04077V27.194H5.30608V25.5205Z" fill="black"/>
<path d="M24.898 25.5205H15.1021V27.194H24.898V25.5205Z" fill="black"/>
<path d="M37.9592 25.5205H34.6938V27.194H37.9592V25.5205Z" fill="black"/>
<path d="M5.30608 27.1943H2.04077V28.8678H5.30608V27.1943Z" fill="black"/>
<path d="M23.2654 27.1943H16.7347V28.8678H23.2654V27.1943Z" fill="black"/>
<path d="M37.9592 27.1943H34.6938V28.8678H37.9592V27.1943Z" fill="black"/>
<path d="M5.30608 28.8672H2.04077V30.5407H5.30608V28.8672Z" fill="black"/>
<path d="M37.9592 28.8672H34.6938V30.5407H37.9592V28.8672Z" fill="black"/>
<path d="M5.30608 30.541H2.04077V32.2145H5.30608V30.541Z" fill="black"/>
<path d="M37.9592 30.541H34.6938V32.2145H37.9592V30.541Z" fill="black"/>
<path d="M37.9591 32.2139H2.04077V33.8873H37.9591V32.2139Z" fill="black"/>
<path d="M36.3265 33.8877H3.67346V35.5612H36.3265V33.8877Z" fill="black"/>
</svg>
