<svg width="40" height="40" viewBox="0 0 40 40" fill="none" xmlns="http://www.w3.org/2000/svg">
<path d="M31.4286 2.04102H24.8979V3.67367H31.4286V2.04102Z" fill="black"/>
<path d="M33.0612 3.67383H20V5.30648H33.0612V3.67383Z" fill="black"/>
<path d="M26.5306 5.30566H13.4694V6.93832H26.5306V5.30566Z" fill="black"/>
<path d="M34.6939 5.30566H29.7959V6.93832H34.6939V5.30566Z" fill="black"/>
<path d="M23.2653 6.93848H8.57141V8.57113H23.2653V6.93848Z" fill="black"/>
<path d="M34.6939 6.93848H31.4286V8.57113H34.6939V6.93848Z" fill="black"/>
<path d="M15.102 8.57129H3.67346V10.2039H15.102V8.57129Z" fill="black"/>
<path d="M24.898 8.57129H20V10.2039H24.898V8.57129Z" fill="black"/>
<path d="M34.6939 8.57129H29.7959V10.2039H34.6939V8.57129Z" fill="black"/>
<path d="M15.102 10.2041H2.04077V11.8368H15.102V10.2041Z" fill="black"/>
<path d="M34.6939 10.2041H21.6327V11.8368H34.6939V10.2041Z" fill="black"/>
<path d="M5.30608 11.8369H2.04077V13.4696H5.30608V11.8369Z" fill="black"/>
<path d="M15.1021 11.8369H11.8368V13.4696H15.1021V11.8369Z" fill="black"/>
<path d="M31.4285 11.8369H18.3673V13.4696H31.4285V11.8369Z" fill="black"/>
<path d="M5.30608 13.4697H2.04077V15.1024H5.30608V13.4697Z" fill="black"/>
<path d="M26.5307 13.4697H11.8368V15.1024H26.5307V13.4697Z" fill="black"/>
<path d="M20 15.1016H2.04077V16.7342H20V15.1016Z" fill="black"/>
<path d="M36.3265 16.7344H3.67346V18.367H36.3265V16.7344Z" fill="black"/>
<path d="M36.3265 18.3672H3.67346V19.9998H36.3265V18.3672Z" fill="black"/>
<path d="M6.93877 20H3.67346V21.6327H6.93877V20Z" fill="black"/>
<path d="M36.3266 20H33.0613V21.6327H36.3266V20Z" fill="black"/>
<path d="M6.93877 21.6328H3.67346V23.2655H6.93877V21.6328Z" fill="black"/>
<path d="M36.3266 21.6328H33.0613V23.2655H36.3266V21.6328Z" fill="black"/>
<path d="M6.93877 23.2656H3.67346V24.8983H6.93877V23.2656Z" fill="black"/>
<path d="M36.3266 23.2656H33.0613V24.8983H36.3266V23.2656Z" fill="black"/>
<path d="M6.93877 24.8984H3.67346V26.5311H6.93877V24.8984Z" fill="black"/>
<path d="M36.3266 24.8984H33.0613V26.5311H36.3266V24.8984Z" fill="black"/>
<path d="M6.93877 26.5303H3.67346V28.1629H6.93877V26.5303Z" fill="black"/>
<path d="M36.3266 26.5303H33.0613V28.1629H36.3266V26.5303Z" fill="black"/>
<path d="M6.93877 28.1631H3.67346V29.7957H6.93877V28.1631Z" fill="black"/>
<path d="M36.3266 28.1631H33.0613V29.7957H36.3266V28.1631Z" fill="black"/>
<path d="M6.93877 29.7959H3.67346V31.4286H6.93877V29.7959Z" fill="black"/>
<path d="M36.3266 29.7959H33.0613V31.4286H36.3266V29.7959Z" fill="black"/>
<path d="M6.93877 31.4287H3.67346V33.0614H6.93877V31.4287Z" fill="black"/>
<path d="M36.3266 31.4287H33.0613V33.0614H36.3266V31.4287Z" fill="black"/>
<path d="M36.3265 33.0615H3.67346V34.6942H36.3265V33.0615Z" fill="black"/>
<path d="M34.6939 34.6943H5.30615V36.327H34.6939V34.6943Z" fill="black"/>
</svg>
