<svg width="42" height="40" viewBox="0 0 42 40" fill="none" xmlns="http://www.w3.org/2000/svg">
<path d="M36.4287 3.67383H5.57153V5.30648H36.4287V3.67383Z" fill="black"/>
<path d="M38.1429 5.30566H3.85718V6.93832H38.1429V5.30566Z" fill="black"/>
<path d="M7.28575 6.93848H3.85718V8.57113H7.28575V6.93848Z" fill="black"/>
<path d="M14.1429 6.93848H10.7144V8.57113H14.1429V6.93848Z" fill="black"/>
<path d="M31.2857 6.93848H27.8572V8.57113H31.2857V6.93848Z" fill="black"/>
<path d="M38.1429 6.93848H34.7144V8.57113H38.1429V6.93848Z" fill="black"/>
<path d="M7.28575 8.57129H3.85718V10.2039H7.28575V8.57129Z" fill="black"/>
<path d="M14.1429 8.57129H10.7144V10.2039H14.1429V8.57129Z" fill="black"/>
<path d="M31.2857 8.57129H27.8572V10.2039H31.2857V8.57129Z" fill="black"/>
<path d="M38.1429 8.57129H34.7144V10.2039H38.1429V8.57129Z" fill="black"/>
<path d="M14.1429 10.2041H3.85718V11.8368H14.1429V10.2041Z" fill="black"/>
<path d="M38.1429 10.2041H27.8572V11.8368H38.1429V10.2041Z" fill="black"/>
<path d="M14.1429 11.8369H3.85718V13.4696H14.1429V11.8369Z" fill="black"/>
<path d="M38.1429 11.8369H27.8572V13.4696H38.1429V11.8369Z" fill="black"/>
<path d="M14.1429 13.4697H3.85718V15.1024H14.1429V13.4697Z" fill="black"/>
<path d="M38.1429 13.4697H27.8572V15.1024H38.1429V13.4697Z" fill="black"/>
<path d="M7.28575 15.1016H3.85718V16.7342H7.28575V15.1016Z" fill="black"/>
<path d="M14.1429 15.1016H10.7144V16.7342H14.1429V15.1016Z" fill="black"/>
<path d="M31.2857 15.1016H27.8572V16.7342H31.2857V15.1016Z" fill="black"/>
<path d="M38.1429 15.1016H34.7144V16.7342H38.1429V15.1016Z" fill="black"/>
<path d="M7.28575 16.7344H3.85718V18.367H7.28575V16.7344Z" fill="black"/>
<path d="M14.1429 16.7344H10.7144V18.367H14.1429V16.7344Z" fill="black"/>
<path d="M31.2857 16.7344H27.8572V18.367H31.2857V16.7344Z" fill="black"/>
<path d="M38.1429 16.7344H34.7144V18.367H38.1429V16.7344Z" fill="black"/>
<path d="M38.1429 18.3672H3.85718V19.9998H38.1429V18.3672Z" fill="black"/>
<path d="M38.1429 20H3.85718V21.6327H38.1429V20Z" fill="black"/>
<path d="M7.28575 21.6328H3.85718V23.2655H7.28575V21.6328Z" fill="black"/>
<path d="M14.1429 21.6328H10.7144V23.2655H14.1429V21.6328Z" fill="black"/>
<path d="M31.2857 21.6328H27.8572V23.2655H31.2857V21.6328Z" fill="black"/>
<path d="M38.1429 21.6328H34.7144V23.2655H38.1429V21.6328Z" fill="black"/>
<path d="M7.28575 23.2656H3.85718V24.8983H7.28575V23.2656Z" fill="black"/>
<path d="M14.1429 23.2656H10.7144V24.8983H14.1429V23.2656Z" fill="black"/>
<path d="M31.2857 23.2656H27.8572V24.8983H31.2857V23.2656Z" fill="black"/>
<path d="M38.1429 23.2656H34.7144V24.8983H38.1429V23.2656Z" fill="black"/>
<path d="M14.1429 24.8984H3.85718V26.5311H14.1429V24.8984Z" fill="black"/>
<path d="M38.1429 24.8984H27.8572V26.5311H38.1429V24.8984Z" fill="black"/>
<path d="M14.1429 26.5303H3.85718V28.1629H14.1429V26.5303Z" fill="black"/>
<path d="M38.1429 26.5303H27.8572V28.1629H38.1429V26.5303Z" fill="black"/>
<path d="M14.1429 28.1631H3.85718V29.7957H14.1429V28.1631Z" fill="black"/>
<path d="M38.1429 28.1631H27.8572V29.7957H38.1429V28.1631Z" fill="black"/>
<path d="M7.28575 29.7959H3.85718V31.4286H7.28575V29.7959Z" fill="black"/>
<path d="M14.1429 29.7959H10.7144V31.4286H14.1429V29.7959Z" fill="black"/>
<path d="M31.2857 29.7959H27.8572V31.4286H31.2857V29.7959Z" fill="black"/>
<path d="M38.1429 29.7959H34.7144V31.4286H38.1429V29.7959Z" fill="black"/>
<path d="M7.28575 31.4287H3.85718V33.0614H7.28575V31.4287Z" fill="black"/>
<path d="M14.1429 31.4287H10.7144V33.0614H14.1429V31.4287Z" fill="black"/>
<path d="M31.2857 31.4287H27.8572V33.0614H31.2857V31.4287Z" fill="black"/>
<path d="M38.1429 31.4287H34.7144V33.0614H38.1429V31.4287Z" fill="black"/>
<path d="M38.1429 33.0615H3.85718V34.6942H38.1429V33.0615Z" fill="black"/>
<path d="M36.4287 34.6943H5.57153V36.327H36.4287V34.6943Z" fill="black"/>
</svg>
