<svg width="41" height="40" viewBox="0 0 41 40" fill="none" xmlns="http://www.w3.org/2000/svg">
<path d="M33.8877 2.04102H30.5408V3.67367H33.8877V2.04102Z" fill="black"/>
<path d="M22.1734 3.67383H5.43872V5.30648H22.1734V3.67383Z" fill="black"/>
<path d="M33.8877 3.67383H30.5408V5.30648H33.8877V3.67383Z" fill="black"/>
<path d="M22.1735 5.30566H3.76538V6.93832H22.1735V5.30566Z" fill="black"/>
<path d="M33.8877 5.30566H30.5408V6.93832H33.8877V5.30566Z" fill="black"/>
<path d="M7.11232 6.93848H3.76538V8.57113H7.11232V6.93848Z" fill="black"/>
<path d="M38.9083 6.93848H25.5205V8.57113H38.9083V6.93848Z" fill="black"/>
<path d="M7.11232 8.57129H3.76538V10.2039H7.11232V8.57129Z" fill="black"/>
<path d="M38.9083 8.57129H25.5205V10.2039H38.9083V8.57129Z" fill="black"/>
<path d="M7.11232 10.2041H3.76538V11.8368H7.11232V10.2041Z" fill="black"/>
<path d="M18.8264 10.2041H12.1326V11.8368H18.8264V10.2041Z" fill="black"/>
<path d="M33.8877 10.2041H30.5408V11.8368H33.8877V10.2041Z" fill="black"/>
<path d="M7.11232 11.8369H3.76538V13.4696H7.11232V11.8369Z" fill="black"/>
<path d="M20.5 11.8369H10.4592V13.4696H20.5V11.8369Z" fill="black"/>
<path d="M33.8877 11.8369H30.5408V13.4696H33.8877V11.8369Z" fill="black"/>
<path d="M7.11232 13.4697H3.76538V15.1024H7.11232V13.4697Z" fill="black"/>
<path d="M13.8062 13.4697H10.4592V15.1024H13.8062V13.4697Z" fill="black"/>
<path d="M20.5 13.4697H17.1531V15.1024H20.5V13.4697Z" fill="black"/>
<path d="M33.8877 13.4697H30.5408V15.1024H33.8877V13.4697Z" fill="black"/>
<path d="M7.11232 15.1016H3.76538V16.7342H7.11232V15.1016Z" fill="black"/>
<path d="M13.8062 15.1016H10.4592V16.7342H13.8062V15.1016Z" fill="black"/>
<path d="M20.5 15.1016H17.1531V16.7342H20.5V15.1016Z" fill="black"/>
<path d="M7.11232 16.7344H3.76538V18.367H7.11232V16.7344Z" fill="black"/>
<path d="M20.5 16.7344H10.4592V18.367H20.5V16.7344Z" fill="black"/>
<path d="M30.5409 16.7344H25.5205V18.367H30.5409V16.7344Z" fill="black"/>
<path d="M7.11232 18.3672H3.76538V19.9998H7.11232V18.3672Z" fill="black"/>
<path d="M18.8264 18.3672H12.1326V19.9998H18.8264V18.3672Z" fill="black"/>
<path d="M32.2143 18.3672H23.8469V19.9998H32.2143V18.3672Z" fill="black"/>
<path d="M37.2346 18.3672H33.8877V19.9998H37.2346V18.3672Z" fill="black"/>
<path d="M7.11232 20H3.76538V21.6327H7.11232V20Z" fill="black"/>
<path d="M37.2348 20H22.1736V21.6327H37.2348V20Z" fill="black"/>
<path d="M7.11232 21.6328H3.76538V23.2655H7.11232V21.6328Z" fill="black"/>
<path d="M25.5204 21.6328H20.5V23.2655H25.5204V21.6328Z" fill="black"/>
<path d="M37.2346 21.6328H30.5408V23.2655H37.2346V21.6328Z" fill="black"/>
<path d="M7.11232 23.2656H3.76538V24.8983H7.11232V23.2656Z" fill="black"/>
<path d="M23.8468 23.2656H18.8264V24.8983H23.8468V23.2656Z" fill="black"/>
<path d="M37.2348 23.2656H32.2144V24.8983H37.2348V23.2656Z" fill="black"/>
<path d="M7.11232 24.8984H3.76538V26.5311H7.11232V24.8984Z" fill="black"/>
<path d="M22.1735 24.8984H17.1531V26.5311H22.1735V24.8984Z" fill="black"/>
<path d="M37.2346 24.8984H33.8877V26.5311H37.2346V24.8984Z" fill="black"/>
<path d="M7.11232 26.5303H3.76538V28.1629H7.11232V26.5303Z" fill="black"/>
<path d="M20.4999 26.5303H15.4795V28.1629H20.4999V26.5303Z" fill="black"/>
<path d="M37.2346 26.5303H33.8877V28.1629H37.2346V26.5303Z" fill="black"/>
<path d="M7.11232 28.1631H3.76538V29.7957H7.11232V28.1631Z" fill="black"/>
<path d="M18.8266 28.1631H13.8062V29.7957H18.8266V28.1631Z" fill="black"/>
<path d="M37.2346 28.1631H33.8877V29.7957H37.2346V28.1631Z" fill="black"/>
<path d="M7.11232 29.7959H3.76538V31.4286H7.11232V29.7959Z" fill="black"/>
<path d="M17.153 29.7959H12.1326V31.4286H17.153V29.7959Z" fill="black"/>
<path d="M37.2346 29.7959H33.8877V31.4286H37.2346V29.7959Z" fill="black"/>
<path d="M7.11232 31.4287H3.76538V33.0614H7.11232V31.4287Z" fill="black"/>
<path d="M15.4796 31.4287H10.4592V33.0614H15.4796V31.4287Z" fill="black"/>
<path d="M37.2346 31.4287H33.8877V33.0614H37.2346V31.4287Z" fill="black"/>
<path d="M37.2348 33.0615H3.76538V34.6942H37.2348V33.0615Z" fill="black"/>
<path d="M35.5612 34.6943H5.43872V36.327H35.5612V34.6943Z" fill="black"/>
</svg>
