<svg width="40" height="40" viewBox="0 0 40 40" fill="none" xmlns="http://www.w3.org/2000/svg">
<path d="M36.3265 2.04102H13.4694V3.67367H36.3265V2.04102Z" fill="black"/>
<path d="M37.9592 3.67383H11.8368V5.30648H37.9592V3.67383Z" fill="black"/>
<path d="M15.1021 5.30566H11.8368V6.93832H15.1021V5.30566Z" fill="black"/>
<path d="M37.9592 5.30566H34.6938V6.93832H37.9592V5.30566Z" fill="black"/>
<path d="M15.1021 6.93848H11.8368V8.57113H15.1021V6.93848Z" fill="black"/>
<path d="M37.9592 6.93848H34.6938V8.57113H37.9592V6.93848Z" fill="black"/>
<path d="M15.1021 8.57129H11.8368V10.2039H15.1021V8.57129Z" fill="black"/>
<path d="M23.2653 8.57129H20V10.2039H23.2653V8.57129Z" fill="black"/>
<path d="M37.9592 8.57129H34.6938V10.2039H37.9592V8.57129Z" fill="black"/>
<path d="M15.1021 10.2041H11.8368V11.8368H15.1021V10.2041Z" fill="black"/>
<path d="M24.8979 10.2041H18.3673V11.8368H24.8979V10.2041Z" fill="black"/>
<path d="M37.9592 10.2041H34.6938V11.8368H37.9592V10.2041Z" fill="black"/>
<path d="M8.57142 11.8369H3.67346V13.4696H8.57142V11.8369Z" fill="black"/>
<path d="M15.1021 11.8369H11.8368V13.4696H15.1021V11.8369Z" fill="black"/>
<path d="M24.8979 11.8369H18.3673V13.4696H24.8979V11.8369Z" fill="black"/>
<path d="M37.9592 11.8369H34.6938V13.4696H37.9592V11.8369Z" fill="black"/>
<path d="M8.57138 13.4697H2.04077V15.1024H8.57138V13.4697Z" fill="black"/>
<path d="M15.1021 13.4697H11.8368V15.1024H15.1021V13.4697Z" fill="black"/>
<path d="M23.2653 13.4697H20V15.1024H23.2653V13.4697Z" fill="black"/>
<path d="M37.9591 13.4697H28.1632V15.1024H37.9591V13.4697Z" fill="black"/>
<path d="M5.30608 15.1016H2.04077V16.7342H5.30608V15.1016Z" fill="black"/>
<path d="M15.1021 15.1016H11.8368V16.7342H15.1021V15.1016Z" fill="black"/>
<path d="M37.9592 15.1016H26.5306V16.7342H37.9592V15.1016Z" fill="black"/>
<path d="M5.30608 16.7344H2.04077V18.367H5.30608V16.7344Z" fill="black"/>
<path d="M15.1021 16.7344H11.8368V18.367H15.1021V16.7344Z" fill="black"/>
<path d="M29.7959 16.7344H24.8979V18.367H29.7959V16.7344Z" fill="black"/>
<path d="M37.9592 16.7344H33.0613V18.367H37.9592V16.7344Z" fill="black"/>
<path d="M5.30608 18.3672H2.04077V19.9998H5.30608V18.3672Z" fill="black"/>
<path d="M15.1021 18.3672H11.8368V19.9998H15.1021V18.3672Z" fill="black"/>
<path d="M28.1632 18.3672H23.2653V19.9998H28.1632V18.3672Z" fill="black"/>
<path d="M37.9592 18.3672H34.6938V19.9998H37.9592V18.3672Z" fill="black"/>
<path d="M5.30608 20H2.04077V21.6327H5.30608V20Z" fill="black"/>
<path d="M15.1021 20H11.8368V21.6327H15.1021V20Z" fill="black"/>
<path d="M26.5306 20H21.6327V21.6327H26.5306V20Z" fill="black"/>
<path d="M37.9592 20H34.6938V21.6327H37.9592V20Z" fill="black"/>
<path d="M5.30608 21.6328H2.04077V23.2655H5.30608V21.6328Z" fill="black"/>
<path d="M15.1021 21.6328H11.8368V23.2655H15.1021V21.6328Z" fill="black"/>
<path d="M24.898 21.6328H20V23.2655H24.898V21.6328Z" fill="black"/>
<path d="M37.9592 21.6328H34.6938V23.2655H37.9592V21.6328Z" fill="black"/>
<path d="M5.30608 23.2656H2.04077V24.8983H5.30608V23.2656Z" fill="black"/>
<path d="M15.1021 23.2656H11.8368V24.8983H15.1021V23.2656Z" fill="black"/>
<path d="M23.2653 23.2656H18.3673V24.8983H23.2653V23.2656Z" fill="black"/>
<path d="M37.9592 23.2656H34.6938V24.8983H37.9592V23.2656Z" fill="black"/>
<path d="M5.30608 24.8984H2.04077V26.5311H5.30608V24.8984Z" fill="black"/>
<path d="M37.9592 24.8984H11.8368V26.5311H37.9592V24.8984Z" fill="black"/>
<path d="M5.30608 26.5303H2.04077V28.1629H5.30608V26.5303Z" fill="black"/>
<path d="M36.3265 26.5303H13.4694V28.1629H36.3265V26.5303Z" fill="black"/>
<path d="M5.30608 28.1631H2.04077V29.7957H5.30608V28.1631Z" fill="black"/>
<path d="M5.30608 29.7959H2.04077V31.4286H5.30608V29.7959Z" fill="black"/>
<path d="M5.30608 31.4287H2.04077V33.0614H5.30608V31.4287Z" fill="black"/>
<path d="M28.1633 31.4287H24.8979V33.0614H28.1633V31.4287Z" fill="black"/>
<path d="M5.30608 33.0615H2.04077V34.6942H5.30608V33.0615Z" fill="black"/>
<path d="M28.1633 33.0615H24.8979V34.6942H28.1633V33.0615Z" fill="black"/>
<path d="M28.1632 34.6943H2.04077V36.327H28.1632V34.6943Z" fill="black"/>
<path d="M26.5306 36.3262H3.67346V37.9588H26.5306V36.3262Z" fill="black"/>
</svg>
