<svg width="40" height="40" viewBox="0 0 40 40" fill="none" xmlns="http://www.w3.org/2000/svg">
<path d="M34.6939 3.67383H5.30615V5.30648H34.6939V3.67383Z" fill="black"/>
<path d="M36.3266 5.30566H3.67358V6.93832H36.3266V5.30566Z" fill="black"/>
<path d="M6.93889 6.93848H3.67358V8.57113H6.93889V6.93848Z" fill="black"/>
<path d="M36.3266 6.93848H33.0613V8.57113H36.3266V6.93848Z" fill="black"/>
<path d="M6.93889 8.57129H3.67358V10.2039H6.93889V8.57129Z" fill="black"/>
<path d="M36.3266 8.57129H33.0613V10.2039H36.3266V8.57129Z" fill="black"/>
<path d="M6.93889 10.2041H3.67358V11.8368H6.93889V10.2041Z" fill="black"/>
<path d="M18.3673 10.2041H11.8367V11.8368H18.3673V10.2041Z" fill="black"/>
<path d="M36.3266 10.2041H33.0613V11.8368H36.3266V10.2041Z" fill="black"/>
<path d="M6.93889 11.8369H3.67358V13.4696H6.93889V11.8369Z" fill="black"/>
<path d="M20 11.8369H10.2041V13.4696H20V11.8369Z" fill="black"/>
<path d="M36.3266 11.8369H33.0613V13.4696H36.3266V11.8369Z" fill="black"/>
<path d="M6.93889 13.4697H3.67358V15.1024H6.93889V13.4697Z" fill="black"/>
<path d="M13.4694 13.4697H10.2041V15.1024H13.4694V13.4697Z" fill="black"/>
<path d="M19.9999 13.4697H16.7346V15.1024H19.9999V13.4697Z" fill="black"/>
<path d="M36.3266 13.4697H33.0613V15.1024H36.3266V13.4697Z" fill="black"/>
<path d="M6.93889 15.1016H3.67358V16.7342H6.93889V15.1016Z" fill="black"/>
<path d="M13.4694 15.1016H10.2041V16.7342H13.4694V15.1016Z" fill="black"/>
<path d="M19.9999 15.1016H16.7346V16.7342H19.9999V15.1016Z" fill="black"/>
<path d="M36.3266 15.1016H33.0613V16.7342H36.3266V15.1016Z" fill="black"/>
<path d="M6.93889 16.7344H3.67358V18.367H6.93889V16.7344Z" fill="black"/>
<path d="M20 16.7344H10.2041V18.367H20V16.7344Z" fill="black"/>
<path d="M29.7959 16.7344H24.8979V18.367H29.7959V16.7344Z" fill="black"/>
<path d="M36.3266 16.7344H33.0613V18.367H36.3266V16.7344Z" fill="black"/>
<path d="M6.93889 18.3672H3.67358V19.9998H6.93889V18.3672Z" fill="black"/>
<path d="M18.3673 18.3672H11.8367V19.9998H18.3673V18.3672Z" fill="black"/>
<path d="M31.4286 18.3672H23.2654V19.9998H31.4286V18.3672Z" fill="black"/>
<path d="M36.3266 18.3672H33.0613V19.9998H36.3266V18.3672Z" fill="black"/>
<path d="M6.93889 20H3.67358V21.6327H6.93889V20Z" fill="black"/>
<path d="M36.3264 20H21.6326V21.6327H36.3264V20Z" fill="black"/>
<path d="M6.93889 21.6328H3.67358V23.2655H6.93889V21.6328Z" fill="black"/>
<path d="M24.898 21.6328H20V23.2655H24.898V21.6328Z" fill="black"/>
<path d="M36.3265 21.6328H29.7959V23.2655H36.3265V21.6328Z" fill="black"/>
<path d="M6.93889 23.2656H3.67358V24.8983H6.93889V23.2656Z" fill="black"/>
<path d="M23.2654 23.2656H18.3674V24.8983H23.2654V23.2656Z" fill="black"/>
<path d="M36.3264 23.2656H31.4285V24.8983H36.3264V23.2656Z" fill="black"/>
<path d="M6.93889 24.8984H3.67358V26.5311H6.93889V24.8984Z" fill="black"/>
<path d="M21.6326 24.8984H16.7346V26.5311H21.6326V24.8984Z" fill="black"/>
<path d="M36.3266 24.8984H33.0613V26.5311H36.3266V24.8984Z" fill="black"/>
<path d="M6.93889 26.5303H3.67358V28.1629H6.93889V26.5303Z" fill="black"/>
<path d="M20 26.5303H15.1021V28.1629H20V26.5303Z" fill="black"/>
<path d="M36.3266 26.5303H33.0613V28.1629H36.3266V26.5303Z" fill="black"/>
<path d="M6.93889 28.1631H3.67358V29.7957H6.93889V28.1631Z" fill="black"/>
<path d="M18.3674 28.1631H13.4695V29.7957H18.3674V28.1631Z" fill="black"/>
<path d="M36.3266 28.1631H33.0613V29.7957H36.3266V28.1631Z" fill="black"/>
<path d="M6.93889 29.7959H3.67358V31.4286H6.93889V29.7959Z" fill="black"/>
<path d="M16.7346 29.7959H11.8367V31.4286H16.7346V29.7959Z" fill="black"/>
<path d="M36.3266 29.7959H33.0613V31.4286H36.3266V29.7959Z" fill="black"/>
<path d="M6.93889 31.4287H3.67358V33.0614H6.93889V31.4287Z" fill="black"/>
<path d="M15.1021 31.4287H10.2041V33.0614H15.1021V31.4287Z" fill="black"/>
<path d="M36.3266 31.4287H33.0613V33.0614H36.3266V31.4287Z" fill="black"/>
<path d="M36.3266 33.0615H3.67358V34.6942H36.3266V33.0615Z" fill="black"/>
<path d="M34.6939 34.6943H5.30615V36.327H34.6939V34.6943Z" fill="black"/>
</svg>
