<svg width="41" height="41" viewBox="0 0 41 41" fill="none" xmlns="http://www.w3.org/2000/svg">
<path d="M5.43874 2.0918H2.0918V3.76527H5.43874V2.0918Z" fill="black"/>
<path d="M23.847 2.0918H17.1531V3.76527H23.847V2.0918Z" fill="black"/>
<path d="M7.11221 3.76562H2.0918V5.43909H7.11221V3.76562Z" fill="black"/>
<path d="M25.5204 3.76562H15.4796V5.43909H25.5204V3.76562Z" fill="black"/>
<path d="M8.78567 5.43848H3.76526V7.11195H8.78567V5.43848Z" fill="black"/>
<path d="M18.8266 5.43848H13.8062V7.11195H18.8266V5.43848Z" fill="black"/>
<path d="M27.1939 5.43848H22.1735V7.11195H27.1939V5.43848Z" fill="black"/>
<path d="M10.4591 7.1123H5.43872V8.78577H10.4591V7.1123Z" fill="black"/>
<path d="M17.1531 7.1123H15.4796V8.78577H17.1531V7.1123Z" fill="black"/>
<path d="M27.1939 7.1123H23.8469V8.78577H27.1939V7.1123Z" fill="black"/>
<path d="M12.1327 8.78613H7.1123V10.4596H12.1327V8.78613Z" fill="black"/>
<path d="M27.1939 8.78613H23.8469V10.4596H27.1939V8.78613Z" fill="black"/>
<path d="M13.8062 10.459H8.78577V12.1325H13.8062V10.459Z" fill="black"/>
<path d="M27.1939 10.459H23.8469V12.1325H27.1939V10.459Z" fill="black"/>
<path d="M15.4796 12.1328H10.4592V13.8063H15.4796V12.1328Z" fill="black"/>
<path d="M27.1939 12.1328H23.8469V13.8063H27.1939V12.1328Z" fill="black"/>
<path d="M17.1531 13.8057H12.1327V15.4791H17.1531V13.8057Z" fill="black"/>
<path d="M27.1939 13.8057H23.8469V15.4791H27.1939V13.8057Z" fill="black"/>
<path d="M10.4592 15.4795H7.1123V17.153H10.4592V15.4795Z" fill="black"/>
<path d="M18.8266 15.4795H13.8062V17.153H18.8266V15.4795Z" fill="black"/>
<path d="M27.1939 15.4795H23.8469V17.153H27.1939V15.4795Z" fill="black"/>
<path d="M33.8877 15.4795H30.5408V17.153H33.8877V15.4795Z" fill="black"/>
<path d="M10.4592 17.1533H7.1123V18.8268H10.4592V17.1533Z" fill="black"/>
<path d="M20.5 17.1533H13.8062V18.8268H20.5V17.1533Z" fill="black"/>
<path d="M33.8877 17.1533H30.5408V18.8268H33.8877V17.1533Z" fill="black"/>
<path d="M10.4592 18.8262H7.1123V20.4996H10.4592V18.8262Z" fill="black"/>
<path d="M22.1735 18.8262H13.8062V20.4996H22.1735V18.8262Z" fill="black"/>
<path d="M33.8877 18.8262H30.5408V20.4996H33.8877V18.8262Z" fill="black"/>
<path d="M10.4592 20.5H7.1123V22.1735H10.4592V20.5Z" fill="black"/>
<path d="M17.1531 20.5H13.8062V22.1735H17.1531V20.5Z" fill="black"/>
<path d="M23.8469 20.5H18.8265V22.1735H23.8469V20.5Z" fill="black"/>
<path d="M33.8877 20.5H30.5408V22.1735H33.8877V20.5Z" fill="black"/>
<path d="M10.4592 22.1738H7.1123V23.8473H10.4592V22.1738Z" fill="black"/>
<path d="M18.8266 22.1738H13.8062V23.8473H18.8266V22.1738Z" fill="black"/>
<path d="M25.5204 22.1738H20.5V23.8473H25.5204V22.1738Z" fill="black"/>
<path d="M33.8877 22.1738H30.5408V23.8473H33.8877V22.1738Z" fill="black"/>
<path d="M12.1327 23.8467H7.1123V25.5201H12.1327V23.8467Z" fill="black"/>
<path d="M27.1939 23.8467H15.4796V25.5201H27.1939V23.8467Z" fill="black"/>
<path d="M12.1327 25.5205H8.78577V27.194H12.1327V25.5205Z" fill="black"/>
<path d="M28.8674 25.5205H17.1531V27.194H28.8674V25.5205Z" fill="black"/>
<path d="M13.8062 27.1943H8.78577V28.8678H13.8062V27.1943Z" fill="black"/>
<path d="M30.5408 27.1943H25.5204V28.8678H30.5408V27.1943Z" fill="black"/>
<path d="M17.1531 28.8672H10.4592V30.5407H17.1531V28.8672Z" fill="black"/>
<path d="M32.2143 28.8672H23.8469V30.5407H32.2143V28.8672Z" fill="black"/>
<path d="M33.8878 30.541H12.1327V32.2145H33.8878V30.541Z" fill="black"/>
<path d="M25.5204 32.2139H15.4796V33.8873H25.5204V32.2139Z" fill="black"/>
<path d="M35.5612 32.2139H30.5408V33.8873H35.5612V32.2139Z" fill="black"/>
<path d="M22.1735 33.8877H18.8265V35.5612H22.1735V33.8877Z" fill="black"/>
<path d="M37.2346 33.8877H32.2142V35.5612H37.2346V33.8877Z" fill="black"/>
<path d="M22.1735 35.5615H18.8265V37.235H22.1735V35.5615Z" fill="black"/>
<path d="M38.9081 35.5615H33.8877V37.235H38.9081V35.5615Z" fill="black"/>
<path d="M22.1735 37.2344H18.8265V38.9078H22.1735V37.2344Z" fill="black"/>
<path d="M38.9082 37.2344H35.5613V38.9078H38.9082V37.2344Z" fill="black"/>
</svg>
