<svg width="41" height="41" viewBox="0 0 41 41" fill="none" xmlns="http://www.w3.org/2000/svg">
<path d="M23.847 2.0918H17.1531V3.76527H23.847V2.0918Z" fill="black"/>
<path d="M25.5204 3.76562H15.4796V5.43909H25.5204V3.76562Z" fill="black"/>
<path d="M18.8266 5.43848H13.8062V7.11195H18.8266V5.43848Z" fill="black"/>
<path d="M27.1939 5.43848H22.1735V7.11195H27.1939V5.43848Z" fill="black"/>
<path d="M17.1531 7.1123H13.8062V8.78577H17.1531V7.1123Z" fill="black"/>
<path d="M27.1939 7.1123H23.8469V8.78577H27.1939V7.1123Z" fill="black"/>
<path d="M17.1531 8.78613H13.8062V10.4596H17.1531V8.78613Z" fill="black"/>
<path d="M27.1939 8.78613H23.8469V10.4596H27.1939V8.78613Z" fill="black"/>
<path d="M17.1531 10.459H13.8062V12.1325H17.1531V10.459Z" fill="black"/>
<path d="M27.1939 10.459H23.8469V12.1325H27.1939V10.459Z" fill="black"/>
<path d="M17.1531 12.1328H13.8062V13.8063H17.1531V12.1328Z" fill="black"/>
<path d="M27.1939 12.1328H23.8469V13.8063H27.1939V12.1328Z" fill="black"/>
<path d="M17.1531 13.8057H13.8062V15.4791H17.1531V13.8057Z" fill="black"/>
<path d="M27.1939 13.8057H23.8469V15.4791H27.1939V13.8057Z" fill="black"/>
<path d="M10.4592 15.4795H7.1123V17.153H10.4592V15.4795Z" fill="black"/>
<path d="M17.1531 15.4795H13.8062V17.153H17.1531V15.4795Z" fill="black"/>
<path d="M27.1939 15.4795H23.8469V17.153H27.1939V15.4795Z" fill="black"/>
<path d="M33.8877 15.4795H30.5408V17.153H33.8877V15.4795Z" fill="black"/>
<path d="M10.4592 17.1533H7.1123V18.8268H10.4592V17.1533Z" fill="black"/>
<path d="M17.1531 17.1533H13.8062V18.8268H17.1531V17.1533Z" fill="black"/>
<path d="M27.1939 17.1533H23.8469V18.8268H27.1939V17.1533Z" fill="black"/>
<path d="M33.8877 17.1533H30.5408V18.8268H33.8877V17.1533Z" fill="black"/>
<path d="M10.4592 18.8262H7.1123V20.4996H10.4592V18.8262Z" fill="black"/>
<path d="M17.1531 18.8262H13.8062V20.4996H17.1531V18.8262Z" fill="black"/>
<path d="M27.1939 18.8262H23.8469V20.4996H27.1939V18.8262Z" fill="black"/>
<path d="M33.8877 18.8262H30.5408V20.4996H33.8877V18.8262Z" fill="black"/>
<path d="M10.4592 20.5H7.1123V22.1735H10.4592V20.5Z" fill="black"/>
<path d="M17.1531 20.5H13.8062V22.1735H17.1531V20.5Z" fill="black"/>
<path d="M27.1939 20.5H23.8469V22.1735H27.1939V20.5Z" fill="black"/>
<path d="M33.8877 20.5H30.5408V22.1735H33.8877V20.5Z" fill="black"/>
<path d="M10.4592 22.1738H7.1123V23.8473H10.4592V22.1738Z" fill="black"/>
<path d="M18.8266 22.1738H13.8062V23.8473H18.8266V22.1738Z" fill="black"/>
<path d="M27.1939 22.1738H22.1735V23.8473H27.1939V22.1738Z" fill="black"/>
<path d="M33.8877 22.1738H30.5408V23.8473H33.8877V22.1738Z" fill="black"/>
<path d="M12.1327 23.8467H7.1123V25.5201H12.1327V23.8467Z" fill="black"/>
<path d="M25.5204 23.8467H15.4796V25.5201H25.5204V23.8467Z" fill="black"/>
<path d="M33.8877 23.8467H28.8673V25.5201H33.8877V23.8467Z" fill="black"/>
<path d="M12.1327 25.5205H8.78577V27.194H12.1327V25.5205Z" fill="black"/>
<path d="M23.847 25.5205H17.1531V27.194H23.847V25.5205Z" fill="black"/>
<path d="M32.2142 25.5205H28.8673V27.194H32.2142V25.5205Z" fill="black"/>
<path d="M13.8062 27.1943H8.78577V28.8678H13.8062V27.1943Z" fill="black"/>
<path d="M32.2143 27.1943H27.1938V28.8678H32.2143V27.1943Z" fill="black"/>
<path d="M17.1531 28.8672H10.4592V30.5407H17.1531V28.8672Z" fill="black"/>
<path d="M30.5408 28.8672H23.8469V30.5407H30.5408V28.8672Z" fill="black"/>
<path d="M28.8674 30.541H12.1327V32.2145H28.8674V30.541Z" fill="black"/>
<path d="M25.5204 32.2139H15.4796V33.8873H25.5204V32.2139Z" fill="black"/>
<path d="M22.1735 33.8877H18.8265V35.5612H22.1735V33.8877Z" fill="black"/>
<path d="M22.1735 35.5615H18.8265V37.235H22.1735V35.5615Z" fill="black"/>
<path d="M22.1735 37.2344H18.8265V38.9078H22.1735V37.2344Z" fill="black"/>
</svg>
