<svg width="40" height="40" viewBox="0 0 40 40" fill="none" xmlns="http://www.w3.org/2000/svg">
<path d="M16.7347 3.67383H8.57141V5.30648H16.7347V3.67383Z" fill="black"/>
<path d="M31.4285 3.67383H23.2653V5.30648H31.4285V3.67383Z" fill="black"/>
<path d="M18.3673 5.30566H6.93872V6.93832H18.3673V5.30566Z" fill="black"/>
<path d="M33.0613 5.30566H21.6327V6.93832H33.0613V5.30566Z" fill="black"/>
<path d="M10.204 6.93848H6.93872V8.57113H10.204V6.93848Z" fill="black"/>
<path d="M18.3674 6.93848H15.1021V8.57113H18.3674V6.93848Z" fill="black"/>
<path d="M24.898 6.93848H21.6327V8.57113H24.898V6.93848Z" fill="black"/>
<path d="M33.0612 6.93848H29.7959V8.57113H33.0612V6.93848Z" fill="black"/>
<path d="M10.204 8.57129H6.93872V10.2039H10.204V8.57129Z" fill="black"/>
<path d="M18.3674 8.57129H15.1021V10.2039H18.3674V8.57129Z" fill="black"/>
<path d="M24.898 8.57129H21.6327V10.2039H24.898V8.57129Z" fill="black"/>
<path d="M33.0612 8.57129H29.7959V10.2039H33.0612V8.57129Z" fill="black"/>
<path d="M10.204 10.2041H6.93872V11.8368H10.204V10.2041Z" fill="black"/>
<path d="M18.3674 10.2041H15.1021V11.8368H18.3674V10.2041Z" fill="black"/>
<path d="M24.898 10.2041H21.6327V11.8368H24.898V10.2041Z" fill="black"/>
<path d="M33.0612 10.2041H29.7959V11.8368H33.0612V10.2041Z" fill="black"/>
<path d="M10.204 11.8369H6.93872V13.4696H10.204V11.8369Z" fill="black"/>
<path d="M18.3674 11.8369H15.1021V13.4696H18.3674V11.8369Z" fill="black"/>
<path d="M24.898 11.8369H21.6327V13.4696H24.898V11.8369Z" fill="black"/>
<path d="M33.0612 11.8369H29.7959V13.4696H33.0612V11.8369Z" fill="black"/>
<path d="M10.204 13.4697H6.93872V15.1024H10.204V13.4697Z" fill="black"/>
<path d="M18.3674 13.4697H15.1021V15.1024H18.3674V13.4697Z" fill="black"/>
<path d="M24.898 13.4697H21.6327V15.1024H24.898V13.4697Z" fill="black"/>
<path d="M33.0612 13.4697H29.7959V15.1024H33.0612V13.4697Z" fill="black"/>
<path d="M10.204 15.1016H6.93872V16.7342H10.204V15.1016Z" fill="black"/>
<path d="M18.3674 15.1016H15.1021V16.7342H18.3674V15.1016Z" fill="black"/>
<path d="M24.898 15.1016H21.6327V16.7342H24.898V15.1016Z" fill="black"/>
<path d="M33.0612 15.1016H29.7959V16.7342H33.0612V15.1016Z" fill="black"/>
<path d="M10.204 16.7344H6.93872V18.367H10.204V16.7344Z" fill="black"/>
<path d="M18.3674 16.7344H15.1021V18.367H18.3674V16.7344Z" fill="black"/>
<path d="M24.898 16.7344H21.6327V18.367H24.898V16.7344Z" fill="black"/>
<path d="M33.0612 16.7344H29.7959V18.367H33.0612V16.7344Z" fill="black"/>
<path d="M10.204 18.3672H6.93872V19.9998H10.204V18.3672Z" fill="black"/>
<path d="M18.3674 18.3672H15.1021V19.9998H18.3674V18.3672Z" fill="black"/>
<path d="M24.898 18.3672H21.6327V19.9998H24.898V18.3672Z" fill="black"/>
<path d="M33.0612 18.3672H29.7959V19.9998H33.0612V18.3672Z" fill="black"/>
<path d="M10.204 20H6.93872V21.6327H10.204V20Z" fill="black"/>
<path d="M18.3674 20H15.1021V21.6327H18.3674V20Z" fill="black"/>
<path d="M24.898 20H21.6327V21.6327H24.898V20Z" fill="black"/>
<path d="M33.0612 20H29.7959V21.6327H33.0612V20Z" fill="black"/>
<path d="M10.204 21.6328H6.93872V23.2655H10.204V21.6328Z" fill="black"/>
<path d="M18.3674 21.6328H15.1021V23.2655H18.3674V21.6328Z" fill="black"/>
<path d="M24.898 21.6328H21.6327V23.2655H24.898V21.6328Z" fill="black"/>
<path d="M33.0612 21.6328H29.7959V23.2655H33.0612V21.6328Z" fill="black"/>
<path d="M10.204 23.2656H6.93872V24.8983H10.204V23.2656Z" fill="black"/>
<path d="M18.3674 23.2656H15.1021V24.8983H18.3674V23.2656Z" fill="black"/>
<path d="M24.898 23.2656H21.6327V24.8983H24.898V23.2656Z" fill="black"/>
<path d="M33.0612 23.2656H29.7959V24.8983H33.0612V23.2656Z" fill="black"/>
<path d="M10.204 24.8984H6.93872V26.5311H10.204V24.8984Z" fill="black"/>
<path d="M18.3674 24.8984H15.1021V26.5311H18.3674V24.8984Z" fill="black"/>
<path d="M24.898 24.8984H21.6327V26.5311H24.898V24.8984Z" fill="black"/>
<path d="M33.0612 24.8984H29.7959V26.5311H33.0612V24.8984Z" fill="black"/>
<path d="M10.204 26.5303H6.93872V28.1629H10.204V26.5303Z" fill="black"/>
<path d="M18.3674 26.5303H15.1021V28.1629H18.3674V26.5303Z" fill="black"/>
<path d="M24.898 26.5303H21.6327V28.1629H24.898V26.5303Z" fill="black"/>
<path d="M33.0612 26.5303H29.7959V28.1629H33.0612V26.5303Z" fill="black"/>
<path d="M10.204 28.1631H6.93872V29.7957H10.204V28.1631Z" fill="black"/>
<path d="M18.3674 28.1631H15.1021V29.7957H18.3674V28.1631Z" fill="black"/>
<path d="M24.898 28.1631H21.6327V29.7957H24.898V28.1631Z" fill="black"/>
<path d="M33.0612 28.1631H29.7959V29.7957H33.0612V28.1631Z" fill="black"/>
<path d="M10.204 29.7959H6.93872V31.4286H10.204V29.7959Z" fill="black"/>
<path d="M18.3674 29.7959H15.1021V31.4286H18.3674V29.7959Z" fill="black"/>
<path d="M24.898 29.7959H21.6327V31.4286H24.898V29.7959Z" fill="black"/>
<path d="M33.0612 29.7959H29.7959V31.4286H33.0612V29.7959Z" fill="black"/>
<path d="M10.204 31.4287H6.93872V33.0614H10.204V31.4287Z" fill="black"/>
<path d="M18.3674 31.4287H15.1021V33.0614H18.3674V31.4287Z" fill="black"/>
<path d="M24.898 31.4287H21.6327V33.0614H24.898V31.4287Z" fill="black"/>
<path d="M33.0612 31.4287H29.7959V33.0614H33.0612V31.4287Z" fill="black"/>
<path d="M18.3673 33.0615H6.93872V34.6942H18.3673V33.0615Z" fill="black"/>
<path d="M33.0613 33.0615H21.6327V34.6942H33.0613V33.0615Z" fill="black"/>
<path d="M16.7347 34.6943H8.57141V36.327H16.7347V34.6943Z" fill="black"/>
<path d="M31.4285 34.6943H23.2653V36.327H31.4285V34.6943Z" fill="black"/>
</svg>
