<svg width="40" height="41" viewBox="0 0 40 41" fill="none" xmlns="http://www.w3.org/2000/svg">
<path d="M15.102 3.76562H8.57141V5.43909H15.102V3.76562Z" fill="black"/>
<path d="M18.3674 5.43848H6.93878V7.11195H18.3674V5.43848Z" fill="black"/>
<path d="M10.2041 7.1123H6.93878V8.78577H10.2041V7.1123Z" fill="black"/>
<path d="M20 7.1123H13.4694V8.78577H20V7.1123Z" fill="black"/>
<path d="M10.2041 8.78613H6.93878V10.4596H10.2041V8.78613Z" fill="black"/>
<path d="M23.2653 8.78613H16.7347V10.4596H23.2653V8.78613Z" fill="black"/>
<path d="M10.2041 10.459H6.93878V12.1325H10.2041V10.459Z" fill="black"/>
<path d="M26.5306 10.459H18.3674V12.1325H26.5306V10.459Z" fill="black"/>
<path d="M10.2041 12.1328H6.93878V13.8063H10.2041V12.1328Z" fill="black"/>
<path d="M29.7959 12.1328H21.6326V13.8063H29.7959V12.1328Z" fill="black"/>
<path d="M10.2041 13.8057H6.93878V15.4791H10.2041V13.8057Z" fill="black"/>
<path d="M31.4286 13.8057H24.8979V15.4791H31.4286V13.8057Z" fill="black"/>
<path d="M10.2041 15.4795H6.93878V17.153H10.2041V15.4795Z" fill="black"/>
<path d="M34.6939 15.4795H26.5306V17.153H34.6939V15.4795Z" fill="black"/>
<path d="M10.2041 17.1533H6.93878V18.8268H10.2041V17.1533Z" fill="black"/>
<path d="M36.3265 17.1533H29.7959V18.8268H36.3265V17.1533Z" fill="black"/>
<path d="M10.2041 18.8262H6.93878V20.4996H10.2041V18.8262Z" fill="black"/>
<path d="M36.3265 18.8262H33.0612V20.4996H36.3265V18.8262Z" fill="black"/>
<path d="M10.2041 20.5H6.93878V22.1735H10.2041V20.5Z" fill="black"/>
<path d="M36.3265 20.5H33.0612V22.1735H36.3265V20.5Z" fill="black"/>
<path d="M10.2041 22.1738H6.93878V23.8473H10.2041V22.1738Z" fill="black"/>
<path d="M36.3265 22.1738H29.7959V23.8473H36.3265V22.1738Z" fill="black"/>
<path d="M10.2041 23.8467H6.93878V25.5201H10.2041V23.8467Z" fill="black"/>
<path d="M34.6939 23.8467H26.5306V25.5201H34.6939V23.8467Z" fill="black"/>
<path d="M10.2041 25.5205H6.93878V27.194H10.2041V25.5205Z" fill="black"/>
<path d="M31.4286 25.5205H24.8979V27.194H31.4286V25.5205Z" fill="black"/>
<path d="M10.2041 27.1943H6.93878V28.8678H10.2041V27.1943Z" fill="black"/>
<path d="M29.7959 27.1943H21.6326V28.8678H29.7959V27.1943Z" fill="black"/>
<path d="M10.2041 28.8672H6.93878V30.5407H10.2041V28.8672Z" fill="black"/>
<path d="M26.5306 28.8672H18.3674V30.5407H26.5306V28.8672Z" fill="black"/>
<path d="M10.2041 30.541H6.93878V32.2145H10.2041V30.541Z" fill="black"/>
<path d="M23.2653 30.541H16.7347V32.2145H23.2653V30.541Z" fill="black"/>
<path d="M10.2041 32.2139H6.93878V33.8873H10.2041V32.2139Z" fill="black"/>
<path d="M20 32.2139H13.4694V33.8873H20V32.2139Z" fill="black"/>
<path d="M18.3674 33.8877H6.93878V35.5612H18.3674V33.8877Z" fill="black"/>
<path d="M15.102 35.5615H8.57141V37.235H15.102V35.5615Z" fill="black"/>
</svg>
