<svg width="40" height="41" viewBox="0 0 40 41" fill="none" xmlns="http://www.w3.org/2000/svg">
<path d="M26.5307 8.78613H3.67358V10.4596H26.5307V8.78613Z" fill="black"/>
<path d="M28.1632 10.459H2.04077V12.1325H28.1632V10.459Z" fill="black"/>
<path d="M36.3265 10.459H34.6938V12.1325H36.3265V10.459Z" fill="black"/>
<path d="M5.30608 12.1328H2.04077V13.8063H5.30608V12.1328Z" fill="black"/>
<path d="M28.1633 12.1328H24.8979V13.8063H28.1633V12.1328Z" fill="black"/>
<path d="M37.9591 12.1328H31.4285V13.8063H37.9591V12.1328Z" fill="black"/>
<path d="M5.30608 13.8057H2.04077V15.4791H5.30608V13.8057Z" fill="black"/>
<path d="M37.9592 13.8057H24.8979V15.4791H37.9592V13.8057Z" fill="black"/>
<path d="M5.30608 15.4795H2.04077V17.153H5.30608V15.4795Z" fill="black"/>
<path d="M33.0612 15.4795H24.8979V17.153H33.0612V15.4795Z" fill="black"/>
<path d="M37.9592 15.4795H34.6938V17.153H37.9592V15.4795Z" fill="black"/>
<path d="M5.30608 17.1533H2.04077V18.8268H5.30608V17.1533Z" fill="black"/>
<path d="M29.7959 17.1533H24.8979V18.8268H29.7959V17.1533Z" fill="black"/>
<path d="M37.9592 17.1533H34.6938V18.8268H37.9592V17.1533Z" fill="black"/>
<path d="M5.30608 18.8262H2.04077V20.4996H5.30608V18.8262Z" fill="black"/>
<path d="M28.1633 18.8262H24.8979V20.4996H28.1633V18.8262Z" fill="black"/>
<path d="M37.9592 18.8262H34.6938V20.4996H37.9592V18.8262Z" fill="black"/>
<path d="M5.30608 20.5H2.04077V22.1735H5.30608V20.5Z" fill="black"/>
<path d="M28.1633 20.5H24.8979V22.1735H28.1633V20.5Z" fill="black"/>
<path d="M37.9592 20.5H34.6938V22.1735H37.9592V20.5Z" fill="black"/>
<path d="M5.30608 22.1738H2.04077V23.8473H5.30608V22.1738Z" fill="black"/>
<path d="M31.4286 22.1738H24.8979V23.8473H31.4286V22.1738Z" fill="black"/>
<path d="M37.9592 22.1738H34.6938V23.8473H37.9592V22.1738Z" fill="black"/>
<path d="M5.30608 23.8467H2.04077V25.5201H5.30608V23.8467Z" fill="black"/>
<path d="M33.0612 23.8467H24.8979V25.5201H33.0612V23.8467Z" fill="black"/>
<path d="M37.9592 23.8467H34.6938V25.5201H37.9592V23.8467Z" fill="black"/>
<path d="M5.30608 25.5205H2.04077V27.194H5.30608V25.5205Z" fill="black"/>
<path d="M28.1633 25.5205H24.8979V27.194H28.1633V25.5205Z" fill="black"/>
<path d="M37.9592 25.5205H29.7959V27.194H37.9592V25.5205Z" fill="black"/>
<path d="M5.30608 27.1943H2.04077V28.8678H5.30608V27.1943Z" fill="black"/>
<path d="M28.1633 27.1943H24.8979V28.8678H28.1633V27.1943Z" fill="black"/>
<path d="M37.9591 27.1943H31.4285V28.8678H37.9591V27.1943Z" fill="black"/>
<path d="M28.1632 28.8672H2.04077V30.5407H28.1632V28.8672Z" fill="black"/>
<path d="M36.3265 28.8672H34.6938V30.5407H36.3265V28.8672Z" fill="black"/>
<path d="M26.5307 30.541H3.67358V32.2145H26.5307V30.541Z" fill="black"/>
</svg>
