<svg width="40" height="41" viewBox="0 0 40 41" fill="none" xmlns="http://www.w3.org/2000/svg">
<path d="M20 5.43848H15.1021V7.11195H20V5.43848Z" fill="black"/>
<path d="M20.0001 7.1123H13.4695V8.78577H20.0001V7.1123Z" fill="black"/>
<path d="M19.9999 8.78613H11.8367V10.4596H19.9999V8.78613Z" fill="black"/>
<path d="M34.6939 8.78613H29.7959V10.4596H34.6939V8.78613Z" fill="black"/>
<path d="M15.1021 10.459H10.2041V12.1325H15.1021V10.459Z" fill="black"/>
<path d="M19.9999 10.459H16.7346V12.1325H19.9999V10.459Z" fill="black"/>
<path d="M34.6938 10.459H31.4285V12.1325H34.6938V10.459Z" fill="black"/>
<path d="M13.4695 12.1328H3.67358V13.8063H13.4695V12.1328Z" fill="black"/>
<path d="M19.9999 12.1328H16.7346V13.8063H19.9999V12.1328Z" fill="black"/>
<path d="M36.3264 12.1328H31.4285V13.8063H36.3264V12.1328Z" fill="black"/>
<path d="M11.8367 13.8057H2.04077V15.4791H11.8367V13.8057Z" fill="black"/>
<path d="M19.9999 13.8057H16.7346V15.4791H19.9999V13.8057Z" fill="black"/>
<path d="M28.1633 13.8057H24.8979V15.4791H28.1633V13.8057Z" fill="black"/>
<path d="M37.9592 13.8057H33.0613V15.4791H37.9592V13.8057Z" fill="black"/>
<path d="M5.30608 15.4795H2.04077V17.153H5.30608V15.4795Z" fill="black"/>
<path d="M19.9999 15.4795H16.7346V17.153H19.9999V15.4795Z" fill="black"/>
<path d="M29.7959 15.4795H24.8979V17.153H29.7959V15.4795Z" fill="black"/>
<path d="M37.9592 15.4795H33.0613V17.153H37.9592V15.4795Z" fill="black"/>
<path d="M5.30608 17.1533H2.04077V18.8268H5.30608V17.1533Z" fill="black"/>
<path d="M19.9999 17.1533H16.7346V18.8268H19.9999V17.1533Z" fill="black"/>
<path d="M29.7958 17.1533H26.5305V18.8268H29.7958V17.1533Z" fill="black"/>
<path d="M37.9592 17.1533H34.6938V18.8268H37.9592V17.1533Z" fill="black"/>
<path d="M5.30608 18.8262H2.04077V20.4996H5.30608V18.8262Z" fill="black"/>
<path d="M19.9999 18.8262H16.7346V20.4996H19.9999V18.8262Z" fill="black"/>
<path d="M29.7958 18.8262H26.5305V20.4996H29.7958V18.8262Z" fill="black"/>
<path d="M37.9592 18.8262H34.6938V20.4996H37.9592V18.8262Z" fill="black"/>
<path d="M5.30608 20.5H2.04077V22.1735H5.30608V20.5Z" fill="black"/>
<path d="M19.9999 20.5H16.7346V22.1735H19.9999V20.5Z" fill="black"/>
<path d="M29.7958 20.5H26.5305V22.1735H29.7958V20.5Z" fill="black"/>
<path d="M37.9592 20.5H34.6938V22.1735H37.9592V20.5Z" fill="black"/>
<path d="M5.30608 22.1738H2.04077V23.8473H5.30608V22.1738Z" fill="black"/>
<path d="M19.9999 22.1738H16.7346V23.8473H19.9999V22.1738Z" fill="black"/>
<path d="M29.7958 22.1738H26.5305V23.8473H29.7958V22.1738Z" fill="black"/>
<path d="M37.9592 22.1738H34.6938V23.8473H37.9592V22.1738Z" fill="black"/>
<path d="M5.30608 23.8467H2.04077V25.5201H5.30608V23.8467Z" fill="black"/>
<path d="M19.9999 23.8467H16.7346V25.5201H19.9999V23.8467Z" fill="black"/>
<path d="M29.7959 23.8467H24.8979V25.5201H29.7959V23.8467Z" fill="black"/>
<path d="M37.9592 23.8467H33.0613V25.5201H37.9592V23.8467Z" fill="black"/>
<path d="M11.8367 25.5205H2.04077V27.194H11.8367V25.5205Z" fill="black"/>
<path d="M19.9999 25.5205H16.7346V27.194H19.9999V25.5205Z" fill="black"/>
<path d="M28.1633 25.5205H24.8979V27.194H28.1633V25.5205Z" fill="black"/>
<path d="M37.9592 25.5205H33.0613V27.194H37.9592V25.5205Z" fill="black"/>
<path d="M13.4695 27.1943H3.67358V28.8678H13.4695V27.1943Z" fill="black"/>
<path d="M19.9999 27.1943H16.7346V28.8678H19.9999V27.1943Z" fill="black"/>
<path d="M36.3264 27.1943H31.4285V28.8678H36.3264V27.1943Z" fill="black"/>
<path d="M15.1021 28.8672H10.2041V30.5407H15.1021V28.8672Z" fill="black"/>
<path d="M19.9999 28.8672H16.7346V30.5407H19.9999V28.8672Z" fill="black"/>
<path d="M34.6938 28.8672H31.4285V30.5407H34.6938V28.8672Z" fill="black"/>
<path d="M19.9999 30.541H11.8367V32.2145H19.9999V30.541Z" fill="black"/>
<path d="M34.6939 30.541H29.7959V32.2145H34.6939V30.541Z" fill="black"/>
<path d="M20.0001 32.2139H13.4695V33.8873H20.0001V32.2139Z" fill="black"/>
<path d="M20 33.8877H15.1021V35.5612H20V33.8877Z" fill="black"/>
</svg>
