<svg width="40" height="40" viewBox="0 0 40 40" fill="none" xmlns="http://www.w3.org/2000/svg">
<path d="M20 5.30566H15.1021V6.93832H20V5.30566Z" fill="black"/>
<path d="M20.0001 6.93848H13.4695V8.57113H20.0001V6.93848Z" fill="black"/>
<path d="M19.9999 8.57129H11.8367V10.2039H19.9999V8.57129Z" fill="black"/>
<path d="M15.1021 10.2041H10.2041V11.8368H15.1021V10.2041Z" fill="black"/>
<path d="M19.9999 10.2041H16.7346V11.8368H19.9999V10.2041Z" fill="black"/>
<path d="M13.4695 11.8369H3.67358V13.4696H13.4695V11.8369Z" fill="black"/>
<path d="M19.9999 11.8369H16.7346V13.4696H19.9999V11.8369Z" fill="black"/>
<path d="M11.8367 13.4697H2.04077V15.1024H11.8367V13.4697Z" fill="black"/>
<path d="M19.9999 13.4697H16.7346V15.1024H19.9999V13.4697Z" fill="black"/>
<path d="M28.1633 13.4697H24.8979V15.1024H28.1633V13.4697Z" fill="black"/>
<path d="M5.30608 15.1016H2.04077V16.7342H5.30608V15.1016Z" fill="black"/>
<path d="M19.9999 15.1016H16.7346V16.7342H19.9999V15.1016Z" fill="black"/>
<path d="M29.7959 15.1016H24.8979V16.7342H29.7959V15.1016Z" fill="black"/>
<path d="M5.30608 16.7344H2.04077V18.367H5.30608V16.7344Z" fill="black"/>
<path d="M19.9999 16.7344H16.7346V18.367H19.9999V16.7344Z" fill="black"/>
<path d="M29.7958 16.7344H26.5305V18.367H29.7958V16.7344Z" fill="black"/>
<path d="M5.30608 18.3672H2.04077V19.9998H5.30608V18.3672Z" fill="black"/>
<path d="M19.9999 18.3672H16.7346V19.9998H19.9999V18.3672Z" fill="black"/>
<path d="M29.7958 18.3672H26.5305V19.9998H29.7958V18.3672Z" fill="black"/>
<path d="M5.30608 20H2.04077V21.6327H5.30608V20Z" fill="black"/>
<path d="M19.9999 20H16.7346V21.6327H19.9999V20Z" fill="black"/>
<path d="M29.7958 20H26.5305V21.6327H29.7958V20Z" fill="black"/>
<path d="M5.30608 21.6328H2.04077V23.2655H5.30608V21.6328Z" fill="black"/>
<path d="M19.9999 21.6328H16.7346V23.2655H19.9999V21.6328Z" fill="black"/>
<path d="M29.7958 21.6328H26.5305V23.2655H29.7958V21.6328Z" fill="black"/>
<path d="M5.30608 23.2656H2.04077V24.8983H5.30608V23.2656Z" fill="black"/>
<path d="M19.9999 23.2656H16.7346V24.8983H19.9999V23.2656Z" fill="black"/>
<path d="M29.7959 23.2656H24.8979V24.8983H29.7959V23.2656Z" fill="black"/>
<path d="M11.8367 24.8984H2.04077V26.5311H11.8367V24.8984Z" fill="black"/>
<path d="M19.9999 24.8984H16.7346V26.5311H19.9999V24.8984Z" fill="black"/>
<path d="M28.1633 24.8984H24.8979V26.5311H28.1633V24.8984Z" fill="black"/>
<path d="M13.4695 26.5303H3.67358V28.1629H13.4695V26.5303Z" fill="black"/>
<path d="M19.9999 26.5303H16.7346V28.1629H19.9999V26.5303Z" fill="black"/>
<path d="M15.1021 28.1631H10.2041V29.7957H15.1021V28.1631Z" fill="black"/>
<path d="M19.9999 28.1631H16.7346V29.7957H19.9999V28.1631Z" fill="black"/>
<path d="M19.9999 29.7959H11.8367V31.4286H19.9999V29.7959Z" fill="black"/>
<path d="M20.0001 31.4287H13.4695V33.0614H20.0001V31.4287Z" fill="black"/>
<path d="M20 33.0615H15.1021V34.6942H20V33.0615Z" fill="black"/>
</svg>
