<svg width="24" height="24" viewBox="0 0 24 24" fill="none" xmlns="http://www.w3.org/2000/svg">
<path d="M10.852 14.772L10.469 15.695M14.7719 13.1485C14.6211 13.5125 14.4 13.8433 14.1214 14.1218C13.8428 14.4004 13.512 14.6214 13.148 14.7722C12.784 14.9229 12.3939 15.0004 11.9999 15.0003C11.6059 15.0003 11.216 14.9228 10.852 14.772M10.852 14.772C10.488 14.6212 10.157 14.4001 9.8784 14.1214C9.59981 13.8428 9.37883 13.5121 9.22807 13.148M13.148 14.7722L13.5301 15.696M14.7719 13.1485C14.9227 12.7845 15.0003 12.3944 15.0003 12.0004C15.0003 11.6064 14.9228 11.2162 14.772 10.8522M14.7719 13.1485L15.695 13.5309M14.772 10.8522C14.6212 10.4882 14.4003 10.1574 14.1217 9.87876C13.8431 9.60014 13.5123 9.37912 13.1483 9.22832M14.772 10.8522L15.695 10.4692M9.22821 10.8517C9.37901 10.4877 9.60004 10.1569 9.87866 9.87835C10.1573 9.59977 10.488 9.37893 10.852 9.22818C11.216 9.07742 11.6062 8.99984 12.0002 8.99986C12.3942 8.99989 12.7843 9.07751 13.1483 9.22832M13.1483 9.22832L13.5309 8.30518M10.852 9.22818L10.469 8.30518M9.22807 13.148C9.07731 12.784 8.99973 12.3938 8.99976 11.9998C8.99978 11.6058 9.07741 11.2157 9.22821 10.8517M9.22807 13.148L8.30493 13.5309M9.22821 10.8517L8.30493 10.4692M4.5 10H4C3.46957 10 2.96086 9.78929 2.58579 9.41421C2.21071 9.03914 2 8.53043 2 8V4C2 3.46957 2.21071 2.96086 2.58579 2.58579C2.96086 2.21071 3.46957 2 4 2H20C20.5304 2 21.0391 2.21071 21.4142 2.58579C21.7893 2.96086 22 3.46957 22 4V8C22 8.53043 21.7893 9.03914 21.4142 9.41421C21.0391 9.78929 20.5304 10 20 10H19.5M4.5 14H4C3.46957 14 2.96086 14.2107 2.58579 14.5858C2.21071 14.9609 2 15.4696 2 16V20C2 20.5304 2.21071 21.0391 2.58579 21.4142C2.96086 21.7893 3.46957 22 4 22H20C20.5304 22 21.0391 21.7893 21.4142 21.4142C21.7893 21.0391 22 20.5304 22 20V16C22 15.4696 21.7893 14.9609 21.4142 14.5858C21.0391 14.2107 20.5304 14 20 14H19.5M6 18H6.01M6 6H6.01" stroke="black" stroke-width="2" stroke-linecap="round" stroke-linejoin="round"/>
</svg>
