<svg width="24" height="24" viewBox="0 0 24 24" fill="none" xmlns="http://www.w3.org/2000/svg">
<path d="M13.5 17C13.5 18.3807 12.4926 19.5 11.25 19.5C10.0074 19.5 9 18.3807 9 17" stroke="#1C1F21" stroke-width="1.5" stroke-linecap="round" stroke-linejoin="round"/>
<path d="M17 17.0001H3.99999C3.80619 17.0001 3.61655 16.9439 3.45413 16.8382C3.2917 16.7324 3.1635 16.5818 3.0851 16.4046C3.00671 16.2273 2.9815 16.0311 3.01255 15.8398C3.0436 15.6486 3.12957 15.4704 3.25999 15.3271C4.58999 13.9561 5.99999 12.4991 5.99999 8.00006C5.99985 7.40986 6.08678 6.82287 6.25799 6.25806M2 2L22 22L2 2ZM7.96097 4.28733C8.86445 3.68401 9.9148 3.33732 10.9999 3.28426C12.085 3.23119 13.1642 3.47374 14.1222 3.98603C15.0802 4.49831 15.8812 5.2611 16.4396 6.193C16.9981 7.12489 17.293 8.19093 17.293 9.27733C17.293 11.9643 17.563 13.603 18.5 15" fill="#DDDDDD"/>
<path d="M17 17.0001H3.99999C3.80619 17.0001 3.61655 16.9439 3.45413 16.8382C3.2917 16.7324 3.1635 16.5818 3.0851 16.4046C3.00671 16.2273 2.9815 16.0311 3.01255 15.8398C3.0436 15.6486 3.12957 15.4704 3.25999 15.3271C4.58999 13.9561 5.99999 12.4991 5.99999 8.00006C5.99985 7.40986 6.08678 6.82287 6.25799 6.25806M2 2L22 22M7.96097 4.28733C8.86445 3.68401 9.9148 3.33732 10.9999 3.28426C12.085 3.23119 13.1642 3.47374 14.1222 3.98603C15.0802 4.49831 15.8812 5.2611 16.4396 6.193C16.9981 7.12489 17.293 8.19093 17.293 9.27733C17.293 11.9643 17.563 13.603 18.5 15L7.96097 4.28733Z" stroke="black" stroke-width="2" stroke-linecap="round" stroke-linejoin="round"/>
</svg>
