<svg width="24" height="24" viewBox="0 0 24 24" fill="none" xmlns="http://www.w3.org/2000/svg">
<path d="M6 21.9998V2.79972C5.99988 2.66213 6.03525 2.52684 6.10268 2.40691C6.17012 2.28698 6.26735 2.18647 6.38497 2.1151C6.50259 2.04372 6.63664 2.00388 6.77416 1.99944C6.91167 1.99499 7.04801 2.02609 7.17 2.08972L18.55 7.77972C18.6853 7.84523 18.7993 7.94751 18.8791 8.07485C18.959 8.20219 19.0013 8.34944 19.0013 8.49972C19.0013 8.65001 18.959 8.79725 18.8791 8.92459C18.7993 9.05193 18.6853 9.15421 18.55 9.21972L6 15.4998" fill="#DDDDDD"/>
<path d="M6 21.9998V2.79972C5.99988 2.66213 6.03525 2.52684 6.10268 2.40691C6.17012 2.28698 6.26735 2.18647 6.38497 2.1151C6.50259 2.04372 6.63664 2.00388 6.77416 1.99944C6.91167 1.99499 7.04801 2.02609 7.17 2.08972L18.55 7.77972C18.6853 7.84523 18.7993 7.94751 18.8791 8.07485C18.959 8.20219 19.0013 8.34944 19.0013 8.49972C19.0013 8.65001 18.959 8.79725 18.8791 8.92459C18.7993 9.05193 18.6853 9.15421 18.55 9.21972L6 15.4998" stroke="#1C1F21" stroke-width="2" stroke-linecap="round" stroke-linejoin="round"/>
</svg>
