<svg width="24" height="24" viewBox="0 0 24 24" fill="none" xmlns="http://www.w3.org/2000/svg">
<path d="M4.04244 20.9365C3.76484 21.0752 3.45874 21.1474 3.14844 21.1474V6.1464C3.45874 6.1464 3.76484 6.07418 4.04244 5.93547L7.70144 4.10547C7.85404 4.02923 8.02354 3.99328 8.19394 4.00103C8.36434 4.00879 8.52984 4.06 8.67494 4.1498C8.81994 4.23959 8.93954 4.36498 9.02244 4.51405C9.10534 4.66312 9.14874 4.83091 9.14844 5.00147V17.7655C9.14834 17.9512 9.09654 18.1331 8.99894 18.291C8.90124 18.4489 8.76154 18.5765 8.59544 18.6595L4.04244 20.9365Z" fill="#DDDDDD"/>
<path d="M9 3.23633C8.68967 3.23633 8.3836 3.30855 8.106 3.44727L3.553 5.72427C3.38692 5.80726 3.24722 5.93484 3.14956 6.09274C3.05189 6.25064 3.0001 6.4326 3 6.61827V19.3812C2.99958 19.5519 3.04284 19.7198 3.12565 19.869C3.20846 20.0182 3.32808 20.1437 3.47312 20.2336C3.61816 20.3235 3.78379 20.3748 3.95426 20.3826C4.12473 20.3904 4.29436 20.3545 4.447 20.2782L8.106 18.4482C8.3836 18.3095 8.68967 18.2373 9 18.2373C9.31033 18.2373 9.6164 18.3095 9.894 18.4482L14.106 20.5542C14.3836 20.6929 14.6897 20.7651 15 20.7651C15.3103 20.7651 15.6164 20.6929 15.894 20.5542L20.447 18.2772C20.6131 18.1942 20.7528 18.0666 20.8505 17.9087C20.9481 17.7508 20.9999 17.5689 21 17.3832V4.61927C21.0003 4.44871 20.9569 4.28092 20.874 4.13185C20.7911 3.98278 20.6715 3.85739 20.5265 3.7676C20.3814 3.6778 20.2159 3.62659 20.0455 3.61883C19.8751 3.61108 19.7056 3.64703 19.553 3.72327L15.894 5.55327C15.6164 5.69198 15.3103 5.7642 15 5.7642C14.6897 5.7642 14.3836 5.69198 14.106 5.55327L9.894 3.44727C9.6164 3.30855 9.31033 3.23633 9 3.23633ZM15 5.7642V20.7651V5.7642ZM9 3.23633V18.2363V3.23633Z" fill="#DDDDDD"/>
<path d="M9 3.23633C8.68967 3.23633 8.3836 3.30855 8.106 3.44727L3.553 5.72427C3.38692 5.80726 3.24722 5.93484 3.14956 6.09274C3.05189 6.25064 3.0001 6.4326 3 6.61827V19.3812C2.99958 19.5519 3.04284 19.7198 3.12565 19.869C3.20846 20.0182 3.32808 20.1437 3.47312 20.2336C3.61816 20.3235 3.78379 20.3748 3.95426 20.3826C4.12473 20.3904 4.29436 20.3545 4.447 20.2782L8.106 18.4482C8.3836 18.3095 8.68967 18.2373 9 18.2373C9.31033 18.2373 9.6164 18.3095 9.894 18.4482L14.106 20.5542C14.3836 20.6929 14.6897 20.7651 15 20.7651M9 3.23633C9.31033 3.23633 9.6164 3.30855 9.894 3.44727L14.106 5.55327C14.3836 5.69198 14.6897 5.7642 15 5.7642M9 3.23633V18.2363M15 20.7651C15.3103 20.7651 15.6164 20.6929 15.894 20.5542L20.447 18.2772C20.6131 18.1942 20.7528 18.0666 20.8505 17.9087C20.9481 17.7508 20.9999 17.5689 21 17.3832V4.61927C21.0003 4.44871 20.9569 4.28092 20.874 4.13185C20.7911 3.98278 20.6715 3.85739 20.5265 3.7676C20.3814 3.6778 20.2159 3.62659 20.0455 3.61883C19.8751 3.61108 19.7056 3.64703 19.553 3.72327L15.894 5.55327C15.6164 5.69198 15.3103 5.7642 15 5.7642M15 20.7651V5.7642" stroke="#1C1F21" stroke-width="2" stroke-linecap="round" stroke-linejoin="round"/>
<path d="M15.894 20.5536C15.6164 20.6923 15.3103 20.7645 15 20.7645V5.76359C15.3103 5.76359 15.6164 5.69137 15.894 5.55266L19.553 3.72266C19.7056 3.64642 19.8751 3.61047 20.0455 3.61822C20.2159 3.62598 20.3814 3.67719 20.5265 3.76699C20.6715 3.85678 20.7911 3.98217 20.874 4.13124C20.9569 4.28031 21.0003 4.4481 21 4.61866V17.3826C20.9999 17.5683 20.9481 17.7502 20.8505 17.9081C20.7528 18.066 20.6131 18.1936 20.447 18.2766L15.894 20.5536Z" fill="#DDDDDD" stroke="#1C1F21" stroke-width="2" stroke-linecap="round" stroke-linejoin="round"/>
</svg>
