<svg width="24" height="24" viewBox="0 0 24 24" fill="none" xmlns="http://www.w3.org/2000/svg">
<path d="M3.00001 8.26855C2.6951 8.44459 2.44206 8.698 2.26647 9.00317C2.09088 9.30835 1.99896 9.65446 2.00001 10.0066V19.0006C2.00001 19.531 2.21072 20.0397 2.5858 20.4148C2.96087 20.7899 3.46958 21.0006 4.00001 21.0006H15C15.3511 21.0006 15.696 20.9081 16 20.7326C16.304 20.5571 16.5565 20.3046 16.732 20.0006" stroke="#1C1F21" stroke-width="2" stroke-linecap="round" stroke-linejoin="round"/>
<path d="M21.5626 4.58579C21.1875 4.21071 20.6788 4 20.1484 4H14.6484C14.4155 4 14.1859 3.94578 13.9776 3.84164C13.7693 3.7375 13.5881 3.58629 13.4484 3.4L12.8484 2.6C12.7087 2.41371 12.5275 2.2625 12.3192 2.15836C12.1109 2.05422 11.8813 2 11.6484 2H9.14844C8.61801 2 8.1093 2.21071 7.73423 2.58579C7.35915 2.96086 7.14844 3.46957 7.14844 4V13C7.14844 13.5304 7.35915 14.0391 7.73423 14.4142C8.1093 14.7893 8.61801 15 9.14844 15H20.1484C20.6788 15 21.1875 14.7893 21.5626 14.4142C21.9377 14.0391 22.1484 13.5304 22.1484 13V6C22.1484 5.46957 21.9377 4.96086 21.5626 4.58579Z" fill="#DDDDDD" stroke="#1C1F21" stroke-width="2" stroke-linecap="round" stroke-linejoin="round"/>
</svg>
