<svg width="24" height="24" viewBox="0 0 24 24" fill="none" xmlns="http://www.w3.org/2000/svg">
<path d="M4.39303 15.2696C3.57629 14.5551 2.93685 13.6605 2.5252 12.6565C2.11354 11.6524 1.94095 10.5665 2.02105 9.48427C2.10115 8.40209 2.43175 7.35335 2.98674 6.42087C3.54173 5.48839 4.30591 4.6977 5.21894 4.11126C6.13197 3.52482 7.16883 3.15867 8.24766 3.04174C9.32648 2.92481 10.4177 3.06029 11.4352 3.43749C12.4527 3.81469 13.3685 4.42328 14.1104 5.21519C14.8523 6.00711 15.3999 6.96066 15.71 8.00055H17.5C18.4721 8.00043 19.4181 8.31507 20.1964 8.8974C20.9747 9.47974 21.5436 10.2985 21.8178 11.231C22.092 12.1636 22.0569 13.1599 21.7177 14.0709C21.3785 14.9818 20.7534 15.7585 19.936 16.2846" stroke="#A4A5A6" stroke-width="2" stroke-linecap="round" stroke-linejoin="round"/>
<path d="M12 13V21M8 17L12 21L16 17" stroke="#DDDDDD" stroke-width="2" stroke-linecap="round" stroke-linejoin="round"/>
</svg>
