<svg width="24" height="24" viewBox="0 0 24 24" fill="none" xmlns="http://www.w3.org/2000/svg">
<path d="M20.985 12.4864C20.8912 14.2225 20.2966 15.8944 19.273 17.2998C18.2494 18.7052 16.8406 19.7841 15.217 20.4059C13.5933 21.0278 11.8243 21.166 10.1237 20.8039C8.42318 20.4418 6.86392 19.5949 5.63442 18.3655C4.40493 17.1362 3.55785 15.577 3.19558 13.8765C2.83331 12.176 2.97136 10.4069 3.59304 8.78322C4.21472 7.15949 5.29342 5.75059 6.69874 4.72684C8.10406 3.70308 9.77583 3.10831 11.512 3.0144C11.917 2.9924 12.129 3.4744 11.914 3.8174C11.1949 4.96796 10.8869 6.32827 11.0405 7.67635C11.194 9.02443 11.7999 10.2807 12.7593 11.24C13.7187 12.1994 14.9749 12.8054 16.323 12.9589C17.6711 13.1124 19.0314 12.8045 20.182 12.0854C20.526 11.8704 21.007 12.0814 20.985 12.4864Z" fill="#A4A5A6"/>
</svg>
