<svg width="24" height="24" viewBox="0 0 24 24" fill="none" xmlns="http://www.w3.org/2000/svg">
<mask id="mask0_85_183" style="mask-type:alpha" maskUnits="userSpaceOnUse" x="3" y="7" width="18" height="14">
<path d="M20.25 17.05V7.75H3.75V17.05C3.75 18.1701 3.75 18.7302 3.96799 19.158C4.15973 19.5343 4.46569 19.8403 4.84202 20.032C5.26984 20.25 5.8299 20.25 6.95 20.25H17.05C18.1701 20.25 18.7302 20.25 19.158 20.032C19.5343 19.8403 19.8403 19.5343 20.032 19.158C20.25 18.7302 20.25 18.1701 20.25 17.05Z" fill="black"/>
</mask>
<g mask="url(#mask0_85_183)">
<g filter="url(#filter0_f_85_183)">
<path d="M10 12.5H14" stroke="url(#paint0_linear_85_183)" stroke-linecap="round" stroke-linejoin="round"/>
</g>
<g filter="url(#filter1_f_85_183)">
<path d="M3 4.5H21.5V8.5H3V4.5Z" fill="url(#paint1_linear_85_183)"/>
<path d="M3 4.5H21.5V8.5H3V4.5Z" stroke="url(#paint2_linear_85_183)" stroke-linecap="round" stroke-linejoin="round"/>
</g>
</g>
<path d="M20.25 17.05V7.75H3.75V17.05C3.75 18.1701 3.75 18.7302 3.96799 19.158C4.15973 19.5343 4.46569 19.8403 4.84202 20.032C5.26984 20.25 5.8299 20.25 6.95 20.25H17.05C18.1701 20.25 18.7302 20.25 19.158 20.032C19.5343 19.8403 19.8403 19.5343 20.032 19.158C20.25 18.7302 20.25 18.1701 20.25 17.05Z" fill="url(#paint3_linear_85_183)" stroke="url(#paint4_linear_85_183)" stroke-linecap="round" stroke-linejoin="round"/>
<path d="M2.75 3.75H21.25V7.75H2.75V3.75Z" fill="url(#paint5_linear_85_183)" stroke="url(#paint6_linear_85_183)" stroke-linecap="round" stroke-linejoin="round"/>
<path d="M10 11.75H14" stroke="url(#paint7_linear_85_183)" stroke-linecap="round" stroke-linejoin="round"/>
<defs>
<filter id="filter0_f_85_183" x="8.5" y="11" width="7" height="3" filterUnits="userSpaceOnUse" color-interpolation-filters="sRGB">
<feFlood flood-opacity="0" result="BackgroundImageFix"/>
<feBlend mode="normal" in="SourceGraphic" in2="BackgroundImageFix" result="shape"/>
<feGaussianBlur stdDeviation="0.5" result="effect1_foregroundBlur_85_183"/>
</filter>
<filter id="filter1_f_85_183" x="1.5" y="3" width="21.5" height="7" filterUnits="userSpaceOnUse" color-interpolation-filters="sRGB">
<feFlood flood-opacity="0" result="BackgroundImageFix"/>
<feBlend mode="normal" in="SourceGraphic" in2="BackgroundImageFix" result="shape"/>
<feGaussianBlur stdDeviation="0.5" result="effect1_foregroundBlur_85_183"/>
</filter>
<linearGradient id="paint0_linear_85_183" x1="12" y1="12.5" x2="12" y2="13.5" gradientUnits="userSpaceOnUse">
<stop stop-color="#575757"/>
<stop offset="1" stop-color="#151515"/>
</linearGradient>
<linearGradient id="paint1_linear_85_183" x1="12.25" y1="4.5" x2="12.25" y2="8.5" gradientUnits="userSpaceOnUse">
<stop stop-color="#575757"/>
<stop offset="1" stop-color="#151515"/>
</linearGradient>
<linearGradient id="paint2_linear_85_183" x1="12.25" y1="4.5" x2="12.25" y2="8.5" gradientUnits="userSpaceOnUse">
<stop stop-color="#575757"/>
<stop offset="1" stop-color="#151515"/>
</linearGradient>
<linearGradient id="paint3_linear_85_183" x1="12" y1="7.75" x2="12" y2="20.25" gradientUnits="userSpaceOnUse">
<stop stop-color="#E3E3E3" stop-opacity="0.6"/>
<stop offset="1" stop-color="#BBBBC0" stop-opacity="0.6"/>
</linearGradient>
<linearGradient id="paint4_linear_85_183" x1="12" y1="7.75" x2="12" y2="20.25" gradientUnits="userSpaceOnUse">
<stop stop-color="white"/>
<stop offset="1" stop-color="white" stop-opacity="0"/>
</linearGradient>
<linearGradient id="paint5_linear_85_183" x1="12" y1="3.75" x2="12" y2="7.75" gradientUnits="userSpaceOnUse">
<stop stop-color="#575757"/>
<stop offset="1" stop-color="#151515"/>
</linearGradient>
<linearGradient id="paint6_linear_85_183" x1="12" y1="3.75" x2="12" y2="7.75" gradientUnits="userSpaceOnUse">
<stop stop-color="#575757"/>
<stop offset="1" stop-color="#151515"/>
</linearGradient>
<linearGradient id="paint7_linear_85_183" x1="12" y1="11.75" x2="12" y2="12.75" gradientUnits="userSpaceOnUse">
<stop stop-color="#575757"/>
<stop offset="1" stop-color="#151515"/>
</linearGradient>
</defs>
</svg>
