<svg width="24" height="24" viewBox="0 0 24 24" fill="none" xmlns="http://www.w3.org/2000/svg">
<mask id="mask0_85_945" style="mask-type:alpha" maskUnits="userSpaceOnUse" x="7" y="4" width="13" height="16">
<path d="M17.6912 19.0806L8.23144 12.8156C7.64291 12.4259 7.64291 11.5741 8.23144 11.1844L17.6912 4.91939C18.3554 4.47949 19.2498 4.94753 19.2498 5.73504V18.265C19.2498 19.0525 18.3554 19.5205 17.6912 19.0806Z" fill="url(#paint0_linear_85_945)" stroke="url(#paint1_linear_85_945)" stroke-linecap="round" stroke-linejoin="round"/>
</mask>
<g mask="url(#mask0_85_945)">
<g filter="url(#filter0_f_85_945)">
<ellipse cx="18.3415" cy="15.2999" rx="0.859598" ry="3.20593" transform="rotate(8.83256 18.3415 15.2999)" fill="url(#paint2_linear_85_945)"/>
</g>
</g>
<path d="M17.6912 19.0806L8.23144 12.8156C7.64291 12.4259 7.64291 11.5741 8.23144 11.1844L17.6912 4.91939C18.3554 4.47949 19.2498 4.94753 19.2498 5.73504V18.265C19.2498 19.0525 18.3554 19.5205 17.6912 19.0806Z" fill="url(#paint3_linear_85_945)" stroke="url(#paint4_linear_85_945)" stroke-linecap="round" stroke-linejoin="round"/>
<path d="M4.75 4.75V19.25" stroke="url(#paint5_linear_85_945)" stroke-linecap="round" stroke-linejoin="round"/>
<defs>
<filter id="filter0_f_85_945" x="13.3594" y="8.1292" width="9.96387" height="14.3414" filterUnits="userSpaceOnUse" color-interpolation-filters="sRGB">
<feFlood flood-opacity="0" result="BackgroundImageFix"/>
<feBlend mode="normal" in="SourceGraphic" in2="BackgroundImageFix" result="shape"/>
<feGaussianBlur stdDeviation="2" result="effect1_foregroundBlur_85_945"/>
</filter>
<linearGradient id="paint0_linear_85_945" x1="13.5199" y1="4.75" x2="13.5199" y2="19.25" gradientUnits="userSpaceOnUse">
<stop stop-color="#E3E3E3" stop-opacity="0.6"/>
<stop offset="1" stop-color="#BBBBC0" stop-opacity="0.6"/>
</linearGradient>
<linearGradient id="paint1_linear_85_945" x1="13.5199" y1="4.75" x2="13.5199" y2="19.25" gradientUnits="userSpaceOnUse">
<stop stop-color="white"/>
<stop offset="1" stop-color="white" stop-opacity="0"/>
</linearGradient>
<linearGradient id="paint2_linear_85_945" x1="18.3415" y1="12.094" x2="18.3415" y2="18.5058" gradientUnits="userSpaceOnUse">
<stop stop-color="#575757"/>
<stop offset="1" stop-color="#151515"/>
</linearGradient>
<linearGradient id="paint3_linear_85_945" x1="13.5199" y1="4.75" x2="13.5199" y2="19.25" gradientUnits="userSpaceOnUse">
<stop stop-color="#E3E3E3" stop-opacity="0.6"/>
<stop offset="1" stop-color="#BBBBC0" stop-opacity="0.6"/>
</linearGradient>
<linearGradient id="paint4_linear_85_945" x1="13.5199" y1="4.75" x2="13.5199" y2="19.25" gradientUnits="userSpaceOnUse">
<stop stop-color="white"/>
<stop offset="1" stop-color="white" stop-opacity="0"/>
</linearGradient>
<linearGradient id="paint5_linear_85_945" x1="5.25" y1="4.75" x2="5.25" y2="19.25" gradientUnits="userSpaceOnUse">
<stop stop-color="#575757"/>
<stop offset="1" stop-color="#151515"/>
</linearGradient>
</defs>
</svg>
