<svg width="24" height="24" viewBox="0 0 24 24" fill="none" xmlns="http://www.w3.org/2000/svg">
<g filter="url(#filter0_f_85_1405)">
<path d="M11.1327 7.54448L6.92027 13.2535L13.6837 11.4491L9.47127 17.1581" stroke="url(#paint0_linear_85_1405)" stroke-width="1.5" stroke-linecap="round" stroke-linejoin="round"/>
</g>
<path d="M4 18.5H17.5C18.6046 18.5 19.5 17.6046 19.5 16.5V8C19.5 6.89543 18.6046 6 17.5 6H4C2.89543 6 2 6.89543 2 8V16.5C2 17.6046 2.89543 18.5 4 18.5ZM19.5 9H21.5C22.0523 9 22.5 9.44772 22.5 10V14.5C22.5 15.0523 22.0523 15.5 21.5 15.5H19.5V9Z" fill="url(#paint1_linear_85_1405)" stroke="url(#paint2_linear_85_1405)" stroke-width="0.5" stroke-linecap="round" stroke-linejoin="round"/>
<path d="M11.375 9L9 12H12L9.625 15" stroke="url(#paint3_linear_85_1405)" stroke-width="1.5" stroke-linecap="round" stroke-linejoin="round"/>
<defs>
<filter id="filter0_f_85_1405" x="2.16992" y="2.79443" width="16.2637" height="19.1137" filterUnits="userSpaceOnUse" color-interpolation-filters="sRGB">
<feFlood flood-opacity="0" result="BackgroundImageFix"/>
<feBlend mode="normal" in="SourceGraphic" in2="BackgroundImageFix" result="shape"/>
<feGaussianBlur stdDeviation="2" result="effect1_foregroundBlur_85_1405"/>
</filter>
<linearGradient id="paint0_linear_85_1405" x1="9.16005" y1="8.07074" x2="11.4439" y2="16.6318" gradientUnits="userSpaceOnUse">
<stop stop-color="#575757"/>
<stop offset="1" stop-color="#151515"/>
</linearGradient>
<linearGradient id="paint1_linear_85_1405" x1="12.25" y1="6" x2="12.25" y2="18.5" gradientUnits="userSpaceOnUse">
<stop stop-color="#E3E3E5" stop-opacity="0.6"/>
<stop offset="1" stop-color="#BBBBC0" stop-opacity="0.6"/>
</linearGradient>
<linearGradient id="paint2_linear_85_1405" x1="12.25" y1="6" x2="12.25" y2="18.5" gradientUnits="userSpaceOnUse">
<stop stop-color="white"/>
<stop offset="1" stop-color="white" stop-opacity="0"/>
</linearGradient>
<linearGradient id="paint3_linear_85_1405" x1="10.5" y1="9" x2="10.5" y2="15" gradientUnits="userSpaceOnUse">
<stop stop-color="#575757"/>
<stop offset="1" stop-color="#151515"/>
</linearGradient>
</defs>
</svg>
