<svg width="24" height="24" viewBox="0 0 24 24" fill="none" xmlns="http://www.w3.org/2000/svg">
<g clip-path="url(#clip0_85_1350)">
<g filter="url(#filter0_f_85_1350)">
<path d="M5.98988 15.2321L4.28427 11.2625C4.12727 10.8971 4.83406 10.2425 5.86293 9.80044C6.89179 9.35837 7.85312 9.2962 8.01012 9.66159L9.71573 13.6312C9.87273 13.9965 9.16594 14.6511 8.13707 15.0932C7.10821 15.5353 6.14688 15.5974 5.98988 15.2321Z" fill="url(#paint0_linear_85_1350)"/>
<path d="M13.9533 13.9314L12.279 10.0348C12.1249 9.67617 12.7218 9.07527 13.6122 8.69271C14.5025 8.31014 15.3493 8.29077 15.5034 8.64944L17.1776 12.546C17.3317 12.9047 16.7349 13.5056 15.8445 13.8882C14.9541 14.2707 14.1074 14.2901 13.9533 13.9314Z" fill="url(#paint1_linear_85_1350)"/>
</g>
<path d="M3.75 18.25H17.25C18.3546 18.25 19.25 17.3546 19.25 16.25V7.75C19.25 6.64543 18.3546 5.75 17.25 5.75H3.75C2.64543 5.75 1.75 6.64543 1.75 7.75V16.25C1.75 17.3546 2.64543 18.25 3.75 18.25ZM19.25 8.75H21.25C21.8023 8.75 22.25 9.19772 22.25 9.75V14.25C22.25 14.8023 21.8023 15.25 21.25 15.25H19.25V8.75Z" fill="url(#paint2_linear_85_1350)" stroke="url(#paint3_linear_85_1350)" stroke-width="0.5" stroke-linecap="round" stroke-linejoin="round"/>
</g>
<defs>
<filter id="filter0_f_85_1350" x="-2.7373" y="1.39261" width="26.9395" height="21.0775" filterUnits="userSpaceOnUse" color-interpolation-filters="sRGB">
<feFlood flood-opacity="0" result="BackgroundImageFix"/>
<feBlend mode="normal" in="SourceGraphic" in2="BackgroundImageFix" result="shape"/>
<feGaussianBlur stdDeviation="3.5" result="effect1_foregroundBlur_85_1350"/>
</filter>
<linearGradient id="paint0_linear_85_1350" x1="7.38915" y1="9.92841" x2="9.09476" y2="13.898" gradientUnits="userSpaceOnUse">
<stop stop-color="#575757"/>
<stop offset="1" stop-color="#151515"/>
</linearGradient>
<linearGradient id="paint1_linear_85_1350" x1="14.966" y1="8.88034" x2="16.6402" y2="12.7769" gradientUnits="userSpaceOnUse">
<stop stop-color="#575757"/>
<stop offset="1" stop-color="#151515"/>
</linearGradient>
<linearGradient id="paint2_linear_85_1350" x1="12" y1="5.75" x2="12" y2="18.25" gradientUnits="userSpaceOnUse">
<stop stop-color="#E3E3E5" stop-opacity="0.6"/>
<stop offset="1" stop-color="#BBBBC0" stop-opacity="0.6"/>
</linearGradient>
<linearGradient id="paint3_linear_85_1350" x1="12" y1="5.75" x2="12" y2="18.25" gradientUnits="userSpaceOnUse">
<stop stop-color="white"/>
<stop offset="1" stop-color="white" stop-opacity="0"/>
</linearGradient>
<clipPath id="clip0_85_1350">
<rect width="24" height="24" fill="white"/>
</clipPath>
</defs>
</svg>
