<svg width="24" height="24" viewBox="0 0 24 24" fill="none" xmlns="http://www.w3.org/2000/svg">
<g filter="url(#filter0_f_85_1334)">
<path d="M9.5 15V9C9.5 8.44772 9.94772 8 10.5 8C11.0523 8 11.5 8.44772 11.5 9V15C11.5 15.5523 11.0523 16 10.5 16C9.94772 16 9.5 15.5523 9.5 15Z" fill="url(#paint0_linear_85_1334)"/>
<path d="M5 15V9C5 8.44772 5.44772 8 6 8C6.55228 8 7 8.44772 7 9V15C7 15.5523 6.55228 16 6 16C5.44772 16 5 15.5523 5 15Z" fill="url(#paint1_linear_85_1334)"/>
</g>
<path d="M3.75 18.25H17.25C18.3546 18.25 19.25 17.3546 19.25 16.25V7.75C19.25 6.64543 18.3546 5.75 17.25 5.75H3.75C2.64543 5.75 1.75 6.64543 1.75 7.75V16.25C1.75 17.3546 2.64543 18.25 3.75 18.25ZM19.25 8.75H21.25C21.8023 8.75 22.25 9.19772 22.25 9.75V14.25C22.25 14.8023 21.8023 15.25 21.25 15.25H19.25V8.75Z" fill="url(#paint2_linear_85_1334)" stroke="url(#paint3_linear_85_1334)" stroke-width="0.5" stroke-linecap="round" stroke-linejoin="round"/>
<path d="M10.5 9.75V14.25" stroke="url(#paint4_linear_85_1334)" stroke-width="1.5" stroke-linecap="round" stroke-linejoin="round"/>
<path d="M6 9.75V14.25" stroke="url(#paint5_linear_85_1334)" stroke-width="1.5" stroke-linecap="round" stroke-linejoin="round"/>
<defs>
<filter id="filter0_f_85_1334" x="2" y="5" width="12.5" height="14" filterUnits="userSpaceOnUse" color-interpolation-filters="sRGB">
<feFlood flood-opacity="0" result="BackgroundImageFix"/>
<feBlend mode="normal" in="SourceGraphic" in2="BackgroundImageFix" result="shape"/>
<feGaussianBlur stdDeviation="1.5" result="effect1_foregroundBlur_85_1334"/>
</filter>
<linearGradient id="paint0_linear_85_1334" x1="11.1667" y1="9" x2="11.1667" y2="15" gradientUnits="userSpaceOnUse">
<stop stop-color="#575757"/>
<stop offset="1" stop-color="#151515"/>
</linearGradient>
<linearGradient id="paint1_linear_85_1334" x1="6.66667" y1="9" x2="6.66667" y2="15" gradientUnits="userSpaceOnUse">
<stop stop-color="#575757"/>
<stop offset="1" stop-color="#151515"/>
</linearGradient>
<linearGradient id="paint2_linear_85_1334" x1="12" y1="5.75" x2="12" y2="18.25" gradientUnits="userSpaceOnUse">
<stop stop-color="#E3E3E5" stop-opacity="0.6"/>
<stop offset="1" stop-color="#BBBBC0" stop-opacity="0.6"/>
</linearGradient>
<linearGradient id="paint3_linear_85_1334" x1="12" y1="5.75" x2="12" y2="18.25" gradientUnits="userSpaceOnUse">
<stop stop-color="white"/>
<stop offset="1" stop-color="white" stop-opacity="0"/>
</linearGradient>
<linearGradient id="paint4_linear_85_1334" x1="11" y1="9.75" x2="11" y2="14.25" gradientUnits="userSpaceOnUse">
<stop stop-color="#575757"/>
<stop offset="1" stop-color="#151515"/>
</linearGradient>
<linearGradient id="paint5_linear_85_1334" x1="6.5" y1="9.75" x2="6.5" y2="14.25" gradientUnits="userSpaceOnUse">
<stop stop-color="#575757"/>
<stop offset="1" stop-color="#151515"/>
</linearGradient>
</defs>
</svg>
