<svg width="24" height="24" viewBox="0 0 24 24" fill="none" xmlns="http://www.w3.org/2000/svg">
<mask id="mask0_85_719" style="mask-type:alpha" maskUnits="userSpaceOnUse" x="2" y="2" width="20" height="20">
<path d="M21.25 12C21.25 17.1086 17.1086 21.25 12 21.25C6.89137 21.25 2.75 17.1086 2.75 12C2.75 6.89137 6.89137 2.75 12 2.75C17.1086 2.75 21.25 6.89137 21.25 12Z" fill="black"/>
</mask>
<g mask="url(#mask0_85_719)">
<g filter="url(#filter0_f_85_719)">
<path d="M10 9V12.75M10 9H8.5M10 9H13.625C14.6605 9 15.5 9.83947 15.5 10.875C15.5 11.9105 14.6605 12.75 13.625 12.75M10 12.75V16.5M10 12.75H13.625M13.625 12.75C14.6605 12.75 15.5 13.5895 15.5 14.625C15.5 15.6605 14.6605 16.5 13.625 16.5H10M10 16.5H8.5M12.25 7.5V9M12.25 16.5V18" stroke="url(#paint0_linear_85_719)" stroke-linecap="round" stroke-linejoin="round"/>
</g>
</g>
<path d="M21.25 12C21.25 17.1086 17.1086 21.25 12 21.25C6.89137 21.25 2.75 17.1086 2.75 12C2.75 6.89137 6.89137 2.75 12 2.75C17.1086 2.75 21.25 6.89137 21.25 12Z" fill="url(#paint1_linear_85_719)" stroke="url(#paint2_linear_85_719)" stroke-linecap="round" stroke-linejoin="round"/>
<path d="M9.75 8.25V12M9.75 8.25H8.25M9.75 8.25H13.375C14.4105 8.25 15.25 9.08947 15.25 10.125C15.25 11.1605 14.4105 12 13.375 12M9.75 12V15.75M9.75 12H13.375M13.375 12C14.4105 12 15.25 12.8395 15.25 13.875C15.25 14.9105 14.4105 15.75 13.375 15.75H9.75M9.75 15.75H8.25M12 6.75V8.25M12 15.75V17.25" stroke="url(#paint3_linear_85_719)" stroke-linecap="round" stroke-linejoin="round"/>
<defs>
<filter id="filter0_f_85_719" x="7.5" y="6.5" width="9" height="12.5" filterUnits="userSpaceOnUse" color-interpolation-filters="sRGB">
<feFlood flood-opacity="0" result="BackgroundImageFix"/>
<feBlend mode="normal" in="SourceGraphic" in2="BackgroundImageFix" result="shape"/>
<feGaussianBlur stdDeviation="0.25" result="effect1_foregroundBlur_85_719"/>
</filter>
<linearGradient id="paint0_linear_85_719" x1="12" y1="7.5" x2="12" y2="18" gradientUnits="userSpaceOnUse">
<stop stop-color="#575757"/>
<stop offset="1" stop-color="#151515"/>
</linearGradient>
<linearGradient id="paint1_linear_85_719" x1="12" y1="2.75" x2="12" y2="21.25" gradientUnits="userSpaceOnUse">
<stop stop-color="#E3E3E3" stop-opacity="0.6"/>
<stop offset="1" stop-color="#BBBBC0" stop-opacity="0.6"/>
</linearGradient>
<linearGradient id="paint2_linear_85_719" x1="12" y1="2.75" x2="12" y2="21.25" gradientUnits="userSpaceOnUse">
<stop stop-color="white"/>
<stop offset="1" stop-color="white" stop-opacity="0"/>
</linearGradient>
<linearGradient id="paint3_linear_85_719" x1="11.75" y1="6.75" x2="11.75" y2="17.25" gradientUnits="userSpaceOnUse">
<stop stop-color="#575757"/>
<stop offset="1" stop-color="#151515"/>
</linearGradient>
</defs>
</svg>
