<svg width="24" height="24" viewBox="0 0 24 24" fill="none" xmlns="http://www.w3.org/2000/svg">
<mask id="mask0_85_210" style="mask-type:alpha" maskUnits="userSpaceOnUse" x="4" y="2" width="16" height="20">
<path d="M19.25 20.2515V4.75C19.25 3.64543 18.3546 2.75 17.25 2.75H6.75C5.64543 2.75 4.75 3.64543 4.75 4.75V20.2515C4.75 21.0522 5.64414 21.5281 6.30839 21.081L10.8832 18.0017C11.5584 17.5473 12.4416 17.5473 13.1168 18.0017L17.6916 21.081C18.3559 21.5282 19.25 21.0522 19.25 20.2515Z" fill="black"/>
</mask>
<g mask="url(#mask0_85_210)">
<g filter="url(#filter0_f_85_210)">
<ellipse cx="17.9843" cy="13.7764" rx="0.968208" ry="6.78632" transform="rotate(8.70755 17.9843 13.7764)" fill="url(#paint0_linear_85_210)"/>
</g>
</g>
<path d="M19.25 20.2515V4.75C19.25 3.64543 18.3546 2.75 17.25 2.75H6.75C5.64543 2.75 4.75 3.64543 4.75 4.75V20.2515C4.75 21.0522 5.64414 21.5281 6.30839 21.081L10.8832 18.0017C11.5584 17.5473 12.4416 17.5473 13.1168 18.0017L17.6916 21.081C18.3559 21.5282 19.25 21.0522 19.25 20.2515Z" fill="url(#paint1_linear_85_210)" stroke="url(#paint2_linear_85_210)" stroke-linecap="round" stroke-linejoin="round"/>
<defs>
<filter id="filter0_f_85_210" x="10.5801" y="1.06671" width="14.8086" height="25.4195" filterUnits="userSpaceOnUse" color-interpolation-filters="sRGB">
<feFlood flood-opacity="0" result="BackgroundImageFix"/>
<feBlend mode="normal" in="SourceGraphic" in2="BackgroundImageFix" result="shape"/>
<feGaussianBlur stdDeviation="3" result="effect1_foregroundBlur_85_210"/>
</filter>
<linearGradient id="paint0_linear_85_210" x1="17.9843" y1="6.99013" x2="17.9843" y2="20.5628" gradientUnits="userSpaceOnUse">
<stop stop-color="#575757"/>
<stop offset="1" stop-color="#151515"/>
</linearGradient>
<linearGradient id="paint1_linear_85_210" x1="12" y1="2.75" x2="12" y2="21.2532" gradientUnits="userSpaceOnUse">
<stop stop-color="#E3E3E3" stop-opacity="0.6"/>
<stop offset="1" stop-color="#BBBBC0" stop-opacity="0.6"/>
</linearGradient>
<linearGradient id="paint2_linear_85_210" x1="12" y1="2.75" x2="12" y2="21.2532" gradientUnits="userSpaceOnUse">
<stop stop-color="white"/>
<stop offset="1" stop-color="white" stop-opacity="0"/>
</linearGradient>
</defs>
</svg>
