<svg width="24" height="24" viewBox="0 0 24 24" fill="none" xmlns="http://www.w3.org/2000/svg">
<mask id="mask0_85_158" style="mask-type:alpha" maskUnits="userSpaceOnUse" x="2" y="2" width="20" height="20">
<path d="M12 21.25C17.1086 21.25 21.25 17.1086 21.25 12C21.25 6.89137 17.1086 2.75 12 2.75C6.89137 2.75 2.75 6.89137 2.75 12C2.75 13.3959 3.05922 14.7196 3.61289 15.9064C3.71482 16.1248 3.74643 16.3709 3.6895 16.6051L2.88032 19.9349C2.70521 20.6556 3.34786 21.3094 4.07138 21.1467L7.54248 20.3664C7.76656 20.316 8.00033 20.3461 8.20981 20.4403C9.36651 20.9606 10.6495 21.25 12 21.25Z" fill="black"/>
</mask>
<g mask="url(#mask0_85_158)">
<g filter="url(#filter0_f_85_158)">
<ellipse cx="17.1681" cy="17.5051" rx="0.968208" ry="5.14122" transform="rotate(25.6915 17.1681 17.5051)" fill="url(#paint0_linear_85_158)"/>
</g>
</g>
<path d="M12 21.25C17.1086 21.25 21.25 17.1086 21.25 12C21.25 6.89137 17.1086 2.75 12 2.75C6.89137 2.75 2.75 6.89137 2.75 12C2.75 13.3959 3.05922 14.7196 3.61289 15.9064C3.71482 16.1248 3.74643 16.3709 3.6895 16.6051L2.88032 19.9349C2.70521 20.6556 3.34786 21.3094 4.07138 21.1467L7.54248 20.3664C7.76656 20.316 8.00033 20.3461 8.20981 20.4403C9.36651 20.9606 10.6495 21.25 12 21.25Z" fill="url(#paint1_linear_85_158)" stroke="url(#paint2_linear_85_158)" stroke-linecap="round" stroke-linejoin="round"/>
<defs>
<filter id="filter0_f_85_158" x="8.77344" y="6.85291" width="16.7891" height="21.3045" filterUnits="userSpaceOnUse" color-interpolation-filters="sRGB">
<feFlood flood-opacity="0" result="BackgroundImageFix"/>
<feBlend mode="normal" in="SourceGraphic" in2="BackgroundImageFix" result="shape"/>
<feGaussianBlur stdDeviation="3" result="effect1_foregroundBlur_85_158"/>
</filter>
<linearGradient id="paint0_linear_85_158" x1="17.1681" y1="12.3639" x2="17.1681" y2="22.6463" gradientUnits="userSpaceOnUse">
<stop stop-color="#575757"/>
<stop offset="1" stop-color="#151515"/>
</linearGradient>
<linearGradient id="paint1_linear_85_158" x1="12" y1="2.75" x2="12" y2="21.25" gradientUnits="userSpaceOnUse">
<stop stop-color="#E3E3E3" stop-opacity="0.6"/>
<stop offset="1" stop-color="#BBBBC0" stop-opacity="0.6"/>
</linearGradient>
<linearGradient id="paint2_linear_85_158" x1="12" y1="2.75" x2="12" y2="21.25" gradientUnits="userSpaceOnUse">
<stop stop-color="white"/>
<stop offset="1" stop-color="white" stop-opacity="0"/>
</linearGradient>
</defs>
</svg>
