<svg width="24" height="24" viewBox="0 0 24 24" fill="none" xmlns="http://www.w3.org/2000/svg">
<mask id="mask0_85_150" style="mask-type:alpha" maskUnits="userSpaceOnUse" x="2" y="2" width="20" height="20">
<path d="M12 21.25C17.1086 21.25 21.25 17.1086 21.25 12C21.25 6.89137 17.1086 2.75 12 2.75C6.89137 2.75 2.75 6.89137 2.75 12C2.75 13.3959 3.05922 14.7196 3.61289 15.9064C3.71482 16.1248 3.74643 16.3709 3.6895 16.6051L2.88032 19.9349C2.70521 20.6556 3.34786 21.3094 4.07138 21.1467L7.54248 20.3664C7.76656 20.316 8.00033 20.3461 8.20981 20.4403C9.36651 20.9606 10.6495 21.25 12 21.25Z" fill="url(#paint0_linear_85_150)" stroke="url(#paint1_linear_85_150)" stroke-linecap="round" stroke-linejoin="round"/>
</mask>
<g mask="url(#mask0_85_150)">
<g filter="url(#filter0_f_85_150)">
<path d="M7 12.75C7 13.1642 7.33579 13.5 7.75 13.5C8.16421 13.5 8.5 13.1642 8.5 12.75C8.5 12.3358 8.16421 12 7.75 12C7.33579 12 7 12.3358 7 12.75ZM11.5 12.75C11.5 13.1642 11.8358 13.5 12.25 13.5C12.6642 13.5 13 13.1642 13 12.75C13 12.3358 12.6642 12 12.25 12C11.8358 12 11.5 12.3358 11.5 12.75ZM16 12.75C16 13.1642 16.3358 13.5 16.75 13.5C17.1642 13.5 17.5 13.1642 17.5 12.75C17.5 12.3358 17.1642 12 16.75 12C16.3358 12 16 12.3358 16 12.75Z" fill="url(#paint2_linear_85_150)"/>
<path d="M7 12.75C7 13.1642 7.33579 13.5 7.75 13.5C8.16421 13.5 8.5 13.1642 8.5 12.75C8.5 12.3358 8.16421 12 7.75 12C7.33579 12 7 12.3358 7 12.75ZM11.5 12.75C11.5 13.1642 11.8358 13.5 12.25 13.5C12.6642 13.5 13 13.1642 13 12.75C13 12.3358 12.6642 12 12.25 12C11.8358 12 11.5 12.3358 11.5 12.75ZM16 12.75C16 13.1642 16.3358 13.5 16.75 13.5C17.1642 13.5 17.5 13.1642 17.5 12.75C17.5 12.3358 17.1642 12 16.75 12C16.3358 12 16 12.3358 16 12.75Z" stroke="url(#paint3_linear_85_150)" stroke-linecap="square"/>
</g>
</g>
<path d="M12 21.25C17.1086 21.25 21.25 17.1086 21.25 12C21.25 6.89137 17.1086 2.75 12 2.75C6.89137 2.75 2.75 6.89137 2.75 12C2.75 13.3959 3.05922 14.7196 3.61289 15.9064C3.71482 16.1248 3.74643 16.3709 3.6895 16.6051L2.88032 19.9349C2.70521 20.6556 3.34786 21.3094 4.07138 21.1467L7.54248 20.3664C7.76656 20.316 8.00033 20.3461 8.20981 20.4403C9.36651 20.9606 10.6495 21.25 12 21.25Z" fill="url(#paint4_linear_85_150)" stroke="url(#paint5_linear_85_150)" stroke-linecap="round" stroke-linejoin="round"/>
<path d="M6.75 11.75C6.75 12.1642 7.08579 12.5 7.5 12.5C7.91421 12.5 8.25 12.1642 8.25 11.75C8.25 11.3358 7.91421 11 7.5 11C7.08579 11 6.75 11.3358 6.75 11.75ZM11.25 11.75C11.25 12.1642 11.5858 12.5 12 12.5C12.4142 12.5 12.75 12.1642 12.75 11.75C12.75 11.3358 12.4142 11 12 11C11.5858 11 11.25 11.3358 11.25 11.75ZM15.75 11.75C15.75 12.1642 16.0858 12.5 16.5 12.5C16.9142 12.5 17.25 12.1642 17.25 11.75C17.25 11.3358 16.9142 11 16.5 11C16.0858 11 15.75 11.3358 15.75 11.75Z" fill="url(#paint6_linear_85_150)" stroke="url(#paint7_linear_85_150)" stroke-linecap="square"/>
<defs>
<filter id="filter0_f_85_150" x="5.5" y="10.5" width="13.5" height="4.5" filterUnits="userSpaceOnUse" color-interpolation-filters="sRGB">
<feFlood flood-opacity="0" result="BackgroundImageFix"/>
<feBlend mode="normal" in="SourceGraphic" in2="BackgroundImageFix" result="shape"/>
<feGaussianBlur stdDeviation="0.5" result="effect1_foregroundBlur_85_150"/>
</filter>
<linearGradient id="paint0_linear_85_150" x1="12" y1="2.75" x2="12" y2="21.25" gradientUnits="userSpaceOnUse">
<stop stop-color="#E3E3E3" stop-opacity="0.6"/>
<stop offset="1" stop-color="#BBBBC0" stop-opacity="0.6"/>
</linearGradient>
<linearGradient id="paint1_linear_85_150" x1="12" y1="2.75" x2="12" y2="21.25" gradientUnits="userSpaceOnUse">
<stop stop-color="white"/>
<stop offset="1" stop-color="white" stop-opacity="0"/>
</linearGradient>
<linearGradient id="paint2_linear_85_150" x1="12.25" y1="12" x2="12.25" y2="13.5" gradientUnits="userSpaceOnUse">
<stop stop-color="#575757"/>
<stop offset="1" stop-color="#151515"/>
</linearGradient>
<linearGradient id="paint3_linear_85_150" x1="12.25" y1="12" x2="12.25" y2="13.5" gradientUnits="userSpaceOnUse">
<stop stop-color="#575757"/>
<stop offset="1" stop-color="#151515"/>
</linearGradient>
<linearGradient id="paint4_linear_85_150" x1="12" y1="2.75" x2="12" y2="21.25" gradientUnits="userSpaceOnUse">
<stop stop-color="#E3E3E3" stop-opacity="0.6"/>
<stop offset="1" stop-color="#BBBBC0" stop-opacity="0.6"/>
</linearGradient>
<linearGradient id="paint5_linear_85_150" x1="12" y1="2.75" x2="12" y2="21.25" gradientUnits="userSpaceOnUse">
<stop stop-color="white"/>
<stop offset="1" stop-color="white" stop-opacity="0"/>
</linearGradient>
<linearGradient id="paint6_linear_85_150" x1="12" y1="11" x2="12" y2="12.5" gradientUnits="userSpaceOnUse">
<stop stop-color="#575757"/>
<stop offset="1" stop-color="#151515"/>
</linearGradient>
<linearGradient id="paint7_linear_85_150" x1="12" y1="11" x2="12" y2="12.5" gradientUnits="userSpaceOnUse">
<stop stop-color="#575757"/>
<stop offset="1" stop-color="#151515"/>
</linearGradient>
</defs>
</svg>
