<svg width="24" height="24" viewBox="0 0 24 24" fill="none" xmlns="http://www.w3.org/2000/svg">
<mask id="mask0_85_1222" style="mask-type:alpha" maskUnits="userSpaceOnUse" x="3" y="3" width="18" height="18">
<path d="M9.29422 18.4836L11.3593 20.2147C11.7292 20.5248 12.2679 20.5263 12.6397 20.2183L14.738 18.4799C14.9173 18.3313 15.143 18.25 15.3759 18.25H18.25C19.3546 18.25 20.25 17.3546 20.25 16.25V5.75C20.25 4.64543 19.3546 3.75 18.25 3.75H5.75C4.64543 3.75 3.75 4.64543 3.75 5.75V16.25C3.75 17.3546 4.64543 18.25 5.75 18.25H8.65182C8.88675 18.25 9.11418 18.3327 9.29422 18.4836Z" fill="black"/>
</mask>
<g mask="url(#mask0_85_1222)">
<g filter="url(#filter0_f_85_1222)">
<ellipse cx="16.8602" cy="17.039" rx="0.968208" ry="3.17485" transform="rotate(57.4991 16.8602 17.039)" fill="url(#paint0_linear_85_1222)"/>
</g>
<g filter="url(#filter1_f_85_1222)">
<path d="M12.7998 14.75H12.8098" stroke="url(#paint1_linear_85_1222)" stroke-width="2" stroke-linecap="round"/>
</g>
<g filter="url(#filter2_f_85_1222)">
<path d="M12.7998 8.5V12" stroke="url(#paint2_linear_85_1222)" stroke-width="1.5" stroke-linecap="round"/>
</g>
</g>
<path d="M9.29422 18.4836L11.3593 20.2147C11.7292 20.5248 12.2679 20.5263 12.6397 20.2183L14.738 18.4799C14.9173 18.3313 15.143 18.25 15.3759 18.25H18.25C19.3546 18.25 20.25 17.3546 20.25 16.25V5.75C20.25 4.64543 19.3546 3.75 18.25 3.75H5.75C4.64543 3.75 3.75 4.64543 3.75 5.75V16.25C3.75 17.3546 4.64543 18.25 5.75 18.25H8.65182C8.88675 18.25 9.11418 18.3327 9.29422 18.4836Z" fill="url(#paint3_linear_85_1222)" stroke="url(#paint4_linear_85_1222)" stroke-width="1.5" stroke-linecap="round"/>
<path d="M12 13.75H12.01" stroke="url(#paint5_linear_85_1222)" stroke-width="2" stroke-linecap="round"/>
<path d="M12 7.75V11.25" stroke="url(#paint6_linear_85_1222)" stroke-width="1.5" stroke-linecap="round"/>
<defs>
<filter id="filter0_f_85_1222" x="8.13184" y="9.14734" width="17.457" height="15.7834" filterUnits="userSpaceOnUse" color-interpolation-filters="sRGB">
<feFlood flood-opacity="0" result="BackgroundImageFix"/>
<feBlend mode="normal" in="SourceGraphic" in2="BackgroundImageFix" result="shape"/>
<feGaussianBlur stdDeviation="3" result="effect1_foregroundBlur_85_1222"/>
</filter>
<filter id="filter1_f_85_1222" x="10.7998" y="12.75" width="4.00977" height="4" filterUnits="userSpaceOnUse" color-interpolation-filters="sRGB">
<feFlood flood-opacity="0" result="BackgroundImageFix"/>
<feBlend mode="normal" in="SourceGraphic" in2="BackgroundImageFix" result="shape"/>
<feGaussianBlur stdDeviation="0.5" result="effect1_foregroundBlur_85_1222"/>
</filter>
<filter id="filter2_f_85_1222" x="11.0498" y="6.75" width="3.5" height="7" filterUnits="userSpaceOnUse" color-interpolation-filters="sRGB">
<feFlood flood-opacity="0" result="BackgroundImageFix"/>
<feBlend mode="normal" in="SourceGraphic" in2="BackgroundImageFix" result="shape"/>
<feGaussianBlur stdDeviation="0.5" result="effect1_foregroundBlur_85_1222"/>
</filter>
<linearGradient id="paint0_linear_85_1222" x1="16.8602" y1="13.8642" x2="16.8602" y2="20.2139" gradientUnits="userSpaceOnUse">
<stop stop-color="#575757"/>
<stop offset="1" stop-color="#151515"/>
</linearGradient>
<linearGradient id="paint1_linear_85_1222" x1="12.8048" y1="14.75" x2="12.8048" y2="15.75" gradientUnits="userSpaceOnUse">
<stop stop-color="#575757"/>
<stop offset="1" stop-color="#151515"/>
</linearGradient>
<linearGradient id="paint2_linear_85_1222" x1="13.2998" y1="8.5" x2="13.2998" y2="12" gradientUnits="userSpaceOnUse">
<stop stop-color="#575757"/>
<stop offset="1" stop-color="#151515"/>
</linearGradient>
<linearGradient id="paint3_linear_85_1222" x1="12" y1="3.75" x2="12" y2="20.4483" gradientUnits="userSpaceOnUse">
<stop stop-color="#E3E3E3" stop-opacity="0.6"/>
<stop offset="1" stop-color="#BBBBC0" stop-opacity="0.6"/>
</linearGradient>
<linearGradient id="paint4_linear_85_1222" x1="12" y1="3.75" x2="12" y2="20.4483" gradientUnits="userSpaceOnUse">
<stop stop-color="white"/>
<stop offset="1" stop-color="white" stop-opacity="0"/>
</linearGradient>
<linearGradient id="paint5_linear_85_1222" x1="12.005" y1="13.75" x2="12.005" y2="14.75" gradientUnits="userSpaceOnUse">
<stop stop-color="#575757"/>
<stop offset="1" stop-color="#151515"/>
</linearGradient>
<linearGradient id="paint6_linear_85_1222" x1="12.5" y1="7.75" x2="12.5" y2="11.25" gradientUnits="userSpaceOnUse">
<stop stop-color="#575757"/>
<stop offset="1" stop-color="#151515"/>
</linearGradient>
</defs>
</svg>
