<svg width="24" height="24" viewBox="0 0 24 24" fill="none" xmlns="http://www.w3.org/2000/svg">
<mask id="mask0_85_165" style="mask-type:alpha" maskUnits="userSpaceOnUse" x="2" y="3" width="20" height="18">
<path d="M4.75195 3.75H19.252C20.3565 3.75 21.252 4.64543 21.252 5.75V16.25C21.252 17.3546 20.3565 18.25 19.252 18.25H12.002L7.00195 21V18.25H4.75195C3.64738 18.25 2.75195 17.3546 2.75195 16.25V5.75C2.75195 4.64543 3.64738 3.75 4.75195 3.75Z" fill="black"/>
</mask>
<g mask="url(#mask0_85_165)">
<g filter="url(#filter0_f_85_165)">
<ellipse cx="18.5389" cy="14.9625" rx="0.968208" ry="6.15086" transform="rotate(25.6915 18.5389 14.9625)" fill="url(#paint0_linear_85_165)"/>
</g>
</g>
<path d="M4.75195 3.75H19.252C20.3565 3.75 21.252 4.64543 21.252 5.75V16.25C21.252 17.3546 20.3565 18.25 19.252 18.25H12.002L7.00195 21V18.25H4.75195C3.64738 18.25 2.75195 17.3546 2.75195 16.25V5.75C2.75195 4.64543 3.64738 3.75 4.75195 3.75Z" fill="url(#paint1_linear_85_165)" stroke="url(#paint2_linear_85_165)" stroke-linecap="square" stroke-linejoin="round"/>
<defs>
<filter id="filter0_f_85_165" x="9.73242" y="3.40359" width="17.6133" height="23.1179" filterUnits="userSpaceOnUse" color-interpolation-filters="sRGB">
<feFlood flood-opacity="0" result="BackgroundImageFix"/>
<feBlend mode="normal" in="SourceGraphic" in2="BackgroundImageFix" result="shape"/>
<feGaussianBlur stdDeviation="3" result="effect1_foregroundBlur_85_165"/>
</filter>
<linearGradient id="paint0_linear_85_165" x1="18.5389" y1="8.81168" x2="18.5389" y2="21.1134" gradientUnits="userSpaceOnUse">
<stop stop-color="#575757"/>
<stop offset="1" stop-color="#151515"/>
</linearGradient>
<linearGradient id="paint1_linear_85_165" x1="12.002" y1="3.75" x2="12.002" y2="21" gradientUnits="userSpaceOnUse">
<stop stop-color="#E3E3E3" stop-opacity="0.6"/>
<stop offset="1" stop-color="#BBBBC0" stop-opacity="0.6"/>
</linearGradient>
<linearGradient id="paint2_linear_85_165" x1="12.002" y1="3.75" x2="12.002" y2="21" gradientUnits="userSpaceOnUse">
<stop stop-color="white"/>
<stop offset="1" stop-color="white" stop-opacity="0"/>
</linearGradient>
</defs>
</svg>
