<svg width="24" height="24" viewBox="0 0 24 24" fill="none" xmlns="http://www.w3.org/2000/svg">
<g filter="url(#filter0_f_85_927)">
<path d="M16 12.5C16 14.433 14.433 16 12.5 16C10.567 16 9 14.433 9 12.5C9 10.567 10.567 9 12.5 9C14.433 9 16 10.567 16 12.5Z" stroke="url(#paint0_linear_85_927)" stroke-linejoin="round"/>
</g>
<g filter="url(#filter1_f_85_927)">
<path d="M18.0498 7.95001V7.94001V7.95001ZM18.2998 7.95001C18.2998 8.08808 18.1879 8.20001 18.0498 8.20001C17.9117 8.20001 17.7998 8.08808 17.7998 7.95001C17.7998 7.81194 17.9117 7.70001 18.0498 7.70001C18.1879 7.70001 18.2998 7.81194 18.2998 7.95001Z" fill="url(#paint1_linear_85_927)"/>
<path d="M18.0498 7.95001V7.94001M18.2998 7.95001C18.2998 8.08808 18.1879 8.20001 18.0498 8.20001C17.9117 8.20001 17.7998 8.08808 17.7998 7.95001C17.7998 7.81194 17.9117 7.70001 18.0498 7.70001C18.1879 7.70001 18.2998 7.81194 18.2998 7.95001Z" stroke="url(#paint2_linear_85_927)" stroke-width="1.5" stroke-linecap="round"/>
</g>
<path d="M2.75 5.75C2.75 4.64543 3.64543 3.75 4.75 3.75H19.25C20.3546 3.75 21.25 4.64543 21.25 5.75V18.25C21.25 19.3546 20.3546 20.25 19.25 20.25H4.75C3.64543 20.25 2.75 19.3546 2.75 18.25V5.75Z" fill="url(#paint3_linear_85_927)" stroke="url(#paint4_linear_85_927)" stroke-width="1.5" stroke-linejoin="round"/>
<path d="M15.25 12C15.25 13.7949 13.7949 15.25 12 15.25C10.2051 15.25 8.75 13.7949 8.75 12C8.75 10.2051 10.2051 8.75 12 8.75C13.7949 8.75 15.25 10.2051 15.25 12Z" stroke="url(#paint5_linear_85_927)" stroke-width="1.5" stroke-linejoin="round"/>
<path d="M17.5 7.5V7.49V7.5ZM17.75 7.5C17.75 7.63807 17.6381 7.75 17.5 7.75C17.3619 7.75 17.25 7.63807 17.25 7.5C17.25 7.36193 17.3619 7.25 17.5 7.25C17.6381 7.25 17.75 7.36193 17.75 7.5Z" fill="url(#paint6_linear_85_927)"/>
<path d="M17.5 7.5V7.49M17.75 7.5C17.75 7.63807 17.6381 7.75 17.5 7.75C17.3619 7.75 17.25 7.63807 17.25 7.5C17.25 7.36193 17.3619 7.25 17.5 7.25C17.6381 7.25 17.75 7.36193 17.75 7.5Z" stroke="url(#paint7_linear_85_927)" stroke-width="1.5" stroke-linecap="round"/>
<defs>
<filter id="filter0_f_85_927" x="7.5" y="7.5" width="10" height="10" filterUnits="userSpaceOnUse" color-interpolation-filters="sRGB">
<feFlood flood-opacity="0" result="BackgroundImageFix"/>
<feBlend mode="normal" in="SourceGraphic" in2="BackgroundImageFix" result="shape"/>
<feGaussianBlur stdDeviation="0.5" result="effect1_foregroundBlur_85_927"/>
</filter>
<filter id="filter1_f_85_927" x="16.0498" y="5.95001" width="4" height="4" filterUnits="userSpaceOnUse" color-interpolation-filters="sRGB">
<feFlood flood-opacity="0" result="BackgroundImageFix"/>
<feBlend mode="normal" in="SourceGraphic" in2="BackgroundImageFix" result="shape"/>
<feGaussianBlur stdDeviation="0.5" result="effect1_foregroundBlur_85_927"/>
</filter>
<linearGradient id="paint0_linear_85_927" x1="12.5" y1="9" x2="12.5" y2="16" gradientUnits="userSpaceOnUse">
<stop stop-color="#575757"/>
<stop offset="1" stop-color="#151515"/>
</linearGradient>
<linearGradient id="paint1_linear_85_927" x1="18.0498" y1="7.70001" x2="18.0498" y2="8.20001" gradientUnits="userSpaceOnUse">
<stop stop-color="#575757"/>
<stop offset="1" stop-color="#151515"/>
</linearGradient>
<linearGradient id="paint2_linear_85_927" x1="18.0498" y1="7.70001" x2="18.0498" y2="8.20001" gradientUnits="userSpaceOnUse">
<stop stop-color="#575757"/>
<stop offset="1" stop-color="#151515"/>
</linearGradient>
<linearGradient id="paint3_linear_85_927" x1="12" y1="3.75" x2="12" y2="20.25" gradientUnits="userSpaceOnUse">
<stop stop-color="#E3E3E3" stop-opacity="0.6"/>
<stop offset="1" stop-color="#BBBBC0" stop-opacity="0.6"/>
</linearGradient>
<linearGradient id="paint4_linear_85_927" x1="12" y1="3.75" x2="12" y2="20.25" gradientUnits="userSpaceOnUse">
<stop stop-color="white"/>
<stop offset="1" stop-color="white" stop-opacity="0"/>
</linearGradient>
<linearGradient id="paint5_linear_85_927" x1="12" y1="8.75" x2="12" y2="15.25" gradientUnits="userSpaceOnUse">
<stop stop-color="#575757"/>
<stop offset="1" stop-color="#151515"/>
</linearGradient>
<linearGradient id="paint6_linear_85_927" x1="17.5" y1="7.25" x2="17.5" y2="7.75" gradientUnits="userSpaceOnUse">
<stop stop-color="#575757"/>
<stop offset="1" stop-color="#151515"/>
</linearGradient>
<linearGradient id="paint7_linear_85_927" x1="17.5" y1="7.25" x2="17.5" y2="7.75" gradientUnits="userSpaceOnUse">
<stop stop-color="#575757"/>
<stop offset="1" stop-color="#151515"/>
</linearGradient>
</defs>
</svg>
