<svg width="24" height="24" viewBox="0 0 24 24" fill="none" xmlns="http://www.w3.org/2000/svg">
<mask id="mask0_175_777" style="mask-type:alpha" maskUnits="userSpaceOnUse" x="2" y="2" width="20" height="20">
<path d="M10.7168 4.55722L9.75027 5.52371L5.52886 9.74513L4.55722 10.7168C2.14759 13.1264 2.1476 17.0332 4.55722 19.4428C6.96684 21.8524 10.8736 21.8524 13.2832 19.4428L14.2478 18.4782L18.4742 14.2519L19.4428 13.2832C21.8524 10.8736 21.8524 6.96684 19.4428 4.55722C17.0332 2.14759 13.1264 2.14759 10.7168 4.55722Z" fill="black"/>
</mask>
<g mask="url(#mask0_175_777)">
<path d="M9.75027 5.52371L10.7168 4.55722C13.1264 2.14759 17.0332 2.14759 19.4428 4.55722C21.8524 6.96684 21.8524 10.8736 19.4428 13.2832L18.4742 14.2519M5.52886 9.74513L4.55722 10.7168C2.14759 13.1264 2.1476 17.0332 4.55722 19.4428C6.96684 21.8524 10.8736 21.8524 13.2832 19.4428L14.2478 18.4782M9.5 14.5L14.5 9.5" stroke="url(#paint0_linear_175_777)" stroke-width="1.5" stroke-linecap="round"/>
</g>
<path d="M10.7168 4.55722L9.75027 5.52371L5.52886 9.74513L4.55722 10.7168C2.14759 13.1264 2.1476 17.0332 4.55722 19.4428C6.96684 21.8524 10.8736 21.8524 13.2832 19.4428L14.2478 18.4782L18.4742 14.2519L19.4428 13.2832C21.8524 10.8736 21.8524 6.96684 19.4428 4.55722C17.0332 2.14759 13.1264 2.14759 10.7168 4.55722Z" fill="url(#paint1_linear_175_777)" stroke="url(#paint2_linear_175_777)" stroke-width="1.5" stroke-linecap="round"/>
<path d="M9.75027 5.52371L10.7168 4.55722C13.1264 2.14759 17.0332 2.14759 19.4428 4.55722C21.8524 6.96684 21.8524 10.8736 19.4428 13.2832L18.4742 14.2519M5.52886 9.74513L4.55722 10.7168C2.14759 13.1264 2.1476 17.0332 4.55722 19.4428C6.96684 21.8524 10.8736 21.8524 13.2832 19.4428L14.2478 18.4782M9.5 14.5L14.5 9.5" stroke="url(#paint3_linear_175_777)" stroke-width="1.5" stroke-linecap="round"/>
<defs>
<linearGradient id="paint0_linear_175_777" x1="12" y1="2.75" x2="12" y2="21.25" gradientUnits="userSpaceOnUse">
<stop stop-color="#575757"/>
<stop offset="1" stop-color="#151515"/>
</linearGradient>
<linearGradient id="paint1_linear_175_777" x1="12" y1="2.75" x2="12" y2="21.25" gradientUnits="userSpaceOnUse">
<stop stop-color="#E3E3E3" stop-opacity="0.6"/>
<stop offset="1" stop-color="#BBBBC0" stop-opacity="0.6"/>
</linearGradient>
<linearGradient id="paint2_linear_175_777" x1="12" y1="2.75" x2="12" y2="21.25" gradientUnits="userSpaceOnUse">
<stop stop-color="white"/>
<stop offset="1" stop-color="white" stop-opacity="0"/>
</linearGradient>
<linearGradient id="paint3_linear_175_777" x1="12" y1="2.75" x2="12" y2="21.25" gradientUnits="userSpaceOnUse">
<stop stop-color="#575757"/>
<stop offset="1" stop-color="#151515"/>
</linearGradient>
</defs>
</svg>
