<svg width="24" height="24" viewBox="0 0 24 24" fill="none" xmlns="http://www.w3.org/2000/svg">
<mask id="mask0_85_727" style="mask-type:alpha" maskUnits="userSpaceOnUse" x="3" y="3" width="18" height="18">
<path d="M9.25 20.25V14.75H4.75C4.19772 14.75 3.75 15.1977 3.75 15.75V19.25C3.75 19.8023 4.19772 20.25 4.75 20.25H9.25ZM9.25 20.25H14.75H9.25ZM9.25 20.25V10.25C9.25 9.69771 9.69772 9.25 10.25 9.25H14.75V20.25M14.75 20.25H19.75C20.0261 20.25 20.25 20.0261 20.25 19.75V4.75C20.25 4.19772 19.8023 3.75 19.25 3.75H15.75C15.1977 3.75 14.75 4.19772 14.75 4.75V20.25Z" fill="black"/>
</mask>
<g mask="url(#mask0_85_727)">
<g filter="url(#filter0_f_85_727)">
<ellipse cx="19.9954" cy="17.295" rx="0.859598" ry="3.20593" transform="rotate(21.9336 19.9954 17.295)" fill="url(#paint0_linear_85_727)"/>
</g>
</g>
<path d="M9.25 20.25V14.75H4.75C4.19772 14.75 3.75 15.1977 3.75 15.75V19.25C3.75 19.8023 4.19772 20.25 4.75 20.25H9.25ZM9.25 20.25H14.75H9.25ZM9.25 20.25V10.25C9.25 9.69771 9.69772 9.25 10.25 9.25H14.75V20.25M14.75 20.25H19.75C20.0261 20.25 20.25 20.0261 20.25 19.75V4.75C20.25 4.19772 19.8023 3.75 19.25 3.75H15.75C15.1977 3.75 14.75 4.19772 14.75 4.75V20.25Z" fill="url(#paint1_linear_85_727)"/>
<path d="M9.25 20.25V14.75H4.75C4.19772 14.75 3.75 15.1977 3.75 15.75V19.25C3.75 19.8023 4.19772 20.25 4.75 20.25H9.25ZM9.25 20.25H14.75M9.25 20.25V10.25C9.25 9.69771 9.69772 9.25 10.25 9.25H14.75V20.25M14.75 20.25H19.75C20.0261 20.25 20.25 20.0261 20.25 19.75V4.75C20.25 4.19772 19.8023 3.75 19.25 3.75H15.75C15.1977 3.75 14.75 4.19772 14.75 4.75V20.25Z" stroke="url(#paint2_linear_85_727)" stroke-linecap="square" stroke-linejoin="round"/>
<defs>
<filter id="filter0_f_85_727" x="14.5566" y="10.3036" width="10.8779" height="13.9828" filterUnits="userSpaceOnUse" color-interpolation-filters="sRGB">
<feFlood flood-opacity="0" result="BackgroundImageFix"/>
<feBlend mode="normal" in="SourceGraphic" in2="BackgroundImageFix" result="shape"/>
<feGaussianBlur stdDeviation="2" result="effect1_foregroundBlur_85_727"/>
</filter>
<linearGradient id="paint0_linear_85_727" x1="19.9954" y1="14.089" x2="19.9954" y2="20.5009" gradientUnits="userSpaceOnUse">
<stop stop-color="#575757"/>
<stop offset="1" stop-color="#151515"/>
</linearGradient>
<linearGradient id="paint1_linear_85_727" x1="12" y1="3.75" x2="12" y2="20.25" gradientUnits="userSpaceOnUse">
<stop stop-color="#E3E3E3" stop-opacity="0.6"/>
<stop offset="1" stop-color="#BBBBC0" stop-opacity="0.6"/>
</linearGradient>
<linearGradient id="paint2_linear_85_727" x1="12" y1="3.75" x2="12" y2="20.25" gradientUnits="userSpaceOnUse">
<stop stop-color="white"/>
<stop offset="1" stop-color="white" stop-opacity="0"/>
</linearGradient>
</defs>
</svg>
