<svg width="24" height="24" viewBox="0 0 24 24" fill="none" xmlns="http://www.w3.org/2000/svg">
<mask id="mask0_85_1229" style="mask-type:alpha" maskUnits="userSpaceOnUse" x="2" y="2" width="20" height="20">
<path d="M21.25 12C21.25 17.1086 17.1086 21.25 12 21.25C6.89137 21.25 2.75 17.1086 2.75 12C2.75 6.89137 6.89137 2.75 12 2.75C17.1086 2.75 21.25 6.89137 21.25 12Z" fill="black"/>
</mask>
<g mask="url(#mask0_85_1229)">
<g filter="url(#filter0_f_85_1229)">
<ellipse cx="16.4083" cy="18.4813" rx="0.968208" ry="3.8917" transform="rotate(44.2228 16.4083 18.4813)" fill="url(#paint0_linear_85_1229)"/>
</g>
<g filter="url(#filter1_f_85_1229)">
<path d="M11.5 11.625H12.75V16.875" stroke="url(#paint1_linear_85_1229)" stroke-width="1.5" stroke-linecap="round" stroke-linejoin="round"/>
</g>
<g filter="url(#filter2_f_85_1229)">
<path d="M12.125 8C11.7798 8 11.5 8.27982 11.5 8.625C11.5 8.97018 11.7798 9.25 12.125 9.25C12.4702 9.25 12.75 8.97018 12.75 8.625C12.75 8.27982 12.4702 8 12.125 8Z" fill="url(#paint2_linear_85_1229)"/>
<path d="M12.125 8C11.7798 8 11.5 8.27982 11.5 8.625C11.5 8.97018 11.7798 9.25 12.125 9.25C12.4702 9.25 12.75 8.97018 12.75 8.625C12.75 8.27982 12.4702 8 12.125 8Z" stroke="url(#paint3_linear_85_1229)"/>
</g>
</g>
<path d="M21.25 12C21.25 17.1086 17.1086 21.25 12 21.25C6.89137 21.25 2.75 17.1086 2.75 12C2.75 6.89137 6.89137 2.75 12 2.75C17.1086 2.75 21.25 6.89137 21.25 12Z" fill="url(#paint4_linear_85_1229)" stroke="url(#paint5_linear_85_1229)" stroke-width="1.5" stroke-linecap="round" stroke-linejoin="round"/>
<path d="M10.75 11H12V16.25" stroke="url(#paint6_linear_85_1229)" stroke-width="1.5" stroke-linecap="round" stroke-linejoin="round"/>
<path d="M12 7.375C11.6548 7.375 11.375 7.65482 11.375 8C11.375 8.34518 11.6548 8.625 12 8.625C12.3452 8.625 12.625 8.34518 12.625 8C12.625 7.65482 12.3452 7.375 12 7.375Z" fill="url(#paint7_linear_85_1229)" stroke="url(#paint8_linear_85_1229)"/>
<defs>
<filter id="filter0_f_85_1229" x="7.60645" y="9.61115" width="17.6045" height="17.7404" filterUnits="userSpaceOnUse" color-interpolation-filters="sRGB">
<feFlood flood-opacity="0" result="BackgroundImageFix"/>
<feBlend mode="normal" in="SourceGraphic" in2="BackgroundImageFix" result="shape"/>
<feGaussianBlur stdDeviation="3" result="effect1_foregroundBlur_85_1229"/>
</filter>
<filter id="filter1_f_85_1229" x="9.75" y="9.875" width="4.75" height="8.75" filterUnits="userSpaceOnUse" color-interpolation-filters="sRGB">
<feFlood flood-opacity="0" result="BackgroundImageFix"/>
<feBlend mode="normal" in="SourceGraphic" in2="BackgroundImageFix" result="shape"/>
<feGaussianBlur stdDeviation="0.5" result="effect1_foregroundBlur_85_1229"/>
</filter>
<filter id="filter2_f_85_1229" x="10" y="6.5" width="4.25" height="4.25" filterUnits="userSpaceOnUse" color-interpolation-filters="sRGB">
<feFlood flood-opacity="0" result="BackgroundImageFix"/>
<feBlend mode="normal" in="SourceGraphic" in2="BackgroundImageFix" result="shape"/>
<feGaussianBlur stdDeviation="0.5" result="effect1_foregroundBlur_85_1229"/>
</filter>
<linearGradient id="paint0_linear_85_1229" x1="16.4083" y1="14.5896" x2="16.4083" y2="22.373" gradientUnits="userSpaceOnUse">
<stop stop-color="#575757"/>
<stop offset="1" stop-color="#151515"/>
</linearGradient>
<linearGradient id="paint1_linear_85_1229" x1="12.125" y1="11.625" x2="12.125" y2="16.875" gradientUnits="userSpaceOnUse">
<stop stop-color="#575757"/>
<stop offset="1" stop-color="#151515"/>
</linearGradient>
<linearGradient id="paint2_linear_85_1229" x1="12.125" y1="8" x2="12.125" y2="9.25" gradientUnits="userSpaceOnUse">
<stop stop-color="#575757"/>
<stop offset="1" stop-color="#151515"/>
</linearGradient>
<linearGradient id="paint3_linear_85_1229" x1="12.125" y1="8" x2="12.125" y2="9.25" gradientUnits="userSpaceOnUse">
<stop stop-color="#575757"/>
<stop offset="1" stop-color="#151515"/>
</linearGradient>
<linearGradient id="paint4_linear_85_1229" x1="12" y1="2.75" x2="12" y2="21.25" gradientUnits="userSpaceOnUse">
<stop stop-color="#E3E3E3" stop-opacity="0.6"/>
<stop offset="1" stop-color="#BBBBC0" stop-opacity="0.6"/>
</linearGradient>
<linearGradient id="paint5_linear_85_1229" x1="12" y1="2.75" x2="12" y2="21.25" gradientUnits="userSpaceOnUse">
<stop stop-color="white"/>
<stop offset="1" stop-color="white" stop-opacity="0"/>
</linearGradient>
<linearGradient id="paint6_linear_85_1229" x1="11.375" y1="11" x2="11.375" y2="16.25" gradientUnits="userSpaceOnUse">
<stop stop-color="#575757"/>
<stop offset="1" stop-color="#151515"/>
</linearGradient>
<linearGradient id="paint7_linear_85_1229" x1="12" y1="7.375" x2="12" y2="8.625" gradientUnits="userSpaceOnUse">
<stop stop-color="#575757"/>
<stop offset="1" stop-color="#151515"/>
</linearGradient>
<linearGradient id="paint8_linear_85_1229" x1="12" y1="7.375" x2="12" y2="8.625" gradientUnits="userSpaceOnUse">
<stop stop-color="#575757"/>
<stop offset="1" stop-color="#151515"/>
</linearGradient>
</defs>
</svg>
