<svg width="24" height="24" viewBox="0 0 24 24" fill="none" xmlns="http://www.w3.org/2000/svg">
<mask id="mask0_85_1232" style="mask-type:alpha" maskUnits="userSpaceOnUse" x="2" y="2" width="20" height="20">
<path d="M12 21.25C17.1086 21.25 21.25 17.1086 21.25 12C21.25 6.89137 17.1086 2.75 12 2.75C6.89137 2.75 2.75 6.89137 2.75 12C2.75 17.1086 6.89137 21.25 12 21.25Z" fill="black"/>
</mask>
<g mask="url(#mask0_85_1232)">
<g filter="url(#filter0_f_85_1232)">
<ellipse cx="16.951" cy="18.8857" rx="0.968208" ry="3.47444" transform="rotate(39.3322 16.951 18.8857)" fill="url(#paint0_linear_85_1232)"/>
</g>
<g filter="url(#filter1_f_85_1232)">
<path d="M12.75 16.25V16.24M13 16.25C13 16.3881 12.8881 16.5 12.75 16.5C12.6119 16.5 12.5 16.3881 12.5 16.25C12.5 16.1119 12.6119 16 12.75 16C12.8881 16 13 16.1119 13 16.25Z" stroke="url(#paint1_linear_85_1232)" stroke-width="1.5" stroke-linecap="round" stroke-linejoin="round"/>
</g>
<g filter="url(#filter2_f_85_1232)">
<path d="M10.5 9.5C10.5 8.67157 11.1716 8 12 8H13.2087C14.198 8 15 8.802 15 9.79132C15 10.3902 14.7007 10.9496 14.2023 11.2818L13.6406 11.6563C13.0842 12.0272 12.75 12.6517 12.75 13.3204V13.5" stroke="url(#paint2_linear_85_1232)" stroke-width="1.5" stroke-linecap="round" stroke-linejoin="round"/>
</g>
</g>
<path d="M12 21.25C17.1086 21.25 21.25 17.1086 21.25 12C21.25 6.89137 17.1086 2.75 12 2.75C6.89137 2.75 2.75 6.89137 2.75 12C2.75 17.1086 6.89137 21.25 12 21.25Z" fill="url(#paint3_linear_85_1232)" stroke="url(#paint4_linear_85_1232)" stroke-linecap="round" stroke-linejoin="round"/>
<path d="M12 16V15.99M12.25 16C12.25 16.1381 12.1381 16.25 12 16.25C11.8619 16.25 11.75 16.1381 11.75 16C11.75 15.8619 11.8619 15.75 12 15.75C12.1381 15.75 12.25 15.8619 12.25 16Z" stroke="url(#paint5_linear_85_1232)" stroke-width="1.5" stroke-linecap="round" stroke-linejoin="round"/>
<path d="M9.75 9.25C9.75 8.42157 10.4216 7.75 11.25 7.75H12.4587C13.448 7.75 14.25 8.552 14.25 9.54132C14.25 10.1402 13.9507 10.6996 13.4523 11.0318L12.8906 11.4063C12.3342 11.7772 12 12.4017 12 13.0704V13.25" stroke="url(#paint6_linear_85_1232)" stroke-width="1.5" stroke-linecap="round" stroke-linejoin="round"/>
<defs>
<filter id="filter0_f_85_1232" x="8.62402" y="10.1285" width="16.6533" height="17.5144" filterUnits="userSpaceOnUse" color-interpolation-filters="sRGB">
<feFlood flood-opacity="0" result="BackgroundImageFix"/>
<feBlend mode="normal" in="SourceGraphic" in2="BackgroundImageFix" result="shape"/>
<feGaussianBlur stdDeviation="3" result="effect1_foregroundBlur_85_1232"/>
</filter>
<filter id="filter1_f_85_1232" x="10.75" y="14.25" width="4" height="4" filterUnits="userSpaceOnUse" color-interpolation-filters="sRGB">
<feFlood flood-opacity="0" result="BackgroundImageFix"/>
<feBlend mode="normal" in="SourceGraphic" in2="BackgroundImageFix" result="shape"/>
<feGaussianBlur stdDeviation="0.5" result="effect1_foregroundBlur_85_1232"/>
</filter>
<filter id="filter2_f_85_1232" x="8.75" y="6.25" width="8" height="9" filterUnits="userSpaceOnUse" color-interpolation-filters="sRGB">
<feFlood flood-opacity="0" result="BackgroundImageFix"/>
<feBlend mode="normal" in="SourceGraphic" in2="BackgroundImageFix" result="shape"/>
<feGaussianBlur stdDeviation="0.5" result="effect1_foregroundBlur_85_1232"/>
</filter>
<linearGradient id="paint0_linear_85_1232" x1="16.951" y1="15.4113" x2="16.951" y2="22.3602" gradientUnits="userSpaceOnUse">
<stop stop-color="#575757"/>
<stop offset="1" stop-color="#151515"/>
</linearGradient>
<linearGradient id="paint1_linear_85_1232" x1="12.75" y1="16" x2="12.75" y2="16.5" gradientUnits="userSpaceOnUse">
<stop stop-color="#575757"/>
<stop offset="1" stop-color="#151515"/>
</linearGradient>
<linearGradient id="paint2_linear_85_1232" x1="12.75" y1="8" x2="12.75" y2="13.5" gradientUnits="userSpaceOnUse">
<stop stop-color="#575757"/>
<stop offset="1" stop-color="#151515"/>
</linearGradient>
<linearGradient id="paint3_linear_85_1232" x1="12" y1="2.75" x2="12" y2="21.25" gradientUnits="userSpaceOnUse">
<stop stop-color="#E3E3E3" stop-opacity="0.6"/>
<stop offset="1" stop-color="#BBBBC0" stop-opacity="0.6"/>
</linearGradient>
<linearGradient id="paint4_linear_85_1232" x1="12" y1="2.75" x2="12" y2="21.25" gradientUnits="userSpaceOnUse">
<stop stop-color="white"/>
<stop offset="1" stop-color="white" stop-opacity="0"/>
</linearGradient>
<linearGradient id="paint5_linear_85_1232" x1="12" y1="15.75" x2="12" y2="16.25" gradientUnits="userSpaceOnUse">
<stop stop-color="#575757"/>
<stop offset="1" stop-color="#151515"/>
</linearGradient>
<linearGradient id="paint6_linear_85_1232" x1="12" y1="7.75" x2="12" y2="13.25" gradientUnits="userSpaceOnUse">
<stop stop-color="#575757"/>
<stop offset="1" stop-color="#151515"/>
</linearGradient>
</defs>
</svg>
