<svg width="24" height="24" viewBox="0 0 24 24" fill="none" xmlns="http://www.w3.org/2000/svg">
<mask id="mask0_85_452" style="mask-type:alpha" maskUnits="userSpaceOnUse" x="3" y="4" width="18" height="18">
<path d="M16.25 4.75H18.25C19.3546 4.75 20.25 5.64543 20.25 6.75V19.25C20.25 20.3546 19.3546 21.25 18.25 21.25H5.75C4.64543 21.25 3.75 20.3546 3.75 19.25V6.75C3.75 5.64543 4.64543 4.75 5.75 4.75H7.75" fill="black"/>
</mask>
<g mask="url(#mask0_85_452)">
<g filter="url(#filter0_f_85_452)">
<path d="M16.2998 7.5V6C16.2998 4.89543 15.4044 4 14.2998 4H9.7998C8.69523 4 7.7998 4.89543 7.7998 6V7.5C7.7998 8.05228 8.24752 8.5 8.7998 8.5H15.2998C15.8521 8.5 16.2998 8.05228 16.2998 7.5Z" fill="url(#paint0_linear_85_452)"/>
<path d="M16.2998 7.5V6C16.2998 4.89543 15.4044 4 14.2998 4H9.7998C8.69523 4 7.7998 4.89543 7.7998 6V7.5C7.7998 8.05228 8.24752 8.5 8.7998 8.5H15.2998C15.8521 8.5 16.2998 8.05228 16.2998 7.5Z" stroke="url(#paint1_linear_85_452)" stroke-linecap="square" stroke-linejoin="round"/>
</g>
</g>
<path d="M16.25 4.75H18.25C19.3546 4.75 20.25 5.64543 20.25 6.75V19.25C20.25 20.3546 19.3546 21.25 18.25 21.25H5.75C4.64543 21.25 3.75 20.3546 3.75 19.25V6.75C3.75 5.64543 4.64543 4.75 5.75 4.75H7.75" fill="url(#paint2_linear_85_452)"/>
<path d="M16.25 4.75H18.25C19.3546 4.75 20.25 5.64543 20.25 6.75V19.25C20.25 20.3546 19.3546 21.25 18.25 21.25H5.75C4.64543 21.25 3.75 20.3546 3.75 19.25V6.75C3.75 5.64543 4.64543 4.75 5.75 4.75H7.75" stroke="url(#paint3_linear_85_452)" stroke-width="1.5" stroke-linecap="square" stroke-linejoin="round"/>
<path d="M16.25 6.25V4.75C16.25 3.64543 15.3546 2.75 14.25 2.75H9.75C8.64543 2.75 7.75 3.64543 7.75 4.75V6.25C7.75 6.80228 8.19772 7.25 8.75 7.25H15.25C15.8023 7.25 16.25 6.80228 16.25 6.25Z" fill="url(#paint4_linear_85_452)"/>
<defs>
<filter id="filter0_f_85_452" x="6.2998" y="2.5" width="11.5" height="7.5" filterUnits="userSpaceOnUse" color-interpolation-filters="sRGB">
<feFlood flood-opacity="0" result="BackgroundImageFix"/>
<feBlend mode="normal" in="SourceGraphic" in2="BackgroundImageFix" result="shape"/>
<feGaussianBlur stdDeviation="0.5" result="effect1_foregroundBlur_85_452"/>
</filter>
<linearGradient id="paint0_linear_85_452" x1="12.0498" y1="4" x2="12.0498" y2="8.5" gradientUnits="userSpaceOnUse">
<stop stop-color="#575757"/>
<stop offset="1" stop-color="#151515"/>
</linearGradient>
<linearGradient id="paint1_linear_85_452" x1="12.0498" y1="4" x2="12.0498" y2="8.5" gradientUnits="userSpaceOnUse">
<stop stop-color="#575757"/>
<stop offset="1" stop-color="#151515"/>
</linearGradient>
<linearGradient id="paint2_linear_85_452" x1="12" y1="4.75" x2="12" y2="21.25" gradientUnits="userSpaceOnUse">
<stop stop-color="#E3E3E3" stop-opacity="0.6"/>
<stop offset="1" stop-color="#BBBBC0" stop-opacity="0.6"/>
</linearGradient>
<linearGradient id="paint3_linear_85_452" x1="12" y1="4.75" x2="12" y2="21.25" gradientUnits="userSpaceOnUse">
<stop stop-color="white"/>
<stop offset="1" stop-color="white" stop-opacity="0"/>
</linearGradient>
<linearGradient id="paint4_linear_85_452" x1="12" y1="2.75" x2="12" y2="7.25" gradientUnits="userSpaceOnUse">
<stop stop-color="#575757"/>
<stop offset="1" stop-color="#151515"/>
</linearGradient>
</defs>
</svg>
