<svg width="24" height="24" viewBox="0 0 24 24" fill="none" xmlns="http://www.w3.org/2000/svg">
<g filter="url(#filter0_f_85_1431)">
<path d="M11.7441 8L11.2865 12.2387L15.0099 15.3208" stroke="url(#paint0_linear_85_1431)" stroke-linecap="round" stroke-linejoin="round"/>
</g>
<path d="M2 5.25L5 2.25L2 5.25ZM22 5.25L19 2.25L22 5.25ZM21.25 12C21.25 17.1086 17.1086 21.25 12 21.25C6.89137 21.25 2.75 17.1086 2.75 12C2.75 6.89137 6.89137 2.75 12 2.75C17.1086 2.75 21.25 6.89137 21.25 12Z" fill="url(#paint1_linear_85_1431)"/>
<path d="M2 5.25L5 2.25M22 5.25L19 2.25M21.25 12C21.25 17.1086 17.1086 21.25 12 21.25C6.89137 21.25 2.75 17.1086 2.75 12C2.75 6.89137 6.89137 2.75 12 2.75C17.1086 2.75 21.25 6.89137 21.25 12Z" stroke="url(#paint2_linear_85_1431)" stroke-linecap="round" stroke-linejoin="round"/>
<path d="M11.5 8C11.5 7.72386 11.7239 7.5 12 7.5C12.2761 7.5 12.5 7.72386 12.5 8V11.793L14.8535 14.1465C15.0488 14.3417 15.0488 14.6583 14.8535 14.8535C14.6583 15.0488 14.3417 15.0488 14.1465 14.8535L11.6465 12.3535C11.5527 12.2597 11.5 12.1326 11.5 12V8Z" fill="url(#paint3_linear_85_1431)" stroke="url(#paint4_linear_85_1431)" stroke-width="0.1" stroke-linecap="round" stroke-linejoin="round"/>
<defs>
<filter id="filter0_f_85_1431" x="8.78613" y="5.49995" width="8.72363" height="12.3208" filterUnits="userSpaceOnUse" color-interpolation-filters="sRGB">
<feFlood flood-opacity="0" result="BackgroundImageFix"/>
<feBlend mode="normal" in="SourceGraphic" in2="BackgroundImageFix" result="shape"/>
<feGaussianBlur stdDeviation="1" result="effect1_foregroundBlur_85_1431"/>
</filter>
<linearGradient id="paint0_linear_85_1431" x1="13.7488" y1="8.21645" x2="13.0052" y2="15.1043" gradientUnits="userSpaceOnUse">
<stop stop-color="#575757"/>
<stop offset="1" stop-color="#151515"/>
</linearGradient>
<linearGradient id="paint1_linear_85_1431" x1="12" y1="2.25" x2="12" y2="21.25" gradientUnits="userSpaceOnUse">
<stop stop-color="#E3E3E5" stop-opacity="0.6"/>
<stop offset="1" stop-color="#BBBBC0" stop-opacity="0.6"/>
</linearGradient>
<linearGradient id="paint2_linear_85_1431" x1="12" y1="2.25" x2="12" y2="21.25" gradientUnits="userSpaceOnUse">
<stop stop-color="#575757"/>
<stop offset="1" stop-color="#151515"/>
</linearGradient>
<linearGradient id="paint3_linear_85_1431" x1="13.25" y1="8" x2="13.25" y2="14.5" gradientUnits="userSpaceOnUse">
<stop stop-color="#575757"/>
<stop offset="1" stop-color="#151515"/>
</linearGradient>
<linearGradient id="paint4_linear_85_1431" x1="13.25" y1="7.5" x2="13.25" y2="15" gradientUnits="userSpaceOnUse">
<stop stop-color="white"/>
<stop offset="1" stop-color="white" stop-opacity="0"/>
</linearGradient>
</defs>
</svg>
