<svg width="24" height="24" viewBox="0 0 24 24" fill="none" xmlns="http://www.w3.org/2000/svg">
<mask id="mask0_122_23" style="mask-type:alpha" maskUnits="userSpaceOnUse" x="2" y="2" width="20" height="20">
<path d="M21.25 12C21.25 17.1086 17.1086 21.25 12 21.25C6.89137 21.25 2.75 17.1086 2.75 12C2.75 6.89137 6.89137 2.75 12 2.75C17.1086 2.75 21.25 6.89137 21.25 12Z" fill="black"/>
</mask>
<g mask="url(#mask0_122_23)">
<g filter="url(#filter0_f_122_23)">
<path d="M12.7002 8V12.25L15.4502 15" stroke="url(#paint0_linear_122_23)" stroke-width="1.5" stroke-linecap="round" stroke-linejoin="round"/>
</g>
<path d="M16.7002 3.2C17.5335 3.2 19.3002 3.2 19.7002 3.2C20.2002 3.2 20.2002 3.2 19.7002 3.7C19.2002 4.2 17.7002 6.2 17.2002 6.7C16.7002 7.2 16.7002 7.2 17.2002 7.2C17.6002 7.2 19.3669 7.2 20.2002 7.2" stroke="url(#paint1_linear_122_23)" stroke-linecap="round"/>
</g>
<path d="M21.25 12C21.25 17.1086 17.1086 21.25 12 21.25C6.89137 21.25 2.75 17.1086 2.75 12C2.75 6.89137 6.89137 2.75 12 2.75C17.1086 2.75 21.25 6.89137 21.25 12Z" fill="url(#paint2_linear_122_23)" stroke="url(#paint3_linear_122_23)" stroke-width="1.5" stroke-linecap="round" stroke-linejoin="round"/>
<path d="M12 7.75V12L14.75 14.75" stroke="url(#paint4_linear_122_23)" stroke-width="1.5" stroke-linecap="round" stroke-linejoin="round"/>
<path d="M17 3C17.8333 3 19.6 3 20 3C20.5 3 20.5 3 20 3.5C19.5 4 18 6 17.5 6.5C17 7 17 7 17.5 7C17.9 7 19.6667 7 20.5 7" stroke="url(#paint5_linear_122_23)" stroke-width="1.5" stroke-linecap="round"/>
<defs>
<filter id="filter0_f_122_23" x="11.4502" y="6.75" width="5.25" height="9.5" filterUnits="userSpaceOnUse" color-interpolation-filters="sRGB">
<feFlood flood-opacity="0" result="BackgroundImageFix"/>
<feBlend mode="normal" in="SourceGraphic" in2="BackgroundImageFix" result="shape"/>
<feGaussianBlur stdDeviation="0.25" result="effect1_foregroundBlur_122_23"/>
</filter>
<linearGradient id="paint0_linear_122_23" x1="14.0752" y1="8" x2="14.0752" y2="15" gradientUnits="userSpaceOnUse">
<stop stop-color="#575757"/>
<stop offset="1" stop-color="#151515"/>
</linearGradient>
<linearGradient id="paint1_linear_122_23" x1="18.4502" y1="3.2" x2="18.4502" y2="7.2" gradientUnits="userSpaceOnUse">
<stop stop-color="#575757"/>
<stop offset="1" stop-color="#151515"/>
</linearGradient>
<linearGradient id="paint2_linear_122_23" x1="12" y1="2.75" x2="12" y2="21.25" gradientUnits="userSpaceOnUse">
<stop stop-color="#E3E3E3" stop-opacity="0.6"/>
<stop offset="1" stop-color="#BBBBC0" stop-opacity="0.6"/>
</linearGradient>
<linearGradient id="paint3_linear_122_23" x1="12" y1="2.75" x2="12" y2="21.25" gradientUnits="userSpaceOnUse">
<stop stop-color="white"/>
<stop offset="1" stop-color="white" stop-opacity="0"/>
</linearGradient>
<linearGradient id="paint4_linear_122_23" x1="13.375" y1="7.75" x2="13.375" y2="14.75" gradientUnits="userSpaceOnUse">
<stop stop-color="#575757"/>
<stop offset="1" stop-color="#151515"/>
</linearGradient>
<linearGradient id="paint5_linear_122_23" x1="18.75" y1="3" x2="18.75" y2="7" gradientUnits="userSpaceOnUse">
<stop stop-color="#575757"/>
<stop offset="1" stop-color="#151515"/>
</linearGradient>
</defs>
</svg>
