<svg width="24" height="24" viewBox="0 0 24 24" fill="none" xmlns="http://www.w3.org/2000/svg">
<mask id="mask0_158_103" style="mask-type:alpha" maskUnits="userSpaceOnUse" x="1" y="4" width="22" height="16">
<path d="M17.9948 11.002C17.9983 10.9184 18 10.8344 18 10.75C18 7.43629 15.3137 4.75 12 4.75C9.3716 4.75 7.13793 6.44009 6.32647 8.7928C3.74507 9.12339 1.75 11.3287 1.75 14C1.75 16.8995 4.10051 19.25 7 19.25H18.125C20.4032 19.25 22.25 17.4032 22.25 15.125C22.25 12.8468 20.4032 11 18.125 11C18.0814 11 18.038 11.0007 17.9948 11.002Z" fill="black"/>
</mask>
<g mask="url(#mask0_158_103)">
<g filter="url(#filter0_f_158_103)">
<ellipse cx="19.1776" cy="16.2113" rx="0.968208" ry="5.31726" transform="rotate(41.6556 19.1776 16.2113)" fill="url(#paint0_linear_158_103)"/>
</g>
</g>
<path d="M17.9948 11.002C17.9983 10.9184 18 10.8344 18 10.75C18 7.43629 15.3137 4.75 12 4.75C9.3716 4.75 7.13793 6.44009 6.32647 8.7928C3.74507 9.12339 1.75 11.3287 1.75 14C1.75 16.8995 4.10051 19.25 7 19.25H18.125C20.4032 19.25 22.25 17.4032 22.25 15.125C22.25 12.8468 20.4032 11 18.125 11C18.0814 11 18.038 11.0007 17.9948 11.002Z" fill="url(#paint1_linear_158_103)" stroke="url(#paint2_linear_158_103)" stroke-width="1.5" stroke-linecap="round" stroke-linejoin="round"/>
<defs>
<filter id="filter0_f_158_103" x="8.56934" y="5.18614" width="21.2168" height="22.0504" filterUnits="userSpaceOnUse" color-interpolation-filters="sRGB">
<feFlood flood-opacity="0" result="BackgroundImageFix"/>
<feBlend mode="normal" in="SourceGraphic" in2="BackgroundImageFix" result="shape"/>
<feGaussianBlur stdDeviation="3.5" result="effect1_foregroundBlur_158_103"/>
</filter>
<linearGradient id="paint0_linear_158_103" x1="19.1776" y1="10.8941" x2="19.1776" y2="21.5286" gradientUnits="userSpaceOnUse">
<stop stop-color="#575757"/>
<stop offset="1" stop-color="#151515"/>
</linearGradient>
<linearGradient id="paint1_linear_158_103" x1="12" y1="4.75" x2="12" y2="19.25" gradientUnits="userSpaceOnUse">
<stop stop-color="#E3E3E3" stop-opacity="0.6"/>
<stop offset="1" stop-color="#BBBBC0" stop-opacity="0.6"/>
</linearGradient>
<linearGradient id="paint2_linear_158_103" x1="12" y1="4.75" x2="12" y2="19.25" gradientUnits="userSpaceOnUse">
<stop stop-color="white"/>
<stop offset="1" stop-color="white" stop-opacity="0"/>
</linearGradient>
</defs>
</svg>
