<svg width="24" height="24" viewBox="0 0 24 24" fill="none" xmlns="http://www.w3.org/2000/svg">
<mask id="mask0_85_460" style="mask-type:alpha" maskUnits="userSpaceOnUse" x="1" y="4" width="21" height="16">
<path d="M16.5 19.25H17.875C20.1532 19.25 22 17.4032 22 15.125C22 12.8468 20.1532 11 17.875 11C17.8314 11 17.788 11.0007 17.7448 11.002C17.7483 10.9184 17.75 10.8344 17.75 10.75C17.75 7.43629 15.0637 4.75 11.75 4.75C9.1216 4.75 6.88793 6.44009 6.07647 8.7928C3.49507 9.12339 1.5 11.3287 1.5 14C1.5 16.8995 3.85051 19.25 6.75 19.25H7" fill="black"/>
</mask>
<g mask="url(#mask0_85_460)">
<g filter="url(#filter0_f_85_460)">
<path d="M13 12V19.5M13 19.5L15.5 17M13 19.5L10.5 17" stroke="url(#paint0_linear_85_460)" stroke-width="1.5" stroke-linecap="round" stroke-linejoin="round"/>
</g>
</g>
<path d="M16.75 19.25H18.125C20.4032 19.25 22.25 17.4032 22.25 15.125C22.25 12.8468 20.4032 11 18.125 11C18.0814 11 18.038 11.0007 17.9948 11.002C17.9983 10.9184 18 10.8344 18 10.75C18 7.43629 15.3137 4.75 12 4.75C9.3716 4.75 7.13793 6.44009 6.32647 8.7928C3.74507 9.12339 1.75 11.3287 1.75 14C1.75 16.8995 4.10051 19.25 7 19.25H7.25" fill="url(#paint1_linear_85_460)"/>
<path d="M16.75 19.25H18.125C20.4032 19.25 22.25 17.4032 22.25 15.125C22.25 12.8468 20.4032 11 18.125 11C18.0814 11 18.038 11.0007 17.9948 11.002C17.9983 10.9184 18 10.8344 18 10.75C18 7.43629 15.3137 4.75 12 4.75C9.3716 4.75 7.13793 6.44009 6.32647 8.7928C3.74507 9.12339 1.75 11.3287 1.75 14C1.75 16.8995 4.10051 19.25 7 19.25H7.25" stroke="url(#paint2_linear_85_460)" stroke-linecap="round" stroke-linejoin="round"/>
<path d="M12 11.75V19.25M12 19.25L14.5 16.75M12 19.25L9.5 16.75" stroke="url(#paint3_linear_85_460)" stroke-width="1.5" stroke-linecap="round" stroke-linejoin="round"/>
<defs>
<filter id="filter0_f_85_460" x="9.25" y="10.75" width="7.5" height="10" filterUnits="userSpaceOnUse" color-interpolation-filters="sRGB">
<feFlood flood-opacity="0" result="BackgroundImageFix"/>
<feBlend mode="normal" in="SourceGraphic" in2="BackgroundImageFix" result="shape"/>
<feGaussianBlur stdDeviation="0.25" result="effect1_foregroundBlur_85_460"/>
</filter>
<linearGradient id="paint0_linear_85_460" x1="13" y1="12" x2="13" y2="19.5" gradientUnits="userSpaceOnUse">
<stop stop-color="#575757"/>
<stop offset="1" stop-color="#151515"/>
</linearGradient>
<linearGradient id="paint1_linear_85_460" x1="12" y1="4.75" x2="12" y2="19.25" gradientUnits="userSpaceOnUse">
<stop stop-color="#E3E3E3" stop-opacity="0.6"/>
<stop offset="1" stop-color="#BBBBC0" stop-opacity="0.6"/>
</linearGradient>
<linearGradient id="paint2_linear_85_460" x1="12" y1="4.75" x2="12" y2="19.25" gradientUnits="userSpaceOnUse">
<stop stop-color="white"/>
<stop offset="1" stop-color="white" stop-opacity="0"/>
</linearGradient>
<linearGradient id="paint3_linear_85_460" x1="12" y1="11.75" x2="12" y2="19.25" gradientUnits="userSpaceOnUse">
<stop stop-color="#575757"/>
<stop offset="1" stop-color="#151515"/>
</linearGradient>
</defs>
</svg>
