<svg width="24" height="24" viewBox="0 0 24 24" fill="none" xmlns="http://www.w3.org/2000/svg">
<mask id="mask0_158_109" style="mask-type:alpha" maskUnits="userSpaceOnUse" x="3" y="3" width="18" height="13">
<path d="M9.42188 15.25H16.125C18.4032 15.25 20.25 13.3777 20.25 11.0682C20.25 8.75863 18.4032 6.88636 16.125 6.88636C15.9286 6.88636 15.7354 6.90028 15.5463 6.92719C15.0114 7.00333 14.4471 6.77668 14.1512 6.32464C13.1354 4.77296 11.3965 3.75 9.42188 3.75C6.28939 3.75 3.75 6.32436 3.75 9.5C3.75 12.6756 6.28939 15.25 9.42188 15.25Z" fill="black"/>
</mask>
<g mask="url(#mask0_158_109)">
<g filter="url(#filter0_f_158_109)">
<ellipse cx="17.8855" cy="12.0708" rx="0.643928" ry="5.31726" transform="rotate(25.6915 17.8855 12.0708)" fill="url(#paint0_linear_158_109)"/>
</g>
</g>
<path d="M9.42188 15.25H16.125C18.4032 15.25 20.25 13.3777 20.25 11.0682C20.25 8.75863 18.4032 6.88636 16.125 6.88636C15.9286 6.88636 15.7354 6.90028 15.5463 6.92719C15.0114 7.00333 14.4471 6.77668 14.1512 6.32464C13.1354 4.77296 11.3965 3.75 9.42188 3.75C6.28939 3.75 3.75 6.32436 3.75 9.5C3.75 12.6756 6.28939 15.25 9.42188 15.25Z" fill="url(#paint1_linear_158_109)" stroke="url(#paint2_linear_158_109)" stroke-width="1.5" stroke-linejoin="round"/>
<path d="M6.2498 18.0102C6.24852 18.0419 6.24138 18.072 6.22942 18.0995C6.21726 18.1276 6.19972 18.1538 6.17678 18.1768C6.12797 18.2256 6.06399 18.25 6 18.25C5.96741 18.25 5.93628 18.2438 5.90773 18.2324C5.87696 18.2202 5.84812 18.2017 5.82322 18.1768C5.80028 18.1538 5.78273 18.1275 5.77057 18.0995C5.75862 18.0719 5.75148 18.0419 5.75021 18.0102C5.74993 18.0034 5.74993 17.9966 5.75021 17.9898C5.75148 17.9581 5.75862 17.9281 5.77057 17.9005C5.78273 17.8725 5.80028 17.8462 5.82322 17.8232C5.87204 17.7744 5.93602 17.75 6 17.75V17.75C5.93097 17.75 5.86847 17.778 5.82323 17.8232L6 18V17.75C5.93602 17.75 5.87204 17.7744 5.82322 17.8232L5.82323 17.8232C5.86847 17.778 5.93097 17.75 6 17.75C6.06904 17.75 6.13153 17.778 6.17677 17.8232L6.17678 17.8232C6.12797 17.7744 6.06399 17.75 6 17.75V18L6.17677 17.8232C6.13153 17.778 6.06904 17.75 6 17.75V17.75C6.06399 17.75 6.12797 17.7744 6.17678 17.8232C6.19972 17.8462 6.21726 17.8724 6.22942 17.9005C6.24138 17.928 6.24852 17.9581 6.2498 17.9898C6.25008 17.9966 6.25008 18.0034 6.2498 18.0102Z" fill="url(#paint3_linear_158_109)"/>
<path d="M12.25 18C12.25 18.0361 12.2424 18.0703 12.2286 18.1013C12.2165 18.1287 12.1992 18.1543 12.1768 18.1768C12.1543 18.1992 12.1287 18.2165 12.1013 18.2286C12.0703 18.2424 12.0361 18.25 12 18.25C11.9639 18.25 11.9297 18.2424 11.8987 18.2286C11.8713 18.2165 11.8457 18.1992 11.8232 18.1768C11.8008 18.1543 11.7835 18.1287 11.7714 18.1013C11.7576 18.0703 11.75 18.0361 11.75 18C11.75 17.9639 11.7576 17.9297 11.7714 17.8987C11.7835 17.8713 11.8008 17.8457 11.8232 17.8232C11.8458 17.8006 11.8717 17.7832 11.8993 17.7711C11.9301 17.7575 11.9642 17.75 12 17.75C12.0358 17.75 12.0699 17.7575 12.1007 17.7711C12.1283 17.7832 12.1542 17.8006 12.1768 17.8232C12.1992 17.8457 12.2165 17.8713 12.2286 17.8987C12.2424 17.9297 12.25 17.9639 12.25 18Z" fill="url(#paint4_linear_158_109)"/>
<path d="M18.25 18C18.25 18.0043 18.2499 18.0086 18.2497 18.0129C18.2481 18.0442 18.2407 18.074 18.2286 18.1013C18.2165 18.1287 18.1992 18.1543 18.1768 18.1768C18.1543 18.1992 18.1287 18.2165 18.1013 18.2286C18.0703 18.2424 18.0361 18.25 18 18.25C17.9957 18.25 17.9914 18.2499 17.9871 18.2497C17.9558 18.2481 17.926 18.2407 17.8987 18.2286C17.8713 18.2165 17.8457 18.1992 17.8232 18.1768C17.8008 18.1543 17.7835 18.1287 17.7714 18.1013C17.7576 18.0703 17.75 18.0361 17.75 18C17.75 17.9957 17.7501 17.9914 17.7503 17.9871C17.7519 17.9558 17.7593 17.926 17.7714 17.8987C17.7835 17.8713 17.8008 17.8457 17.8232 17.8232C17.8458 17.8006 17.8717 17.7832 17.8993 17.7711C17.9301 17.7575 17.9642 17.75 18 17.75C18.0358 17.75 18.0699 17.7575 18.1007 17.7711C18.1283 17.7832 18.1542 17.8006 18.1768 17.8232C18.1992 17.8457 18.2165 17.8713 18.2286 17.8987C18.2407 17.926 18.2481 17.9558 18.2497 17.9871C18.2499 17.9914 18.25 17.9957 18.25 18Z" fill="url(#paint5_linear_158_109)"/>
<path d="M15.25 20C15.25 20.0043 15.2499 20.0086 15.2497 20.0129C15.2481 20.0442 15.2407 20.074 15.2286 20.1013C15.2165 20.1287 15.1992 20.1543 15.1768 20.1768C15.1543 20.1992 15.1287 20.2165 15.1013 20.2286C15.0703 20.2424 15.0361 20.25 15 20.25C14.9957 20.25 14.9914 20.2499 14.9871 20.2497C14.9558 20.2481 14.926 20.2407 14.8987 20.2286C14.8713 20.2165 14.8457 20.1992 14.8232 20.1768C14.8008 20.1543 14.7835 20.1287 14.7714 20.1013C14.7576 20.0703 14.75 20.0361 14.75 20C14.75 19.9957 14.7501 19.9914 14.7503 19.9871C14.7519 19.9558 14.7593 19.926 14.7714 19.8987C14.7835 19.8713 14.8008 19.8457 14.8232 19.8232C14.8457 19.8008 14.8713 19.7835 14.8987 19.7714C14.9297 19.7576 14.9639 19.75 15 19.75C15.0361 19.75 15.0703 19.7576 15.1013 19.7714C15.1287 19.7835 15.1543 19.8008 15.1768 19.8232C15.1992 19.8457 15.2165 19.8713 15.2286 19.8987C15.2407 19.926 15.2481 19.9558 15.2497 19.9871C15.2499 19.9914 15.25 19.9957 15.25 20Z" fill="url(#paint6_linear_158_109)"/>
<path d="M9.24983 20.0093C9.24866 20.0414 9.24143 20.072 9.22925 20.0999C9.21709 20.1278 9.19961 20.154 9.17678 20.1768C9.12797 20.2256 9.06398 20.25 9 20.25C8.96718 20.25 8.93584 20.2437 8.90713 20.2322C8.87658 20.22 8.84796 20.2015 8.82322 20.1768C8.8004 20.154 8.78291 20.1278 8.77076 20.0999C8.75857 20.072 8.75134 20.0414 8.75017 20.0093C8.74994 20.0031 8.74994 19.9969 8.75017 19.9907C8.75134 19.9586 8.75857 19.928 8.77076 19.9001C8.78291 19.8722 8.8004 19.846 8.82322 19.8232C8.87204 19.7744 8.93602 19.75 9 19.75C9.06398 19.75 9.12797 19.7744 9.17678 19.8232C9.19961 19.846 9.21709 19.8722 9.22925 19.9001C9.24143 19.928 9.24866 19.9586 9.24983 19.9907C9.25006 19.9969 9.25006 20.0031 9.24983 20.0093Z" fill="url(#paint7_linear_158_109)"/>
<path d="M6.25 18C6.25 18.1381 6.13807 18.25 6 18.25M6.25 18C6.25 17.8619 6.13807 17.75 6 17.75M6.25 18H6M6 18.25C5.86193 18.25 5.75 18.1381 5.75 18M6 18.25V18M6 17.75C5.86193 17.75 5.75 17.8619 5.75 18M6 17.75V18M6 18H5.75M6 18L5.82322 18.1768M6 18L6.17678 17.8232M6 18L5.82322 17.8232M6 18L6.17678 18.1768M5.82322 18.1768C5.92085 18.2744 6.07915 18.2744 6.17678 18.1768M5.82322 18.1768C5.72559 18.0791 5.72559 17.9209 5.82322 17.8232M6.17678 17.8232C6.27441 17.9209 6.27441 18.0791 6.17678 18.1768M6.17678 17.8232C6.07915 17.7256 5.92085 17.7256 5.82322 17.8232M12.25 18C12.25 18.1381 12.1381 18.25 12 18.25M12.25 18C12.25 17.8619 12.1381 17.75 12 17.75M12.25 18H12M12 18.25C11.8619 18.25 11.75 18.1381 11.75 18M12 18.25V18M12 17.75C11.8619 17.75 11.75 17.8619 11.75 18M12 17.75V18M12 18H11.75M12 18L11.8232 18.1768M12 18L12.1768 17.8232M12 18L11.8232 17.8232M12 18L12.1768 18.1768M11.8232 18.1768C11.9209 18.2744 12.0791 18.2744 12.1768 18.1768M11.8232 18.1768C11.7256 18.0791 11.7256 17.9209 11.8232 17.8232M12.1768 17.8232C12.2744 17.9209 12.2744 18.0791 12.1768 18.1768M12.1768 17.8232C12.0791 17.7256 11.9209 17.7256 11.8232 17.8232M18.25 18C18.25 18.1381 18.1381 18.25 18 18.25M18.25 18C18.25 17.8619 18.1381 17.75 18 17.75M18.25 18H18M18 18.25C17.8619 18.25 17.75 18.1381 17.75 18M18 18.25V18M18 17.75C17.8619 17.75 17.75 17.8619 17.75 18M18 17.75V18M18 18H17.75M18 18L17.8232 18.1768M18 18L18.1768 17.8232M18 18L17.8232 17.8232M18 18L18.1768 18.1768M17.8232 18.1768C17.9209 18.2744 18.0791 18.2744 18.1768 18.1768M17.8232 18.1768C17.7256 18.0791 17.7256 17.9209 17.8232 17.8232M18.1768 17.8232C18.2744 17.9209 18.2744 18.0791 18.1768 18.1768M18.1768 17.8232C18.0791 17.7256 17.9209 17.7256 17.8232 17.8232M15.25 20C15.25 20.1381 15.1381 20.25 15 20.25M15.25 20C15.25 19.8619 15.1381 19.75 15 19.75M15.25 20H15M15 20.25C14.8619 20.25 14.75 20.1381 14.75 20M15 20.25V20M15 19.75C14.8619 19.75 14.75 19.8619 14.75 20M15 19.75V20M15 20H14.75M15 20L14.8232 20.1768M15 20L15.1768 19.8232M15 20L14.8232 19.8232M15 20L15.1768 20.1768M14.8232 20.1768C14.9209 20.2744 15.0791 20.2744 15.1768 20.1768M14.8232 20.1768C14.7256 20.0791 14.7256 19.9209 14.8232 19.8232M15.1768 19.8232C15.2744 19.9209 15.2744 20.0791 15.1768 20.1768M15.1768 19.8232C15.0791 19.7256 14.9209 19.7256 14.8232 19.8232M9.25 20C9.25 20.1381 9.13807 20.25 9 20.25M9.25 20C9.25 19.8619 9.13807 19.75 9 19.75M9.25 20H9M9 20.25C8.86193 20.25 8.75 20.1381 8.75 20M9 20.25V20M9 19.75C8.86193 19.75 8.75 19.8619 8.75 20M9 19.75V20M9 20H8.75M9 20L8.82322 20.1768M9 20L9.17678 19.8232M9 20L8.82322 19.8232M9 20L9.17678 20.1768M8.82322 20.1768C8.92085 20.2744 9.07915 20.2744 9.17678 20.1768M8.82322 20.1768C8.72559 20.0791 8.72559 19.9209 8.82322 19.8232M9.17678 19.8232C9.27441 19.9209 9.27441 20.0791 9.17678 20.1768M9.17678 19.8232C9.07915 19.7256 8.92085 19.7256 8.82322 19.8232" stroke="url(#paint8_linear_158_109)" stroke-width="1.5" stroke-linejoin="round"/>
<defs>
<filter id="filter0_f_158_109" x="9.50781" y="1.27089" width="16.7549" height="21.5997" filterUnits="userSpaceOnUse" color-interpolation-filters="sRGB">
<feFlood flood-opacity="0" result="BackgroundImageFix"/>
<feBlend mode="normal" in="SourceGraphic" in2="BackgroundImageFix" result="shape"/>
<feGaussianBlur stdDeviation="3" result="effect1_foregroundBlur_158_109"/>
</filter>
<linearGradient id="paint0_linear_158_109" x1="17.8855" y1="6.7535" x2="17.8855" y2="17.388" gradientUnits="userSpaceOnUse">
<stop stop-color="#575757"/>
<stop offset="1" stop-color="#151515"/>
</linearGradient>
<linearGradient id="paint1_linear_158_109" x1="12" y1="3.75" x2="12" y2="15.25" gradientUnits="userSpaceOnUse">
<stop stop-color="#E3E3E3" stop-opacity="0.6"/>
<stop offset="1" stop-color="#BBBBC0" stop-opacity="0.6"/>
</linearGradient>
<linearGradient id="paint2_linear_158_109" x1="12" y1="3.75" x2="12" y2="15.25" gradientUnits="userSpaceOnUse">
<stop stop-color="white"/>
<stop offset="1" stop-color="white" stop-opacity="0"/>
</linearGradient>
<linearGradient id="paint3_linear_158_109" x1="12" y1="17.75" x2="12" y2="20.25" gradientUnits="userSpaceOnUse">
<stop stop-color="#575757"/>
<stop offset="1" stop-color="#151515"/>
</linearGradient>
<linearGradient id="paint4_linear_158_109" x1="12" y1="17.75" x2="12" y2="20.25" gradientUnits="userSpaceOnUse">
<stop stop-color="#575757"/>
<stop offset="1" stop-color="#151515"/>
</linearGradient>
<linearGradient id="paint5_linear_158_109" x1="12" y1="17.75" x2="12" y2="20.25" gradientUnits="userSpaceOnUse">
<stop stop-color="#575757"/>
<stop offset="1" stop-color="#151515"/>
</linearGradient>
<linearGradient id="paint6_linear_158_109" x1="12" y1="17.75" x2="12" y2="20.25" gradientUnits="userSpaceOnUse">
<stop stop-color="#575757"/>
<stop offset="1" stop-color="#151515"/>
</linearGradient>
<linearGradient id="paint7_linear_158_109" x1="12" y1="17.75" x2="12" y2="20.25" gradientUnits="userSpaceOnUse">
<stop stop-color="#575757"/>
<stop offset="1" stop-color="#151515"/>
</linearGradient>
<linearGradient id="paint8_linear_158_109" x1="12" y1="17.75" x2="12" y2="20.25" gradientUnits="userSpaceOnUse">
<stop stop-color="#575757"/>
<stop offset="1" stop-color="#151515"/>
</linearGradient>
</defs>
</svg>
