<svg width="24" height="24" viewBox="0 0 24 24" fill="none" xmlns="http://www.w3.org/2000/svg">
<mask id="mask0_154_2" style="mask-type:alpha" maskUnits="userSpaceOnUse" x="3" y="3" width="18" height="18">
<path d="M5.75 20.25H18.25C19.3546 20.25 20.25 19.3546 20.25 18.25V5.75C20.25 4.64543 19.3546 3.75 18.25 3.75H5.75C4.64543 3.75 3.75 4.64543 3.75 5.75V18.25C3.75 19.3546 4.64543 20.25 5.75 20.25Z" fill="black"/>
</mask>
<g mask="url(#mask0_154_2)">
<g filter="url(#filter0_f_154_2)">
<path d="M10.5858 10L8.2929 12.2929C7.90237 12.6834 7.90237 13.3166 8.2929 13.7071L10.5858 16M14.0858 10L16.3787 12.2929C16.7692 12.6834 16.7692 13.3166 16.3787 13.7071L14.0858 16" stroke="url(#paint0_linear_154_2)" stroke-width="1.5" stroke-linecap="round" stroke-linejoin="round"/>
</g>
<g filter="url(#filter1_f_154_2)">
<ellipse cx="18.1777" cy="17.2113" rx="0.968208" ry="5.31726" transform="rotate(25.6915 18.1777 17.2113)" fill="url(#paint1_linear_154_2)"/>
</g>
<g filter="url(#filter2_f_154_2)">
<ellipse cx="5.17767" cy="7.21135" rx="0.968208" ry="5.31726" transform="rotate(25.6915 5.17767 7.21135)" fill="url(#paint2_linear_154_2)"/>
</g>
</g>
<path d="M5.75 20.25H18.25C19.3546 20.25 20.25 19.3546 20.25 18.25V5.75C20.25 4.64543 19.3546 3.75 18.25 3.75H5.75C4.64543 3.75 3.75 4.64543 3.75 5.75V18.25C3.75 19.3546 4.64543 20.25 5.75 20.25Z" fill="url(#paint3_linear_154_2)" stroke="url(#paint4_linear_154_2)" stroke-width="1.5" stroke-linecap="round" stroke-linejoin="round"/>
<path d="M10.2499 9L7.95696 11.2929C7.56643 11.6834 7.56643 12.3166 7.95696 12.7071L10.2499 15M13.7499 9L16.0428 11.2929C16.4333 11.6834 16.4333 12.3166 16.0428 12.7071L13.7499 15" stroke="url(#paint5_linear_154_2)" stroke-width="1.5" stroke-linecap="round" stroke-linejoin="round"/>
<defs>
<filter id="filter0_f_154_2" x="6.75" y="8.75" width="11.1719" height="8.5" filterUnits="userSpaceOnUse" color-interpolation-filters="sRGB">
<feFlood flood-opacity="0" result="BackgroundImageFix"/>
<feBlend mode="normal" in="SourceGraphic" in2="BackgroundImageFix" result="shape"/>
<feGaussianBlur stdDeviation="0.25" result="effect1_foregroundBlur_154_2"/>
</filter>
<filter id="filter1_f_154_2" x="9.71191" y="6.40109" width="16.9316" height="21.6205" filterUnits="userSpaceOnUse" color-interpolation-filters="sRGB">
<feFlood flood-opacity="0" result="BackgroundImageFix"/>
<feBlend mode="normal" in="SourceGraphic" in2="BackgroundImageFix" result="shape"/>
<feGaussianBlur stdDeviation="3" result="effect1_foregroundBlur_154_2"/>
</filter>
<filter id="filter2_f_154_2" x="-3.28809" y="-3.59891" width="16.9316" height="21.6205" filterUnits="userSpaceOnUse" color-interpolation-filters="sRGB">
<feFlood flood-opacity="0" result="BackgroundImageFix"/>
<feBlend mode="normal" in="SourceGraphic" in2="BackgroundImageFix" result="shape"/>
<feGaussianBlur stdDeviation="3" result="effect1_foregroundBlur_154_2"/>
</filter>
<linearGradient id="paint0_linear_154_2" x1="12.3358" y1="10" x2="12.3358" y2="16" gradientUnits="userSpaceOnUse">
<stop stop-color="#575757"/>
<stop offset="1" stop-color="#151515"/>
</linearGradient>
<linearGradient id="paint1_linear_154_2" x1="18.1777" y1="11.8941" x2="18.1777" y2="22.5286" gradientUnits="userSpaceOnUse">
<stop stop-color="#575757"/>
<stop offset="1" stop-color="#151515"/>
</linearGradient>
<linearGradient id="paint2_linear_154_2" x1="5.17767" y1="1.89408" x2="5.17767" y2="12.5286" gradientUnits="userSpaceOnUse">
<stop stop-color="#575757"/>
<stop offset="1" stop-color="#151515"/>
</linearGradient>
<linearGradient id="paint3_linear_154_2" x1="12" y1="3.75" x2="12" y2="20.25" gradientUnits="userSpaceOnUse">
<stop stop-color="#E3E3E3" stop-opacity="0.6"/>
<stop offset="1" stop-color="#BBBBC0" stop-opacity="0.6"/>
</linearGradient>
<linearGradient id="paint4_linear_154_2" x1="12" y1="3.75" x2="12" y2="20.25" gradientUnits="userSpaceOnUse">
<stop stop-color="white"/>
<stop offset="1" stop-color="white" stop-opacity="0"/>
</linearGradient>
<linearGradient id="paint5_linear_154_2" x1="11.9998" y1="9" x2="11.9998" y2="15" gradientUnits="userSpaceOnUse">
<stop stop-color="#575757"/>
<stop offset="1" stop-color="#151515"/>
</linearGradient>
</defs>
</svg>
