<svg width="24" height="24" viewBox="0 0 24 24" fill="none" xmlns="http://www.w3.org/2000/svg">
<mask id="mask0_85_749" style="mask-type:alpha" maskUnits="userSpaceOnUse" x="2" y="2" width="20" height="20">
<path d="M21.25 12C21.25 17.1086 17.1086 21.25 12 21.25C6.89137 21.25 2.75 17.1086 2.75 12C2.75 6.89137 6.89137 2.75 12 2.75C17.1086 2.75 21.25 6.89137 21.25 12Z" fill="black"/>
</mask>
<g mask="url(#mask0_85_749)">
<g filter="url(#filter0_f_85_749)">
<path d="M12.5 8C14.2632 8 15.7212 9.30391 15.9639 11H17C17.2761 11 17.5 11.2239 17.5 11.5C17.5 11.7761 17.2761 12 17 12H15.9639C15.7212 13.6961 14.2632 15 12.5 15H12.1514L15.2773 17.084C15.5071 17.2372 15.5692 17.5476 15.416 17.7773C15.2628 18.0071 14.9524 18.0692 14.7227 17.916L10.2227 14.916C10.0394 14.7939 9.95782 14.5663 10.0215 14.3555C10.0853 14.1446 10.2797 14 10.5 14H12.5C13.7095 14 14.7186 13.1412 14.9502 12H8.5C8.22386 12 8 11.7761 8 11.5C8 11.2239 8.22386 11 8.5 11H14.9502C14.7186 9.85886 13.7095 9 12.5 9H10.5C10.2239 9 10 8.77614 10 8.5C10 8.22386 10.2239 8 10.5 8H12.5Z" fill="url(#paint0_linear_85_749)"/>
</g>
</g>
<path d="M21.25 12C21.25 17.1086 17.1086 21.25 12 21.25C6.89137 21.25 2.75 17.1086 2.75 12C2.75 6.89137 6.89137 2.75 12 2.75C17.1086 2.75 21.25 6.89137 21.25 12Z" fill="url(#paint1_linear_85_749)" stroke="url(#paint2_linear_85_749)" stroke-linecap="round" stroke-linejoin="round"/>
<path d="M7.75 10.75H16.25" stroke="url(#paint3_linear_85_749)" stroke-linecap="round" stroke-linejoin="round"/>
<path d="M9.75 7.75H11.75C13.4069 7.75 14.75 9.09315 14.75 10.75C14.75 12.4069 13.4069 13.75 11.75 13.75H9.75L14.25 16.75" stroke="url(#paint4_linear_85_749)" stroke-linecap="round" stroke-linejoin="round"/>
<defs>
<filter id="filter0_f_85_749" x="7.5" y="7.5" width="10.5" height="11" filterUnits="userSpaceOnUse" color-interpolation-filters="sRGB">
<feFlood flood-opacity="0" result="BackgroundImageFix"/>
<feBlend mode="normal" in="SourceGraphic" in2="BackgroundImageFix" result="shape"/>
<feGaussianBlur stdDeviation="0.25" result="effect1_foregroundBlur_85_749"/>
</filter>
<linearGradient id="paint0_linear_85_749" x1="12.75" y1="8" x2="12.75" y2="18" gradientUnits="userSpaceOnUse">
<stop stop-color="#575757"/>
<stop offset="1" stop-color="#151515"/>
</linearGradient>
<linearGradient id="paint1_linear_85_749" x1="12" y1="2.75" x2="12" y2="21.25" gradientUnits="userSpaceOnUse">
<stop stop-color="#E3E3E3" stop-opacity="0.6"/>
<stop offset="1" stop-color="#BBBBC0" stop-opacity="0.6"/>
</linearGradient>
<linearGradient id="paint2_linear_85_749" x1="12" y1="2.75" x2="12" y2="21.25" gradientUnits="userSpaceOnUse">
<stop stop-color="white"/>
<stop offset="1" stop-color="white" stop-opacity="0"/>
</linearGradient>
<linearGradient id="paint3_linear_85_749" x1="12" y1="10.75" x2="12" y2="11.75" gradientUnits="userSpaceOnUse">
<stop stop-color="#575757"/>
<stop offset="1" stop-color="#151515"/>
</linearGradient>
<linearGradient id="paint4_linear_85_749" x1="12.25" y1="7.75" x2="12.25" y2="16.75" gradientUnits="userSpaceOnUse">
<stop stop-color="#575757"/>
<stop offset="1" stop-color="#151515"/>
</linearGradient>
</defs>
</svg>
