<svg width="24" height="24" viewBox="0 0 24 24" fill="none" xmlns="http://www.w3.org/2000/svg">
<mask id="mask0_154_31" style="mask-type:alpha" maskUnits="userSpaceOnUse" x="3" y="3" width="18" height="18">
<path d="M5.75 20.25H18.25C19.3546 20.25 20.25 19.3546 20.25 18.25V5.75C20.25 4.64543 19.3546 3.75 18.25 3.75H5.75C4.64543 3.75 3.75 4.64543 3.75 5.75V18.25C3.75 19.3546 4.64543 20.25 5.75 20.25Z" fill="black"/>
</mask>
<g mask="url(#mask0_154_31)">
<g filter="url(#filter0_f_154_31)">
<path d="M7.5 8.5L9.25 10.25L7.5 12M11 12H13" stroke="url(#paint0_linear_154_31)" stroke-width="1.5" stroke-linecap="round" stroke-linejoin="round"/>
</g>
<g filter="url(#filter1_f_154_31)">
<ellipse cx="16.8484" cy="19.0529" rx="0.602821" ry="5.31726" transform="rotate(25.6915 16.8484 19.0529)" fill="url(#paint1_linear_154_31)"/>
</g>
</g>
<path d="M5.75 20.25H18.25C19.3546 20.25 20.25 19.3546 20.25 18.25V5.75C20.25 4.64543 19.3546 3.75 18.25 3.75H5.75C4.64543 3.75 3.75 4.64543 3.75 5.75V18.25C3.75 19.3546 4.64543 20.25 5.75 20.25Z" fill="url(#paint2_linear_154_31)" stroke="url(#paint3_linear_154_31)" stroke-width="1.5" stroke-linecap="round" stroke-linejoin="round"/>
<path d="M7.25 7.75L9 9.5L7.25 11.25M10.75 11.25H12.75" stroke="url(#paint4_linear_154_31)" stroke-width="1.5" stroke-linecap="round" stroke-linejoin="round"/>
<defs>
<filter id="filter0_f_154_31" x="6.25" y="7.25" width="8" height="6" filterUnits="userSpaceOnUse" color-interpolation-filters="sRGB">
<feFlood flood-opacity="0" result="BackgroundImageFix"/>
<feBlend mode="normal" in="SourceGraphic" in2="BackgroundImageFix" result="shape"/>
<feGaussianBlur stdDeviation="0.25" result="effect1_foregroundBlur_154_31"/>
</filter>
<filter id="filter1_f_154_31" x="8.47949" y="8.25409" width="16.7373" height="21.5977" filterUnits="userSpaceOnUse" color-interpolation-filters="sRGB">
<feFlood flood-opacity="0" result="BackgroundImageFix"/>
<feBlend mode="normal" in="SourceGraphic" in2="BackgroundImageFix" result="shape"/>
<feGaussianBlur stdDeviation="3" result="effect1_foregroundBlur_154_31"/>
</filter>
<linearGradient id="paint0_linear_154_31" x1="10.25" y1="8.5" x2="10.25" y2="12" gradientUnits="userSpaceOnUse">
<stop stop-color="#575757"/>
<stop offset="1" stop-color="#151515"/>
</linearGradient>
<linearGradient id="paint1_linear_154_31" x1="16.8484" y1="13.7357" x2="16.8484" y2="24.3702" gradientUnits="userSpaceOnUse">
<stop stop-color="#575757"/>
<stop offset="1" stop-color="#151515"/>
</linearGradient>
<linearGradient id="paint2_linear_154_31" x1="12" y1="3.75" x2="12" y2="20.25" gradientUnits="userSpaceOnUse">
<stop stop-color="#E3E3E3" stop-opacity="0.6"/>
<stop offset="1" stop-color="#BBBBC0" stop-opacity="0.6"/>
</linearGradient>
<linearGradient id="paint3_linear_154_31" x1="12" y1="3.75" x2="12" y2="20.25" gradientUnits="userSpaceOnUse">
<stop stop-color="white"/>
<stop offset="1" stop-color="white" stop-opacity="0"/>
</linearGradient>
<linearGradient id="paint4_linear_154_31" x1="10" y1="7.75" x2="10" y2="11.25" gradientUnits="userSpaceOnUse">
<stop stop-color="#575757"/>
<stop offset="1" stop-color="#151515"/>
</linearGradient>
</defs>
</svg>
