<svg width="24" height="24" viewBox="0 0 24 24" fill="none" xmlns="http://www.w3.org/2000/svg">
<mask id="mask0_85_775" style="mask-type:alpha" maskUnits="userSpaceOnUse" x="2" y="2" width="20" height="20">
<path d="M21.25 12C21.25 17.1086 17.1086 21.25 12 21.25C6.89137 21.25 2.75 17.1086 2.75 12C2.75 6.89137 6.89137 2.75 12 2.75C17.1086 2.75 21.25 6.89137 21.25 12Z" fill="black"/>
</mask>
<g mask="url(#mask0_85_775)">
<g filter="url(#filter0_f_85_775)">
<path d="M12.5694 8.02778V7M12.5694 17.2778V18.3056M14.7951 9.56945C14.3508 8.95504 13.5205 8.54167 12.5694 8.54167H12.2839C11.0225 8.54167 10 9.35972 10 10.3688V10.4473C10 11.1691 10.5098 11.8289 11.3167 12.1517L13.8221 13.1539C14.6291 13.4767 15.1388 14.1365 15.1388 14.8583C15.1388 15.9107 14.0724 16.7639 12.7568 16.7639H12.5694C11.6183 16.7639 10.788 16.3505 10.3437 15.7361" stroke="url(#paint0_linear_85_775)" stroke-linecap="round" stroke-linejoin="round"/>
</g>
</g>
<path d="M21.25 12C21.25 17.1086 17.1086 21.25 12 21.25C6.89137 21.25 2.75 17.1086 2.75 12C2.75 6.89137 6.89137 2.75 12 2.75C17.1086 2.75 21.25 6.89137 21.25 12Z" fill="url(#paint1_linear_85_775)" stroke="url(#paint2_linear_85_775)" stroke-linecap="round" stroke-linejoin="round"/>
<path d="M12.0001 7.37501V6.34723M12.0001 16.625V17.6528M14.2258 8.91668C13.7815 8.30227 12.9512 7.8889 12.0001 7.8889H11.7146C10.4532 7.8889 9.43066 8.70695 9.43066 9.71606V9.7945C9.43066 10.5163 9.94041 11.1761 10.7474 11.4989L13.2528 12.5011C14.0598 12.8239 14.5695 13.4837 14.5695 14.2055C14.5695 15.2579 13.5031 16.1111 12.1875 16.1111H12.0001C11.049 16.1111 10.2187 15.6977 9.7744 15.0833" stroke="url(#paint3_linear_85_775)" stroke-linecap="round" stroke-linejoin="round"/>
<defs>
<filter id="filter0_f_85_775" x="9" y="6" width="7.13867" height="13.3056" filterUnits="userSpaceOnUse" color-interpolation-filters="sRGB">
<feFlood flood-opacity="0" result="BackgroundImageFix"/>
<feBlend mode="normal" in="SourceGraphic" in2="BackgroundImageFix" result="shape"/>
<feGaussianBlur stdDeviation="0.25" result="effect1_foregroundBlur_85_775"/>
</filter>
<linearGradient id="paint0_linear_85_775" x1="12.5694" y1="7" x2="12.5694" y2="18.3056" gradientUnits="userSpaceOnUse">
<stop stop-color="#575757"/>
<stop offset="1" stop-color="#151515"/>
</linearGradient>
<linearGradient id="paint1_linear_85_775" x1="12" y1="2.75" x2="12" y2="21.25" gradientUnits="userSpaceOnUse">
<stop stop-color="#E3E3E3" stop-opacity="0.6"/>
<stop offset="1" stop-color="#BBBBC0" stop-opacity="0.6"/>
</linearGradient>
<linearGradient id="paint2_linear_85_775" x1="12" y1="2.75" x2="12" y2="21.25" gradientUnits="userSpaceOnUse">
<stop stop-color="white"/>
<stop offset="1" stop-color="white" stop-opacity="0"/>
</linearGradient>
<linearGradient id="paint3_linear_85_775" x1="12.0001" y1="6.34723" x2="12.0001" y2="17.6528" gradientUnits="userSpaceOnUse">
<stop stop-color="#575757"/>
<stop offset="1" stop-color="#151515"/>
</linearGradient>
</defs>
</svg>
