<svg width="24" height="24" viewBox="0 0 24 24" fill="none" xmlns="http://www.w3.org/2000/svg">
<mask id="mask0_85_380" style="mask-type:alpha" maskUnits="userSpaceOnUse" x="5" y="2" width="15" height="20">
<path d="M14.9834 16.2227L17.4917 13.7402C18.6169 12.6266 19.25 11.1022 19.25 9.51911C19.25 5.79119 16.2279 2.75 12.5 2.75C8.77208 2.75 5.75 5.77208 5.75 9.5V17.3923C5.75 19.5229 7.47713 21.25 9.60765 21.25C11.0631 21.25 12.3946 20.4309 13.0509 19.1318L13.4704 18.3014C13.8594 17.5315 14.3703 16.8295 14.9834 16.2227Z" fill="black"/>
</mask>
<g mask="url(#mask0_85_380)">
<g filter="url(#filter0_f_85_380)">
<ellipse cx="16.5629" cy="13.1684" rx="0.968208" ry="6.76982" transform="rotate(33.7188 16.5629 13.1684)" fill="url(#paint0_linear_85_380)"/>
</g>
<g filter="url(#filter1_f_85_380)">
<path d="M15 9.8125C15 8.2592 13.8807 7 12.5 7C11.1192 7 10 8.4467 10 10C10 12.2304 11 13.1875 10 16" stroke="url(#paint1_linear_85_380)" stroke-linecap="round" stroke-linejoin="round"/>
</g>
</g>
<path d="M14.9834 16.2227L17.4917 13.7402C18.6169 12.6266 19.25 11.1022 19.25 9.51911C19.25 5.79119 16.2279 2.75 12.5 2.75C8.77208 2.75 5.75 5.77208 5.75 9.5V17.3923C5.75 19.5229 7.47713 21.25 9.60765 21.25C11.0631 21.25 12.3946 20.4309 13.0509 19.1318L13.4704 18.3014C13.8594 17.5315 14.3703 16.8295 14.9834 16.2227Z" fill="url(#paint2_linear_85_380)" stroke="url(#paint3_linear_85_380)" stroke-width="1.5" stroke-linecap="round" stroke-linejoin="round"/>
<path d="M15.5 9.3125C15.5 7.7592 14.1569 6.5 12.5 6.5C10.8431 6.5 9.5 7.9467 9.5 9.5C9.5 11.7304 10.7 12.6875 9.5 15.5" stroke="url(#paint4_linear_85_380)" stroke-linecap="round" stroke-linejoin="round"/>
<defs>
<filter id="filter0_f_85_380" x="6.71875" y="1.51147" width="19.6885" height="23.3139" filterUnits="userSpaceOnUse" color-interpolation-filters="sRGB">
<feFlood flood-opacity="0" result="BackgroundImageFix"/>
<feBlend mode="normal" in="SourceGraphic" in2="BackgroundImageFix" result="shape"/>
<feGaussianBlur stdDeviation="3" result="effect1_foregroundBlur_85_380"/>
</filter>
<filter id="filter1_f_85_380" x="9" y="6" width="7" height="11.0001" filterUnits="userSpaceOnUse" color-interpolation-filters="sRGB">
<feFlood flood-opacity="0" result="BackgroundImageFix"/>
<feBlend mode="normal" in="SourceGraphic" in2="BackgroundImageFix" result="shape"/>
<feGaussianBlur stdDeviation="0.25" result="effect1_foregroundBlur_85_380"/>
</filter>
<linearGradient id="paint0_linear_85_380" x1="16.5629" y1="6.3986" x2="16.5629" y2="19.9382" gradientUnits="userSpaceOnUse">
<stop stop-color="#575757"/>
<stop offset="1" stop-color="#151515"/>
</linearGradient>
<linearGradient id="paint1_linear_85_380" x1="12.5" y1="7" x2="12.5" y2="16" gradientUnits="userSpaceOnUse">
<stop stop-color="#575757"/>
<stop offset="1" stop-color="#151515"/>
</linearGradient>
<linearGradient id="paint2_linear_85_380" x1="12.5" y1="2.75" x2="12.5" y2="21.25" gradientUnits="userSpaceOnUse">
<stop stop-color="#E3E3E3" stop-opacity="0.6"/>
<stop offset="1" stop-color="#BBBBC0" stop-opacity="0.6"/>
</linearGradient>
<linearGradient id="paint3_linear_85_380" x1="12.5" y1="2.75" x2="12.5" y2="21.25" gradientUnits="userSpaceOnUse">
<stop stop-color="white"/>
<stop offset="1" stop-color="white" stop-opacity="0"/>
</linearGradient>
<linearGradient id="paint4_linear_85_380" x1="12.5" y1="6.5" x2="12.5" y2="15.5" gradientUnits="userSpaceOnUse">
<stop stop-color="#575757"/>
<stop offset="1" stop-color="#151515"/>
</linearGradient>
</defs>
</svg>
