<svg width="24" height="24" viewBox="0 0 24 24" fill="none" xmlns="http://www.w3.org/2000/svg">
<mask id="mask0_85_137" style="mask-type:alpha" maskUnits="userSpaceOnUse" x="3" y="5" width="18" height="14">
<path d="M3 6.5V8V17C3 18 3 19 4.5 19H19C20 19 21 19 21 17V8V6.5C21 5.5 20 5 19 5H4.5C3.5 5 3 5.5 3 6.5Z" fill="black"/>
</mask>
<g mask="url(#mask0_85_137)">
<g filter="url(#filter0_f_85_137)">
<path d="M3 7.5V9L11 13C12 13.5 12.5 13.5 13.5 13C14.3 12.6 18.8333 10.1667 21 9V7.5C21 6.5 20 6 19 6H4.5C3.5 6 3 6.5 3 7.5Z" fill="url(#paint0_linear_85_137)"/>
</g>
<g filter="url(#filter1_f_85_137)">
<ellipse cx="18.0617" cy="16.1707" rx="0.968208" ry="3.4408" transform="rotate(43.2115 18.0617 16.1707)" fill="url(#paint1_linear_85_137)"/>
</g>
</g>
<path d="M3 6.5V8V17C3 18 3 19 4.5 19H19C20 19 21 19 21 17V8V6.5C21 5.5 20 5 19 5H4.5C3.5 5 3 5.5 3 6.5Z" fill="url(#paint2_linear_85_137)" stroke="url(#paint3_linear_85_137)" stroke-linecap="round"/>
<path d="M3 6.5V8L11 12C12 12.5 12.5 12.5 13.5 12C14.3 11.6 18.8333 9.16667 21 8V6.5C21 5.5 20 5 19 5H4.5C3.5 5 3 5.5 3 6.5Z" fill="url(#paint4_linear_85_137)"/>
<defs>
<filter id="filter0_f_85_137" x="2.5" y="5.5" width="19" height="8.375" filterUnits="userSpaceOnUse" color-interpolation-filters="sRGB">
<feFlood flood-opacity="0" result="BackgroundImageFix"/>
<feBlend mode="normal" in="SourceGraphic" in2="BackgroundImageFix" result="shape"/>
<feGaussianBlur stdDeviation="0.25" result="effect1_foregroundBlur_85_137"/>
</filter>
<filter id="filter1_f_85_137" x="9.60156" y="7.57614" width="16.9199" height="17.1891" filterUnits="userSpaceOnUse" color-interpolation-filters="sRGB">
<feFlood flood-opacity="0" result="BackgroundImageFix"/>
<feBlend mode="normal" in="SourceGraphic" in2="BackgroundImageFix" result="shape"/>
<feGaussianBlur stdDeviation="3" result="effect1_foregroundBlur_85_137"/>
</filter>
<linearGradient id="paint0_linear_85_137" x1="12" y1="6" x2="12" y2="13.375" gradientUnits="userSpaceOnUse">
<stop stop-color="#575757"/>
<stop offset="1" stop-color="#151515"/>
</linearGradient>
<linearGradient id="paint1_linear_85_137" x1="18.0617" y1="12.7299" x2="18.0617" y2="19.6115" gradientUnits="userSpaceOnUse">
<stop stop-color="#575757"/>
<stop offset="1" stop-color="#151515"/>
</linearGradient>
<linearGradient id="paint2_linear_85_137" x1="12" y1="5" x2="12" y2="19" gradientUnits="userSpaceOnUse">
<stop stop-color="#E3E3E3" stop-opacity="0.6"/>
<stop offset="1" stop-color="#BBBBC0" stop-opacity="0.6"/>
</linearGradient>
<linearGradient id="paint3_linear_85_137" x1="12" y1="5" x2="12" y2="19" gradientUnits="userSpaceOnUse">
<stop stop-color="white"/>
<stop offset="1" stop-color="white" stop-opacity="0"/>
</linearGradient>
<linearGradient id="paint4_linear_85_137" x1="12" y1="5" x2="12" y2="12.375" gradientUnits="userSpaceOnUse">
<stop stop-color="#575757"/>
<stop offset="1" stop-color="#151515"/>
</linearGradient>
</defs>
</svg>
