<svg width="24" height="24" viewBox="0 0 24 24" fill="none" xmlns="http://www.w3.org/2000/svg">
<g filter="url(#filter0_f_85_1300)">
<path d="M7.98649 4.75C5.4592 6.1636 3.75 8.87092 3.75 11.9784C3.75 16.5468 7.44365 20.25 12 20.25C16.5563 20.25 20.25 16.5468 20.25 11.9784C20.25 8.89223 18.5641 6.20077 16.0654 4.77928" stroke="url(#paint0_linear_85_1300)" stroke-linecap="round" stroke-linejoin="round"/>
</g>
<path d="M7.5 3.9165C4.66638 5.49732 2.75 8.52488 2.75 12C2.75 17.1087 6.89137 21.25 12 21.25C17.1086 21.25 21.25 17.1087 21.25 12C21.25 8.54872 19.3598 5.53888 16.5582 3.94924" fill="url(#paint1_linear_85_1300)"/>
<path d="M7.5 3.9165C4.66638 5.49732 2.75 8.52488 2.75 12C2.75 17.1087 6.89137 21.25 12 21.25C17.1086 21.25 21.25 17.1087 21.25 12C21.25 8.54872 19.3598 5.53888 16.5582 3.94924" stroke="url(#paint2_linear_85_1300)" stroke-linecap="round" stroke-linejoin="round"/>
<path d="M12 1.75V5.75" stroke="url(#paint3_linear_85_1300)" stroke-width="1.5" stroke-linecap="round" stroke-linejoin="round"/>
<g filter="url(#filter1_f_85_1300)">
<path d="M11 6.59091V4.40909C11 4.18316 11.4477 4 12 4C12.5523 4 13 4.18316 13 4.40909V6.59091C13 6.81684 12.5523 7 12 7C11.4477 7 11 6.81684 11 6.59091Z" fill="url(#paint4_linear_85_1300)"/>
</g>
<defs>
<filter id="filter0_f_85_1300" x="0.25" y="1.24991" width="23.5" height="22.5001" filterUnits="userSpaceOnUse" color-interpolation-filters="sRGB">
<feFlood flood-opacity="0" result="BackgroundImageFix"/>
<feBlend mode="normal" in="SourceGraphic" in2="BackgroundImageFix" result="shape"/>
<feGaussianBlur stdDeviation="1.5" result="effect1_foregroundBlur_85_1300"/>
</filter>
<filter id="filter1_f_85_1300" x="8" y="1" width="8" height="9" filterUnits="userSpaceOnUse" color-interpolation-filters="sRGB">
<feFlood flood-opacity="0" result="BackgroundImageFix"/>
<feBlend mode="normal" in="SourceGraphic" in2="BackgroundImageFix" result="shape"/>
<feGaussianBlur stdDeviation="1.5" result="effect1_foregroundBlur_85_1300"/>
</filter>
<linearGradient id="paint0_linear_85_1300" x1="12" y1="4.75" x2="12" y2="20.25" gradientUnits="userSpaceOnUse">
<stop stop-color="#575757"/>
<stop offset="1" stop-color="#151515"/>
</linearGradient>
<linearGradient id="paint1_linear_85_1300" x1="12" y1="3.9165" x2="12" y2="21.25" gradientUnits="userSpaceOnUse">
<stop stop-color="#E3E3E5" stop-opacity="0.6"/>
<stop offset="1" stop-color="#BBBBC0" stop-opacity="0.6"/>
</linearGradient>
<linearGradient id="paint2_linear_85_1300" x1="12" y1="3.9165" x2="12" y2="21.25" gradientUnits="userSpaceOnUse">
<stop stop-color="#575757"/>
<stop offset="1" stop-color="#151515"/>
</linearGradient>
<linearGradient id="paint3_linear_85_1300" x1="12.5" y1="1.75" x2="12.5" y2="5.75" gradientUnits="userSpaceOnUse">
<stop stop-color="#575757"/>
<stop offset="1" stop-color="#151515"/>
</linearGradient>
<linearGradient id="paint4_linear_85_1300" x1="12.6667" y1="4.40909" x2="12.6667" y2="6.59091" gradientUnits="userSpaceOnUse">
<stop stop-color="#575757"/>
<stop offset="1" stop-color="#151515"/>
</linearGradient>
</defs>
</svg>
