<svg width="24" height="24" viewBox="0 0 24 24" fill="none" xmlns="http://www.w3.org/2000/svg">
<mask id="mask0_85_690" style="mask-type:alpha" maskUnits="userSpaceOnUse" x="2" y="2" width="20" height="20">
<path d="M21.25 12C21.25 17.1086 17.1086 21.25 12 21.25C6.89137 21.25 2.75 17.1086 2.75 12C2.75 6.89137 6.89137 2.75 12 2.75C17.1086 2.75 21.25 6.89137 21.25 12Z" fill="black"/>
</mask>
<g mask="url(#mask0_85_690)">
<g filter="url(#filter0_f_85_690)">
<path d="M8 12.75H11M14.5521 9.75C13.9636 8.97784 13.1495 8.5 12.25 8.5C10.4551 8.5 9 10.4028 9 12.75C9 15.0972 10.4551 17 12.25 17C13.1495 17 13.9636 16.5222 14.5521 15.75" stroke="url(#paint0_linear_85_690)" stroke-linecap="round" stroke-linejoin="round"/>
</g>
</g>
<path d="M21.25 12C21.25 17.1086 17.1086 21.25 12 21.25C6.89137 21.25 2.75 17.1086 2.75 12C2.75 6.89137 6.89137 2.75 12 2.75C17.1086 2.75 21.25 6.89137 21.25 12Z" fill="url(#paint1_linear_85_690)" stroke="url(#paint2_linear_85_690)" stroke-linecap="round" stroke-linejoin="round"/>
<path d="M7.75 12H10.75M14.3021 9C13.7136 8.22784 12.8995 7.75 12 7.75C10.2051 7.75 8.75 9.65279 8.75 12C8.75 14.3472 10.2051 16.25 12 16.25C12.8995 16.25 13.7136 15.7722 14.3021 15" stroke="url(#paint3_linear_85_690)" stroke-linecap="round" stroke-linejoin="round"/>
<defs>
<filter id="filter0_f_85_690" x="7" y="7.5" width="8.55176" height="10.5" filterUnits="userSpaceOnUse" color-interpolation-filters="sRGB">
<feFlood flood-opacity="0" result="BackgroundImageFix"/>
<feBlend mode="normal" in="SourceGraphic" in2="BackgroundImageFix" result="shape"/>
<feGaussianBlur stdDeviation="0.25" result="effect1_foregroundBlur_85_690"/>
</filter>
<linearGradient id="paint0_linear_85_690" x1="11.2761" y1="8.5" x2="11.2761" y2="17" gradientUnits="userSpaceOnUse">
<stop stop-color="#575757"/>
<stop offset="1" stop-color="#151515"/>
</linearGradient>
<linearGradient id="paint1_linear_85_690" x1="12" y1="2.75" x2="12" y2="21.25" gradientUnits="userSpaceOnUse">
<stop stop-color="#E3E3E3" stop-opacity="0.6"/>
<stop offset="1" stop-color="#BBBBC0" stop-opacity="0.6"/>
</linearGradient>
<linearGradient id="paint2_linear_85_690" x1="12" y1="2.75" x2="12" y2="21.25" gradientUnits="userSpaceOnUse">
<stop stop-color="white"/>
<stop offset="1" stop-color="white" stop-opacity="0"/>
</linearGradient>
<linearGradient id="paint3_linear_85_690" x1="11.0261" y1="7.75" x2="11.0261" y2="16.25" gradientUnits="userSpaceOnUse">
<stop stop-color="#575757"/>
<stop offset="1" stop-color="#151515"/>
</linearGradient>
</defs>
</svg>
