<svg width="24" height="24" viewBox="0 0 24 24" fill="none" xmlns="http://www.w3.org/2000/svg">
<g filter="url(#filter0_f_85_1462)">
<path d="M16 12.5C16 14.433 14.433 16 12.5 16C10.567 16 9 14.433 9 12.5C9 10.567 10.567 9 12.5 9C14.433 9 16 10.567 16 12.5Z" fill="url(#paint0_linear_85_1462)"/>
</g>
<path d="M21.5293 11.1188C16.6904 2.62714 7.30868 2.62704 2.46983 11.1187C2.15849 11.665 2.15849 12.3348 2.46983 12.8811C7.30868 21.3728 16.6904 21.3729 21.5293 12.8812C21.8406 12.3349 21.8406 11.6652 21.5293 11.1188Z" fill="url(#paint1_linear_85_1462)" stroke="url(#paint2_linear_85_1462)" stroke-linecap="round" stroke-linejoin="round"/>
<path d="M15.25 12C15.25 13.7949 13.7949 15.25 12 15.25C10.2051 15.25 8.75 13.7949 8.75 12C8.75 10.2051 10.2051 8.75 12 8.75C13.7949 8.75 15.25 10.2051 15.25 12Z" fill="url(#paint3_linear_85_1462)" stroke="url(#paint4_linear_85_1462)" stroke-linecap="round" stroke-linejoin="round"/>
<defs>
<filter id="filter0_f_85_1462" x="7.5" y="7.5" width="10" height="10" filterUnits="userSpaceOnUse" color-interpolation-filters="sRGB">
<feFlood flood-opacity="0" result="BackgroundImageFix"/>
<feBlend mode="normal" in="SourceGraphic" in2="BackgroundImageFix" result="shape"/>
<feGaussianBlur stdDeviation="0.75" result="effect1_foregroundBlur_85_1462"/>
</filter>
<linearGradient id="paint0_linear_85_1462" x1="12.5" y1="9" x2="12.5" y2="16" gradientUnits="userSpaceOnUse">
<stop stop-color="#575757"/>
<stop offset="1" stop-color="#151515"/>
</linearGradient>
<linearGradient id="paint1_linear_85_1462" x1="11.9996" y1="4.75" x2="11.9996" y2="19.2499" gradientUnits="userSpaceOnUse">
<stop stop-color="#E3E3E3" stop-opacity="0.6"/>
<stop offset="1" stop-color="#BBBBC0" stop-opacity="0.6"/>
</linearGradient>
<linearGradient id="paint2_linear_85_1462" x1="11.9996" y1="4.75" x2="11.9996" y2="19.2499" gradientUnits="userSpaceOnUse">
<stop stop-color="white"/>
<stop offset="1" stop-color="white" stop-opacity="0"/>
</linearGradient>
<linearGradient id="paint3_linear_85_1462" x1="12" y1="8.75" x2="12" y2="15.25" gradientUnits="userSpaceOnUse">
<stop stop-color="#575757"/>
<stop offset="1" stop-color="#151515"/>
</linearGradient>
<linearGradient id="paint4_linear_85_1462" x1="12" y1="8.75" x2="12" y2="15.25" gradientUnits="userSpaceOnUse">
<stop stop-color="#575757"/>
<stop offset="1" stop-color="#151515"/>
</linearGradient>
</defs>
</svg>
