<svg width="24" height="24" viewBox="0 0 24 24" fill="none" xmlns="http://www.w3.org/2000/svg">
<mask id="mask0_150_137" style="mask-type:alpha" maskUnits="userSpaceOnUse" x="4" y="2" width="16" height="20">
<path d="M8.75 21.25H6.75C5.64543 21.25 4.75 20.3546 4.75 19.25V4.75C4.75 3.64543 5.64543 2.75 6.75 2.75H11.9216C12.452 2.75 12.9607 2.96071 13.3358 3.33579L18.6642 8.66421C19.0393 9.03929 19.25 9.54799 19.25 10.0784V19.25C19.25 20.3546 18.3546 21.25 17.25 21.25H15.25" fill="black"/>
</mask>
<g mask="url(#mask0_150_137)">
<g filter="url(#filter0_f_150_137)">
<path d="M13 4V8C13 9.10457 13.8954 10 15 10H19" fill="url(#paint0_linear_150_137)"/>
</g>
<g filter="url(#filter1_f_150_137)">
<path d="M12.5 14V20.25M12.5 20.25L15 17.75M12.5 20.25L10 17.75" stroke="url(#paint1_linear_150_137)" stroke-width="1.5" stroke-linecap="round" stroke-linejoin="round"/>
</g>
</g>
<path d="M8.75 21.25H6.75C5.64543 21.25 4.75 20.3546 4.75 19.25V4.75C4.75 3.64543 5.64543 2.75 6.75 2.75H11.9216C12.452 2.75 12.9607 2.96071 13.3358 3.33579L18.6642 8.66421C19.0393 9.03929 19.25 9.54799 19.25 10.0784V19.25C19.25 20.3546 18.3546 21.25 17.25 21.25H15.25" fill="url(#paint2_linear_150_137)"/>
<path d="M8.75 21.25H6.75C5.64543 21.25 4.75 20.3546 4.75 19.25V4.75C4.75 3.64543 5.64543 2.75 6.75 2.75H11.9216C12.452 2.75 12.9607 2.96071 13.3358 3.33579L18.6642 8.66421C19.0393 9.03929 19.25 9.54799 19.25 10.0784V19.25C19.25 20.3546 18.3546 21.25 17.25 21.25H15.25" stroke="url(#paint3_linear_150_137)" stroke-width="1.5" stroke-linecap="round" stroke-linejoin="round"/>
<path d="M12.75 3.25V7.25C12.75 8.35457 13.6454 9.25 14.75 9.25H18.75" fill="url(#paint4_linear_150_137)"/>
<path d="M12 13.75V20M12 20L14.5 17.5M12 20L9.5 17.5" stroke="url(#paint5_linear_150_137)" stroke-width="1.5" stroke-linecap="round" stroke-linejoin="round"/>
<defs>
<filter id="filter0_f_150_137" x="12.5" y="3.5" width="7" height="7" filterUnits="userSpaceOnUse" color-interpolation-filters="sRGB">
<feFlood flood-opacity="0" result="BackgroundImageFix"/>
<feBlend mode="normal" in="SourceGraphic" in2="BackgroundImageFix" result="shape"/>
<feGaussianBlur stdDeviation="0.25" result="effect1_foregroundBlur_150_137"/>
</filter>
<filter id="filter1_f_150_137" x="8.75" y="12.75" width="7.5" height="8.75" filterUnits="userSpaceOnUse" color-interpolation-filters="sRGB">
<feFlood flood-opacity="0" result="BackgroundImageFix"/>
<feBlend mode="normal" in="SourceGraphic" in2="BackgroundImageFix" result="shape"/>
<feGaussianBlur stdDeviation="0.25" result="effect1_foregroundBlur_150_137"/>
</filter>
<linearGradient id="paint0_linear_150_137" x1="16" y1="4" x2="16" y2="10" gradientUnits="userSpaceOnUse">
<stop stop-color="#575757"/>
<stop offset="1" stop-color="#151515"/>
</linearGradient>
<linearGradient id="paint1_linear_150_137" x1="12.5" y1="14" x2="12.5" y2="20.25" gradientUnits="userSpaceOnUse">
<stop stop-color="#575757"/>
<stop offset="1" stop-color="#151515"/>
</linearGradient>
<linearGradient id="paint2_linear_150_137" x1="12" y1="2.75" x2="12" y2="21.25" gradientUnits="userSpaceOnUse">
<stop stop-color="#E3E3E3" stop-opacity="0.6"/>
<stop offset="1" stop-color="#BBBBC0" stop-opacity="0.6"/>
</linearGradient>
<linearGradient id="paint3_linear_150_137" x1="12" y1="2.75" x2="12" y2="21.25" gradientUnits="userSpaceOnUse">
<stop stop-color="white"/>
<stop offset="1" stop-color="white" stop-opacity="0"/>
</linearGradient>
<linearGradient id="paint4_linear_150_137" x1="15.75" y1="3.25" x2="15.75" y2="9.25" gradientUnits="userSpaceOnUse">
<stop stop-color="#575757"/>
<stop offset="1" stop-color="#151515"/>
</linearGradient>
<linearGradient id="paint5_linear_150_137" x1="12" y1="13.75" x2="12" y2="20" gradientUnits="userSpaceOnUse">
<stop stop-color="#575757"/>
<stop offset="1" stop-color="#151515"/>
</linearGradient>
</defs>
</svg>
