<svg width="24" height="24" viewBox="0 0 24 24" fill="none" xmlns="http://www.w3.org/2000/svg">
<mask id="mask0_85_32" style="mask-type:alpha" maskUnits="userSpaceOnUse" x="4" y="2" width="16" height="20">
<path d="M11.9216 2.75H6.75C5.64543 2.75 4.75 3.64543 4.75 4.75V19.25C4.75 20.3546 5.64543 21.25 6.75 21.25H17.25C18.3546 21.25 19.25 20.3546 19.25 19.25V10.0784C19.25 9.54799 19.0393 9.03929 18.6642 8.66421L13.3358 3.33579C12.9607 2.96071 12.452 2.75 11.9216 2.75Z" fill="black"/>
</mask>
<g mask="url(#mask0_85_32)">
<g filter="url(#filter0_f_85_32)">
<path d="M12 3V7.66667C12 8.95533 13.0446 10 14.3333 10H19" fill="url(#paint0_linear_85_32)"/>
<path d="M12 3V7.66667C12 8.95533 13.0446 10 14.3333 10H19L12 3Z" stroke="url(#paint1_linear_85_32)" stroke-width="1.5" stroke-linejoin="round"/>
</g>
</g>
<path d="M11.9216 2.75H6.75C5.64543 2.75 4.75 3.64543 4.75 4.75V19.25C4.75 20.3546 5.64543 21.25 6.75 21.25H17.25C18.3546 21.25 19.25 20.3546 19.25 19.25V10.0784C19.25 9.54799 19.0393 9.03929 18.6642 8.66421L13.3358 3.33579C12.9607 2.96071 12.452 2.75 11.9216 2.75Z" fill="url(#paint2_linear_85_32)" stroke="url(#paint3_linear_85_32)" stroke-linecap="round" stroke-linejoin="round"/>
<path d="M12.75 3.25V7.25C12.75 8.35457 13.6454 9.25 14.75 9.25H18.75" fill="url(#paint4_linear_85_32)"/>
<path d="M12.75 3.25V7.25C12.75 8.35457 13.6454 9.25 14.75 9.25H18.75L12.75 3.25Z" stroke="url(#paint5_linear_85_32)" stroke-width="1.5" stroke-linejoin="round"/>
<defs>
<filter id="filter0_f_85_32" x="10.75" y="1.74997" width="9.5" height="9.50003" filterUnits="userSpaceOnUse" color-interpolation-filters="sRGB">
<feFlood flood-opacity="0" result="BackgroundImageFix"/>
<feBlend mode="normal" in="SourceGraphic" in2="BackgroundImageFix" result="shape"/>
<feGaussianBlur stdDeviation="0.25" result="effect1_foregroundBlur_85_32"/>
</filter>
<linearGradient id="paint0_linear_85_32" x1="15.5" y1="3" x2="15.5" y2="10" gradientUnits="userSpaceOnUse">
<stop stop-color="#575757"/>
<stop offset="1" stop-color="#151515"/>
</linearGradient>
<linearGradient id="paint1_linear_85_32" x1="15.5" y1="3" x2="15.5" y2="10" gradientUnits="userSpaceOnUse">
<stop stop-color="#575757"/>
<stop offset="1" stop-color="#151515"/>
</linearGradient>
<linearGradient id="paint2_linear_85_32" x1="12" y1="2.75" x2="12" y2="21.25" gradientUnits="userSpaceOnUse">
<stop stop-color="#E3E3E3" stop-opacity="0.6"/>
<stop offset="1" stop-color="#BBBBC0" stop-opacity="0.6"/>
</linearGradient>
<linearGradient id="paint3_linear_85_32" x1="12" y1="2.75" x2="12" y2="21.25" gradientUnits="userSpaceOnUse">
<stop stop-color="white"/>
<stop offset="1" stop-color="white" stop-opacity="0"/>
</linearGradient>
<linearGradient id="paint4_linear_85_32" x1="15.75" y1="3.25" x2="15.75" y2="9.25" gradientUnits="userSpaceOnUse">
<stop stop-color="#575757"/>
<stop offset="1" stop-color="#151515"/>
</linearGradient>
<linearGradient id="paint5_linear_85_32" x1="15.75" y1="3.25" x2="15.75" y2="9.25" gradientUnits="userSpaceOnUse">
<stop stop-color="#575757"/>
<stop offset="1" stop-color="#151515"/>
</linearGradient>
</defs>
</svg>
