<svg width="24" height="24" viewBox="0 0 24 24" fill="none" xmlns="http://www.w3.org/2000/svg">
<mask id="mask0_130_112" style="mask-type:alpha" maskUnits="userSpaceOnUse" x="4" y="2" width="16" height="20">
<path d="M11.9216 2.75H6.75C5.64543 2.75 4.75 3.64543 4.75 4.75V19.25C4.75 20.3546 5.64543 21.25 6.75 21.25H17.25C18.3546 21.25 19.25 20.3546 19.25 19.25V10.0784C19.25 9.54799 19.0393 9.03929 18.6642 8.66421L13.3358 3.33579C12.9607 2.96071 12.452 2.75 11.9216 2.75Z" fill="black"/>
</mask>
<g mask="url(#mask0_130_112)">
<g filter="url(#filter0_f_130_112)">
<path d="M12 3V7.66667C12 8.95533 13.0446 10 14.3333 10H19" fill="url(#paint0_linear_130_112)"/>
<path d="M12 3V7.66667C12 8.95533 13.0446 10 14.3333 10H19L12 3Z" stroke="url(#paint1_linear_130_112)" stroke-width="1.5" stroke-linejoin="round"/>
</g>
<g filter="url(#filter1_f_130_112)">
<path d="M5 18C5 17.4477 5.44772 17 6 17H10.5C11.0523 17 11.5 17.4477 11.5 18V20.5C11.5 21.0523 11.0523 21.5 10.5 21.5H6C5.44772 21.5 5 21.0523 5 20.5V18Z" fill="url(#paint2_linear_130_112)"/>
<path d="M5 18C5 17.4477 5.44772 17 6 17H10.5C11.0523 17 11.5 17.4477 11.5 18V20.5C11.5 21.0523 11.0523 21.5 10.5 21.5H6C5.44772 21.5 5 21.0523 5 20.5V18Z" stroke="url(#paint3_linear_130_112)" stroke-width="1.5" stroke-linecap="square"/>
</g>
<g filter="url(#filter2_f_130_112)">
<path d="M6 16.25C6 15.0074 7.00736 14 8.25 14C9.49264 14 10.5 15.0074 10.5 16.25C10.5 16.6642 10.1642 17 9.75 17H6.75C6.33579 17 6 16.6642 6 16.25Z" stroke="url(#paint4_linear_130_112)" stroke-width="1.5" stroke-linecap="square"/>
</g>
</g>
<path d="M11.9216 2.75H6.75C5.64543 2.75 4.75 3.64543 4.75 4.75V19.25C4.75 20.3546 5.64543 21.25 6.75 21.25H17.25C18.3546 21.25 19.25 20.3546 19.25 19.25V10.0784C19.25 9.54799 19.0393 9.03929 18.6642 8.66421L13.3358 3.33579C12.9607 2.96071 12.452 2.75 11.9216 2.75Z" fill="url(#paint5_linear_130_112)" stroke="url(#paint6_linear_130_112)" stroke-linecap="round" stroke-linejoin="round"/>
<path d="M3.75 17.75C3.75 17.1977 4.19772 16.75 4.75 16.75H9.25C9.80228 16.75 10.25 17.1977 10.25 17.75V20.25C10.25 20.8023 9.80228 21.25 9.25 21.25H4.75C4.19772 21.25 3.75 20.8023 3.75 20.25V17.75Z" fill="url(#paint7_linear_130_112)" stroke="url(#paint8_linear_130_112)" stroke-width="1.5" stroke-linecap="square"/>
<path d="M4.75 16C4.75 14.7574 5.75736 13.75 7 13.75C8.24264 13.75 9.25 14.7574 9.25 16C9.25 16.4142 8.91421 16.75 8.5 16.75H5.5C5.08579 16.75 4.75 16.4142 4.75 16Z" stroke="url(#paint9_linear_130_112)" stroke-width="1.5" stroke-linecap="square"/>
<path d="M12.75 3.25V7.25C12.75 8.35457 13.6454 9.25 14.75 9.25H18.75" fill="url(#paint10_linear_130_112)"/>
<path d="M12.75 3.25V7.25C12.75 8.35457 13.6454 9.25 14.75 9.25H18.75L12.75 3.25Z" stroke="url(#paint11_linear_130_112)" stroke-width="1.5" stroke-linejoin="round"/>
<defs>
<filter id="filter0_f_130_112" x="10.75" y="1.74997" width="9.5" height="9.50003" filterUnits="userSpaceOnUse" color-interpolation-filters="sRGB">
<feFlood flood-opacity="0" result="BackgroundImageFix"/>
<feBlend mode="normal" in="SourceGraphic" in2="BackgroundImageFix" result="shape"/>
<feGaussianBlur stdDeviation="0.25" result="effect1_foregroundBlur_130_112"/>
</filter>
<filter id="filter1_f_130_112" x="3.25" y="15.25" width="10" height="8" filterUnits="userSpaceOnUse" color-interpolation-filters="sRGB">
<feFlood flood-opacity="0" result="BackgroundImageFix"/>
<feBlend mode="normal" in="SourceGraphic" in2="BackgroundImageFix" result="shape"/>
<feGaussianBlur stdDeviation="0.5" result="effect1_foregroundBlur_130_112"/>
</filter>
<filter id="filter2_f_130_112" x="4.25" y="12.25" width="8" height="6.5" filterUnits="userSpaceOnUse" color-interpolation-filters="sRGB">
<feFlood flood-opacity="0" result="BackgroundImageFix"/>
<feBlend mode="normal" in="SourceGraphic" in2="BackgroundImageFix" result="shape"/>
<feGaussianBlur stdDeviation="0.5" result="effect1_foregroundBlur_130_112"/>
</filter>
<linearGradient id="paint0_linear_130_112" x1="15.5" y1="3" x2="15.5" y2="10" gradientUnits="userSpaceOnUse">
<stop stop-color="#575757"/>
<stop offset="1" stop-color="#151515"/>
</linearGradient>
<linearGradient id="paint1_linear_130_112" x1="15.5" y1="3" x2="15.5" y2="10" gradientUnits="userSpaceOnUse">
<stop stop-color="#575757"/>
<stop offset="1" stop-color="#151515"/>
</linearGradient>
<linearGradient id="paint2_linear_130_112" x1="8.25" y1="17" x2="8.25" y2="21.5" gradientUnits="userSpaceOnUse">
<stop stop-color="#575757"/>
<stop offset="1" stop-color="#151515"/>
</linearGradient>
<linearGradient id="paint3_linear_130_112" x1="8.25" y1="17" x2="8.25" y2="21.5" gradientUnits="userSpaceOnUse">
<stop stop-color="#575757"/>
<stop offset="1" stop-color="#151515"/>
</linearGradient>
<linearGradient id="paint4_linear_130_112" x1="8.25" y1="14" x2="8.25" y2="17" gradientUnits="userSpaceOnUse">
<stop stop-color="#575757"/>
<stop offset="1" stop-color="#151515"/>
</linearGradient>
<linearGradient id="paint5_linear_130_112" x1="12" y1="2.75" x2="12" y2="21.25" gradientUnits="userSpaceOnUse">
<stop stop-color="#E3E3E3" stop-opacity="0.6"/>
<stop offset="1" stop-color="#BBBBC0" stop-opacity="0.6"/>
</linearGradient>
<linearGradient id="paint6_linear_130_112" x1="12" y1="2.75" x2="12" y2="21.25" gradientUnits="userSpaceOnUse">
<stop stop-color="white"/>
<stop offset="1" stop-color="white" stop-opacity="0"/>
</linearGradient>
<linearGradient id="paint7_linear_130_112" x1="7" y1="16.75" x2="7" y2="21.25" gradientUnits="userSpaceOnUse">
<stop stop-color="#575757"/>
<stop offset="1" stop-color="#151515"/>
</linearGradient>
<linearGradient id="paint8_linear_130_112" x1="7" y1="16.75" x2="7" y2="21.25" gradientUnits="userSpaceOnUse">
<stop stop-color="#575757"/>
<stop offset="1" stop-color="#151515"/>
</linearGradient>
<linearGradient id="paint9_linear_130_112" x1="7" y1="13.75" x2="7" y2="16.75" gradientUnits="userSpaceOnUse">
<stop stop-color="#575757"/>
<stop offset="1" stop-color="#151515"/>
</linearGradient>
<linearGradient id="paint10_linear_130_112" x1="15.75" y1="3.25" x2="15.75" y2="9.25" gradientUnits="userSpaceOnUse">
<stop stop-color="#575757"/>
<stop offset="1" stop-color="#151515"/>
</linearGradient>
<linearGradient id="paint11_linear_130_112" x1="15.75" y1="3.25" x2="15.75" y2="9.25" gradientUnits="userSpaceOnUse">
<stop stop-color="#575757"/>
<stop offset="1" stop-color="#151515"/>
</linearGradient>
</defs>
</svg>
