<svg width="24" height="24" viewBox="0 0 24 24" fill="none" xmlns="http://www.w3.org/2000/svg">
<mask id="mask0_151_180" style="mask-type:alpha" maskUnits="userSpaceOnUse" x="4" y="2" width="16" height="20">
<path d="M11.9216 2.75H6.75C5.64543 2.75 4.75 3.64543 4.75 4.75V19.25C4.75 20.3546 5.64543 21.25 6.75 21.25H17.25C18.3546 21.25 19.25 20.3546 19.25 19.25V10.0784C19.25 9.54799 19.0393 9.03929 18.6642 8.66421L13.3358 3.33579C12.9607 2.96071 12.452 2.75 11.9216 2.75Z" fill="black"/>
</mask>
<g mask="url(#mask0_151_180)">
<g filter="url(#filter0_f_151_180)">
<path d="M8.24045 17.1852L7.54359 15.3733C7.45708 15.1484 7.24099 15 7 15C6.75901 15 6.54292 15.1484 6.45641 15.3733L5.75955 17.1852C5.65797 17.4493 5.44927 17.658 5.18518 17.7595L3.37334 18.4564C3.14842 18.5429 3 18.759 3 19C3 19.241 3.14842 19.4571 3.37334 19.5436L5.18518 20.2405C5.44927 20.342 5.65797 20.5507 5.75955 20.8148L6.45641 22.6267C6.54292 22.8516 6.75901 23 7 23C7.24099 23 7.45708 22.8516 7.54359 22.6267L8.24045 20.8148C8.34203 20.5507 8.55073 20.342 8.81482 20.2405L10.6267 19.5436C10.8516 19.4571 11 19.241 11 19C11 18.759 10.8516 18.5429 10.6267 18.4564L8.81482 17.7595C8.55073 17.658 8.34203 17.4493 8.24045 17.1852Z" fill="url(#paint0_linear_151_180)"/>
</g>
<g filter="url(#filter1_f_151_180)">
<path d="M13 4V8C13 9.10457 13.8954 10 15 10H19" fill="url(#paint1_linear_151_180)"/>
</g>
</g>
<path d="M11.9216 2.75H6.75C5.64543 2.75 4.75 3.64543 4.75 4.75V19.25C4.75 20.3546 5.64543 21.25 6.75 21.25H17.25C18.3546 21.25 19.25 20.3546 19.25 19.25V10.0784C19.25 9.54799 19.0393 9.03929 18.6642 8.66421L13.3358 3.33579C12.9607 2.96071 12.452 2.75 11.9216 2.75Z" fill="url(#paint2_linear_151_180)" stroke="url(#paint3_linear_151_180)" stroke-width="1.5" stroke-linecap="round"/>
<path d="M12.75 3.25V7.25C12.75 8.35457 13.6454 9.25 14.75 9.25H18.75" fill="url(#paint4_linear_151_180)"/>
<path d="M7.24045 16.1852L6.54359 14.3733C6.45708 14.1484 6.24099 14 6 14C5.75901 14 5.54292 14.1484 5.45641 14.3733L4.75955 16.1852C4.65797 16.4493 4.44927 16.658 4.18518 16.7595L2.37334 17.4564C2.14842 17.5429 2 17.759 2 18C2 18.241 2.14842 18.4571 2.37334 18.5436L4.18518 19.2405C4.44927 19.342 4.65797 19.5507 4.75955 19.8148L5.45641 21.6267C5.54292 21.8516 5.75901 22 6 22C6.24099 22 6.45708 21.8516 6.54359 21.6267L7.24045 19.8148C7.34203 19.5507 7.55073 19.342 7.81482 19.2405L9.62666 18.5436C9.85158 18.4571 10 18.241 10 18C10 17.759 9.85158 17.5429 9.62666 17.4564L7.81482 16.7595C7.55073 16.658 7.34203 16.4493 7.24045 16.1852Z" fill="url(#paint5_linear_151_180)"/>
<defs>
<filter id="filter0_f_151_180" x="2.5" y="14.5" width="9" height="9" filterUnits="userSpaceOnUse" color-interpolation-filters="sRGB">
<feFlood flood-opacity="0" result="BackgroundImageFix"/>
<feBlend mode="normal" in="SourceGraphic" in2="BackgroundImageFix" result="shape"/>
<feGaussianBlur stdDeviation="0.25" result="effect1_foregroundBlur_151_180"/>
</filter>
<filter id="filter1_f_151_180" x="12.5" y="3.5" width="7" height="7" filterUnits="userSpaceOnUse" color-interpolation-filters="sRGB">
<feFlood flood-opacity="0" result="BackgroundImageFix"/>
<feBlend mode="normal" in="SourceGraphic" in2="BackgroundImageFix" result="shape"/>
<feGaussianBlur stdDeviation="0.25" result="effect1_foregroundBlur_151_180"/>
</filter>
<linearGradient id="paint0_linear_151_180" x1="7" y1="15" x2="7" y2="23" gradientUnits="userSpaceOnUse">
<stop stop-color="#575757"/>
<stop offset="1" stop-color="#151515"/>
</linearGradient>
<linearGradient id="paint1_linear_151_180" x1="16" y1="4" x2="16" y2="10" gradientUnits="userSpaceOnUse">
<stop stop-color="#575757"/>
<stop offset="1" stop-color="#151515"/>
</linearGradient>
<linearGradient id="paint2_linear_151_180" x1="12" y1="2.75" x2="12" y2="21.25" gradientUnits="userSpaceOnUse">
<stop stop-color="#E3E3E3" stop-opacity="0.6"/>
<stop offset="1" stop-color="#BBBBC0" stop-opacity="0.6"/>
</linearGradient>
<linearGradient id="paint3_linear_151_180" x1="12" y1="2.75" x2="12" y2="21.25" gradientUnits="userSpaceOnUse">
<stop stop-color="white"/>
<stop offset="1" stop-color="white" stop-opacity="0"/>
</linearGradient>
<linearGradient id="paint4_linear_151_180" x1="15.75" y1="3.25" x2="15.75" y2="9.25" gradientUnits="userSpaceOnUse">
<stop stop-color="#575757"/>
<stop offset="1" stop-color="#151515"/>
</linearGradient>
<linearGradient id="paint5_linear_151_180" x1="6" y1="14" x2="6" y2="22" gradientUnits="userSpaceOnUse">
<stop stop-color="#575757"/>
<stop offset="1" stop-color="#151515"/>
</linearGradient>
</defs>
</svg>
