<svg width="24" height="24" viewBox="0 0 24 24" fill="none" xmlns="http://www.w3.org/2000/svg">
<mask id="mask0_85_1021" style="mask-type:alpha" maskUnits="userSpaceOnUse" x="3" y="3" width="18" height="19">
<path d="M18.25 3.75H5.75C4.64543 3.75 3.75 4.64543 3.75 5.75V7.17157C3.75 7.70201 3.96071 8.21071 4.33579 8.58579L9.16421 13.4142C9.53929 13.7893 9.75 14.298 9.75 14.8284V21.25L14.25 20V14.8284C14.25 14.298 14.4607 13.7893 14.8358 13.4142L19.6642 8.58579C20.0393 8.21071 20.25 7.70201 20.25 7.17157V5.75C20.25 4.64543 19.3546 3.75 18.25 3.75Z" fill="black"/>
</mask>
<g mask="url(#mask0_85_1021)">
<g filter="url(#filter0_f_85_1021)">
<ellipse cx="14.7965" cy="12.5297" rx="0.968208" ry="3.57641" transform="rotate(22.5901 14.7965 12.5297)" fill="url(#paint0_linear_85_1021)"/>
</g>
</g>
<path d="M18.25 3.75H5.75C4.64543 3.75 3.75 4.64543 3.75 5.75V7.17157C3.75 7.70201 3.96071 8.21071 4.33579 8.58579L9.16421 13.4142C9.53929 13.7893 9.75 14.298 9.75 14.8284V21.25L14.25 20V14.8284C14.25 14.298 14.4607 13.7893 14.8358 13.4142L19.6642 8.58579C20.0393 8.21071 20.25 7.70201 20.25 7.17157V5.75C20.25 4.64543 19.3546 3.75 18.25 3.75Z" fill="url(#paint1_linear_85_1021)" stroke="url(#paint2_linear_85_1021)" stroke-linejoin="round"/>
<defs>
<filter id="filter0_f_85_1021" x="7.15723" y="3.20654" width="15.2783" height="18.6464" filterUnits="userSpaceOnUse" color-interpolation-filters="sRGB">
<feFlood flood-opacity="0" result="BackgroundImageFix"/>
<feBlend mode="normal" in="SourceGraphic" in2="BackgroundImageFix" result="shape"/>
<feGaussianBlur stdDeviation="3" result="effect1_foregroundBlur_85_1021"/>
</filter>
<linearGradient id="paint0_linear_85_1021" x1="14.7965" y1="8.95333" x2="14.7965" y2="16.1062" gradientUnits="userSpaceOnUse">
<stop stop-color="#575757"/>
<stop offset="1" stop-color="#151515"/>
</linearGradient>
<linearGradient id="paint1_linear_85_1021" x1="12" y1="3.75" x2="12" y2="21.25" gradientUnits="userSpaceOnUse">
<stop stop-color="#E3E3E3" stop-opacity="0.6"/>
<stop offset="1" stop-color="#BBBBC0" stop-opacity="0.6"/>
</linearGradient>
<linearGradient id="paint2_linear_85_1021" x1="12" y1="3.75" x2="12" y2="21.25" gradientUnits="userSpaceOnUse">
<stop stop-color="white"/>
<stop offset="1" stop-color="white" stop-opacity="0"/>
</linearGradient>
</defs>
</svg>
