<svg width="24" height="24" viewBox="0 0 24 24" fill="none" xmlns="http://www.w3.org/2000/svg">
<mask id="mask0_85_1450" style="mask-type:alpha" maskUnits="userSpaceOnUse" x="2" y="1" width="20" height="23">
<path d="M21.7617 9.2528C21.7617 11.3877 21.5652 13.4766 21.1893 15.5026C20.7314 17.7047 19.2056 21.9184 18.5 23.75L2 19.25C4.5 16.75 4.50781 14.6863 4.76172 13.4045C5.08481 12.0735 5.25605 10.6832 5.25605 9.2528C5.25605 7.45753 5.82931 5.79611 6.80276 4.44165C7.44497 3.33603 9.13356 2.23987 9.89758 1.82999C10.9884 1.29832 12.2138 1 13.5089 1C18.0668 1 21.7617 4.69492 21.7617 9.2528Z" fill="url(#paint0_linear_85_1450)"/>
</mask>
<g mask="url(#mask0_85_1450)">
<g filter="url(#filter0_f_85_1450)">
<path d="M8.62308 17.3438C8.79051 16.9203 8.94452 16.4895 9.08459 16.052M15.8486 18.9162C16.0909 18.1984 16.3059 17.4669 16.4921 16.7233C16.6611 16.0485 16.8065 15.3638 16.9273 14.6701M20.4949 15.4414C20.8266 13.5636 21 11.6276 21 9.6489C21 5.42454 17.7398 2 13.7181 2C12.5754 2 11.4941 2.27649 10.5316 2.76925M6 13.4968C6.28508 12.2632 6.43617 10.9746 6.43617 9.6489C6.43617 7.985 6.94199 6.44515 7.80092 5.18981M13.7185 9.6489C13.7185 12.2882 13.3113 14.8275 12.5592 17.2015C12.3657 17.8123 12.1494 18.4122 11.9112 19M9.81285 12.9954C9.98666 11.907 10.0771 10.7891 10.0771 9.6489C10.0771 7.53674 11.7073 5.82447 13.7181 5.82447C15.7289 5.82447 17.3591 7.53674 17.3591 9.6489C17.3591 10.2385 17.3416 10.8237 17.307 11.4041" stroke="url(#paint1_linear_85_1450)" stroke-width="1.5" stroke-linecap="round" stroke-linejoin="round"/>
</g>
</g>
<path d="M21.7617 9.2528C21.7617 11.3877 21.5652 13.4766 21.1893 15.5026C20.7314 17.7047 19.2056 21.9184 18.5 23.75L2 19.25C4.5 16.75 4.50781 14.6863 4.76172 13.4045C5.08481 12.0735 5.25605 10.6832 5.25605 9.2528C5.25605 7.45753 5.82931 5.79611 6.80276 4.44165C7.44497 3.33603 9.13356 2.23987 9.89758 1.82999C10.9884 1.29832 12.2138 1 13.5089 1C18.0668 1 21.7617 4.69492 21.7617 9.2528Z" fill="url(#paint2_linear_85_1450)"/>
<path d="M7.73454 17.5552C7.92429 17.0983 8.09884 16.6335 8.25758 16.1614M15.9235 19.2518C16.1981 18.4773 16.4417 17.6881 16.6528 16.8857C16.8443 16.1577 17.0091 15.4189 17.146 14.6704M21.1893 15.5026C21.5652 13.4766 21.7617 11.3877 21.7617 9.2528C21.7617 4.69492 18.0668 1 13.5089 1C12.2138 1 10.9884 1.29832 9.89758 1.82999M4.76172 13.4045C5.08481 12.0735 5.25605 10.6832 5.25605 9.2528C5.25605 7.45753 5.82931 5.79611 6.80276 4.44165M13.5093 9.2528C13.5093 12.1005 13.0478 14.8403 12.1955 17.4017C11.9762 18.0607 11.731 18.708 11.4611 19.3422M9.08294 12.8635C9.27993 11.6892 9.38247 10.483 9.38247 9.2528C9.38247 6.97388 11.2299 5.12642 13.5089 5.12642C15.7878 5.12642 17.6353 6.97388 17.6353 9.2528C17.6353 9.8889 17.6155 10.5204 17.5763 11.1466" stroke="url(#paint3_linear_85_1450)" stroke-width="1.5" stroke-linecap="round" stroke-linejoin="round"/>
<defs>
<filter id="filter0_f_85_1450" x="4.25" y="0.25" width="18.5" height="20.5002" filterUnits="userSpaceOnUse" color-interpolation-filters="sRGB">
<feFlood flood-opacity="0" result="BackgroundImageFix"/>
<feBlend mode="normal" in="SourceGraphic" in2="BackgroundImageFix" result="shape"/>
<feGaussianBlur stdDeviation="0.5" result="effect1_foregroundBlur_85_1450"/>
</filter>
<linearGradient id="paint0_linear_85_1450" x1="11.8808" y1="1" x2="11.8808" y2="23.75" gradientUnits="userSpaceOnUse">
<stop stop-color="#E3E3E3" stop-opacity="0.6"/>
<stop offset="1" stop-color="#BBBBC0" stop-opacity="0.6"/>
</linearGradient>
<linearGradient id="paint1_linear_85_1450" x1="13.5" y1="2" x2="13.5" y2="19" gradientUnits="userSpaceOnUse">
<stop stop-color="#575757"/>
<stop offset="1" stop-color="#151515"/>
</linearGradient>
<linearGradient id="paint2_linear_85_1450" x1="11.8808" y1="1" x2="11.8808" y2="23.75" gradientUnits="userSpaceOnUse">
<stop stop-color="#E3E3E3" stop-opacity="0.6"/>
<stop offset="1" stop-color="#BBBBC0" stop-opacity="0.6"/>
</linearGradient>
<linearGradient id="paint3_linear_85_1450" x1="13.2617" y1="1" x2="13.2617" y2="19.3422" gradientUnits="userSpaceOnUse">
<stop stop-color="#575757"/>
<stop offset="1" stop-color="#151515"/>
</linearGradient>
</defs>
</svg>
