<svg width="24" height="24" viewBox="0 0 24 24" fill="none" xmlns="http://www.w3.org/2000/svg">
<mask id="mask0_85_1135" style="mask-type:alpha" maskUnits="userSpaceOnUse" x="4" y="2" width="17" height="20">
<path d="M4.75 14.75V3.75C4.75 3.19772 5.19772 2.75 5.75 2.75H19.3815C20.1802 2.75 20.6566 3.64015 20.2135 4.3047L17.6198 8.1953C17.3959 8.5312 17.3959 8.9688 17.6198 9.3047L20.2135 13.1953C20.6566 13.8599 20.1802 14.75 19.3815 14.75H4.75ZM4.75 14.75V21.25V14.75Z" fill="black" fill-opacity="0.84"/>
</mask>
<g mask="url(#mask0_85_1135)">
<g filter="url(#filter0_f_85_1135)">
<path d="M20.4609 3L18.2856 9.68247L17.0001 13.6312" stroke="url(#paint0_linear_85_1135)" stroke-linecap="round" stroke-linejoin="round"/>
</g>
<g filter="url(#filter1_f_85_1135)">
<path d="M6 3V9.91429V14" stroke="url(#paint1_linear_85_1135)" stroke-linecap="round" stroke-linejoin="round"/>
</g>
</g>
<path d="M4.75 14.75V3.75C4.75 3.19772 5.19772 2.75 5.75 2.75H19.3815C20.1802 2.75 20.6566 3.64015 20.2135 4.3047L17.6198 8.1953C17.3959 8.5312 17.3959 8.9688 17.6198 9.3047L20.2135 13.1953C20.6566 13.8599 20.1802 14.75 19.3815 14.75H4.75ZM4.75 14.75V21.25V14.75Z" fill="url(#paint2_linear_85_1135)"/>
<path d="M4.75 14.75V3.75C4.75 3.19772 5.19772 2.75 5.75 2.75H19.3815C20.1802 2.75 20.6566 3.64015 20.2135 4.3047L17.6198 8.1953C17.3959 8.5312 17.3959 8.9688 17.6198 9.3047L20.2135 13.1953C20.6566 13.8599 20.1802 14.75 19.3815 14.75H4.75ZM4.75 14.75V21.25" stroke="url(#paint3_linear_85_1135)" stroke-linecap="round" stroke-linejoin="round"/>
<path d="M4.75 3.75V14.75V21.25" stroke="url(#paint4_linear_85_1135)" stroke-linecap="round" stroke-linejoin="round"/>
<defs>
<filter id="filter0_f_85_1135" x="12.5" y="-1.50014" width="12.4609" height="19.6315" filterUnits="userSpaceOnUse" color-interpolation-filters="sRGB">
<feFlood flood-opacity="0" result="BackgroundImageFix"/>
<feBlend mode="normal" in="SourceGraphic" in2="BackgroundImageFix" result="shape"/>
<feGaussianBlur stdDeviation="2" result="effect1_foregroundBlur_85_1135"/>
</filter>
<filter id="filter1_f_85_1135" x="1.5" y="-1.5" width="9" height="20" filterUnits="userSpaceOnUse" color-interpolation-filters="sRGB">
<feFlood flood-opacity="0" result="BackgroundImageFix"/>
<feBlend mode="normal" in="SourceGraphic" in2="BackgroundImageFix" result="shape"/>
<feGaussianBlur stdDeviation="2" result="effect1_foregroundBlur_85_1135"/>
</filter>
<linearGradient id="paint0_linear_85_1135" x1="20.9364" y1="3.15477" x2="17.4755" y2="13.786" gradientUnits="userSpaceOnUse">
<stop stop-color="#575757"/>
<stop offset="1" stop-color="#151515"/>
</linearGradient>
<linearGradient id="paint1_linear_85_1135" x1="6.5" y1="3" x2="6.5" y2="14" gradientUnits="userSpaceOnUse">
<stop stop-color="#575757"/>
<stop offset="1" stop-color="#151515"/>
</linearGradient>
<linearGradient id="paint2_linear_85_1135" x1="12.5666" y1="2.75" x2="12.5666" y2="21.25" gradientUnits="userSpaceOnUse">
<stop stop-color="#E3E3E3" stop-opacity="0.6"/>
<stop offset="1" stop-color="#BBBBC0" stop-opacity="0.6"/>
</linearGradient>
<linearGradient id="paint3_linear_85_1135" x1="12.5666" y1="2.75" x2="12.5666" y2="21.25" gradientUnits="userSpaceOnUse">
<stop stop-color="white"/>
<stop offset="1" stop-color="white" stop-opacity="0"/>
</linearGradient>
<linearGradient id="paint4_linear_85_1135" x1="5.25" y1="3.75" x2="5.25" y2="21.25" gradientUnits="userSpaceOnUse">
<stop stop-color="#575757"/>
<stop offset="1" stop-color="#151515"/>
</linearGradient>
</defs>
</svg>
