<svg width="24" height="24" viewBox="0 0 24 24" fill="none" xmlns="http://www.w3.org/2000/svg">
<mask id="mask0_85_1126" style="mask-type:alpha" maskUnits="userSpaceOnUse" x="4" y="3" width="16" height="19">
<path d="M4.75 15.0831V4.39891C4.75 4.01841 4.96525 3.66459 5.31895 3.52431C9.78767 1.75201 13.3875 5.38531 17.7409 4.33038C18.4613 4.1558 19.25 4.64565 19.25 5.38694V14.4618C19.25 14.8423 19.0348 15.1961 18.6811 15.3363C13.7067 17.3092 9.809 12.5839 4.75 15.0831ZM4.75 15.0831V21.2498V15.0831Z" fill="black"/>
</mask>
<g mask="url(#mask0_85_1126)">
<g filter="url(#filter0_f_85_1126)">
<path d="M18 10L16.7319 13.1702L16 15" stroke="url(#paint0_linear_85_1126)" stroke-linecap="round" stroke-linejoin="round"/>
</g>
<g filter="url(#filter1_f_85_1126)">
<path d="M6 4V10.3404V14" stroke="url(#paint1_linear_85_1126)" stroke-linecap="round" stroke-linejoin="round"/>
</g>
</g>
<path d="M4.75 15.0831V4.39891C4.75 4.01841 4.96525 3.66459 5.31895 3.52431C9.78767 1.75201 13.3875 5.38531 17.7409 4.33038C18.4613 4.1558 19.25 4.64565 19.25 5.38694V14.4618C19.25 14.8423 19.0348 15.1961 18.6811 15.3363C13.7067 17.3092 9.809 12.5839 4.75 15.0831ZM4.75 15.0831V21.2498V15.0831Z" fill="url(#paint2_linear_85_1126)"/>
<path d="M4.75 15.0831V4.39891C4.75 4.01841 4.96525 3.66459 5.31895 3.52431C9.78767 1.75201 13.3875 5.38531 17.7409 4.33038C18.4613 4.1558 19.25 4.64565 19.25 5.38694V14.4618C19.25 14.8423 19.0348 15.1961 18.6811 15.3363C13.7067 17.3092 9.809 12.5839 4.75 15.0831ZM4.75 15.0831V21.2498" stroke="url(#paint3_linear_85_1126)" stroke-linecap="round" stroke-linejoin="round"/>
<path d="M4.75 4.39891V15.0831V21.2498" stroke="url(#paint4_linear_85_1126)" stroke-linecap="round" stroke-linejoin="round"/>
<defs>
<filter id="filter0_f_85_1126" x="8.5" y="2.49986" width="17" height="20.0003" filterUnits="userSpaceOnUse" color-interpolation-filters="sRGB">
<feFlood flood-opacity="0" result="BackgroundImageFix"/>
<feBlend mode="normal" in="SourceGraphic" in2="BackgroundImageFix" result="shape"/>
<feGaussianBlur stdDeviation="3.5" result="effect1_foregroundBlur_85_1126"/>
</filter>
<filter id="filter1_f_85_1126" x="1.5" y="-0.5" width="9" height="19" filterUnits="userSpaceOnUse" color-interpolation-filters="sRGB">
<feFlood flood-opacity="0" result="BackgroundImageFix"/>
<feBlend mode="normal" in="SourceGraphic" in2="BackgroundImageFix" result="shape"/>
<feGaussianBlur stdDeviation="2" result="effect1_foregroundBlur_85_1126"/>
</filter>
<linearGradient id="paint0_linear_85_1126" x1="18.4642" y1="10.1857" x2="16.4642" y2="15.1857" gradientUnits="userSpaceOnUse">
<stop stop-color="#575757"/>
<stop offset="1" stop-color="#151515"/>
</linearGradient>
<linearGradient id="paint1_linear_85_1126" x1="6.5" y1="4" x2="6.5" y2="14" gradientUnits="userSpaceOnUse">
<stop stop-color="#575757"/>
<stop offset="1" stop-color="#151515"/>
</linearGradient>
<linearGradient id="paint2_linear_85_1126" x1="12" y1="3.02881" x2="12" y2="21.2498" gradientUnits="userSpaceOnUse">
<stop stop-color="#E3E3E3" stop-opacity="0.6"/>
<stop offset="1" stop-color="#BBBBC0" stop-opacity="0.6"/>
</linearGradient>
<linearGradient id="paint3_linear_85_1126" x1="12" y1="3.02881" x2="12" y2="21.2498" gradientUnits="userSpaceOnUse">
<stop stop-color="white"/>
<stop offset="1" stop-color="white" stop-opacity="0"/>
</linearGradient>
<linearGradient id="paint4_linear_85_1126" x1="5.25" y1="4.39891" x2="5.25" y2="21.2498" gradientUnits="userSpaceOnUse">
<stop stop-color="#575757"/>
<stop offset="1" stop-color="#151515"/>
</linearGradient>
</defs>
</svg>
