<svg width="24" height="24" viewBox="0 0 24 24" fill="none" xmlns="http://www.w3.org/2000/svg">
<mask id="mask0_150_127" style="mask-type:alpha" maskUnits="userSpaceOnUse" x="3" y="3" width="18" height="18">
<path d="M3.75 5.75C3.75 4.64543 4.64543 3.75 5.75 3.75H16.4216C16.952 3.75 17.4607 3.96071 17.8358 4.33579L19.6642 6.16421C20.0393 6.53929 20.25 7.04799 20.25 7.57843V18.25C20.25 19.3546 19.3546 20.25 18.25 20.25H5.75C4.64543 20.25 3.75 19.3546 3.75 18.25V5.75Z" fill="black"/>
</mask>
<g mask="url(#mask0_150_127)">
<g filter="url(#filter0_f_150_127)">
<path d="M8.40039 20V14.5C8.40039 13.9477 8.84811 13.5 9.40039 13.5H15.9004C16.4527 13.5 16.9004 13.9477 16.9004 14.5V20C16.9004 20.5523 16.4527 21 15.9004 21H9.40039C8.84811 21 8.40039 20.5523 8.40039 20Z" fill="url(#paint0_linear_150_127)"/>
</g>
<g filter="url(#filter1_f_150_127)">
<path d="M8.40039 4.5V8C8.40039 8.55228 8.84811 9 9.40039 9H15.9004C16.4527 9 16.9004 8.55228 16.9004 8V4.5" fill="url(#paint1_linear_150_127)"/>
</g>
<g filter="url(#filter2_f_150_127)">
<ellipse cx="20.9083" cy="13.8457" rx="0.968208" ry="4.74795" transform="rotate(11.6636 20.9083 13.8457)" fill="url(#paint2_linear_150_127)"/>
</g>
</g>
<path d="M3.75 5.75C3.75 4.64543 4.64543 3.75 5.75 3.75H16.4216C16.952 3.75 17.4607 3.96071 17.8358 4.33579L19.6642 6.16421C20.0393 6.53929 20.25 7.04799 20.25 7.57843V18.25C20.25 19.3546 19.3546 20.25 18.25 20.25H5.75C4.64543 20.25 3.75 19.3546 3.75 18.25V5.75Z" fill="url(#paint3_linear_150_127)" stroke="url(#paint4_linear_150_127)" stroke-width="1.5" stroke-linecap="round" stroke-linejoin="round"/>
<path d="M7.75 19.25V13.75C7.75 13.1977 8.19772 12.75 8.75 12.75H15.25C15.8023 12.75 16.25 13.1977 16.25 13.75V19.25C16.25 19.8023 15.8023 20.25 15.25 20.25H8.75C8.19772 20.25 7.75 19.8023 7.75 19.25Z" fill="url(#paint5_linear_150_127)"/>
<path d="M7.75 3.75V7.25C7.75 7.80228 8.19772 8.25 8.75 8.25H15.25C15.8023 8.25 16.25 7.80228 16.25 7.25V3.75" fill="url(#paint6_linear_150_127)"/>
<defs>
<filter id="filter0_f_150_127" x="7.90039" y="13" width="9.5" height="8.5" filterUnits="userSpaceOnUse" color-interpolation-filters="sRGB">
<feFlood flood-opacity="0" result="BackgroundImageFix"/>
<feBlend mode="normal" in="SourceGraphic" in2="BackgroundImageFix" result="shape"/>
<feGaussianBlur stdDeviation="0.25" result="effect1_foregroundBlur_150_127"/>
</filter>
<filter id="filter1_f_150_127" x="7.90039" y="4" width="9.5" height="5.5" filterUnits="userSpaceOnUse" color-interpolation-filters="sRGB">
<feFlood flood-opacity="0" result="BackgroundImageFix"/>
<feBlend mode="normal" in="SourceGraphic" in2="BackgroundImageFix" result="shape"/>
<feGaussianBlur stdDeviation="0.25" result="effect1_foregroundBlur_150_127"/>
</filter>
<filter id="filter2_f_150_127" x="13.5586" y="3.19153" width="14.6992" height="21.3082" filterUnits="userSpaceOnUse" color-interpolation-filters="sRGB">
<feFlood flood-opacity="0" result="BackgroundImageFix"/>
<feBlend mode="normal" in="SourceGraphic" in2="BackgroundImageFix" result="shape"/>
<feGaussianBlur stdDeviation="3" result="effect1_foregroundBlur_150_127"/>
</filter>
<linearGradient id="paint0_linear_150_127" x1="12.6504" y1="13.5" x2="12.6504" y2="21" gradientUnits="userSpaceOnUse">
<stop stop-color="#575757"/>
<stop offset="1" stop-color="#151515"/>
</linearGradient>
<linearGradient id="paint1_linear_150_127" x1="12.6504" y1="4.5" x2="12.6504" y2="9" gradientUnits="userSpaceOnUse">
<stop stop-color="#575757"/>
<stop offset="1" stop-color="#151515"/>
</linearGradient>
<linearGradient id="paint2_linear_150_127" x1="20.9083" y1="9.0977" x2="20.9083" y2="18.5936" gradientUnits="userSpaceOnUse">
<stop stop-color="#575757"/>
<stop offset="1" stop-color="#151515"/>
</linearGradient>
<linearGradient id="paint3_linear_150_127" x1="12" y1="3.75" x2="12" y2="20.25" gradientUnits="userSpaceOnUse">
<stop stop-color="#E3E3E3" stop-opacity="0.6"/>
<stop offset="1" stop-color="#BBBBC0" stop-opacity="0.6"/>
</linearGradient>
<linearGradient id="paint4_linear_150_127" x1="12" y1="3.75" x2="12" y2="20.25" gradientUnits="userSpaceOnUse">
<stop stop-color="#575757"/>
<stop offset="1" stop-color="#151515"/>
</linearGradient>
<linearGradient id="paint5_linear_150_127" x1="12" y1="12.75" x2="12" y2="20.25" gradientUnits="userSpaceOnUse">
<stop stop-color="#575757"/>
<stop offset="1" stop-color="#151515"/>
</linearGradient>
<linearGradient id="paint6_linear_150_127" x1="12" y1="3.75" x2="12" y2="8.25" gradientUnits="userSpaceOnUse">
<stop stop-color="#575757"/>
<stop offset="1" stop-color="#151515"/>
</linearGradient>
</defs>
</svg>
