<svg width="24" height="24" viewBox="0 0 24 24" fill="none" xmlns="http://www.w3.org/2000/svg">
<mask id="mask0_130_82" style="mask-type:alpha" maskUnits="userSpaceOnUse" x="2" y="3" width="20" height="17">
<path d="M2.75 5.75V17.25C2.75 18.3546 3.64543 19.25 4.75 19.25H19.25C20.3546 19.25 21.25 18.3546 21.25 17.25V8.75C21.25 7.64543 20.3546 6.75 19.25 6.75H13.0704C12.4017 6.75 11.7772 6.4158 11.4063 5.8594L10.5937 4.6406C10.2228 4.0842 9.59834 3.75 8.92963 3.75H4.75C3.64543 3.75 2.75 4.64543 2.75 5.75Z" fill="black"/>
</mask>
<g mask="url(#mask0_130_82)">
<g filter="url(#filter0_f_130_82)">
<ellipse cx="5.58753" cy="17.2911" rx="0.968208" ry="5.31726" transform="rotate(-47.7622 5.58753 17.2911)" fill="url(#paint0_linear_130_82)"/>
</g>
<g filter="url(#filter1_f_130_82)">
<path d="M17.25 14V17.25V20.5" stroke="url(#paint1_linear_130_82)" stroke-width="1.5" stroke-linecap="round" stroke-linejoin="round"/>
</g>
<g filter="url(#filter2_f_130_82)">
<path d="M14 17.25H17.25H20.5" stroke="url(#paint2_linear_130_82)" stroke-width="1.5" stroke-linecap="round" stroke-linejoin="round"/>
</g>
</g>
<path d="M2.75 5.75V17.25C2.75 18.3546 3.64543 19.25 4.75 19.25H19.25C20.3546 19.25 21.25 18.3546 21.25 17.25V8.75C21.25 7.64543 20.3546 6.75 19.25 6.75H13.0704C12.4017 6.75 11.7772 6.4158 11.4063 5.8594L10.5937 4.6406C10.2228 4.0842 9.59834 3.75 8.92963 3.75H4.75C3.64543 3.75 2.75 4.64543 2.75 5.75Z" fill="url(#paint3_linear_130_82)" stroke="url(#paint4_linear_130_82)" stroke-width="1.5" stroke-linecap="round" stroke-linejoin="round"/>
<path d="M18 13.75V17V20.25" stroke="url(#paint5_linear_130_82)" stroke-width="1.5" stroke-linecap="round" stroke-linejoin="round"/>
<path d="M14.75 17H18H21.25" stroke="url(#paint6_linear_130_82)" stroke-width="1.5" stroke-linecap="round" stroke-linejoin="round"/>
<defs>
<filter id="filter0_f_130_82" x="-4.40332" y="7.64496" width="19.9814" height="19.2924" filterUnits="userSpaceOnUse" color-interpolation-filters="sRGB">
<feFlood flood-opacity="0" result="BackgroundImageFix"/>
<feBlend mode="normal" in="SourceGraphic" in2="BackgroundImageFix" result="shape"/>
<feGaussianBlur stdDeviation="3" result="effect1_foregroundBlur_130_82"/>
</filter>
<filter id="filter1_f_130_82" x="16" y="12.75" width="2.5" height="9" filterUnits="userSpaceOnUse" color-interpolation-filters="sRGB">
<feFlood flood-opacity="0" result="BackgroundImageFix"/>
<feBlend mode="normal" in="SourceGraphic" in2="BackgroundImageFix" result="shape"/>
<feGaussianBlur stdDeviation="0.25" result="effect1_foregroundBlur_130_82"/>
</filter>
<filter id="filter2_f_130_82" x="12.75" y="16" width="9" height="2.5" filterUnits="userSpaceOnUse" color-interpolation-filters="sRGB">
<feFlood flood-opacity="0" result="BackgroundImageFix"/>
<feBlend mode="normal" in="SourceGraphic" in2="BackgroundImageFix" result="shape"/>
<feGaussianBlur stdDeviation="0.25" result="effect1_foregroundBlur_130_82"/>
</filter>
<linearGradient id="paint0_linear_130_82" x1="5.58753" y1="11.9739" x2="5.58753" y2="22.6084" gradientUnits="userSpaceOnUse">
<stop stop-color="#575757"/>
<stop offset="1" stop-color="#151515"/>
</linearGradient>
<linearGradient id="paint1_linear_130_82" x1="17.75" y1="14" x2="17.75" y2="20.5" gradientUnits="userSpaceOnUse">
<stop stop-color="#575757"/>
<stop offset="1" stop-color="#151515"/>
</linearGradient>
<linearGradient id="paint2_linear_130_82" x1="17.25" y1="17.25" x2="17.25" y2="18.25" gradientUnits="userSpaceOnUse">
<stop stop-color="#575757"/>
<stop offset="1" stop-color="#151515"/>
</linearGradient>
<linearGradient id="paint3_linear_130_82" x1="12" y1="3.75" x2="12" y2="19.25" gradientUnits="userSpaceOnUse">
<stop stop-color="#E3E3E3" stop-opacity="0.6"/>
<stop offset="1" stop-color="#BBBBC0" stop-opacity="0.6"/>
</linearGradient>
<linearGradient id="paint4_linear_130_82" x1="12" y1="3.75" x2="12" y2="19.25" gradientUnits="userSpaceOnUse">
<stop stop-color="white"/>
<stop offset="1" stop-color="white" stop-opacity="0"/>
</linearGradient>
<linearGradient id="paint5_linear_130_82" x1="18.5" y1="13.75" x2="18.5" y2="20.25" gradientUnits="userSpaceOnUse">
<stop stop-color="#575757"/>
<stop offset="1" stop-color="#151515"/>
</linearGradient>
<linearGradient id="paint6_linear_130_82" x1="18" y1="17" x2="18" y2="18" gradientUnits="userSpaceOnUse">
<stop stop-color="#575757"/>
<stop offset="1" stop-color="#151515"/>
</linearGradient>
</defs>
</svg>
