<svg width="24" height="24" viewBox="0 0 24 24" fill="none" xmlns="http://www.w3.org/2000/svg">
<mask id="mask0_149_105" style="mask-type:alpha" maskUnits="userSpaceOnUse" x="2" y="3" width="20" height="17">
<path d="M7.375 19.25H4.75C3.64543 19.25 2.75 18.3546 2.75 17.25V5.75C2.75 4.64543 3.64543 3.75 4.75 3.75H8.92963C9.59834 3.75 10.2228 4.0842 10.5937 4.6406L11.7031 6.3047C11.8886 6.5829 12.2008 6.75 12.5352 6.75H19.25C20.3546 6.75 21.25 7.64543 21.25 8.75V17.25C21.25 18.3546 20.3546 19.25 19.25 19.25H16.625" fill="black"/>
</mask>
<g mask="url(#mask0_149_105)">
<g filter="url(#filter0_f_149_105)">
<path d="M12.5 20.25V14M12.5 14L15 16.5M12.5 14L10 16.5" stroke="url(#paint0_linear_149_105)" stroke-width="1.5" stroke-linecap="round" stroke-linejoin="round"/>
</g>
<g filter="url(#filter1_f_149_105)">
<ellipse cx="18.9604" cy="18.3733" rx="0.968208" ry="3.53963" transform="rotate(38.4846 18.9604 18.3733)" fill="url(#paint1_linear_149_105)"/>
</g>
</g>
<path d="M7.375 19.25H4.75C3.64543 19.25 2.75 18.3546 2.75 17.25V5.75C2.75 4.64543 3.64543 3.75 4.75 3.75H8.92963C9.59834 3.75 10.2228 4.0842 10.5937 4.6406L11.7031 6.3047C11.8886 6.5829 12.2008 6.75 12.5352 6.75H19.25C20.3546 6.75 21.25 7.64543 21.25 8.75V17.25C21.25 18.3546 20.3546 19.25 19.25 19.25H16.625" fill="url(#paint2_linear_149_105)"/>
<path d="M7.375 19.25H4.75C3.64543 19.25 2.75 18.3546 2.75 17.25V5.75C2.75 4.64543 3.64543 3.75 4.75 3.75H8.92963C9.59834 3.75 10.2228 4.0842 10.5937 4.6406L11.7031 6.3047C11.8886 6.5829 12.2008 6.75 12.5352 6.75H19.25C20.3546 6.75 21.25 7.64543 21.25 8.75V17.25C21.25 18.3546 20.3546 19.25 19.25 19.25H16.625H7.375Z" stroke="url(#paint3_linear_149_105)" stroke-width="1.5" stroke-linecap="round" stroke-linejoin="round"/>
<path d="M12 19.25V13M12 13L14.5 15.5M12 13L9.5 15.5" stroke="url(#paint4_linear_149_105)" stroke-width="1.5" stroke-linecap="round" stroke-linejoin="round"/>
<defs>
<filter id="filter0_f_149_105" x="8.25" y="12.25" width="8.5" height="9.75" filterUnits="userSpaceOnUse" color-interpolation-filters="sRGB">
<feFlood flood-opacity="0" result="BackgroundImageFix"/>
<feBlend mode="normal" in="SourceGraphic" in2="BackgroundImageFix" result="shape"/>
<feGaussianBlur stdDeviation="0.5" result="effect1_foregroundBlur_149_105"/>
</filter>
<filter id="filter1_f_149_105" x="10.6299" y="9.53717" width="16.6611" height="17.6722" filterUnits="userSpaceOnUse" color-interpolation-filters="sRGB">
<feFlood flood-opacity="0" result="BackgroundImageFix"/>
<feBlend mode="normal" in="SourceGraphic" in2="BackgroundImageFix" result="shape"/>
<feGaussianBlur stdDeviation="3" result="effect1_foregroundBlur_149_105"/>
</filter>
<linearGradient id="paint0_linear_149_105" x1="12.5" y1="14" x2="12.5" y2="20.25" gradientUnits="userSpaceOnUse">
<stop stop-color="#575757"/>
<stop offset="1" stop-color="#151515"/>
</linearGradient>
<linearGradient id="paint1_linear_149_105" x1="18.9604" y1="14.8336" x2="18.9604" y2="21.9129" gradientUnits="userSpaceOnUse">
<stop stop-color="#575757"/>
<stop offset="1" stop-color="#151515"/>
</linearGradient>
<linearGradient id="paint2_linear_149_105" x1="12" y1="3.75" x2="12" y2="19.25" gradientUnits="userSpaceOnUse">
<stop stop-color="#E3E3E3" stop-opacity="0.6"/>
<stop offset="1" stop-color="#BBBBC0" stop-opacity="0.6"/>
</linearGradient>
<linearGradient id="paint3_linear_149_105" x1="12" y1="3.75" x2="12" y2="19.25" gradientUnits="userSpaceOnUse">
<stop stop-color="white"/>
<stop offset="1" stop-color="white" stop-opacity="0"/>
</linearGradient>
<linearGradient id="paint4_linear_149_105" x1="12" y1="13" x2="12" y2="19.25" gradientUnits="userSpaceOnUse">
<stop stop-color="#575757"/>
<stop offset="1" stop-color="#151515"/>
</linearGradient>
</defs>
</svg>
