<svg width="24" height="24" viewBox="0 0 24 24" fill="none" xmlns="http://www.w3.org/2000/svg">
<mask id="mask0_156_47" style="mask-type:alpha" maskUnits="userSpaceOnUse" x="3" y="4" width="19" height="16">
<path d="M3 6V17.5C3 18.6046 3.89543 19.5 5 19.5H19.5C20.6046 19.5 21.5 18.6046 21.5 17.5V9C21.5 7.89543 20.6046 7 19.5 7H13.3204C12.6517 7 12.0272 6.6658 11.6563 6.1094L10.8437 4.8906C10.4728 4.3342 9.84834 4 9.17963 4H5C3.89543 4 3 4.89543 3 6Z" fill="black"/>
</mask>
<g mask="url(#mask0_156_47)">
<g filter="url(#filter0_f_156_47)">
<path d="M5.2998 14.5H4.2998C3.19523 14.5 2.2998 15.3954 2.2998 16.5V19C2.2998 20.1046 3.19523 21 4.2998 21H5.2998M8.7998 14.5H9.7998C10.9044 14.5 11.7998 15.3954 11.7998 16.5V19C11.7998 20.1046 10.9044 21 9.7998 21H8.7998M5.7998 17.75H8.2998" stroke="url(#paint0_linear_156_47)" stroke-width="1.5" stroke-linecap="round" stroke-linejoin="round"/>
</g>
<g filter="url(#filter1_f_156_47)">
<ellipse cx="20.6794" cy="16.9714" rx="0.428323" ry="5.31726" transform="rotate(25.6915 20.6794 16.9714)" fill="url(#paint1_linear_156_47)"/>
</g>
</g>
<path d="M3 6V17.5C3 18.6046 3.89543 19.5 5 19.5H19.5C20.6046 19.5 21.5 18.6046 21.5 17.5V9C21.5 7.89543 20.6046 7 19.5 7H13.3204C12.6517 7 12.0272 6.6658 11.6563 6.1094L10.8437 4.8906C10.4728 4.3342 9.84834 4 9.17963 4H5C3.89543 4 3 4.89543 3 6Z" fill="url(#paint2_linear_156_47)" stroke="url(#paint3_linear_156_47)" stroke-width="1.5" stroke-linecap="round" stroke-linejoin="round"/>
<path d="M4.75 13.75H3.75C2.64543 13.75 1.75 14.6454 1.75 15.75V18.25C1.75 19.3546 2.64543 20.25 3.75 20.25H4.75M8.25 13.75H9.25C10.3546 13.75 11.25 14.6454 11.25 15.75V18.25C11.25 19.3546 10.3546 20.25 9.25 20.25H8.25" stroke="url(#paint4_linear_156_47)" stroke-width="1.5" stroke-linecap="round" stroke-linejoin="round"/>
<path d="M5.25 17H7.75" stroke="url(#paint5_linear_156_47)" stroke-width="1.5" stroke-linecap="round" stroke-linejoin="round"/>
<defs>
<filter id="filter0_f_156_47" x="1.0498" y="13.25" width="12" height="9" filterUnits="userSpaceOnUse" color-interpolation-filters="sRGB">
<feFlood flood-opacity="0" result="BackgroundImageFix"/>
<feBlend mode="normal" in="SourceGraphic" in2="BackgroundImageFix" result="shape"/>
<feGaussianBlur stdDeviation="0.25" result="effect1_foregroundBlur_156_47"/>
</filter>
<filter id="filter1_f_156_47" x="11.3418" y="5.17618" width="18.6748" height="23.5905" filterUnits="userSpaceOnUse" color-interpolation-filters="sRGB">
<feFlood flood-opacity="0" result="BackgroundImageFix"/>
<feBlend mode="normal" in="SourceGraphic" in2="BackgroundImageFix" result="shape"/>
<feGaussianBlur stdDeviation="3.5" result="effect1_foregroundBlur_156_47"/>
</filter>
<linearGradient id="paint0_linear_156_47" x1="7.0498" y1="14.5" x2="7.0498" y2="21" gradientUnits="userSpaceOnUse">
<stop stop-color="#575757"/>
<stop offset="1" stop-color="#151515"/>
</linearGradient>
<linearGradient id="paint1_linear_156_47" x1="20.6794" y1="11.6542" x2="20.6794" y2="22.2887" gradientUnits="userSpaceOnUse">
<stop stop-color="#575757"/>
<stop offset="1" stop-color="#151515"/>
</linearGradient>
<linearGradient id="paint2_linear_156_47" x1="12.25" y1="4" x2="12.25" y2="19.5" gradientUnits="userSpaceOnUse">
<stop stop-color="#E3E3E3" stop-opacity="0.6"/>
<stop offset="1" stop-color="#BBBBC0" stop-opacity="0.6"/>
</linearGradient>
<linearGradient id="paint3_linear_156_47" x1="12.25" y1="4" x2="12.25" y2="19.5" gradientUnits="userSpaceOnUse">
<stop stop-color="white"/>
<stop offset="1" stop-color="white" stop-opacity="0"/>
</linearGradient>
<linearGradient id="paint4_linear_156_47" x1="6.5" y1="13.75" x2="6.5" y2="20.25" gradientUnits="userSpaceOnUse">
<stop stop-color="#575757"/>
<stop offset="1" stop-color="#151515"/>
</linearGradient>
<linearGradient id="paint5_linear_156_47" x1="6.5" y1="17" x2="6.5" y2="18" gradientUnits="userSpaceOnUse">
<stop stop-color="#575757"/>
<stop offset="1" stop-color="#151515"/>
</linearGradient>
</defs>
</svg>
