<svg width="24" height="24" viewBox="0 0 24 24" fill="none" xmlns="http://www.w3.org/2000/svg">
<mask id="mask0_130_92" style="mask-type:alpha" maskUnits="userSpaceOnUse" x="2" y="3" width="20" height="17">
<path d="M2.75 5.75V17.25C2.75 18.3546 3.64543 19.25 4.75 19.25H19.25C20.3546 19.25 21.25 18.3546 21.25 17.25V8.75C21.25 7.64543 20.3546 6.75 19.25 6.75H13.0704C12.4017 6.75 11.7772 6.4158 11.4063 5.8594L10.5937 4.6406C10.2228 4.0842 9.59834 3.75 8.92963 3.75H4.75C3.64543 3.75 2.75 4.64543 2.75 5.75Z" fill="black"/>
</mask>
<g mask="url(#mask0_130_92)">
<g filter="url(#filter0_f_130_92)">
<ellipse cx="19.1777" cy="17.2113" rx="0.968208" ry="5.31726" transform="rotate(25.6915 19.1777 17.2113)" fill="url(#paint0_linear_130_92)"/>
</g>
<g filter="url(#filter1_f_130_92)">
<path d="M6.25 15V18.25V21.5" stroke="url(#paint1_linear_130_92)" stroke-width="1.5" stroke-linecap="round" stroke-linejoin="round"/>
</g>
<g filter="url(#filter2_f_130_92)">
<path d="M3 18.25H6.25H9.5" stroke="url(#paint2_linear_130_92)" stroke-width="1.5" stroke-linecap="round" stroke-linejoin="round"/>
</g>
</g>
<path d="M2.75 5.75V17.25C2.75 18.3546 3.64543 19.25 4.75 19.25H19.25C20.3546 19.25 21.25 18.3546 21.25 17.25V8.75C21.25 7.64543 20.3546 6.75 19.25 6.75H13.0704C12.4017 6.75 11.7772 6.4158 11.4063 5.8594L10.5937 4.6406C10.2228 4.0842 9.59834 3.75 8.92963 3.75H4.75C3.64543 3.75 2.75 4.64543 2.75 5.75Z" fill="url(#paint3_linear_130_92)" stroke="url(#paint4_linear_130_92)" stroke-width="1.5" stroke-linecap="round" stroke-linejoin="round"/>
<path d="M5.25 14V17.25V20.5" stroke="url(#paint5_linear_130_92)" stroke-width="1.5" stroke-linecap="round" stroke-linejoin="round"/>
<path d="M2 17.25H5.25H8.5" stroke="url(#paint6_linear_130_92)" stroke-width="1.5" stroke-linecap="round" stroke-linejoin="round"/>
<defs>
<filter id="filter0_f_130_92" x="10.7119" y="6.40109" width="16.9316" height="21.6205" filterUnits="userSpaceOnUse" color-interpolation-filters="sRGB">
<feFlood flood-opacity="0" result="BackgroundImageFix"/>
<feBlend mode="normal" in="SourceGraphic" in2="BackgroundImageFix" result="shape"/>
<feGaussianBlur stdDeviation="3" result="effect1_foregroundBlur_130_92"/>
</filter>
<filter id="filter1_f_130_92" x="5" y="13.75" width="2.5" height="9" filterUnits="userSpaceOnUse" color-interpolation-filters="sRGB">
<feFlood flood-opacity="0" result="BackgroundImageFix"/>
<feBlend mode="normal" in="SourceGraphic" in2="BackgroundImageFix" result="shape"/>
<feGaussianBlur stdDeviation="0.25" result="effect1_foregroundBlur_130_92"/>
</filter>
<filter id="filter2_f_130_92" x="1.75" y="17" width="9" height="2.5" filterUnits="userSpaceOnUse" color-interpolation-filters="sRGB">
<feFlood flood-opacity="0" result="BackgroundImageFix"/>
<feBlend mode="normal" in="SourceGraphic" in2="BackgroundImageFix" result="shape"/>
<feGaussianBlur stdDeviation="0.25" result="effect1_foregroundBlur_130_92"/>
</filter>
<linearGradient id="paint0_linear_130_92" x1="19.1777" y1="11.8941" x2="19.1777" y2="22.5286" gradientUnits="userSpaceOnUse">
<stop stop-color="#575757"/>
<stop offset="1" stop-color="#151515"/>
</linearGradient>
<linearGradient id="paint1_linear_130_92" x1="6.75" y1="15" x2="6.75" y2="21.5" gradientUnits="userSpaceOnUse">
<stop stop-color="#575757"/>
<stop offset="1" stop-color="#151515"/>
</linearGradient>
<linearGradient id="paint2_linear_130_92" x1="6.25" y1="18.25" x2="6.25" y2="19.25" gradientUnits="userSpaceOnUse">
<stop stop-color="#575757"/>
<stop offset="1" stop-color="#151515"/>
</linearGradient>
<linearGradient id="paint3_linear_130_92" x1="12" y1="3.75" x2="12" y2="19.25" gradientUnits="userSpaceOnUse">
<stop stop-color="#E3E3E3" stop-opacity="0.6"/>
<stop offset="1" stop-color="#BBBBC0" stop-opacity="0.6"/>
</linearGradient>
<linearGradient id="paint4_linear_130_92" x1="12" y1="3.75" x2="12" y2="19.25" gradientUnits="userSpaceOnUse">
<stop stop-color="white"/>
<stop offset="1" stop-color="white" stop-opacity="0"/>
</linearGradient>
<linearGradient id="paint5_linear_130_92" x1="5.75" y1="14" x2="5.75" y2="20.5" gradientUnits="userSpaceOnUse">
<stop stop-color="#575757"/>
<stop offset="1" stop-color="#151515"/>
</linearGradient>
<linearGradient id="paint6_linear_130_92" x1="5.25" y1="17.25" x2="5.25" y2="18.25" gradientUnits="userSpaceOnUse">
<stop stop-color="#575757"/>
<stop offset="1" stop-color="#151515"/>
</linearGradient>
</defs>
</svg>
