<svg width="24" height="24" viewBox="0 0 24 24" fill="none" xmlns="http://www.w3.org/2000/svg">
<mask id="mask0_151_162" style="mask-type:alpha" maskUnits="userSpaceOnUse" x="4" y="11" width="16" height="10">
<path d="M12 20.25H6.75C5.64543 20.25 4.75 19.3546 4.75 18.25V11.7324C5.04417 11.9026 5.38571 12 5.75 12H12H18.25C18.6143 12 18.9558 11.9026 19.25 11.7324V18.25C19.25 19.3546 18.3546 20.25 17.25 20.25H12Z" fill="black"/>
</mask>
<g mask="url(#mask0_151_162)">
<g filter="url(#filter0_f_151_162)">
<path d="M10.5833 9H12.25H13.9167H18.5C19.6046 9 20.5 9.89543 20.5 11V11.25C20.5 11.9903 20.0978 12.6366 19.5 12.9824C19.2058 13.1526 18.8643 13.25 18.5 13.25H12.25H6C5.63571 13.25 5.29417 13.1526 5 12.9824C4.4022 12.6366 4 11.9903 4 11.25V11C4 9.89543 4.89543 9 6 9H10.5833Z" fill="url(#paint0_linear_151_162)"/>
</g>
</g>
<path d="M12 20H6.93103C5.86455 20 5 18.9767 5 17.7143V10.2656C5.28403 10.4601 5.61379 10.5714 5.96552 10.5714H12H18.0345C18.3862 10.5714 18.7159 10.4601 19 10.2656V17.7143C19 18.9767 18.1355 20 17.069 20H12Z" fill="url(#paint1_linear_151_162)"/>
<path d="M5 10.2656V17.7143C5 18.9767 5.86455 20 6.93103 20H12M5 10.2656C5.28403 10.4601 5.61379 10.5714 5.96552 10.5714H12M5 10.2656V10M19 10.2656V17.7143C19 18.9767 18.1355 20 17.069 20H12M19 10.2656C18.7159 10.4601 18.3862 10.5714 18.0345 10.5714H12M19 10.2656V10M12 10.5714V20" stroke="url(#paint2_linear_151_162)" stroke-width="1.5" stroke-linejoin="round"/>
<path d="M12 7.75H10.3333C8.49238 7.75 7 6.25762 7 4.41667C7 3.49619 7.74619 2.75 8.66667 2.75C10.5076 2.75 12 4.24238 12 6.08333C12 4.24238 13.4924 2.75 15.3333 2.75C16.2538 2.75 17 3.49619 17 4.41667C17 6.25762 15.5076 7.75 13.6667 7.75H12Z" fill="url(#paint3_linear_151_162)"/>
<path d="M12 7.75V6.08333M12 7.75H10.3333C8.49238 7.75 7 6.25762 7 4.41667C7 3.49619 7.74619 2.75 8.66667 2.75C10.5076 2.75 12 4.24238 12 6.08333M12 7.75H13.6667C15.5076 7.75 17 6.25762 17 4.41667C17 3.49619 16.2538 2.75 15.3333 2.75C13.4924 2.75 12 4.24238 12 6.08333" stroke="url(#paint4_linear_151_162)" stroke-width="1.5" stroke-linejoin="round"/>
<path d="M10.3333 7.75H12H13.6667H18.25C19.3546 7.75 20.25 8.64543 20.25 9.75V10C20.25 10.7403 19.8478 11.3866 19.25 11.7324C18.9558 11.9026 18.6143 12 18.25 12H12H5.75C5.38571 12 5.04417 11.9026 4.75 11.7324C4.1522 11.3866 3.75 10.7403 3.75 10V9.75C3.75 8.64543 4.64543 7.75 5.75 7.75H10.3333Z" fill="url(#paint5_linear_151_162)"/>
<defs>
<filter id="filter0_f_151_162" x="3.5" y="8.5" width="17.5" height="5.25" filterUnits="userSpaceOnUse" color-interpolation-filters="sRGB">
<feFlood flood-opacity="0" result="BackgroundImageFix"/>
<feBlend mode="normal" in="SourceGraphic" in2="BackgroundImageFix" result="shape"/>
<feGaussianBlur stdDeviation="0.25" result="effect1_foregroundBlur_151_162"/>
</filter>
<linearGradient id="paint0_linear_151_162" x1="12.25" y1="9" x2="12.25" y2="13.25" gradientUnits="userSpaceOnUse">
<stop stop-color="#575757"/>
<stop offset="1" stop-color="#151515"/>
</linearGradient>
<linearGradient id="paint1_linear_151_162" x1="12" y1="10" x2="12" y2="20" gradientUnits="userSpaceOnUse">
<stop stop-color="#E3E3E3" stop-opacity="0.6"/>
<stop offset="1" stop-color="#BBBBC0" stop-opacity="0.6"/>
</linearGradient>
<linearGradient id="paint2_linear_151_162" x1="12" y1="10" x2="12" y2="20" gradientUnits="userSpaceOnUse">
<stop stop-color="white"/>
<stop offset="1" stop-color="white" stop-opacity="0"/>
</linearGradient>
<linearGradient id="paint3_linear_151_162" x1="12" y1="2.75" x2="12" y2="7.75" gradientUnits="userSpaceOnUse">
<stop stop-color="#E3E3E3" stop-opacity="0.6"/>
<stop offset="1" stop-color="#BBBBC0" stop-opacity="0.6"/>
</linearGradient>
<linearGradient id="paint4_linear_151_162" x1="12" y1="2.75" x2="12" y2="7.75" gradientUnits="userSpaceOnUse">
<stop stop-color="white"/>
<stop offset="1" stop-color="white" stop-opacity="0"/>
</linearGradient>
<linearGradient id="paint5_linear_151_162" x1="12" y1="7.75" x2="12" y2="12" gradientUnits="userSpaceOnUse">
<stop stop-color="#575757"/>
<stop offset="1" stop-color="#151515"/>
</linearGradient>
</defs>
</svg>
