<svg width="24" height="24" viewBox="0 0 24 24" fill="none" xmlns="http://www.w3.org/2000/svg">
<mask id="mask0_123_31" style="mask-type:alpha" maskUnits="userSpaceOnUse" x="3" y="2" width="19" height="20">
<path d="M3.25 15.0833C4.52169 18.676 7.95303 21.25 11.9864 21.25C17.1026 21.25 21.25 17.1086 21.25 12C21.25 6.89137 17.1026 2.75 11.9864 2.75C8.14808 2.75 4.85497 5.08106 3.44947 8.40278" fill="black"/>
</mask>
<g mask="url(#mask0_123_31)">
<g filter="url(#filter0_f_123_31)">
<path d="M13 8V12.25L16.5 15.75" stroke="url(#paint0_linear_123_31)" stroke-width="1.5" stroke-linecap="round" stroke-linejoin="round"/>
</g>
</g>
<path d="M3.25 15.0833C4.52169 18.676 7.95303 21.25 11.9864 21.25C17.1026 21.25 21.25 17.1086 21.25 12C21.25 6.89137 17.1026 2.75 11.9864 2.75C8.14808 2.75 4.85497 5.08106 3.44947 8.40278" fill="url(#paint1_linear_123_31)"/>
<path d="M3.25 15.0833C4.52169 18.676 7.95303 21.25 11.9864 21.25C17.1026 21.25 21.25 17.1086 21.25 12C21.25 6.89137 17.1026 2.75 11.9864 2.75C8.14808 2.75 4.85497 5.08106 3.44947 8.40278" stroke="url(#paint2_linear_123_31)" stroke-width="1.5" stroke-linecap="round" stroke-linejoin="round"/>
<path d="M2.75 4.75V8.75H6.75" stroke="url(#paint3_linear_123_31)" stroke-width="1.5" stroke-linecap="round" stroke-linejoin="round"/>
<path d="M12 7.75V12L15.5 15.5" stroke="url(#paint4_linear_123_31)" stroke-width="1.5" stroke-linecap="round" stroke-linejoin="round"/>
<defs>
<filter id="filter0_f_123_31" x="11.75" y="6.75" width="6" height="10.25" filterUnits="userSpaceOnUse" color-interpolation-filters="sRGB">
<feFlood flood-opacity="0" result="BackgroundImageFix"/>
<feBlend mode="normal" in="SourceGraphic" in2="BackgroundImageFix" result="shape"/>
<feGaussianBlur stdDeviation="0.25" result="effect1_foregroundBlur_123_31"/>
</filter>
<linearGradient id="paint0_linear_123_31" x1="14.75" y1="8" x2="14.75" y2="15.75" gradientUnits="userSpaceOnUse">
<stop stop-color="#575757"/>
<stop offset="1" stop-color="#151515"/>
</linearGradient>
<linearGradient id="paint1_linear_123_31" x1="12.25" y1="2.75" x2="12.25" y2="21.25" gradientUnits="userSpaceOnUse">
<stop stop-color="#E3E3E3" stop-opacity="0.6"/>
<stop offset="1" stop-color="#BBBBC0" stop-opacity="0.6"/>
</linearGradient>
<linearGradient id="paint2_linear_123_31" x1="12.25" y1="2.75" x2="12.25" y2="21.25" gradientUnits="userSpaceOnUse">
<stop stop-color="#575757"/>
<stop offset="1" stop-color="#151515"/>
</linearGradient>
<linearGradient id="paint3_linear_123_31" x1="4.75" y1="4.75" x2="4.75" y2="8.75" gradientUnits="userSpaceOnUse">
<stop stop-color="#575757"/>
<stop offset="1" stop-color="#151515"/>
</linearGradient>
<linearGradient id="paint4_linear_123_31" x1="13.75" y1="7.75" x2="13.75" y2="15.5" gradientUnits="userSpaceOnUse">
<stop stop-color="#575757"/>
<stop offset="1" stop-color="#151515"/>
</linearGradient>
</defs>
</svg>
