<svg width="24" height="24" viewBox="0 0 24 24" fill="none" xmlns="http://www.w3.org/2000/svg">
<mask id="mask0_149_116" style="mask-type:alpha" maskUnits="userSpaceOnUse" x="3" y="4" width="18" height="15">
<path d="M21 7.00001C21 4.50001 19.5 5.00001 18 5.00001L5.5 5C3 4.99999 3 6 3 7.5V17C3 19 4 19 5.5 19H19C21 19 21 17.5 21 16.5V7.00001Z" fill="black"/>
</mask>
<g mask="url(#mask0_149_116)">
<g filter="url(#filter0_f_149_116)">
<path d="M4 5H8.25C11.0114 5 13.25 7.23858 13.25 10V15.25M13.25 15.25L17 11.5M13.25 15.25L9.5 11.5" stroke="url(#paint0_linear_149_116)" stroke-width="1.5" stroke-linecap="round" stroke-linejoin="round"/>
</g>
<g filter="url(#filter1_f_149_116)">
<ellipse cx="18.3311" cy="17.4112" rx="0.809617" ry="3.3863" transform="rotate(59.6151 18.3311 17.4112)" fill="url(#paint1_linear_149_116)"/>
</g>
</g>
<path d="M21 7.00001C21 4.50001 19.5 5.00001 18 5.00001L5.5 5C3 4.99999 3 6 3 7.5V17C3 19 4 19 5.5 19H19C21 19 21 17.5 21 16.5V7.00001Z" fill="url(#paint2_linear_149_116)" stroke="url(#paint3_linear_149_116)" stroke-width="1.5" stroke-linejoin="round"/>
<path d="M2.75 4.75H7C9.76142 4.75 12 6.98858 12 9.75V15M12 15L15.75 11.25M12 15L8.25 11.25" stroke="url(#paint4_linear_149_116)" stroke-width="1.5" stroke-linecap="round" stroke-linejoin="round"/>
<defs>
<filter id="filter0_f_149_116" x="2.25" y="3.25" width="16.5" height="13.75" filterUnits="userSpaceOnUse" color-interpolation-filters="sRGB">
<feFlood flood-opacity="0" result="BackgroundImageFix"/>
<feBlend mode="normal" in="SourceGraphic" in2="BackgroundImageFix" result="shape"/>
<feGaussianBlur stdDeviation="0.5" result="effect1_foregroundBlur_149_116"/>
</filter>
<filter id="filter1_f_149_116" x="9.38086" y="9.561" width="17.9004" height="15.7004" filterUnits="userSpaceOnUse" color-interpolation-filters="sRGB">
<feFlood flood-opacity="0" result="BackgroundImageFix"/>
<feBlend mode="normal" in="SourceGraphic" in2="BackgroundImageFix" result="shape"/>
<feGaussianBlur stdDeviation="3" result="effect1_foregroundBlur_149_116"/>
</filter>
<linearGradient id="paint0_linear_149_116" x1="10.5" y1="5" x2="10.5" y2="15.25" gradientUnits="userSpaceOnUse">
<stop stop-color="#575757"/>
<stop offset="1" stop-color="#151515"/>
</linearGradient>
<linearGradient id="paint1_linear_149_116" x1="18.3311" y1="14.0249" x2="18.3311" y2="20.7975" gradientUnits="userSpaceOnUse">
<stop stop-color="#575757"/>
<stop offset="1" stop-color="#151515"/>
</linearGradient>
<linearGradient id="paint2_linear_149_116" x1="12" y1="4.9592" x2="12" y2="19" gradientUnits="userSpaceOnUse">
<stop stop-color="#E3E3E3" stop-opacity="0.6"/>
<stop offset="1" stop-color="#BBBBC0" stop-opacity="0.6"/>
</linearGradient>
<linearGradient id="paint3_linear_149_116" x1="12" y1="4.9592" x2="12" y2="19" gradientUnits="userSpaceOnUse">
<stop stop-color="white"/>
<stop offset="1" stop-color="white" stop-opacity="0"/>
</linearGradient>
<linearGradient id="paint4_linear_149_116" x1="9.25" y1="4.75" x2="9.25" y2="15" gradientUnits="userSpaceOnUse">
<stop stop-color="#575757"/>
<stop offset="1" stop-color="#151515"/>
</linearGradient>
</defs>
</svg>
