<svg width="24" height="24" viewBox="0 0 24 24" fill="none" xmlns="http://www.w3.org/2000/svg">
<mask id="mask0_85_894" style="mask-type:alpha" maskUnits="userSpaceOnUse" x="3" y="2" width="14" height="14">
<path d="M16.25 11.5V7C16.25 4.65279 14.3472 2.75 12 2.75C10.6334 2.75 9.41741 3.39504 8.63994 4.39727M3 3L7.75 7.75L3 3ZM7.75 7.75V11.5C7.75 13.8472 9.65279 15.75 12 15.75C13.0463 15.75 14.0043 15.3719 14.7449 14.7449M7.75 7.75L14.7449 14.7449L7.75 7.75Z" fill="black"/>
</mask>
<g mask="url(#mask0_85_894)">
<g filter="url(#filter0_f_85_894)">
<ellipse cx="8.71542" cy="14.1921" rx="0.57461" ry="3.20593" transform="rotate(-21.6202 8.71542 14.1921)" fill="url(#paint0_linear_85_894)"/>
</g>
</g>
<path d="M16.25 11.5V7C16.25 4.65279 14.3472 2.75 12 2.75C10.6334 2.75 9.41741 3.39504 8.63994 4.39727M3 3L7.75 7.75L3 3ZM7.75 7.75V11.5C7.75 13.8472 9.65279 15.75 12 15.75C13.0463 15.75 14.0043 15.3719 14.7449 14.7449M7.75 7.75L14.7449 14.7449L7.75 7.75Z" fill="url(#paint1_linear_85_894)"/>
<path d="M16.25 11.5V7C16.25 4.65279 14.3472 2.75 12 2.75C10.6334 2.75 9.41741 3.39504 8.63994 4.39727M3 3L7.75 7.75M7.75 7.75V11.5C7.75 13.8472 9.65279 15.75 12 15.75C13.0463 15.75 14.0043 15.3719 14.7449 14.7449L7.75 7.75Z" stroke="url(#paint2_linear_85_894)" stroke-width="1.5" stroke-linecap="round" stroke-linejoin="round"/>
<path d="M3 3L7.75 7.75L14.7449 14.7449L17.0474 17.0474L21 21" stroke="url(#paint3_linear_85_894)" stroke-width="1.5" stroke-linecap="round" stroke-linejoin="round"/>
<path d="M17.0474 17.0474C15.715 18.2605 13.9439 19 12 19M12 19C8.92448 19 6.28135 17.1489 5.12402 14.5M12 19V21.25" stroke="url(#paint4_linear_85_894)" stroke-width="1.5" stroke-linecap="round" stroke-linejoin="round"/>
<defs>
<filter id="filter0_f_85_894" x="3.41895" y="7.20407" width="10.5928" height="13.976" filterUnits="userSpaceOnUse" color-interpolation-filters="sRGB">
<feFlood flood-opacity="0" result="BackgroundImageFix"/>
<feBlend mode="normal" in="SourceGraphic" in2="BackgroundImageFix" result="shape"/>
<feGaussianBlur stdDeviation="2" result="effect1_foregroundBlur_85_894"/>
</filter>
<linearGradient id="paint0_linear_85_894" x1="8.71542" y1="10.9862" x2="8.71542" y2="17.398" gradientUnits="userSpaceOnUse">
<stop stop-color="#575757"/>
<stop offset="1" stop-color="#151515"/>
</linearGradient>
<linearGradient id="paint1_linear_85_894" x1="9.625" y1="2.75" x2="9.625" y2="15.75" gradientUnits="userSpaceOnUse">
<stop stop-color="#E3E3E3" stop-opacity="0.6"/>
<stop offset="1" stop-color="#BBBBC0" stop-opacity="0.6"/>
</linearGradient>
<linearGradient id="paint2_linear_85_894" x1="9.625" y1="2.75" x2="9.625" y2="15.75" gradientUnits="userSpaceOnUse">
<stop stop-color="white"/>
<stop offset="1" stop-color="white" stop-opacity="0"/>
</linearGradient>
<linearGradient id="paint3_linear_85_894" x1="12" y1="3" x2="12" y2="21" gradientUnits="userSpaceOnUse">
<stop stop-color="#575757"/>
<stop offset="1" stop-color="#151515"/>
</linearGradient>
<linearGradient id="paint4_linear_85_894" x1="11.0857" y1="14.5" x2="11.0857" y2="21.25" gradientUnits="userSpaceOnUse">
<stop stop-color="#575757"/>
<stop offset="1" stop-color="#151515"/>
</linearGradient>
</defs>
</svg>
