<svg width="24" height="24" viewBox="0 0 24 24" fill="none" xmlns="http://www.w3.org/2000/svg">
<mask id="mask0_85_903" style="mask-type:alpha" maskUnits="userSpaceOnUse" x="7" y="2" width="10" height="14">
<path d="M12.0009 15.75C9.65377 15.75 7.75098 13.8472 7.75098 11.5V7C7.75098 4.65279 9.65377 2.75 12.0009 2.75C14.3481 2.75 16.2509 4.65279 16.2509 7V11.5C16.2509 13.8472 14.3481 15.75 12.0009 15.75Z" fill="black"/>
</mask>
<g mask="url(#mask0_85_903)">
<g filter="url(#filter0_f_85_903)">
<ellipse cx="14.2027" cy="14.3576" rx="0.859598" ry="3.20593" transform="rotate(59.7499 14.2027 14.3576)" fill="url(#paint0_linear_85_903)"/>
</g>
</g>
<path d="M12.0009 15.75C9.65377 15.75 7.75098 13.8472 7.75098 11.5V7C7.75098 4.65279 9.65377 2.75 12.0009 2.75C14.3481 2.75 16.2509 4.65279 16.2509 7V11.5C16.2509 13.8472 14.3481 15.75 12.0009 15.75Z" fill="url(#paint1_linear_85_903)" stroke="url(#paint2_linear_85_903)" stroke-width="1.5" stroke-linecap="round" stroke-linejoin="round"/>
<path d="M12.0009 19C15.0764 19 17.7195 17.1489 18.8769 14.5M12.0009 19C8.92546 19 6.28233 17.1489 5.125 14.5M12.0009 19V21.25" stroke="url(#paint3_linear_85_903)" stroke-width="1.5" stroke-linecap="round" stroke-linejoin="round"/>
<defs>
<filter id="filter0_f_85_903" x="7.39941" y="8.57959" width="13.6064" height="11.5561" filterUnits="userSpaceOnUse" color-interpolation-filters="sRGB">
<feFlood flood-opacity="0" result="BackgroundImageFix"/>
<feBlend mode="normal" in="SourceGraphic" in2="BackgroundImageFix" result="shape"/>
<feGaussianBlur stdDeviation="2" result="effect1_foregroundBlur_85_903"/>
</filter>
<linearGradient id="paint0_linear_85_903" x1="14.2027" y1="11.1517" x2="14.2027" y2="17.5636" gradientUnits="userSpaceOnUse">
<stop stop-color="#575757"/>
<stop offset="1" stop-color="#151515"/>
</linearGradient>
<linearGradient id="paint1_linear_85_903" x1="12.001" y1="2.75" x2="12.001" y2="15.75" gradientUnits="userSpaceOnUse">
<stop stop-color="#E3E3E3" stop-opacity="0.6"/>
<stop offset="1" stop-color="#BBBBC0" stop-opacity="0.6"/>
</linearGradient>
<linearGradient id="paint2_linear_85_903" x1="12.001" y1="2.75" x2="12.001" y2="15.75" gradientUnits="userSpaceOnUse">
<stop stop-color="white"/>
<stop offset="1" stop-color="white" stop-opacity="0"/>
</linearGradient>
<linearGradient id="paint3_linear_85_903" x1="12.0009" y1="14.5" x2="12.0009" y2="21.25" gradientUnits="userSpaceOnUse">
<stop stop-color="#575757"/>
<stop offset="1" stop-color="#151515"/>
</linearGradient>
</defs>
</svg>
