<svg width="19" height="19" viewBox="0 0 19 19" fill="none" xmlns="http://www.w3.org/2000/svg">
<mask id="mask0_98_10" style="mask-type:alpha" maskUnits="userSpaceOnUse" x="2" y="2" width="15" height="15">
<path d="M2.25 14.6029V3.89706C2.25 2.57941 3.34804 2.25 3.89706 2.25H12.5441H14.6029C15.9206 2.25 16.25 3.07353 16.25 3.48529V14.6029C16.25 15.9206 15.4265 16.25 15.0147 16.25H5.13235H3.48529C2.49706 16.25 2.25 15.152 2.25 14.6029Z" fill="black"/>
</mask>
<g mask="url(#mask0_98_10)">
<g filter="url(#filter0_f_98_10)">
<path d="M6.28889 9.25C5.14063 9.25 3.25875 10.8186 2.46134 11.6029C2.30186 12.8578 2.07858 15.5559 2.46134 16.3088C2.84409 17.0618 3.89667 17.25 4.37512 17.25H16.3362C16.8147 17.25 17.293 17.25 17.7714 16.7794C18.1542 16.4029 18.25 15.2108 18.25 14.8971V10.1912C17.2931 10.9755 14.8052 12.5441 12.5087 12.5441C9.638 12.5441 7.72423 9.25 6.28889 9.25Z" fill="url(#paint0_linear_98_10)"/>
</g>
<g filter="url(#filter1_f_98_10)">
<circle cx="13.25" cy="6.25" r="2.25" stroke="url(#paint1_linear_98_10)" stroke-width="1.5"/>
</g>
</g>
<path d="M0.75 15.75V2.75C0.75 1.15 2.08333 0.75 2.75 0.75H13.25H15.75C17.35 0.75 17.75 1.75 17.75 2.25V15.75C17.75 17.35 16.75 17.75 16.25 17.75H4.25H2.25C1.05 17.75 0.75 16.4167 0.75 15.75Z" fill="url(#paint2_linear_98_10)" stroke="url(#paint3_linear_98_10)" stroke-width="1.5"/>
<path d="M5.28889 9.25C4.14063 9.25 2.25875 10.8186 1.46134 11.6029C1.30186 12.8578 1.07858 15.5559 1.46134 16.3088C1.84409 17.0618 2.89667 17.25 3.37512 17.25H15.3362C15.8147 17.25 16.293 17.25 16.7714 16.7794C17.1542 16.4029 17.25 15.2108 17.25 14.8971V10.1912C16.2931 10.9755 13.8052 12.5441 11.5087 12.5441C8.638 12.5441 6.72423 9.25 5.28889 9.25Z" fill="url(#paint4_linear_98_10)"/>
<circle cx="12.25" cy="6.25" r="2.25" stroke="url(#paint5_linear_98_10)" stroke-width="1.5"/>
<defs>
<filter id="filter0_f_98_10" x="1.25" y="8.25" width="18" height="10" filterUnits="userSpaceOnUse" color-interpolation-filters="sRGB">
<feFlood flood-opacity="0" result="BackgroundImageFix"/>
<feBlend mode="normal" in="SourceGraphic" in2="BackgroundImageFix" result="shape"/>
<feGaussianBlur stdDeviation="0.5" result="effect1_foregroundBlur_98_10"/>
</filter>
<filter id="filter1_f_98_10" x="9.25" y="2.25" width="8" height="8" filterUnits="userSpaceOnUse" color-interpolation-filters="sRGB">
<feFlood flood-opacity="0" result="BackgroundImageFix"/>
<feBlend mode="normal" in="SourceGraphic" in2="BackgroundImageFix" result="shape"/>
<feGaussianBlur stdDeviation="0.5" result="effect1_foregroundBlur_98_10"/>
</filter>
<linearGradient id="paint0_linear_98_10" x1="10.25" y1="9.25" x2="10.25" y2="17.25" gradientUnits="userSpaceOnUse">
<stop stop-color="#575757"/>
<stop offset="1" stop-color="#151515"/>
</linearGradient>
<linearGradient id="paint1_linear_98_10" x1="13.25" y1="3.25" x2="13.25" y2="9.25" gradientUnits="userSpaceOnUse">
<stop stop-color="#575757"/>
<stop offset="1" stop-color="#151515"/>
</linearGradient>
<linearGradient id="paint2_linear_98_10" x1="9.25" y1="0.75" x2="9.25" y2="17.75" gradientUnits="userSpaceOnUse">
<stop stop-color="#E3E3E3" stop-opacity="0.6"/>
<stop offset="1" stop-color="#BBBBC0" stop-opacity="0.6"/>
</linearGradient>
<linearGradient id="paint3_linear_98_10" x1="9.25" y1="0.75" x2="9.25" y2="17.75" gradientUnits="userSpaceOnUse">
<stop stop-color="white"/>
<stop offset="1" stop-color="white" stop-opacity="0"/>
</linearGradient>
<linearGradient id="paint4_linear_98_10" x1="9.25" y1="9.25" x2="9.25" y2="17.25" gradientUnits="userSpaceOnUse">
<stop stop-color="#575757"/>
<stop offset="1" stop-color="#151515"/>
</linearGradient>
<linearGradient id="paint5_linear_98_10" x1="12.25" y1="3.25" x2="12.25" y2="9.25" gradientUnits="userSpaceOnUse">
<stop stop-color="#575757"/>
<stop offset="1" stop-color="#151515"/>
</linearGradient>
</defs>
</svg>
