<svg width="16" height="16" viewBox="0 0 16 16" fill="none" xmlns="http://www.w3.org/2000/svg">
<mask id="mask0_100_12" style="mask-type:alpha" maskUnits="userSpaceOnUse" x="0" y="0" width="16" height="16">
<path d="M0 14.1176V1.88235C0 0.376471 1.2549 0 1.88235 0H11.7647H14.1176C15.6235 0 16 0.941176 16 1.41176V14.1176C16 15.6235 15.0588 16 14.5882 16H3.29412H1.41176C0.282353 16 0 14.7451 0 14.1176Z" fill="black"/>
</mask>
<g mask="url(#mask0_100_12)">
<g filter="url(#filter0_f_100_12)">
<path d="M3.5 8.53422L0 12.1624V15.7906C0 16.7581 1.16667 17 1.75 17H14L5.83333 8.53422C4.9 7.56669 3.88889 8.13109 3.5 8.53422Z" fill="url(#paint0_linear_100_12)"/>
<path d="M3.5 8.53422L0 12.1624V15.7906C0 16.7581 1.16667 17 1.75 17H14L5.83333 8.53422C4.9 7.56669 3.88889 8.13109 3.5 8.53422Z" stroke="url(#paint1_linear_100_12)"/>
</g>
<g filter="url(#filter1_f_100_12)">
<circle cx="11.5" cy="5.5" r="2.5" fill="#D9D9D9"/>
<circle cx="11.5" cy="5.5" r="1.75" stroke="url(#paint2_linear_100_12)" stroke-width="1.5"/>
</g>
</g>
<mask id="mask1_100_12" style="mask-type:alpha" maskUnits="userSpaceOnUse" x="0" y="0" width="16" height="16">
<path d="M0 14.1176V1.88235C0 0.376471 1.2549 0 1.88235 0H11.7647H14.1176C15.6235 0 16 0.941176 16 1.41176V14.1176C16 15.6235 15.0588 16 14.5882 16H3.29412H1.41176C0.282353 16 0 14.7451 0 14.1176Z" fill="black"/>
</mask>
<g mask="url(#mask1_100_12)">
<path d="M0 14.1176V1.88235C0 0.376471 1.2549 0 1.88235 0H11.7647H14.1176C15.6235 0 16 0.941176 16 1.41176V14.1176C16 15.6235 15.0588 16 14.5882 16H3.29412H1.41176C0.282353 16 0 14.7451 0 14.1176Z" fill="url(#paint3_linear_100_12)" stroke="url(#paint4_linear_100_12)"/>
<path d="M3 9.00007L0 12.0001V15C0 15.8 1 16 1.5 16H12L5 9.00007C4.2 8.20007 3.33333 8.66674 3 9.00007Z" fill="url(#paint5_linear_100_12)" stroke="url(#paint6_linear_100_12)"/>
<circle cx="10.5" cy="5.5" r="1.75" fill="#D9D9D9" stroke="url(#paint7_linear_100_12)" stroke-width="1.5"/>
</g>
<defs>
<filter id="filter0_f_100_12" x="-1.5" y="6.50003" width="17.6768" height="12" filterUnits="userSpaceOnUse" color-interpolation-filters="sRGB">
<feFlood flood-opacity="0" result="BackgroundImageFix"/>
<feBlend mode="normal" in="SourceGraphic" in2="BackgroundImageFix" result="shape"/>
<feGaussianBlur stdDeviation="0.5" result="effect1_foregroundBlur_100_12"/>
</filter>
<filter id="filter1_f_100_12" x="8" y="2" width="7" height="7" filterUnits="userSpaceOnUse" color-interpolation-filters="sRGB">
<feFlood flood-opacity="0" result="BackgroundImageFix"/>
<feBlend mode="normal" in="SourceGraphic" in2="BackgroundImageFix" result="shape"/>
<feGaussianBlur stdDeviation="0.5" result="effect1_foregroundBlur_100_12"/>
</filter>
<linearGradient id="paint0_linear_100_12" x1="7" y1="8" x2="7" y2="17" gradientUnits="userSpaceOnUse">
<stop stop-color="#575757"/>
<stop offset="1" stop-color="#151515"/>
</linearGradient>
<linearGradient id="paint1_linear_100_12" x1="7" y1="8" x2="7" y2="17" gradientUnits="userSpaceOnUse">
<stop stop-color="#575757"/>
<stop offset="1" stop-color="#151515"/>
</linearGradient>
<linearGradient id="paint2_linear_100_12" x1="11.5" y1="3" x2="11.5" y2="8" gradientUnits="userSpaceOnUse">
<stop stop-color="#575757"/>
<stop offset="1" stop-color="#151515"/>
</linearGradient>
<linearGradient id="paint3_linear_100_12" x1="8" y1="0" x2="8" y2="16" gradientUnits="userSpaceOnUse">
<stop stop-color="#E3E3E3" stop-opacity="0.6"/>
<stop offset="1" stop-color="#BBBBC0" stop-opacity="0.6"/>
</linearGradient>
<linearGradient id="paint4_linear_100_12" x1="8" y1="0" x2="8" y2="16" gradientUnits="userSpaceOnUse">
<stop stop-color="white"/>
<stop offset="1" stop-color="white" stop-opacity="0"/>
</linearGradient>
<linearGradient id="paint5_linear_100_12" x1="6" y1="8.55835" x2="6" y2="16" gradientUnits="userSpaceOnUse">
<stop stop-color="#575757"/>
<stop offset="1" stop-color="#151515"/>
</linearGradient>
<linearGradient id="paint6_linear_100_12" x1="6" y1="8.55835" x2="6" y2="16" gradientUnits="userSpaceOnUse">
<stop stop-color="#575757"/>
<stop offset="1" stop-color="#151515"/>
</linearGradient>
<linearGradient id="paint7_linear_100_12" x1="10.5" y1="3" x2="10.5" y2="8" gradientUnits="userSpaceOnUse">
<stop stop-color="#575757"/>
<stop offset="1" stop-color="#151515"/>
</linearGradient>
</defs>
</svg>
