<svg width="24" height="24" viewBox="0 0 24 24" fill="none" xmlns="http://www.w3.org/2000/svg">
<mask id="mask0_144_53" style="mask-type:alpha" maskUnits="userSpaceOnUse" x="8" y="2" width="8" height="9">
<path d="M15.75 6.5C15.75 8.57107 14.0711 10.25 12 10.25C9.92893 10.25 8.25 8.57107 8.25 6.5C8.25 4.42893 9.92893 2.75 12 2.75C14.0711 2.75 15.75 4.42893 15.75 6.5Z" fill="black"/>
</mask>
<g mask="url(#mask0_144_53)">
<g filter="url(#filter0_f_144_53)">
<ellipse cx="13.4083" cy="8.4642" rx="0.968208" ry="3.8917" transform="rotate(44.2228 13.4083 8.4642)" fill="url(#paint0_linear_144_53)"/>
</g>
</g>
<mask id="mask1_144_53" style="mask-type:alpha" maskUnits="userSpaceOnUse" x="4" y="13" width="16" height="8">
<path d="M12.0011 13.25C8.60997 13.25 6.03711 15.2643 4.9836 18.1129C4.5748 19.2182 5.51944 20.25 6.69796 20.25H17.3043C18.4828 20.25 19.4274 19.2182 19.0186 18.1129C17.9651 15.2643 15.3923 13.25 12.0011 13.25Z" fill="black"/>
</mask>
<g mask="url(#mask1_144_53)">
<g filter="url(#filter1_f_144_53)">
<ellipse cx="16.4083" cy="18.4642" rx="0.968208" ry="3.8917" transform="rotate(44.2228 16.4083 18.4642)" fill="url(#paint1_linear_144_53)"/>
</g>
<g filter="url(#filter2_f_144_53)">
<path d="M17.25 15V21.5M20.5 18.25H14" stroke="url(#paint2_linear_144_53)" stroke-width="1.5" stroke-linecap="round" stroke-linejoin="round"/>
</g>
</g>
<path d="M15.75 6.5C15.75 8.57107 14.0711 10.25 12 10.25C9.92893 10.25 8.25 8.57107 8.25 6.5C8.25 4.42893 9.92893 2.75 12 2.75C14.0711 2.75 15.75 4.42893 15.75 6.5Z" fill="url(#paint3_linear_144_53)" stroke="url(#paint4_linear_144_53)" stroke-width="1.5" stroke-linejoin="round"/>
<path d="M12.0011 13.25C8.60997 13.25 6.03711 15.2643 4.9836 18.1129C4.5748 19.2182 5.51944 20.25 6.69796 20.25H17.3043C18.4828 20.25 19.4274 19.2182 19.0186 18.1129C17.9651 15.2643 15.3923 13.25 12.0011 13.25Z" fill="url(#paint5_linear_144_53)" stroke="url(#paint6_linear_144_53)" stroke-width="1.5" stroke-linejoin="round"/>
<path d="M18.25 14V20.5M21.5 17.25H15" stroke="url(#paint7_linear_144_53)" stroke-width="1.5" stroke-linecap="round" stroke-linejoin="round"/>
<defs>
<filter id="filter0_f_144_53" x="3.60645" y="-1.40598" width="19.6045" height="19.7403" filterUnits="userSpaceOnUse" color-interpolation-filters="sRGB">
<feFlood flood-opacity="0" result="BackgroundImageFix"/>
<feBlend mode="normal" in="SourceGraphic" in2="BackgroundImageFix" result="shape"/>
<feGaussianBlur stdDeviation="3.5" result="effect1_foregroundBlur_144_53"/>
</filter>
<filter id="filter1_f_144_53" x="6.60645" y="8.59402" width="19.6045" height="19.7403" filterUnits="userSpaceOnUse" color-interpolation-filters="sRGB">
<feFlood flood-opacity="0" result="BackgroundImageFix"/>
<feBlend mode="normal" in="SourceGraphic" in2="BackgroundImageFix" result="shape"/>
<feGaussianBlur stdDeviation="3.5" result="effect1_foregroundBlur_144_53"/>
</filter>
<filter id="filter2_f_144_53" x="12.25" y="13.25" width="10" height="10" filterUnits="userSpaceOnUse" color-interpolation-filters="sRGB">
<feFlood flood-opacity="0" result="BackgroundImageFix"/>
<feBlend mode="normal" in="SourceGraphic" in2="BackgroundImageFix" result="shape"/>
<feGaussianBlur stdDeviation="0.5" result="effect1_foregroundBlur_144_53"/>
</filter>
<linearGradient id="paint0_linear_144_53" x1="13.4083" y1="4.5725" x2="13.4083" y2="12.3559" gradientUnits="userSpaceOnUse">
<stop stop-color="#575757"/>
<stop offset="1" stop-color="#151515"/>
</linearGradient>
<linearGradient id="paint1_linear_144_53" x1="16.4083" y1="14.5725" x2="16.4083" y2="22.3559" gradientUnits="userSpaceOnUse">
<stop stop-color="#575757"/>
<stop offset="1" stop-color="#151515"/>
</linearGradient>
<linearGradient id="paint2_linear_144_53" x1="17.25" y1="15" x2="17.25" y2="21.5" gradientUnits="userSpaceOnUse">
<stop stop-color="#575757"/>
<stop offset="1" stop-color="#151515"/>
</linearGradient>
<linearGradient id="paint3_linear_144_53" x1="12" y1="2.75" x2="12" y2="10.25" gradientUnits="userSpaceOnUse">
<stop stop-color="#E3E3E3" stop-opacity="0.6"/>
<stop offset="1" stop-color="#BBBBC0" stop-opacity="0.6"/>
</linearGradient>
<linearGradient id="paint4_linear_144_53" x1="12" y1="2.75" x2="12" y2="10.25" gradientUnits="userSpaceOnUse">
<stop stop-color="white"/>
<stop offset="1" stop-color="white" stop-opacity="0"/>
</linearGradient>
<linearGradient id="paint5_linear_144_53" x1="12.0011" y1="13.25" x2="12.0011" y2="20.25" gradientUnits="userSpaceOnUse">
<stop stop-color="#E3E3E3" stop-opacity="0.6"/>
<stop offset="1" stop-color="#BBBBC0" stop-opacity="0.6"/>
</linearGradient>
<linearGradient id="paint6_linear_144_53" x1="12.0011" y1="13.25" x2="12.0011" y2="20.25" gradientUnits="userSpaceOnUse">
<stop stop-color="white"/>
<stop offset="1" stop-color="white" stop-opacity="0"/>
</linearGradient>
<linearGradient id="paint7_linear_144_53" x1="18.25" y1="14" x2="18.25" y2="20.5" gradientUnits="userSpaceOnUse">
<stop stop-color="#575757"/>
<stop offset="1" stop-color="#151515"/>
</linearGradient>
</defs>
</svg>
