<svg width="24" height="24" viewBox="0 0 24 24" fill="none" xmlns="http://www.w3.org/2000/svg">
<mask id="mask0_149_54" style="mask-type:alpha" maskUnits="userSpaceOnUse" x="2" y="4" width="18" height="18">
<path d="M19.25 13C19.25 17.5563 15.5563 21.25 11 21.25C6.44365 21.25 2.75 17.5563 2.75 13C2.75 8.44365 6.44365 4.75 11 4.75C11.085 4.75 11.1697 4.75129 11.2541 4.75384V10.3502C11.2541 11.1903 11.2541 11.6103 11.4176 11.9312C11.5614 12.2135 11.7909 12.4429 12.0732 12.5867C12.394 12.7502 12.8141 12.7502 13.6541 12.7502H19.2463C19.2488 12.8332 19.25 12.9164 19.25 13Z" fill="black"/>
</mask>
<g mask="url(#mask0_149_54)">
<g filter="url(#filter0_f_149_54)">
<ellipse cx="15.2635" cy="19.4983" rx="0.859598" ry="3.50344" transform="rotate(51.0015 15.2635 19.4983)" fill="url(#paint0_linear_149_54)"/>
</g>
</g>
<path d="M21.0646 8.34668C20.3564 5.71557 18.2844 3.64355 15.6533 2.93538C15.3802 2.86188 15.2437 2.82513 15.1084 2.8651C14.9978 2.89777 14.8841 2.98492 14.8238 3.08323C14.75 3.20352 14.75 3.35986 14.75 3.67256V8.44998C14.75 8.73001 14.75 8.87002 14.8045 8.97698C14.8524 9.07106 14.9289 9.14755 15.023 9.19549C15.13 9.24998 15.27 9.24998 15.55 9.24998H20.3274C20.6401 9.24998 20.7965 9.24998 20.9168 9.17621C21.0151 9.11593 21.1022 9.00221 21.1349 8.89161C21.1748 8.75629 21.1381 8.61975 21.0646 8.34668Z" fill="url(#paint1_linear_149_54)" stroke="url(#paint2_linear_149_54)" stroke-width="1.5" stroke-linecap="round" stroke-linejoin="round"/>
<path d="M19.25 13C19.25 17.5563 15.5563 21.25 11 21.25C6.44365 21.25 2.75 17.5563 2.75 13C2.75 8.44365 6.44365 4.75 11 4.75C11.085 4.75 11.1697 4.75129 11.2541 4.75384V10.3502C11.2541 11.1903 11.2541 11.6103 11.4176 11.9312C11.5614 12.2135 11.7909 12.4429 12.0732 12.5867C12.394 12.7502 12.8141 12.7502 13.6541 12.7502H19.2463C19.2488 12.8332 19.25 12.9164 19.25 13Z" fill="url(#paint3_linear_149_54)" stroke="url(#paint4_linear_149_54)" stroke-width="1.5" stroke-linecap="round" stroke-linejoin="round"/>
<defs>
<filter id="filter0_f_149_54" x="6.4873" y="11.194" width="17.5527" height="16.6086" filterUnits="userSpaceOnUse" color-interpolation-filters="sRGB">
<feFlood flood-opacity="0" result="BackgroundImageFix"/>
<feBlend mode="normal" in="SourceGraphic" in2="BackgroundImageFix" result="shape"/>
<feGaussianBlur stdDeviation="3" result="effect1_foregroundBlur_149_54"/>
</filter>
<linearGradient id="paint0_linear_149_54" x1="15.2635" y1="15.9949" x2="15.2635" y2="23.0018" gradientUnits="userSpaceOnUse">
<stop stop-color="#575757"/>
<stop offset="1" stop-color="#151515"/>
</linearGradient>
<linearGradient id="paint1_linear_149_54" x1="17.9506" y1="2.84869" x2="17.9506" y2="9.24998" gradientUnits="userSpaceOnUse">
<stop stop-color="#575757"/>
<stop offset="1" stop-color="#151515"/>
</linearGradient>
<linearGradient id="paint2_linear_149_54" x1="17.9506" y1="2.84869" x2="17.9506" y2="9.24998" gradientUnits="userSpaceOnUse">
<stop stop-color="#575757"/>
<stop offset="1" stop-color="#151515"/>
</linearGradient>
<linearGradient id="paint3_linear_149_54" x1="11" y1="4.75" x2="11" y2="21.25" gradientUnits="userSpaceOnUse">
<stop stop-color="#E3E3E3" stop-opacity="0.6"/>
<stop offset="1" stop-color="#BBBBC0" stop-opacity="0.6"/>
</linearGradient>
<linearGradient id="paint4_linear_149_54" x1="11" y1="4.75" x2="11" y2="21.25" gradientUnits="userSpaceOnUse">
<stop stop-color="white"/>
<stop offset="1" stop-color="white" stop-opacity="0"/>
</linearGradient>
</defs>
</svg>
