<svg width="24" height="24" viewBox="0 0 24 24" fill="none" xmlns="http://www.w3.org/2000/svg">
<mask id="mask0_85_393" style="mask-type:alpha" maskUnits="userSpaceOnUse" x="3" y="2" width="17" height="19">
<path d="M11.25 9.25004H15.75C17.9591 9.25004 19.75 11.0409 19.75 13.25V13.8292C19.75 17.7895 16.5395 21 12.5792 21C9.91687 21 7.47366 19.525 6.23368 17.169L3.25 11.5L4.00061 10.5617C4.69063 9.69921 5.94921 9.55937 6.81174 10.2494L7.75 11V4.5C7.75 3.5335 8.5335 2.75 9.5 2.75C10.4665 2.75 11.25 3.5335 11.25 4.5V9.25004Z" fill="black"/>
</mask>
<g mask="url(#mask0_85_393)">
<g filter="url(#filter0_f_85_393)">
<ellipse cx="17.3653" cy="16.1253" rx="0.968208" ry="5.29972" transform="rotate(28.2999 17.3653 16.1253)" fill="url(#paint0_linear_85_393)"/>
</g>
</g>
<path d="M11.25 9.25004H15.75C17.9591 9.25004 19.75 11.0409 19.75 13.25V13.8292C19.75 17.7895 16.5395 21 12.5792 21C9.91687 21 7.47366 19.525 6.23368 17.169L3.25 11.5L4.00061 10.5617C4.69063 9.69921 5.94921 9.55937 6.81174 10.2494L7.75 11V4.5C7.75 3.5335 8.5335 2.75 9.5 2.75C10.4665 2.75 11.25 3.5335 11.25 4.5V9.25004Z" fill="url(#paint1_linear_85_393)" stroke="url(#paint2_linear_85_393)" stroke-linecap="square" stroke-linejoin="round"/>
<defs>
<filter id="filter0_f_85_393" x="8.71094" y="5.43616" width="17.3086" height="21.3783" filterUnits="userSpaceOnUse" color-interpolation-filters="sRGB">
<feFlood flood-opacity="0" result="BackgroundImageFix"/>
<feBlend mode="normal" in="SourceGraphic" in2="BackgroundImageFix" result="shape"/>
<feGaussianBlur stdDeviation="3" result="effect1_foregroundBlur_85_393"/>
</filter>
<linearGradient id="paint0_linear_85_393" x1="17.3653" y1="10.8256" x2="17.3653" y2="21.425" gradientUnits="userSpaceOnUse">
<stop stop-color="#575757"/>
<stop offset="1" stop-color="#151515"/>
</linearGradient>
<linearGradient id="paint1_linear_85_393" x1="11.5" y1="2.75" x2="11.5" y2="21" gradientUnits="userSpaceOnUse">
<stop stop-color="#E3E3E3" stop-opacity="0.6"/>
<stop offset="1" stop-color="#BBBBC0" stop-opacity="0.6"/>
</linearGradient>
<linearGradient id="paint2_linear_85_393" x1="11.5" y1="2.75" x2="11.5" y2="21" gradientUnits="userSpaceOnUse">
<stop stop-color="white"/>
<stop offset="1" stop-color="white" stop-opacity="0"/>
</linearGradient>
</defs>
</svg>
