<svg width="24" height="24" viewBox="0 0 24 24" fill="none" xmlns="http://www.w3.org/2000/svg">
<mask id="mask0_85_709" style="mask-type:alpha" maskUnits="userSpaceOnUse" x="2" y="2" width="20" height="20">
<path d="M21.25 12C21.25 17.1086 17.1086 21.25 12 21.25C6.89137 21.25 2.75 17.1086 2.75 12C2.75 6.89137 6.89137 2.75 12 2.75C17.1086 2.75 21.25 6.89137 21.25 12Z" fill="black"/>
</mask>
<g mask="url(#mask0_85_709)">
<g filter="url(#filter0_f_85_709)">
<path d="M15.25 8.25108C14.7561 7.78638 14.0806 7.5 13.3356 7.5C11.8225 7.5 10.5959 8.68147 10.5959 10.1389C10.5959 11.5963 11.75 12.75 11.75 12.75L11.7389 12.7778M11.7389 12.7778L10.0479 17H14.9795M11.7389 12.7778H9.5M11.7389 12.7778H14.9795" stroke="url(#paint0_linear_85_709)" stroke-linecap="round" stroke-linejoin="round"/>
</g>
</g>
<path d="M21.25 12C21.25 17.1086 17.1086 21.25 12 21.25C6.89137 21.25 2.75 17.1086 2.75 12C2.75 6.89137 6.89137 2.75 12 2.75C17.1086 2.75 21.25 6.89137 21.25 12Z" fill="url(#paint1_linear_85_709)" stroke="url(#paint2_linear_85_709)" stroke-linecap="round" stroke-linejoin="round"/>
<path d="M14.5 7.50108C14.0061 7.03638 13.3306 6.75 12.5856 6.75C11.0725 6.75 9.8459 7.93147 9.8459 9.38889C9.8459 10.8463 11 12 11 12L10.9889 12.0278M10.9889 12.0278L9.29795 16.25H14.2295M10.9889 12.0278H8.75M10.9889 12.0278H14.2295" stroke="url(#paint3_linear_85_709)" stroke-linecap="round" stroke-linejoin="round"/>
<defs>
<filter id="filter0_f_85_709" x="8.5" y="6.5" width="7.75" height="11.5" filterUnits="userSpaceOnUse" color-interpolation-filters="sRGB">
<feFlood flood-opacity="0" result="BackgroundImageFix"/>
<feBlend mode="normal" in="SourceGraphic" in2="BackgroundImageFix" result="shape"/>
<feGaussianBlur stdDeviation="0.25" result="effect1_foregroundBlur_85_709"/>
</filter>
<linearGradient id="paint0_linear_85_709" x1="12.375" y1="7.5" x2="12.375" y2="17" gradientUnits="userSpaceOnUse">
<stop stop-color="#575757"/>
<stop offset="1" stop-color="#151515"/>
</linearGradient>
<linearGradient id="paint1_linear_85_709" x1="12" y1="2.75" x2="12" y2="21.25" gradientUnits="userSpaceOnUse">
<stop stop-color="#E3E3E3" stop-opacity="0.6"/>
<stop offset="1" stop-color="#BBBBC0" stop-opacity="0.6"/>
</linearGradient>
<linearGradient id="paint2_linear_85_709" x1="12" y1="2.75" x2="12" y2="21.25" gradientUnits="userSpaceOnUse">
<stop stop-color="white"/>
<stop offset="1" stop-color="white" stop-opacity="0"/>
</linearGradient>
<linearGradient id="paint3_linear_85_709" x1="11.625" y1="6.75" x2="11.625" y2="16.25" gradientUnits="userSpaceOnUse">
<stop stop-color="#575757"/>
<stop offset="1" stop-color="#151515"/>
</linearGradient>
</defs>
</svg>
