<svg width="24" height="24" viewBox="0 0 24 24" fill="none" xmlns="http://www.w3.org/2000/svg">
<mask id="mask0_158_123" style="mask-type:alpha" maskUnits="userSpaceOnUse" x="3" y="2" width="18" height="13">
<path d="M9.42188 14.25H16.125C18.4032 14.25 20.25 12.3777 20.25 10.0682C20.25 7.75863 18.4032 5.88636 16.125 5.88636C15.9286 5.88636 15.7354 5.90028 15.5463 5.92719C15.0114 6.00333 14.4471 5.77668 14.1512 5.32464C13.1354 3.77296 11.3965 2.75 9.42188 2.75C6.28939 2.75 3.75 5.32436 3.75 8.5C3.75 11.6756 6.28939 14.25 9.42188 14.25Z" fill="black"/>
</mask>
<g mask="url(#mask0_158_123)">
<g filter="url(#filter0_f_158_123)">
<ellipse cx="17.9972" cy="12.1245" rx="0.767899" ry="5.31726" transform="rotate(25.6915 17.9972 12.1245)" fill="url(#paint0_linear_158_123)"/>
</g>
</g>
<path d="M11.8227 17.75L10.7773 20.25M6.8 17.75L5.75 20.25M16.8228 17.75L15.7773 20.25" stroke="url(#paint1_linear_158_123)" stroke-width="1.5" stroke-linecap="round" stroke-linejoin="round"/>
<path d="M9.42188 14.25H16.125C18.4032 14.25 20.25 12.3777 20.25 10.0682C20.25 7.75863 18.4032 5.88636 16.125 5.88636C15.9286 5.88636 15.7354 5.90028 15.5463 5.92719C15.0114 6.00333 14.4471 5.77668 14.1512 5.32464C13.1354 3.77296 11.3965 2.75 9.42188 2.75C6.28939 2.75 3.75 5.32436 3.75 8.5C3.75 11.6756 6.28939 14.25 9.42188 14.25Z" fill="url(#paint2_linear_158_123)" stroke="url(#paint3_linear_158_123)" stroke-width="1.5" stroke-linecap="round" stroke-linejoin="round"/>
<defs>
<filter id="filter0_f_158_123" x="8.58984" y="0.321167" width="18.8145" height="23.6067" filterUnits="userSpaceOnUse" color-interpolation-filters="sRGB">
<feFlood flood-opacity="0" result="BackgroundImageFix"/>
<feBlend mode="normal" in="SourceGraphic" in2="BackgroundImageFix" result="shape"/>
<feGaussianBlur stdDeviation="3.5" result="effect1_foregroundBlur_158_123"/>
</filter>
<linearGradient id="paint0_linear_158_123" x1="17.9972" y1="6.80725" x2="17.9972" y2="17.4418" gradientUnits="userSpaceOnUse">
<stop stop-color="#575757"/>
<stop offset="1" stop-color="#151515"/>
</linearGradient>
<linearGradient id="paint1_linear_158_123" x1="11.2864" y1="17.75" x2="11.2864" y2="20.25" gradientUnits="userSpaceOnUse">
<stop stop-color="#575757"/>
<stop offset="1" stop-color="#151515"/>
</linearGradient>
<linearGradient id="paint2_linear_158_123" x1="12" y1="2.75" x2="12" y2="14.25" gradientUnits="userSpaceOnUse">
<stop stop-color="#E3E3E3" stop-opacity="0.6"/>
<stop offset="1" stop-color="#BBBBC0" stop-opacity="0.6"/>
</linearGradient>
<linearGradient id="paint3_linear_158_123" x1="12" y1="2.75" x2="12" y2="14.25" gradientUnits="userSpaceOnUse">
<stop stop-color="white"/>
<stop offset="1" stop-color="white" stop-opacity="0"/>
</linearGradient>
</defs>
</svg>
