<svg width="24" height="24" viewBox="0 0 24 24" fill="none" xmlns="http://www.w3.org/2000/svg">
<mask id="mask0_85_278" style="mask-type:alpha" maskUnits="userSpaceOnUse" x="4" y="2" width="16" height="20">
<path d="M19.25 21.25V4.75C19.25 3.64543 18.3546 2.75 17.25 2.75H6.75C5.64543 2.75 4.75 3.64543 4.75 4.75V21.25L7.33333 19L9.66667 21.25L12 19L14.3333 21.25L16.6667 19L19.25 21.25Z" fill="black"/>
</mask>
<g mask="url(#mask0_85_278)">
<g filter="url(#filter0_f_85_278)">
<path d="M9 8.29999H15.5M9 12.3H11.5" stroke="url(#paint0_linear_85_278)" stroke-linecap="round" stroke-linejoin="round"/>
</g>
<g filter="url(#filter1_f_85_278)">
<ellipse cx="18.3169" cy="13.8258" rx="0.968208" ry="6.76982" transform="rotate(11.6636 18.3169 13.8258)" fill="url(#paint1_linear_85_278)"/>
</g>
</g>
<path d="M19.25 21.25V4.75C19.25 3.64543 18.3546 2.75 17.25 2.75H6.75C5.64543 2.75 4.75 3.64543 4.75 4.75V21.25L7.33333 19L9.66667 21.25L12 19L14.3333 21.25L16.6667 19L19.25 21.25Z" fill="url(#paint2_linear_85_278)" stroke="url(#paint3_linear_85_278)" stroke-linecap="round" stroke-linejoin="round"/>
<path d="M8.75 7.75H15.25M8.75 11.75H11.25" stroke="url(#paint4_linear_85_278)" stroke-linecap="round" stroke-linejoin="round"/>
<defs>
<filter id="filter0_f_85_278" x="8" y="7.29999" width="8.5" height="6" filterUnits="userSpaceOnUse" color-interpolation-filters="sRGB">
<feFlood flood-opacity="0" result="BackgroundImageFix"/>
<feBlend mode="normal" in="SourceGraphic" in2="BackgroundImageFix" result="shape"/>
<feGaussianBlur stdDeviation="0.25" result="effect1_foregroundBlur_85_278"/>
</filter>
<filter id="filter1_f_85_278" x="10.6514" y="1.19278" width="15.3311" height="25.266" filterUnits="userSpaceOnUse" color-interpolation-filters="sRGB">
<feFlood flood-opacity="0" result="BackgroundImageFix"/>
<feBlend mode="normal" in="SourceGraphic" in2="BackgroundImageFix" result="shape"/>
<feGaussianBlur stdDeviation="3" result="effect1_foregroundBlur_85_278"/>
</filter>
<linearGradient id="paint0_linear_85_278" x1="12.25" y1="8.29999" x2="12.25" y2="12.3" gradientUnits="userSpaceOnUse">
<stop stop-color="#575757"/>
<stop offset="1" stop-color="#151515"/>
</linearGradient>
<linearGradient id="paint1_linear_85_278" x1="18.3169" y1="7.05595" x2="18.3169" y2="20.5956" gradientUnits="userSpaceOnUse">
<stop stop-color="#575757"/>
<stop offset="1" stop-color="#151515"/>
</linearGradient>
<linearGradient id="paint2_linear_85_278" x1="12" y1="2.75" x2="12" y2="21.25" gradientUnits="userSpaceOnUse">
<stop stop-color="#E3E3E3" stop-opacity="0.6"/>
<stop offset="1" stop-color="#BBBBC0" stop-opacity="0.6"/>
</linearGradient>
<linearGradient id="paint3_linear_85_278" x1="12" y1="2.75" x2="12" y2="21.25" gradientUnits="userSpaceOnUse">
<stop stop-color="white"/>
<stop offset="1" stop-color="white" stop-opacity="0"/>
</linearGradient>
<linearGradient id="paint4_linear_85_278" x1="12" y1="7.75" x2="12" y2="11.75" gradientUnits="userSpaceOnUse">
<stop stop-color="#575757"/>
<stop offset="1" stop-color="#151515"/>
</linearGradient>
</defs>
</svg>
