<svg width="24" height="24" viewBox="0 0 24 24" fill="none" xmlns="http://www.w3.org/2000/svg">
<mask id="mask0_85_122" style="mask-type:alpha" maskUnits="userSpaceOnUse" x="1" y="3" width="20" height="20">
<path d="M13.1325 21.5344C13.3778 22.5155 14.758 22.5542 15.0577 21.5883L20.1858 5.0646C20.4244 4.29579 19.7031 3.57454 18.9343 3.81313L2.41066 8.94116C1.44476 9.24092 1.48337 10.6211 2.46451 10.8664L10.4168 12.8545C10.7751 12.944 11.0549 13.2238 11.1444 13.5821L13.1325 21.5344Z" fill="url(#paint0_linear_85_122)" stroke="url(#paint1_linear_85_122)" stroke-linecap="round" stroke-linejoin="round"/>
</mask>
<g mask="url(#mask0_85_122)">
<g filter="url(#filter0_f_85_122)">
<ellipse cx="16.6908" cy="14.3395" rx="0.968208" ry="6.50097" transform="rotate(25.7011 16.6908 14.3395)" fill="url(#paint2_linear_85_122)"/>
</g>
</g>
<path d="M13.1325 21.5344C13.3778 22.5155 14.758 22.5542 15.0577 21.5883L20.1858 5.0646C20.4244 4.29579 19.7031 3.57454 18.9343 3.81313L2.41066 8.94116C1.44476 9.24092 1.48337 10.6211 2.46451 10.8664L10.4168 12.8545C10.7751 12.944 11.0549 13.2238 11.1444 13.5821L13.1325 21.5344Z" fill="url(#paint3_linear_85_122)" stroke="url(#paint4_linear_85_122)" stroke-linecap="round" stroke-linejoin="round"/>
<defs>
<filter id="filter0_f_85_122" x="7.73926" y="2.46642" width="17.9033" height="23.7462" filterUnits="userSpaceOnUse" color-interpolation-filters="sRGB">
<feFlood flood-opacity="0" result="BackgroundImageFix"/>
<feBlend mode="normal" in="SourceGraphic" in2="BackgroundImageFix" result="shape"/>
<feGaussianBlur stdDeviation="3" result="effect1_foregroundBlur_85_122"/>
</filter>
<linearGradient id="paint0_linear_85_122" x1="10.9696" y1="3.76672" x2="10.9696" y2="22.2919" gradientUnits="userSpaceOnUse">
<stop stop-color="#E3E3E3" stop-opacity="0.6"/>
<stop offset="1" stop-color="#BBBBC0" stop-opacity="0.6"/>
</linearGradient>
<linearGradient id="paint1_linear_85_122" x1="10.9696" y1="3.76672" x2="10.9696" y2="22.2919" gradientUnits="userSpaceOnUse">
<stop stop-color="white"/>
<stop offset="1" stop-color="white" stop-opacity="0"/>
</linearGradient>
<linearGradient id="paint2_linear_85_122" x1="16.6908" y1="7.83855" x2="16.6908" y2="20.8405" gradientUnits="userSpaceOnUse">
<stop stop-color="#575757"/>
<stop offset="1" stop-color="#151515"/>
</linearGradient>
<linearGradient id="paint3_linear_85_122" x1="10.9696" y1="3.76672" x2="10.9696" y2="22.2919" gradientUnits="userSpaceOnUse">
<stop stop-color="#E3E3E3" stop-opacity="0.6"/>
<stop offset="1" stop-color="#BBBBC0" stop-opacity="0.6"/>
</linearGradient>
<linearGradient id="paint4_linear_85_122" x1="10.9696" y1="3.76672" x2="10.9696" y2="22.2919" gradientUnits="userSpaceOnUse">
<stop stop-color="white"/>
<stop offset="1" stop-color="white" stop-opacity="0"/>
</linearGradient>
</defs>
</svg>
