<svg width="24" height="24" viewBox="0 0 24 24" fill="none" xmlns="http://www.w3.org/2000/svg">
<mask id="mask0_154_15" style="mask-type:alpha" maskUnits="userSpaceOnUse" x="2" y="4" width="20" height="8">
<path d="M2.75 6.75C2.75 5.64543 3.64543 4.75 4.75 4.75H19.25C20.3546 4.75 21.25 5.64543 21.25 6.75V12H2.75V6.75Z" fill="black"/>
</mask>
<g mask="url(#mask0_154_15)">
<g filter="url(#filter0_f_154_15)">
<path d="M6.9502 8C7.36441 8 7.7002 8.33579 7.7002 8.75C7.7002 9.16421 7.36441 9.5 6.9502 9.5C6.53599 9.5 6.2002 9.16421 6.2002 8.75C6.2002 8.33579 6.53599 8 6.9502 8Z" fill="url(#paint0_linear_154_15)"/>
<path d="M6.9502 8C7.36441 8 7.7002 8.33579 7.7002 8.75C7.7002 9.16421 7.36441 9.5 6.9502 9.5C6.53599 9.5 6.2002 9.16421 6.2002 8.75C6.2002 8.33579 6.53599 8 6.9502 8Z" stroke="url(#paint1_linear_154_15)" stroke-width="0.5"/>
</g>
<g filter="url(#filter1_f_154_15)">
<ellipse cx="18.8484" cy="8.05294" rx="0.602821" ry="5.31726" transform="rotate(25.6915 18.8484 8.05294)" fill="url(#paint2_linear_154_15)"/>
</g>
</g>
<mask id="mask1_154_15" style="mask-type:alpha" maskUnits="userSpaceOnUse" x="2" y="12" width="20" height="8">
<path d="M2.75 12H21.25V17.25C21.25 18.3546 20.3546 19.25 19.25 19.25H4.75C3.64543 19.25 2.75 18.3546 2.75 17.25V12Z" fill="black"/>
</mask>
<g mask="url(#mask1_154_15)">
<g filter="url(#filter2_f_154_15)">
<path d="M7.7002 16.05C7.7002 15.6358 7.36441 15.3 6.9502 15.3C6.53599 15.3 6.2002 15.6358 6.2002 16.05C6.2002 16.4642 6.53599 16.8 6.9502 16.8C7.36441 16.8 7.7002 16.4642 7.7002 16.05Z" fill="url(#paint3_linear_154_15)"/>
<path d="M7.7002 16.05C7.7002 15.6358 7.36441 15.3 6.9502 15.3C6.53599 15.3 6.2002 15.6358 6.2002 16.05C6.2002 16.4642 6.53599 16.8 6.9502 16.8C7.36441 16.8 7.7002 16.4642 7.7002 16.05Z" stroke="url(#paint4_linear_154_15)" stroke-width="0.5"/>
</g>
<g filter="url(#filter3_f_154_15)">
<ellipse cx="16.8935" cy="16.0746" rx="0.65281" ry="5.31726" transform="rotate(25.6915 16.8935 16.0746)" fill="url(#paint5_linear_154_15)"/>
</g>
</g>
<path d="M2.75 6.75C2.75 5.64543 3.64543 4.75 4.75 4.75H19.25C20.3546 4.75 21.25 5.64543 21.25 6.75V12H2.75V6.75Z" fill="url(#paint6_linear_154_15)" stroke="url(#paint7_linear_154_15)" stroke-width="1.5" stroke-linecap="square" stroke-linejoin="round"/>
<path d="M2.75 12H21.25V17.25C21.25 18.3546 20.3546 19.25 19.25 19.25H4.75C3.64543 19.25 2.75 18.3546 2.75 17.25V12Z" fill="url(#paint8_linear_154_15)" stroke="url(#paint9_linear_154_15)" stroke-width="1.5" stroke-linecap="square" stroke-linejoin="round"/>
<path d="M6.5 7.625C6.91421 7.625 7.25 7.96079 7.25 8.375C7.25 8.78921 6.91421 9.125 6.5 9.125C6.08579 9.125 5.75 8.78921 5.75 8.375C5.75 7.96079 6.08579 7.625 6.5 7.625Z" fill="url(#paint10_linear_154_15)" stroke="url(#paint11_linear_154_15)" stroke-width="0.5"/>
<path d="M7.25 15.625C7.25 15.2108 6.91421 14.875 6.5 14.875C6.08579 14.875 5.75 15.2108 5.75 15.625C5.75 16.0392 6.08579 16.375 6.5 16.375C6.91421 16.375 7.25 16.0392 7.25 15.625Z" fill="url(#paint12_linear_154_15)" stroke="url(#paint13_linear_154_15)" stroke-width="0.5"/>
<defs>
<filter id="filter0_f_154_15" x="5.4502" y="7.25" width="3" height="3" filterUnits="userSpaceOnUse" color-interpolation-filters="sRGB">
<feFlood flood-opacity="0" result="BackgroundImageFix"/>
<feBlend mode="normal" in="SourceGraphic" in2="BackgroundImageFix" result="shape"/>
<feGaussianBlur stdDeviation="0.25" result="effect1_foregroundBlur_154_15"/>
</filter>
<filter id="filter1_f_154_15" x="10.4795" y="-2.74591" width="16.7373" height="21.5977" filterUnits="userSpaceOnUse" color-interpolation-filters="sRGB">
<feFlood flood-opacity="0" result="BackgroundImageFix"/>
<feBlend mode="normal" in="SourceGraphic" in2="BackgroundImageFix" result="shape"/>
<feGaussianBlur stdDeviation="3" result="effect1_foregroundBlur_154_15"/>
</filter>
<filter id="filter2_f_154_15" x="5.4502" y="14.55" width="3" height="3" filterUnits="userSpaceOnUse" color-interpolation-filters="sRGB">
<feFlood flood-opacity="0" result="BackgroundImageFix"/>
<feBlend mode="normal" in="SourceGraphic" in2="BackgroundImageFix" result="shape"/>
<feGaussianBlur stdDeviation="0.25" result="effect1_foregroundBlur_154_15"/>
</filter>
<filter id="filter3_f_154_15" x="8.51367" y="5.27451" width="16.7598" height="21.6002" filterUnits="userSpaceOnUse" color-interpolation-filters="sRGB">
<feFlood flood-opacity="0" result="BackgroundImageFix"/>
<feBlend mode="normal" in="SourceGraphic" in2="BackgroundImageFix" result="shape"/>
<feGaussianBlur stdDeviation="3" result="effect1_foregroundBlur_154_15"/>
</filter>
<linearGradient id="paint0_linear_154_15" x1="6.9502" y1="8" x2="6.9502" y2="9.5" gradientUnits="userSpaceOnUse">
<stop stop-color="#575757"/>
<stop offset="1" stop-color="#151515"/>
</linearGradient>
<linearGradient id="paint1_linear_154_15" x1="6.9502" y1="8" x2="6.9502" y2="9.5" gradientUnits="userSpaceOnUse">
<stop stop-color="#575757"/>
<stop offset="1" stop-color="#151515"/>
</linearGradient>
<linearGradient id="paint2_linear_154_15" x1="18.8484" y1="2.73568" x2="18.8484" y2="13.3702" gradientUnits="userSpaceOnUse">
<stop stop-color="#575757"/>
<stop offset="1" stop-color="#151515"/>
</linearGradient>
<linearGradient id="paint3_linear_154_15" x1="6.9502" y1="15.3" x2="6.9502" y2="16.8" gradientUnits="userSpaceOnUse">
<stop stop-color="#575757"/>
<stop offset="1" stop-color="#151515"/>
</linearGradient>
<linearGradient id="paint4_linear_154_15" x1="6.9502" y1="15.3" x2="6.9502" y2="16.8" gradientUnits="userSpaceOnUse">
<stop stop-color="#575757"/>
<stop offset="1" stop-color="#151515"/>
</linearGradient>
<linearGradient id="paint5_linear_154_15" x1="16.8935" y1="10.7574" x2="16.8935" y2="21.3919" gradientUnits="userSpaceOnUse">
<stop stop-color="#575757"/>
<stop offset="1" stop-color="#151515"/>
</linearGradient>
<linearGradient id="paint6_linear_154_15" x1="12" y1="4.75" x2="12" y2="12" gradientUnits="userSpaceOnUse">
<stop stop-color="#E3E3E3" stop-opacity="0.6"/>
<stop offset="1" stop-color="#BBBBC0" stop-opacity="0.6"/>
</linearGradient>
<linearGradient id="paint7_linear_154_15" x1="12" y1="4.75" x2="12" y2="12" gradientUnits="userSpaceOnUse">
<stop stop-color="white"/>
<stop offset="1" stop-color="white" stop-opacity="0"/>
</linearGradient>
<linearGradient id="paint8_linear_154_15" x1="12" y1="12" x2="12" y2="19.25" gradientUnits="userSpaceOnUse">
<stop stop-color="#E3E3E3" stop-opacity="0.6"/>
<stop offset="1" stop-color="#BBBBC0" stop-opacity="0.6"/>
</linearGradient>
<linearGradient id="paint9_linear_154_15" x1="12" y1="12" x2="12" y2="19.25" gradientUnits="userSpaceOnUse">
<stop stop-color="white"/>
<stop offset="1" stop-color="white" stop-opacity="0"/>
</linearGradient>
<linearGradient id="paint10_linear_154_15" x1="6.5" y1="7.625" x2="6.5" y2="9.125" gradientUnits="userSpaceOnUse">
<stop stop-color="#575757"/>
<stop offset="1" stop-color="#151515"/>
</linearGradient>
<linearGradient id="paint11_linear_154_15" x1="6.5" y1="7.625" x2="6.5" y2="9.125" gradientUnits="userSpaceOnUse">
<stop stop-color="#575757"/>
<stop offset="1" stop-color="#151515"/>
</linearGradient>
<linearGradient id="paint12_linear_154_15" x1="6.5" y1="14.875" x2="6.5" y2="16.375" gradientUnits="userSpaceOnUse">
<stop stop-color="#575757"/>
<stop offset="1" stop-color="#151515"/>
</linearGradient>
<linearGradient id="paint13_linear_154_15" x1="6.5" y1="14.875" x2="6.5" y2="16.375" gradientUnits="userSpaceOnUse">
<stop stop-color="#575757"/>
<stop offset="1" stop-color="#151515"/>
</linearGradient>
</defs>
</svg>
