<svg width="24" height="24" viewBox="0 0 24 24" fill="none" xmlns="http://www.w3.org/2000/svg">
<mask id="mask0_145_2" style="mask-type:alpha" maskUnits="userSpaceOnUse" x="5" y="13" width="8" height="7">
<path fill-rule="evenodd" clip-rule="evenodd" d="M9 20C10.7956 20 12.25 18.5456 12.25 16.75C12.25 14.9544 10.7956 13.5 9 13.5C7.20438 13.5 5.75 14.9544 5.75 16.75C5.75 18.5456 7.20438 20 9 20Z" fill="black"/>
</mask>
<g mask="url(#mask0_145_2)">
<g filter="url(#filter0_f_145_2)">
<path d="M3 17H21.5" stroke="black" stroke-width="1.5"/>
</g>
</g>
<mask id="mask1_145_2" style="mask-type:alpha" maskUnits="userSpaceOnUse" x="11" y="4" width="8" height="7">
<path fill-rule="evenodd" clip-rule="evenodd" d="M15 10.5C16.7956 10.5 18.25 9.04562 18.25 7.25C18.25 5.45438 16.7956 4 15 4C13.2044 4 11.75 5.45438 11.75 7.25C11.75 9.04562 13.2044 10.5 15 10.5Z" fill="black"/>
</mask>
<g mask="url(#mask1_145_2)">
<g filter="url(#filter1_f_145_2)">
<path d="M3 7.5H21" stroke="black" stroke-width="1.5"/>
</g>
</g>
<path d="M11.7881 6.75C11.7629 6.91297 11.75 7.07996 11.75 7.25C11.75 7.59901 11.8055 7.93495 11.9072 8.25H3V6.75H11.7881ZM21 8.25H18.0928C18.1945 7.93495 18.25 7.59901 18.25 7.25C18.25 7.07996 18.2371 6.91297 18.2119 6.75H21V8.25Z" fill="black"/>
<path fill-rule="evenodd" clip-rule="evenodd" d="M15 10.5C16.7956 10.5 18.25 9.04562 18.25 7.25C18.25 5.45438 16.7956 4 15 4C13.2044 4 11.75 5.45438 11.75 7.25C11.75 9.04562 13.2044 10.5 15 10.5Z" fill="url(#paint0_linear_145_2)"/>
<path d="M5.78809 16.25C5.76295 16.413 5.75 16.58 5.75 16.75C5.75 17.099 5.80551 17.4349 5.90723 17.75H3V16.25H5.78809ZM21.5 17.75H12.0928C12.1945 17.4349 12.25 17.099 12.25 16.75C12.25 16.58 12.2371 16.413 12.2119 16.25H21.5V17.75Z" fill="black"/>
<path fill-rule="evenodd" clip-rule="evenodd" d="M9 20C10.7956 20 12.25 18.5456 12.25 16.75C12.25 14.9544 10.7956 13.5 9 13.5C7.20438 13.5 5.75 14.9544 5.75 16.75C5.75 18.5456 7.20438 20 9 20Z" fill="url(#paint1_linear_145_2)"/>
<defs>
<filter id="filter0_f_145_2" x="2.5" y="15.75" width="19.5" height="2.5" filterUnits="userSpaceOnUse" color-interpolation-filters="sRGB">
<feFlood flood-opacity="0" result="BackgroundImageFix"/>
<feBlend mode="normal" in="SourceGraphic" in2="BackgroundImageFix" result="shape"/>
<feGaussianBlur stdDeviation="0.25" result="effect1_foregroundBlur_145_2"/>
</filter>
<filter id="filter1_f_145_2" x="2.5" y="6.25" width="19" height="2.5" filterUnits="userSpaceOnUse" color-interpolation-filters="sRGB">
<feFlood flood-opacity="0" result="BackgroundImageFix"/>
<feBlend mode="normal" in="SourceGraphic" in2="BackgroundImageFix" result="shape"/>
<feGaussianBlur stdDeviation="0.25" result="effect1_foregroundBlur_145_2"/>
</filter>
<linearGradient id="paint0_linear_145_2" x1="15" y1="4" x2="15" y2="10.5" gradientUnits="userSpaceOnUse">
<stop stop-color="#E3E3E3" stop-opacity="0.6"/>
<stop offset="1" stop-color="#BBBBC0" stop-opacity="0.6"/>
</linearGradient>
<linearGradient id="paint1_linear_145_2" x1="9" y1="13.5" x2="9" y2="20" gradientUnits="userSpaceOnUse">
<stop stop-color="#E3E3E5" stop-opacity="0.6"/>
<stop offset="1" stop-color="#BBBBC0" stop-opacity="0.6"/>
</linearGradient>
</defs>
</svg>
