<svg width="24" height="24" viewBox="0 0 24 24" fill="none" xmlns="http://www.w3.org/2000/svg">
<g filter="url(#filter0_f_85_1294)">
<path d="M17 12C17 14.7614 14.7614 17 12 17C9.23862 17 7 14.7614 7 12C7 9.23862 9.23862 7 12 7C14.7614 7 17 9.23862 17 12Z" fill="url(#paint0_linear_85_1294)"/>
</g>
<path d="M19.2479 6.923L12.9979 3.32455C12.3802 2.96888 11.6198 2.96888 11.0021 3.32455L4.75208 6.92297C4.13211 7.27992 3.75 7.94083 3.75 8.65622V15.3439C3.75 16.0593 4.13213 16.7202 4.75213 17.0772L11.0021 20.6754C11.6198 21.031 12.3802 21.031 12.9979 20.6753L19.2479 17.0769C19.8679 16.7199 20.25 16.059 20.25 15.3436V8.65625C20.25 7.94086 19.8679 7.27995 19.2479 6.923Z" fill="url(#paint1_linear_85_1294)" stroke="url(#paint2_linear_85_1294)" stroke-linecap="square"/>
<path d="M15.25 12C15.25 13.7949 13.7949 15.25 12 15.25C10.2051 15.25 8.75 13.7949 8.75 12C8.75 10.2051 10.2051 8.75 12 8.75C13.7949 8.75 15.25 10.2051 15.25 12Z" fill="url(#paint3_linear_85_1294)"/>
<defs>
<filter id="filter0_f_85_1294" x="4" y="4" width="16" height="16" filterUnits="userSpaceOnUse" color-interpolation-filters="sRGB">
<feFlood flood-opacity="0" result="BackgroundImageFix"/>
<feBlend mode="normal" in="SourceGraphic" in2="BackgroundImageFix" result="shape"/>
<feGaussianBlur stdDeviation="1.5" result="effect1_foregroundBlur_85_1294"/>
</filter>
<linearGradient id="paint0_linear_85_1294" x1="12" y1="7" x2="12" y2="17" gradientUnits="userSpaceOnUse">
<stop stop-color="#575757"/>
<stop offset="1" stop-color="#151515"/>
</linearGradient>
<linearGradient id="paint1_linear_85_1294" x1="12" y1="3.0578" x2="12" y2="20.9421" gradientUnits="userSpaceOnUse">
<stop stop-color="#E3E3E5" stop-opacity="0.6"/>
<stop offset="1" stop-color="#BBBBC0" stop-opacity="0.6"/>
</linearGradient>
<linearGradient id="paint2_linear_85_1294" x1="12" y1="3.0578" x2="12" y2="20.9421" gradientUnits="userSpaceOnUse">
<stop stop-color="white"/>
<stop offset="1" stop-color="white" stop-opacity="0"/>
</linearGradient>
<linearGradient id="paint3_linear_85_1294" x1="12" y1="8.75" x2="12" y2="15.25" gradientUnits="userSpaceOnUse">
<stop stop-color="#575757"/>
<stop offset="1" stop-color="#151515"/>
</linearGradient>
</defs>
</svg>
