<svg width="24" height="24" viewBox="0 0 24 24" fill="none" xmlns="http://www.w3.org/2000/svg">
<mask id="mask0_130_123" style="mask-type:alpha" maskUnits="userSpaceOnUse" x="3" y="4" width="18" height="17">
<path d="M16.75 4.75H18.25C19.3546 4.75 20.25 5.64543 20.25 6.75V18.25C20.25 19.3546 19.3546 20.25 18.25 20.25H5.75C4.64543 20.25 3.75 19.3546 3.75 18.25V6.75C3.75 5.64543 4.64543 4.75 5.75 4.75H7.25" fill="black"/>
</mask>
<g mask="url(#mask0_130_123)">
<g filter="url(#filter0_f_130_123)">
<path d="M9 11.75L12.5 15.25L16 11.75" stroke="url(#paint0_linear_130_123)" stroke-width="1.5" stroke-linecap="round" stroke-linejoin="round"/>
</g>
<g filter="url(#filter1_f_130_123)">
<path d="M12.5 15.25V2" stroke="url(#paint1_linear_130_123)" stroke-width="1.5" stroke-linecap="round" stroke-linejoin="round"/>
</g>
</g>
<path d="M16.75 4.75H18.25C19.3546 4.75 20.25 5.64543 20.25 6.75V18.25C20.25 19.3546 19.3546 20.25 18.25 20.25H5.75C4.64543 20.25 3.75 19.3546 3.75 18.25V6.75C3.75 5.64543 4.64543 4.75 5.75 4.75H7.25" fill="url(#paint2_linear_130_123)"/>
<path d="M16.75 4.75H18.25C19.3546 4.75 20.25 5.64543 20.25 6.75V18.25C20.25 19.3546 19.3546 20.25 18.25 20.25H5.75C4.64543 20.25 3.75 19.3546 3.75 18.25V6.75C3.75 5.64543 4.64543 4.75 5.75 4.75H7.25H16.75Z" stroke="url(#paint3_linear_130_123)" stroke-width="1.5" stroke-linecap="round" stroke-linejoin="round"/>
<path d="M8.5 11.5L12 15L15.5 11.5" stroke="url(#paint4_linear_130_123)" stroke-width="1.5" stroke-linecap="round" stroke-linejoin="round"/>
<path d="M12 15V1.75" stroke="url(#paint5_linear_130_123)" stroke-width="1.5" stroke-linecap="round" stroke-linejoin="round"/>
<defs>
<filter id="filter0_f_130_123" x="7.75" y="10.5" width="9.5" height="6" filterUnits="userSpaceOnUse" color-interpolation-filters="sRGB">
<feFlood flood-opacity="0" result="BackgroundImageFix"/>
<feBlend mode="normal" in="SourceGraphic" in2="BackgroundImageFix" result="shape"/>
<feGaussianBlur stdDeviation="0.25" result="effect1_foregroundBlur_130_123"/>
</filter>
<filter id="filter1_f_130_123" x="11.25" y="0.75" width="2.5" height="15.75" filterUnits="userSpaceOnUse" color-interpolation-filters="sRGB">
<feFlood flood-opacity="0" result="BackgroundImageFix"/>
<feBlend mode="normal" in="SourceGraphic" in2="BackgroundImageFix" result="shape"/>
<feGaussianBlur stdDeviation="0.25" result="effect1_foregroundBlur_130_123"/>
</filter>
<linearGradient id="paint0_linear_130_123" x1="12.5" y1="11.75" x2="12.5" y2="15.25" gradientUnits="userSpaceOnUse">
<stop stop-color="#575757"/>
<stop offset="1" stop-color="#151515"/>
</linearGradient>
<linearGradient id="paint1_linear_130_123" x1="13" y1="2" x2="13" y2="15.25" gradientUnits="userSpaceOnUse">
<stop stop-color="#575757"/>
<stop offset="1" stop-color="#151515"/>
</linearGradient>
<linearGradient id="paint2_linear_130_123" x1="12" y1="4.75" x2="12" y2="20.25" gradientUnits="userSpaceOnUse">
<stop stop-color="#E3E3E3" stop-opacity="0.6"/>
<stop offset="1" stop-color="#BBBBC0" stop-opacity="0.6"/>
</linearGradient>
<linearGradient id="paint3_linear_130_123" x1="12" y1="4.75" x2="12" y2="20.25" gradientUnits="userSpaceOnUse">
<stop stop-color="white"/>
<stop offset="1" stop-color="white" stop-opacity="0"/>
</linearGradient>
<linearGradient id="paint4_linear_130_123" x1="12" y1="11.5" x2="12" y2="15" gradientUnits="userSpaceOnUse">
<stop stop-color="#575757"/>
<stop offset="1" stop-color="#151515"/>
</linearGradient>
<linearGradient id="paint5_linear_130_123" x1="12.5" y1="1.75" x2="12.5" y2="15" gradientUnits="userSpaceOnUse">
<stop stop-color="#575757"/>
<stop offset="1" stop-color="#151515"/>
</linearGradient>
</defs>
</svg>
