<svg width="24" height="24" viewBox="0 0 24 24" fill="none" xmlns="http://www.w3.org/2000/svg">
<mask id="mask0_85_1245" style="mask-type:alpha" maskUnits="userSpaceOnUse" x="3" y="2" width="18" height="20">
<path d="M20.25 6.94155C20.25 6.08069 19.6991 5.31641 18.8825 5.04418L12.6325 2.96085C12.2219 2.824 11.7781 2.824 11.3675 2.96085L5.11754 5.04418C4.30086 5.31641 3.75 6.08069 3.75 6.94155V11.9124C3.75 16.8848 8 19.25 12 21.4079C16 19.25 20.25 16.8848 20.25 11.9124V6.94155Z" fill="black"/>
</mask>
<g mask="url(#mask0_85_1245)">
<g filter="url(#filter0_f_85_1245)">
<ellipse cx="14.5807" cy="17.1688" rx="0.968208" ry="3.8292" transform="rotate(50.8417 14.5807 17.1688)" fill="url(#paint0_linear_85_1245)"/>
</g>
</g>
<path d="M20.25 6.94155C20.25 6.08069 19.6991 5.31641 18.8825 5.04418L12.6325 2.96085C12.2219 2.824 11.7781 2.824 11.3675 2.96085L5.11754 5.04418C4.30086 5.31641 3.75 6.08069 3.75 6.94155V11.9124C3.75 16.8848 8 19.25 12 21.4079C16 19.25 20.25 16.8848 20.25 11.9124V6.94155Z" fill="url(#paint1_linear_85_1245)" stroke="url(#paint2_linear_85_1245)" stroke-width="1.5" stroke-linecap="square" stroke-linejoin="round"/>
<defs>
<filter id="filter0_f_85_1245" x="5.54883" y="8.6362" width="18.0635" height="17.0651" filterUnits="userSpaceOnUse" color-interpolation-filters="sRGB">
<feFlood flood-opacity="0" result="BackgroundImageFix"/>
<feBlend mode="normal" in="SourceGraphic" in2="BackgroundImageFix" result="shape"/>
<feGaussianBlur stdDeviation="3" result="effect1_foregroundBlur_85_1245"/>
</filter>
<linearGradient id="paint0_linear_85_1245" x1="14.5807" y1="13.3396" x2="14.5807" y2="20.998" gradientUnits="userSpaceOnUse">
<stop stop-color="#575757"/>
<stop offset="1" stop-color="#151515"/>
</linearGradient>
<linearGradient id="paint1_linear_85_1245" x1="12" y1="2.85822" x2="12" y2="21.4079" gradientUnits="userSpaceOnUse">
<stop stop-color="#E3E3E3" stop-opacity="0.6"/>
<stop offset="1" stop-color="#BBBBC0" stop-opacity="0.6"/>
</linearGradient>
<linearGradient id="paint2_linear_85_1245" x1="12" y1="2.85822" x2="12" y2="21.4079" gradientUnits="userSpaceOnUse">
<stop stop-color="white"/>
<stop offset="1" stop-color="white" stop-opacity="0"/>
</linearGradient>
</defs>
</svg>
