<svg width="24" height="24" viewBox="0 0 24 24" fill="none" xmlns="http://www.w3.org/2000/svg">
<mask id="mask0_85_1249" style="mask-type:alpha" maskUnits="userSpaceOnUse" x="3" y="2" width="18" height="20">
<path d="M20.25 11.9124V6.94155C20.25 6.08069 19.6991 5.31641 18.8825 5.04418L12.6325 2.96085C12.2219 2.824 11.7781 2.824 11.3675 2.96085L5.11754 5.04418C4.30086 5.31641 3.75 6.08069 3.75 6.94155V11.9124C3.75 16.8848 8 19.25 12 21.4079C16 19.25 20.25 16.8848 20.25 11.9124Z" fill="black"/>
</mask>
<g mask="url(#mask0_85_1249)">
<g filter="url(#filter0_f_85_1249)">
<ellipse cx="16.1224" cy="17.7218" rx="0.968208" ry="3.64833" transform="rotate(40.9502 16.1224 17.7218)" fill="url(#paint0_linear_85_1249)"/>
</g>
<g filter="url(#filter1_f_85_1249)">
<path d="M14.9758 14.2993L12.7382 12.0499M12.7382 12.0499L10.5 9.79999M12.7382 12.0499L14.9758 9.80021M12.7382 12.0499L10.5 14.3" stroke="url(#paint1_linear_85_1249)" stroke-width="1.5" stroke-linecap="round" stroke-linejoin="round"/>
</g>
</g>
<path d="M20.25 11.9124V6.94155C20.25 6.08069 19.6991 5.31641 18.8825 5.04418L12.6325 2.96085C12.2219 2.824 11.7781 2.824 11.3675 2.96085L5.11754 5.04418C4.30086 5.31641 3.75 6.08069 3.75 6.94155V11.9124C3.75 16.8848 8 19.25 12 21.4079C16 19.25 20.25 16.8848 20.25 11.9124Z" fill="url(#paint2_linear_85_1249)" stroke="url(#paint3_linear_85_1249)" stroke-width="1.5" stroke-linecap="round" stroke-linejoin="round"/>
<path d="M14.2258 13.7496L11.9882 11.5002M11.9882 11.5002L9.75 9.25034M11.9882 11.5002L14.2258 9.25056M11.9882 11.5002L9.75 13.7503" stroke="url(#paint4_linear_85_1249)" stroke-width="1.5" stroke-linecap="round" stroke-linejoin="round"/>
<defs>
<filter id="filter0_f_85_1249" x="7.62109" y="8.89359" width="17.002" height="17.6565" filterUnits="userSpaceOnUse" color-interpolation-filters="sRGB">
<feFlood flood-opacity="0" result="BackgroundImageFix"/>
<feBlend mode="normal" in="SourceGraphic" in2="BackgroundImageFix" result="shape"/>
<feGaussianBlur stdDeviation="3" result="effect1_foregroundBlur_85_1249"/>
</filter>
<filter id="filter1_f_85_1249" x="8.75" y="8.04999" width="7.97559" height="7.99997" filterUnits="userSpaceOnUse" color-interpolation-filters="sRGB">
<feFlood flood-opacity="0" result="BackgroundImageFix"/>
<feBlend mode="normal" in="SourceGraphic" in2="BackgroundImageFix" result="shape"/>
<feGaussianBlur stdDeviation="0.5" result="effect1_foregroundBlur_85_1249"/>
</filter>
<linearGradient id="paint0_linear_85_1249" x1="16.1224" y1="14.0735" x2="16.1224" y2="21.3702" gradientUnits="userSpaceOnUse">
<stop stop-color="#575757"/>
<stop offset="1" stop-color="#151515"/>
</linearGradient>
<linearGradient id="paint1_linear_85_1249" x1="12.7379" y1="9.79999" x2="12.7379" y2="14.3" gradientUnits="userSpaceOnUse">
<stop stop-color="#575757"/>
<stop offset="1" stop-color="#151515"/>
</linearGradient>
<linearGradient id="paint2_linear_85_1249" x1="12" y1="2.85822" x2="12" y2="21.4079" gradientUnits="userSpaceOnUse">
<stop stop-color="#E3E3E3" stop-opacity="0.6"/>
<stop offset="1" stop-color="#BBBBC0" stop-opacity="0.6"/>
</linearGradient>
<linearGradient id="paint3_linear_85_1249" x1="12" y1="2.85822" x2="12" y2="21.4079" gradientUnits="userSpaceOnUse">
<stop stop-color="white"/>
<stop offset="1" stop-color="white" stop-opacity="0"/>
</linearGradient>
<linearGradient id="paint4_linear_85_1249" x1="11.9879" y1="9.25034" x2="11.9879" y2="13.7503" gradientUnits="userSpaceOnUse">
<stop stop-color="#575757"/>
<stop offset="1" stop-color="#151515"/>
</linearGradient>
</defs>
</svg>
