<svg width="24" height="24" viewBox="0 0 24 24" fill="none" xmlns="http://www.w3.org/2000/svg">
<mask id="mask0_85_1247" style="mask-type:alpha" maskUnits="userSpaceOnUse" x="3" y="2" width="18" height="20">
<path d="M20.25 11.9124V6.94155C20.25 6.08069 19.6991 5.31641 18.8825 5.04418L12.6325 2.96085C12.2219 2.824 11.7781 2.824 11.3675 2.96085L5.11754 5.04418C4.30086 5.31641 3.75 6.08069 3.75 6.94155V11.9124C3.75 16.8848 8 19.25 12 21.4079C16 19.25 20.25 16.8848 20.25 11.9124Z" fill="black"/>
</mask>
<g mask="url(#mask0_85_1247)">
<g filter="url(#filter0_f_85_1247)">
<ellipse cx="15.955" cy="17.9485" rx="0.968208" ry="3.20593" transform="rotate(45.1093 15.955 17.9485)" fill="url(#paint0_linear_85_1247)"/>
</g>
<g filter="url(#filter1_f_85_1247)">
<path d="M10 12L11.75 13.75L15.5 10" stroke="url(#paint1_linear_85_1247)" stroke-width="1.5" stroke-linecap="round" stroke-linejoin="round"/>
</g>
</g>
<path d="M20.25 11.9124V6.94155C20.25 6.08069 19.6991 5.31641 18.8825 5.04418L12.6325 2.96085C12.2219 2.824 11.7781 2.824 11.3675 2.96085L5.11754 5.04418C4.30086 5.31641 3.75 6.08069 3.75 6.94155V11.9124C3.75 16.8848 8 19.25 12 21.4079C16 19.25 20.25 16.8848 20.25 11.9124Z" fill="url(#paint2_linear_85_1247)" stroke="url(#paint3_linear_85_1247)" stroke-width="1.5" stroke-linecap="round" stroke-linejoin="round"/>
<path d="M9.25 11.5L11 13.25L14.75 9.50003" stroke="url(#paint4_linear_85_1247)" stroke-width="1.5" stroke-linecap="round" stroke-linejoin="round"/>
<defs>
<filter id="filter0_f_85_1247" x="7.58301" y="9.58362" width="16.7441" height="16.7299" filterUnits="userSpaceOnUse" color-interpolation-filters="sRGB">
<feFlood flood-opacity="0" result="BackgroundImageFix"/>
<feBlend mode="normal" in="SourceGraphic" in2="BackgroundImageFix" result="shape"/>
<feGaussianBlur stdDeviation="3" result="effect1_foregroundBlur_85_1247"/>
</filter>
<filter id="filter1_f_85_1247" x="8.25" y="8.25" width="9" height="7.24997" filterUnits="userSpaceOnUse" color-interpolation-filters="sRGB">
<feFlood flood-opacity="0" result="BackgroundImageFix"/>
<feBlend mode="normal" in="SourceGraphic" in2="BackgroundImageFix" result="shape"/>
<feGaussianBlur stdDeviation="0.5" result="effect1_foregroundBlur_85_1247"/>
</filter>
<linearGradient id="paint0_linear_85_1247" x1="15.955" y1="14.7426" x2="15.955" y2="21.1545" gradientUnits="userSpaceOnUse">
<stop stop-color="#575757"/>
<stop offset="1" stop-color="#151515"/>
</linearGradient>
<linearGradient id="paint1_linear_85_1247" x1="12.75" y1="10" x2="12.75" y2="13.75" gradientUnits="userSpaceOnUse">
<stop stop-color="#575757"/>
<stop offset="1" stop-color="#151515"/>
</linearGradient>
<linearGradient id="paint2_linear_85_1247" x1="12" y1="2.85822" x2="12" y2="21.4079" gradientUnits="userSpaceOnUse">
<stop stop-color="#E3E3E3" stop-opacity="0.6"/>
<stop offset="1" stop-color="#BBBBC0" stop-opacity="0.6"/>
</linearGradient>
<linearGradient id="paint3_linear_85_1247" x1="12" y1="2.85822" x2="12" y2="21.4079" gradientUnits="userSpaceOnUse">
<stop stop-color="white"/>
<stop offset="1" stop-color="white" stop-opacity="0"/>
</linearGradient>
<linearGradient id="paint4_linear_85_1247" x1="12" y1="9.50003" x2="12" y2="13.25" gradientUnits="userSpaceOnUse">
<stop stop-color="#575757"/>
<stop offset="1" stop-color="#151515"/>
</linearGradient>
</defs>
</svg>
