<svg width="24" height="24" viewBox="0 0 24 24" fill="none" xmlns="http://www.w3.org/2000/svg">
<mask id="mask0_85_249" style="mask-type:alpha" maskUnits="userSpaceOnUse" x="4" y="7" width="16" height="15">
<path d="M6.56681 21.25H17.4306C18.6518 21.25 19.5879 20.165 19.409 18.9569L18.0016 9.4569C17.8563 8.47624 17.0145 7.75 16.0232 7.75H7.97421C6.98285 7.75 6.14109 8.47624 5.99581 9.4569L4.5884 18.9569C4.40942 20.165 5.34553 21.25 6.56681 21.25Z" fill="black"/>
</mask>
<g mask="url(#mask0_85_249)">
<g filter="url(#filter0_f_85_249)">
<ellipse cx="17.3169" cy="14.8258" rx="0.968208" ry="6.76982" transform="rotate(11.6636 17.3169 14.8258)" fill="url(#paint0_linear_85_249)"/>
</g>
<g filter="url(#filter1_f_85_249)">
<path d="M15.249 9.14121V6C15.249 4.20507 13.7939 2.75 11.999 2.75C10.2041 2.75 8.74902 4.20507 8.74902 6V9.247" stroke="url(#paint1_linear_85_249)" stroke-linecap="round"/>
</g>
</g>
<path d="M6.56681 21.25H17.4306C18.6518 21.25 19.5879 20.165 19.409 18.9569L18.0016 9.4569C17.8563 8.47624 17.0145 7.75 16.0232 7.75H7.97421C6.98285 7.75 6.14109 8.47624 5.99581 9.4569L4.5884 18.9569C4.40942 20.165 5.34553 21.25 6.56681 21.25Z" fill="url(#paint2_linear_85_249)" stroke="url(#paint3_linear_85_249)" stroke-linecap="round"/>
<path d="M15.249 7.75V6C15.249 4.20507 13.7939 2.75 11.999 2.75C10.2041 2.75 8.74902 4.20507 8.74902 6V7.75" stroke="url(#paint4_linear_85_249)" stroke-linecap="round"/>
<defs>
<filter id="filter0_f_85_249" x="9.65137" y="2.19278" width="15.3311" height="25.266" filterUnits="userSpaceOnUse" color-interpolation-filters="sRGB">
<feFlood flood-opacity="0" result="BackgroundImageFix"/>
<feBlend mode="normal" in="SourceGraphic" in2="BackgroundImageFix" result="shape"/>
<feGaussianBlur stdDeviation="3" result="effect1_foregroundBlur_85_249"/>
</filter>
<filter id="filter1_f_85_249" x="7.24902" y="1.25" width="9.5" height="9.49701" filterUnits="userSpaceOnUse" color-interpolation-filters="sRGB">
<feFlood flood-opacity="0" result="BackgroundImageFix"/>
<feBlend mode="normal" in="SourceGraphic" in2="BackgroundImageFix" result="shape"/>
<feGaussianBlur stdDeviation="0.5" result="effect1_foregroundBlur_85_249"/>
</filter>
<linearGradient id="paint0_linear_85_249" x1="17.3169" y1="8.05595" x2="17.3169" y2="21.5956" gradientUnits="userSpaceOnUse">
<stop stop-color="#575757"/>
<stop offset="1" stop-color="#151515"/>
</linearGradient>
<linearGradient id="paint1_linear_85_249" x1="11.999" y1="2.75" x2="11.999" y2="9.247" gradientUnits="userSpaceOnUse">
<stop stop-color="#575757"/>
<stop offset="1" stop-color="#151515"/>
</linearGradient>
<linearGradient id="paint2_linear_85_249" x1="11.9987" y1="7.75" x2="11.9987" y2="21.25" gradientUnits="userSpaceOnUse">
<stop stop-color="#E3E3E3" stop-opacity="0.6"/>
<stop offset="1" stop-color="#BBBBC0" stop-opacity="0.6"/>
</linearGradient>
<linearGradient id="paint3_linear_85_249" x1="11.9987" y1="7.75" x2="11.9987" y2="21.25" gradientUnits="userSpaceOnUse">
<stop stop-color="white"/>
<stop offset="1" stop-color="white" stop-opacity="0"/>
</linearGradient>
<linearGradient id="paint4_linear_85_249" x1="11.999" y1="2.75" x2="11.999" y2="7.75" gradientUnits="userSpaceOnUse">
<stop stop-color="#575757"/>
<stop offset="1" stop-color="#151515"/>
</linearGradient>
</defs>
</svg>
