<svg width="24" height="24" viewBox="0 0 24 24" fill="none" xmlns="http://www.w3.org/2000/svg">
<mask id="mask0_118_55" style="mask-type:alpha" maskUnits="userSpaceOnUse" x="4" y="4" width="16" height="16">
<path d="M17.5 4H7.5H5.5C4 4 4 5 4 6V18C4 19 4.5 20 5.5 20H18.5C20 20 20 19 20 18V5.5C20 4 18.5 4 17.5 4Z" fill="black"/>
</mask>
<g mask="url(#mask0_118_55)">
<g filter="url(#filter0_f_118_55)">
<path d="M12.4248 7.5C12.0796 7.5 11.7998 7.77982 11.7998 8.125C11.7998 8.47018 12.0796 8.75 12.4248 8.75C12.77 8.75 13.0498 8.47018 13.0498 8.125C13.0498 7.77982 12.77 7.5 12.4248 7.5Z" fill="url(#paint0_linear_118_55)"/>
<path d="M12.4248 7.5C12.0796 7.5 11.7998 7.77982 11.7998 8.125C11.7998 8.47018 12.0796 8.75 12.4248 8.75C12.77 8.75 13.0498 8.47018 13.0498 8.125C13.0498 7.77982 12.77 7.5 12.4248 7.5Z" stroke="url(#paint1_linear_118_55)" stroke-width="0.25"/>
</g>
<g filter="url(#filter1_f_118_55)">
<path d="M11 11.4C11.1667 11.4 11.6 11.4 12 11.4C12.5 11.4 12.5 11.4 12.5 12.4C12.5 13.2 12.5 15.7333 12.5 16.9" stroke="url(#paint2_linear_118_55)" stroke-width="1.5" stroke-linecap="round"/>
</g>
<g filter="url(#filter2_f_118_55)">
<ellipse cx="6.85925" cy="6.99405" rx="0.968208" ry="3.17485" transform="rotate(42.5322 6.85925 6.99405)" fill="url(#paint3_linear_118_55)"/>
</g>
</g>
<path d="M17.5 4H7.5H5.5C4 4 4 5 4 6V18C4 19 4.5 20 5.5 20H18.5C20 20 20 19 20 18V5.5C20 4 18.5 4 17.5 4Z" fill="url(#paint4_linear_118_55)" stroke="url(#paint5_linear_118_55)" stroke-width="1.5"/>
<path d="M12 7.375C11.6548 7.375 11.375 7.65482 11.375 8C11.375 8.34518 11.6548 8.625 12 8.625C12.3452 8.625 12.625 8.34518 12.625 8C12.625 7.65482 12.3452 7.375 12 7.375Z" fill="url(#paint6_linear_118_55)" stroke="url(#paint7_linear_118_55)" stroke-width="0.25"/>
<path d="M10.5 11C10.6667 11 11.1 11 11.5 11C12 11 12 11 12 12C12 12.8 12 15.3333 12 16.5" stroke="url(#paint8_linear_118_55)" stroke-width="1.5" stroke-linecap="round"/>
<defs>
<filter id="filter0_f_118_55" x="11.1748" y="6.875" width="2.5" height="2.5" filterUnits="userSpaceOnUse" color-interpolation-filters="sRGB">
<feFlood flood-opacity="0" result="BackgroundImageFix"/>
<feBlend mode="normal" in="SourceGraphic" in2="BackgroundImageFix" result="shape"/>
<feGaussianBlur stdDeviation="0.25" result="effect1_foregroundBlur_118_55"/>
</filter>
<filter id="filter1_f_118_55" x="9.75" y="10.1498" width="4" height="8.00015" filterUnits="userSpaceOnUse" color-interpolation-filters="sRGB">
<feFlood flood-opacity="0" result="BackgroundImageFix"/>
<feBlend mode="normal" in="SourceGraphic" in2="BackgroundImageFix" result="shape"/>
<feGaussianBlur stdDeviation="0.25" result="effect1_foregroundBlur_118_55"/>
</filter>
<filter id="filter2_f_118_55" x="-1.40332" y="-1.43593" width="16.5244" height="16.86" filterUnits="userSpaceOnUse" color-interpolation-filters="sRGB">
<feFlood flood-opacity="0" result="BackgroundImageFix"/>
<feBlend mode="normal" in="SourceGraphic" in2="BackgroundImageFix" result="shape"/>
<feGaussianBlur stdDeviation="3" result="effect1_foregroundBlur_118_55"/>
</filter>
<linearGradient id="paint0_linear_118_55" x1="12.4248" y1="7.5" x2="12.4248" y2="8.75" gradientUnits="userSpaceOnUse">
<stop stop-color="#575757"/>
<stop offset="1" stop-color="#151515"/>
</linearGradient>
<linearGradient id="paint1_linear_118_55" x1="12.4248" y1="7.5" x2="12.4248" y2="8.75" gradientUnits="userSpaceOnUse">
<stop stop-color="#575757"/>
<stop offset="1" stop-color="#151515"/>
</linearGradient>
<linearGradient id="paint2_linear_118_55" x1="11.75" y1="11.4" x2="11.75" y2="16.9" gradientUnits="userSpaceOnUse">
<stop stop-color="#575757"/>
<stop offset="1" stop-color="#151515"/>
</linearGradient>
<linearGradient id="paint3_linear_118_55" x1="6.85925" y1="3.8192" x2="6.85925" y2="10.1689" gradientUnits="userSpaceOnUse">
<stop stop-color="#575757"/>
<stop offset="1" stop-color="#151515"/>
</linearGradient>
<linearGradient id="paint4_linear_118_55" x1="12" y1="4" x2="12" y2="20" gradientUnits="userSpaceOnUse">
<stop stop-color="#E3E3E3" stop-opacity="0.6"/>
<stop offset="1" stop-color="#BBBBC0" stop-opacity="0.6"/>
</linearGradient>
<linearGradient id="paint5_linear_118_55" x1="12" y1="4" x2="12" y2="20" gradientUnits="userSpaceOnUse">
<stop stop-color="white"/>
<stop offset="1" stop-color="white" stop-opacity="0"/>
</linearGradient>
<linearGradient id="paint6_linear_118_55" x1="12" y1="7.375" x2="12" y2="8.625" gradientUnits="userSpaceOnUse">
<stop stop-color="#575757"/>
<stop offset="1" stop-color="#151515"/>
</linearGradient>
<linearGradient id="paint7_linear_118_55" x1="12" y1="7.375" x2="12" y2="8.625" gradientUnits="userSpaceOnUse">
<stop stop-color="#575757"/>
<stop offset="1" stop-color="#151515"/>
</linearGradient>
<linearGradient id="paint8_linear_118_55" x1="11.25" y1="11" x2="11.25" y2="16.5" gradientUnits="userSpaceOnUse">
<stop stop-color="#575757"/>
<stop offset="1" stop-color="#151515"/>
</linearGradient>
</defs>
</svg>
