<svg width="24" height="24" viewBox="0 0 24 24" fill="none" xmlns="http://www.w3.org/2000/svg">
<mask id="mask0_111_44" style="mask-type:alpha" maskUnits="userSpaceOnUse" x="4" y="4" width="16" height="16">
<path d="M4 18V5.5C4 4.8651 4.5 4 5.5 4H18.5C20 4 20 5 20 5.5V18.5C20 20 19 20 18.5 20H5.5C4.5 20 4 19 4 18Z" fill="black"/>
</mask>
<g mask="url(#mask0_111_44)">
<g filter="url(#filter0_f_111_44)">
<path d="M9 13.5L11 15.5L15.5 11" stroke="url(#paint0_linear_111_44)" stroke-width="1.5" stroke-linecap="round"/>
</g>
<g filter="url(#filter1_f_111_44)">
<ellipse cx="8.19808" cy="7.52246" rx="0.968208" ry="3.17485" transform="rotate(57.4991 8.19808 7.52246)" fill="url(#paint1_linear_111_44)"/>
</g>
</g>
<path d="M4 18V5.5C4 4.8651 4.5 4 5.5 4H18.5C20 4 20 5 20 5.5V18.5C20 20 19 20 18.5 20H5.5C4.5 20 4 19 4 18Z" fill="url(#paint2_linear_111_44)" stroke="url(#paint3_linear_111_44)" stroke-width="1.5"/>
<path d="M9 12.5L11 14.5L15.5 10" stroke="url(#paint4_linear_111_44)" stroke-width="1.5" stroke-linecap="round"/>
<defs>
<filter id="filter0_f_111_44" x="7.25" y="9.25" width="10" height="8.31065" filterUnits="userSpaceOnUse" color-interpolation-filters="sRGB">
<feFlood flood-opacity="0" result="BackgroundImageFix"/>
<feBlend mode="normal" in="SourceGraphic" in2="BackgroundImageFix" result="shape"/>
<feGaussianBlur stdDeviation="0.5" result="effect1_foregroundBlur_111_44"/>
</filter>
<filter id="filter1_f_111_44" x="-0.530273" y="-0.369232" width="17.457" height="15.7834" filterUnits="userSpaceOnUse" color-interpolation-filters="sRGB">
<feFlood flood-opacity="0" result="BackgroundImageFix"/>
<feBlend mode="normal" in="SourceGraphic" in2="BackgroundImageFix" result="shape"/>
<feGaussianBlur stdDeviation="3" result="effect1_foregroundBlur_111_44"/>
</filter>
<linearGradient id="paint0_linear_111_44" x1="12.25" y1="11" x2="12.25" y2="15.5" gradientUnits="userSpaceOnUse">
<stop stop-color="#575757"/>
<stop offset="1" stop-color="#151515"/>
</linearGradient>
<linearGradient id="paint1_linear_111_44" x1="8.19808" y1="4.34761" x2="8.19808" y2="10.6973" gradientUnits="userSpaceOnUse">
<stop stop-color="#575757"/>
<stop offset="1" stop-color="#151515"/>
</linearGradient>
<linearGradient id="paint2_linear_111_44" x1="12" y1="4" x2="12" y2="20" gradientUnits="userSpaceOnUse">
<stop stop-color="#E3E3E3" stop-opacity="0.6"/>
<stop offset="1" stop-color="#BBBBC0" stop-opacity="0.6"/>
</linearGradient>
<linearGradient id="paint3_linear_111_44" x1="12" y1="4" x2="12" y2="20" gradientUnits="userSpaceOnUse">
<stop stop-color="white"/>
<stop offset="1" stop-color="white" stop-opacity="0"/>
</linearGradient>
<linearGradient id="paint4_linear_111_44" x1="12.25" y1="10" x2="12.25" y2="14.5" gradientUnits="userSpaceOnUse">
<stop stop-color="#575757"/>
<stop offset="1" stop-color="#151515"/>
</linearGradient>
</defs>
</svg>
