<svg width="24" height="24" viewBox="0 0 24 24" fill="none" xmlns="http://www.w3.org/2000/svg">
<mask id="mask0_85_1008" style="mask-type:alpha" maskUnits="userSpaceOnUse" x="3" y="3" width="18" height="18">
<path d="M20.25 17.05V6.95C20.25 5.8299 20.25 5.26984 20.032 4.84202C19.8403 4.46569 19.5343 4.15973 19.158 3.96799C18.7302 3.75 18.1701 3.75 17.05 3.75H6.95C5.8299 3.75 5.26984 3.75 4.84202 3.96799C4.46569 4.15973 4.15973 4.46569 3.96799 4.84202C3.75 5.26984 3.75 5.8299 3.75 6.95V17.05C3.75 18.1701 3.75 18.7302 3.96799 19.158C4.15973 19.5343 4.46569 19.8403 4.84202 20.032C5.26984 20.25 5.8299 20.25 6.95 20.25H17.05C18.1701 20.25 18.7302 20.25 19.158 20.032C19.5343 19.8403 19.8403 19.5343 20.032 19.158C20.25 18.7302 20.25 18.1701 20.25 17.05Z" fill="black"/>
</mask>
<g mask="url(#mask0_85_1008)">
<g filter="url(#filter0_f_85_1008)">
<ellipse cx="14.4352" cy="21.0804" rx="0.975023" ry="5.88543" transform="rotate(56.2512 14.4352 21.0804)" fill="url(#paint0_linear_85_1008)"/>
</g>
<g filter="url(#filter1_f_85_1008)">
<ellipse cx="21.3327" cy="12.934" rx="0.975023" ry="5.88543" transform="rotate(-3.5016 21.3327 12.934)" fill="url(#paint1_linear_85_1008)"/>
</g>
</g>
<path d="M20.25 17.05V6.95C20.25 5.8299 20.25 5.26984 20.032 4.84202C19.8403 4.46569 19.5343 4.15973 19.158 3.96799C18.7302 3.75 18.1701 3.75 17.05 3.75H6.95C5.8299 3.75 5.26984 3.75 4.84202 3.96799C4.46569 4.15973 4.15973 4.46569 3.96799 4.84202C3.75 5.26984 3.75 5.8299 3.75 6.95V17.05C3.75 18.1701 3.75 18.7302 3.96799 19.158C4.15973 19.5343 4.46569 19.8403 4.84202 20.032C5.26984 20.25 5.8299 20.25 6.95 20.25H17.05C18.1701 20.25 18.7302 20.25 19.158 20.032C19.5343 19.8403 19.8403 19.5343 20.032 19.158C20.25 18.7302 20.25 18.1701 20.25 17.05Z" fill="url(#paint2_linear_85_1008)" stroke="url(#paint3_linear_85_1008)" stroke-linecap="round" stroke-linejoin="round"/>
<defs>
<filter id="filter0_f_85_1008" x="5.51074" y="13.7109" width="17.8486" height="14.7389" filterUnits="userSpaceOnUse" color-interpolation-filters="sRGB">
<feFlood flood-opacity="0" result="BackgroundImageFix"/>
<feBlend mode="normal" in="SourceGraphic" in2="BackgroundImageFix" result="shape"/>
<feGaussianBlur stdDeviation="2" result="effect1_foregroundBlur_85_1008"/>
</filter>
<filter id="filter1_f_85_1008" x="16.2949" y="3.05923" width="10.0752" height="19.7495" filterUnits="userSpaceOnUse" color-interpolation-filters="sRGB">
<feFlood flood-opacity="0" result="BackgroundImageFix"/>
<feBlend mode="normal" in="SourceGraphic" in2="BackgroundImageFix" result="shape"/>
<feGaussianBlur stdDeviation="2" result="effect1_foregroundBlur_85_1008"/>
</filter>
<linearGradient id="paint0_linear_85_1008" x1="14.4352" y1="15.1949" x2="14.4352" y2="26.9658" gradientUnits="userSpaceOnUse">
<stop stop-color="#575757"/>
<stop offset="1" stop-color="#151515"/>
</linearGradient>
<linearGradient id="paint1_linear_85_1008" x1="21.3327" y1="7.04856" x2="21.3327" y2="18.8194" gradientUnits="userSpaceOnUse">
<stop stop-color="#575757"/>
<stop offset="1" stop-color="#151515"/>
</linearGradient>
<linearGradient id="paint2_linear_85_1008" x1="12" y1="3.75" x2="12" y2="20.25" gradientUnits="userSpaceOnUse">
<stop stop-color="#E3E3E3" stop-opacity="0.6"/>
<stop offset="1" stop-color="#BBBBC0" stop-opacity="0.6"/>
</linearGradient>
<linearGradient id="paint3_linear_85_1008" x1="12" y1="3.75" x2="12" y2="20.25" gradientUnits="userSpaceOnUse">
<stop stop-color="white"/>
<stop offset="1" stop-color="white" stop-opacity="0"/>
</linearGradient>
</defs>
</svg>
