<svg width="24" height="24" viewBox="0 0 24 24" fill="none" xmlns="http://www.w3.org/2000/svg">
<mask id="mask0_85_98" style="mask-type:alpha" maskUnits="userSpaceOnUse" x="4" y="2" width="16" height="20">
<path d="M4.75 4.75C4.75 3.64543 5.64543 2.75 6.75 2.75H17.25C18.3546 2.75 19.25 3.64543 19.25 4.75V19.25C19.25 20.3546 18.3546 21.25 17.25 21.25H6.75C5.64543 21.25 4.75 20.3546 4.75 19.25V4.75Z" fill="url(#paint0_linear_85_98)" stroke="url(#paint1_linear_85_98)" stroke-linecap="round" stroke-linejoin="round"/>
</mask>
<g mask="url(#mask0_85_98)">
<g filter="url(#filter0_f_85_98)">
<path d="M8.7002 18.8H15.2002" stroke="url(#paint2_linear_85_98)" stroke-linecap="round" stroke-linejoin="round"/>
</g>
</g>
<path d="M4.75 4.75C4.75 3.64543 5.64543 2.75 6.75 2.75H17.25C18.3546 2.75 19.25 3.64543 19.25 4.75V19.25C19.25 20.3546 18.3546 21.25 17.25 21.25H6.75C5.64543 21.25 4.75 20.3546 4.75 19.25V4.75Z" fill="url(#paint3_linear_85_98)" stroke="url(#paint4_linear_85_98)" stroke-linecap="round" stroke-linejoin="round"/>
<path d="M8.75 18.25H15.25" stroke="url(#paint5_linear_85_98)" stroke-linecap="round" stroke-linejoin="round"/>
<defs>
<filter id="filter0_f_85_98" x="7.2002" y="17.3" width="9.5" height="3" filterUnits="userSpaceOnUse" color-interpolation-filters="sRGB">
<feFlood flood-opacity="0" result="BackgroundImageFix"/>
<feBlend mode="normal" in="SourceGraphic" in2="BackgroundImageFix" result="shape"/>
<feGaussianBlur stdDeviation="0.5" result="effect1_foregroundBlur_85_98"/>
</filter>
<linearGradient id="paint0_linear_85_98" x1="12" y1="2.75" x2="12" y2="21.25" gradientUnits="userSpaceOnUse">
<stop stop-color="#E3E3E3" stop-opacity="0.6"/>
<stop offset="1" stop-color="#BBBBC0" stop-opacity="0.6"/>
</linearGradient>
<linearGradient id="paint1_linear_85_98" x1="12" y1="2.75" x2="12" y2="21.25" gradientUnits="userSpaceOnUse">
<stop stop-color="white"/>
<stop offset="1" stop-color="white" stop-opacity="0"/>
</linearGradient>
<linearGradient id="paint2_linear_85_98" x1="11.9502" y1="18.8" x2="11.9502" y2="19.8" gradientUnits="userSpaceOnUse">
<stop stop-color="#575757"/>
<stop offset="1" stop-color="#151515"/>
</linearGradient>
<linearGradient id="paint3_linear_85_98" x1="12" y1="2.75" x2="12" y2="21.25" gradientUnits="userSpaceOnUse">
<stop stop-color="#E3E3E3" stop-opacity="0.6"/>
<stop offset="1" stop-color="#BBBBC0" stop-opacity="0.6"/>
</linearGradient>
<linearGradient id="paint4_linear_85_98" x1="12" y1="2.75" x2="12" y2="21.25" gradientUnits="userSpaceOnUse">
<stop stop-color="white"/>
<stop offset="1" stop-color="white" stop-opacity="0"/>
</linearGradient>
<linearGradient id="paint5_linear_85_98" x1="12" y1="18.25" x2="12" y2="19.25" gradientUnits="userSpaceOnUse">
<stop stop-color="#575757"/>
<stop offset="1" stop-color="#151515"/>
</linearGradient>
</defs>
</svg>
