<svg width="24" height="24" viewBox="0 0 24 24" fill="none" xmlns="http://www.w3.org/2000/svg">
<mask id="mask0_85_86" style="mask-type:alpha" maskUnits="userSpaceOnUse" x="2" y="6" width="20" height="15">
<path d="M2.75 8.75C2.75 7.64543 3.64543 6.75 4.75 6.75H19.25C20.3546 6.75 21.25 7.64543 21.25 8.75V18.25C21.25 19.3546 20.3546 20.25 19.25 20.25H4.75C3.64543 20.25 2.75 19.3546 2.75 18.25V8.75Z" fill="black"/>
</mask>
<g mask="url(#mask0_85_86)">
<g filter="url(#filter0_f_85_86)">
<path d="M7.5 5L12 8.5L16.5 5" stroke="url(#paint0_linear_85_86)" stroke-linecap="round" stroke-linejoin="round"/>
</g>
</g>
<path d="M2.75 8.75C2.75 7.64543 3.64543 6.75 4.75 6.75H19.25C20.3546 6.75 21.25 7.64543 21.25 8.75V18.25C21.25 19.3546 20.3546 20.25 19.25 20.25H4.75C3.64543 20.25 2.75 19.3546 2.75 18.25V8.75Z" fill="url(#paint1_linear_85_86)" stroke="url(#paint2_linear_85_86)" stroke-linecap="round" stroke-linejoin="round"/>
<path d="M7.5 4.25L12 7.75L16.5 4.25" stroke="url(#paint3_linear_85_86)" stroke-linecap="round" stroke-linejoin="round"/>
<defs>
<filter id="filter0_f_85_86" x="6" y="3.49997" width="12" height="6.50003" filterUnits="userSpaceOnUse" color-interpolation-filters="sRGB">
<feFlood flood-opacity="0" result="BackgroundImageFix"/>
<feBlend mode="normal" in="SourceGraphic" in2="BackgroundImageFix" result="shape"/>
<feGaussianBlur stdDeviation="0.5" result="effect1_foregroundBlur_85_86"/>
</filter>
<linearGradient id="paint0_linear_85_86" x1="12" y1="5" x2="12" y2="8.5" gradientUnits="userSpaceOnUse">
<stop stop-color="#575757"/>
<stop offset="1" stop-color="#151515"/>
</linearGradient>
<linearGradient id="paint1_linear_85_86" x1="12" y1="6.75" x2="12" y2="20.25" gradientUnits="userSpaceOnUse">
<stop stop-color="#E3E3E3" stop-opacity="0.6"/>
<stop offset="1" stop-color="#BBBBC0" stop-opacity="0.6"/>
</linearGradient>
<linearGradient id="paint2_linear_85_86" x1="12" y1="6.75" x2="12" y2="20.25" gradientUnits="userSpaceOnUse">
<stop stop-color="white"/>
<stop offset="1" stop-color="white" stop-opacity="0"/>
</linearGradient>
<linearGradient id="paint3_linear_85_86" x1="12" y1="4.25" x2="12" y2="7.75" gradientUnits="userSpaceOnUse">
<stop stop-color="#575757"/>
<stop offset="1" stop-color="#151515"/>
</linearGradient>
</defs>
</svg>
