<svg width="24" height="24" viewBox="0 0 24 24" fill="none" xmlns="http://www.w3.org/2000/svg">
<mask id="mask0_85_115" style="mask-type:alpha" maskUnits="userSpaceOnUse" x="3" y="3" width="18" height="18">
<path d="M9.45904 4.85557C9.12025 4.178 8.42773 3.75 7.67018 3.75H5.75C4.64543 3.75 3.75 4.64543 3.75 5.75V5.8125C3.75 13.7861 10.2139 20.25 18.1875 20.25H18.25C19.3546 20.25 20.25 19.3546 20.25 18.25V16.3298C20.25 15.5723 19.822 14.8797 19.1444 14.541L17.1468 13.5422C16.5366 13.2371 15.7996 13.3566 15.3172 13.8391C14.8688 14.2874 14.1908 14.4356 13.6251 14.1493C11.9081 13.2803 10.7197 12.0919 9.8507 10.3749C9.56435 9.8092 9.71257 9.13118 10.1609 8.68283C10.6434 8.2004 10.7629 7.4634 10.4578 6.85317L9.45904 4.85557Z" fill="black"/>
</mask>
<g mask="url(#mask0_85_115)">
<g filter="url(#filter0_f_85_115)">
<ellipse cx="13.9494" cy="13.2221" rx="0.968208" ry="7.25787" transform="rotate(-51.0953 13.9494 13.2221)" fill="url(#paint0_linear_85_115)"/>
</g>
</g>
<path d="M9.45904 4.85557C9.12025 4.178 8.42773 3.75 7.67018 3.75H5.75C4.64543 3.75 3.75 4.64543 3.75 5.75V5.8125C3.75 13.7861 10.2139 20.25 18.1875 20.25H18.25C19.3546 20.25 20.25 19.3546 20.25 18.25V16.3298C20.25 15.5723 19.822 14.8797 19.1444 14.541L17.1468 13.5422C16.5366 13.2371 15.7996 13.3566 15.3172 13.8391C14.8688 14.2874 14.1908 14.4356 13.6251 14.1493C11.9081 13.2803 10.7197 12.0919 9.8507 10.3749C9.56435 9.8092 9.71257 9.13118 10.1609 8.68283C10.6434 8.2004 10.7629 7.4634 10.4578 6.85317L9.45904 4.85557Z" fill="url(#paint1_linear_85_115)" stroke="url(#paint2_linear_85_115)" stroke-linejoin="round"/>
<defs>
<filter id="filter0_f_85_115" x="2.26855" y="2.60143" width="23.3623" height="21.2414" filterUnits="userSpaceOnUse" color-interpolation-filters="sRGB">
<feFlood flood-opacity="0" result="BackgroundImageFix"/>
<feBlend mode="normal" in="SourceGraphic" in2="BackgroundImageFix" result="shape"/>
<feGaussianBlur stdDeviation="3" result="effect1_foregroundBlur_85_115"/>
</filter>
<linearGradient id="paint0_linear_85_115" x1="13.9494" y1="5.96426" x2="13.9494" y2="20.48" gradientUnits="userSpaceOnUse">
<stop stop-color="#575757"/>
<stop offset="1" stop-color="#151515"/>
</linearGradient>
<linearGradient id="paint1_linear_85_115" x1="12" y1="3.75" x2="12" y2="20.25" gradientUnits="userSpaceOnUse">
<stop stop-color="#E3E3E3" stop-opacity="0.6"/>
<stop offset="1" stop-color="#BBBBC0" stop-opacity="0.6"/>
</linearGradient>
<linearGradient id="paint2_linear_85_115" x1="12" y1="3.75" x2="12" y2="20.25" gradientUnits="userSpaceOnUse">
<stop stop-color="white"/>
<stop offset="1" stop-color="white" stop-opacity="0"/>
</linearGradient>
</defs>
</svg>
