<svg width="24" height="24" viewBox="0 0 24 24" fill="none" xmlns="http://www.w3.org/2000/svg">
<mask id="mask0_85_428" style="mask-type:alpha" maskUnits="userSpaceOnUse" x="6" y="2" width="16" height="19">
<path d="M6.75 20.25V11L10.7208 3.29204C10.8922 2.95918 11.2365 2.75 11.611 2.75C12.8384 2.75 13.7808 3.84535 13.5917 5.0581L13.0161 8.75H18.2589C20.0956 8.75 21.5011 10.3856 21.2248 12.2013L20.3878 17.7013C20.1648 19.167 18.9046 20.25 17.422 20.25H6.75Z" fill="black"/>
</mask>
<g mask="url(#mask0_85_428)">
<g filter="url(#filter0_f_85_428)">
<path d="M8 11H5C4.44772 11 4 11.4241 4 11.9474V19.0526C4 19.5759 4.44772 20 5 20H8V11.2368" stroke="url(#paint0_linear_85_428)" stroke-width="1.5" stroke-linecap="round" stroke-linejoin="round"/>
</g>
<g filter="url(#filter1_f_85_428)">
<ellipse cx="19.2163" cy="15.6947" rx="0.968208" ry="6.76982" transform="rotate(19.9175 19.2163 15.6947)" fill="url(#paint1_linear_85_428)"/>
</g>
</g>
<path d="M6.75 20.25V11L10.7208 3.29204C10.8922 2.95918 11.2365 2.75 11.611 2.75C12.8384 2.75 13.7808 3.84535 13.5917 5.0581L13.0161 8.75H18.2589C20.0956 8.75 21.5011 10.3856 21.2248 12.2013L20.3878 17.7013C20.1648 19.167 18.9046 20.25 17.422 20.25H6.75Z" fill="url(#paint2_linear_85_428)" stroke="url(#paint3_linear_85_428)" stroke-linecap="round" stroke-linejoin="round"/>
<path d="M3.75 10.75H6.75V20.25H3.75C3.19772 20.25 2.75 19.8023 2.75 19.25V11.75C2.75 11.1977 3.19772 10.75 3.75 10.75Z" fill="url(#paint4_linear_85_428)" stroke="url(#paint5_linear_85_428)" stroke-linecap="round" stroke-linejoin="round"/>
<defs>
<filter id="filter0_f_85_428" x="2.75" y="9.75" width="6.5" height="11.5" filterUnits="userSpaceOnUse" color-interpolation-filters="sRGB">
<feFlood flood-opacity="0" result="BackgroundImageFix"/>
<feBlend mode="normal" in="SourceGraphic" in2="BackgroundImageFix" result="shape"/>
<feGaussianBlur stdDeviation="0.25" result="effect1_foregroundBlur_85_428"/>
</filter>
<filter id="filter1_f_85_428" x="10.7363" y="3.32114" width="16.96" height="24.7472" filterUnits="userSpaceOnUse" color-interpolation-filters="sRGB">
<feFlood flood-opacity="0" result="BackgroundImageFix"/>
<feBlend mode="normal" in="SourceGraphic" in2="BackgroundImageFix" result="shape"/>
<feGaussianBlur stdDeviation="3" result="effect1_foregroundBlur_85_428"/>
</filter>
<linearGradient id="paint0_linear_85_428" x1="6" y1="11" x2="6" y2="20" gradientUnits="userSpaceOnUse">
<stop stop-color="#575757"/>
<stop offset="1" stop-color="#151515"/>
</linearGradient>
<linearGradient id="paint1_linear_85_428" x1="19.2163" y1="8.92489" x2="19.2163" y2="22.4645" gradientUnits="userSpaceOnUse">
<stop stop-color="#575757"/>
<stop offset="1" stop-color="#151515"/>
</linearGradient>
<linearGradient id="paint2_linear_85_428" x1="14.0048" y1="2.75" x2="14.0048" y2="20.25" gradientUnits="userSpaceOnUse">
<stop stop-color="#E3E3E3" stop-opacity="0.6"/>
<stop offset="1" stop-color="#BBBBC0" stop-opacity="0.6"/>
</linearGradient>
<linearGradient id="paint3_linear_85_428" x1="14.0048" y1="2.75" x2="14.0048" y2="20.25" gradientUnits="userSpaceOnUse">
<stop stop-color="white"/>
<stop offset="1" stop-color="white" stop-opacity="0"/>
</linearGradient>
<linearGradient id="paint4_linear_85_428" x1="4.75" y1="10.75" x2="4.75" y2="20.25" gradientUnits="userSpaceOnUse">
<stop stop-color="#575757"/>
<stop offset="1" stop-color="#151515"/>
</linearGradient>
<linearGradient id="paint5_linear_85_428" x1="4.75" y1="10.75" x2="4.75" y2="20.25" gradientUnits="userSpaceOnUse">
<stop stop-color="#575757"/>
<stop offset="1" stop-color="#151515"/>
</linearGradient>
</defs>
</svg>
