<svg width="24" height="24" viewBox="0 0 24 24" fill="none" xmlns="http://www.w3.org/2000/svg">
<mask id="mask0_85_400" style="mask-type:alpha" maskUnits="userSpaceOnUse" x="2" y="3" width="16" height="19">
<path d="M17.2521 3.75V13L13.2835 20.7078C13.112 21.0407 12.7635 21.25 12.389 21.25C11.1622 21.25 10.2249 20.1546 10.4139 18.9419L10.9892 15.25H5.74908C3.91335 15.25 2.50859 13.6144 2.78476 11.7987L3.62128 6.29867C3.84421 4.83298 5.1038 3.75 6.5856 3.75H17.2521Z" fill="url(#paint0_linear_85_400)" stroke="url(#paint1_linear_85_400)" stroke-linejoin="round"/>
</mask>
<g mask="url(#mask0_85_400)">
<g filter="url(#filter0_f_85_400)">
<path d="M18.9979 13.5H16V4H18.9979C19.5502 4 19.9979 4.44772 19.9979 5V12.5C19.9979 13.0523 19.5502 13.5 18.9979 13.5Z" fill="url(#paint2_linear_85_400)"/>
<path d="M18.9979 13.5H16V4H18.9979C19.5502 4 19.9979 4.44772 19.9979 5V12.5C19.9979 13.0523 19.5502 13.5 18.9979 13.5Z" stroke="url(#paint3_linear_85_400)" stroke-linejoin="round"/>
</g>
<g filter="url(#filter1_f_85_400)">
<ellipse cx="5.26335" cy="9.82904" rx="0.968208" ry="6.76982" transform="rotate(-11.188 5.26335 9.82904)" fill="url(#paint4_linear_85_400)"/>
</g>
</g>
<path d="M17.2521 3.75V13L13.2835 20.7078C13.112 21.0407 12.7635 21.25 12.389 21.25C11.1622 21.25 10.2249 20.1546 10.4139 18.9419L10.9892 15.25H5.74908C3.91335 15.25 2.50859 13.6144 2.78476 11.7987L3.62128 6.29867C3.84421 4.83298 5.1038 3.75 6.5856 3.75H17.2521Z" fill="url(#paint5_linear_85_400)" stroke="url(#paint6_linear_85_400)" stroke-linejoin="round"/>
<path d="M20.2499 13.25H17.252V3.75H20.2499C20.8022 3.75 21.2499 4.19772 21.2499 4.75V12.25C21.2499 12.8023 20.8022 13.25 20.2499 13.25Z" fill="url(#paint7_linear_85_400)" stroke="url(#paint8_linear_85_400)" stroke-linejoin="round"/>
<defs>
<filter id="filter0_f_85_400" x="15" y="3" width="5.99805" height="11.5" filterUnits="userSpaceOnUse" color-interpolation-filters="sRGB">
<feFlood flood-opacity="0" result="BackgroundImageFix"/>
<feBlend mode="normal" in="SourceGraphic" in2="BackgroundImageFix" result="shape"/>
<feGaussianBlur stdDeviation="0.25" result="effect1_foregroundBlur_85_400"/>
</filter>
<filter id="filter1_f_85_400" x="-2.35742" y="-2.81485" width="15.2422" height="25.2878" filterUnits="userSpaceOnUse" color-interpolation-filters="sRGB">
<feFlood flood-opacity="0" result="BackgroundImageFix"/>
<feBlend mode="normal" in="SourceGraphic" in2="BackgroundImageFix" result="shape"/>
<feGaussianBlur stdDeviation="3" result="effect1_foregroundBlur_85_400"/>
</filter>
<linearGradient id="paint0_linear_85_400" x1="10.001" y1="3.75" x2="10.001" y2="21.25" gradientUnits="userSpaceOnUse">
<stop stop-color="#E3E3E3" stop-opacity="0.6"/>
<stop offset="1" stop-color="#BBBBC0" stop-opacity="0.6"/>
</linearGradient>
<linearGradient id="paint1_linear_85_400" x1="10.001" y1="3.75" x2="10.001" y2="21.25" gradientUnits="userSpaceOnUse">
<stop stop-color="white"/>
<stop offset="1" stop-color="white" stop-opacity="0"/>
</linearGradient>
<linearGradient id="paint2_linear_85_400" x1="17.9989" y1="4" x2="17.9989" y2="13.5" gradientUnits="userSpaceOnUse">
<stop stop-color="#575757"/>
<stop offset="1" stop-color="#151515"/>
</linearGradient>
<linearGradient id="paint3_linear_85_400" x1="17.9989" y1="4" x2="17.9989" y2="13.5" gradientUnits="userSpaceOnUse">
<stop stop-color="#575757"/>
<stop offset="1" stop-color="#151515"/>
</linearGradient>
<linearGradient id="paint4_linear_85_400" x1="5.26335" y1="3.05922" x2="5.26335" y2="16.5989" gradientUnits="userSpaceOnUse">
<stop stop-color="#575757"/>
<stop offset="1" stop-color="#151515"/>
</linearGradient>
<linearGradient id="paint5_linear_85_400" x1="10.001" y1="3.75" x2="10.001" y2="21.25" gradientUnits="userSpaceOnUse">
<stop stop-color="#E3E3E3" stop-opacity="0.6"/>
<stop offset="1" stop-color="#BBBBC0" stop-opacity="0.6"/>
</linearGradient>
<linearGradient id="paint6_linear_85_400" x1="10.001" y1="3.75" x2="10.001" y2="21.25" gradientUnits="userSpaceOnUse">
<stop stop-color="white"/>
<stop offset="1" stop-color="white" stop-opacity="0"/>
</linearGradient>
<linearGradient id="paint7_linear_85_400" x1="19.2509" y1="3.75" x2="19.2509" y2="13.25" gradientUnits="userSpaceOnUse">
<stop stop-color="#575757"/>
<stop offset="1" stop-color="#151515"/>
</linearGradient>
<linearGradient id="paint8_linear_85_400" x1="19.2509" y1="3.75" x2="19.2509" y2="13.25" gradientUnits="userSpaceOnUse">
<stop stop-color="#575757"/>
<stop offset="1" stop-color="#151515"/>
</linearGradient>
</defs>
</svg>
