<svg width="24" height="24" viewBox="0 0 24 24" fill="none" xmlns="http://www.w3.org/2000/svg">
<mask id="mask0_85_615" style="mask-type:alpha" maskUnits="userSpaceOnUse" x="4" y="6" width="16" height="16">
<path d="M4.75 6.5L5.65512 19.3901C5.72868 20.4377 6.6 21.25 7.6502 21.25H16.3498C17.4 21.25 18.2713 20.4377 18.3449 19.3901L19.25 6.5" fill="black"/>
</mask>
<g mask="url(#mask0_85_615)">
<g filter="url(#filter0_f_85_615)">
<ellipse cx="17.0851" cy="15.7089" rx="1.183" ry="5.48186" transform="rotate(16.4905 17.0851 15.7089)" fill="url(#paint0_linear_85_615)"/>
</g>
</g>
<path d="M4.75 6.5L5.65512 19.3901C5.72868 20.4377 6.6 21.25 7.6502 21.25H16.3498C17.4 21.25 18.2713 20.4377 18.3449 19.3901L19.25 6.5" fill="url(#paint1_linear_85_615)"/>
<path d="M4.75 6.5L5.65512 19.3901C5.72868 20.4377 6.6 21.25 7.6502 21.25H16.3498C17.4 21.25 18.2713 20.4377 18.3449 19.3901L19.25 6.5" stroke="url(#paint2_linear_85_615)" stroke-width="1.5" stroke-linecap="round" stroke-linejoin="round"/>
<path d="M3.25 5.75H20.75" stroke="url(#paint3_linear_85_615)" stroke-width="1.5" stroke-linecap="round" stroke-linejoin="round"/>
<path d="M8.52441 5.58289C8.7306 3.84652 10.2079 2.5 11.9998 2.5C13.7917 2.5 15.269 3.84652 15.4752 5.58289" stroke="url(#paint4_linear_85_615)" stroke-width="1.5" stroke-linecap="round" stroke-linejoin="round"/>
<defs>
<filter id="filter0_f_85_615" x="9.15918" y="4.44165" width="15.8516" height="22.5345" filterUnits="userSpaceOnUse" color-interpolation-filters="sRGB">
<feFlood flood-opacity="0" result="BackgroundImageFix"/>
<feBlend mode="normal" in="SourceGraphic" in2="BackgroundImageFix" result="shape"/>
<feGaussianBlur stdDeviation="3" result="effect1_foregroundBlur_85_615"/>
</filter>
<linearGradient id="paint0_linear_85_615" x1="17.0851" y1="10.2271" x2="17.0851" y2="21.1908" gradientUnits="userSpaceOnUse">
<stop stop-color="#575757"/>
<stop offset="1" stop-color="#151515"/>
</linearGradient>
<linearGradient id="paint1_linear_85_615" x1="12" y1="6.5" x2="12" y2="21.25" gradientUnits="userSpaceOnUse">
<stop stop-color="#E3E3E3" stop-opacity="0.6"/>
<stop offset="1" stop-color="#BBBBC0" stop-opacity="0.6"/>
</linearGradient>
<linearGradient id="paint2_linear_85_615" x1="12" y1="6.5" x2="12" y2="21.25" gradientUnits="userSpaceOnUse">
<stop stop-color="white"/>
<stop offset="1" stop-color="white" stop-opacity="0"/>
</linearGradient>
<linearGradient id="paint3_linear_85_615" x1="12" y1="5.75" x2="12" y2="6.75" gradientUnits="userSpaceOnUse">
<stop stop-color="#575757"/>
<stop offset="1" stop-color="#151515"/>
</linearGradient>
<linearGradient id="paint4_linear_85_615" x1="11.9998" y1="2.5" x2="11.9998" y2="5.58289" gradientUnits="userSpaceOnUse">
<stop stop-color="#575757"/>
<stop offset="1" stop-color="#151515"/>
</linearGradient>
</defs>
</svg>
