<svg width="24" height="24" viewBox="0 0 24 24" fill="none" xmlns="http://www.w3.org/2000/svg">
<mask id="mask0_85_648" style="mask-type:alpha" maskUnits="userSpaceOnUse" x="4" y="6" width="16" height="16">
<path d="M4.75 6.5L5.65512 19.3901C5.72868 20.4377 6.6 21.25 7.6502 21.25H16.3498C17.4 21.25 18.2713 20.4377 18.3449 19.3901L19.25 6.5" fill="black"/>
</mask>
<g mask="url(#mask0_85_648)">
<g filter="url(#filter0_f_85_648)">
<path d="M10.4004 11L14.9004 15.5M14.9004 11L10.4004 15.5" stroke="url(#paint0_linear_85_648)" stroke-width="1.5" stroke-linecap="round" stroke-linejoin="round"/>
</g>
<g filter="url(#filter1_f_85_648)">
<ellipse cx="17.6906" cy="15.5922" rx="1.183" ry="5.48186" transform="rotate(16.4905 17.6906 15.5922)" fill="url(#paint1_linear_85_648)"/>
</g>
</g>
<path d="M4.75 6.5L5.65512 19.3901C5.72868 20.4377 6.6 21.25 7.6502 21.25H16.3498C17.4 21.25 18.2713 20.4377 18.3449 19.3901L19.25 6.5" fill="url(#paint2_linear_85_648)"/>
<path d="M4.75 6.5L5.65512 19.3901C5.72868 20.4377 6.6 21.25 7.6502 21.25H16.3498C17.4 21.25 18.2713 20.4377 18.3449 19.3901L19.25 6.5" stroke="url(#paint3_linear_85_648)" stroke-width="1.5" stroke-linecap="round" stroke-linejoin="round"/>
<path d="M3.25 5.75H20.75" stroke="url(#paint4_linear_85_648)" stroke-width="1.5" stroke-linecap="round" stroke-linejoin="round"/>
<path d="M8.52441 5.58289C8.7306 3.84652 10.2079 2.5 11.9998 2.5C13.7917 2.5 15.269 3.84652 15.4752 5.58289" stroke="url(#paint5_linear_85_648)" stroke-width="1.5" stroke-linecap="round" stroke-linejoin="round"/>
<path d="M9.75 11L14.25 15.5M14.25 11L9.75 15.5" stroke="url(#paint6_linear_85_648)" stroke-width="1.5" stroke-linecap="round" stroke-linejoin="round"/>
<defs>
<filter id="filter0_f_85_648" x="9.15039" y="9.75" width="7" height="7" filterUnits="userSpaceOnUse" color-interpolation-filters="sRGB">
<feFlood flood-opacity="0" result="BackgroundImageFix"/>
<feBlend mode="normal" in="SourceGraphic" in2="BackgroundImageFix" result="shape"/>
<feGaussianBlur stdDeviation="0.25" result="effect1_foregroundBlur_85_648"/>
</filter>
<filter id="filter1_f_85_648" x="9.76465" y="4.32491" width="15.8516" height="22.5345" filterUnits="userSpaceOnUse" color-interpolation-filters="sRGB">
<feFlood flood-opacity="0" result="BackgroundImageFix"/>
<feBlend mode="normal" in="SourceGraphic" in2="BackgroundImageFix" result="shape"/>
<feGaussianBlur stdDeviation="3" result="effect1_foregroundBlur_85_648"/>
</filter>
<linearGradient id="paint0_linear_85_648" x1="12.6504" y1="11" x2="12.6504" y2="15.5" gradientUnits="userSpaceOnUse">
<stop stop-color="#575757"/>
<stop offset="1" stop-color="#151515"/>
</linearGradient>
<linearGradient id="paint1_linear_85_648" x1="17.6906" y1="10.1103" x2="17.6906" y2="21.074" gradientUnits="userSpaceOnUse">
<stop stop-color="#575757"/>
<stop offset="1" stop-color="#151515"/>
</linearGradient>
<linearGradient id="paint2_linear_85_648" x1="12" y1="6.5" x2="12" y2="21.25" gradientUnits="userSpaceOnUse">
<stop stop-color="#E3E3E3" stop-opacity="0.6"/>
<stop offset="1" stop-color="#BBBBC0" stop-opacity="0.6"/>
</linearGradient>
<linearGradient id="paint3_linear_85_648" x1="12" y1="6.5" x2="12" y2="21.25" gradientUnits="userSpaceOnUse">
<stop stop-color="white"/>
<stop offset="1" stop-color="white" stop-opacity="0"/>
</linearGradient>
<linearGradient id="paint4_linear_85_648" x1="12" y1="5.75" x2="12" y2="6.75" gradientUnits="userSpaceOnUse">
<stop stop-color="#575757"/>
<stop offset="1" stop-color="#151515"/>
</linearGradient>
<linearGradient id="paint5_linear_85_648" x1="11.9998" y1="2.5" x2="11.9998" y2="5.58289" gradientUnits="userSpaceOnUse">
<stop stop-color="#575757"/>
<stop offset="1" stop-color="#151515"/>
</linearGradient>
<linearGradient id="paint6_linear_85_648" x1="12" y1="11" x2="12" y2="15.5" gradientUnits="userSpaceOnUse">
<stop stop-color="#575757"/>
<stop offset="1" stop-color="#151515"/>
</linearGradient>
</defs>
</svg>
