<svg width="24" height="24" viewBox="0 0 24 24" fill="none" xmlns="http://www.w3.org/2000/svg">
<mask id="mask0_157_82" style="mask-type:alpha" maskUnits="userSpaceOnUse" x="5" y="13" width="15" height="8">
<path d="M6.83734 21C5.73277 21 4.81328 20.0952 5.03258 19.0126C5.70913 15.6727 8.14405 13 12.3373 13C16.5297 13 18.7887 15.6715 19.4091 19.0105C19.6109 20.0964 18.6919 21 17.5873 21H6.83734Z" fill="black"/>
</mask>
<g mask="url(#mask0_157_82)">
<g filter="url(#filter0_f_157_82)">
<path fill-rule="evenodd" clip-rule="evenodd" d="M18.752 14.3052C18.8699 14.6162 19.1903 14.8013 19.5186 14.748L20.1037 14.6531C20.3907 14.6065 20.6766 14.7422 20.822 14.994L21.1113 15.4951C21.2529 15.7403 21.2328 16.0466 21.0605 16.2713L20.6587 16.795C20.461 17.0527 20.4665 17.4125 20.6719 17.664L21.111 18.2014C21.2951 18.4267 21.3206 18.7424 21.1752 18.9943L20.8859 19.4954C20.7444 19.7404 20.4692 19.8762 20.1887 19.8394L19.5333 19.7535C19.2114 19.7113 18.9027 19.896 18.7877 20.1996L18.5421 20.8479C18.4391 21.12 18.1785 21.3 17.8875 21.3H17.3088C17.0259 21.3 16.7708 21.1297 16.6623 20.8684L16.3707 20.166C16.2494 19.8736 15.9469 19.6991 15.633 19.7403L14.8805 19.8392C14.5998 19.8761 14.3246 19.7404 14.183 19.4952L13.8936 18.994C13.7483 18.7422 13.7736 18.4268 13.9574 18.2015L14.3962 17.6635C14.6012 17.4122 14.6067 17.053 14.4095 16.7955L14.0079 16.2712C13.8359 16.0466 13.816 15.7405 13.9575 15.4955L14.2469 14.9942C14.3924 14.7423 14.6784 14.6066 14.9655 14.6533L15.6499 14.7645C15.9701 14.8166 16.2842 14.6417 16.4086 14.3421L16.6623 13.7315C16.7708 13.4702 17.0258 13.3 17.3087 13.3H17.8877C18.1785 13.3 18.4391 13.4799 18.5422 13.7519L18.752 14.3052ZM17.5345 15.6529C16.6249 15.6529 15.8874 16.3904 15.8874 17.3C15.8874 18.2096 16.6249 18.9471 17.5345 18.9471C18.4441 18.9471 19.1816 18.2096 19.1816 17.3C19.1816 16.3904 18.4441 15.6529 17.5345 15.6529Z" fill="url(#paint0_linear_157_82)"/>
</g>
<g filter="url(#filter1_f_157_82)">
<ellipse cx="6.05552" cy="19.0283" rx="0.675935" ry="5.31726" transform="rotate(-27.5094 6.05552 19.0283)" fill="url(#paint1_linear_157_82)"/>
</g>
</g>
<path d="M6.83734 21C5.73277 21 4.81328 20.0952 5.03258 19.0126C5.70913 15.6727 8.14405 13 12.3373 13C16.5297 13 18.7887 15.6715 19.4091 19.0105C19.6109 20.0964 18.6919 21 17.5873 21H6.83734Z" fill="url(#paint2_linear_157_82)" stroke="url(#paint3_linear_157_82)" stroke-width="1.5" stroke-linejoin="round"/>
<path d="M12.3369 13C14.8222 13 16.8369 10.9853 16.8369 8.5C16.8369 6.01472 14.8222 4 12.3369 4C9.85163 4 7.83691 6.01472 7.83691 8.5C7.83691 10.9853 9.85163 13 12.3369 13Z" fill="url(#paint4_linear_157_82)" stroke="url(#paint5_linear_157_82)" stroke-width="1.5" stroke-linejoin="round"/>
<path fill-rule="evenodd" clip-rule="evenodd" d="M19.2178 14.0052C19.3357 14.3162 19.6561 14.5013 19.9844 14.448L20.5695 14.3531C20.8565 14.3065 21.1424 14.4422 21.2878 14.694L21.5771 15.1951C21.7187 15.4403 21.6986 15.7466 21.5263 15.9713L21.1245 16.495C20.9268 16.7527 20.9323 17.1125 21.1377 17.364L21.5768 17.9014C21.7609 18.1267 21.7864 18.4424 21.641 18.6943L21.3517 19.1954C21.2102 19.4404 20.935 19.5762 20.6545 19.5394L19.9991 19.4535C19.6772 19.4113 19.3685 19.596 19.2535 19.8996L19.0079 20.5479C18.9049 20.82 18.6443 21 18.3533 21H17.7746C17.4917 21 17.2366 20.8297 17.1281 20.5684L16.8365 19.866C16.7152 19.5736 16.4127 19.3991 16.0988 19.4403L15.3463 19.5392C15.0656 19.5761 14.7904 19.4404 14.6488 19.1952L14.3594 18.694C14.2141 18.4422 14.2394 18.1268 14.4232 17.9015L14.862 17.3635C15.067 17.1122 15.0725 16.753 14.8753 16.4955L14.4737 15.9712C14.3017 15.7466 14.2818 15.4405 14.4233 15.1955L14.7127 14.6942C14.8582 14.4423 15.1442 14.3066 15.4313 14.3533L16.1157 14.4645C16.4359 14.5166 16.75 14.3417 16.8744 14.0421L17.1281 13.4315C17.2366 13.1702 17.4916 13 17.7745 13H18.3535C18.6443 13 18.9049 13.1799 19.008 13.4519L19.2178 14.0052ZM18.0003 15.3529C17.0907 15.3529 16.3532 16.0904 16.3532 17C16.3532 17.9096 17.0907 18.6471 18.0003 18.6471C18.9099 18.6471 19.6474 17.9096 19.6474 17C19.6474 16.0904 18.9099 15.3529 18.0003 15.3529Z" fill="url(#paint6_linear_157_82)"/>
<defs>
<filter id="filter0_f_157_82" x="13.2998" y="12.8" width="8.46875" height="9" filterUnits="userSpaceOnUse" color-interpolation-filters="sRGB">
<feFlood flood-opacity="0" result="BackgroundImageFix"/>
<feBlend mode="normal" in="SourceGraphic" in2="BackgroundImageFix" result="shape"/>
<feGaussianBlur stdDeviation="0.25" result="effect1_foregroundBlur_157_82"/>
</filter>
<filter id="filter1_f_157_82" x="-2.47363" y="8.3017" width="17.0576" height="21.4532" filterUnits="userSpaceOnUse" color-interpolation-filters="sRGB">
<feFlood flood-opacity="0" result="BackgroundImageFix"/>
<feBlend mode="normal" in="SourceGraphic" in2="BackgroundImageFix" result="shape"/>
<feGaussianBlur stdDeviation="3" result="effect1_foregroundBlur_157_82"/>
</filter>
<linearGradient id="paint0_linear_157_82" x1="17.5344" y1="13.3" x2="17.5344" y2="21.3" gradientUnits="userSpaceOnUse">
<stop stop-color="#575757"/>
<stop offset="1" stop-color="#151515"/>
</linearGradient>
<linearGradient id="paint1_linear_157_82" x1="6.05552" y1="13.711" x2="6.05552" y2="24.3455" gradientUnits="userSpaceOnUse">
<stop stop-color="#575757"/>
<stop offset="1" stop-color="#151515"/>
</linearGradient>
<linearGradient id="paint2_linear_157_82" x1="12.2186" y1="13" x2="12.2186" y2="21" gradientUnits="userSpaceOnUse">
<stop stop-color="#E3E3E3" stop-opacity="0.6"/>
<stop offset="1" stop-color="#BBBBC0" stop-opacity="0.6"/>
</linearGradient>
<linearGradient id="paint3_linear_157_82" x1="12.2186" y1="13" x2="12.2186" y2="21" gradientUnits="userSpaceOnUse">
<stop stop-color="white"/>
<stop offset="1" stop-color="white" stop-opacity="0"/>
</linearGradient>
<linearGradient id="paint4_linear_157_82" x1="12.3369" y1="4" x2="12.3369" y2="13" gradientUnits="userSpaceOnUse">
<stop stop-color="#E3E3E3" stop-opacity="0.6"/>
<stop offset="1" stop-color="#BBBBC0" stop-opacity="0.6"/>
</linearGradient>
<linearGradient id="paint5_linear_157_82" x1="12.3369" y1="4" x2="12.3369" y2="13" gradientUnits="userSpaceOnUse">
<stop stop-color="white"/>
<stop offset="1" stop-color="white" stop-opacity="0"/>
</linearGradient>
<linearGradient id="paint6_linear_157_82" x1="18.0002" y1="13" x2="18.0002" y2="21" gradientUnits="userSpaceOnUse">
<stop stop-color="#575757"/>
<stop offset="1" stop-color="#151515"/>
</linearGradient>
</defs>
</svg>
