<svg width="24" height="24" viewBox="0 0 24 24" fill="none" xmlns="http://www.w3.org/2000/svg">
<mask id="mask0_157_74" style="mask-type:alpha" maskUnits="userSpaceOnUse" x="1" y="12" width="16" height="9">
<path d="M3.50043 20.25C2.39586 20.25 1.47637 19.3452 1.69567 18.2626C2.37222 14.9227 4.80714 12.25 9.00043 12.25C13.1928 12.25 15.4518 14.9215 16.0722 18.2605C16.274 19.3464 15.355 20.25 14.2504 20.25H3.50043Z" fill="black"/>
</mask>
<g mask="url(#mask0_157_74)">
<g filter="url(#filter0_f_157_74)">
<ellipse cx="3.53703" cy="18.071" rx="0.968208" ry="5.31726" transform="rotate(-30.5572 3.53703 18.071)" fill="url(#paint0_linear_157_74)"/>
</g>
</g>
<path d="M3.50043 20.25C2.39586 20.25 1.47637 19.3452 1.69567 18.2626C2.37222 14.9227 4.80714 12.25 9.00043 12.25C13.1928 12.25 15.4518 14.9215 16.0722 18.2605C16.274 19.3464 15.355 20.25 14.2504 20.25H3.50043Z" fill="url(#paint1_linear_157_74)" stroke="url(#paint2_linear_157_74)" stroke-width="1.5" stroke-linejoin="round"/>
<path d="M9 12.25C11.4853 12.25 13.5 10.2353 13.5 7.75C13.5 5.26472 11.4853 3.25 9 3.25C6.51472 3.25 4.5 5.26472 4.5 7.75C4.5 10.2353 6.51472 12.25 9 12.25Z" fill="url(#paint3_linear_157_74)" stroke="url(#paint4_linear_157_74)" stroke-width="1.5" stroke-linejoin="round"/>
<path d="M20 8.5V15M23.25 11.75H16.75" stroke="url(#paint5_linear_157_74)" stroke-width="1.5" stroke-linecap="round" stroke-linejoin="round"/>
<defs>
<filter id="filter0_f_157_74" x="-5.29297" y="7.46545" width="17.6602" height="21.2112" filterUnits="userSpaceOnUse" color-interpolation-filters="sRGB">
<feFlood flood-opacity="0" result="BackgroundImageFix"/>
<feBlend mode="normal" in="SourceGraphic" in2="BackgroundImageFix" result="shape"/>
<feGaussianBlur stdDeviation="3" result="effect1_foregroundBlur_157_74"/>
</filter>
<linearGradient id="paint0_linear_157_74" x1="3.53703" y1="12.7538" x2="3.53703" y2="23.3883" gradientUnits="userSpaceOnUse">
<stop stop-color="#575757"/>
<stop offset="1" stop-color="#151515"/>
</linearGradient>
<linearGradient id="paint1_linear_157_74" x1="8.88164" y1="12.25" x2="8.88164" y2="20.25" gradientUnits="userSpaceOnUse">
<stop stop-color="#E3E3E3" stop-opacity="0.6"/>
<stop offset="1" stop-color="#BBBBC0" stop-opacity="0.6"/>
</linearGradient>
<linearGradient id="paint2_linear_157_74" x1="8.88164" y1="12.25" x2="8.88164" y2="20.25" gradientUnits="userSpaceOnUse">
<stop stop-color="white"/>
<stop offset="1" stop-color="white" stop-opacity="0"/>
</linearGradient>
<linearGradient id="paint3_linear_157_74" x1="9" y1="3.25" x2="9" y2="12.25" gradientUnits="userSpaceOnUse">
<stop stop-color="#E3E3E3" stop-opacity="0.6"/>
<stop offset="1" stop-color="#BBBBC0" stop-opacity="0.6"/>
</linearGradient>
<linearGradient id="paint4_linear_157_74" x1="9" y1="3.25" x2="9" y2="12.25" gradientUnits="userSpaceOnUse">
<stop stop-color="white"/>
<stop offset="1" stop-color="white" stop-opacity="0"/>
</linearGradient>
<linearGradient id="paint5_linear_157_74" x1="20" y1="8.5" x2="20" y2="15" gradientUnits="userSpaceOnUse">
<stop stop-color="#575757"/>
<stop offset="1" stop-color="#151515"/>
</linearGradient>
</defs>
</svg>
