<svg width="24" height="24" viewBox="0 0 24 24" fill="none" xmlns="http://www.w3.org/2000/svg">
<mask id="mask0_85_989" style="mask-type:alpha" maskUnits="userSpaceOnUse" x="2" y="4" width="14" height="16">
<path d="M2.75 6.75C2.75 5.64543 3.64543 4.75 4.75 4.75H13.25C14.3546 4.75 15.25 5.64543 15.25 6.75V17.25C15.25 18.3546 14.3546 19.25 13.25 19.25H4.75C3.64543 19.25 2.75 18.3546 2.75 17.25V6.75Z" fill="url(#paint0_linear_85_989)" stroke="url(#paint1_linear_85_989)" stroke-linejoin="round"/>
</mask>
<g mask="url(#mask0_85_989)">
<g filter="url(#filter0_f_85_989)">
<path d="M13 10.6312L19.0704 9.07314C19.9569 8.8456 21 9.17652 21 9.6853V14.3147C21 14.8235 19.9569 15.1544 19.0704 14.9269L13 13.3689V10.6312Z" fill="url(#paint2_linear_85_989)"/>
</g>
<g filter="url(#filter1_f_85_989)">
<ellipse cx="13.5002" cy="18.9686" rx="1.30755" ry="3.3461" transform="rotate(55.6211 13.5002 18.9686)" fill="url(#paint3_linear_85_989)"/>
</g>
</g>
<path d="M15.25 10L19.8028 7.72361C20.4677 7.39116 21.25 7.87465 21.25 8.61803V15.382C21.25 16.1253 20.4677 16.6088 19.8028 16.2764L15.25 14V10Z" fill="#D9D9D9" stroke="url(#paint4_linear_85_989)" stroke-linejoin="round"/>
<path d="M2.75 6.75C2.75 5.64543 3.64543 4.75 4.75 4.75H13.25C14.3546 4.75 15.25 5.64543 15.25 6.75V17.25C15.25 18.3546 14.3546 19.25 13.25 19.25H4.75C3.64543 19.25 2.75 18.3546 2.75 17.25V6.75Z" fill="url(#paint5_linear_85_989)" stroke="url(#paint6_linear_85_989)" stroke-linejoin="round"/>
<path d="M15.25 10L19.8028 7.72361C20.4677 7.39116 21.25 7.87465 21.25 8.61803V15.382C21.25 16.1253 20.4677 16.6088 19.8028 16.2764L15.25 14V10Z" fill="url(#paint7_linear_85_989)"/>
<defs>
<filter id="filter0_f_85_989" x="12" y="8" width="10" height="8" filterUnits="userSpaceOnUse" color-interpolation-filters="sRGB">
<feFlood flood-opacity="0" result="BackgroundImageFix"/>
<feBlend mode="normal" in="SourceGraphic" in2="BackgroundImageFix" result="shape"/>
<feGaussianBlur stdDeviation="0.5" result="effect1_foregroundBlur_85_989"/>
</filter>
<filter id="filter1_f_85_989" x="6.64062" y="12.7923" width="13.7188" height="12.3525" filterUnits="userSpaceOnUse" color-interpolation-filters="sRGB">
<feFlood flood-opacity="0" result="BackgroundImageFix"/>
<feBlend mode="normal" in="SourceGraphic" in2="BackgroundImageFix" result="shape"/>
<feGaussianBlur stdDeviation="2" result="effect1_foregroundBlur_85_989"/>
</filter>
<linearGradient id="paint0_linear_85_989" x1="9" y1="4.75" x2="9" y2="19.25" gradientUnits="userSpaceOnUse">
<stop stop-color="#E3E3E3" stop-opacity="0.6"/>
<stop offset="1" stop-color="#BBBBC0" stop-opacity="0.6"/>
</linearGradient>
<linearGradient id="paint1_linear_85_989" x1="9" y1="4.75" x2="9" y2="19.25" gradientUnits="userSpaceOnUse">
<stop stop-color="white"/>
<stop offset="1" stop-color="white" stop-opacity="0"/>
</linearGradient>
<linearGradient id="paint2_linear_85_989" x1="17" y1="9" x2="17" y2="15" gradientUnits="userSpaceOnUse">
<stop stop-color="#575757"/>
<stop offset="1" stop-color="#151515"/>
</linearGradient>
<linearGradient id="paint3_linear_85_989" x1="13.5002" y1="15.6225" x2="13.5002" y2="22.3147" gradientUnits="userSpaceOnUse">
<stop stop-color="#575757"/>
<stop offset="1" stop-color="#151515"/>
</linearGradient>
<linearGradient id="paint4_linear_85_989" x1="18.25" y1="7.61674" x2="18.25" y2="16.3832" gradientUnits="userSpaceOnUse">
<stop stop-color="white"/>
<stop offset="1" stop-color="white" stop-opacity="0"/>
</linearGradient>
<linearGradient id="paint5_linear_85_989" x1="9" y1="4.75" x2="9" y2="19.25" gradientUnits="userSpaceOnUse">
<stop stop-color="#E3E3E3" stop-opacity="0.6"/>
<stop offset="1" stop-color="#BBBBC0" stop-opacity="0.6"/>
</linearGradient>
<linearGradient id="paint6_linear_85_989" x1="9" y1="4.75" x2="9" y2="19.25" gradientUnits="userSpaceOnUse">
<stop stop-color="white"/>
<stop offset="1" stop-color="white" stop-opacity="0"/>
</linearGradient>
<linearGradient id="paint7_linear_85_989" x1="18.25" y1="7.61674" x2="18.25" y2="16.3832" gradientUnits="userSpaceOnUse">
<stop stop-color="#575757"/>
<stop offset="1" stop-color="#151515"/>
</linearGradient>
</defs>
</svg>
