<svg width="24" height="24" viewBox="0 0 24 24" fill="none" xmlns="http://www.w3.org/2000/svg">
<mask id="mask0_85_977" style="mask-type:alpha" maskUnits="userSpaceOnUse" x="2" y="6" width="20" height="15">
<path d="M4.75 20.25H19.25C20.3546 20.25 21.25 19.3546 21.25 18.25V8.25C21.25 7.14543 20.3546 6.25 19.25 6.25H4.75C3.64543 6.25 2.75 7.14543 2.75 8.25V18.25C2.75 19.3546 3.64543 20.25 4.75 20.25Z" fill="black"/>
</mask>
<g mask="url(#mask0_85_977)">
<g filter="url(#filter0_f_85_977)">
<path d="M11 18V11L15 14.5L11 18Z" fill="url(#paint0_linear_85_977)"/>
<path d="M11.9231 14.5H12.8462M11.9231 14.5V14.15M11.9231 14.5V14.85M11 11V18L15 14.5L11 11Z" stroke="url(#paint1_linear_85_977)" stroke-linecap="round" stroke-linejoin="round"/>
</g>
</g>
<path d="M4.75 20.25H19.25C20.3546 20.25 21.25 19.3546 21.25 18.25V8.25C21.25 7.14543 20.3546 6.25 19.25 6.25H4.75C3.64543 6.25 2.75 7.14543 2.75 8.25V18.25C2.75 19.3546 3.64543 20.25 4.75 20.25Z" fill="url(#paint2_linear_85_977)" stroke="url(#paint3_linear_85_977)" stroke-linecap="round" stroke-linejoin="round"/>
<path d="M4.75 3.75H19.25" stroke="url(#paint4_linear_85_977)" stroke-linecap="round" stroke-linejoin="round"/>
<path d="M10.75 15.75V10.75L14 13.25L10.75 15.75Z" fill="url(#paint5_linear_85_977)"/>
<path d="M11.5 13.25H12.25M11.5 13.25V13M11.5 13.25V13.5M10.75 10.75V15.75L14 13.25L10.75 10.75Z" stroke="url(#paint6_linear_85_977)" stroke-linecap="round" stroke-linejoin="round"/>
<defs>
<filter id="filter0_f_85_977" x="8.5" y="8.49998" width="9" height="12" filterUnits="userSpaceOnUse" color-interpolation-filters="sRGB">
<feFlood flood-opacity="0" result="BackgroundImageFix"/>
<feBlend mode="normal" in="SourceGraphic" in2="BackgroundImageFix" result="shape"/>
<feGaussianBlur stdDeviation="1" result="effect1_foregroundBlur_85_977"/>
</filter>
<linearGradient id="paint0_linear_85_977" x1="13" y1="11" x2="13" y2="18" gradientUnits="userSpaceOnUse">
<stop stop-color="#575757"/>
<stop offset="1" stop-color="#151515"/>
</linearGradient>
<linearGradient id="paint1_linear_85_977" x1="13" y1="11" x2="13" y2="18" gradientUnits="userSpaceOnUse">
<stop stop-color="#575757"/>
<stop offset="1" stop-color="#151515"/>
</linearGradient>
<linearGradient id="paint2_linear_85_977" x1="12" y1="6.25" x2="12" y2="20.25" gradientUnits="userSpaceOnUse">
<stop stop-color="#E3E3E3" stop-opacity="0.6"/>
<stop offset="1" stop-color="#BBBBC0" stop-opacity="0.6"/>
</linearGradient>
<linearGradient id="paint3_linear_85_977" x1="12" y1="6.25" x2="12" y2="20.25" gradientUnits="userSpaceOnUse">
<stop stop-color="#E3E3E3" stop-opacity="0.6"/>
<stop offset="1" stop-color="#BBBBC0" stop-opacity="0.6"/>
</linearGradient>
<linearGradient id="paint4_linear_85_977" x1="12" y1="3.75" x2="12" y2="4.75" gradientUnits="userSpaceOnUse">
<stop stop-color="#575757"/>
<stop offset="1" stop-color="#151515"/>
</linearGradient>
<linearGradient id="paint5_linear_85_977" x1="12.375" y1="10.75" x2="12.375" y2="15.75" gradientUnits="userSpaceOnUse">
<stop stop-color="#575757"/>
<stop offset="1" stop-color="#151515"/>
</linearGradient>
<linearGradient id="paint6_linear_85_977" x1="12.375" y1="10.75" x2="12.375" y2="15.75" gradientUnits="userSpaceOnUse">
<stop stop-color="#575757"/>
<stop offset="1" stop-color="#151515"/>
</linearGradient>
</defs>
</svg>
