<svg width="24" height="24" viewBox="0 0 24 24" fill="none" xmlns="http://www.w3.org/2000/svg">
<mask id="mask0_85_969" style="mask-type:alpha" maskUnits="userSpaceOnUse" x="1" y="3" width="12" height="18">
<path d="M3.75 7.74999H5.35491C5.77433 7.74999 6.18314 7.61813 6.52352 7.37306L11.4578 3.82034C11.7886 3.58221 12.25 3.81856 12.25 4.22611V19.7739C12.25 20.1814 11.7886 20.4178 11.4578 20.1796L6.52352 16.6269C6.18314 16.3818 5.77433 16.25 5.35491 16.25H3.75C2.64543 16.25 1.75 15.3546 1.75 14.25V9.74999C1.75 8.64542 2.64543 7.74999 3.75 7.74999Z" fill="black" stroke="url(#paint0_linear_85_969)" stroke-linecap="round" stroke-linejoin="round"/>
</mask>
<g mask="url(#mask0_85_969)">
<g filter="url(#filter0_f_85_969)">
<ellipse cx="4.84608" cy="15.312" rx="0.859598" ry="3.20593" transform="rotate(-18.7829 4.84608 15.312)" fill="url(#paint1_linear_85_969)"/>
</g>
</g>
<path d="M3.75 7.74999H5.35491C5.77433 7.74999 6.18314 7.61813 6.52352 7.37306L11.4578 3.82034C11.7886 3.58221 12.25 3.81856 12.25 4.22611V19.7739C12.25 20.1814 11.7886 20.4178 11.4578 20.1796L6.52352 16.6269C6.18314 16.3818 5.77433 16.25 5.35491 16.25H3.75C2.64543 16.25 1.75 15.3546 1.75 14.25V9.74999C1.75 8.64542 2.64543 7.74999 3.75 7.74999Z" fill="url(#paint2_linear_85_969)" stroke="url(#paint3_linear_85_969)" stroke-linecap="round" stroke-linejoin="round"/>
<path d="M19.2474 4.75194C21.1023 6.60683 22.2496 9.16933 22.2496 11.9998C22.2496 14.8302 21.1023 17.3927 19.2474 19.2476M15.8887 8.11132C16.884 9.10662 17.4996 10.4816 17.4996 12.0004C17.4996 13.5192 16.884 14.8942 15.8887 15.8895" stroke="url(#paint4_linear_85_969)" stroke-linecap="round" stroke-linejoin="round"/>
<defs>
<filter id="filter0_f_85_969" x="-0.46875" y="8.26399" width="10.6289" height="14.096" filterUnits="userSpaceOnUse" color-interpolation-filters="sRGB">
<feFlood flood-opacity="0" result="BackgroundImageFix"/>
<feBlend mode="normal" in="SourceGraphic" in2="BackgroundImageFix" result="shape"/>
<feGaussianBlur stdDeviation="2" result="effect1_foregroundBlur_85_969"/>
</filter>
<linearGradient id="paint0_linear_85_969" x1="7" y1="3.72522" x2="7" y2="20.2747" gradientUnits="userSpaceOnUse">
<stop stop-color="white"/>
<stop offset="1" stop-color="white" stop-opacity="0"/>
</linearGradient>
<linearGradient id="paint1_linear_85_969" x1="4.84608" y1="12.1061" x2="4.84608" y2="18.5179" gradientUnits="userSpaceOnUse">
<stop stop-color="#575757"/>
<stop offset="1" stop-color="#151515"/>
</linearGradient>
<linearGradient id="paint2_linear_85_969" x1="7" y1="3.72522" x2="7" y2="20.2747" gradientUnits="userSpaceOnUse">
<stop stop-color="#E3E3E3" stop-opacity="0.6"/>
<stop offset="1" stop-color="#BBBBC0" stop-opacity="0.6"/>
</linearGradient>
<linearGradient id="paint3_linear_85_969" x1="7" y1="3.72522" x2="7" y2="20.2747" gradientUnits="userSpaceOnUse">
<stop stop-color="white"/>
<stop offset="1" stop-color="white" stop-opacity="0"/>
</linearGradient>
<linearGradient id="paint4_linear_85_969" x1="19.0691" y1="4.75194" x2="19.0691" y2="19.2476" gradientUnits="userSpaceOnUse">
<stop stop-color="#575757"/>
<stop offset="1" stop-color="#151515"/>
</linearGradient>
</defs>
</svg>
