<svg width="24" height="24" viewBox="0 0 24 24" fill="none" xmlns="http://www.w3.org/2000/svg">
<mask id="mask0_85_953" style="mask-type:alpha" maskUnits="userSpaceOnUse" x="1" y="3" width="12" height="18">
<path d="M3.75 7.74999H5.35491C5.77433 7.74999 6.18314 7.61813 6.52352 7.37306L11.4578 3.82034C11.7886 3.58221 12.25 3.81856 12.25 4.22611V19.7739C12.25 20.1814 11.7886 20.4178 11.4578 20.1796L6.52352 16.6269C6.18314 16.3818 5.77433 16.25 5.35491 16.25H3.75C2.64543 16.25 1.75 15.3546 1.75 14.25V9.74999C1.75 8.64542 2.64543 7.74999 3.75 7.74999Z" fill="black"/>
</mask>
<g mask="url(#mask0_85_953)">
<g filter="url(#filter0_f_85_953)">
<ellipse cx="6.84608" cy="16.312" rx="0.859598" ry="3.20593" transform="rotate(-18.7829 6.84608 16.312)" fill="url(#paint0_linear_85_953)"/>
</g>
</g>
<path d="M3.75 7.74999H5.35491C5.77433 7.74999 6.18314 7.61813 6.52352 7.37306L11.4578 3.82034C11.7886 3.58221 12.25 3.81856 12.25 4.22611V19.7739C12.25 20.1814 11.7886 20.4178 11.4578 20.1796L6.52352 16.6269C6.18314 16.3818 5.77433 16.25 5.35491 16.25H3.75C2.64543 16.25 1.75 15.3546 1.75 14.25V9.74999C1.75 8.64542 2.64543 7.74999 3.75 7.74999Z" fill="url(#paint1_linear_85_953)" stroke="url(#paint2_linear_85_953)" stroke-linecap="round"/>
<path d="M21.5004 9.99998L19.3791 12.1213M19.3791 12.1213L17.2578 14.2426M19.3791 12.1213L17.2578 9.99998M19.3791 12.1213L21.5004 14.2426" stroke="url(#paint3_linear_85_953)" stroke-linecap="round"/>
<defs>
<filter id="filter0_f_85_953" x="1.53125" y="9.26399" width="10.6289" height="14.096" filterUnits="userSpaceOnUse" color-interpolation-filters="sRGB">
<feFlood flood-opacity="0" result="BackgroundImageFix"/>
<feBlend mode="normal" in="SourceGraphic" in2="BackgroundImageFix" result="shape"/>
<feGaussianBlur stdDeviation="2" result="effect1_foregroundBlur_85_953"/>
</filter>
<linearGradient id="paint0_linear_85_953" x1="6.84608" y1="13.1061" x2="6.84608" y2="19.5179" gradientUnits="userSpaceOnUse">
<stop stop-color="#575757"/>
<stop offset="1" stop-color="#151515"/>
</linearGradient>
<linearGradient id="paint1_linear_85_953" x1="7" y1="3.72522" x2="7" y2="20.2747" gradientUnits="userSpaceOnUse">
<stop stop-color="#E3E3E3" stop-opacity="0.6"/>
<stop offset="1" stop-color="#BBBBC0" stop-opacity="0.6"/>
</linearGradient>
<linearGradient id="paint2_linear_85_953" x1="7" y1="3.72522" x2="7" y2="20.2747" gradientUnits="userSpaceOnUse">
<stop stop-color="white"/>
<stop offset="1" stop-color="white" stop-opacity="0"/>
</linearGradient>
<linearGradient id="paint3_linear_85_953" x1="19.3791" y1="9.99998" x2="19.3791" y2="14.2426" gradientUnits="userSpaceOnUse">
<stop stop-color="#575757"/>
<stop offset="1" stop-color="#151515"/>
</linearGradient>
</defs>
</svg>
