<svg width="24" height="24" viewBox="0 0 24 24" fill="none" xmlns="http://www.w3.org/2000/svg">
<mask id="mask0_85_322" style="mask-type:alpha" maskUnits="userSpaceOnUse" x="2" y="2" width="21" height="20">
<path fill-rule="evenodd" clip-rule="evenodd" d="M12.149 2C14.7047 2.01525 17.1562 3.0175 18.9908 4.79688C20.8253 6.57631 21.9014 8.99572 21.9947 11.5498C22.0432 12.8574 21.8327 14.1621 21.3746 15.3877C20.9165 16.6131 20.2199 17.7355 19.3258 18.6904C18.4314 19.6455 17.3566 20.4146 16.1637 20.9522C14.9707 21.4897 13.6826 21.7859 12.3746 21.8232H12.0914C10.6045 21.8236 9.13595 21.4892 7.7955 20.8457L2.608 22H2.59335C2.58249 21.9999 2.57099 21.9977 2.56112 21.9932C2.55136 21.9886 2.5428 21.9818 2.53573 21.9736C2.52863 21.9655 2.52322 21.9557 2.5201 21.9453C2.51704 21.935 2.51576 21.9237 2.51717 21.9131L3.39413 16.668C2.56877 15.1578 2.15081 13.459 2.18124 11.7383C2.21173 10.0174 2.68946 8.33361 3.56796 6.85352C4.44639 5.37355 5.6951 4.14789 7.191 3.29688C8.68704 2.44588 10.379 1.99876 12.1002 2H12.149Z" fill="black"/>
</mask>
<g mask="url(#mask0_85_322)">
<g filter="url(#filter0_f_85_322)">
<ellipse cx="17.9909" cy="18.7646" rx="0.968208" ry="4.52145" transform="rotate(47.5829 17.9909 18.7646)" fill="url(#paint0_linear_85_322)"/>
</g>
<g filter="url(#filter1_f_85_322)">
<path d="M9.23268 8.08203C9.31663 8.04462 9.40545 8.01967 9.49635 8.00878L9.58717 8H9.60866C9.77448 8.00502 9.94053 8.00948 10.0852 8.01953C10.2611 8.03259 10.4623 8.04754 10.6311 8.47461C10.8391 8.97408 11.2813 10.2173 11.3411 10.3457C11.3784 10.4122 11.3985 10.4873 11.3997 10.5635C11.4009 10.6395 11.3839 10.7147 11.3489 10.7822C11.2811 10.9279 11.1928 11.0635 11.0872 11.1846C10.9587 11.3263 10.825 11.4898 10.7005 11.6084C10.5758 11.727 10.4388 11.858 10.5755 12.1114C10.9291 12.7638 11.378 13.3599 11.9065 13.8809C12.4723 14.4349 13.1367 14.879 13.8655 15.1885C13.9498 15.2326 14.043 15.2575 14.138 15.2617C14.1896 15.2608 14.2407 15.2484 14.2874 15.2266C14.334 15.2047 14.3757 15.1737 14.4095 15.1348C14.5643 14.9779 15.0259 14.4339 15.2269 14.1836C15.2581 14.1324 15.3013 14.0894 15.3528 14.0586C15.4045 14.0278 15.4637 14.01 15.5237 14.0069C15.6157 14.0137 15.7057 14.0373 15.7894 14.0762C16.0155 14.1666 17.2182 14.8094 17.4642 14.9385C17.7094 15.0672 17.8726 15.1397 17.9319 15.2403C17.9913 15.3408 17.9765 15.844 17.7513 16.419C17.526 16.9937 16.494 17.5224 16.0364 17.5508C15.9008 17.5589 15.7707 17.5762 15.5989 17.5762C15.1818 17.5762 14.5382 17.4682 13.0706 16.836C10.5736 15.7634 9.05739 13.1181 8.93776 12.9483L8.93695 12.9471C8.81369 12.772 7.96315 11.5638 8.00124 10.3428C8.03948 9.11848 8.69958 8.53522 8.93581 8.29296C9.01942 8.20344 9.1208 8.13192 9.23268 8.08203Z" fill="url(#paint1_linear_85_322)"/>
</g>
</g>
<path d="M12.0996 2.5H12.1465L12.5996 2.51367C14.8614 2.63632 17.0094 3.57219 18.6426 5.15625C20.3844 6.84588 21.4065 9.14318 21.4951 11.5684C21.5354 12.6547 21.3875 13.7389 21.0586 14.7725L20.9062 15.2129C20.4713 16.3762 19.8099 17.4419 18.9609 18.3486C18.1116 19.2556 17.0906 19.9857 15.958 20.4961C14.8252 21.0064 13.6023 21.2878 12.3604 21.3232H12.0908C10.6791 21.3236 9.28454 21.0056 8.01172 20.3945L7.85547 20.3203L7.68652 20.3574L3.11426 21.374L3.8877 16.75L3.91602 16.5801L3.83301 16.4277C3.04939 14.9938 2.65275 13.3809 2.68164 11.7471C2.71061 10.1129 3.16391 8.51374 3.99805 7.1084C4.83214 5.70324 6.01809 4.53949 7.43848 3.73145C8.85898 2.92346 10.4654 2.49886 12.0996 2.5Z" fill="url(#paint2_linear_85_322)" stroke="url(#paint3_linear_85_322)"/>
<path d="M8.2903 7.20605C8.37425 7.16864 8.46307 7.14369 8.55397 7.1328L8.64479 7.12402H8.66628C8.8321 7.12904 8.99815 7.1335 9.14284 7.14355C9.31873 7.15661 9.51994 7.17156 9.68874 7.59863C9.89671 8.0981 10.3389 9.34128 10.3987 9.46972C10.436 9.53619 10.4561 9.61129 10.4573 9.68749C10.4585 9.7635 10.4415 9.83875 10.4065 9.90624C10.3387 10.0519 10.2504 10.1875 10.1448 10.3086C10.0163 10.4503 9.88263 10.6138 9.75808 10.7324C9.63341 10.851 9.49641 10.982 9.63308 11.2354C9.98675 11.8878 10.4356 12.4839 10.9641 13.0049C11.5299 13.5589 12.1943 14.003 12.9231 14.3125C13.0074 14.3566 13.1006 14.3815 13.1956 14.3857C13.2472 14.3848 13.2983 14.3724 13.345 14.3506C13.3916 14.3287 13.4333 14.2977 13.4671 14.2588C13.6219 14.1019 14.0835 13.5579 14.2845 13.3076C14.3157 13.2564 14.3589 13.2134 14.4104 13.1826C14.4621 13.1518 14.5213 13.134 14.5813 13.1309C14.6733 13.1377 14.7633 13.1613 14.847 13.2002C15.0731 13.2906 16.2758 13.9334 16.5218 14.0625C16.767 14.1912 16.9302 14.2637 16.9895 14.3643C17.0489 14.4648 17.0341 14.968 16.8089 15.543C16.5836 16.1177 15.5516 16.6464 15.094 16.6748C14.9584 16.6829 14.8283 16.7002 14.6565 16.7002C14.2394 16.7002 13.5958 16.5922 12.1282 15.96C9.6312 14.8874 8.11501 12.2421 7.99538 12.0723L7.99457 12.0711C7.87131 11.896 7.02076 10.6878 7.05886 9.46679C7.0971 8.2425 7.7572 7.65924 7.99343 7.41698C8.07704 7.32746 8.17842 7.25594 8.2903 7.20605Z" fill="url(#paint4_linear_85_322)"/>
<defs>
<filter id="filter0_f_85_322" x="8.58887" y="9.63144" width="18.8037" height="18.2663" filterUnits="userSpaceOnUse" color-interpolation-filters="sRGB">
<feFlood flood-opacity="0" result="BackgroundImageFix"/>
<feBlend mode="normal" in="SourceGraphic" in2="BackgroundImageFix" result="shape"/>
<feGaussianBlur stdDeviation="3" result="effect1_foregroundBlur_85_322"/>
</filter>
<filter id="filter1_f_85_322" x="7" y="7" width="11.9619" height="11.5762" filterUnits="userSpaceOnUse" color-interpolation-filters="sRGB">
<feFlood flood-opacity="0" result="BackgroundImageFix"/>
<feBlend mode="normal" in="SourceGraphic" in2="BackgroundImageFix" result="shape"/>
<feGaussianBlur stdDeviation="0.5" result="effect1_foregroundBlur_85_322"/>
</filter>
<linearGradient id="paint0_linear_85_322" x1="17.9909" y1="14.2432" x2="17.9909" y2="23.2861" gradientUnits="userSpaceOnUse">
<stop stop-color="#575757"/>
<stop offset="1" stop-color="#151515"/>
</linearGradient>
<linearGradient id="paint1_linear_85_322" x1="12.9808" y1="8" x2="12.9808" y2="17.5762" gradientUnits="userSpaceOnUse">
<stop stop-color="#575757"/>
<stop offset="1" stop-color="#151515"/>
</linearGradient>
<linearGradient id="paint2_linear_85_322" x1="12.0906" y1="2" x2="12.0906" y2="22" gradientUnits="userSpaceOnUse">
<stop stop-color="#E3E3E3" stop-opacity="0.6"/>
<stop offset="1" stop-color="#BBBBC0" stop-opacity="0.6"/>
</linearGradient>
<linearGradient id="paint3_linear_85_322" x1="12.0906" y1="2" x2="12.0906" y2="22" gradientUnits="userSpaceOnUse">
<stop stop-color="white"/>
<stop offset="1" stop-color="white" stop-opacity="0"/>
</linearGradient>
<linearGradient id="paint4_linear_85_322" x1="12.0384" y1="7.12402" x2="12.0384" y2="16.7002" gradientUnits="userSpaceOnUse">
<stop stop-color="#575757"/>
<stop offset="1" stop-color="#151515"/>
</linearGradient>
</defs>
</svg>
