<svg width="24" height="24" viewBox="0 0 24 24" fill="none" xmlns="http://www.w3.org/2000/svg">
<path d="M16.1301 7.66037L15.3201 3.61037C15.2287 3.14997 14.9782 2.73641 14.6126 2.44207C14.2469 2.14773 13.7894 1.99138 13.3201 2.00037H10.6401C10.1708 1.99138 9.71329 2.14773 9.34765 2.44207C8.98202 2.73641 8.73155 3.14997 8.64011 3.61037L7.86011 7.66037M7.87988 16.3606L8.67988 20.3606C8.77133 20.821 9.02179 21.2345 9.38743 21.5289C9.75307 21.8232 10.2106 21.9796 10.6799 21.9706H13.3999C13.8692 21.9796 14.3267 21.8232 14.6923 21.5289C15.058 21.2345 15.3084 20.821 15.3999 20.3606L16.2099 16.3106M18 12.0005C18 15.3142 15.3137 18.0005 12 18.0005C8.68629 18.0005 6 15.3142 6 12.0005C6 8.68678 8.68629 6.00049 12 6.00049C15.3137 6.00049 18 8.68678 18 12.0005Z" fill="#DDDDDD"/>
<path d="M16.1301 7.66037L15.3201 3.61037C15.2287 3.14997 14.9782 2.73641 14.6126 2.44207C14.2469 2.14773 13.7894 1.99138 13.3201 2.00037H10.6401C10.1708 1.99138 9.71329 2.14773 9.34765 2.44207C8.98202 2.73641 8.73155 3.14997 8.64011 3.61037L7.86011 7.66037M7.87988 16.3606L8.67988 20.3606C8.77133 20.821 9.02179 21.2345 9.38743 21.5289C9.75307 21.8232 10.2106 21.9796 10.6799 21.9706H13.3999C13.8692 21.9796 14.3267 21.8232 14.6923 21.5289C15.058 21.2345 15.3084 20.821 15.3999 20.3606L16.2099 16.3106M18 12.0005C18 15.3142 15.3137 18.0005 12 18.0005C8.68629 18.0005 6 15.3142 6 12.0005C6 8.68678 8.68629 6.00049 12 6.00049C15.3137 6.00049 18 8.68678 18 12.0005Z" stroke="#1C1F21" stroke-width="2" stroke-linecap="round" stroke-linejoin="round"/>
<path d="M12 18C15.3137 18 18 15.3137 18 12C18 10.2847 17.2802 8.73756 16.1263 7.64406C15.0509 6.62504 13.5984 5.99998 12 5.99998C10.3953 5.99998 8.93765 6.62998 7.86102 7.65614C6.71448 8.74894 6 10.291 6 12C6 13.7185 6.72253 15.2684 7.88039 16.3622C8.9551 17.3775 10.4049 18 12 18Z" fill="#DDDDDD"/>
<path d="M16.1301 7.65986L15 3M9 3L7.86011 7.65986M7.87988 16.3601L9 21M15 21L16.2099 16.3101M18 12C18 15.3137 15.3137 18 12 18C8.68629 18 6 15.3137 6 12C6 8.68627 8.68629 5.99998 12 5.99998C15.3137 5.99998 18 8.68627 18 12Z" stroke="#1C1F21" stroke-width="2" stroke-linecap="round" stroke-linejoin="round"/>
<path d="M12 10V12.2L13.6 13.2" stroke="#1C1F21" stroke-width="2" stroke-linecap="round" stroke-linejoin="round"/>
</svg>
