<svg width="24" height="24" viewBox="0 0 24 24" fill="none" xmlns="http://www.w3.org/2000/svg">
<path d="M14.3959 5.61705L17.1879 2.8244C17.7166 2.29583 18.4337 1.99893 19.1813 1.99902C19.9289 1.99912 20.6459 2.29619 21.1744 2.8249C21.703 3.35361 21.9999 4.07064 21.9998 4.81826C21.9997 5.56587 21.7026 6.28283 21.1739 6.8114L18.3823 9.60344M14.3959 5.61705L3.84193 16.1734C3.60975 16.4049 3.43805 16.6899 3.34193 17.0034L2.02093 21.3554C1.99509 21.4419 1.99314 21.5337 2.01529 21.6212C2.03743 21.7087 2.08285 21.7886 2.14673 21.8524C2.21061 21.9162 2.29055 21.9615 2.37809 21.9835C2.46563 22.0055 2.55749 22.0034 2.64393 21.9774L6.99693 20.6574C7.3101 20.5621 7.59511 20.3915 7.82693 20.1604L18.3823 9.60344M14.3959 5.61705L18.3823 9.60344" stroke="#A4A5A6" stroke-width="2" stroke-linecap="round" stroke-linejoin="round"/>
<path d="M21.9999 4.81924C21.9998 5.56685 21.7027 6.28381 21.174 6.81238L18.3824 9.60442L14.396 5.61803L17.188 2.82538C17.7167 2.29681 18.4338 1.99991 19.1814 2C19.929 2.0001 20.646 2.29717 21.1745 2.82588C21.7031 3.35459 22 4.07162 21.9999 4.81924Z" fill="#DDDDDD" stroke="#A4A5A6" stroke-width="2" stroke-linecap="round" stroke-linejoin="round"/>
</svg>
