<svg width="24" height="24" viewBox="0 0 24 24" fill="none" xmlns="http://www.w3.org/2000/svg">
<path d="M14 17H5M14 17C14 18.6569 15.3431 20 17 20C18.6569 20 20 18.6569 20 17C20 15.3431 18.6569 14 17 14C15.3431 14 14 15.3431 14 17ZM19 7H10M10 7C10 8.65685 8.65685 10 7 10C5.34315 10 4 8.65685 4 7C4 5.34315 5.34315 4 7 4C8.65685 4 10 5.34315 10 7Z" stroke="#DDDDDD" stroke-width="2" stroke-linecap="round" stroke-linejoin="round"/>
<path d="M17 20C15.3431 20 14 18.6569 14 17C14 15.3431 15.3431 14 17 14C18.6569 14 20 15.3431 20 17C20 18.6569 18.6569 20 17 20Z" stroke="#A4A5A6" stroke-width="2" stroke-linecap="round" stroke-linejoin="round"/>
<path d="M7 10C8.65685 10 10 8.65685 10 7C10 5.34315 8.65685 4 7 4C5.34315 4 4 5.34315 4 7C4 8.65685 5.34315 10 7 10Z" stroke="#A4A5A6" stroke-width="2" stroke-linecap="round" stroke-linejoin="round"/>
</svg>
