<svg width="24" height="24" viewBox="0 0 24 24" fill="none" xmlns="http://www.w3.org/2000/svg">
<g clip-path="url(#clip0_96_480)">
<mask id="mask0_96_480" style="mask-type:luminance" maskUnits="userSpaceOnUse" x="0" y="0" width="24" height="24">
<path d="M24 0H0V24H24V0Z" fill="white"/>
</mask>
<g mask="url(#mask0_96_480)">
<path d="M11.017 2.81444C11.0598 2.58505 11.1815 2.37786 11.3611 2.22876C11.5406 2.07966 11.7666 1.99805 12 1.99805C12.2333 1.99805 12.4593 2.07966 12.6389 2.22876C12.8184 2.37786 12.9401 2.58505 12.983 2.81444L14.034 8.37244C14.1086 8.76759 14.3006 9.13106 14.585 9.41541C14.8693 9.69977 15.2328 9.8918 15.628 9.96644L21.186 11.0175C21.4153 11.0603 21.6225 11.182 21.7716 11.3616C21.9207 11.5411 22.0023 11.7671 22.0023 12.0005C22.0023 12.2338 21.9207 12.4598 21.7716 12.6394C21.6225 12.8189 21.4153 12.9406 21.186 12.9835L15.628 14.0345C15.2328 14.1091 14.8693 14.3011 14.585 14.5855C14.3006 14.8698 14.1086 15.2333 14.034 15.6285L12.983 21.1865C12.9401 21.4158 12.8184 21.623 12.6389 21.7721C12.4593 21.9212 12.2333 22.0028 12 22.0028C11.7666 22.0028 11.5406 21.9212 11.3611 21.7721C11.1815 21.623 11.0598 21.4158 11.017 21.1865L9.96595 15.6285C9.89131 15.2333 9.69928 14.8698 9.41492 14.5855C9.13057 14.3011 8.7671 14.1091 8.37195 14.0345L2.81395 12.9835C2.58456 12.9406 2.37737 12.8189 2.22827 12.6394C2.07917 12.4598 1.99756 12.2338 1.99756 12.0005C1.99756 11.7671 2.07917 11.5411 2.22827 11.3616C2.37737 11.182 2.58456 11.0603 2.81395 11.0175L8.37195 9.96644C8.7671 9.8918 9.13057 9.69977 9.41492 9.41541C9.69928 9.13106 9.89131 8.76759 9.96595 8.37244L11.017 2.81444Z" stroke="#A4A5A6" stroke-width="2" stroke-linecap="round" stroke-linejoin="round"/>
<path d="M20 2V6M22 4H18M6 20C6 21.1046 5.10457 22 4 22C2.89543 22 2 21.1046 2 20C2 18.8954 2.89543 18 4 18C5.10457 18 6 18.8954 6 20Z" stroke="#DDDDDD" stroke-width="2" stroke-linecap="round" stroke-linejoin="round"/>
</g>
</g>
<defs>
<clipPath id="clip0_96_480">
<rect width="24" height="24" fill="white"/>
</clipPath>
</defs>
</svg>
