<svg width="24" height="24" viewBox="0 0 24 24" fill="none" xmlns="http://www.w3.org/2000/svg">
<path d="M11.525 2.2949C11.5688 2.20636 11.6365 2.13183 11.7205 2.07972C11.8044 2.02761 11.9012 2 12 2C12.0988 2 12.1956 2.02761 12.2795 2.07972C12.3635 2.13183 12.4312 2.20636 12.475 2.2949L14.785 6.9739C14.9372 7.28186 15.1618 7.5483 15.4396 7.75035C15.7174 7.95239 16.0401 8.08401 16.38 8.1339L21.546 8.8899C21.6439 8.90408 21.7358 8.94537 21.8115 9.00909C21.8871 9.07282 21.9434 9.15644 21.974 9.2505C22.0046 9.34456 22.0083 9.4453 21.9846 9.54133C21.9609 9.63736 21.9108 9.72485 21.84 9.7939L18.104 13.4319C17.8576 13.672 17.6733 13.9684 17.5668 14.2955C17.4604 14.6227 17.4351 14.9708 17.493 15.3099L18.375 20.4499C18.3923 20.5478 18.3817 20.6485 18.3445 20.7406C18.3073 20.8327 18.2449 20.9125 18.1645 20.9709C18.0842 21.0293 17.989 21.0639 17.8899 21.0708C17.7908 21.0777 17.6917 21.0566 17.604 21.0099L12.986 18.5819C12.6817 18.4221 12.3432 18.3387 11.9995 18.3387C11.6558 18.3387 11.3173 18.4221 11.013 18.5819L6.39597 21.0099C6.3083 21.0563 6.20937 21.0772 6.11042 21.0702C6.01147 21.0631 5.91649 21.0285 5.83626 20.9701C5.75604 20.9118 5.6938 20.8321 5.65663 20.7401C5.61945 20.6482 5.60883 20.5476 5.62597 20.4499L6.50697 15.3109C6.56517 14.9716 6.53995 14.6233 6.43351 14.296C6.32706 13.9686 6.14258 13.6721 5.89597 13.4319L2.15997 9.7949C2.08856 9.72593 2.03796 9.63829 2.01393 9.54197C1.9899 9.44565 1.99341 9.34451 2.02405 9.25009C2.05469 9.15566 2.11124 9.07174 2.18725 9.00788C2.26326 8.94402 2.35567 8.90279 2.45397 8.8889L7.61897 8.1339C7.95923 8.08439 8.28236 7.95295 8.56055 7.75088C8.83875 7.54881 9.06367 7.28217 9.21597 6.9739L11.525 2.2949Z" fill="#A4A5A6"/>
</svg>
