<svg xmlns="http://www.w3.org/2000/svg" viewBox="0 0 24 24" fill="none">
<path d="M21.5875 8.66978C21.9574 8.4834 22.1062 8.03243 21.9198 7.66252C21.7334 7.29261 21.2824 7.14383 20.9125 7.33022L21.5875 8.66978ZM3.08748 7.33022C2.71757 7.14383 2.2666 7.29261 2.08022 7.66252C1.89383 8.03243 2.04261 8.4834 2.41252 8.66978L3.08748 7.33022ZM20.5 6.75V17.25H22V6.75H20.5ZM19.25 18.5H4.75V20H19.25V18.5ZM3.5 17.25V6.75H2V17.25H3.5ZM4.75 5.5H19.25V4H4.75V5.5ZM20.9125 7.33022L12.5624 11.5375L13.2374 12.8771L21.5875 8.66978L20.9125 7.33022ZM11.4375 11.5375L3.08748 7.33022L2.41252 8.66978L10.7626 12.8771L11.4375 11.5375ZM3.5 6.75C3.5 6.05964 4.05964 5.5 4.75 5.5V4C3.23122 4 2 5.23122 2 6.75H3.5ZM4.75 18.5C4.05964 18.5 3.5 17.9404 3.5 17.25H2C2 18.7688 3.23122 20 4.75 20V18.5ZM20.5 17.25C20.5 17.9404 19.9404 18.5 19.25 18.5V20C20.7688 20 22 18.7688 22 17.25H20.5ZM12.5624 11.5375C12.2087 11.7158 11.7913 11.7158 11.4375 11.5375L10.7626 12.8771C11.5409 13.2692 12.4591 13.2692 13.2374 12.8771L12.5624 11.5375ZM22 6.75C22 5.23122 20.7688 4 19.25 4V5.5C19.9404 5.5 20.5 6.05964 20.5 6.75H22Z" fill="black"/>
</svg>