<svg width="24" height="24" viewBox="0 0 24 24" fill="none" xmlns="http://www.w3.org/2000/svg">
<path d="M15.0001 9.3395V4.9995C14.996 4.32587 14.7653 3.67321 14.3452 3.14662C13.9251 2.62004 13.34 2.25017 12.6841 2.09659C12.0282 1.943 11.3397 2.01465 10.7295 2.29997C10.1192 2.5853 9.62278 3.0677 9.32007 3.6695M9 8.99951V11.9995C9.00052 12.5925 9.17675 13.172 9.50643 13.6648C9.83611 14.1577 10.3045 14.5418 10.8523 14.7686C11.4002 14.9955 12.0029 15.0549 12.5845 14.9394C13.1661 14.8238 13.7005 14.5385 14.12 14.1195" stroke="#A4A5A6" stroke-width="2" stroke-linecap="round" stroke-linejoin="round"/>
<path d="M12 19V22M16.95 16.95C15.971 17.9291 14.7237 18.5958 13.3658 18.866C12.0078 19.1361 10.6003 18.9975 9.32115 18.4676C8.042 17.9378 6.94872 17.0405 6.17955 15.8893C5.41039 14.738 4.9999 13.3845 5 12V10M18.8899 13.23C18.9627 12.824 18.9995 12.4124 18.9999 12V10M2 2L22 22" stroke="#DDDDDD" stroke-width="2" stroke-linecap="round" stroke-linejoin="round"/>
</svg>
