<svg width="24" height="24" viewBox="0 0 24 24" fill="none" xmlns="http://www.w3.org/2000/svg">
<path d="M5 4.99961C4.9999 4.6477 5.09265 4.30201 5.26888 3.99741C5.44512 3.69282 5.69861 3.44011 6.00375 3.26482C6.30889 3.08952 6.65488 2.99784 7.00679 2.99903C7.3587 3.00023 7.70406 3.09426 8.008 3.27162L20.005 10.2696C20.3078 10.4453 20.5591 10.6973 20.7339 11.0006C20.9088 11.3038 21.0009 11.6477 21.0012 11.9977C21.0015 12.3478 20.91 12.6918 20.7357 12.9953C20.5614 13.2989 20.3105 13.5514 20.008 13.7276L8.008 20.7276C7.70406 20.9049 7.3587 20.999 7.00679 21.0002C6.65488 21.0014 6.30889 20.9097 6.00375 20.7344C5.69861 20.5591 5.44512 20.3064 5.26888 20.0018C5.09265 19.6972 4.9999 19.3515 5 18.9996V4.99961Z" fill="#A4A5A6"/>
</svg>
