<svg width="24" height="24" viewBox="0 0 24 24" fill="none" xmlns="http://www.w3.org/2000/svg">
<path d="M7 7.00049L6.413 7.58749C6.2824 7.71887 6.12703 7.82302 5.95589 7.89391C5.78475 7.96481 5.60124 8.00103 5.416 8.00049H3C2.73478 8.00049 2.48043 8.10585 2.29289 8.29338C2.10536 8.48092 2 8.73527 2 9.00049V15.0005C2 15.2657 2.10536 15.5201 2.29289 15.7076C2.48043 15.8951 2.73478 16.0005 3 16.0005H5.416C5.60124 16 5.78475 16.0362 5.95589 16.1071C6.12703 16.178 6.2824 16.2821 6.413 16.4135L9.796 19.7975C9.8946 19.8963 10.0203 19.9636 10.1572 19.9909C10.2941 20.0182 10.436 20.0042 10.5649 19.9508C10.6939 19.8973 10.804 19.8068 10.8815 19.6907C10.959 19.5746 11.0002 19.4381 11 19.2985V11.1255M9.82788 4.17256C9.92377 4.0763 10.0461 4.01069 10.1793 3.98404C10.3125 3.95738 10.4507 3.97089 10.5762 4.02284C10.7017 4.07479 10.809 4.16284 10.8844 4.27584C10.9599 4.38884 11 4.5217 10.9999 4.65756V5.34356" stroke="#DDDDDD" stroke-width="2" stroke-linecap="round" stroke-linejoin="round"/>
<path d="M2 2L12 12L22 22" stroke="#A4A5A6" stroke-width="2" stroke-linecap="round" stroke-linejoin="round"/>
<path d="M16 9.00049C16.5044 9.67283 16.8311 10.4615 16.95 11.2935M19.364 5.63672C20.643 6.91498 21.5073 8.54888 21.8442 10.3255C22.1812 12.1021 21.9752 13.9389 21.253 15.5967" stroke="#A4A5A6" stroke-width="2" stroke-linecap="round" stroke-linejoin="round"/>
</svg>
