<svg width="24" height="24" viewBox="0 0 24 24" fill="none" xmlns="http://www.w3.org/2000/svg">
<path d="M3.00001 8.26855C2.6951 8.44459 2.44206 8.698 2.26647 9.00317C2.09088 9.30835 1.99896 9.65446 2.00001 10.0066V19.0006C2.00001 19.531 2.21072 20.0397 2.5858 20.4148C2.96087 20.7899 3.46958 21.0006 4.00001 21.0006H15C15.3511 21.0006 15.696 20.9081 16 20.7326C16.304 20.5571 16.5565 20.3046 16.732 20.0006" stroke="#DDDDDD" stroke-width="2" stroke-linecap="round" stroke-linejoin="round"/>
<path d="M21.4142 5.58579C21.0391 5.21071 20.5304 5 20 5H14.5C14.2671 5 14.0375 4.94578 13.8292 4.84164C13.6209 4.7375 13.4397 4.58629 13.3 4.4L12.7 3.6C12.5603 3.41371 12.3791 3.2625 12.1708 3.15836C11.9625 3.05422 11.7329 3 11.5 3H9C8.46957 3 7.96086 3.21071 7.58579 3.58579C7.21071 3.96086 7 4.46957 7 5V14C7 14.5304 7.21071 15.0391 7.58579 15.4142C7.96086 15.7893 8.46957 16 9 16H20C20.5304 16 21.0391 15.7893 21.4142 15.4142C21.7893 15.0391 22 14.5304 22 14V7C22 6.46957 21.7893 5.96086 21.4142 5.58579Z" fill="#A4A5A6"/>
</svg>
