<svg width="24" height="24" viewBox="0 0 24 24" fill="none" xmlns="http://www.w3.org/2000/svg">
<path d="M16 5.9996L7.58603 14.5856C7.21088 14.9607 7.00012 15.4695 7.00012 16.0001C7.00012 16.5306 7.21088 17.0394 7.58603 17.4146C7.96118 17.7897 8.46999 18.0005 9.00053 18.0005C9.53107 18.0005 10.0399 17.7897 10.415 17.4146L18.829 8.8286C19.5792 8.07844 20.0006 7.06099 20.0006 6.0001C20.0006 4.93921 19.5792 3.92176 18.829 3.1716C18.0789 2.42143 17.0614 2 16.0005 2C14.9396 2 13.9222 2.42143 13.172 3.1716L4.79303 11.7226C4.22843 12.278 3.77939 12.9398 3.47183 13.6697C3.16426 14.3996 3.00425 15.1832 3.00103 15.9752C2.9978 16.7672 3.15142 17.5521 3.45304 18.2844C3.75465 19.0168 4.19828 19.6822 4.75834 20.2423C5.31839 20.8023 5.9838 21.2459 6.71617 21.5476C7.44853 21.8492 8.23337 22.0028 9.02541 21.9996C9.81744 21.9963 10.601 21.8363 11.3309 21.5288C12.0608 21.2212 12.7225 20.7722 13.278 20.2076L21.657 11.6566" stroke="#A4A5A6" stroke-width="2" stroke-linecap="round" stroke-linejoin="round"/>
</svg>
