<svg width="40" height="40" viewBox="0 0 40 40" fill="none" xmlns="http://www.w3.org/2000/svg">
<path d="M26.5307 2.04102H13.4695V3.67367H26.5307V2.04102Z" fill="black"/>
<path d="M29.7959 3.67383H10.2041V5.30648H29.7959V3.67383Z" fill="black"/>
<path d="M16.7348 5.30566H8.57153V6.93832H16.7348V5.30566Z" fill="black"/>
<path d="M31.4286 5.30566H23.2654V6.93832H31.4286V5.30566Z" fill="black"/>
<path d="M11.8367 6.93848H6.93872V8.57113H11.8367V6.93848Z" fill="black"/>
<path d="M33.0613 6.93848H28.1633V8.57113H33.0613V6.93848Z" fill="black"/>
<path d="M10.2041 8.57129H5.30615V10.2039H10.2041V8.57129Z" fill="black"/>
<path d="M24.898 8.57129H15.1021V10.2039H24.898V8.57129Z" fill="black"/>
<path d="M34.6939 8.57129H29.7959V10.2039H34.6939V8.57129Z" fill="black"/>
<path d="M8.57154 10.2041H3.67358V11.8368H8.57154V10.2041Z" fill="black"/>
<path d="M26.5307 10.2041H13.4695V11.8368H26.5307V10.2041Z" fill="black"/>
<path d="M34.6938 10.2041H31.4285V11.8368H34.6938V10.2041Z" fill="black"/>
<path d="M6.93889 11.8369H3.67358V13.4696H6.93889V11.8369Z" fill="black"/>
<path d="M16.7348 11.8369H13.4695V13.4696H16.7348V11.8369Z" fill="black"/>
<path d="M28.1633 11.8369H23.2654V13.4696H28.1633V11.8369Z" fill="black"/>
<path d="M6.93873 13.4697H2.04077V15.1024H6.93873V13.4697Z" fill="black"/>
<path d="M29.7959 13.4697H24.8979V15.1024H29.7959V13.4697Z" fill="black"/>
<path d="M6.93873 15.1016H2.04077V16.7342H6.93873V15.1016Z" fill="black"/>
<path d="M11.8368 15.1016H8.57153V16.7342H11.8368V15.1016Z" fill="black"/>
<path d="M21.6326 15.1016H16.7346V16.7342H21.6326V15.1016Z" fill="black"/>
<path d="M31.4285 15.1016H26.5305V16.7342H31.4285V15.1016Z" fill="black"/>
<path d="M37.9592 15.1016H34.6938V16.7342H37.9592V15.1016Z" fill="black"/>
<path d="M5.30608 16.7344H2.04077V18.367H5.30608V16.7344Z" fill="black"/>
<path d="M11.8368 16.7344H8.57153V18.367H11.8368V16.7344Z" fill="black"/>
<path d="M21.6327 16.7344H15.1021V18.367H21.6327V16.7344Z" fill="black"/>
<path d="M31.4286 16.7344H28.1633V18.367H31.4286V16.7344Z" fill="black"/>
<path d="M37.9592 16.7344H34.6938V18.367H37.9592V16.7344Z" fill="black"/>
<path d="M5.30608 18.3672H2.04077V19.9998H5.30608V18.3672Z" fill="black"/>
<path d="M11.8368 18.3672H8.57153V19.9998H11.8368V18.3672Z" fill="black"/>
<path d="M18.3674 18.3672H15.1021V19.9998H18.3674V18.3672Z" fill="black"/>
<path d="M31.4286 18.3672H28.1633V19.9998H31.4286V18.3672Z" fill="black"/>
<path d="M37.9592 18.3672H34.6938V19.9998H37.9592V18.3672Z" fill="black"/>
<path d="M5.30608 20H2.04077V21.6327H5.30608V20Z" fill="black"/>
<path d="M11.8368 20H8.57153V21.6327H11.8368V20Z" fill="black"/>
<path d="M18.3674 20H15.1021V21.6327H18.3674V20Z" fill="black"/>
<path d="M24.8979 20H21.6326V21.6327H24.8979V20Z" fill="black"/>
<path d="M31.4286 20H28.1633V21.6327H31.4286V20Z" fill="black"/>
<path d="M37.9592 20H34.6938V21.6327H37.9592V20Z" fill="black"/>
<path d="M11.8368 21.6328H8.57153V23.2655H11.8368V21.6328Z" fill="black"/>
<path d="M18.3674 21.6328H15.1021V23.2655H18.3674V21.6328Z" fill="black"/>
<path d="M24.8979 21.6328H21.6326V23.2655H24.8979V21.6328Z" fill="black"/>
<path d="M31.4286 21.6328H28.1633V23.2655H31.4286V21.6328Z" fill="black"/>
<path d="M37.9592 21.6328H34.6938V23.2655H37.9592V21.6328Z" fill="black"/>
<path d="M11.8368 23.2656H8.57153V24.8983H11.8368V23.2656Z" fill="black"/>
<path d="M18.3674 23.2656H15.1021V24.8983H18.3674V23.2656Z" fill="black"/>
<path d="M24.8979 23.2656H21.6326V24.8983H24.8979V23.2656Z" fill="black"/>
<path d="M31.4286 23.2656H28.1633V24.8983H31.4286V23.2656Z" fill="black"/>
<path d="M37.9592 23.2656H34.6938V24.8983H37.9592V23.2656Z" fill="black"/>
<path d="M5.30608 24.8984H2.04077V26.5311H5.30608V24.8984Z" fill="black"/>
<path d="M11.8368 24.8984H8.57153V26.5311H11.8368V24.8984Z" fill="black"/>
<path d="M18.3674 24.8984H15.1021V26.5311H18.3674V24.8984Z" fill="black"/>
<path d="M24.8979 24.8984H21.6326V26.5311H24.8979V24.8984Z" fill="black"/>
<path d="M37.9592 24.8984H34.6938V26.5311H37.9592V24.8984Z" fill="black"/>
<path d="M5.30608 26.5303H2.04077V28.1629H5.30608V26.5303Z" fill="black"/>
<path d="M11.8367 26.5303H6.93872V28.1629H11.8367V26.5303Z" fill="black"/>
<path d="M18.3674 26.5303H15.1021V28.1629H18.3674V26.5303Z" fill="black"/>
<path d="M24.8979 26.5303H21.6326V28.1629H24.8979V26.5303Z" fill="black"/>
<path d="M37.9592 26.5303H34.6938V28.1629H37.9592V26.5303Z" fill="black"/>
<path d="M11.8367 28.1631H6.93872V29.7957H11.8367V28.1631Z" fill="black"/>
<path d="M24.8979 28.1631H21.6326V29.7957H24.8979V28.1631Z" fill="black"/>
<path d="M31.4286 28.1631H28.1633V29.7957H31.4286V28.1631Z" fill="black"/>
<path d="M10.204 29.7959H6.93872V31.4286H10.204V29.7959Z" fill="black"/>
<path d="M24.8979 29.7959H21.6326V31.4286H24.8979V29.7959Z" fill="black"/>
<path d="M31.4286 29.7959H28.1633V31.4286H31.4286V29.7959Z" fill="black"/>
<path d="M10.204 31.4287H6.93872V33.0614H10.204V31.4287Z" fill="black"/>
<path d="M16.7348 31.4287H13.4695V33.0614H16.7348V31.4287Z" fill="black"/>
<path d="M24.898 31.4287H20V33.0614H24.898V31.4287Z" fill="black"/>
<path d="M31.4285 31.4287H26.5305V33.0614H31.4285V31.4287Z" fill="black"/>
<path d="M16.7348 33.0615H13.4695V34.6942H16.7348V33.0615Z" fill="black"/>
<path d="M24.898 33.0615H20V34.6942H24.898V33.0615Z" fill="black"/>
<path d="M31.4285 33.0615H26.5305V34.6942H31.4285V33.0615Z" fill="black"/>
<path d="M16.7348 34.6943H13.4695V36.327H16.7348V34.6943Z" fill="black"/>
<path d="M23.2653 34.6943H20V36.327H23.2653V34.6943Z" fill="black"/>
<path d="M29.7958 34.6943H26.5305V36.327H29.7958V34.6943Z" fill="black"/>
<path d="M16.7348 36.3262H13.4695V37.9588H16.7348V36.3262Z" fill="black"/>
<path d="M23.2653 36.3262H20V37.9588H23.2653V36.3262Z" fill="black"/>
</svg>
