<svg width="40" height="40" viewBox="0 0 40 40" fill="none" xmlns="http://www.w3.org/2000/svg">
<path d="M24.898 2.04102H15.1021V3.67367H24.898V2.04102Z" fill="black"/>
<path d="M26.5307 3.67383H13.4695V5.30648H26.5307V3.67383Z" fill="black"/>
<path d="M16.7346 5.30566H11.8367V6.93832H16.7346V5.30566Z" fill="black"/>
<path d="M28.1633 5.30566H23.2654V6.93832H28.1633V5.30566Z" fill="black"/>
<path d="M15.1021 6.93848H10.2041V8.57113H15.1021V6.93848Z" fill="black"/>
<path d="M29.7959 6.93848H24.8979V8.57113H29.7959V6.93848Z" fill="black"/>
<path d="M13.4694 8.57129H10.2041V10.2039H13.4694V8.57129Z" fill="black"/>
<path d="M29.7958 8.57129H26.5305V10.2039H29.7958V8.57129Z" fill="black"/>
<path d="M13.4694 10.2041H10.2041V11.8368H13.4694V10.2041Z" fill="black"/>
<path d="M29.7958 10.2041H26.5305V11.8368H29.7958V10.2041Z" fill="black"/>
<path d="M13.4694 11.8369H10.2041V13.4696H13.4694V11.8369Z" fill="black"/>
<path d="M29.7958 11.8369H26.5305V13.4696H29.7958V11.8369Z" fill="black"/>
<path d="M13.4694 13.4697H10.2041V15.1024H13.4694V13.4697Z" fill="black"/>
<path d="M29.7958 13.4697H26.5305V15.1024H29.7958V13.4697Z" fill="black"/>
<path d="M13.4694 15.1016H10.2041V16.7342H13.4694V15.1016Z" fill="black"/>
<path d="M29.7958 15.1016H26.5305V16.7342H29.7958V15.1016Z" fill="black"/>
<path d="M34.6939 16.7344H5.30615V18.367H34.6939V16.7344Z" fill="black"/>
<path d="M36.3266 18.3672H3.67358V19.9998H36.3266V18.3672Z" fill="black"/>
<path d="M6.93889 20H3.67358V21.6327H6.93889V20Z" fill="black"/>
<path d="M36.3266 20H33.0613V21.6327H36.3266V20Z" fill="black"/>
<path d="M6.93889 21.6328H3.67358V23.2655H6.93889V21.6328Z" fill="black"/>
<path d="M36.3266 21.6328H33.0613V23.2655H36.3266V21.6328Z" fill="black"/>
<path d="M6.93889 23.2656H3.67358V24.8983H6.93889V23.2656Z" fill="black"/>
<path d="M36.3266 23.2656H33.0613V24.8983H36.3266V23.2656Z" fill="black"/>
<path d="M6.93889 24.8984H3.67358V26.5311H6.93889V24.8984Z" fill="black"/>
<path d="M36.3266 24.8984H33.0613V26.5311H36.3266V24.8984Z" fill="black"/>
<path d="M6.93889 26.5303H3.67358V28.1629H6.93889V26.5303Z" fill="black"/>
<path d="M36.3266 26.5303H33.0613V28.1629H36.3266V26.5303Z" fill="black"/>
<path d="M6.93889 28.1631H3.67358V29.7957H6.93889V28.1631Z" fill="black"/>
<path d="M36.3266 28.1631H33.0613V29.7957H36.3266V28.1631Z" fill="black"/>
<path d="M6.93889 29.7959H3.67358V31.4286H6.93889V29.7959Z" fill="black"/>
<path d="M36.3266 29.7959H33.0613V31.4286H36.3266V29.7959Z" fill="black"/>
<path d="M6.93889 31.4287H3.67358V33.0614H6.93889V31.4287Z" fill="black"/>
<path d="M36.3266 31.4287H33.0613V33.0614H36.3266V31.4287Z" fill="black"/>
<path d="M6.93889 33.0615H3.67358V34.6942H6.93889V33.0615Z" fill="black"/>
<path d="M36.3266 33.0615H33.0613V34.6942H36.3266V33.0615Z" fill="black"/>
<path d="M36.3266 34.6943H3.67358V36.327H36.3266V34.6943Z" fill="black"/>
<path d="M34.6939 36.3262H5.30615V37.9588H34.6939V36.3262Z" fill="black"/>
</svg>
