<svg width="42" height="40" viewBox="0 0 42 40" fill="none" xmlns="http://www.w3.org/2000/svg">
<path d="M26.1429 2.04102H15.8572V3.67367H26.1429V2.04102Z" fill="black"/>
<path d="M27.8571 3.67383H14.1428V5.30648H27.8571V3.67383Z" fill="black"/>
<path d="M17.5713 5.30566H12.4285V6.93832H17.5713V5.30566Z" fill="black"/>
<path d="M29.5713 5.30566H24.4285V6.93832H29.5713V5.30566Z" fill="black"/>
<path d="M15.8572 6.93848H10.7144V8.57113H15.8572V6.93848Z" fill="black"/>
<path d="M31.2857 6.93848H26.1428V8.57113H31.2857V6.93848Z" fill="black"/>
<path d="M14.1429 8.57129H10.7144V10.2039H14.1429V8.57129Z" fill="black"/>
<path d="M31.2857 8.57129H27.8572V10.2039H31.2857V8.57129Z" fill="black"/>
<path d="M14.1429 10.2041H10.7144V11.8368H14.1429V10.2041Z" fill="black"/>
<path d="M31.2857 10.2041H27.8572V11.8368H31.2857V10.2041Z" fill="black"/>
<path d="M14.1429 11.8369H10.7144V13.4696H14.1429V11.8369Z" fill="black"/>
<path d="M14.1429 13.4697H10.7144V15.1024H14.1429V13.4697Z" fill="black"/>
<path d="M14.1429 15.1016H10.7144V16.7342H14.1429V15.1016Z" fill="black"/>
<path d="M36.4287 16.7344H5.57153V18.367H36.4287V16.7344Z" fill="black"/>
<path d="M38.1429 18.3672H3.85718V19.9998H38.1429V18.3672Z" fill="black"/>
<path d="M7.28575 20H3.85718V21.6327H7.28575V20Z" fill="black"/>
<path d="M38.1429 20H34.7144V21.6327H38.1429V20Z" fill="black"/>
<path d="M7.28575 21.6328H3.85718V23.2655H7.28575V21.6328Z" fill="black"/>
<path d="M38.1429 21.6328H34.7144V23.2655H38.1429V21.6328Z" fill="black"/>
<path d="M7.28575 23.2656H3.85718V24.8983H7.28575V23.2656Z" fill="black"/>
<path d="M38.1429 23.2656H34.7144V24.8983H38.1429V23.2656Z" fill="black"/>
<path d="M7.28575 24.8984H3.85718V26.5311H7.28575V24.8984Z" fill="black"/>
<path d="M38.1429 24.8984H34.7144V26.5311H38.1429V24.8984Z" fill="black"/>
<path d="M7.28575 26.5303H3.85718V28.1629H7.28575V26.5303Z" fill="black"/>
<path d="M38.1429 26.5303H34.7144V28.1629H38.1429V26.5303Z" fill="black"/>
<path d="M7.28575 28.1631H3.85718V29.7957H7.28575V28.1631Z" fill="black"/>
<path d="M38.1429 28.1631H34.7144V29.7957H38.1429V28.1631Z" fill="black"/>
<path d="M7.28575 29.7959H3.85718V31.4286H7.28575V29.7959Z" fill="black"/>
<path d="M38.1429 29.7959H34.7144V31.4286H38.1429V29.7959Z" fill="black"/>
<path d="M7.28575 31.4287H3.85718V33.0614H7.28575V31.4287Z" fill="black"/>
<path d="M38.1429 31.4287H34.7144V33.0614H38.1429V31.4287Z" fill="black"/>
<path d="M7.28575 33.0615H3.85718V34.6942H7.28575V33.0615Z" fill="black"/>
<path d="M38.1429 33.0615H34.7144V34.6942H38.1429V33.0615Z" fill="black"/>
<path d="M38.1429 34.6943H3.85718V36.327H38.1429V34.6943Z" fill="black"/>
<path d="M36.4287 36.3262H5.57153V37.9588H36.4287V36.3262Z" fill="black"/>
</svg>
