<svg width="41" height="40" viewBox="0 0 41 40" fill="none" xmlns="http://www.w3.org/2000/svg">
<path d="M35.5612 3.67383H23.8469V5.30648H35.5612V3.67383Z" fill="black"/>
<path d="M37.2347 5.30566H23.8469V6.93832H37.2347V5.30566Z" fill="black"/>
<path d="M37.2346 6.93848H33.8877V8.57113H37.2346V6.93848Z" fill="black"/>
<path d="M37.2346 8.57129H33.8877V10.2039H37.2346V8.57129Z" fill="black"/>
<path d="M18.8264 10.2041H15.4795V11.8368H18.8264V10.2041Z" fill="black"/>
<path d="M37.2346 10.2041H33.8877V11.8368H37.2346V10.2041Z" fill="black"/>
<path d="M20.4999 11.8369H15.4795V13.4696H20.4999V11.8369Z" fill="black"/>
<path d="M37.2346 11.8369H33.8877V13.4696H37.2346V11.8369Z" fill="black"/>
<path d="M22.1735 13.4697H17.1531V15.1024H22.1735V13.4697Z" fill="black"/>
<path d="M37.2346 13.4697H33.8877V15.1024H37.2346V13.4697Z" fill="black"/>
<path d="M23.8468 15.1016H18.8264V16.7342H23.8468V15.1016Z" fill="black"/>
<path d="M37.2346 15.1016H33.8877V16.7342H37.2346V15.1016Z" fill="black"/>
<path d="M25.5204 16.7344H20.5V18.367H25.5204V16.7344Z" fill="black"/>
<path d="M37.2346 16.7344H33.8877V18.367H37.2346V16.7344Z" fill="black"/>
<path d="M27.194 18.3672H3.76538V19.9998H27.194V18.3672Z" fill="black"/>
<path d="M37.2346 18.3672H33.8877V19.9998H37.2346V18.3672Z" fill="black"/>
<path d="M27.194 20H3.76538V21.6327H27.194V20Z" fill="black"/>
<path d="M37.2346 20H33.8877V21.6327H37.2346V20Z" fill="black"/>
<path d="M25.5204 21.6328H20.5V23.2655H25.5204V21.6328Z" fill="black"/>
<path d="M37.2346 21.6328H33.8877V23.2655H37.2346V21.6328Z" fill="black"/>
<path d="M23.8468 23.2656H18.8264V24.8983H23.8468V23.2656Z" fill="black"/>
<path d="M37.2346 23.2656H33.8877V24.8983H37.2346V23.2656Z" fill="black"/>
<path d="M22.1735 24.8984H17.1531V26.5311H22.1735V24.8984Z" fill="black"/>
<path d="M37.2346 24.8984H33.8877V26.5311H37.2346V24.8984Z" fill="black"/>
<path d="M20.4999 26.5303H15.4795V28.1629H20.4999V26.5303Z" fill="black"/>
<path d="M37.2346 26.5303H33.8877V28.1629H37.2346V26.5303Z" fill="black"/>
<path d="M18.8264 28.1631H15.4795V29.7957H18.8264V28.1631Z" fill="black"/>
<path d="M37.2346 28.1631H33.8877V29.7957H37.2346V28.1631Z" fill="black"/>
<path d="M37.2346 29.7959H33.8877V31.4286H37.2346V29.7959Z" fill="black"/>
<path d="M37.2346 31.4287H33.8877V33.0614H37.2346V31.4287Z" fill="black"/>
<path d="M37.2347 33.0615H23.8469V34.6942H37.2347V33.0615Z" fill="black"/>
<path d="M35.5612 34.6943H23.8469V36.327H35.5612V34.6943Z" fill="black"/>
</svg>
