<svg width="40" height="40" viewBox="0 0 40 40" fill="none" xmlns="http://www.w3.org/2000/svg">
<path d="M16.7347 3.67383H5.30615V5.30648H16.7347V3.67383Z" fill="black"/>
<path d="M16.7348 5.30566H3.67358V6.93832H16.7348V5.30566Z" fill="black"/>
<path d="M6.93889 6.93848H3.67358V8.57113H6.93889V6.93848Z" fill="black"/>
<path d="M6.93889 8.57129H3.67358V10.2039H6.93889V8.57129Z" fill="black"/>
<path d="M6.93889 10.2041H3.67358V11.8368H6.93889V10.2041Z" fill="black"/>
<path d="M28.1633 10.2041H24.8979V11.8368H28.1633V10.2041Z" fill="black"/>
<path d="M6.93889 11.8369H3.67358V13.4696H6.93889V11.8369Z" fill="black"/>
<path d="M29.7959 11.8369H24.8979V13.4696H29.7959V11.8369Z" fill="black"/>
<path d="M6.93889 13.4697H3.67358V15.1024H6.93889V13.4697Z" fill="black"/>
<path d="M31.4285 13.4697H26.5305V15.1024H31.4285V13.4697Z" fill="black"/>
<path d="M6.93889 15.1016H3.67358V16.7342H6.93889V15.1016Z" fill="black"/>
<path d="M33.0613 15.1016H28.1633V16.7342H33.0613V15.1016Z" fill="black"/>
<path d="M6.93889 16.7344H3.67358V18.367H6.93889V16.7344Z" fill="black"/>
<path d="M34.6939 16.7344H29.7959V18.367H34.6939V16.7344Z" fill="black"/>
<path d="M6.93889 18.3672H3.67358V19.9998H6.93889V18.3672Z" fill="black"/>
<path d="M36.3266 18.3672H13.4695V19.9998H36.3266V18.3672Z" fill="black"/>
<path d="M6.93889 20H3.67358V21.6327H6.93889V20Z" fill="black"/>
<path d="M36.3266 20H13.4695V21.6327H36.3266V20Z" fill="black"/>
<path d="M6.93889 21.6328H3.67358V23.2655H6.93889V21.6328Z" fill="black"/>
<path d="M34.6939 21.6328H29.7959V23.2655H34.6939V21.6328Z" fill="black"/>
<path d="M6.93889 23.2656H3.67358V24.8983H6.93889V23.2656Z" fill="black"/>
<path d="M33.0613 23.2656H28.1633V24.8983H33.0613V23.2656Z" fill="black"/>
<path d="M6.93889 24.8984H3.67358V26.5311H6.93889V24.8984Z" fill="black"/>
<path d="M31.4285 24.8984H26.5305V26.5311H31.4285V24.8984Z" fill="black"/>
<path d="M6.93889 26.5303H3.67358V28.1629H6.93889V26.5303Z" fill="black"/>
<path d="M29.7959 26.5303H24.8979V28.1629H29.7959V26.5303Z" fill="black"/>
<path d="M6.93889 28.1631H3.67358V29.7957H6.93889V28.1631Z" fill="black"/>
<path d="M28.1633 28.1631H24.8979V29.7957H28.1633V28.1631Z" fill="black"/>
<path d="M6.93889 29.7959H3.67358V31.4286H6.93889V29.7959Z" fill="black"/>
<path d="M6.93889 31.4287H3.67358V33.0614H6.93889V31.4287Z" fill="black"/>
<path d="M16.7348 33.0615H3.67358V34.6942H16.7348V33.0615Z" fill="black"/>
<path d="M16.7347 34.6943H5.30615V36.327H16.7347V34.6943Z" fill="black"/>
</svg>
