<svg width="41" height="40" viewBox="0 0 41 40" fill="none" xmlns="http://www.w3.org/2000/svg">
<path d="M23.847 2.04102H17.1531V3.67367H23.847V2.04102Z" fill="black"/>
<path d="M25.5204 3.67383H15.4796V5.30648H25.5204V3.67383Z" fill="black"/>
<path d="M28.8673 5.30566H12.1326V6.93832H28.8673V5.30566Z" fill="black"/>
<path d="M17.1531 6.93848H7.11224V8.57113H17.1531V6.93848Z" fill="black"/>
<path d="M33.8877 6.93848H23.8469V8.57113H33.8877V6.93848Z" fill="black"/>
<path d="M13.8061 8.57129H5.43878V10.2039H13.8061V8.57129Z" fill="black"/>
<path d="M35.5612 8.57129H27.1938V10.2039H35.5612V8.57129Z" fill="black"/>
<path d="M8.78572 10.2041H5.43878V11.8368H8.78572V10.2041Z" fill="black"/>
<path d="M35.5612 10.2041H32.2143V11.8368H35.5612V10.2041Z" fill="black"/>
<path d="M8.78572 11.8369H5.43878V13.4696H8.78572V11.8369Z" fill="black"/>
<path d="M35.5612 11.8369H32.2143V13.4696H35.5612V11.8369Z" fill="black"/>
<path d="M8.78572 13.4697H5.43878V15.1024H8.78572V13.4697Z" fill="black"/>
<path d="M35.5612 13.4697H32.2143V15.1024H35.5612V13.4697Z" fill="black"/>
<path d="M8.78572 15.1016H5.43878V16.7342H8.78572V15.1016Z" fill="black"/>
<path d="M27.1939 15.1016H23.8469V16.7342H27.1939V15.1016Z" fill="black"/>
<path d="M35.5612 15.1016H32.2143V16.7342H35.5612V15.1016Z" fill="black"/>
<path d="M8.78572 16.7344H5.43878V18.367H8.78572V16.7344Z" fill="black"/>
<path d="M27.1939 16.7344H22.1735V18.367H27.1939V16.7344Z" fill="black"/>
<path d="M35.5612 16.7344H32.2143V18.367H35.5612V16.7344Z" fill="black"/>
<path d="M8.78572 18.3672H5.43878V19.9998H8.78572V18.3672Z" fill="black"/>
<path d="M17.1531 18.3672H13.8062V19.9998H17.1531V18.3672Z" fill="black"/>
<path d="M25.5204 18.3672H20.5V19.9998H25.5204V18.3672Z" fill="black"/>
<path d="M35.5612 18.3672H32.2143V19.9998H35.5612V18.3672Z" fill="black"/>
<path d="M8.78572 20H5.43878V21.6327H8.78572V20Z" fill="black"/>
<path d="M23.847 20H13.8062V21.6327H23.847V20Z" fill="black"/>
<path d="M35.5612 20H32.2143V21.6327H35.5612V20Z" fill="black"/>
<path d="M8.78572 21.6328H5.43878V23.2655H8.78572V21.6328Z" fill="black"/>
<path d="M22.1735 21.6328H15.4796V23.2655H22.1735V21.6328Z" fill="black"/>
<path d="M35.5612 21.6328H32.2143V23.2655H35.5612V21.6328Z" fill="black"/>
<path d="M8.78572 23.2656H5.43878V24.8983H8.78572V23.2656Z" fill="black"/>
<path d="M20.5 23.2656H17.1531V24.8983H20.5V23.2656Z" fill="black"/>
<path d="M35.5612 23.2656H32.2143V24.8983H35.5612V23.2656Z" fill="black"/>
<path d="M10.4592 24.8984H5.43878V26.5311H10.4592V24.8984Z" fill="black"/>
<path d="M35.5612 24.8984H30.5408V26.5311H35.5612V24.8984Z" fill="black"/>
<path d="M10.4592 26.5303H5.43878V28.1629H10.4592V26.5303Z" fill="black"/>
<path d="M35.5612 26.5303H30.5408V28.1629H35.5612V26.5303Z" fill="black"/>
<path d="M12.1327 28.1631H7.11224V29.7957H12.1327V28.1631Z" fill="black"/>
<path d="M33.8878 28.1631H28.8674V29.7957H33.8878V28.1631Z" fill="black"/>
<path d="M13.8061 29.7959H8.78571V31.4286H13.8061V29.7959Z" fill="black"/>
<path d="M32.2143 29.7959H27.1938V31.4286H32.2143V29.7959Z" fill="black"/>
<path d="M15.4796 31.4287H8.78571V33.0614H15.4796V31.4287Z" fill="black"/>
<path d="M32.2143 31.4287H25.5204V33.0614H32.2143V31.4287Z" fill="black"/>
<path d="M18.8265 33.0615H12.1326V34.6942H18.8265V33.0615Z" fill="black"/>
<path d="M28.8673 33.0615H22.1735V34.6942H28.8673V33.0615Z" fill="black"/>
<path d="M27.1939 34.6943H13.8062V36.327H27.1939V34.6943Z" fill="black"/>
<path d="M23.847 36.3262H17.1531V37.9588H23.847V36.3262Z" fill="black"/>
</svg>
