<svg width="40" height="40" viewBox="0 0 40 40" fill="none" xmlns="http://www.w3.org/2000/svg">
<path d="M23.2653 2.04102H16.7347V3.67367H23.2653V2.04102Z" fill="black"/>
<path d="M24.898 3.67383H15.1021V5.30648H24.898V3.67383Z" fill="black"/>
<path d="M28.1633 5.30566H11.8367V6.93832H28.1633V5.30566Z" fill="black"/>
<path d="M16.7347 6.93848H6.93878V8.57113H16.7347V6.93848Z" fill="black"/>
<path d="M33.0612 6.93848H23.2653V8.57113H33.0612V6.93848Z" fill="black"/>
<path d="M13.4694 8.57129H5.30615V10.2039H13.4694V8.57129Z" fill="black"/>
<path d="M34.6939 8.57129H26.5306V10.2039H34.6939V8.57129Z" fill="black"/>
<path d="M8.57146 10.2041H5.30615V11.8368H8.57146V10.2041Z" fill="black"/>
<path d="M34.6939 10.2041H31.4286V11.8368H34.6939V10.2041Z" fill="black"/>
<path d="M8.57146 11.8369H5.30615V13.4696H8.57146V11.8369Z" fill="black"/>
<path d="M34.6939 11.8369H31.4286V13.4696H34.6939V11.8369Z" fill="black"/>
<path d="M8.57146 13.4697H5.30615V15.1024H8.57146V13.4697Z" fill="black"/>
<path d="M16.7347 13.4697H15.1021V15.1024H16.7347V13.4697Z" fill="black"/>
<path d="M24.898 13.4697H23.2653V15.1024H24.898V13.4697Z" fill="black"/>
<path d="M34.6939 13.4697H31.4286V15.1024H34.6939V13.4697Z" fill="black"/>
<path d="M8.57146 15.1016H5.30615V16.7342H8.57146V15.1016Z" fill="black"/>
<path d="M18.3673 15.1016H13.4694V16.7342H18.3673V15.1016Z" fill="black"/>
<path d="M26.5306 15.1016H21.6326V16.7342H26.5306V15.1016Z" fill="black"/>
<path d="M34.6939 15.1016H31.4286V16.7342H34.6939V15.1016Z" fill="black"/>
<path d="M8.57146 16.7344H5.30615V18.367H8.57146V16.7344Z" fill="black"/>
<path d="M24.898 16.7344H15.1021V18.367H24.898V16.7344Z" fill="black"/>
<path d="M34.6939 16.7344H31.4286V18.367H34.6939V16.7344Z" fill="black"/>
<path d="M8.57146 18.3672H5.30615V19.9998H8.57146V18.3672Z" fill="black"/>
<path d="M23.2653 18.3672H16.7347V19.9998H23.2653V18.3672Z" fill="black"/>
<path d="M34.6939 18.3672H31.4286V19.9998H34.6939V18.3672Z" fill="black"/>
<path d="M8.57146 20H5.30615V21.6327H8.57146V20Z" fill="black"/>
<path d="M23.2653 20H16.7347V21.6327H23.2653V20Z" fill="black"/>
<path d="M34.6939 20H31.4286V21.6327H34.6939V20Z" fill="black"/>
<path d="M8.57146 21.6328H5.30615V23.2655H8.57146V21.6328Z" fill="black"/>
<path d="M24.898 21.6328H15.1021V23.2655H24.898V21.6328Z" fill="black"/>
<path d="M34.6939 21.6328H31.4286V23.2655H34.6939V21.6328Z" fill="black"/>
<path d="M8.57146 23.2656H5.30615V24.8983H8.57146V23.2656Z" fill="black"/>
<path d="M18.3673 23.2656H13.4694V24.8983H18.3673V23.2656Z" fill="black"/>
<path d="M26.5306 23.2656H21.6326V24.8983H26.5306V23.2656Z" fill="black"/>
<path d="M34.6939 23.2656H31.4286V24.8983H34.6939V23.2656Z" fill="black"/>
<path d="M10.2041 24.8984H5.30615V26.5311H10.2041V24.8984Z" fill="black"/>
<path d="M16.7347 24.8984H15.1021V26.5311H16.7347V24.8984Z" fill="black"/>
<path d="M24.898 24.8984H23.2653V26.5311H24.898V24.8984Z" fill="black"/>
<path d="M34.6939 24.8984H29.7959V26.5311H34.6939V24.8984Z" fill="black"/>
<path d="M10.2041 26.5303H5.30615V28.1629H10.2041V26.5303Z" fill="black"/>
<path d="M34.6939 26.5303H29.7959V28.1629H34.6939V26.5303Z" fill="black"/>
<path d="M11.8367 28.1631H6.93878V29.7957H11.8367V28.1631Z" fill="black"/>
<path d="M33.0612 28.1631H28.1633V29.7957H33.0612V28.1631Z" fill="black"/>
<path d="M13.4694 29.7959H8.57141V31.4286H13.4694V29.7959Z" fill="black"/>
<path d="M31.4286 29.7959H26.5306V31.4286H31.4286V29.7959Z" fill="black"/>
<path d="M15.102 31.4287H8.57141V33.0614H15.102V31.4287Z" fill="black"/>
<path d="M31.4286 31.4287H24.8979V33.0614H31.4286V31.4287Z" fill="black"/>
<path d="M18.3673 33.0615H11.8367V34.6942H18.3673V33.0615Z" fill="black"/>
<path d="M28.1632 33.0615H21.6326V34.6942H28.1632V33.0615Z" fill="black"/>
<path d="M26.5306 34.6943H13.4694V36.327H26.5306V34.6943Z" fill="black"/>
<path d="M23.2653 36.3262H16.7347V37.9588H23.2653V36.3262Z" fill="black"/>
</svg>
