<svg width="41" height="42" viewBox="0 0 41 42" fill="none" xmlns="http://www.w3.org/2000/svg">
<path d="M18.8266 3.85742H12.1327V5.57171H18.8266V3.85742Z" fill="black"/>
<path d="M22.1735 5.57129H8.78577V7.28557H22.1735V5.57129Z" fill="black"/>
<path d="M13.8062 7.28613H8.78577V9.00042H13.8062V7.28613Z" fill="black"/>
<path d="M22.1735 7.28613H17.1531V9.00042H22.1735V7.28613Z" fill="black"/>
<path d="M12.1327 9H7.1123V10.7143H12.1327V9Z" fill="black"/>
<path d="M23.8469 9H18.8265V10.7143H23.8469V9Z" fill="black"/>
<path d="M10.4592 10.7139H7.1123V12.4282H10.4592V10.7139Z" fill="black"/>
<path d="M23.8469 10.7139H20.5V12.4282H23.8469V10.7139Z" fill="black"/>
<path d="M10.4592 12.4287H7.1123V14.143H10.4592V12.4287Z" fill="black"/>
<path d="M23.8469 12.4287H20.5V14.143H23.8469V12.4287Z" fill="black"/>
<path d="M33.8877 12.4287H30.5408V14.143H33.8877V12.4287Z" fill="black"/>
<path d="M12.1327 14.1426H7.1123V15.8569H12.1327V14.1426Z" fill="black"/>
<path d="M23.8469 14.1426H18.8265V15.8569H23.8469V14.1426Z" fill="black"/>
<path d="M33.8877 14.1426H30.5408V15.8569H33.8877V14.1426Z" fill="black"/>
<path d="M13.8062 15.8574H8.78577V17.5717H13.8062V15.8574Z" fill="black"/>
<path d="M22.1735 15.8574H17.1531V17.5717H22.1735V15.8574Z" fill="black"/>
<path d="M33.8877 15.8574H30.5408V17.5717H33.8877V15.8574Z" fill="black"/>
<path d="M22.1735 17.5713H8.78577V19.2856H22.1735V17.5713Z" fill="black"/>
<path d="M38.9081 17.5713H25.5204V19.2856H38.9081V17.5713Z" fill="black"/>
<path d="M18.8266 19.2861H12.1327V21.0004H18.8266V19.2861Z" fill="black"/>
<path d="M38.9081 19.2861H25.5204V21.0004H38.9081V19.2861Z" fill="black"/>
<path d="M33.8877 21H30.5408V22.7143H33.8877V21Z" fill="black"/>
<path d="M33.8877 22.7139H30.5408V24.4282H33.8877V22.7139Z" fill="black"/>
<path d="M23.847 24.4287H7.1123V26.143H23.847V24.4287Z" fill="black"/>
<path d="M33.8877 24.4287H30.5408V26.143H33.8877V24.4287Z" fill="black"/>
<path d="M27.1938 26.1426H3.76526V27.8569H27.1938V26.1426Z" fill="black"/>
<path d="M8.78567 27.8574H3.76526V29.5717H8.78567V27.8574Z" fill="black"/>
<path d="M27.1939 27.8574H22.1735V29.5717H27.1939V27.8574Z" fill="black"/>
<path d="M7.11221 29.5713H2.0918V31.2856H7.11221V29.5713Z" fill="black"/>
<path d="M28.8673 29.5713H23.8469V31.2856H28.8673V29.5713Z" fill="black"/>
<path d="M5.43874 31.2861H2.0918V33.0004H5.43874V31.2861Z" fill="black"/>
<path d="M28.8673 31.2861H25.5204V33.0004H28.8673V31.2861Z" fill="black"/>
<path d="M5.43874 33H2.0918V34.7143H5.43874V33Z" fill="black"/>
<path d="M28.8673 33H25.5204V34.7143H28.8673V33Z" fill="black"/>
<path d="M5.43874 34.7139H2.0918V36.4282H5.43874V34.7139Z" fill="black"/>
<path d="M28.8673 34.7139H25.5204V36.4282H28.8673V34.7139Z" fill="black"/>
<path d="M5.43874 36.4287H2.0918V38.143H5.43874V36.4287Z" fill="black"/>
<path d="M28.8673 36.4287H25.5204V38.143H28.8673V36.4287Z" fill="black"/>
</svg>
