<svg width="40" height="42" viewBox="0 0 40 42" fill="none" xmlns="http://www.w3.org/2000/svg">
<path d="M21.6327 3.85742H11.8368V5.57171H21.6327V3.85742Z" fill="black"/>
<path d="M23.2653 5.57129H10.2041V7.28557H23.2653V5.57129Z" fill="black"/>
<path d="M13.4694 7.28613H8.57141V9.00042H13.4694V7.28613Z" fill="black"/>
<path d="M24.898 7.28613H20V9.00042H24.898V7.28613Z" fill="black"/>
<path d="M11.8367 9H6.93872V10.7143H11.8367V9Z" fill="black"/>
<path d="M26.5306 9H21.6327V10.7143H26.5306V9Z" fill="black"/>
<path d="M10.204 10.7139H6.93872V12.4282H10.204V10.7139Z" fill="black"/>
<path d="M26.5306 10.7139H23.2653V12.4282H26.5306V10.7139Z" fill="black"/>
<path d="M10.204 12.4287H6.93872V14.143H10.204V12.4287Z" fill="black"/>
<path d="M26.5306 12.4287H23.2653V14.143H26.5306V12.4287Z" fill="black"/>
<path d="M10.204 14.1426H6.93872V15.8569H10.204V14.1426Z" fill="black"/>
<path d="M26.5306 14.1426H23.2653V15.8569H26.5306V14.1426Z" fill="black"/>
<path d="M10.204 15.8574H6.93872V17.5717H10.204V15.8574Z" fill="black"/>
<path d="M26.5306 15.8574H23.2653V17.5717H26.5306V15.8574Z" fill="black"/>
<path d="M11.8367 17.5713H6.93872V19.2856H11.8367V17.5713Z" fill="black"/>
<path d="M26.5306 17.5713H21.6327V19.2856H26.5306V17.5713Z" fill="black"/>
<path d="M13.4694 19.2861H8.57141V21.0004H13.4694V19.2861Z" fill="black"/>
<path d="M24.898 19.2861H20V21.0004H24.898V19.2861Z" fill="black"/>
<path d="M23.2653 21H10.2041V22.7143H23.2653V21Z" fill="black"/>
<path d="M24.8979 22.7139H8.57141V24.4282H24.8979V22.7139Z" fill="black"/>
<path d="M13.4693 24.4287H6.93872V26.143H13.4693V24.4287Z" fill="black"/>
<path d="M26.5306 24.4287H20V26.143H26.5306V24.4287Z" fill="black"/>
<path d="M10.2041 26.1426H5.30615V27.8569H10.2041V26.1426Z" fill="black"/>
<path d="M26.5306 26.1426H23.2653V27.8569H26.5306V26.1426Z" fill="black"/>
<path d="M33.0612 26.1426H29.7959V27.8569H33.0612V26.1426Z" fill="black"/>
<path d="M8.57142 27.8574H3.67346V29.5717H8.57142V27.8574Z" fill="black"/>
<path d="M33.0612 27.8574H29.7959V29.5717H33.0612V27.8574Z" fill="black"/>
<path d="M6.93877 29.5713H3.67346V31.2856H6.93877V29.5713Z" fill="black"/>
<path d="M33.0612 29.5713H29.7959V31.2856H33.0612V29.5713Z" fill="black"/>
<path d="M6.93873 31.2861H2.04077V33.0004H6.93873V31.2861Z" fill="black"/>
<path d="M37.9592 31.2861H24.8979V33.0004H37.9592V31.2861Z" fill="black"/>
<path d="M5.30608 33H2.04077V34.7143H5.30608V33Z" fill="black"/>
<path d="M37.9592 33H24.8979V34.7143H37.9592V33Z" fill="black"/>
<path d="M5.30608 34.7139H2.04077V36.4282H5.30608V34.7139Z" fill="black"/>
<path d="M33.0612 34.7139H29.7959V36.4282H33.0612V34.7139Z" fill="black"/>
<path d="M5.30608 36.4287H2.04077V38.143H5.30608V36.4287Z" fill="black"/>
<path d="M33.0612 36.4287H29.7959V38.143H33.0612V36.4287Z" fill="black"/>
<path d="M33.0612 38.1426H29.7959V39.8569H33.0612V38.1426Z" fill="black"/>
</svg>
