<svg width="40" height="40" viewBox="0 0 40 40" fill="none" xmlns="http://www.w3.org/2000/svg">
<path d="M34.6939 8.57129H31.4286V10.2039H34.6939V8.57129Z" fill="black"/>
<path d="M34.6939 10.2041H29.7959V11.8368H34.6939V10.2041Z" fill="black"/>
<path d="M33.0612 11.8369H28.1632V13.4696H33.0612V11.8369Z" fill="black"/>
<path d="M31.4286 13.4697H26.5306V15.1024H31.4286V13.4697Z" fill="black"/>
<path d="M29.7959 15.1016H24.8979V16.7342H29.7959V15.1016Z" fill="black"/>
<path d="M28.1632 16.7344H23.2653V18.367H28.1632V16.7344Z" fill="black"/>
<path d="M8.57146 18.3672H5.30615V19.9998H8.57146V18.3672Z" fill="black"/>
<path d="M26.5306 18.3672H21.6327V19.9998H26.5306V18.3672Z" fill="black"/>
<path d="M10.2041 20H5.30615V21.6327H10.2041V20Z" fill="black"/>
<path d="M24.898 20H20V21.6327H24.898V20Z" fill="black"/>
<path d="M11.8367 21.6328H6.93872V23.2655H11.8367V21.6328Z" fill="black"/>
<path d="M23.2653 21.6328H18.3673V23.2655H23.2653V21.6328Z" fill="black"/>
<path d="M13.4694 23.2656H8.57141V24.8983H13.4694V23.2656Z" fill="black"/>
<path d="M21.6327 23.2656H16.7347V24.8983H21.6327V23.2656Z" fill="black"/>
<path d="M20 24.8984H10.2041V26.5311H20V24.8984Z" fill="black"/>
<path d="M18.3674 26.5303H11.8368V28.1629H18.3674V26.5303Z" fill="black"/>
<path d="M16.7347 28.1631H13.4694V29.7957H16.7347V28.1631Z" fill="black"/>
</svg>
