<svg width="40" height="40" viewBox="0 0 40 40" fill="none" xmlns="http://www.w3.org/2000/svg">
<path d="M26.5306 2.04102H13.4694V3.67367H26.5306V2.04102Z" fill="black"/>
<path d="M29.7959 3.67383H10.2041V5.30648H29.7959V3.67383Z" fill="black"/>
<path d="M16.7347 5.30566H8.57141V6.93832H16.7347V5.30566Z" fill="black"/>
<path d="M31.4285 5.30566H23.2653V6.93832H31.4285V5.30566Z" fill="black"/>
<path d="M11.8367 6.93848H6.93872V8.57113H11.8367V6.93848Z" fill="black"/>
<path d="M33.0612 6.93848H28.1632V8.57113H33.0612V6.93848Z" fill="black"/>
<path d="M10.2041 8.57129H5.30615V10.2039H10.2041V8.57129Z" fill="black"/>
<path d="M34.6939 8.57129H29.7959V10.2039H34.6939V8.57129Z" fill="black"/>
<path d="M8.57142 10.2041H3.67346V11.8368H8.57142V10.2041Z" fill="black"/>
<path d="M36.3265 10.2041H31.4286V11.8368H36.3265V10.2041Z" fill="black"/>
<path d="M6.93877 11.8369H3.67346V13.4696H6.93877V11.8369Z" fill="black"/>
<path d="M36.3266 11.8369H33.0613V13.4696H36.3266V11.8369Z" fill="black"/>
<path d="M6.93873 13.4697H2.04077V15.1024H6.93873V13.4697Z" fill="black"/>
<path d="M24.898 13.4697H15.1021V15.1024H24.898V13.4697Z" fill="black"/>
<path d="M37.9592 13.4697H33.0613V15.1024H37.9592V13.4697Z" fill="black"/>
<path d="M6.93873 15.1016H2.04077V16.7342H6.93873V15.1016Z" fill="black"/>
<path d="M26.5306 15.1016H13.4694V16.7342H26.5306V15.1016Z" fill="black"/>
<path d="M37.9592 15.1016H33.0613V16.7342H37.9592V15.1016Z" fill="black"/>
<path d="M5.30608 16.7344H2.04077V18.367H5.30608V16.7344Z" fill="black"/>
<path d="M16.7347 16.7344H13.4694V18.367H16.7347V16.7344Z" fill="black"/>
<path d="M26.5306 16.7344H23.2653V18.367H26.5306V16.7344Z" fill="black"/>
<path d="M37.9592 16.7344H34.6938V18.367H37.9592V16.7344Z" fill="black"/>
<path d="M5.30608 18.3672H2.04077V19.9998H5.30608V18.3672Z" fill="black"/>
<path d="M16.7347 18.3672H13.4694V19.9998H16.7347V18.3672Z" fill="black"/>
<path d="M26.5306 18.3672H23.2653V19.9998H26.5306V18.3672Z" fill="black"/>
<path d="M37.9592 18.3672H34.6938V19.9998H37.9592V18.3672Z" fill="black"/>
<path d="M5.30608 20H2.04077V21.6327H5.30608V20Z" fill="black"/>
<path d="M16.7347 20H13.4694V21.6327H16.7347V20Z" fill="black"/>
<path d="M26.5306 20H23.2653V21.6327H26.5306V20Z" fill="black"/>
<path d="M37.9592 20H34.6938V21.6327H37.9592V20Z" fill="black"/>
<path d="M5.30608 21.6328H2.04077V23.2655H5.30608V21.6328Z" fill="black"/>
<path d="M16.7347 21.6328H13.4694V23.2655H16.7347V21.6328Z" fill="black"/>
<path d="M26.5306 21.6328H23.2653V23.2655H26.5306V21.6328Z" fill="black"/>
<path d="M37.9592 21.6328H34.6938V23.2655H37.9592V21.6328Z" fill="black"/>
<path d="M6.93873 23.2656H2.04077V24.8983H6.93873V23.2656Z" fill="black"/>
<path d="M26.5306 23.2656H13.4694V24.8983H26.5306V23.2656Z" fill="black"/>
<path d="M37.9592 23.2656H33.0613V24.8983H37.9592V23.2656Z" fill="black"/>
<path d="M6.93873 24.8984H2.04077V26.5311H6.93873V24.8984Z" fill="black"/>
<path d="M24.898 24.8984H15.1021V26.5311H24.898V24.8984Z" fill="black"/>
<path d="M37.9592 24.8984H33.0613V26.5311H37.9592V24.8984Z" fill="black"/>
<path d="M6.93877 26.5303H3.67346V28.1629H6.93877V26.5303Z" fill="black"/>
<path d="M36.3266 26.5303H33.0613V28.1629H36.3266V26.5303Z" fill="black"/>
<path d="M8.57142 28.1631H3.67346V29.7957H8.57142V28.1631Z" fill="black"/>
<path d="M36.3265 28.1631H31.4286V29.7957H36.3265V28.1631Z" fill="black"/>
<path d="M10.2041 29.7959H5.30615V31.4286H10.2041V29.7959Z" fill="black"/>
<path d="M34.6939 29.7959H29.7959V31.4286H34.6939V29.7959Z" fill="black"/>
<path d="M11.8367 31.4287H6.93872V33.0614H11.8367V31.4287Z" fill="black"/>
<path d="M33.0612 31.4287H28.1632V33.0614H33.0612V31.4287Z" fill="black"/>
<path d="M16.7347 33.0615H8.57141V34.6942H16.7347V33.0615Z" fill="black"/>
<path d="M31.4285 33.0615H23.2653V34.6942H31.4285V33.0615Z" fill="black"/>
<path d="M29.7959 34.6943H10.2041V36.327H29.7959V34.6943Z" fill="black"/>
<path d="M26.5306 36.3262H13.4694V37.9588H26.5306V36.3262Z" fill="black"/>
</svg>
