<svg width="41" height="40" viewBox="0 0 41 40" fill="none" xmlns="http://www.w3.org/2000/svg">
<path d="M27.1939 2.04102H13.8062V3.67367H27.1939V2.04102Z" fill="black"/>
<path d="M30.5409 3.67383H10.4592V5.30648H30.5409V3.67383Z" fill="black"/>
<path d="M17.1531 5.30566H8.78577V6.93832H17.1531V5.30566Z" fill="black"/>
<path d="M32.2143 5.30566H23.8469V6.93832H32.2143V5.30566Z" fill="black"/>
<path d="M12.1327 6.93848H7.1123V8.57113H12.1327V6.93848Z" fill="black"/>
<path d="M33.8877 6.93848H28.8673V8.57113H33.8877V6.93848Z" fill="black"/>
<path d="M10.4591 8.57129H5.43872V10.2039H10.4591V8.57129Z" fill="black"/>
<path d="M35.5612 8.57129H30.5408V10.2039H35.5612V8.57129Z" fill="black"/>
<path d="M8.78567 10.2041H3.76526V11.8368H8.78567V10.2041Z" fill="black"/>
<path d="M37.2346 10.2041H32.2142V11.8368H37.2346V10.2041Z" fill="black"/>
<path d="M7.1122 11.8369H3.76526V13.4696H7.1122V11.8369Z" fill="black"/>
<path d="M37.2346 11.8369H33.8877V13.4696H37.2346V11.8369Z" fill="black"/>
<path d="M7.11221 13.4697H2.0918V15.1024H7.11221V13.4697Z" fill="black"/>
<path d="M17.1531 13.4697H13.8062V15.1024H17.1531V13.4697Z" fill="black"/>
<path d="M27.1939 13.4697H23.8469V15.1024H27.1939V13.4697Z" fill="black"/>
<path d="M38.9081 13.4697H33.8877V15.1024H38.9081V13.4697Z" fill="black"/>
<path d="M7.11221 15.1016H2.0918V16.7342H7.11221V15.1016Z" fill="black"/>
<path d="M18.8266 15.1016H13.8062V16.7342H18.8266V15.1016Z" fill="black"/>
<path d="M27.1939 15.1016H22.1735V16.7342H27.1939V15.1016Z" fill="black"/>
<path d="M38.9081 15.1016H33.8877V16.7342H38.9081V15.1016Z" fill="black"/>
<path d="M5.43874 16.7344H2.0918V18.367H5.43874V16.7344Z" fill="black"/>
<path d="M25.5204 16.7344H15.4796V18.367H25.5204V16.7344Z" fill="black"/>
<path d="M38.9082 16.7344H35.5613V18.367H38.9082V16.7344Z" fill="black"/>
<path d="M5.43874 18.3672H2.0918V19.9998H5.43874V18.3672Z" fill="black"/>
<path d="M23.847 18.3672H17.1531V19.9998H23.847V18.3672Z" fill="black"/>
<path d="M38.9082 18.3672H35.5613V19.9998H38.9082V18.3672Z" fill="black"/>
<path d="M5.43874 20H2.0918V21.6327H5.43874V20Z" fill="black"/>
<path d="M23.847 20H17.1531V21.6327H23.847V20Z" fill="black"/>
<path d="M38.9082 20H35.5613V21.6327H38.9082V20Z" fill="black"/>
<path d="M5.43874 21.6328H2.0918V23.2655H5.43874V21.6328Z" fill="black"/>
<path d="M25.5204 21.6328H15.4796V23.2655H25.5204V21.6328Z" fill="black"/>
<path d="M38.9082 21.6328H35.5613V23.2655H38.9082V21.6328Z" fill="black"/>
<path d="M7.11221 23.2656H2.0918V24.8983H7.11221V23.2656Z" fill="black"/>
<path d="M18.8266 23.2656H13.8062V24.8983H18.8266V23.2656Z" fill="black"/>
<path d="M27.1939 23.2656H22.1735V24.8983H27.1939V23.2656Z" fill="black"/>
<path d="M38.9081 23.2656H33.8877V24.8983H38.9081V23.2656Z" fill="black"/>
<path d="M7.11221 24.8984H2.0918V26.5311H7.11221V24.8984Z" fill="black"/>
<path d="M17.1531 24.8984H13.8062V26.5311H17.1531V24.8984Z" fill="black"/>
<path d="M27.1939 24.8984H23.8469V26.5311H27.1939V24.8984Z" fill="black"/>
<path d="M38.9081 24.8984H33.8877V26.5311H38.9081V24.8984Z" fill="black"/>
<path d="M7.1122 26.5303H3.76526V28.1629H7.1122V26.5303Z" fill="black"/>
<path d="M37.2346 26.5303H33.8877V28.1629H37.2346V26.5303Z" fill="black"/>
<path d="M8.78567 28.1631H3.76526V29.7957H8.78567V28.1631Z" fill="black"/>
<path d="M37.2346 28.1631H32.2142V29.7957H37.2346V28.1631Z" fill="black"/>
<path d="M10.4591 29.7959H5.43872V31.4286H10.4591V29.7959Z" fill="black"/>
<path d="M35.5612 29.7959H30.5408V31.4286H35.5612V29.7959Z" fill="black"/>
<path d="M12.1327 31.4287H7.1123V33.0614H12.1327V31.4287Z" fill="black"/>
<path d="M33.8877 31.4287H28.8673V33.0614H33.8877V31.4287Z" fill="black"/>
<path d="M17.1531 33.0615H8.78577V34.6942H17.1531V33.0615Z" fill="black"/>
<path d="M32.2143 33.0615H23.8469V34.6942H32.2143V33.0615Z" fill="black"/>
<path d="M30.5409 34.6943H10.4592V36.327H30.5409V34.6943Z" fill="black"/>
<path d="M27.1939 36.3262H13.8062V37.9588H27.1939V36.3262Z" fill="black"/>
</svg>
