<svg width="40" height="40" viewBox="0 0 40 40" fill="none" xmlns="http://www.w3.org/2000/svg">
<path d="M24.898 2.04102H15.1021V3.67367H24.898V2.04102Z" fill="black"/>
<path d="M26.5306 3.67383H13.4694V5.30648H26.5306V3.67383Z" fill="black"/>
<path d="M16.7347 5.30566H13.4694V6.93832H16.7347V5.30566Z" fill="black"/>
<path d="M26.5306 5.30566H23.2653V6.93832H26.5306V5.30566Z" fill="black"/>
<path d="M16.7347 6.93848H13.4694V8.57113H16.7347V6.93848Z" fill="black"/>
<path d="M26.5306 6.93848H23.2653V8.57113H26.5306V6.93848Z" fill="black"/>
<path d="M16.7347 8.57129H13.4694V10.2039H16.7347V8.57129Z" fill="black"/>
<path d="M26.5306 8.57129H23.2653V10.2039H26.5306V8.57129Z" fill="black"/>
<path d="M16.7347 10.2041H13.4694V11.8368H16.7347V10.2041Z" fill="black"/>
<path d="M26.5306 10.2041H23.2653V11.8368H26.5306V10.2041Z" fill="black"/>
<path d="M16.7347 11.8369H13.4694V13.4696H16.7347V11.8369Z" fill="black"/>
<path d="M26.5306 11.8369H23.2653V13.4696H26.5306V11.8369Z" fill="black"/>
<path d="M16.7347 13.4697H3.67346V15.1024H16.7347V13.4697Z" fill="black"/>
<path d="M36.3265 13.4697H23.2653V15.1024H36.3265V13.4697Z" fill="black"/>
<path d="M15.102 15.1016H2.04077V16.7342H15.102V15.1016Z" fill="black"/>
<path d="M37.9592 15.1016H24.8979V16.7342H37.9592V15.1016Z" fill="black"/>
<path d="M5.30608 16.7344H2.04077V18.367H5.30608V16.7344Z" fill="black"/>
<path d="M37.9592 16.7344H34.6938V18.367H37.9592V16.7344Z" fill="black"/>
<path d="M5.30608 18.3672H2.04077V19.9998H5.30608V18.3672Z" fill="black"/>
<path d="M37.9592 18.3672H34.6938V19.9998H37.9592V18.3672Z" fill="black"/>
<path d="M5.30608 20H2.04077V21.6327H5.30608V20Z" fill="black"/>
<path d="M37.9592 20H34.6938V21.6327H37.9592V20Z" fill="black"/>
<path d="M5.30608 21.6328H2.04077V23.2655H5.30608V21.6328Z" fill="black"/>
<path d="M37.9592 21.6328H34.6938V23.2655H37.9592V21.6328Z" fill="black"/>
<path d="M15.102 23.2656H2.04077V24.8983H15.102V23.2656Z" fill="black"/>
<path d="M37.9592 23.2656H24.8979V24.8983H37.9592V23.2656Z" fill="black"/>
<path d="M16.7347 24.8984H3.67346V26.5311H16.7347V24.8984Z" fill="black"/>
<path d="M36.3265 24.8984H23.2653V26.5311H36.3265V24.8984Z" fill="black"/>
<path d="M16.7347 26.5303H13.4694V28.1629H16.7347V26.5303Z" fill="black"/>
<path d="M26.5306 26.5303H23.2653V28.1629H26.5306V26.5303Z" fill="black"/>
<path d="M16.7347 28.1631H13.4694V29.7957H16.7347V28.1631Z" fill="black"/>
<path d="M26.5306 28.1631H23.2653V29.7957H26.5306V28.1631Z" fill="black"/>
<path d="M16.7347 29.7959H13.4694V31.4286H16.7347V29.7959Z" fill="black"/>
<path d="M26.5306 29.7959H23.2653V31.4286H26.5306V29.7959Z" fill="black"/>
<path d="M16.7347 31.4287H13.4694V33.0614H16.7347V31.4287Z" fill="black"/>
<path d="M26.5306 31.4287H23.2653V33.0614H26.5306V31.4287Z" fill="black"/>
<path d="M16.7347 33.0615H13.4694V34.6942H16.7347V33.0615Z" fill="black"/>
<path d="M26.5306 33.0615H23.2653V34.6942H26.5306V33.0615Z" fill="black"/>
<path d="M26.5306 34.6943H13.4694V36.327H26.5306V34.6943Z" fill="black"/>
<path d="M24.898 36.3262H15.1021V37.9588H24.898V36.3262Z" fill="black"/>
</svg>
