<svg width="42" height="40" viewBox="0 0 42 40" fill="none" xmlns="http://www.w3.org/2000/svg">
<path d="M27.8571 2.04102H14.1428V3.67367H27.8571V2.04102Z" fill="black"/>
<path d="M31.2858 3.67383H10.7144V5.30648H31.2858V3.67383Z" fill="black"/>
<path d="M17.5714 5.30566H9V6.93832H17.5714V5.30566Z" fill="black"/>
<path d="M32.9999 5.30566H24.4285V6.93832H32.9999V5.30566Z" fill="black"/>
<path d="M12.4285 6.93848H7.28564V8.57113H12.4285V6.93848Z" fill="black"/>
<path d="M34.7144 6.93848H29.5715V8.57113H34.7144V6.93848Z" fill="black"/>
<path d="M10.7144 8.57129H5.57153V10.2039H10.7144V8.57129Z" fill="black"/>
<path d="M36.4285 8.57129H31.2856V10.2039H36.4285V8.57129Z" fill="black"/>
<path d="M9.00003 10.2041H3.85718V11.8368H9.00003V10.2041Z" fill="black"/>
<path d="M38.1429 10.2041H33V11.8368H38.1429V10.2041Z" fill="black"/>
<path d="M7.28575 11.8369H3.85718V13.4696H7.28575V11.8369Z" fill="black"/>
<path d="M22.7142 11.8369H19.2856V13.4696H22.7142V11.8369Z" fill="black"/>
<path d="M38.1429 11.8369H34.7144V13.4696H38.1429V11.8369Z" fill="black"/>
<path d="M7.28568 13.4697H2.14282V15.1024H7.28568V13.4697Z" fill="black"/>
<path d="M22.7142 13.4697H19.2856V15.1024H22.7142V13.4697Z" fill="black"/>
<path d="M39.8572 13.4697H34.7144V15.1024H39.8572V13.4697Z" fill="black"/>
<path d="M7.28568 15.1016H2.14282V16.7342H7.28568V15.1016Z" fill="black"/>
<path d="M39.8572 15.1016H34.7144V16.7342H39.8572V15.1016Z" fill="black"/>
<path d="M5.57139 16.7344H2.14282V18.367H5.57139V16.7344Z" fill="black"/>
<path d="M39.857 16.7344H36.4285V18.367H39.857V16.7344Z" fill="black"/>
<path d="M5.57139 18.3672H2.14282V19.9998H5.57139V18.3672Z" fill="black"/>
<path d="M22.7142 18.3672H19.2856V19.9998H22.7142V18.3672Z" fill="black"/>
<path d="M39.857 18.3672H36.4285V19.9998H39.857V18.3672Z" fill="black"/>
<path d="M5.57139 20H2.14282V21.6327H5.57139V20Z" fill="black"/>
<path d="M22.7142 20H19.2856V21.6327H22.7142V20Z" fill="black"/>
<path d="M39.857 20H36.4285V21.6327H39.857V20Z" fill="black"/>
<path d="M5.57139 21.6328H2.14282V23.2655H5.57139V21.6328Z" fill="black"/>
<path d="M22.7142 21.6328H19.2856V23.2655H22.7142V21.6328Z" fill="black"/>
<path d="M39.857 21.6328H36.4285V23.2655H39.857V21.6328Z" fill="black"/>
<path d="M7.28568 23.2656H2.14282V24.8983H7.28568V23.2656Z" fill="black"/>
<path d="M22.7142 23.2656H19.2856V24.8983H22.7142V23.2656Z" fill="black"/>
<path d="M39.8572 23.2656H34.7144V24.8983H39.8572V23.2656Z" fill="black"/>
<path d="M7.28568 24.8984H2.14282V26.5311H7.28568V24.8984Z" fill="black"/>
<path d="M22.7142 24.8984H19.2856V26.5311H22.7142V24.8984Z" fill="black"/>
<path d="M39.8572 24.8984H34.7144V26.5311H39.8572V24.8984Z" fill="black"/>
<path d="M7.28575 26.5303H3.85718V28.1629H7.28575V26.5303Z" fill="black"/>
<path d="M22.7142 26.5303H19.2856V28.1629H22.7142V26.5303Z" fill="black"/>
<path d="M38.1429 26.5303H34.7144V28.1629H38.1429V26.5303Z" fill="black"/>
<path d="M9.00003 28.1631H3.85718V29.7957H9.00003V28.1631Z" fill="black"/>
<path d="M38.1429 28.1631H33V29.7957H38.1429V28.1631Z" fill="black"/>
<path d="M10.7144 29.7959H5.57153V31.4286H10.7144V29.7959Z" fill="black"/>
<path d="M36.4285 29.7959H31.2856V31.4286H36.4285V29.7959Z" fill="black"/>
<path d="M12.4285 31.4287H7.28564V33.0614H12.4285V31.4287Z" fill="black"/>
<path d="M34.7144 31.4287H29.5715V33.0614H34.7144V31.4287Z" fill="black"/>
<path d="M17.5714 33.0615H9V34.6942H17.5714V33.0615Z" fill="black"/>
<path d="M32.9999 33.0615H24.4285V34.6942H32.9999V33.0615Z" fill="black"/>
<path d="M31.2858 34.6943H10.7144V36.327H31.2858V34.6943Z" fill="black"/>
<path d="M27.8571 36.3262H14.1428V37.9588H27.8571V36.3262Z" fill="black"/>
</svg>
