<svg width="41" height="41" viewBox="0 0 41 41" fill="none" xmlns="http://www.w3.org/2000/svg">
<path d="M22.1735 7.1123H18.8265V8.78577H22.1735V7.1123Z" fill="black"/>
<path d="M22.1735 8.78613H18.8265V10.4596H22.1735V8.78613Z" fill="black"/>
<path d="M22.1735 10.459H18.8265V12.1325H22.1735V10.459Z" fill="black"/>
<path d="M22.1735 12.1328H18.8265V13.8063H22.1735V12.1328Z" fill="black"/>
<path d="M22.1735 13.8057H18.8265V15.4791H22.1735V13.8057Z" fill="black"/>
<path d="M22.1735 15.4795H18.8265V17.153H22.1735V15.4795Z" fill="black"/>
<path d="M22.1735 17.1533H18.8265V18.8268H22.1735V17.1533Z" fill="black"/>
<path d="M33.8878 18.8262H7.11224V20.4996H33.8878V18.8262Z" fill="black"/>
<path d="M33.8878 20.5H7.11224V22.1735H33.8878V20.5Z" fill="black"/>
<path d="M22.1735 22.1738H18.8265V23.8473H22.1735V22.1738Z" fill="black"/>
<path d="M22.1735 23.8467H18.8265V25.5201H22.1735V23.8467Z" fill="black"/>
<path d="M22.1735 25.5205H18.8265V27.194H22.1735V25.5205Z" fill="black"/>
<path d="M22.1735 27.1943H18.8265V28.8678H22.1735V27.1943Z" fill="black"/>
<path d="M22.1735 28.8672H18.8265V30.5407H22.1735V28.8672Z" fill="black"/>
<path d="M22.1735 30.541H18.8265V32.2145H22.1735V30.541Z" fill="black"/>
<path d="M22.1735 32.2139H18.8265V33.8873H22.1735V32.2139Z" fill="black"/>
</svg>
