<svg width="40" height="41" viewBox="0 0 40 41" fill="none" xmlns="http://www.w3.org/2000/svg">
<path d="M34.6939 3.76562H5.30615V5.43909H34.6939V3.76562Z" fill="black"/>
<path d="M36.3265 5.43848H3.67346V7.11195H36.3265V5.43848Z" fill="black"/>
<path d="M6.93877 7.1123H3.67346V8.78577H6.93877V7.1123Z" fill="black"/>
<path d="M36.3265 7.1123H33.0612V8.78577H36.3265V7.1123Z" fill="black"/>
<path d="M6.93877 8.78613H3.67346V10.4596H6.93877V8.78613Z" fill="black"/>
<path d="M36.3265 8.78613H33.0612V10.4596H36.3265V8.78613Z" fill="black"/>
<path d="M6.93877 10.459H3.67346V12.1325H6.93877V10.459Z" fill="black"/>
<path d="M36.3265 10.459H33.0612V12.1325H36.3265V10.459Z" fill="black"/>
<path d="M6.93877 12.1328H3.67346V13.8063H6.93877V12.1328Z" fill="black"/>
<path d="M28.1633 12.1328H11.8367V13.8063H28.1633V12.1328Z" fill="black"/>
<path d="M36.3265 12.1328H33.0612V13.8063H36.3265V12.1328Z" fill="black"/>
<path d="M6.93877 13.8057H3.67346V15.4791H6.93877V13.8057Z" fill="black"/>
<path d="M28.1633 13.8057H11.8367V15.4791H28.1633V13.8057Z" fill="black"/>
<path d="M36.3265 13.8057H33.0612V15.4791H36.3265V13.8057Z" fill="black"/>
<path d="M6.93877 15.4795H3.67346V17.153H6.93877V15.4795Z" fill="black"/>
<path d="M28.1632 15.4795H21.6326V17.153H28.1632V15.4795Z" fill="black"/>
<path d="M36.3265 15.4795H33.0612V17.153H36.3265V15.4795Z" fill="black"/>
<path d="M6.93877 17.1533H3.67346V18.8268H6.93877V17.1533Z" fill="black"/>
<path d="M28.1633 17.1533H20V18.8268H28.1633V17.1533Z" fill="black"/>
<path d="M36.3265 17.1533H33.0612V18.8268H36.3265V17.1533Z" fill="black"/>
<path d="M6.93877 18.8262H3.67346V20.4996H6.93877V18.8262Z" fill="black"/>
<path d="M23.2653 18.8262H18.3674V20.4996H23.2653V18.8262Z" fill="black"/>
<path d="M28.1633 18.8262H24.8979V20.4996H28.1633V18.8262Z" fill="black"/>
<path d="M36.3265 18.8262H33.0612V20.4996H36.3265V18.8262Z" fill="black"/>
<path d="M6.93877 20.5H3.67346V22.1735H6.93877V20.5Z" fill="black"/>
<path d="M21.6326 20.5H16.7347V22.1735H21.6326V20.5Z" fill="black"/>
<path d="M28.1633 20.5H24.8979V22.1735H28.1633V20.5Z" fill="black"/>
<path d="M36.3265 20.5H33.0612V22.1735H36.3265V20.5Z" fill="black"/>
<path d="M6.93877 22.1738H3.67346V23.8473H6.93877V22.1738Z" fill="black"/>
<path d="M20 22.1738H15.1021V23.8473H20V22.1738Z" fill="black"/>
<path d="M28.1633 22.1738H24.8979V23.8473H28.1633V22.1738Z" fill="black"/>
<path d="M36.3265 22.1738H33.0612V23.8473H36.3265V22.1738Z" fill="black"/>
<path d="M6.93877 23.8467H3.67346V25.5201H6.93877V23.8467Z" fill="black"/>
<path d="M18.3673 23.8467H13.4694V25.5201H18.3673V23.8467Z" fill="black"/>
<path d="M28.1633 23.8467H24.8979V25.5201H28.1633V23.8467Z" fill="black"/>
<path d="M36.3265 23.8467H33.0612V25.5201H36.3265V23.8467Z" fill="black"/>
<path d="M6.93877 25.5205H3.67346V27.194H6.93877V25.5205Z" fill="black"/>
<path d="M16.7347 25.5205H11.8367V27.194H16.7347V25.5205Z" fill="black"/>
<path d="M28.1633 25.5205H24.8979V27.194H28.1633V25.5205Z" fill="black"/>
<path d="M36.3265 25.5205H33.0612V27.194H36.3265V25.5205Z" fill="black"/>
<path d="M6.93877 27.1943H3.67346V28.8678H6.93877V27.1943Z" fill="black"/>
<path d="M15.102 27.1943H11.8367V28.8678H15.102V27.1943Z" fill="black"/>
<path d="M28.1633 27.1943H24.8979V28.8678H28.1633V27.1943Z" fill="black"/>
<path d="M36.3265 27.1943H33.0612V28.8678H36.3265V27.1943Z" fill="black"/>
<path d="M6.93877 28.8672H3.67346V30.5407H6.93877V28.8672Z" fill="black"/>
<path d="M36.3265 28.8672H33.0612V30.5407H36.3265V28.8672Z" fill="black"/>
<path d="M6.93877 30.541H3.67346V32.2145H6.93877V30.541Z" fill="black"/>
<path d="M36.3265 30.541H33.0612V32.2145H36.3265V30.541Z" fill="black"/>
<path d="M6.93877 32.2139H3.67346V33.8873H6.93877V32.2139Z" fill="black"/>
<path d="M36.3265 32.2139H33.0612V33.8873H36.3265V32.2139Z" fill="black"/>
<path d="M36.3265 33.8877H3.67346V35.5612H36.3265V33.8877Z" fill="black"/>
<path d="M34.6939 35.5615H5.30615V37.235H34.6939V35.5615Z" fill="black"/>
</svg>
