<svg width="41" height="41" viewBox="0 0 41 41" fill="none" xmlns="http://www.w3.org/2000/svg">
<path d="M35.5612 3.76562H5.43878V5.43909H35.5612V3.76562Z" fill="black"/>
<path d="M37.2347 5.43848H3.76532V7.11195H37.2347V5.43848Z" fill="black"/>
<path d="M7.11226 7.1123H3.76532V8.78577H7.11226V7.1123Z" fill="black"/>
<path d="M37.2347 7.1123H33.8878V8.78577H37.2347V7.1123Z" fill="black"/>
<path d="M7.11226 8.78613H3.76532V10.4596H7.11226V8.78613Z" fill="black"/>
<path d="M37.2347 8.78613H33.8878V10.4596H37.2347V8.78613Z" fill="black"/>
<path d="M7.11226 10.459H3.76532V12.1325H7.11226V10.459Z" fill="black"/>
<path d="M37.2347 10.459H33.8878V12.1325H37.2347V10.459Z" fill="black"/>
<path d="M7.11226 12.1328H3.76532V13.8063H7.11226V12.1328Z" fill="black"/>
<path d="M37.2347 12.1328H33.8878V13.8063H37.2347V12.1328Z" fill="black"/>
<path d="M7.11226 13.8057H3.76532V15.4791H7.11226V13.8057Z" fill="black"/>
<path d="M37.2347 13.8057H33.8878V15.4791H37.2347V13.8057Z" fill="black"/>
<path d="M7.11226 15.4795H3.76532V17.153H7.11226V15.4795Z" fill="black"/>
<path d="M27.1939 15.4795H23.8469V17.153H27.1939V15.4795Z" fill="black"/>
<path d="M37.2347 15.4795H33.8878V17.153H37.2347V15.4795Z" fill="black"/>
<path d="M7.11226 17.1533H3.76532V18.8268H7.11226V17.1533Z" fill="black"/>
<path d="M27.1939 17.1533H22.1735V18.8268H27.1939V17.1533Z" fill="black"/>
<path d="M37.2347 17.1533H33.8878V18.8268H37.2347V17.1533Z" fill="black"/>
<path d="M7.11226 18.8262H3.76532V20.4996H7.11226V18.8262Z" fill="black"/>
<path d="M17.1531 18.8262H13.8062V20.4996H17.1531V18.8262Z" fill="black"/>
<path d="M25.5204 18.8262H20.5V20.4996H25.5204V18.8262Z" fill="black"/>
<path d="M37.2347 18.8262H33.8878V20.4996H37.2347V18.8262Z" fill="black"/>
<path d="M7.11226 20.5H3.76532V22.1735H7.11226V20.5Z" fill="black"/>
<path d="M23.847 20.5H13.8062V22.1735H23.847V20.5Z" fill="black"/>
<path d="M37.2347 20.5H33.8878V22.1735H37.2347V20.5Z" fill="black"/>
<path d="M7.11226 22.1738H3.76532V23.8473H7.11226V22.1738Z" fill="black"/>
<path d="M22.1735 22.1738H15.4796V23.8473H22.1735V22.1738Z" fill="black"/>
<path d="M37.2347 22.1738H33.8878V23.8473H37.2347V22.1738Z" fill="black"/>
<path d="M7.11226 23.8467H3.76532V25.5201H7.11226V23.8467Z" fill="black"/>
<path d="M20.5 23.8467H17.1531V25.5201H20.5V23.8467Z" fill="black"/>
<path d="M37.2347 23.8467H33.8878V25.5201H37.2347V23.8467Z" fill="black"/>
<path d="M7.11226 25.5205H3.76532V27.194H7.11226V25.5205Z" fill="black"/>
<path d="M37.2347 25.5205H33.8878V27.194H37.2347V25.5205Z" fill="black"/>
<path d="M7.11226 27.1943H3.76532V28.8678H7.11226V27.1943Z" fill="black"/>
<path d="M37.2347 27.1943H33.8878V28.8678H37.2347V27.1943Z" fill="black"/>
<path d="M7.11226 28.8672H3.76532V30.5407H7.11226V28.8672Z" fill="black"/>
<path d="M37.2347 28.8672H33.8878V30.5407H37.2347V28.8672Z" fill="black"/>
<path d="M7.11226 30.541H3.76532V32.2145H7.11226V30.541Z" fill="black"/>
<path d="M37.2347 30.541H33.8878V32.2145H37.2347V30.541Z" fill="black"/>
<path d="M7.11226 32.2139H3.76532V33.8873H7.11226V32.2139Z" fill="black"/>
<path d="M37.2347 32.2139H33.8878V33.8873H37.2347V32.2139Z" fill="black"/>
<path d="M37.2347 33.8877H3.76532V35.5612H37.2347V33.8877Z" fill="black"/>
<path d="M35.5612 35.5615H5.43878V37.235H35.5612V35.5615Z" fill="black"/>
</svg>
