<svg width="41" height="41" viewBox="0 0 41 41" fill="none" xmlns="http://www.w3.org/2000/svg">
<path d="M35.5612 3.76562H5.43872V5.43909H35.5612V3.76562Z" fill="black"/>
<path d="M37.2346 5.43848H3.76526V7.11195H37.2346V5.43848Z" fill="black"/>
<path d="M7.1122 7.1123H3.76526V8.78577H7.1122V7.1123Z" fill="black"/>
<path d="M37.2346 7.1123H33.8877V8.78577H37.2346V7.1123Z" fill="black"/>
<path d="M7.1122 8.78613H3.76526V10.4596H7.1122V8.78613Z" fill="black"/>
<path d="M37.2346 8.78613H33.8877V10.4596H37.2346V8.78613Z" fill="black"/>
<path d="M7.1122 10.459H3.76526V12.1325H7.1122V10.459Z" fill="black"/>
<path d="M37.2346 10.459H33.8877V12.1325H37.2346V10.459Z" fill="black"/>
<path d="M7.1122 12.1328H3.76526V13.8063H7.1122V12.1328Z" fill="black"/>
<path d="M37.2346 12.1328H33.8877V13.8063H37.2346V12.1328Z" fill="black"/>
<path d="M7.1122 13.8057H3.76526V15.4791H7.1122V13.8057Z" fill="black"/>
<path d="M25.5204 13.8057H15.4796V15.4791H25.5204V13.8057Z" fill="black"/>
<path d="M37.2346 13.8057H33.8877V15.4791H37.2346V13.8057Z" fill="black"/>
<path d="M7.1122 15.4795H3.76526V17.153H7.1122V15.4795Z" fill="black"/>
<path d="M27.1939 15.4795H13.8062V17.153H27.1939V15.4795Z" fill="black"/>
<path d="M37.2346 15.4795H33.8877V17.153H37.2346V15.4795Z" fill="black"/>
<path d="M7.1122 17.1533H3.76526V18.8268H7.1122V17.1533Z" fill="black"/>
<path d="M17.1531 17.1533H13.8062V18.8268H17.1531V17.1533Z" fill="black"/>
<path d="M27.1939 17.1533H23.8469V18.8268H27.1939V17.1533Z" fill="black"/>
<path d="M37.2346 17.1533H33.8877V18.8268H37.2346V17.1533Z" fill="black"/>
<path d="M7.1122 18.8262H3.76526V20.4996H7.1122V18.8262Z" fill="black"/>
<path d="M17.1531 18.8262H13.8062V20.4996H17.1531V18.8262Z" fill="black"/>
<path d="M27.1939 18.8262H23.8469V20.4996H27.1939V18.8262Z" fill="black"/>
<path d="M37.2346 18.8262H33.8877V20.4996H37.2346V18.8262Z" fill="black"/>
<path d="M7.1122 20.5H3.76526V22.1735H7.1122V20.5Z" fill="black"/>
<path d="M17.1531 20.5H13.8062V22.1735H17.1531V20.5Z" fill="black"/>
<path d="M27.1939 20.5H23.8469V22.1735H27.1939V20.5Z" fill="black"/>
<path d="M37.2346 20.5H33.8877V22.1735H37.2346V20.5Z" fill="black"/>
<path d="M7.1122 22.1738H3.76526V23.8473H7.1122V22.1738Z" fill="black"/>
<path d="M17.1531 22.1738H13.8062V23.8473H17.1531V22.1738Z" fill="black"/>
<path d="M27.1939 22.1738H23.8469V23.8473H27.1939V22.1738Z" fill="black"/>
<path d="M37.2346 22.1738H33.8877V23.8473H37.2346V22.1738Z" fill="black"/>
<path d="M7.1122 23.8467H3.76526V25.5201H7.1122V23.8467Z" fill="black"/>
<path d="M27.1939 23.8467H13.8062V25.5201H27.1939V23.8467Z" fill="black"/>
<path d="M37.2346 23.8467H33.8877V25.5201H37.2346V23.8467Z" fill="black"/>
<path d="M7.1122 25.5205H3.76526V27.194H7.1122V25.5205Z" fill="black"/>
<path d="M25.5204 25.5205H15.4796V27.194H25.5204V25.5205Z" fill="black"/>
<path d="M37.2346 25.5205H33.8877V27.194H37.2346V25.5205Z" fill="black"/>
<path d="M7.1122 27.1943H3.76526V28.8678H7.1122V27.1943Z" fill="black"/>
<path d="M37.2346 27.1943H33.8877V28.8678H37.2346V27.1943Z" fill="black"/>
<path d="M7.1122 28.8672H3.76526V30.5407H7.1122V28.8672Z" fill="black"/>
<path d="M37.2346 28.8672H33.8877V30.5407H37.2346V28.8672Z" fill="black"/>
<path d="M7.1122 30.541H3.76526V32.2145H7.1122V30.541Z" fill="black"/>
<path d="M37.2346 30.541H33.8877V32.2145H37.2346V30.541Z" fill="black"/>
<path d="M7.1122 32.2139H3.76526V33.8873H7.1122V32.2139Z" fill="black"/>
<path d="M37.2346 32.2139H33.8877V33.8873H37.2346V32.2139Z" fill="black"/>
<path d="M37.2346 33.8877H3.76526V35.5612H37.2346V33.8877Z" fill="black"/>
<path d="M35.5612 35.5615H5.43872V37.235H35.5612V35.5615Z" fill="black"/>
</svg>
