<svg width="41" height="40" viewBox="0 0 41 40" fill="none" xmlns="http://www.w3.org/2000/svg">
<path d="M23.847 3.67383H17.1531V5.30648H23.847V3.67383Z" fill="black"/>
<path d="M25.5204 5.30566H15.4796V6.93832H25.5204V5.30566Z" fill="black"/>
<path d="M18.8266 6.93848H15.4796V8.57113H18.8266V6.93848Z" fill="black"/>
<path d="M25.5204 6.93848H22.1735V8.57113H25.5204V6.93848Z" fill="black"/>
<path d="M18.8266 8.57129H13.8062V10.2039H18.8266V8.57129Z" fill="black"/>
<path d="M27.1939 8.57129H22.1735V10.2039H27.1939V8.57129Z" fill="black"/>
<path d="M17.1531 10.2041H13.8062V11.8368H17.1531V10.2041Z" fill="black"/>
<path d="M27.1939 10.2041H23.8469V11.8368H27.1939V10.2041Z" fill="black"/>
<path d="M17.1531 11.8369H12.1327V13.4696H17.1531V11.8369Z" fill="black"/>
<path d="M28.8673 11.8369H23.8469V13.4696H28.8673V11.8369Z" fill="black"/>
<path d="M15.4796 13.4697H10.4592V15.1024H15.4796V13.4697Z" fill="black"/>
<path d="M22.1735 13.4697H18.8265V15.1024H22.1735V13.4697Z" fill="black"/>
<path d="M30.5408 13.4697H25.5204V15.1024H30.5408V13.4697Z" fill="black"/>
<path d="M13.8062 15.1016H10.4592V16.7342H13.8062V15.1016Z" fill="black"/>
<path d="M22.1735 15.1016H18.8265V16.7342H22.1735V15.1016Z" fill="black"/>
<path d="M30.5408 15.1016H27.1938V16.7342H30.5408V15.1016Z" fill="black"/>
<path d="M13.8062 16.7344H8.78577V18.367H13.8062V16.7344Z" fill="black"/>
<path d="M22.1735 16.7344H18.8265V18.367H22.1735V16.7344Z" fill="black"/>
<path d="M32.2143 16.7344H27.1938V18.367H32.2143V16.7344Z" fill="black"/>
<path d="M12.1327 18.3672H8.78577V19.9998H12.1327V18.3672Z" fill="black"/>
<path d="M22.1735 18.3672H18.8265V19.9998H22.1735V18.3672Z" fill="black"/>
<path d="M32.2142 18.3672H28.8673V19.9998H32.2142V18.3672Z" fill="black"/>
<path d="M12.1327 20H7.1123V21.6327H12.1327V20Z" fill="black"/>
<path d="M22.1735 20H18.8265V21.6327H22.1735V20Z" fill="black"/>
<path d="M33.8877 20H28.8673V21.6327H33.8877V20Z" fill="black"/>
<path d="M10.4592 21.6328H7.1123V23.2655H10.4592V21.6328Z" fill="black"/>
<path d="M22.1735 21.6328H18.8265V23.2655H22.1735V21.6328Z" fill="black"/>
<path d="M33.8877 21.6328H30.5408V23.2655H33.8877V21.6328Z" fill="black"/>
<path d="M10.4591 23.2656H5.43872V24.8983H10.4591V23.2656Z" fill="black"/>
<path d="M35.5612 23.2656H30.5408V24.8983H35.5612V23.2656Z" fill="black"/>
<path d="M8.78567 24.8984H3.76526V26.5311H8.78567V24.8984Z" fill="black"/>
<path d="M37.2346 24.8984H32.2142V26.5311H37.2346V24.8984Z" fill="black"/>
<path d="M7.1122 26.5303H3.76526V28.1629H7.1122V26.5303Z" fill="black"/>
<path d="M22.1735 26.5303H18.8265V28.1629H22.1735V26.5303Z" fill="black"/>
<path d="M37.2346 26.5303H33.8877V28.1629H37.2346V26.5303Z" fill="black"/>
<path d="M7.11221 28.1631H2.0918V29.7957H7.11221V28.1631Z" fill="black"/>
<path d="M22.1735 28.1631H18.8265V29.7957H22.1735V28.1631Z" fill="black"/>
<path d="M38.9081 28.1631H33.8877V29.7957H38.9081V28.1631Z" fill="black"/>
<path d="M5.43874 29.7959H2.0918V31.4286H5.43874V29.7959Z" fill="black"/>
<path d="M38.9082 29.7959H35.5613V31.4286H38.9082V29.7959Z" fill="black"/>
<path d="M5.43874 31.4287H2.0918V33.0614H5.43874V31.4287Z" fill="black"/>
<path d="M38.9082 31.4287H35.5613V33.0614H38.9082V31.4287Z" fill="black"/>
<path d="M38.9081 33.0615H2.0918V34.6942H38.9081V33.0615Z" fill="black"/>
<path d="M37.2346 34.6943H3.76526V36.327H37.2346V34.6943Z" fill="black"/>
</svg>
