<svg width="40" height="41" viewBox="0 0 40 41" fill="none" xmlns="http://www.w3.org/2000/svg">
<path d="M11.8367 8.78613H8.57141V10.4596H11.8367V8.78613Z" fill="black"/>
<path d="M31.4285 8.78613H28.1632V10.4596H31.4285V8.78613Z" fill="black"/>
<path d="M13.4694 10.459H8.57141V12.1325H13.4694V10.459Z" fill="black"/>
<path d="M31.4286 10.459H26.5306V12.1325H31.4286V10.459Z" fill="black"/>
<path d="M15.1021 12.1328H10.2041V13.8063H15.1021V12.1328Z" fill="black"/>
<path d="M29.7959 12.1328H24.8979V13.8063H29.7959V12.1328Z" fill="black"/>
<path d="M16.7348 13.8057H11.8368V15.4791H16.7348V13.8057Z" fill="black"/>
<path d="M28.1632 13.8057H23.2653V15.4791H28.1632V13.8057Z" fill="black"/>
<path d="M18.3673 15.4795H13.4694V17.153H18.3673V15.4795Z" fill="black"/>
<path d="M26.5306 15.4795H21.6327V17.153H26.5306V15.4795Z" fill="black"/>
<path d="M24.898 17.1533H15.1021V18.8268H24.898V17.1533Z" fill="black"/>
<path d="M23.2654 18.8262H16.7347V20.4996H23.2654V18.8262Z" fill="black"/>
<path d="M23.2654 20.5H16.7347V22.1735H23.2654V20.5Z" fill="black"/>
<path d="M24.898 22.1738H15.1021V23.8473H24.898V22.1738Z" fill="black"/>
<path d="M18.3673 23.8467H13.4694V25.5201H18.3673V23.8467Z" fill="black"/>
<path d="M26.5306 23.8467H21.6327V25.5201H26.5306V23.8467Z" fill="black"/>
<path d="M16.7348 25.5205H11.8368V27.194H16.7348V25.5205Z" fill="black"/>
<path d="M28.1632 25.5205H23.2653V27.194H28.1632V25.5205Z" fill="black"/>
<path d="M15.1021 27.1943H10.2041V28.8678H15.1021V27.1943Z" fill="black"/>
<path d="M29.7959 27.1943H24.8979V28.8678H29.7959V27.1943Z" fill="black"/>
<path d="M13.4694 28.8672H8.57141V30.5407H13.4694V28.8672Z" fill="black"/>
<path d="M31.4286 28.8672H26.5306V30.5407H31.4286V28.8672Z" fill="black"/>
<path d="M11.8367 30.541H8.57141V32.2145H11.8367V30.541Z" fill="black"/>
<path d="M31.4285 30.541H28.1632V32.2145H31.4285V30.541Z" fill="black"/>
</svg>
