<svg xmlns="http://www.w3.org/2000/svg" viewBox="0 0 24 24" fill="none">
<path d="M15.75 6.5C15.75 8.57107 14.0711 10.25 12 10.25C9.92893 10.25 8.25 8.57107 8.25 6.5C8.25 4.42893 9.92893 2.75 12 2.75C14.0711 2.75 15.75 4.42893 15.75 6.5Z" stroke="black" stroke-width="1.5" stroke-linecap="round" stroke-linejoin="round"/><path d="M20 16L18 18M18 18L16 20M18 18L16 16M18 18L20 20" stroke="black" stroke-width="1.5" stroke-linecap="round" stroke-linejoin="round"/><path d="M11.8536 13.2513C8.53542 13.3088 6.02183 15.3058 4.98366 18.1129C4.57486 19.2182 5.51864 20.25 6.69715 20.25H12.2512M11.8536 13.2513C11.9026 13.2504 11.9518 13.25 12.0012 13.25C12.5213 13.25 13.0221 13.2974 13.5012 13.3879M11.8536 13.2513C11.2035 13.2626 10.5846 13.3483 10.0013 13.5" stroke="black" stroke-width="1.5" stroke-linecap="round" stroke-linejoin="round"/>
</svg>