<svg xmlns="http://www.w3.org/2000/svg" viewBox="0 0 24 24" fill="none">
<path d="M15.75 6.5C15.75 8.57107 14.0711 10.25 12 10.25C9.92893 10.25 8.25 8.57107 8.25 6.5C8.25 4.42893 9.92893 2.75 12 2.75C14.0711 2.75 15.75 4.42893 15.75 6.5Z" stroke="black" stroke-width="1.5" stroke-linecap="round" stroke-linejoin="round"/><path d="M11.8535 13.2513C8.53536 13.3088 6.02177 15.3058 4.9836 18.1129C4.5748 19.2182 5.51944 20.25 6.69796 20.25H11.5011M11.8535 13.2513C11.9025 13.2504 11.9517 13.25 12.0011 13.25C12.3532 13.25 12.6965 13.2717 13.0301 13.3138M11.8535 13.2513C11.2034 13.2626 10.5846 13.3483 10.0012 13.5M13.0301 13.3138C13.3638 13.3559 13.6878 13.4184 14.0015 13.5M13.0301 13.3138C13.7321 13.4024 14.3915 13.5812 15.0011 13.838" stroke="black" stroke-width="1.5" stroke-linecap="round" stroke-linejoin="round"/><path d="M14.75 18.6L16.95 20.25L20.25 14.75" stroke="black" stroke-width="1.5" stroke-linecap="round" stroke-linejoin="round"/>
</svg>