<svg width="24" height="24" viewBox="0 0 24 24" fill="none" xmlns="http://www.w3.org/2000/svg">
<path d="M12 7.00049V21.0005ZM12 7.00049C11.6383 5.50989 11.0154 4.2355 10.2127 3.3436C9.41003 2.4517 8.46469 1.98363 7.5 2.00044C6.83696 2.00044 6.20107 2.26383 5.73223 2.73267C5.26339 3.20151 5 3.8374 5 4.50044C5 5.16348 5.26339 5.79936 5.73223 6.26821C6.20107 6.73705 6.83696 7.00044 7.5 7.00044M12 7.00049C12.3617 5.50989 12.9846 4.2355 13.7873 3.3436C14.59 2.4517 15.5353 1.98363 16.5 2.00044C17.163 2.00044 17.7989 2.26383 18.2678 2.73267C18.7366 3.20151 19 3.8374 19 4.50044C19 5.16348 18.7366 5.79936 18.2678 6.26821C17.7989 6.73705 17.163 7.00044 16.5 7.00044M20 11.0005V19.0005C20 19.5309 19.7893 20.0396 19.4142 20.4147C19.0391 20.7898 18.5304 21.0005 18 21.0005H6C5.46957 21.0005 4.96086 20.7898 4.58579 20.4147C4.21071 20.0396 4 19.5309 4 19.0005V11.0005M20 11.0005C20.5523 11.0005 21 10.5528 21 10.0005V8.00049C21 7.44821 20.5523 7.00049 20 7.00049H4C3.44772 7.00049 3 7.44821 3 8.00049V10.0005C3 10.5528 3.44772 11.0005 4 11.0005M20 11.0005H4Z" fill="#DDDDDD"/>
<path d="M12 7.00049V21.0005M12 7.00049C11.6383 5.50989 11.0154 4.2355 10.2127 3.3436C9.41003 2.4517 8.46469 1.98363 7.5 2.00044C6.83696 2.00044 6.20107 2.26383 5.73223 2.73267C5.26339 3.20151 5 3.8374 5 4.50044C5 5.16348 5.26339 5.79936 5.73223 6.26821C6.20107 6.73705 6.83696 7.00044 7.5 7.00044M12 7.00049C12.3617 5.50989 12.9846 4.2355 13.7873 3.3436C14.59 2.4517 15.5353 1.98363 16.5 2.00044C17.163 2.00044 17.7989 2.26383 18.2678 2.73267C18.7366 3.20151 19 3.8374 19 4.50044C19 5.16348 18.7366 5.79936 18.2678 6.26821C17.7989 6.73705 17.163 7.00044 16.5 7.00044M20 11.0005V19.0005C20 19.5309 19.7893 20.0396 19.4142 20.4147C19.0391 20.7898 18.5304 21.0005 18 21.0005H6C5.46957 21.0005 4.96086 20.7898 4.58579 20.4147C4.21071 20.0396 4 19.5309 4 19.0005V11.0005M20 11.0005C20.5523 11.0005 21 10.5528 21 10.0005V8.00049C21 7.44821 20.5523 7.00049 20 7.00049H4C3.44772 7.00049 3 7.44821 3 8.00049V10.0005C3 10.5528 3.44772 11.0005 4 11.0005M20 11.0005H4" stroke="#A4A5A6" stroke-width="2" stroke-linecap="round" stroke-linejoin="round"/>
</svg>
