<svg width="24" height="24" viewBox="0 0 24 24" fill="none" xmlns="http://www.w3.org/2000/svg">
<path d="M2.70303 6.83418H20.497ZM3 6.267C2.74036 6.61319 2.6 7.03426 2.6 7.467V20.8C2.6 21.3304 2.81071 21.8391 3.18579 22.2142C3.56086 22.5893 4.06957 22.8 4.6 22.8H18.6C19.1304 22.8 19.6391 22.5893 20.0142 22.2142C20.3893 21.8391 20.6 21.3304 20.6 20.8V7.467C20.6 7.03426 20.4596 6.61319 20.2 6.267L18.2 3.6C18.0137 3.35161 17.7721 3.15 17.4944 3.01115C17.2167 2.87229 16.9105 2.8 16.6 2.8H6.6C6.28951 2.8 5.98328 2.87229 5.70557 3.01115C5.42786 3.15 5.18629 3.35161 5 3.6L3 6.267Z" fill="#DDDDDD"/>
<path d="M2.70303 6.83418H20.497M3 6.267C2.74036 6.61319 2.6 7.03426 2.6 7.467V20.8C2.6 21.3304 2.81071 21.8391 3.18579 22.2142C3.56086 22.5893 4.06957 22.8 4.6 22.8H18.6C19.1304 22.8 19.6391 22.5893 20.0142 22.2142C20.3893 21.8391 20.6 21.3304 20.6 20.8V7.467C20.6 7.03426 20.4596 6.61319 20.2 6.267L18.2 3.6C18.0137 3.35161 17.7721 3.15 17.4944 3.01115C17.2167 2.87229 16.9105 2.8 16.6 2.8H6.6C6.28951 2.8 5.98328 2.87229 5.70557 3.01115C5.42786 3.15 5.18629 3.35161 5 3.6L3 6.267Z" stroke="#A4A5A6" stroke-width="2" stroke-linecap="round" stroke-linejoin="round"/>
<path d="M15.6 10.7998C15.6 11.8607 15.1786 12.8781 14.4284 13.6282C13.6783 14.3784 12.6609 14.7998 11.6 14.7998C10.5391 14.7998 9.5217 14.3784 8.77155 13.6282C8.02141 12.8781 7.59998 11.8607 7.59998 10.7998" stroke="#A4A5A6" stroke-width="2" stroke-linecap="round" stroke-linejoin="round"/>
</svg>
