<svg width="24" height="24" viewBox="0 0 24 24" fill="none" xmlns="http://www.w3.org/2000/svg">
<path d="M20.054 15.9871H3.94604M18 5C18.5305 5 19.0392 5.21071 19.4142 5.58579C19.7893 5.96086 20 6.46957 20 7V15.526C19.9999 15.8374 20.0725 16.1446 20.212 16.423L21.28 18.55C21.3571 18.703 21.3936 18.8732 21.386 19.0444C21.3784 19.2155 21.327 19.3818 21.2366 19.5274C21.1463 19.6729 21.0201 19.7928 20.8701 19.8756C20.7201 19.9584 20.5513 20.0012 20.38 20H3.62002C3.44871 20.0012 3.27997 19.9584 3.12997 19.8756C2.97997 19.7928 2.85374 19.6729 2.7634 19.5274C2.67305 19.3818 2.62162 19.2155 2.61402 19.0444C2.60643 18.8732 2.64293 18.703 2.72002 18.55L3.78802 16.423C3.92756 16.1446 4.00016 15.8374 4.00002 15.526V7C4.00002 6.46957 4.21073 5.96086 4.58581 5.58579C4.96088 5.21071 5.46959 5 6.00002 5H18Z" stroke="black" stroke-width="2" stroke-linecap="round" stroke-linejoin="round"/>
</svg>
