<svg width="41" height="42" viewBox="0 0 41 42" fill="none" xmlns="http://www.w3.org/2000/svg">
<path d="M27.1939 2.14258H15.4796V3.85686H27.1939V2.14258Z" fill="black"/>
<path d="M28.8674 3.85742H13.8062V5.57171H28.8674V3.85742Z" fill="black"/>
<path d="M18.8266 5.57129H12.1327V7.28557H18.8266V5.57129Z" fill="black"/>
<path d="M30.5408 5.57129H23.8469V7.28557H30.5408V5.57129Z" fill="black"/>
<path d="M15.4796 7.28613H10.4592V9.00042H15.4796V7.28613Z" fill="black"/>
<path d="M32.2143 7.28613H27.1938V9.00042H32.2143V7.28613Z" fill="black"/>
<path d="M13.8062 9H8.78577V10.7143H13.8062V9Z" fill="black"/>
<path d="M23.8469 9H18.8265V10.7143H23.8469V9Z" fill="black"/>
<path d="M33.8877 9H28.8673V10.7143H33.8877V9Z" fill="black"/>
<path d="M13.8062 10.7139H8.78577V12.4282H13.8062V10.7139Z" fill="black"/>
<path d="M25.5204 10.7139H17.1531V12.4282H25.5204V10.7139Z" fill="black"/>
<path d="M33.8877 10.7139H28.8673V12.4282H33.8877V10.7139Z" fill="black"/>
<path d="M12.1327 12.4287H8.78577V14.143H12.1327V12.4287Z" fill="black"/>
<path d="M20.5 12.4287H15.4796V14.143H20.5V12.4287Z" fill="black"/>
<path d="M27.1939 12.4287H22.1735V14.143H27.1939V12.4287Z" fill="black"/>
<path d="M33.8877 12.4287H30.5408V14.143H33.8877V12.4287Z" fill="black"/>
<path d="M12.1327 14.1426H8.78577V15.8569H12.1327V14.1426Z" fill="black"/>
<path d="M18.8266 14.1426H15.4796V15.8569H18.8266V14.1426Z" fill="black"/>
<path d="M27.1939 14.1426H23.8469V15.8569H27.1939V14.1426Z" fill="black"/>
<path d="M33.8877 14.1426H30.5408V15.8569H33.8877V14.1426Z" fill="black"/>
<path d="M20.5 15.8574H15.4796V17.5717H20.5V15.8574Z" fill="black"/>
<path d="M33.8877 15.8574H30.5408V17.5717H33.8877V15.8574Z" fill="black"/>
<path d="M22.1735 17.5713H17.1531V19.2856H22.1735V17.5713Z" fill="black"/>
<path d="M33.8877 17.5713H30.5408V19.2856H33.8877V17.5713Z" fill="black"/>
<path d="M22.1735 19.2861H18.8265V21.0004H22.1735V19.2861Z" fill="black"/>
<path d="M33.8877 19.2861H28.8673V21.0004H33.8877V19.2861Z" fill="black"/>
<path d="M22.1735 21H17.1531V22.7143H22.1735V21Z" fill="black"/>
<path d="M32.2143 21H27.1938V22.7143H32.2143V21Z" fill="black"/>
<path d="M20.5 22.7139H15.4796V24.4282H20.5V22.7139Z" fill="black"/>
<path d="M30.5408 22.7139H25.5204V24.4282H30.5408V22.7139Z" fill="black"/>
<path d="M18.8265 24.4287H17.1531V26.143H18.8265V24.4287Z" fill="black"/>
<path d="M28.8673 24.4287H23.8469V26.143H28.8673V24.4287Z" fill="black"/>
<path d="M27.1939 26.1426H22.1735V27.8569H27.1939V26.1426Z" fill="black"/>
<path d="M25.5204 27.8574H20.5V29.5717H25.5204V27.8574Z" fill="black"/>
<path d="M23.8469 29.5713H20.5V31.2856H23.8469V29.5713Z" fill="black"/>
<path d="M12.1327 31.2861H8.78577V33.0004H12.1327V31.2861Z" fill="black"/>
<path d="M23.8469 31.2861H20.5V33.0004H23.8469V31.2861Z" fill="black"/>
<path d="M12.1327 33H8.78577V34.7143H12.1327V33Z" fill="black"/>
<path d="M23.8469 33H20.5V34.7143H23.8469V33Z" fill="black"/>
<path d="M13.8062 34.7139H8.78577V36.4282H13.8062V34.7139Z" fill="black"/>
<path d="M23.8469 34.7139H18.8265V36.4282H23.8469V34.7139Z" fill="black"/>
<path d="M22.1735 36.4287H10.4592V38.143H22.1735V36.4287Z" fill="black"/>
<path d="M20.5 38.1426H12.1327V39.8569H20.5V38.1426Z" fill="black"/>
</svg>
