<svg width="41" height="40" viewBox="0 0 41 40" fill="none" xmlns="http://www.w3.org/2000/svg">
<path d="M5.43874 2.04102H2.0918V3.67367H5.43874V2.04102Z" fill="black"/>
<path d="M7.11221 3.67383H2.0918V5.30648H7.11221V3.67383Z" fill="black"/>
<path d="M8.78567 5.30566H3.76526V6.93832H8.78567V5.30566Z" fill="black"/>
<path d="M10.4591 6.93848H5.43872V8.57113H10.4591V6.93848Z" fill="black"/>
<path d="M27.1939 6.93848H17.1531V8.57113H27.1939V6.93848Z" fill="black"/>
<path d="M12.1327 8.57129H7.1123V10.2039H12.1327V8.57129Z" fill="black"/>
<path d="M30.5408 8.57129H17.1531V10.2039H30.5408V8.57129Z" fill="black"/>
<path d="M13.8062 10.2041H7.1123V11.8368H13.8062V10.2041Z" fill="black"/>
<path d="M32.2143 10.2041H25.5204V11.8368H32.2143V10.2041Z" fill="black"/>
<path d="M15.4795 11.8369H5.43872V13.4696H15.4795V11.8369Z" fill="black"/>
<path d="M35.5612 11.8369H28.8673V13.4696H35.5612V11.8369Z" fill="black"/>
<path d="M10.4591 13.4697H5.43872V15.1024H10.4591V13.4697Z" fill="black"/>
<path d="M17.1531 13.4697H12.1327V15.1024H17.1531V13.4697Z" fill="black"/>
<path d="M35.5612 13.4697H30.5408V15.1024H35.5612V13.4697Z" fill="black"/>
<path d="M8.78567 15.1016H3.76526V16.7342H8.78567V15.1016Z" fill="black"/>
<path d="M18.8266 15.1016H13.8062V16.7342H18.8266V15.1016Z" fill="black"/>
<path d="M37.2346 15.1016H32.2142V16.7342H37.2346V15.1016Z" fill="black"/>
<path d="M7.11221 16.7344H2.0918V18.367H7.11221V16.7344Z" fill="black"/>
<path d="M20.5 16.7344H13.8062V18.367H20.5V16.7344Z" fill="black"/>
<path d="M38.9081 16.7344H33.8877V18.367H38.9081V16.7344Z" fill="black"/>
<path d="M5.43874 18.3672H2.0918V19.9998H5.43874V18.3672Z" fill="black"/>
<path d="M22.1735 18.3672H13.8062V19.9998H22.1735V18.3672Z" fill="black"/>
<path d="M38.9082 18.3672H35.5613V19.9998H38.9082V18.3672Z" fill="black"/>
<path d="M5.43874 20H2.0918V21.6327H5.43874V20Z" fill="black"/>
<path d="M17.1531 20H13.8062V21.6327H17.1531V20Z" fill="black"/>
<path d="M23.8469 20H18.8265V21.6327H23.8469V20Z" fill="black"/>
<path d="M38.9082 20H35.5613V21.6327H38.9082V20Z" fill="black"/>
<path d="M7.11221 21.6328H2.0918V23.2655H7.11221V21.6328Z" fill="black"/>
<path d="M18.8266 21.6328H13.8062V23.2655H18.8266V21.6328Z" fill="black"/>
<path d="M25.5204 21.6328H20.5V23.2655H25.5204V21.6328Z" fill="black"/>
<path d="M38.9081 21.6328H33.8877V23.2655H38.9081V21.6328Z" fill="black"/>
<path d="M8.78567 23.2656H3.76526V24.8983H8.78567V23.2656Z" fill="black"/>
<path d="M27.1939 23.2656H15.4796V24.8983H27.1939V23.2656Z" fill="black"/>
<path d="M37.2346 23.2656H32.2142V24.8983H37.2346V23.2656Z" fill="black"/>
<path d="M10.4591 24.8984H5.43872V26.5311H10.4591V24.8984Z" fill="black"/>
<path d="M28.8674 24.8984H17.1531V26.5311H28.8674V24.8984Z" fill="black"/>
<path d="M35.5612 24.8984H33.8877V26.5311H35.5612V24.8984Z" fill="black"/>
<path d="M12.1326 26.5303H5.43872V28.1629H12.1326V26.5303Z" fill="black"/>
<path d="M30.5408 26.5303H25.5204V28.1629H30.5408V26.5303Z" fill="black"/>
<path d="M15.4796 28.1631H8.78577V29.7957H15.4796V28.1631Z" fill="black"/>
<path d="M32.2143 28.1631H25.5204V29.7957H32.2143V28.1631Z" fill="black"/>
<path d="M33.8878 29.7959H10.4592V31.4286H33.8878V29.7959Z" fill="black"/>
<path d="M27.1939 31.4287H13.8062V33.0614H27.1939V31.4287Z" fill="black"/>
<path d="M35.5612 31.4287H30.5408V33.0614H35.5612V31.4287Z" fill="black"/>
<path d="M37.2346 33.0615H32.2142V34.6942H37.2346V33.0615Z" fill="black"/>
<path d="M38.9081 34.6943H33.8877V36.327H38.9081V34.6943Z" fill="black"/>
<path d="M38.9082 36.3262H35.5613V37.9588H38.9082V36.3262Z" fill="black"/>
</svg>
