<svg width="40" height="40" viewBox="0 0 40 40" fill="none" xmlns="http://www.w3.org/2000/svg">
<path d="M5.30608 11.8369H2.04077V13.4696H5.30608V11.8369Z" fill="black"/>
<path d="M37.9592 11.8369H34.6938V13.4696H37.9592V11.8369Z" fill="black"/>
<path d="M5.30608 13.4697H2.04077V15.1024H5.30608V13.4697Z" fill="black"/>
<path d="M37.9592 13.4697H34.6938V15.1024H37.9592V13.4697Z" fill="black"/>
<path d="M6.93873 15.1016H2.04077V16.7342H6.93873V15.1016Z" fill="black"/>
<path d="M37.9592 15.1016H33.0613V16.7342H37.9592V15.1016Z" fill="black"/>
<path d="M8.57142 16.7344H3.67346V18.367H8.57142V16.7344Z" fill="black"/>
<path d="M36.3265 16.7344H31.4286V18.367H36.3265V16.7344Z" fill="black"/>
<path d="M10.2041 18.3672H5.30615V19.9998H10.2041V18.3672Z" fill="black"/>
<path d="M34.6939 18.3672H29.7959V19.9998H34.6939V18.3672Z" fill="black"/>
<path d="M11.8367 20H6.93872V21.6327H11.8367V20Z" fill="black"/>
<path d="M33.0612 20H28.1632V21.6327H33.0612V20Z" fill="black"/>
<path d="M15.102 21.6328H6.93872V23.2655H15.102V21.6328Z" fill="black"/>
<path d="M33.0612 21.6328H24.8979V23.2655H33.0612V21.6328Z" fill="black"/>
<path d="M34.6939 23.2656H5.30615V24.8983H34.6939V23.2656Z" fill="black"/>
<path d="M8.57146 24.8984H5.30615V26.5311H8.57146V24.8984Z" fill="black"/>
<path d="M26.5306 24.8984H13.4694V26.5311H26.5306V24.8984Z" fill="black"/>
<path d="M34.6939 24.8984H31.4286V26.5311H34.6939V24.8984Z" fill="black"/>
<path d="M18.3673 26.5303H13.4694V28.1629H18.3673V26.5303Z" fill="black"/>
<path d="M26.5306 26.5303H21.6327V28.1629H26.5306V26.5303Z" fill="black"/>
<path d="M16.7347 28.1631H13.4694V29.7957H16.7347V28.1631Z" fill="black"/>
<path d="M26.5306 28.1631H23.2653V29.7957H26.5306V28.1631Z" fill="black"/>
<path d="M16.7347 29.7959H13.4694V31.4286H16.7347V29.7959Z" fill="black"/>
<path d="M26.5306 29.7959H23.2653V31.4286H26.5306V29.7959Z" fill="black"/>
</svg>
