<svg width="41" height="40" viewBox="0 0 41 40" fill="none" xmlns="http://www.w3.org/2000/svg">
<path d="M27.1939 6.93848H13.8062V8.57113H27.1939V6.93848Z" fill="black"/>
<path d="M30.5409 8.57129H10.4592V10.2039H30.5409V8.57129Z" fill="black"/>
<path d="M15.4796 10.2041H8.78577V11.8368H15.4796V10.2041Z" fill="black"/>
<path d="M32.2143 10.2041H25.5204V11.8368H32.2143V10.2041Z" fill="black"/>
<path d="M12.1326 11.8369H5.43872V13.4696H12.1326V11.8369Z" fill="black"/>
<path d="M35.5612 11.8369H28.8673V13.4696H35.5612V11.8369Z" fill="black"/>
<path d="M10.4591 13.4697H5.43872V15.1024H10.4591V13.4697Z" fill="black"/>
<path d="M23.847 13.4697H17.1531V15.1024H23.847V13.4697Z" fill="black"/>
<path d="M35.5612 13.4697H30.5408V15.1024H35.5612V13.4697Z" fill="black"/>
<path d="M8.78567 15.1016H3.76526V16.7342H8.78567V15.1016Z" fill="black"/>
<path d="M25.5204 15.1016H15.4796V16.7342H25.5204V15.1016Z" fill="black"/>
<path d="M37.2346 15.1016H32.2142V16.7342H37.2346V15.1016Z" fill="black"/>
<path d="M7.11221 16.7344H2.0918V18.367H7.11221V16.7344Z" fill="black"/>
<path d="M18.8266 16.7344H13.8062V18.367H18.8266V16.7344Z" fill="black"/>
<path d="M27.1939 16.7344H22.1735V18.367H27.1939V16.7344Z" fill="black"/>
<path d="M38.9081 16.7344H33.8877V18.367H38.9081V16.7344Z" fill="black"/>
<path d="M5.43874 18.3672H2.0918V19.9998H5.43874V18.3672Z" fill="black"/>
<path d="M17.1531 18.3672H13.8062V19.9998H17.1531V18.3672Z" fill="black"/>
<path d="M27.1939 18.3672H23.8469V19.9998H27.1939V18.3672Z" fill="black"/>
<path d="M38.9082 18.3672H35.5613V19.9998H38.9082V18.3672Z" fill="black"/>
<path d="M5.43874 20H2.0918V21.6327H5.43874V20Z" fill="black"/>
<path d="M17.1531 20H13.8062V21.6327H17.1531V20Z" fill="black"/>
<path d="M27.1939 20H23.8469V21.6327H27.1939V20Z" fill="black"/>
<path d="M38.9082 20H35.5613V21.6327H38.9082V20Z" fill="black"/>
<path d="M7.11221 21.6328H2.0918V23.2655H7.11221V21.6328Z" fill="black"/>
<path d="M18.8266 21.6328H13.8062V23.2655H18.8266V21.6328Z" fill="black"/>
<path d="M27.1939 21.6328H22.1735V23.2655H27.1939V21.6328Z" fill="black"/>
<path d="M38.9081 21.6328H33.8877V23.2655H38.9081V21.6328Z" fill="black"/>
<path d="M8.78567 23.2656H3.76526V24.8983H8.78567V23.2656Z" fill="black"/>
<path d="M25.5204 23.2656H15.4796V24.8983H25.5204V23.2656Z" fill="black"/>
<path d="M37.2346 23.2656H32.2142V24.8983H37.2346V23.2656Z" fill="black"/>
<path d="M10.4591 24.8984H5.43872V26.5311H10.4591V24.8984Z" fill="black"/>
<path d="M23.847 24.8984H17.1531V26.5311H23.847V24.8984Z" fill="black"/>
<path d="M35.5612 24.8984H30.5408V26.5311H35.5612V24.8984Z" fill="black"/>
<path d="M12.1326 26.5303H5.43872V28.1629H12.1326V26.5303Z" fill="black"/>
<path d="M35.5612 26.5303H28.8673V28.1629H35.5612V26.5303Z" fill="black"/>
<path d="M15.4796 28.1631H8.78577V29.7957H15.4796V28.1631Z" fill="black"/>
<path d="M32.2143 28.1631H25.5204V29.7957H32.2143V28.1631Z" fill="black"/>
<path d="M30.5409 29.7959H10.4592V31.4286H30.5409V29.7959Z" fill="black"/>
<path d="M27.1939 31.4287H13.8062V33.0614H27.1939V31.4287Z" fill="black"/>
</svg>
