<svg width="41" height="40" viewBox="0 0 41 40" fill="none" xmlns="http://www.w3.org/2000/svg">
<path d="M23.847 2.04102H17.1531V3.67367H23.847V2.04102Z" fill="black"/>
<path d="M25.5204 3.67383H15.4796V5.30648H25.5204V3.67383Z" fill="black"/>
<path d="M18.8266 5.30566H10.4592V6.93832H18.8266V5.30566Z" fill="black"/>
<path d="M30.5408 5.30566H22.1735V6.93832H30.5408V5.30566Z" fill="black"/>
<path d="M18.8266 6.93848H8.78577V8.57113H18.8266V6.93848Z" fill="black"/>
<path d="M32.2143 6.93848H22.1735V8.57113H32.2143V6.93848Z" fill="black"/>
<path d="M12.1327 8.57129H8.78577V10.2039H12.1327V8.57129Z" fill="black"/>
<path d="M18.8266 8.57129H15.4796V10.2039H18.8266V8.57129Z" fill="black"/>
<path d="M25.5204 8.57129H22.1735V10.2039H25.5204V8.57129Z" fill="black"/>
<path d="M37.2347 8.57129H28.8673V10.2039H37.2347V8.57129Z" fill="black"/>
<path d="M12.1327 10.2041H8.78577V11.8368H12.1327V10.2041Z" fill="black"/>
<path d="M18.8266 10.2041H15.4796V11.8368H18.8266V10.2041Z" fill="black"/>
<path d="M25.5204 10.2041H22.1735V11.8368H25.5204V10.2041Z" fill="black"/>
<path d="M38.9081 10.2041H28.8673V11.8368H38.9081V10.2041Z" fill="black"/>
<path d="M12.1327 11.8369H8.78577V13.4696H12.1327V11.8369Z" fill="black"/>
<path d="M18.8266 11.8369H15.4796V13.4696H18.8266V11.8369Z" fill="black"/>
<path d="M25.5204 11.8369H22.1735V13.4696H25.5204V11.8369Z" fill="black"/>
<path d="M32.2142 11.8369H28.8673V13.4696H32.2142V11.8369Z" fill="black"/>
<path d="M38.9082 11.8369H35.5613V13.4696H38.9082V11.8369Z" fill="black"/>
<path d="M12.1327 13.4697H8.78577V15.1024H12.1327V13.4697Z" fill="black"/>
<path d="M18.8266 13.4697H15.4796V15.1024H18.8266V13.4697Z" fill="black"/>
<path d="M25.5204 13.4697H22.1735V15.1024H25.5204V13.4697Z" fill="black"/>
<path d="M32.2142 13.4697H28.8673V15.1024H32.2142V13.4697Z" fill="black"/>
<path d="M38.9082 13.4697H35.5613V15.1024H38.9082V13.4697Z" fill="black"/>
<path d="M12.1327 15.1016H8.78577V16.7342H12.1327V15.1016Z" fill="black"/>
<path d="M18.8266 15.1016H15.4796V16.7342H18.8266V15.1016Z" fill="black"/>
<path d="M25.5204 15.1016H22.1735V16.7342H25.5204V15.1016Z" fill="black"/>
<path d="M32.2142 15.1016H28.8673V16.7342H32.2142V15.1016Z" fill="black"/>
<path d="M38.9082 15.1016H35.5613V16.7342H38.9082V15.1016Z" fill="black"/>
<path d="M12.1327 16.7344H8.78577V18.367H12.1327V16.7344Z" fill="black"/>
<path d="M18.8266 16.7344H15.4796V18.367H18.8266V16.7344Z" fill="black"/>
<path d="M25.5204 16.7344H22.1735V18.367H25.5204V16.7344Z" fill="black"/>
<path d="M32.2142 16.7344H28.8673V18.367H32.2142V16.7344Z" fill="black"/>
<path d="M38.9082 16.7344H35.5613V18.367H38.9082V16.7344Z" fill="black"/>
<path d="M12.1327 18.3672H8.78577V19.9998H12.1327V18.3672Z" fill="black"/>
<path d="M32.2142 18.3672H28.8673V19.9998H32.2142V18.3672Z" fill="black"/>
<path d="M38.9082 18.3672H35.5613V19.9998H38.9082V18.3672Z" fill="black"/>
<path d="M12.1326 20H3.76526V21.6327H12.1326V20Z" fill="black"/>
<path d="M38.9082 20H35.5613V21.6327H38.9082V20Z" fill="black"/>
<path d="M12.1326 21.6328H2.0918V23.2655H12.1326V21.6328Z" fill="black"/>
<path d="M38.9082 21.6328H35.5613V23.2655H38.9082V21.6328Z" fill="black"/>
<path d="M5.43874 23.2656H2.0918V24.8983H5.43874V23.2656Z" fill="black"/>
<path d="M13.8062 23.2656H8.78577V24.8983H13.8062V23.2656Z" fill="black"/>
<path d="M38.9082 23.2656H35.5613V24.8983H38.9082V23.2656Z" fill="black"/>
<path d="M5.43874 24.8984H2.0918V26.5311H5.43874V24.8984Z" fill="black"/>
<path d="M13.8062 24.8984H10.4592V26.5311H13.8062V24.8984Z" fill="black"/>
<path d="M38.9082 24.8984H35.5613V26.5311H38.9082V24.8984Z" fill="black"/>
<path d="M7.11221 26.5303H2.0918V28.1629H7.11221V26.5303Z" fill="black"/>
<path d="M38.9081 26.5303H33.8877V28.1629H38.9081V26.5303Z" fill="black"/>
<path d="M8.78567 28.1631H3.76526V29.7957H8.78567V28.1631Z" fill="black"/>
<path d="M37.2346 28.1631H33.8877V29.7957H37.2346V28.1631Z" fill="black"/>
<path d="M10.4591 29.7959H5.43872V31.4286H10.4591V29.7959Z" fill="black"/>
<path d="M37.2346 29.7959H32.2142V31.4286H37.2346V29.7959Z" fill="black"/>
<path d="M13.8062 31.4287H7.1123V33.0614H13.8062V31.4287Z" fill="black"/>
<path d="M35.5612 31.4287H30.5408V33.0614H35.5612V31.4287Z" fill="black"/>
<path d="M15.4796 33.0615H8.78577V34.6942H15.4796V33.0615Z" fill="black"/>
<path d="M33.8877 33.0615H27.1938V34.6942H33.8877V33.0615Z" fill="black"/>
<path d="M32.2143 34.6943H10.4592V36.327H32.2143V34.6943Z" fill="black"/>
<path d="M28.8674 36.3262H13.8062V37.9588H28.8674V36.3262Z" fill="black"/>
</svg>
