<svg width="41" height="41" viewBox="0 0 41 41" fill="none" xmlns="http://www.w3.org/2000/svg">
<path d="M17.1531 2.0918H10.4592V3.76527H17.1531V2.0918Z" fill="black"/>
<path d="M18.8266 3.76562H8.78577V5.43909H18.8266V3.76562Z" fill="black"/>
<path d="M12.1327 5.43848H8.78577V7.11195H12.1327V5.43848Z" fill="black"/>
<path d="M18.8266 5.43848H15.4796V7.11195H18.8266V5.43848Z" fill="black"/>
<path d="M12.1327 7.1123H8.78577V8.78577H12.1327V7.1123Z" fill="black"/>
<path d="M18.8266 7.1123H15.4796V8.78577H18.8266V7.1123Z" fill="black"/>
<path d="M12.1327 8.78613H8.78577V10.4596H12.1327V8.78613Z" fill="black"/>
<path d="M18.8266 8.78613H15.4796V10.4596H18.8266V8.78613Z" fill="black"/>
<path d="M12.1327 10.459H8.78577V12.1325H12.1327V10.459Z" fill="black"/>
<path d="M23.847 10.459H15.4796V12.1325H23.847V10.459Z" fill="black"/>
<path d="M12.1327 12.1328H8.78577V13.8063H12.1327V12.1328Z" fill="black"/>
<path d="M30.5408 12.1328H15.4796V13.8063H30.5408V12.1328Z" fill="black"/>
<path d="M12.1327 13.8057H8.78577V15.4791H12.1327V13.8057Z" fill="black"/>
<path d="M18.8266 13.8057H15.4796V15.4791H18.8266V13.8057Z" fill="black"/>
<path d="M37.2347 13.8057H22.1735V15.4791H37.2347V13.8057Z" fill="black"/>
<path d="M12.1327 15.4795H8.78577V17.153H12.1327V15.4795Z" fill="black"/>
<path d="M18.8266 15.4795H15.4796V17.153H18.8266V15.4795Z" fill="black"/>
<path d="M25.5204 15.4795H22.1735V17.153H25.5204V15.4795Z" fill="black"/>
<path d="M38.9081 15.4795H28.8673V17.153H38.9081V15.4795Z" fill="black"/>
<path d="M12.1327 17.1533H8.78577V18.8268H12.1327V17.1533Z" fill="black"/>
<path d="M18.8266 17.1533H15.4796V18.8268H18.8266V17.1533Z" fill="black"/>
<path d="M25.5204 17.1533H22.1735V18.8268H25.5204V17.1533Z" fill="black"/>
<path d="M32.2142 17.1533H28.8673V18.8268H32.2142V17.1533Z" fill="black"/>
<path d="M38.9082 17.1533H35.5613V18.8268H38.9082V17.1533Z" fill="black"/>
<path d="M12.1327 18.8262H8.78577V20.4996H12.1327V18.8262Z" fill="black"/>
<path d="M32.2142 18.8262H28.8673V20.4996H32.2142V18.8262Z" fill="black"/>
<path d="M38.9082 18.8262H35.5613V20.4996H38.9082V18.8262Z" fill="black"/>
<path d="M12.1326 20.5H3.76526V22.1735H12.1326V20.5Z" fill="black"/>
<path d="M38.9082 20.5H35.5613V22.1735H38.9082V20.5Z" fill="black"/>
<path d="M12.1326 22.1738H2.0918V23.8473H12.1326V22.1738Z" fill="black"/>
<path d="M38.9082 22.1738H35.5613V23.8473H38.9082V22.1738Z" fill="black"/>
<path d="M5.43874 23.8467H2.0918V25.5201H5.43874V23.8467Z" fill="black"/>
<path d="M13.8062 23.8467H8.78577V25.5201H13.8062V23.8467Z" fill="black"/>
<path d="M38.9082 23.8467H35.5613V25.5201H38.9082V23.8467Z" fill="black"/>
<path d="M5.43874 25.5205H2.0918V27.194H5.43874V25.5205Z" fill="black"/>
<path d="M13.8062 25.5205H10.4592V27.194H13.8062V25.5205Z" fill="black"/>
<path d="M38.9082 25.5205H35.5613V27.194H38.9082V25.5205Z" fill="black"/>
<path d="M7.11221 27.1943H2.0918V28.8678H7.11221V27.1943Z" fill="black"/>
<path d="M38.9081 27.1943H33.8877V28.8678H38.9081V27.1943Z" fill="black"/>
<path d="M8.78567 28.8672H3.76526V30.5407H8.78567V28.8672Z" fill="black"/>
<path d="M37.2346 28.8672H33.8877V30.5407H37.2346V28.8672Z" fill="black"/>
<path d="M10.4591 30.541H5.43872V32.2145H10.4591V30.541Z" fill="black"/>
<path d="M37.2346 30.541H32.2142V32.2145H37.2346V30.541Z" fill="black"/>
<path d="M13.8062 32.2139H7.1123V33.8873H13.8062V32.2139Z" fill="black"/>
<path d="M35.5612 32.2139H30.5408V33.8873H35.5612V32.2139Z" fill="black"/>
<path d="M15.4796 33.8877H8.78577V35.5612H15.4796V33.8877Z" fill="black"/>
<path d="M33.8877 33.8877H27.1938V35.5612H33.8877V33.8877Z" fill="black"/>
<path d="M32.2143 35.5615H10.4592V37.235H32.2143V35.5615Z" fill="black"/>
<path d="M28.8674 37.2344H13.8062V38.9078H28.8674V37.2344Z" fill="black"/>
</svg>
