<svg width="41" height="40" viewBox="0 0 41 40" fill="none" xmlns="http://www.w3.org/2000/svg">
<path d="M37.2347 2.04102H8.78571V3.67367H37.2347V2.04102Z" fill="black"/>
<path d="M38.9082 3.67383H7.11224V5.30648H38.9082V3.67383Z" fill="black"/>
<path d="M10.4592 5.30566H5.43878V6.93832H10.4592V5.30566Z" fill="black"/>
<path d="M30.5408 5.30566H27.1938V6.93832H30.5408V5.30566Z" fill="black"/>
<path d="M38.9082 5.30566H35.5612V6.93832H38.9082V5.30566Z" fill="black"/>
<path d="M8.78572 6.93848H5.43878V8.57113H8.78572V6.93848Z" fill="black"/>
<path d="M30.5408 6.93848H27.1938V8.57113H30.5408V6.93848Z" fill="black"/>
<path d="M38.9082 6.93848H35.5612V8.57113H38.9082V6.93848Z" fill="black"/>
<path d="M8.78572 8.57129H5.43878V10.2039H8.78572V8.57129Z" fill="black"/>
<path d="M30.5408 8.57129H27.1938V10.2039H30.5408V8.57129Z" fill="black"/>
<path d="M38.9082 8.57129H35.5612V10.2039H38.9082V8.57129Z" fill="black"/>
<path d="M8.78573 10.2041H3.76532V11.8368H8.78573V10.2041Z" fill="black"/>
<path d="M30.5408 10.2041H27.1938V11.8368H30.5408V10.2041Z" fill="black"/>
<path d="M38.9082 10.2041H35.5612V11.8368H38.9082V10.2041Z" fill="black"/>
<path d="M8.78573 11.8369H3.76532V13.4696H8.78573V11.8369Z" fill="black"/>
<path d="M30.5408 11.8369H27.1938V13.4696H30.5408V11.8369Z" fill="black"/>
<path d="M38.9082 11.8369H35.5612V13.4696H38.9082V11.8369Z" fill="black"/>
<path d="M7.11226 13.4697H3.76532V15.1024H7.11226V13.4697Z" fill="black"/>
<path d="M30.5408 13.4697H27.1938V15.1024H30.5408V13.4697Z" fill="black"/>
<path d="M38.9082 13.4697H35.5612V15.1024H38.9082V13.4697Z" fill="black"/>
<path d="M7.11226 15.1016H3.76532V16.7342H7.11226V15.1016Z" fill="black"/>
<path d="M30.5408 15.1016H27.1938V16.7342H30.5408V15.1016Z" fill="black"/>
<path d="M38.9082 15.1016H35.5612V16.7342H38.9082V15.1016Z" fill="black"/>
<path d="M7.11227 16.7344H2.09186V18.367H7.11227V16.7344Z" fill="black"/>
<path d="M30.5408 16.7344H27.1938V18.367H30.5408V16.7344Z" fill="black"/>
<path d="M38.9082 16.7344H35.5612V18.367H38.9082V16.7344Z" fill="black"/>
<path d="M5.4388 18.3672H2.09186V19.9998H5.4388V18.3672Z" fill="black"/>
<path d="M30.5408 18.3672H27.1938V19.9998H30.5408V18.3672Z" fill="black"/>
<path d="M38.9082 18.3672H35.5612V19.9998H38.9082V18.3672Z" fill="black"/>
<path d="M7.11227 20H2.09186V21.6327H7.11227V20Z" fill="black"/>
<path d="M30.5408 20H27.1938V21.6327H30.5408V20Z" fill="black"/>
<path d="M38.9082 20H35.5612V21.6327H38.9082V20Z" fill="black"/>
<path d="M18.8266 21.6328H2.09186V23.2655H18.8266V21.6328Z" fill="black"/>
<path d="M38.9081 21.6328H25.5204V23.2655H38.9081V21.6328Z" fill="black"/>
<path d="M18.8265 23.2656H3.76532V24.8983H18.8265V23.2656Z" fill="black"/>
<path d="M37.2347 23.2656H25.5204V24.8983H37.2347V23.2656Z" fill="black"/>
<path d="M18.8266 24.8984H13.8062V26.5311H18.8266V24.8984Z" fill="black"/>
<path d="M28.8673 24.8984H23.8469V26.5311H28.8673V24.8984Z" fill="black"/>
<path d="M18.8266 26.5303H13.8062V28.1629H18.8266V26.5303Z" fill="black"/>
<path d="M27.1939 26.5303H22.1735V28.1629H27.1939V26.5303Z" fill="black"/>
<path d="M17.1531 28.1631H13.8062V29.7957H17.1531V28.1631Z" fill="black"/>
<path d="M27.1939 28.1631H22.1735V29.7957H27.1939V28.1631Z" fill="black"/>
<path d="M17.1531 29.7959H13.8062V31.4286H17.1531V29.7959Z" fill="black"/>
<path d="M25.5204 29.7959H20.5V31.4286H25.5204V29.7959Z" fill="black"/>
<path d="M17.1531 31.4287H13.8062V33.0614H17.1531V31.4287Z" fill="black"/>
<path d="M25.5204 31.4287H20.5V33.0614H25.5204V31.4287Z" fill="black"/>
<path d="M23.847 33.0615H13.8062V34.6942H23.847V33.0615Z" fill="black"/>
<path d="M23.847 34.6943H15.4796V36.327H23.847V34.6943Z" fill="black"/>
<path d="M22.1735 36.3262H17.1531V37.9588H22.1735V36.3262Z" fill="black"/>
</svg>
