<svg width="41" height="40" viewBox="0 0 41 40" fill="none" xmlns="http://www.w3.org/2000/svg">
<path d="M23.8469 2.04102H18.8265V3.67367H23.8469V2.04102Z" fill="black"/>
<path d="M25.5204 3.67383H17.1531V5.30648H25.5204V3.67383Z" fill="black"/>
<path d="M27.1939 5.30566H17.1531V6.93832H27.1939V5.30566Z" fill="black"/>
<path d="M20.5 6.93848H15.4796V8.57113H20.5V6.93848Z" fill="black"/>
<path d="M27.1939 6.93848H23.8469V8.57113H27.1939V6.93848Z" fill="black"/>
<path d="M20.5 8.57129H15.4796V10.2039H20.5V8.57129Z" fill="black"/>
<path d="M27.1939 8.57129H23.8469V10.2039H27.1939V8.57129Z" fill="black"/>
<path d="M18.8266 10.2041H13.8062V11.8368H18.8266V10.2041Z" fill="black"/>
<path d="M27.1939 10.2041H23.8469V11.8368H27.1939V10.2041Z" fill="black"/>
<path d="M18.8266 11.8369H13.8062V13.4696H18.8266V11.8369Z" fill="black"/>
<path d="M27.1939 11.8369H22.1735V13.4696H27.1939V11.8369Z" fill="black"/>
<path d="M17.1531 13.4697H12.1327V15.1024H17.1531V13.4697Z" fill="black"/>
<path d="M27.1939 13.4697H22.1735V15.1024H27.1939V13.4697Z" fill="black"/>
<path d="M15.4795 15.1016H3.76526V16.7342H15.4795V15.1016Z" fill="black"/>
<path d="M37.2347 15.1016H22.1735V16.7342H37.2347V15.1016Z" fill="black"/>
<path d="M15.4796 16.7344H2.0918V18.367H15.4796V16.7344Z" fill="black"/>
<path d="M38.9082 16.7344H22.1735V18.367H38.9082V16.7344Z" fill="black"/>
<path d="M5.43874 18.3672H2.0918V19.9998H5.43874V18.3672Z" fill="black"/>
<path d="M13.8062 18.3672H10.4592V19.9998H13.8062V18.3672Z" fill="black"/>
<path d="M38.9081 18.3672H33.8877V19.9998H38.9081V18.3672Z" fill="black"/>
<path d="M5.43874 20H2.0918V21.6327H5.43874V20Z" fill="black"/>
<path d="M13.8062 20H10.4592V21.6327H13.8062V20Z" fill="black"/>
<path d="M38.9082 20H35.5613V21.6327H38.9082V20Z" fill="black"/>
<path d="M5.43874 21.6328H2.0918V23.2655H5.43874V21.6328Z" fill="black"/>
<path d="M13.8062 21.6328H10.4592V23.2655H13.8062V21.6328Z" fill="black"/>
<path d="M38.9081 21.6328H33.8877V23.2655H38.9081V21.6328Z" fill="black"/>
<path d="M5.43874 23.2656H2.0918V24.8983H5.43874V23.2656Z" fill="black"/>
<path d="M13.8062 23.2656H10.4592V24.8983H13.8062V23.2656Z" fill="black"/>
<path d="M37.2346 23.2656H33.8877V24.8983H37.2346V23.2656Z" fill="black"/>
<path d="M5.43874 24.8984H2.0918V26.5311H5.43874V24.8984Z" fill="black"/>
<path d="M13.8062 24.8984H10.4592V26.5311H13.8062V24.8984Z" fill="black"/>
<path d="M37.2346 24.8984H33.8877V26.5311H37.2346V24.8984Z" fill="black"/>
<path d="M5.43874 26.5303H2.0918V28.1629H5.43874V26.5303Z" fill="black"/>
<path d="M13.8062 26.5303H10.4592V28.1629H13.8062V26.5303Z" fill="black"/>
<path d="M37.2346 26.5303H32.2142V28.1629H37.2346V26.5303Z" fill="black"/>
<path d="M5.43874 28.1631H2.0918V29.7957H5.43874V28.1631Z" fill="black"/>
<path d="M13.8062 28.1631H10.4592V29.7957H13.8062V28.1631Z" fill="black"/>
<path d="M37.2346 28.1631H32.2142V29.7957H37.2346V28.1631Z" fill="black"/>
<path d="M5.43874 29.7959H2.0918V31.4286H5.43874V29.7959Z" fill="black"/>
<path d="M13.8062 29.7959H10.4592V31.4286H13.8062V29.7959Z" fill="black"/>
<path d="M35.5612 29.7959H32.2142V31.4286H35.5612V29.7959Z" fill="black"/>
<path d="M5.43874 31.4287H2.0918V33.0614H5.43874V31.4287Z" fill="black"/>
<path d="M13.8062 31.4287H10.4592V33.0614H13.8062V31.4287Z" fill="black"/>
<path d="M35.5612 31.4287H32.2142V33.0614H35.5612V31.4287Z" fill="black"/>
<path d="M5.43874 33.0615H2.0918V34.6942H5.43874V33.0615Z" fill="black"/>
<path d="M13.8062 33.0615H10.4592V34.6942H13.8062V33.0615Z" fill="black"/>
<path d="M35.5612 33.0615H30.5408V34.6942H35.5612V33.0615Z" fill="black"/>
<path d="M33.8877 34.6943H2.0918V36.327H33.8877V34.6943Z" fill="black"/>
<path d="M32.2142 36.3262H3.76526V37.9588H32.2142V36.3262Z" fill="black"/>
</svg>
