<svg width="24" height="24" viewBox="0 0 24 24" fill="none" xmlns="http://www.w3.org/2000/svg">
<path d="M16 2V4V2ZM8 2V4V2ZM5 4H19C20.1046 4 21 4.89543 21 6V20C21 21.1046 20.1046 22 19 22H5C3.89543 22 3 21.1046 3 20V6C3 4.89543 3.89543 4 5 4Z" fill="#DDDDDD"/>
<path d="M16 2V4M8 2V4M5 4H19C20.1046 4 21 4.89543 21 6V20C21 21.1046 20.1046 22 19 22H5C3.89543 22 3 21.1046 3 20V6C3 4.89543 3.89543 4 5 4Z" stroke="#1C1F21" stroke-width="2" stroke-linecap="round" stroke-linejoin="round"/>
<path d="M7 22V20C7 19.4696 7.21071 18.9609 7.58579 18.5858C7.96086 18.2107 8.46957 18 9 18H15C15.5304 18 16.0391 18.2107 16.4142 18.5858C16.7893 18.9609 17 19.4696 17 20V22" stroke="#1C1F21" stroke-width="2" stroke-linecap="round" stroke-linejoin="round"/>
<path d="M12 14C13.6569 14 15 12.6569 15 11C15 9.34315 13.6569 8 12 8C10.3431 8 9 9.34315 9 11C9 12.6569 10.3431 14 12 14Z" stroke="#1C1F21" stroke-width="2" stroke-linecap="round" stroke-linejoin="round"/>
</svg>
