<svg width="24" height="24" viewBox="0 0 24 24" fill="none" xmlns="http://www.w3.org/2000/svg">
<path d="M2.99206 16.3417C3.1391 16.7127 3.17183 17.1191 3.08606 17.5087L2.02106 20.7987C1.98674 20.9656 1.99561 21.1384 2.04683 21.3009C2.09805 21.4633 2.18992 21.61 2.31372 21.727C2.43753 21.844 2.58917 21.9274 2.75426 21.9694C2.91935 22.0113 3.09242 22.0104 3.25706 21.9667L6.67006 20.9687C7.03777 20.8958 7.41859 20.9277 7.76906 21.0607C9.90444 22.058 12.3234 22.2689 14.5992 21.6565C16.875 21.044 18.8613 19.6474 20.2078 17.7131C21.5542 15.7788 22.1742 13.4311 21.9584 11.0843C21.7425 8.73739 20.7048 6.54217 19.0281 4.88589C17.3515 3.22962 15.1438 2.21874 12.7944 2.03159C10.4451 1.84445 8.10519 2.49308 6.1875 3.86304C4.26981 5.23299 2.89759 7.23624 2.31295 9.51934C1.72831 11.8025 1.96883 14.2187 2.99206 16.3417Z" fill="#DDDDDD" stroke="#1C1F21" stroke-width="2" stroke-linecap="round" stroke-linejoin="round"/>
<path d="M12 8V12M12 16H12.01" stroke="#1C1F21" stroke-width="2" stroke-linecap="round" stroke-linejoin="round"/>
</svg>
