<svg width="24" height="24" viewBox="0 0 24 24" fill="none" xmlns="http://www.w3.org/2000/svg">
<path d="M10.9136 13.0848C10.7225 12.894 10.4947 12.7439 10.2441 12.6436L2.31405 9.46357C2.21937 9.42557 2.13857 9.35953 2.08251 9.27429C2.02644 9.18906 1.9978 9.08871 2.00041 8.98673C2.00302 8.88474 2.03677 8.78599 2.09712 8.70374C2.15747 8.62148 2.24155 8.55966 2.33805 8.52657L11.838 5.27657L21.338 2.02657C21.4267 1.99456 21.5225 1.98845 21.6145 2.00896C21.7064 2.02946 21.7907 2.07573 21.8573 2.14234C21.9239 2.20896 21.9702 2.29317 21.9907 2.38512C22.0112 2.47707 22.0051 2.57296 21.973 2.66157L15.473 21.6616C15.44 21.7581 15.3781 21.8421 15.2959 21.9025C15.2136 21.9628 15.1149 21.9966 15.0129 21.9992C14.9109 22.0018 14.8106 21.9732 14.7253 21.9171C14.6401 21.861 14.574 21.7802 14.536 21.6856L11.356 13.7536C11.2552 13.5031 11.1047 13.2756 10.9136 13.0848ZM10.9136 13.0848L21.8541 2.14648L10.9136 13.0848Z" fill="#DDDDDD"/>
<path d="M10.9136 13.0848C10.7225 12.894 10.4947 12.7439 10.2441 12.6436L2.31405 9.46357C2.21937 9.42557 2.13857 9.35953 2.08251 9.27429C2.02644 9.18906 1.9978 9.08871 2.00041 8.98673C2.00302 8.88474 2.03677 8.78599 2.09712 8.70374C2.15747 8.62148 2.24155 8.55966 2.33805 8.52657L11.838 5.27657L21.338 2.02657C21.4267 1.99456 21.5225 1.98845 21.6145 2.00896C21.7064 2.02946 21.7907 2.07573 21.8573 2.14234C21.9239 2.20896 21.9702 2.29317 21.9907 2.38512C22.0112 2.47707 22.0051 2.57296 21.973 2.66157L15.473 21.6616C15.44 21.7581 15.3781 21.8421 15.2959 21.9025C15.2136 21.9628 15.1149 21.9966 15.0129 21.9992C14.9109 22.0018 14.8106 21.9732 14.7253 21.9171C14.6401 21.861 14.574 21.7802 14.536 21.6856L11.356 13.7536C11.2552 13.5031 11.1047 13.2756 10.9136 13.0848ZM10.9136 13.0848L21.8541 2.14648" stroke="#1C1F21" stroke-width="2" stroke-linecap="round" stroke-linejoin="round"/>
</svg>
