<svg width="24" height="24" viewBox="0 0 24 24" fill="none" xmlns="http://www.w3.org/2000/svg">
<path d="M10.2679 21C10.4435 21.304 10.696 21.5565 11 21.732C11.304 21.9075 11.6489 21.9999 11.9999 21.9999C12.351 21.9999 12.6959 21.9075 12.9999 21.732C13.3039 21.5565 13.5564 21.304 13.7319 21M17 17.0001H3.99999C3.80619 17.0001 3.61655 16.9439 3.45413 16.8382C3.2917 16.7324 3.1635 16.5818 3.0851 16.4046C3.00671 16.2273 2.9815 16.0311 3.01255 15.8398C3.0436 15.6486 3.12957 15.4704 3.25999 15.3271C4.58999 13.9561 5.99999 12.4991 5.99999 8.00006C5.99985 7.40986 6.08678 6.82287 6.25799 6.25806M2 2L22 22M8.66797 3.00999C9.57145 2.40667 10.6218 2.05998 11.7069 2.00692C12.792 1.95385 13.8712 2.1964 14.8292 2.70869C15.7872 3.22097 16.5882 3.98376 17.1466 4.91566C17.7051 5.84755 18 6.91359 18 7.99999C18 10.687 18.77 12.653 19.707 14.05" stroke="black" stroke-width="2" stroke-linecap="round" stroke-linejoin="round"/>
</svg>
