<svg width="24" height="24" viewBox="0 0 24 24" fill="none" xmlns="http://www.w3.org/2000/svg">
<path d="M9 3.23608C8.68967 3.23608 8.3836 3.3083 8.106 3.44702L3.553 5.72402C3.38692 5.80701 3.24722 5.93459 3.14956 6.09249C3.05189 6.25039 3.0001 6.43235 3 6.61802V19.381C2.99958 19.5517 3.04284 19.7196 3.12565 19.8688C3.20846 20.018 3.32808 20.1435 3.47312 20.2334C3.61816 20.3233 3.78379 20.3746 3.95426 20.3824C4.12473 20.3902 4.29436 20.3543 4.447 20.278L8.106 18.448C8.3836 18.3093 8.68967 18.2371 9 18.2371C9.31033 18.2371 9.6164 18.3093 9.894 18.448L14.106 20.554C14.3836 20.6927 14.6897 20.7649 15 20.7649C15.3103 20.7649 15.6164 20.6927 15.894 20.554L20.447 18.277C20.6131 18.194 20.7528 18.0664 20.8505 17.9085C20.9481 17.7506 20.9999 17.5687 21 17.383V4.61902C21.0003 4.44846 20.9569 4.28067 20.874 4.1316C20.7911 3.98253 20.6715 3.85714 20.5265 3.76735C20.3814 3.67755 20.2159 3.62634 20.0455 3.61858C19.8751 3.61083 19.7056 3.64678 19.553 3.72302L15.894 5.55302C15.6164 5.69173 15.3103 5.76395 15 5.76395C14.6897 5.76395 14.3836 5.69173 14.106 5.55302L9.894 3.44702C9.6164 3.3083 9.31033 3.23608 9 3.23608ZM15 5.76395L15 20.7639M9 3.23608L9 18.2361" stroke="black" stroke-width="2" stroke-linecap="round" stroke-linejoin="round"/>
</svg>
