<svg width="41" height="40" viewBox="0 0 41 40" fill="none" xmlns="http://www.w3.org/2000/svg">
<path d="M37.2346 5.30566H3.76526V6.93832H37.2346V5.30566Z" fill="black"/>
<path d="M38.9081 6.93848H2.0918V8.57113H38.9081V6.93848Z" fill="black"/>
<path d="M5.43874 8.57129H2.0918V10.2039H5.43874V8.57129Z" fill="black"/>
<path d="M38.9082 8.57129H35.5613V10.2039H38.9082V8.57129Z" fill="black"/>
<path d="M5.43874 10.2041H2.0918V11.8368H5.43874V10.2041Z" fill="black"/>
<path d="M38.9082 10.2041H35.5613V11.8368H38.9082V10.2041Z" fill="black"/>
<path d="M8.78567 11.8369H2.0918V13.4696H8.78567V11.8369Z" fill="black"/>
<path d="M38.9081 11.8369H32.2142V13.4696H38.9081V11.8369Z" fill="black"/>
<path d="M10.4591 13.4697H2.0918V15.1024H10.4591V13.4697Z" fill="black"/>
<path d="M38.9081 13.4697H30.5408V15.1024H38.9081V13.4697Z" fill="black"/>
<path d="M5.43874 15.1016H2.0918V16.7342H5.43874V15.1016Z" fill="black"/>
<path d="M13.8062 15.1016H7.1123V16.7342H13.8062V15.1016Z" fill="black"/>
<path d="M33.8877 15.1016H27.1938V16.7342H33.8877V15.1016Z" fill="black"/>
<path d="M38.9082 15.1016H35.5613V16.7342H38.9082V15.1016Z" fill="black"/>
<path d="M5.43874 16.7344H2.0918V18.367H5.43874V16.7344Z" fill="black"/>
<path d="M17.1531 16.7344H8.78577V18.367H17.1531V16.7344Z" fill="black"/>
<path d="M32.2143 16.7344H23.8469V18.367H32.2143V16.7344Z" fill="black"/>
<path d="M38.9082 16.7344H35.5613V18.367H38.9082V16.7344Z" fill="black"/>
<path d="M5.43874 18.3672H2.0918V19.9998H5.43874V18.3672Z" fill="black"/>
<path d="M18.8266 18.3672H12.1327V19.9998H18.8266V18.3672Z" fill="black"/>
<path d="M28.8673 18.3672H22.1735V19.9998H28.8673V18.3672Z" fill="black"/>
<path d="M38.9082 18.3672H35.5613V19.9998H38.9082V18.3672Z" fill="black"/>
<path d="M5.43874 20H2.0918V21.6327H5.43874V20Z" fill="black"/>
<path d="M25.5204 20H15.4796V21.6327H25.5204V20Z" fill="black"/>
<path d="M38.9082 20H35.5613V21.6327H38.9082V20Z" fill="black"/>
<path d="M5.43874 21.6328H2.0918V23.2655H5.43874V21.6328Z" fill="black"/>
<path d="M23.847 21.6328H17.1531V23.2655H23.847V21.6328Z" fill="black"/>
<path d="M38.9082 21.6328H35.5613V23.2655H38.9082V21.6328Z" fill="black"/>
<path d="M5.43874 23.2656H2.0918V24.8983H5.43874V23.2656Z" fill="black"/>
<path d="M38.9082 23.2656H35.5613V24.8983H38.9082V23.2656Z" fill="black"/>
<path d="M5.43874 24.8984H2.0918V26.5311H5.43874V24.8984Z" fill="black"/>
<path d="M38.9082 24.8984H35.5613V26.5311H38.9082V24.8984Z" fill="black"/>
<path d="M5.43874 26.5303H2.0918V28.1629H5.43874V26.5303Z" fill="black"/>
<path d="M38.9082 26.5303H35.5613V28.1629H38.9082V26.5303Z" fill="black"/>
<path d="M5.43874 28.1631H2.0918V29.7957H5.43874V28.1631Z" fill="black"/>
<path d="M38.9082 28.1631H35.5613V29.7957H38.9082V28.1631Z" fill="black"/>
<path d="M5.43874 29.7959H2.0918V31.4286H5.43874V29.7959Z" fill="black"/>
<path d="M38.9082 29.7959H35.5613V31.4286H38.9082V29.7959Z" fill="black"/>
<path d="M38.9081 31.4287H2.0918V33.0614H38.9081V31.4287Z" fill="black"/>
<path d="M37.2346 33.0615H3.76526V34.6942H37.2346V33.0615Z" fill="black"/>
</svg>
