<svg width="40" height="40" viewBox="0 0 40 40" fill="none" xmlns="http://www.w3.org/2000/svg">
<path d="M36.3265 5.30566H3.67346V6.93832H36.3265V5.30566Z" fill="black"/>
<path d="M37.9591 6.93848H2.04077V8.57113H37.9591V6.93848Z" fill="black"/>
<path d="M5.30608 8.57129H2.04077V10.2039H5.30608V8.57129Z" fill="black"/>
<path d="M37.9592 8.57129H34.6938V10.2039H37.9592V8.57129Z" fill="black"/>
<path d="M5.30608 10.2041H2.04077V11.8368H5.30608V10.2041Z" fill="black"/>
<path d="M37.9592 10.2041H34.6938V11.8368H37.9592V10.2041Z" fill="black"/>
<path d="M8.57138 11.8369H2.04077V13.4696H8.57138V11.8369Z" fill="black"/>
<path d="M37.9592 11.8369H31.4286V13.4696H37.9592V11.8369Z" fill="black"/>
<path d="M10.204 13.4697H2.04077V15.1024H10.204V13.4697Z" fill="black"/>
<path d="M37.9592 13.4697H29.7959V15.1024H37.9592V13.4697Z" fill="black"/>
<path d="M5.30608 15.1016H2.04077V16.7342H5.30608V15.1016Z" fill="black"/>
<path d="M13.4693 15.1016H6.93872V16.7342H13.4693V15.1016Z" fill="black"/>
<path d="M33.0613 15.1016H26.5306V16.7342H33.0613V15.1016Z" fill="black"/>
<path d="M37.9592 15.1016H34.6938V16.7342H37.9592V15.1016Z" fill="black"/>
<path d="M5.30608 16.7344H2.04077V18.367H5.30608V16.7344Z" fill="black"/>
<path d="M16.7347 16.7344H8.57141V18.367H16.7347V16.7344Z" fill="black"/>
<path d="M31.4285 16.7344H23.2653V18.367H31.4285V16.7344Z" fill="black"/>
<path d="M37.9592 16.7344H34.6938V18.367H37.9592V16.7344Z" fill="black"/>
<path d="M5.30608 18.3672H2.04077V19.9998H5.30608V18.3672Z" fill="black"/>
<path d="M18.3674 18.3672H11.8368V19.9998H18.3674V18.3672Z" fill="black"/>
<path d="M28.1633 18.3672H21.6327V19.9998H28.1633V18.3672Z" fill="black"/>
<path d="M37.9592 18.3672H34.6938V19.9998H37.9592V18.3672Z" fill="black"/>
<path d="M5.30608 20H2.04077V21.6327H5.30608V20Z" fill="black"/>
<path d="M24.898 20H15.1021V21.6327H24.898V20Z" fill="black"/>
<path d="M37.9592 20H34.6938V21.6327H37.9592V20Z" fill="black"/>
<path d="M5.30608 21.6328H2.04077V23.2655H5.30608V21.6328Z" fill="black"/>
<path d="M23.2654 21.6328H16.7347V23.2655H23.2654V21.6328Z" fill="black"/>
<path d="M37.9592 21.6328H34.6938V23.2655H37.9592V21.6328Z" fill="black"/>
<path d="M5.30608 23.2656H2.04077V24.8983H5.30608V23.2656Z" fill="black"/>
<path d="M5.30608 24.8984H2.04077V26.5311H5.30608V24.8984Z" fill="black"/>
<path d="M5.30608 26.5303H2.04077V28.1629H5.30608V26.5303Z" fill="black"/>
<path d="M37.9592 26.5303H34.6938V28.1629H37.9592V26.5303Z" fill="black"/>
<path d="M5.30608 28.1631H2.04077V29.7957H5.30608V28.1631Z" fill="black"/>
<path d="M37.9592 28.1631H33.0613V29.7957H37.9592V28.1631Z" fill="black"/>
<path d="M5.30608 29.7959H2.04077V31.4286H5.30608V29.7959Z" fill="black"/>
<path d="M28.1633 29.7959H24.8979V31.4286H28.1633V29.7959Z" fill="black"/>
<path d="M36.3265 29.7959H31.4286V31.4286H36.3265V29.7959Z" fill="black"/>
<path d="M21.6326 31.4287H2.04077V33.0614H21.6326V31.4287Z" fill="black"/>
<path d="M34.6939 31.4287H24.8979V33.0614H34.6939V31.4287Z" fill="black"/>
<path d="M21.6326 33.0615H3.67346V34.6942H21.6326V33.0615Z" fill="black"/>
<path d="M33.0613 33.0615H26.5306V34.6942H33.0613V33.0615Z" fill="black"/>
<path d="M31.4285 34.6943H28.1632V36.327H31.4285V34.6943Z" fill="black"/>
</svg>
