<svg width="41" height="41" viewBox="0 0 41 41" fill="none" xmlns="http://www.w3.org/2000/svg">
<path d="M27.1939 2.0918H13.8062V3.76527H27.1939V2.0918Z" fill="black"/>
<path d="M30.5408 3.76562H10.4592V5.43909H30.5408V3.76562Z" fill="black"/>
<path d="M17.1531 5.43848H8.78571V7.11195H17.1531V5.43848Z" fill="black"/>
<path d="M32.2143 5.43848H23.8469V7.11195H32.2143V5.43848Z" fill="black"/>
<path d="M12.1327 7.1123H7.11224V8.78577H12.1327V7.1123Z" fill="black"/>
<path d="M33.8878 7.1123H28.8674V8.78577H33.8878V7.1123Z" fill="black"/>
<path d="M10.4592 8.78613H5.43878V10.4596H10.4592V8.78613Z" fill="black"/>
<path d="M35.5612 8.78613H30.5408V10.4596H35.5612V8.78613Z" fill="black"/>
<path d="M8.78573 10.459H3.76532V12.1325H8.78573V10.459Z" fill="black"/>
<path d="M37.2347 10.459H32.2143V12.1325H37.2347V10.459Z" fill="black"/>
<path d="M7.11226 12.1328H3.76532V13.8063H7.11226V12.1328Z" fill="black"/>
<path d="M22.1735 12.1328H18.8265V13.8063H22.1735V12.1328Z" fill="black"/>
<path d="M37.2347 12.1328H33.8878V13.8063H37.2347V12.1328Z" fill="black"/>
<path d="M7.11227 13.8057H2.09186V15.4791H7.11227V13.8057Z" fill="black"/>
<path d="M22.1735 13.8057H18.8265V15.4791H22.1735V13.8057Z" fill="black"/>
<path d="M38.9082 13.8057H33.8878V15.4791H38.9082V13.8057Z" fill="black"/>
<path d="M7.11227 15.4795H2.09186V17.153H7.11227V15.4795Z" fill="black"/>
<path d="M22.1735 15.4795H18.8265V17.153H22.1735V15.4795Z" fill="black"/>
<path d="M38.9082 15.4795H33.8878V17.153H38.9082V15.4795Z" fill="black"/>
<path d="M5.4388 17.1533H2.09186V18.8268H5.4388V17.1533Z" fill="black"/>
<path d="M22.1735 17.1533H18.8265V18.8268H22.1735V17.1533Z" fill="black"/>
<path d="M38.9082 17.1533H35.5612V18.8268H38.9082V17.1533Z" fill="black"/>
<path d="M5.4388 18.8262H2.09186V20.4996H5.4388V18.8262Z" fill="black"/>
<path d="M22.1735 18.8262H18.8265V20.4996H22.1735V18.8262Z" fill="black"/>
<path d="M38.9082 18.8262H35.5612V20.4996H38.9082V18.8262Z" fill="black"/>
<path d="M5.4388 20.5H2.09186V22.1735H5.4388V20.5Z" fill="black"/>
<path d="M22.1735 20.5H18.8265V22.1735H22.1735V20.5Z" fill="black"/>
<path d="M38.9082 20.5H35.5612V22.1735H38.9082V20.5Z" fill="black"/>
<path d="M5.4388 22.1738H2.09186V23.8473H5.4388V22.1738Z" fill="black"/>
<path d="M38.9082 22.1738H35.5612V23.8473H38.9082V22.1738Z" fill="black"/>
<path d="M7.11227 23.8467H2.09186V25.5201H7.11227V23.8467Z" fill="black"/>
<path d="M38.9082 23.8467H33.8878V25.5201H38.9082V23.8467Z" fill="black"/>
<path d="M7.11227 25.5205H2.09186V27.194H7.11227V25.5205Z" fill="black"/>
<path d="M22.1735 25.5205H18.8265V27.194H22.1735V25.5205Z" fill="black"/>
<path d="M38.9082 25.5205H33.8878V27.194H38.9082V25.5205Z" fill="black"/>
<path d="M7.11226 27.1943H3.76532V28.8678H7.11226V27.1943Z" fill="black"/>
<path d="M22.1735 27.1943H18.8265V28.8678H22.1735V27.1943Z" fill="black"/>
<path d="M37.2347 27.1943H33.8878V28.8678H37.2347V27.1943Z" fill="black"/>
<path d="M7.11226 28.8672H3.76532V30.5407H7.11226V28.8672Z" fill="black"/>
<path d="M37.2347 28.8672H32.2143V30.5407H37.2347V28.8672Z" fill="black"/>
<path d="M7.11226 30.541H3.76532V32.2145H7.11226V30.541Z" fill="black"/>
<path d="M35.5612 30.541H30.5408V32.2145H35.5612V30.541Z" fill="black"/>
<path d="M7.11227 32.2139H2.09186V33.8873H7.11227V32.2139Z" fill="black"/>
<path d="M33.8878 32.2139H28.8674V33.8873H33.8878V32.2139Z" fill="black"/>
<path d="M5.4388 33.8877H2.09186V35.5612H5.4388V33.8877Z" fill="black"/>
<path d="M17.1531 33.8877H7.11224V35.5612H17.1531V33.8877Z" fill="black"/>
<path d="M32.2143 33.8877H23.8469V35.5612H32.2143V33.8877Z" fill="black"/>
<path d="M30.5408 35.5615H2.09186V37.235H30.5408V35.5615Z" fill="black"/>
<path d="M10.4592 37.2344H3.76532V38.9078H10.4592V37.2344Z" fill="black"/>
<path d="M27.1939 37.2344H13.8062V38.9078H27.1939V37.2344Z" fill="black"/>
</svg>
