<svg width="41" height="41" viewBox="0 0 41 41" fill="none" xmlns="http://www.w3.org/2000/svg">
<path d="M37.2347 3.76562H3.76532V5.43909H37.2347V3.76562Z" fill="black"/>
<path d="M38.9082 5.43848H2.09186V7.11195H38.9082V5.43848Z" fill="black"/>
<path d="M5.4388 7.1123H2.09186V8.78577H5.4388V7.1123Z" fill="black"/>
<path d="M38.9082 7.1123H35.5612V8.78577H38.9082V7.1123Z" fill="black"/>
<path d="M5.4388 8.78613H2.09186V10.4596H5.4388V8.78613Z" fill="black"/>
<path d="M38.9082 8.78613H35.5612V10.4596H38.9082V8.78613Z" fill="black"/>
<path d="M5.4388 10.459H2.09186V12.1325H5.4388V10.459Z" fill="black"/>
<path d="M27.1939 10.459H10.4592V12.1325H27.1939V10.459Z" fill="black"/>
<path d="M38.9082 10.459H35.5612V12.1325H38.9082V10.459Z" fill="black"/>
<path d="M5.4388 12.1328H2.09186V13.8063H5.4388V12.1328Z" fill="black"/>
<path d="M27.1939 12.1328H10.4592V13.8063H27.1939V12.1328Z" fill="black"/>
<path d="M38.9082 12.1328H35.5612V13.8063H38.9082V12.1328Z" fill="black"/>
<path d="M5.4388 13.8057H2.09186V15.4791H5.4388V13.8057Z" fill="black"/>
<path d="M38.9082 13.8057H35.5612V15.4791H38.9082V13.8057Z" fill="black"/>
<path d="M5.4388 15.4795H2.09186V17.153H5.4388V15.4795Z" fill="black"/>
<path d="M38.9082 15.4795H35.5612V17.153H38.9082V15.4795Z" fill="black"/>
<path d="M5.4388 17.1533H2.09186V18.8268H5.4388V17.1533Z" fill="black"/>
<path d="M30.5408 17.1533H10.4592V18.8268H30.5408V17.1533Z" fill="black"/>
<path d="M38.9082 17.1533H35.5612V18.8268H38.9082V17.1533Z" fill="black"/>
<path d="M5.4388 18.8262H2.09186V20.4996H5.4388V18.8262Z" fill="black"/>
<path d="M30.5408 18.8262H10.4592V20.4996H30.5408V18.8262Z" fill="black"/>
<path d="M38.9082 18.8262H35.5612V20.4996H38.9082V18.8262Z" fill="black"/>
<path d="M5.4388 20.5H2.09186V22.1735H5.4388V20.5Z" fill="black"/>
<path d="M38.9082 20.5H35.5612V22.1735H38.9082V20.5Z" fill="black"/>
<path d="M5.4388 22.1738H2.09186V23.8473H5.4388V22.1738Z" fill="black"/>
<path d="M38.9082 22.1738H35.5612V23.8473H38.9082V22.1738Z" fill="black"/>
<path d="M5.4388 23.8467H2.09186V25.5201H5.4388V23.8467Z" fill="black"/>
<path d="M23.8469 23.8467H10.4592V25.5201H23.8469V23.8467Z" fill="black"/>
<path d="M38.9082 23.8467H35.5612V25.5201H38.9082V23.8467Z" fill="black"/>
<path d="M5.4388 25.5205H2.09186V27.194H5.4388V25.5205Z" fill="black"/>
<path d="M23.8469 25.5205H10.4592V27.194H23.8469V25.5205Z" fill="black"/>
<path d="M38.9082 25.5205H35.5612V27.194H38.9082V25.5205Z" fill="black"/>
<path d="M5.4388 27.1943H2.09186V28.8678H5.4388V27.1943Z" fill="black"/>
<path d="M38.9082 27.1943H35.5612V28.8678H38.9082V27.1943Z" fill="black"/>
<path d="M5.4388 28.8672H2.09186V30.5407H5.4388V28.8672Z" fill="black"/>
<path d="M38.9082 28.8672H35.5612V30.5407H38.9082V28.8672Z" fill="black"/>
<path d="M5.4388 30.541H2.09186V32.2145H5.4388V30.541Z" fill="black"/>
<path d="M38.9082 30.541H8.78571V32.2145H38.9082V30.541Z" fill="black"/>
<path d="M5.4388 32.2139H2.09186V33.8873H5.4388V32.2139Z" fill="black"/>
<path d="M37.2347 32.2139H7.11224V33.8873H37.2347V32.2139Z" fill="black"/>
<path d="M10.4592 33.8877H2.09186V35.5612H10.4592V33.8877Z" fill="black"/>
<path d="M8.78574 35.5615H2.09186V37.235H8.78574V35.5615Z" fill="black"/>
<path d="M7.11227 37.2344H2.09186V38.9078H7.11227V37.2344Z" fill="black"/>
</svg>
