<svg width="40" height="41" viewBox="0 0 40 41" fill="none" xmlns="http://www.w3.org/2000/svg">
<path d="M26.5306 2.0918H13.4694V3.76527H26.5306V2.0918Z" fill="black"/>
<path d="M29.7959 3.76562H10.2041V5.43909H29.7959V3.76562Z" fill="black"/>
<path d="M16.7347 5.43848H8.57141V7.11195H16.7347V5.43848Z" fill="black"/>
<path d="M31.4286 5.43848H23.2653V7.11195H31.4286V5.43848Z" fill="black"/>
<path d="M11.8367 7.1123H6.93878V8.78577H11.8367V7.1123Z" fill="black"/>
<path d="M33.0612 7.1123H28.1633V8.78577H33.0612V7.1123Z" fill="black"/>
<path d="M10.2041 8.78613H5.30615V10.4596H10.2041V8.78613Z" fill="black"/>
<path d="M34.6939 8.78613H29.7959V10.4596H34.6939V8.78613Z" fill="black"/>
<path d="M8.57142 10.459H3.67346V12.1325H8.57142V10.459Z" fill="black"/>
<path d="M36.3265 10.459H31.4286V12.1325H36.3265V10.459Z" fill="black"/>
<path d="M6.93877 12.1328H3.67346V13.8063H6.93877V12.1328Z" fill="black"/>
<path d="M36.3265 12.1328H33.0612V13.8063H36.3265V12.1328Z" fill="black"/>
<path d="M6.93879 13.8057H2.04083V15.4791H6.93879V13.8057Z" fill="black"/>
<path d="M37.9592 13.8057H33.0612V15.4791H37.9592V13.8057Z" fill="black"/>
<path d="M6.93879 15.4795H2.04083V17.153H6.93879V15.4795Z" fill="black"/>
<path d="M37.9592 15.4795H33.0612V17.153H37.9592V15.4795Z" fill="black"/>
<path d="M5.30614 17.1533H2.04083V18.8268H5.30614V17.1533Z" fill="black"/>
<path d="M37.9592 17.1533H34.6938V18.8268H37.9592V17.1533Z" fill="black"/>
<path d="M5.30614 18.8262H2.04083V20.4996H5.30614V18.8262Z" fill="black"/>
<path d="M37.9592 18.8262H34.6938V20.4996H37.9592V18.8262Z" fill="black"/>
<path d="M5.30614 20.5H2.04083V22.1735H5.30614V20.5Z" fill="black"/>
<path d="M37.9592 20.5H34.6938V22.1735H37.9592V20.5Z" fill="black"/>
<path d="M5.30614 22.1738H2.04083V23.8473H5.30614V22.1738Z" fill="black"/>
<path d="M37.9592 22.1738H34.6938V23.8473H37.9592V22.1738Z" fill="black"/>
<path d="M6.93879 23.8467H2.04083V25.5201H6.93879V23.8467Z" fill="black"/>
<path d="M37.9592 23.8467H33.0612V25.5201H37.9592V23.8467Z" fill="black"/>
<path d="M6.93879 25.5205H2.04083V27.194H6.93879V25.5205Z" fill="black"/>
<path d="M37.9592 25.5205H33.0612V27.194H37.9592V25.5205Z" fill="black"/>
<path d="M6.93877 27.1943H3.67346V28.8678H6.93877V27.1943Z" fill="black"/>
<path d="M36.3265 27.1943H33.0612V28.8678H36.3265V27.1943Z" fill="black"/>
<path d="M6.93877 28.8672H3.67346V30.5407H6.93877V28.8672Z" fill="black"/>
<path d="M36.3265 28.8672H31.4286V30.5407H36.3265V28.8672Z" fill="black"/>
<path d="M6.93877 30.541H3.67346V32.2145H6.93877V30.541Z" fill="black"/>
<path d="M34.6939 30.541H29.7959V32.2145H34.6939V30.541Z" fill="black"/>
<path d="M6.93879 32.2139H2.04083V33.8873H6.93879V32.2139Z" fill="black"/>
<path d="M33.0612 32.2139H28.1633V33.8873H33.0612V32.2139Z" fill="black"/>
<path d="M5.30614 33.8877H2.04083V35.5612H5.30614V33.8877Z" fill="black"/>
<path d="M16.7347 33.8877H6.93878V35.5612H16.7347V33.8877Z" fill="black"/>
<path d="M31.4286 33.8877H23.2653V35.5612H31.4286V33.8877Z" fill="black"/>
<path d="M29.7959 35.5615H2.04083V37.235H29.7959V35.5615Z" fill="black"/>
<path d="M10.2041 37.2344H3.67346V38.9078H10.2041V37.2344Z" fill="black"/>
<path d="M26.5306 37.2344H13.4694V38.9078H26.5306V37.2344Z" fill="black"/>
</svg>
