<svg width="40" height="41" viewBox="0 0 40 41" fill="none" xmlns="http://www.w3.org/2000/svg">
<path d="M15.102 2.0918H3.67346V3.76527H15.102V2.0918Z" fill="black"/>
<path d="M28.1633 2.0918H24.8979V3.76527H28.1633V2.0918Z" fill="black"/>
<path d="M37.9592 2.0918H34.6938V3.76527H37.9592V2.0918Z" fill="black"/>
<path d="M16.7347 3.76562H2.04083V5.43909H16.7347V3.76562Z" fill="black"/>
<path d="M28.1633 3.76562H24.8979V5.43909H28.1633V3.76562Z" fill="black"/>
<path d="M37.9592 3.76562H33.0612V5.43909H37.9592V3.76562Z" fill="black"/>
<path d="M5.30614 5.43848H2.04083V7.11195H5.30614V5.43848Z" fill="black"/>
<path d="M16.7347 5.43848H13.4694V7.11195H16.7347V5.43848Z" fill="black"/>
<path d="M28.1633 5.43848H24.8979V7.11195H28.1633V5.43848Z" fill="black"/>
<path d="M36.3265 5.43848H31.4286V7.11195H36.3265V5.43848Z" fill="black"/>
<path d="M5.30614 7.1123H2.04083V8.78577H5.30614V7.1123Z" fill="black"/>
<path d="M16.7347 7.1123H13.4694V8.78577H16.7347V7.1123Z" fill="black"/>
<path d="M28.1633 7.1123H24.8979V8.78577H28.1633V7.1123Z" fill="black"/>
<path d="M34.6939 7.1123H29.7959V8.78577H34.6939V7.1123Z" fill="black"/>
<path d="M5.30614 8.78613H2.04083V10.4596H5.30614V8.78613Z" fill="black"/>
<path d="M16.7347 8.78613H13.4694V10.4596H16.7347V8.78613Z" fill="black"/>
<path d="M33.0612 8.78613H24.8979V10.4596H33.0612V8.78613Z" fill="black"/>
<path d="M5.30614 10.459H2.04083V12.1325H5.30614V10.459Z" fill="black"/>
<path d="M16.7347 10.459H13.4694V12.1325H16.7347V10.459Z" fill="black"/>
<path d="M31.4286 10.459H24.8979V12.1325H31.4286V10.459Z" fill="black"/>
<path d="M6.93879 12.1328H2.04083V13.8063H6.93879V12.1328Z" fill="black"/>
<path d="M16.7347 12.1328H13.4694V13.8063H16.7347V12.1328Z" fill="black"/>
<path d="M37.9592 12.1328H24.8979V13.8063H37.9592V12.1328Z" fill="black"/>
<path d="M6.93879 13.8057H2.04083V15.4791H6.93879V13.8057Z" fill="black"/>
<path d="M16.7347 13.8057H11.8367V15.4791H16.7347V13.8057Z" fill="black"/>
<path d="M37.9592 13.8057H24.8979V15.4791H37.9592V13.8057Z" fill="black"/>
<path d="M6.93877 15.4795H3.67346V17.153H6.93877V15.4795Z" fill="black"/>
<path d="M15.1021 15.4795H10.2041V17.153H15.1021V15.4795Z" fill="black"/>
<path d="M6.93877 17.1533H3.67346V18.8268H6.93877V17.1533Z" fill="black"/>
<path d="M15.1021 17.1533H10.2041V18.8268H15.1021V17.1533Z" fill="black"/>
<path d="M8.57142 18.8262H3.67346V20.4996H8.57142V18.8262Z" fill="black"/>
<path d="M16.7347 18.8262H11.8367V20.4996H16.7347V18.8262Z" fill="black"/>
<path d="M8.57146 20.5H5.30615V22.1735H8.57146V20.5Z" fill="black"/>
<path d="M16.7347 20.5H13.4694V22.1735H16.7347V20.5Z" fill="black"/>
<path d="M10.2041 22.1738H5.30615V23.8473H10.2041V22.1738Z" fill="black"/>
<path d="M18.3673 22.1738H13.4694V23.8473H18.3673V22.1738Z" fill="black"/>
<path d="M11.8367 23.8467H6.93878V25.5201H11.8367V23.8467Z" fill="black"/>
<path d="M21.6327 23.8467H15.1021V25.5201H21.6327V23.8467Z" fill="black"/>
<path d="M36.3265 23.8467H24.8979V25.5201H36.3265V23.8467Z" fill="black"/>
<path d="M13.4694 25.5205H8.57141V27.194H13.4694V25.5205Z" fill="black"/>
<path d="M37.9592 25.5205H16.7347V27.194H37.9592V25.5205Z" fill="black"/>
<path d="M15.1021 27.1943H10.2041V28.8678H15.1021V27.1943Z" fill="black"/>
<path d="M26.5306 27.1943H20V28.8678H26.5306V27.1943Z" fill="black"/>
<path d="M37.9592 27.1943H34.6938V28.8678H37.9592V27.1943Z" fill="black"/>
<path d="M16.7347 28.8672H10.2041V30.5407H16.7347V28.8672Z" fill="black"/>
<path d="M24.8979 28.8672H21.6326V30.5407H24.8979V28.8672Z" fill="black"/>
<path d="M37.9592 28.8672H34.6938V30.5407H37.9592V28.8672Z" fill="black"/>
<path d="M18.3673 30.541H13.4694V32.2145H18.3673V30.541Z" fill="black"/>
<path d="M37.9592 30.541H34.6938V32.2145H37.9592V30.541Z" fill="black"/>
<path d="M21.6327 32.2139H15.1021V33.8873H21.6327V32.2139Z" fill="black"/>
<path d="M37.9592 32.2139H34.6938V33.8873H37.9592V32.2139Z" fill="black"/>
<path d="M28.1633 33.8877H16.7347V35.5612H28.1633V33.8877Z" fill="black"/>
<path d="M37.9592 33.8877H34.6938V35.5612H37.9592V33.8877Z" fill="black"/>
<path d="M37.9592 35.5615H20V37.235H37.9592V35.5615Z" fill="black"/>
<path d="M36.3265 37.2344H24.8979V38.9078H36.3265V37.2344Z" fill="black"/>
</svg>
