<svg width="41" height="41" viewBox="0 0 41 41" fill="none" xmlns="http://www.w3.org/2000/svg">
<path d="M15.4796 2.0918H3.76532V3.76527H15.4796V2.0918Z" fill="black"/>
<path d="M17.1531 3.76562H2.09186V5.43909H17.1531V3.76562Z" fill="black"/>
<path d="M5.4388 5.43848H2.09186V7.11195H5.4388V5.43848Z" fill="black"/>
<path d="M17.1531 5.43848H13.8062V7.11195H17.1531V5.43848Z" fill="black"/>
<path d="M5.4388 7.1123H2.09186V8.78577H5.4388V7.1123Z" fill="black"/>
<path d="M17.1531 7.1123H13.8062V8.78577H17.1531V7.1123Z" fill="black"/>
<path d="M5.4388 8.78613H2.09186V10.4596H5.4388V8.78613Z" fill="black"/>
<path d="M17.1531 8.78613H13.8062V10.4596H17.1531V8.78613Z" fill="black"/>
<path d="M5.4388 10.459H2.09186V12.1325H5.4388V10.459Z" fill="black"/>
<path d="M17.1531 10.459H13.8062V12.1325H17.1531V10.459Z" fill="black"/>
<path d="M7.11227 12.1328H2.09186V13.8063H7.11227V12.1328Z" fill="black"/>
<path d="M17.1531 12.1328H13.8062V13.8063H17.1531V12.1328Z" fill="black"/>
<path d="M7.11227 13.8057H2.09186V15.4791H7.11227V13.8057Z" fill="black"/>
<path d="M17.153 13.8057H12.1326V15.4791H17.153V13.8057Z" fill="black"/>
<path d="M7.11226 15.4795H3.76532V17.153H7.11226V15.4795Z" fill="black"/>
<path d="M15.4796 15.4795H10.4592V17.153H15.4796V15.4795Z" fill="black"/>
<path d="M7.11226 17.1533H3.76532V18.8268H7.11226V17.1533Z" fill="black"/>
<path d="M15.4796 17.1533H10.4592V18.8268H15.4796V17.1533Z" fill="black"/>
<path d="M8.78573 18.8262H3.76532V20.4996H8.78573V18.8262Z" fill="black"/>
<path d="M17.153 18.8262H12.1326V20.4996H17.153V18.8262Z" fill="black"/>
<path d="M8.78572 20.5H5.43878V22.1735H8.78572V20.5Z" fill="black"/>
<path d="M17.1531 20.5H13.8062V22.1735H17.1531V20.5Z" fill="black"/>
<path d="M10.4592 22.1738H5.43878V23.8473H10.4592V22.1738Z" fill="black"/>
<path d="M18.8266 22.1738H13.8062V23.8473H18.8266V22.1738Z" fill="black"/>
<path d="M12.1327 23.8467H7.11224V25.5201H12.1327V23.8467Z" fill="black"/>
<path d="M22.1735 23.8467H15.4796V25.5201H22.1735V23.8467Z" fill="black"/>
<path d="M37.2347 23.8467H25.5204V25.5201H37.2347V23.8467Z" fill="black"/>
<path d="M13.8061 25.5205H8.78571V27.194H13.8061V25.5205Z" fill="black"/>
<path d="M38.9082 25.5205H17.1531V27.194H38.9082V25.5205Z" fill="black"/>
<path d="M15.4796 27.1943H10.4592V28.8678H15.4796V27.1943Z" fill="black"/>
<path d="M27.1939 27.1943H20.5V28.8678H27.1939V27.1943Z" fill="black"/>
<path d="M38.9082 27.1943H35.5612V28.8678H38.9082V27.1943Z" fill="black"/>
<path d="M17.153 28.8672H10.4592V30.5407H17.153V28.8672Z" fill="black"/>
<path d="M25.5204 28.8672H22.1735V30.5407H25.5204V28.8672Z" fill="black"/>
<path d="M38.9082 28.8672H35.5612V30.5407H38.9082V28.8672Z" fill="black"/>
<path d="M18.8266 30.541H13.8062V32.2145H18.8266V30.541Z" fill="black"/>
<path d="M38.9082 30.541H35.5612V32.2145H38.9082V30.541Z" fill="black"/>
<path d="M22.1735 32.2139H15.4796V33.8873H22.1735V32.2139Z" fill="black"/>
<path d="M38.9082 32.2139H35.5612V33.8873H38.9082V32.2139Z" fill="black"/>
<path d="M28.8674 33.8877H17.1531V35.5612H28.8674V33.8877Z" fill="black"/>
<path d="M38.9082 33.8877H35.5612V35.5612H38.9082V33.8877Z" fill="black"/>
<path d="M38.9082 35.5615H20.5V37.235H38.9082V35.5615Z" fill="black"/>
<path d="M37.2347 37.2344H25.5204V38.9078H37.2347V37.2344Z" fill="black"/>
</svg>
