<svg width="41" height="40" viewBox="0 0 41 40" fill="none" xmlns="http://www.w3.org/2000/svg">
<path d="M38.9081 2.04102H32.2142V3.67367H38.9081V2.04102Z" fill="black"/>
<path d="M38.9081 3.67383H27.1938V5.30648H38.9081V3.67383Z" fill="black"/>
<path d="M38.9081 5.30566H23.8469V6.93832H38.9081V5.30566Z" fill="black"/>
<path d="M38.9082 6.93848H18.8265V8.57113H38.9082V6.93848Z" fill="black"/>
<path d="M25.5204 8.57129H13.8062V10.2039H25.5204V8.57129Z" fill="black"/>
<path d="M37.2347 8.57129H28.8673V10.2039H37.2347V8.57129Z" fill="black"/>
<path d="M20.5001 10.2041H8.78577V11.8368H20.5001V10.2041Z" fill="black"/>
<path d="M37.2347 10.2041H27.1938V11.8368H37.2347V10.2041Z" fill="black"/>
<path d="M15.4795 11.8369H3.76526V13.4696H15.4795V11.8369Z" fill="black"/>
<path d="M30.5408 11.8369H25.5204V13.4696H30.5408V11.8369Z" fill="black"/>
<path d="M37.2346 11.8369H32.2142V13.4696H37.2346V11.8369Z" fill="black"/>
<path d="M10.4591 13.4697H2.0918V15.1024H10.4591V13.4697Z" fill="black"/>
<path d="M28.8673 13.4697H23.8469V15.1024H28.8673V13.4697Z" fill="black"/>
<path d="M35.5612 13.4697H32.2142V15.1024H35.5612V13.4697Z" fill="black"/>
<path d="M8.78567 15.1016H2.0918V16.7342H8.78567V15.1016Z" fill="black"/>
<path d="M27.1939 15.1016H22.1735V16.7342H27.1939V15.1016Z" fill="black"/>
<path d="M35.5612 15.1016H30.5408V16.7342H35.5612V15.1016Z" fill="black"/>
<path d="M13.8061 16.7344H3.76526V18.367H13.8061V16.7344Z" fill="black"/>
<path d="M25.5204 16.7344H20.5V18.367H25.5204V16.7344Z" fill="black"/>
<path d="M33.8877 16.7344H30.5408V18.367H33.8877V16.7344Z" fill="black"/>
<path d="M23.847 18.3672H7.1123V19.9998H23.847V18.3672Z" fill="black"/>
<path d="M33.8877 18.3672H30.5408V19.9998H33.8877V18.3672Z" fill="black"/>
<path d="M22.1735 20H12.1327V21.6327H22.1735V20Z" fill="black"/>
<path d="M33.8877 20H28.8673V21.6327H33.8877V20Z" fill="black"/>
<path d="M22.1735 21.6328H15.4796V23.2655H22.1735V21.6328Z" fill="black"/>
<path d="M32.2142 21.6328H28.8673V23.2655H32.2142V21.6328Z" fill="black"/>
<path d="M22.1735 23.2656H17.1531V24.8983H22.1735V23.2656Z" fill="black"/>
<path d="M32.2142 23.2656H28.8673V24.8983H32.2142V23.2656Z" fill="black"/>
<path d="M22.1735 24.8984H18.8265V26.5311H22.1735V24.8984Z" fill="black"/>
<path d="M32.2143 24.8984H27.1938V26.5311H32.2143V24.8984Z" fill="black"/>
<path d="M23.8469 26.5303H18.8265V28.1629H23.8469V26.5303Z" fill="black"/>
<path d="M30.5408 26.5303H27.1938V28.1629H30.5408V26.5303Z" fill="black"/>
<path d="M23.8469 28.1631H20.5V29.7957H23.8469V28.1631Z" fill="black"/>
<path d="M30.5408 28.1631H27.1938V29.7957H30.5408V28.1631Z" fill="black"/>
<path d="M23.8469 29.7959H20.5V31.4286H23.8469V29.7959Z" fill="black"/>
<path d="M30.5408 29.7959H25.5204V31.4286H30.5408V29.7959Z" fill="black"/>
<path d="M28.8673 31.4287H20.5V33.0614H28.8673V31.4287Z" fill="black"/>
<path d="M28.8673 33.0615H22.1735V34.6942H28.8673V33.0615Z" fill="black"/>
<path d="M28.8673 34.6943H22.1735V36.327H28.8673V34.6943Z" fill="black"/>
<path d="M27.1939 36.3262H23.8469V37.9588H27.1939V36.3262Z" fill="black"/>
</svg>
