<svg width="41" height="41" viewBox="0 0 41 41" fill="none" xmlns="http://www.w3.org/2000/svg">
<path d="M23.8469 2.0918H20.5V3.76527H23.8469V2.0918Z" fill="black"/>
<path d="M23.8469 3.76562H18.8265V5.43909H23.8469V3.76562Z" fill="black"/>
<path d="M22.1735 5.43848H18.8265V7.11195H22.1735V5.43848Z" fill="black"/>
<path d="M32.2143 7.1123H8.78577V8.78577H32.2143V7.1123Z" fill="black"/>
<path d="M33.8878 8.78613H7.1123V10.4596H33.8878V8.78613Z" fill="black"/>
<path d="M10.4591 10.459H5.43872V12.1325H10.4591V10.459Z" fill="black"/>
<path d="M23.847 10.459H17.1531V12.1325H23.847V10.459Z" fill="black"/>
<path d="M35.5612 10.459H30.5408V12.1325H35.5612V10.459Z" fill="black"/>
<path d="M8.78567 12.1328H3.76526V13.8063H8.78567V12.1328Z" fill="black"/>
<path d="M37.2346 12.1328H32.2142V13.8063H37.2346V12.1328Z" fill="black"/>
<path d="M7.11221 13.8057H2.0918V15.4791H7.11221V13.8057Z" fill="black"/>
<path d="M38.9081 13.8057H33.8877V15.4791H38.9081V13.8057Z" fill="black"/>
<path d="M5.43874 15.4795H2.0918V17.153H5.43874V15.4795Z" fill="black"/>
<path d="M38.9082 15.4795H35.5613V17.153H38.9082V15.4795Z" fill="black"/>
<path d="M5.43874 17.1533H2.0918V18.8268H5.43874V17.1533Z" fill="black"/>
<path d="M38.9082 17.1533H35.5613V18.8268H38.9082V17.1533Z" fill="black"/>
<path d="M5.43874 18.8262H2.0918V20.4996H5.43874V18.8262Z" fill="black"/>
<path d="M38.9082 18.8262H35.5613V20.4996H38.9082V18.8262Z" fill="black"/>
<path d="M5.43874 20.5H2.0918V22.1735H5.43874V20.5Z" fill="black"/>
<path d="M38.9082 20.5H35.5613V22.1735H38.9082V20.5Z" fill="black"/>
<path d="M5.43874 22.1738H2.0918V23.8473H5.43874V22.1738Z" fill="black"/>
<path d="M38.9082 22.1738H35.5613V23.8473H38.9082V22.1738Z" fill="black"/>
<path d="M7.11221 23.8467H2.0918V25.5201H7.11221V23.8467Z" fill="black"/>
<path d="M38.9081 23.8467H33.8877V25.5201H38.9081V23.8467Z" fill="black"/>
<path d="M7.11221 25.5205H2.0918V27.194H7.11221V25.5205Z" fill="black"/>
<path d="M38.9081 25.5205H33.8877V27.194H38.9081V25.5205Z" fill="black"/>
<path d="M7.1122 27.1943H3.76526V28.8678H7.1122V27.1943Z" fill="black"/>
<path d="M37.2346 27.1943H33.8877V28.8678H37.2346V27.1943Z" fill="black"/>
<path d="M8.78567 28.8672H3.76526V30.5407H8.78567V28.8672Z" fill="black"/>
<path d="M37.2346 28.8672H32.2142V30.5407H37.2346V28.8672Z" fill="black"/>
<path d="M8.78566 30.541H5.43872V32.2145H8.78566V30.541Z" fill="black"/>
<path d="M35.5612 30.541H32.2142V32.2145H35.5612V30.541Z" fill="black"/>
<path d="M10.4591 32.2139H5.43872V33.8873H10.4591V32.2139Z" fill="black"/>
<path d="M35.5612 32.2139H30.5408V33.8873H35.5612V32.2139Z" fill="black"/>
<path d="M12.1327 33.8877H7.1123V35.5612H12.1327V33.8877Z" fill="black"/>
<path d="M25.5204 33.8877H15.4796V35.5612H25.5204V33.8877Z" fill="black"/>
<path d="M33.8877 33.8877H28.8673V35.5612H33.8877V33.8877Z" fill="black"/>
<path d="M32.2143 35.5615H8.78577V37.235H32.2143V35.5615Z" fill="black"/>
<path d="M17.1531 37.2344H10.4592V38.9078H17.1531V37.2344Z" fill="black"/>
<path d="M30.5408 37.2344H23.8469V38.9078H30.5408V37.2344Z" fill="black"/>
</svg>
