<svg width="42" height="41" viewBox="0 0 42 41" fill="none" xmlns="http://www.w3.org/2000/svg">
<path d="M27.8571 2.0918H14.1428V3.76527H27.8571V2.0918Z" fill="black"/>
<path d="M31.2858 3.76562H10.7144V5.43909H31.2858V3.76562Z" fill="black"/>
<path d="M33 5.43848H9V7.11195H33V5.43848Z" fill="black"/>
<path d="M12.4285 7.1123H7.28564V8.78577H12.4285V7.1123Z" fill="black"/>
<path d="M19.2857 7.1123H15.8572V8.78577H19.2857V7.1123Z" fill="black"/>
<path d="M26.1429 7.1123H22.7144V8.78577H26.1429V7.1123Z" fill="black"/>
<path d="M34.7144 7.1123H29.5715V8.78577H34.7144V7.1123Z" fill="black"/>
<path d="M10.7144 8.78613H5.57153V10.4596H10.7144V8.78613Z" fill="black"/>
<path d="M19.2857 8.78613H14.1428V10.4596H19.2857V8.78613Z" fill="black"/>
<path d="M27.8572 8.78613H22.7144V10.4596H27.8572V8.78613Z" fill="black"/>
<path d="M36.4285 8.78613H31.2856V10.4596H36.4285V8.78613Z" fill="black"/>
<path d="M9.00003 10.459H3.85718V12.1325H9.00003V10.459Z" fill="black"/>
<path d="M17.5714 10.459H14.1428V12.1325H17.5714V10.459Z" fill="black"/>
<path d="M27.857 10.459H24.4285V12.1325H27.857V10.459Z" fill="black"/>
<path d="M38.1429 10.459H33V12.1325H38.1429V10.459Z" fill="black"/>
<path d="M7.28575 12.1328H3.85718V13.8063H7.28575V12.1328Z" fill="black"/>
<path d="M17.5714 12.1328H14.1428V13.8063H17.5714V12.1328Z" fill="black"/>
<path d="M27.857 12.1328H24.4285V13.8063H27.857V12.1328Z" fill="black"/>
<path d="M38.1429 12.1328H34.7144V13.8063H38.1429V12.1328Z" fill="black"/>
<path d="M7.28568 13.8057H2.14282V15.4791H7.28568V13.8057Z" fill="black"/>
<path d="M17.5713 13.8057H12.4285V15.4791H17.5713V13.8057Z" fill="black"/>
<path d="M29.5713 13.8057H24.4285V15.4791H29.5713V13.8057Z" fill="black"/>
<path d="M39.8572 13.8057H34.7144V15.4791H39.8572V13.8057Z" fill="black"/>
<path d="M7.28568 15.4795H2.14282V17.153H7.28568V15.4795Z" fill="black"/>
<path d="M15.857 15.4795H12.4285V17.153H15.857V15.4795Z" fill="black"/>
<path d="M29.5714 15.4795H26.1428V17.153H29.5714V15.4795Z" fill="black"/>
<path d="M39.8572 15.4795H34.7144V17.153H39.8572V15.4795Z" fill="black"/>
<path d="M5.57139 17.1533H2.14282V18.8268H5.57139V17.1533Z" fill="black"/>
<path d="M15.857 17.1533H12.4285V18.8268H15.857V17.1533Z" fill="black"/>
<path d="M29.5714 17.1533H26.1428V18.8268H29.5714V17.1533Z" fill="black"/>
<path d="M39.857 17.1533H36.4285V18.8268H39.857V17.1533Z" fill="black"/>
<path d="M39.8571 18.8262H2.14282V20.4996H39.8571V18.8262Z" fill="black"/>
<path d="M39.8571 20.5H2.14282V22.1735H39.8571V20.5Z" fill="black"/>
<path d="M5.57139 22.1738H2.14282V23.8473H5.57139V22.1738Z" fill="black"/>
<path d="M15.857 22.1738H12.4285V23.8473H15.857V22.1738Z" fill="black"/>
<path d="M29.5714 22.1738H26.1428V23.8473H29.5714V22.1738Z" fill="black"/>
<path d="M39.857 22.1738H36.4285V23.8473H39.857V22.1738Z" fill="black"/>
<path d="M7.28568 23.8467H2.14282V25.5201H7.28568V23.8467Z" fill="black"/>
<path d="M15.857 23.8467H12.4285V25.5201H15.857V23.8467Z" fill="black"/>
<path d="M29.5714 23.8467H26.1428V25.5201H29.5714V23.8467Z" fill="black"/>
<path d="M39.8572 23.8467H34.7144V25.5201H39.8572V23.8467Z" fill="black"/>
<path d="M7.28568 25.5205H2.14282V27.194H7.28568V25.5205Z" fill="black"/>
<path d="M17.5713 25.5205H12.4285V27.194H17.5713V25.5205Z" fill="black"/>
<path d="M29.5713 25.5205H24.4285V27.194H29.5713V25.5205Z" fill="black"/>
<path d="M39.8572 25.5205H34.7144V27.194H39.8572V25.5205Z" fill="black"/>
<path d="M7.28575 27.1943H3.85718V28.8678H7.28575V27.1943Z" fill="black"/>
<path d="M17.5714 27.1943H14.1428V28.8678H17.5714V27.1943Z" fill="black"/>
<path d="M27.857 27.1943H24.4285V28.8678H27.857V27.1943Z" fill="black"/>
<path d="M38.1429 27.1943H34.7144V28.8678H38.1429V27.1943Z" fill="black"/>
<path d="M9.00003 28.8672H3.85718V30.5407H9.00003V28.8672Z" fill="black"/>
<path d="M17.5714 28.8672H14.1428V30.5407H17.5714V28.8672Z" fill="black"/>
<path d="M27.857 28.8672H24.4285V30.5407H27.857V28.8672Z" fill="black"/>
<path d="M38.1429 28.8672H33V30.5407H38.1429V28.8672Z" fill="black"/>
<path d="M10.7144 30.541H5.57153V32.2145H10.7144V30.541Z" fill="black"/>
<path d="M19.2857 30.541H14.1428V32.2145H19.2857V30.541Z" fill="black"/>
<path d="M27.8572 30.541H22.7144V32.2145H27.8572V30.541Z" fill="black"/>
<path d="M36.4285 30.541H31.2856V32.2145H36.4285V30.541Z" fill="black"/>
<path d="M12.4285 32.2139H7.28564V33.8873H12.4285V32.2139Z" fill="black"/>
<path d="M19.2857 32.2139H15.8572V33.8873H19.2857V32.2139Z" fill="black"/>
<path d="M26.1429 32.2139H22.7144V33.8873H26.1429V32.2139Z" fill="black"/>
<path d="M34.7144 32.2139H29.5715V33.8873H34.7144V32.2139Z" fill="black"/>
<path d="M33 33.8877H9V35.5612H33V33.8877Z" fill="black"/>
<path d="M31.2858 35.5615H10.7144V37.235H31.2858V35.5615Z" fill="black"/>
<path d="M27.8571 37.2344H14.1428V38.9078H27.8571V37.2344Z" fill="black"/>
</svg>
