<svg width="40" height="41" viewBox="0 0 40 41" fill="none" xmlns="http://www.w3.org/2000/svg">
<path d="M26.5306 7.1123H13.4694V8.78577H26.5306V7.1123Z" fill="black"/>
<path d="M31.4286 8.78613H8.57141V10.4596H31.4286V8.78613Z" fill="black"/>
<path d="M15.1021 10.459H5.30615V12.1325H15.1021V10.459Z" fill="black"/>
<path d="M34.6939 10.459H24.8979V12.1325H34.6939V10.459Z" fill="black"/>
<path d="M10.2041 12.1328H3.67346V13.8063H10.2041V12.1328Z" fill="black"/>
<path d="M36.3265 12.1328H29.7959V13.8063H36.3265V12.1328Z" fill="black"/>
<path d="M6.93873 13.8057H2.04077V15.4791H6.93873V13.8057Z" fill="black"/>
<path d="M37.9592 13.8057H33.0613V15.4791H37.9592V13.8057Z" fill="black"/>
<path d="M5.30608 15.4795H2.04077V17.153H5.30608V15.4795Z" fill="black"/>
<path d="M26.5306 15.4795H13.4694V17.153H26.5306V15.4795Z" fill="black"/>
<path d="M37.9592 15.4795H34.6938V17.153H37.9592V15.4795Z" fill="black"/>
<path d="M29.7959 17.1533H10.2041V18.8268H29.7959V17.1533Z" fill="black"/>
<path d="M16.7347 18.8262H8.57141V20.4996H16.7347V18.8262Z" fill="black"/>
<path d="M31.4285 18.8262H23.2653V20.4996H31.4285V18.8262Z" fill="black"/>
<path d="M11.8367 20.5H6.93872V22.1735H11.8367V20.5Z" fill="black"/>
<path d="M33.0612 20.5H28.1632V22.1735H33.0612V20.5Z" fill="black"/>
<path d="M10.204 22.1738H6.93872V23.8473H10.204V22.1738Z" fill="black"/>
<path d="M33.0612 22.1738H29.7959V23.8473H33.0612V22.1738Z" fill="black"/>
<path d="M24.898 23.8467H15.1021V25.5201H24.898V23.8467Z" fill="black"/>
<path d="M26.5306 25.5205H13.4694V27.194H26.5306V25.5205Z" fill="black"/>
<path d="M16.7348 27.1943H11.8368V28.8678H16.7348V27.1943Z" fill="black"/>
<path d="M28.1632 27.1943H23.2653V28.8678H28.1632V27.1943Z" fill="black"/>
<path d="M15.102 28.8672H13.4694V30.5407H15.102V28.8672Z" fill="black"/>
<path d="M26.5306 28.8672H24.8979V30.5407H26.5306V28.8672Z" fill="black"/>
<path d="M21.6326 32.2139H18.3673V33.8873H21.6326V32.2139Z" fill="black"/>
<path d="M21.6326 33.8877H18.3673V35.5612H21.6326V33.8877Z" fill="black"/>
</svg>
