<svg width="42" height="41" viewBox="0 0 42 41" fill="none" xmlns="http://www.w3.org/2000/svg">
<path d="M26.1429 2.0918H21V3.76527H26.1429V2.0918Z" fill="black"/>
<path d="M26.1428 3.76562H19.2856V5.43909H26.1428V3.76562Z" fill="black"/>
<path d="M26.143 5.43848H17.5715V7.11195H26.143V5.43848Z" fill="black"/>
<path d="M26.1429 7.1123H15.8572V8.78577H26.1429V7.1123Z" fill="black"/>
<path d="M19.2857 8.78613H14.1428V10.4596H19.2857V8.78613Z" fill="black"/>
<path d="M24.4286 8.78613H21V10.4596H24.4286V8.78613Z" fill="black"/>
<path d="M17.5713 10.459H12.4285V12.1325H17.5713V10.459Z" fill="black"/>
<path d="M24.4286 10.459H21V12.1325H24.4286V10.459Z" fill="black"/>
<path d="M17.5715 12.1328H10.7144V13.8063H17.5715V12.1328Z" fill="black"/>
<path d="M24.4285 12.1328H19.2856V13.8063H24.4285V12.1328Z" fill="black"/>
<path d="M15.8571 13.8057H9V15.4791H15.8571V13.8057Z" fill="black"/>
<path d="M22.7142 13.8057H19.2856V15.4791H22.7142V13.8057Z" fill="black"/>
<path d="M14.1428 15.4795H7.28564V17.153H14.1428V15.4795Z" fill="black"/>
<path d="M36.4285 15.4795H19.2856V17.153H36.4285V15.4795Z" fill="black"/>
<path d="M12.4287 17.1533H5.57153V18.8268H12.4287V17.1533Z" fill="black"/>
<path d="M38.1429 17.1533H21V18.8268H38.1429V17.1533Z" fill="black"/>
<path d="M10.7144 18.8262H5.57153V20.4996H10.7144V18.8262Z" fill="black"/>
<path d="M38.1429 18.8262H33V20.4996H38.1429V18.8262Z" fill="black"/>
<path d="M9.00003 20.5H3.85718V22.1735H9.00003V20.5Z" fill="black"/>
<path d="M36.4285 20.5H31.2856V22.1735H36.4285V20.5Z" fill="black"/>
<path d="M21 22.1738H3.85718V23.8473H21V22.1738Z" fill="black"/>
<path d="M36.4287 22.1738H29.5715V23.8473H36.4287V22.1738Z" fill="black"/>
<path d="M22.7144 23.8467H5.57153V25.5201H22.7144V23.8467Z" fill="black"/>
<path d="M34.7143 23.8467H27.8572V25.5201H34.7143V23.8467Z" fill="black"/>
<path d="M22.7142 25.5205H19.2856V27.194H22.7142V25.5205Z" fill="black"/>
<path d="M33 25.5205H26.1428V27.194H33V25.5205Z" fill="black"/>
<path d="M22.7144 27.1943H17.5715V28.8678H22.7144V27.1943Z" fill="black"/>
<path d="M31.2857 27.1943H26.1428V28.8678H31.2857V27.1943Z" fill="black"/>
<path d="M21.0001 28.8672H17.5715V30.5407H21.0001V28.8672Z" fill="black"/>
<path d="M29.5713 28.8672H24.4285V30.5407H29.5713V28.8672Z" fill="black"/>
<path d="M21.0001 30.541H17.5715V32.2145H21.0001V30.541Z" fill="black"/>
<path d="M27.8572 30.541H22.7144V32.2145H27.8572V30.541Z" fill="black"/>
<path d="M26.1429 32.2139H15.8572V33.8873H26.1429V32.2139Z" fill="black"/>
<path d="M24.4286 33.8877H15.8572V35.5612H24.4286V33.8877Z" fill="black"/>
<path d="M22.7143 35.5615H15.8572V37.235H22.7143V35.5615Z" fill="black"/>
<path d="M21 37.2344H15.8572V38.9078H21V37.2344Z" fill="black"/>
</svg>
