<svg width="24" height="24" viewBox="0 0 24 24" fill="none" xmlns="http://www.w3.org/2000/svg">
<path d="M4 3.00064C4 2.73542 4.10536 2.48107 4.29289 2.29353C4.48043 2.106 4.73478 2.00064 5 2.00064C5.24762 1.99928 5.49048 2.06867 5.7 2.20064L6.633 2.80064C6.84204 2.93422 7.08493 3.0052 7.333 3.0052C7.58107 3.0052 7.82396 2.93422 8.033 2.80064L8.967 2.20064C9.17604 2.06706 9.41893 1.99609 9.667 1.99609C9.91507 1.99609 10.158 2.06706 10.367 2.20064L11.3 2.80064C11.509 2.93422 11.7519 3.0052 12 3.0052C12.2481 3.0052 12.491 2.93422 12.7 2.80064L13.633 2.20064C13.842 2.06706 14.0849 1.99609 14.333 1.99609C14.5811 1.99609 14.824 2.06706 15.033 2.20064L15.967 2.80064C16.176 2.93422 16.4189 3.0052 16.667 3.0052C16.9151 3.0052 17.158 2.93422 17.367 2.80064L18.3 2.20064C18.5095 2.06867 18.7524 1.99928 19 2.00064C19.2652 2.00064 19.5196 2.106 19.7071 2.29353C19.8946 2.48107 20 2.73542 20 3.00064V21.0007C20 21.2659 19.8946 21.5202 19.7071 21.7078C19.5196 21.8953 19.2652 22.0007 19 22.0007C18.7524 22.002 18.5095 21.9326 18.3 21.8007L17.367 21.2007C17.158 21.0671 16.9151 20.9961 16.667 20.9961C16.4189 20.9961 16.176 21.0671 15.967 21.2007L15.033 21.8007C14.824 21.9342 14.5811 22.0052 14.333 22.0052C14.0849 22.0052 13.842 21.9342 13.633 21.8007L12.7 21.2007C12.491 21.0671 12.2481 20.9961 12 20.9961C11.7519 20.9961 11.509 21.0671 11.3 21.2007L10.367 21.8007C10.158 21.9342 9.91507 22.0052 9.667 22.0052C9.41893 22.0052 9.17604 21.9342 8.967 21.8007L8.033 21.2007C7.82396 21.0671 7.58107 20.9961 7.333 20.9961C7.08493 20.9961 6.84204 21.0671 6.633 21.2007L5.7 21.8007C5.49048 21.9326 5.24762 22.002 5 22.0007C4.73478 22.0007 4.48043 21.8953 4.29289 21.7078C4.10536 21.5202 4 21.2659 4 21.0007V3.00064Z" fill="#DDDDDD" stroke="#1C1F21" stroke-width="2" stroke-linecap="round" stroke-linejoin="round"/>
<path d="M12 16V12H10C9.46957 12 8.96086 11.7893 8.58579 11.4142C8.21071 11.0391 8 10.5304 8 10C8 9.46957 8.21071 8.96086 8.58579 8.58579C8.96086 8.21071 9.46957 8 10 8H12V12H14C14.5304 12 15.0391 12.2107 15.4142 12.5858C15.7893 12.9609 16 13.4696 16 14C16 14.5304 15.7893 15.0391 15.4142 15.4142C15.0391 15.7893 14.5304 16 14 16H12Z" fill="#DDDDDD"/>
<path d="M12 17V7M16 8H10C9.46957 8 8.96086 8.21071 8.58579 8.58579C8.21071 8.96086 8 9.46957 8 10C8 10.5304 8.21071 11.0391 8.58579 11.4142C8.96086 11.7893 9.46957 12 10 12H14C14.5304 12 15.0391 12.2107 15.4142 12.5858C15.7893 12.9609 16 13.4696 16 14C16 14.5304 15.7893 15.0391 15.4142 15.4142C15.0391 15.7893 14.5304 16 14 16H8" stroke="#1C1F21" stroke-width="2" stroke-linecap="round" stroke-linejoin="round"/>
</svg>
