<svg width="24" height="24" viewBox="0 0 24 24" fill="none" xmlns="http://www.w3.org/2000/svg">
<path d="M15 11L14 20L15 11ZM19 11L15 4L19 11ZM2 11H22H2ZM3.5 11L5.1 18.4C5.1935 18.8586 5.44485 19.2698 5.81028 19.5621C6.17572 19.8545 6.63211 20.0094 7.1 20H16.9C17.3679 20.0094 17.8243 19.8545 18.1897 19.5621C18.5552 19.2698 18.8065 18.8586 18.9 18.4L20.6 11M4.5 15.5H19.5H4.5ZM5 11L9 4L5 11ZM9 11L10 20L9 11Z" fill="#DDDDDD"/>
<path d="M15 11L14 20M19 11L15 4M2 11H22M3.5 11L5.1 18.4C5.1935 18.8586 5.44485 19.2698 5.81028 19.5621C6.17572 19.8545 6.63211 20.0094 7.1 20H16.9C17.3679 20.0094 17.8243 19.8545 18.1897 19.5621C18.5552 19.2698 18.8065 18.8586 18.9 18.4L20.6 11M4.5 15.5H19.5M5 11L9 4M9 11L10 20" stroke="#1C1F21" stroke-width="2" stroke-linecap="round" stroke-linejoin="round"/>
</svg>
