<svg width="41" height="41" viewBox="0 0 41 41" fill="none" xmlns="http://www.w3.org/2000/svg">
<path d="M35.5612 3.76562H5.43872V5.43909H35.5612V3.76562Z" fill="black"/>
<path d="M37.2348 5.43848H3.76538V7.11195H37.2348V5.43848Z" fill="black"/>
<path d="M7.11232 7.1123H3.76538V8.78577H7.11232V7.1123Z" fill="black"/>
<path d="M17.1531 7.1123H13.8062V8.78577H17.1531V7.1123Z" fill="black"/>
<path d="M27.1939 7.1123H23.8469V8.78577H27.1939V7.1123Z" fill="black"/>
<path d="M37.2346 7.1123H33.8877V8.78577H37.2346V7.1123Z" fill="black"/>
<path d="M7.11232 8.78613H3.76538V10.4596H7.11232V8.78613Z" fill="black"/>
<path d="M17.1531 8.78613H13.8062V10.4596H17.1531V8.78613Z" fill="black"/>
<path d="M27.1939 8.78613H23.8469V10.4596H27.1939V8.78613Z" fill="black"/>
<path d="M37.2346 8.78613H33.8877V10.4596H37.2346V8.78613Z" fill="black"/>
<path d="M7.11232 10.459H3.76538V12.1325H7.11232V10.459Z" fill="black"/>
<path d="M17.1531 10.459H13.8062V12.1325H17.1531V10.459Z" fill="black"/>
<path d="M27.1939 10.459H23.8469V12.1325H27.1939V10.459Z" fill="black"/>
<path d="M37.2346 10.459H33.8877V12.1325H37.2346V10.459Z" fill="black"/>
<path d="M7.11232 12.1328H3.76538V13.8063H7.11232V12.1328Z" fill="black"/>
<path d="M17.1531 12.1328H13.8062V13.8063H17.1531V12.1328Z" fill="black"/>
<path d="M27.1939 12.1328H23.8469V13.8063H27.1939V12.1328Z" fill="black"/>
<path d="M37.2346 12.1328H33.8877V13.8063H37.2346V12.1328Z" fill="black"/>
<path d="M37.2348 13.8057H3.76538V15.4791H37.2348V13.8057Z" fill="black"/>
<path d="M37.2348 15.4795H3.76538V17.153H37.2348V15.4795Z" fill="black"/>
<path d="M7.11232 17.1533H3.76538V18.8268H7.11232V17.1533Z" fill="black"/>
<path d="M17.1531 17.1533H13.8062V18.8268H17.1531V17.1533Z" fill="black"/>
<path d="M27.1939 17.1533H23.8469V18.8268H27.1939V17.1533Z" fill="black"/>
<path d="M37.2346 17.1533H33.8877V18.8268H37.2346V17.1533Z" fill="black"/>
<path d="M7.11232 18.8262H3.76538V20.4996H7.11232V18.8262Z" fill="black"/>
<path d="M17.1531 18.8262H13.8062V20.4996H17.1531V18.8262Z" fill="black"/>
<path d="M27.1939 18.8262H23.8469V20.4996H27.1939V18.8262Z" fill="black"/>
<path d="M37.2346 18.8262H33.8877V20.4996H37.2346V18.8262Z" fill="black"/>
<path d="M7.11232 20.5H3.76538V22.1735H7.11232V20.5Z" fill="black"/>
<path d="M17.1531 20.5H13.8062V22.1735H17.1531V20.5Z" fill="black"/>
<path d="M27.1939 20.5H23.8469V22.1735H27.1939V20.5Z" fill="black"/>
<path d="M37.2346 20.5H33.8877V22.1735H37.2346V20.5Z" fill="black"/>
<path d="M7.11232 22.1738H3.76538V23.8473H7.11232V22.1738Z" fill="black"/>
<path d="M17.1531 22.1738H13.8062V23.8473H17.1531V22.1738Z" fill="black"/>
<path d="M27.1939 22.1738H23.8469V23.8473H27.1939V22.1738Z" fill="black"/>
<path d="M37.2346 22.1738H33.8877V23.8473H37.2346V22.1738Z" fill="black"/>
<path d="M37.2348 23.8467H3.76538V25.5201H37.2348V23.8467Z" fill="black"/>
<path d="M37.2348 25.5205H3.76538V27.194H37.2348V25.5205Z" fill="black"/>
<path d="M7.11232 27.1943H3.76538V28.8678H7.11232V27.1943Z" fill="black"/>
<path d="M17.1531 27.1943H13.8062V28.8678H17.1531V27.1943Z" fill="black"/>
<path d="M27.1939 27.1943H23.8469V28.8678H27.1939V27.1943Z" fill="black"/>
<path d="M37.2346 27.1943H33.8877V28.8678H37.2346V27.1943Z" fill="black"/>
<path d="M7.11232 28.8672H3.76538V30.5407H7.11232V28.8672Z" fill="black"/>
<path d="M17.1531 28.8672H13.8062V30.5407H17.1531V28.8672Z" fill="black"/>
<path d="M27.1939 28.8672H23.8469V30.5407H27.1939V28.8672Z" fill="black"/>
<path d="M37.2346 28.8672H33.8877V30.5407H37.2346V28.8672Z" fill="black"/>
<path d="M7.11232 30.541H3.76538V32.2145H7.11232V30.541Z" fill="black"/>
<path d="M17.1531 30.541H13.8062V32.2145H17.1531V30.541Z" fill="black"/>
<path d="M27.1939 30.541H23.8469V32.2145H27.1939V30.541Z" fill="black"/>
<path d="M37.2346 30.541H33.8877V32.2145H37.2346V30.541Z" fill="black"/>
<path d="M7.11232 32.2139H3.76538V33.8873H7.11232V32.2139Z" fill="black"/>
<path d="M17.1531 32.2139H13.8062V33.8873H17.1531V32.2139Z" fill="black"/>
<path d="M27.1939 32.2139H23.8469V33.8873H27.1939V32.2139Z" fill="black"/>
<path d="M37.2346 32.2139H33.8877V33.8873H37.2346V32.2139Z" fill="black"/>
<path d="M37.2348 33.8877H3.76538V35.5612H37.2348V33.8877Z" fill="black"/>
<path d="M35.5612 35.5615H5.43872V37.235H35.5612V35.5615Z" fill="black"/>
</svg>
