<svg width="40" height="41" viewBox="0 0 40 41" fill="none" xmlns="http://www.w3.org/2000/svg">
<path d="M34.6939 3.76562H5.30615V5.43909H34.6939V3.76562Z" fill="black"/>
<path d="M36.3266 5.43848H3.67358V7.11195H36.3266V5.43848Z" fill="black"/>
<path d="M6.93889 7.1123H3.67358V8.78577H6.93889V7.1123Z" fill="black"/>
<path d="M21.6327 7.1123H18.3674V8.78577H21.6327V7.1123Z" fill="black"/>
<path d="M36.3266 7.1123H33.0613V8.78577H36.3266V7.1123Z" fill="black"/>
<path d="M6.93889 8.78613H3.67358V10.4596H6.93889V8.78613Z" fill="black"/>
<path d="M21.6327 8.78613H18.3674V10.4596H21.6327V8.78613Z" fill="black"/>
<path d="M36.3266 8.78613H33.0613V10.4596H36.3266V8.78613Z" fill="black"/>
<path d="M6.93889 10.459H3.67358V12.1325H6.93889V10.459Z" fill="black"/>
<path d="M21.6327 10.459H18.3674V12.1325H21.6327V10.459Z" fill="black"/>
<path d="M36.3266 10.459H33.0613V12.1325H36.3266V10.459Z" fill="black"/>
<path d="M6.93889 12.1328H3.67358V13.8063H6.93889V12.1328Z" fill="black"/>
<path d="M21.6327 12.1328H18.3674V13.8063H21.6327V12.1328Z" fill="black"/>
<path d="M36.3266 12.1328H33.0613V13.8063H36.3266V12.1328Z" fill="black"/>
<path d="M6.93889 13.8057H3.67358V15.4791H6.93889V13.8057Z" fill="black"/>
<path d="M21.6327 13.8057H18.3674V15.4791H21.6327V13.8057Z" fill="black"/>
<path d="M36.3266 13.8057H33.0613V15.4791H36.3266V13.8057Z" fill="black"/>
<path d="M6.93889 15.4795H3.67358V17.153H6.93889V15.4795Z" fill="black"/>
<path d="M21.6327 15.4795H18.3674V17.153H21.6327V15.4795Z" fill="black"/>
<path d="M36.3266 15.4795H33.0613V17.153H36.3266V15.4795Z" fill="black"/>
<path d="M6.93889 17.1533H3.67358V18.8268H6.93889V17.1533Z" fill="black"/>
<path d="M21.6327 17.1533H18.3674V18.8268H21.6327V17.1533Z" fill="black"/>
<path d="M36.3266 17.1533H33.0613V18.8268H36.3266V17.1533Z" fill="black"/>
<path d="M36.3266 18.8262H3.67358V20.4996H36.3266V18.8262Z" fill="black"/>
<path d="M36.3266 20.5H3.67358V22.1735H36.3266V20.5Z" fill="black"/>
<path d="M6.93889 22.1738H3.67358V23.8473H6.93889V22.1738Z" fill="black"/>
<path d="M21.6327 22.1738H18.3674V23.8473H21.6327V22.1738Z" fill="black"/>
<path d="M36.3266 22.1738H33.0613V23.8473H36.3266V22.1738Z" fill="black"/>
<path d="M6.93889 23.8467H3.67358V25.5201H6.93889V23.8467Z" fill="black"/>
<path d="M21.6327 23.8467H18.3674V25.5201H21.6327V23.8467Z" fill="black"/>
<path d="M36.3266 23.8467H33.0613V25.5201H36.3266V23.8467Z" fill="black"/>
<path d="M6.93889 25.5205H3.67358V27.194H6.93889V25.5205Z" fill="black"/>
<path d="M21.6327 25.5205H18.3674V27.194H21.6327V25.5205Z" fill="black"/>
<path d="M36.3266 25.5205H33.0613V27.194H36.3266V25.5205Z" fill="black"/>
<path d="M6.93889 27.1943H3.67358V28.8678H6.93889V27.1943Z" fill="black"/>
<path d="M21.6327 27.1943H18.3674V28.8678H21.6327V27.1943Z" fill="black"/>
<path d="M36.3266 27.1943H33.0613V28.8678H36.3266V27.1943Z" fill="black"/>
<path d="M6.93889 28.8672H3.67358V30.5407H6.93889V28.8672Z" fill="black"/>
<path d="M21.6327 28.8672H18.3674V30.5407H21.6327V28.8672Z" fill="black"/>
<path d="M36.3266 28.8672H33.0613V30.5407H36.3266V28.8672Z" fill="black"/>
<path d="M6.93889 30.541H3.67358V32.2145H6.93889V30.541Z" fill="black"/>
<path d="M21.6327 30.541H18.3674V32.2145H21.6327V30.541Z" fill="black"/>
<path d="M36.3266 30.541H33.0613V32.2145H36.3266V30.541Z" fill="black"/>
<path d="M6.93889 32.2139H3.67358V33.8873H6.93889V32.2139Z" fill="black"/>
<path d="M21.6327 32.2139H18.3674V33.8873H21.6327V32.2139Z" fill="black"/>
<path d="M36.3266 32.2139H33.0613V33.8873H36.3266V32.2139Z" fill="black"/>
<path d="M36.3266 33.8877H3.67358V35.5612H36.3266V33.8877Z" fill="black"/>
<path d="M34.6939 35.5615H5.30615V37.235H34.6939V35.5615Z" fill="black"/>
</svg>
