<svg width="40" height="40" viewBox="0 0 40 40" fill="none" xmlns="http://www.w3.org/2000/svg">
<path d="M16.7347 5.30566H13.4694V6.93832H16.7347V5.30566Z" fill="black"/>
<path d="M26.5306 5.30566H23.2653V6.93832H26.5306V5.30566Z" fill="black"/>
<path d="M18.3674 6.93848H11.8368V8.57113H18.3674V6.93848Z" fill="black"/>
<path d="M28.1633 6.93848H21.6327V8.57113H28.1633V6.93848Z" fill="black"/>
<path d="M18.3674 8.57129H11.8368V10.2039H18.3674V8.57129Z" fill="black"/>
<path d="M28.1633 8.57129H21.6327V10.2039H28.1633V8.57129Z" fill="black"/>
<path d="M16.7347 10.2041H13.4694V11.8368H16.7347V10.2041Z" fill="black"/>
<path d="M26.5306 10.2041H23.2653V11.8368H26.5306V10.2041Z" fill="black"/>
<path d="M16.7347 16.7344H13.4694V18.367H16.7347V16.7344Z" fill="black"/>
<path d="M26.5306 16.7344H23.2653V18.367H26.5306V16.7344Z" fill="black"/>
<path d="M18.3674 18.3672H11.8368V19.9998H18.3674V18.3672Z" fill="black"/>
<path d="M28.1633 18.3672H21.6327V19.9998H28.1633V18.3672Z" fill="black"/>
<path d="M18.3674 20H11.8368V21.6327H18.3674V20Z" fill="black"/>
<path d="M28.1633 20H21.6327V21.6327H28.1633V20Z" fill="black"/>
<path d="M16.7347 21.6328H13.4694V23.2655H16.7347V21.6328Z" fill="black"/>
<path d="M26.5306 21.6328H23.2653V23.2655H26.5306V21.6328Z" fill="black"/>
<path d="M16.7347 28.1631H13.4694V29.7957H16.7347V28.1631Z" fill="black"/>
<path d="M26.5306 28.1631H23.2653V29.7957H26.5306V28.1631Z" fill="black"/>
<path d="M18.3674 29.7959H11.8368V31.4286H18.3674V29.7959Z" fill="black"/>
<path d="M28.1633 29.7959H21.6327V31.4286H28.1633V29.7959Z" fill="black"/>
<path d="M18.3674 31.4287H11.8368V33.0614H18.3674V31.4287Z" fill="black"/>
<path d="M28.1633 31.4287H21.6327V33.0614H28.1633V31.4287Z" fill="black"/>
<path d="M16.7347 33.0615H13.4694V34.6942H16.7347V33.0615Z" fill="black"/>
<path d="M26.5306 33.0615H23.2653V34.6942H26.5306V33.0615Z" fill="black"/>
</svg>
