<svg width="40" height="41" viewBox="0 0 40 41" fill="none" xmlns="http://www.w3.org/2000/svg">
<path d="M10.204 12.1328H6.93872V13.8063H10.204V12.1328Z" fill="black"/>
<path d="M21.6327 12.1328H18.3674V13.8063H21.6327V12.1328Z" fill="black"/>
<path d="M33.0612 12.1328H29.7959V13.8063H33.0612V12.1328Z" fill="black"/>
<path d="M11.8368 13.8057H5.30615V15.4791H11.8368V13.8057Z" fill="black"/>
<path d="M23.2652 13.8057H16.7346V15.4791H23.2652V13.8057Z" fill="black"/>
<path d="M34.6939 13.8057H28.1633V15.4791H34.6939V13.8057Z" fill="black"/>
<path d="M11.8368 15.4795H5.30615V17.153H11.8368V15.4795Z" fill="black"/>
<path d="M23.2652 15.4795H16.7346V17.153H23.2652V15.4795Z" fill="black"/>
<path d="M34.6939 15.4795H28.1633V17.153H34.6939V15.4795Z" fill="black"/>
<path d="M10.204 17.1533H6.93872V18.8268H10.204V17.1533Z" fill="black"/>
<path d="M21.6327 17.1533H18.3674V18.8268H21.6327V17.1533Z" fill="black"/>
<path d="M33.0612 17.1533H29.7959V18.8268H33.0612V17.1533Z" fill="black"/>
<path d="M10.204 22.1738H6.93872V23.8473H10.204V22.1738Z" fill="black"/>
<path d="M21.6327 22.1738H18.3674V23.8473H21.6327V22.1738Z" fill="black"/>
<path d="M33.0612 22.1738H29.7959V23.8473H33.0612V22.1738Z" fill="black"/>
<path d="M11.8368 23.8467H5.30615V25.5201H11.8368V23.8467Z" fill="black"/>
<path d="M23.2652 23.8467H16.7346V25.5201H23.2652V23.8467Z" fill="black"/>
<path d="M34.6939 23.8467H28.1633V25.5201H34.6939V23.8467Z" fill="black"/>
<path d="M11.8368 25.5205H5.30615V27.194H11.8368V25.5205Z" fill="black"/>
<path d="M23.2652 25.5205H16.7346V27.194H23.2652V25.5205Z" fill="black"/>
<path d="M34.6939 25.5205H28.1633V27.194H34.6939V25.5205Z" fill="black"/>
<path d="M10.204 27.1943H6.93872V28.8678H10.204V27.1943Z" fill="black"/>
<path d="M21.6327 27.1943H18.3674V28.8678H21.6327V27.1943Z" fill="black"/>
<path d="M33.0612 27.1943H29.7959V28.8678H33.0612V27.1943Z" fill="black"/>
</svg>
