<svg width="40" height="40" viewBox="0 0 40 40" fill="none" xmlns="http://www.w3.org/2000/svg">
<path d="M10.204 3.67383H6.93872V5.30648H10.204V3.67383Z" fill="black"/>
<path d="M21.6327 3.67383H18.3674V5.30648H21.6327V3.67383Z" fill="black"/>
<path d="M33.0612 3.67383H29.7959V5.30648H33.0612V3.67383Z" fill="black"/>
<path d="M10.204 5.30566H6.93872V6.93832H10.204V5.30566Z" fill="black"/>
<path d="M21.6327 5.30566H18.3674V6.93832H21.6327V5.30566Z" fill="black"/>
<path d="M33.0612 5.30566H29.7959V6.93832H33.0612V5.30566Z" fill="black"/>
<path d="M10.204 6.93848H6.93872V8.57113H10.204V6.93848Z" fill="black"/>
<path d="M21.6327 6.93848H18.3674V8.57113H21.6327V6.93848Z" fill="black"/>
<path d="M33.0612 6.93848H29.7959V8.57113H33.0612V6.93848Z" fill="black"/>
<path d="M10.204 8.57129H6.93872V10.2039H10.204V8.57129Z" fill="black"/>
<path d="M21.6327 8.57129H18.3674V10.2039H21.6327V8.57129Z" fill="black"/>
<path d="M33.0612 8.57129H29.7959V10.2039H33.0612V8.57129Z" fill="black"/>
<path d="M10.204 10.2041H6.93872V11.8368H10.204V10.2041Z" fill="black"/>
<path d="M21.6327 10.2041H18.3674V11.8368H21.6327V10.2041Z" fill="black"/>
<path d="M33.0612 10.2041H29.7959V11.8368H33.0612V10.2041Z" fill="black"/>
<path d="M10.204 11.8369H6.93872V13.4696H10.204V11.8369Z" fill="black"/>
<path d="M21.6327 11.8369H18.3674V13.4696H21.6327V11.8369Z" fill="black"/>
<path d="M33.0612 11.8369H29.7959V13.4696H33.0612V11.8369Z" fill="black"/>
<path d="M10.204 13.4697H6.93872V15.1024H10.204V13.4697Z" fill="black"/>
<path d="M21.6327 13.4697H18.3674V15.1024H21.6327V13.4697Z" fill="black"/>
<path d="M33.0612 13.4697H29.7959V15.1024H33.0612V13.4697Z" fill="black"/>
<path d="M10.204 15.1016H6.93872V16.7342H10.204V15.1016Z" fill="black"/>
<path d="M21.6327 15.1016H18.3674V16.7342H21.6327V15.1016Z" fill="black"/>
<path d="M33.0612 15.1016H29.7959V16.7342H33.0612V15.1016Z" fill="black"/>
<path d="M10.204 16.7344H6.93872V18.367H10.204V16.7344Z" fill="black"/>
<path d="M21.6327 16.7344H18.3674V18.367H21.6327V16.7344Z" fill="black"/>
<path d="M33.0612 16.7344H29.7959V18.367H33.0612V16.7344Z" fill="black"/>
<path d="M10.204 18.3672H6.93872V19.9998H10.204V18.3672Z" fill="black"/>
<path d="M21.6327 18.3672H18.3674V19.9998H21.6327V18.3672Z" fill="black"/>
<path d="M33.0612 18.3672H29.7959V19.9998H33.0612V18.3672Z" fill="black"/>
<path d="M10.204 20H6.93872V21.6327H10.204V20Z" fill="black"/>
<path d="M33.0612 20H29.7959V21.6327H33.0612V20Z" fill="black"/>
<path d="M10.204 21.6328H6.93872V23.2655H10.204V21.6328Z" fill="black"/>
<path d="M33.0612 21.6328H29.7959V23.2655H33.0612V21.6328Z" fill="black"/>
<path d="M10.204 23.2656H6.93872V24.8983H10.204V23.2656Z" fill="black"/>
<path d="M33.0612 23.2656H29.7959V24.8983H33.0612V23.2656Z" fill="black"/>
<path d="M10.204 24.8984H6.93872V26.5311H10.204V24.8984Z" fill="black"/>
<path d="M33.0612 24.8984H29.7959V26.5311H33.0612V24.8984Z" fill="black"/>
<path d="M10.204 26.5303H6.93872V28.1629H10.204V26.5303Z" fill="black"/>
<path d="M33.0612 26.5303H29.7959V28.1629H33.0612V26.5303Z" fill="black"/>
<path d="M10.204 28.1631H6.93872V29.7957H10.204V28.1631Z" fill="black"/>
<path d="M33.0612 28.1631H29.7959V29.7957H33.0612V28.1631Z" fill="black"/>
<path d="M33.0612 29.7959H29.7959V31.4286H33.0612V29.7959Z" fill="black"/>
<path d="M33.0612 31.4287H29.7959V33.0614H33.0612V31.4287Z" fill="black"/>
<path d="M33.0612 33.0615H29.7959V34.6942H33.0612V33.0615Z" fill="black"/>
<path d="M33.0612 34.6943H29.7959V36.327H33.0612V34.6943Z" fill="black"/>
</svg>
