<svg width="40" height="40" viewBox="0 0 40 40" fill="none" xmlns="http://www.w3.org/2000/svg">
<path d="M23.2652 2.04102H16.7346V3.67367H23.2652V2.04102Z" fill="black"/>
<path d="M26.5307 3.67383H13.4695V5.30648H26.5307V3.67383Z" fill="black"/>
<path d="M18.3673 5.30566H11.8367V6.93832H18.3673V5.30566Z" fill="black"/>
<path d="M28.1632 5.30566H21.6326V6.93832H28.1632V5.30566Z" fill="black"/>
<path d="M15.1021 6.93848H8.57153V8.57113H15.1021V6.93848Z" fill="black"/>
<path d="M31.4286 6.93848H24.8979V8.57113H31.4286V6.93848Z" fill="black"/>
<path d="M13.4694 8.57129H5.30615V10.2039H13.4694V8.57129Z" fill="black"/>
<path d="M34.6938 8.57129H26.5305V10.2039H34.6938V8.57129Z" fill="black"/>
<path d="M10.2042 10.2041H3.67358V11.8368H10.2042V10.2041Z" fill="black"/>
<path d="M36.3265 10.2041H29.7959V11.8368H36.3265V10.2041Z" fill="black"/>
<path d="M6.93873 11.8369H2.04077V13.4696H6.93873V11.8369Z" fill="black"/>
<path d="M37.9592 11.8369H33.0613V13.4696H37.9592V11.8369Z" fill="black"/>
<path d="M6.93873 13.4697H2.04077V15.1024H6.93873V13.4697Z" fill="black"/>
<path d="M37.9592 13.4697H33.0613V15.1024H37.9592V13.4697Z" fill="black"/>
<path d="M10.2042 15.1016H3.67358V16.7342H10.2042V15.1016Z" fill="black"/>
<path d="M36.3265 15.1016H29.7959V16.7342H36.3265V15.1016Z" fill="black"/>
<path d="M13.4694 16.7344H5.30615V18.367H13.4694V16.7344Z" fill="black"/>
<path d="M34.6938 16.7344H26.5305V18.367H34.6938V16.7344Z" fill="black"/>
<path d="M15.1021 18.3672H8.57153V19.9998H15.1021V18.3672Z" fill="black"/>
<path d="M31.4286 18.3672H24.8979V19.9998H31.4286V18.3672Z" fill="black"/>
<path d="M18.3673 20H11.8367V21.6327H18.3673V20Z" fill="black"/>
<path d="M28.1632 20H21.6326V21.6327H28.1632V20Z" fill="black"/>
<path d="M8.57146 21.6328H5.30615V23.2655H8.57146V21.6328Z" fill="black"/>
<path d="M26.5307 21.6328H13.4695V23.2655H26.5307V21.6328Z" fill="black"/>
<path d="M34.6938 21.6328H31.4285V23.2655H34.6938V21.6328Z" fill="black"/>
<path d="M8.57154 23.2656H3.67358V24.8983H8.57154V23.2656Z" fill="black"/>
<path d="M23.2652 23.2656H16.7346V24.8983H23.2652V23.2656Z" fill="black"/>
<path d="M36.3264 23.2656H31.4285V24.8983H36.3264V23.2656Z" fill="black"/>
<path d="M6.93873 24.8984H2.04077V26.5311H6.93873V24.8984Z" fill="black"/>
<path d="M37.9592 24.8984H33.0613V26.5311H37.9592V24.8984Z" fill="black"/>
<path d="M6.93873 26.5303H2.04077V28.1629H6.93873V26.5303Z" fill="black"/>
<path d="M37.9592 26.5303H33.0613V28.1629H37.9592V26.5303Z" fill="black"/>
<path d="M10.2042 28.1631H3.67358V29.7957H10.2042V28.1631Z" fill="black"/>
<path d="M36.3265 28.1631H29.7959V29.7957H36.3265V28.1631Z" fill="black"/>
<path d="M13.4694 29.7959H5.30615V31.4286H13.4694V29.7959Z" fill="black"/>
<path d="M34.6938 29.7959H26.5305V31.4286H34.6938V29.7959Z" fill="black"/>
<path d="M15.1021 31.4287H8.57153V33.0614H15.1021V31.4287Z" fill="black"/>
<path d="M31.4286 31.4287H24.8979V33.0614H31.4286V31.4287Z" fill="black"/>
<path d="M18.3673 33.0615H11.8367V34.6942H18.3673V33.0615Z" fill="black"/>
<path d="M28.1632 33.0615H21.6326V34.6942H28.1632V33.0615Z" fill="black"/>
<path d="M26.5307 34.6943H13.4695V36.327H26.5307V34.6943Z" fill="black"/>
<path d="M23.2652 36.3262H16.7346V37.9588H23.2652V36.3262Z" fill="black"/>
</svg>
