<svg width="40" height="40" viewBox="0 0 40 40" fill="none" xmlns="http://www.w3.org/2000/svg">
<path d="M16.7347 3.67383H5.30615V5.30648H16.7347V3.67383Z" fill="black"/>
<path d="M34.6938 3.67383H23.2653V5.30648H34.6938V3.67383Z" fill="black"/>
<path d="M18.3673 5.30566H3.67346V6.93832H18.3673V5.30566Z" fill="black"/>
<path d="M36.3266 5.30566H21.6327V6.93832H36.3266V5.30566Z" fill="black"/>
<path d="M6.93877 6.93848H3.67346V8.57113H6.93877V6.93848Z" fill="black"/>
<path d="M18.3674 6.93848H15.1021V8.57113H18.3674V6.93848Z" fill="black"/>
<path d="M24.898 6.93848H21.6327V8.57113H24.898V6.93848Z" fill="black"/>
<path d="M36.3266 6.93848H33.0613V8.57113H36.3266V6.93848Z" fill="black"/>
<path d="M6.93877 8.57129H3.67346V10.2039H6.93877V8.57129Z" fill="black"/>
<path d="M18.3674 8.57129H15.1021V10.2039H18.3674V8.57129Z" fill="black"/>
<path d="M24.898 8.57129H21.6327V10.2039H24.898V8.57129Z" fill="black"/>
<path d="M36.3266 8.57129H33.0613V10.2039H36.3266V8.57129Z" fill="black"/>
<path d="M6.93877 10.2041H3.67346V11.8368H6.93877V10.2041Z" fill="black"/>
<path d="M18.3674 10.2041H15.1021V11.8368H18.3674V10.2041Z" fill="black"/>
<path d="M24.898 10.2041H21.6327V11.8368H24.898V10.2041Z" fill="black"/>
<path d="M36.3266 10.2041H33.0613V11.8368H36.3266V10.2041Z" fill="black"/>
<path d="M6.93877 11.8369H3.67346V13.4696H6.93877V11.8369Z" fill="black"/>
<path d="M18.3674 11.8369H15.1021V13.4696H18.3674V11.8369Z" fill="black"/>
<path d="M24.898 11.8369H21.6327V13.4696H24.898V11.8369Z" fill="black"/>
<path d="M36.3266 11.8369H33.0613V13.4696H36.3266V11.8369Z" fill="black"/>
<path d="M6.93877 13.4697H3.67346V15.1024H6.93877V13.4697Z" fill="black"/>
<path d="M18.3674 13.4697H15.1021V15.1024H18.3674V13.4697Z" fill="black"/>
<path d="M24.898 13.4697H21.6327V15.1024H24.898V13.4697Z" fill="black"/>
<path d="M36.3266 13.4697H33.0613V15.1024H36.3266V13.4697Z" fill="black"/>
<path d="M18.3673 15.1016H3.67346V16.7342H18.3673V15.1016Z" fill="black"/>
<path d="M36.3266 15.1016H21.6327V16.7342H36.3266V15.1016Z" fill="black"/>
<path d="M16.7347 16.7344H5.30615V18.367H16.7347V16.7344Z" fill="black"/>
<path d="M34.6938 16.7344H23.2653V18.367H34.6938V16.7344Z" fill="black"/>
<path d="M16.7347 21.6328H5.30615V23.2655H16.7347V21.6328Z" fill="black"/>
<path d="M34.6938 21.6328H23.2653V23.2655H34.6938V21.6328Z" fill="black"/>
<path d="M18.3673 23.2656H3.67346V24.8983H18.3673V23.2656Z" fill="black"/>
<path d="M36.3266 23.2656H21.6327V24.8983H36.3266V23.2656Z" fill="black"/>
<path d="M6.93877 24.8984H3.67346V26.5311H6.93877V24.8984Z" fill="black"/>
<path d="M18.3674 24.8984H15.1021V26.5311H18.3674V24.8984Z" fill="black"/>
<path d="M24.898 24.8984H21.6327V26.5311H24.898V24.8984Z" fill="black"/>
<path d="M36.3266 24.8984H33.0613V26.5311H36.3266V24.8984Z" fill="black"/>
<path d="M6.93877 26.5303H3.67346V28.1629H6.93877V26.5303Z" fill="black"/>
<path d="M18.3674 26.5303H15.1021V28.1629H18.3674V26.5303Z" fill="black"/>
<path d="M24.898 26.5303H21.6327V28.1629H24.898V26.5303Z" fill="black"/>
<path d="M36.3266 26.5303H33.0613V28.1629H36.3266V26.5303Z" fill="black"/>
<path d="M6.93877 28.1631H3.67346V29.7957H6.93877V28.1631Z" fill="black"/>
<path d="M18.3674 28.1631H15.1021V29.7957H18.3674V28.1631Z" fill="black"/>
<path d="M24.898 28.1631H21.6327V29.7957H24.898V28.1631Z" fill="black"/>
<path d="M36.3266 28.1631H33.0613V29.7957H36.3266V28.1631Z" fill="black"/>
<path d="M6.93877 29.7959H3.67346V31.4286H6.93877V29.7959Z" fill="black"/>
<path d="M18.3674 29.7959H15.1021V31.4286H18.3674V29.7959Z" fill="black"/>
<path d="M24.898 29.7959H21.6327V31.4286H24.898V29.7959Z" fill="black"/>
<path d="M36.3266 29.7959H33.0613V31.4286H36.3266V29.7959Z" fill="black"/>
<path d="M6.93877 31.4287H3.67346V33.0614H6.93877V31.4287Z" fill="black"/>
<path d="M18.3674 31.4287H15.1021V33.0614H18.3674V31.4287Z" fill="black"/>
<path d="M24.898 31.4287H21.6327V33.0614H24.898V31.4287Z" fill="black"/>
<path d="M36.3266 31.4287H33.0613V33.0614H36.3266V31.4287Z" fill="black"/>
<path d="M18.3673 33.0615H3.67346V34.6942H18.3673V33.0615Z" fill="black"/>
<path d="M36.3266 33.0615H21.6327V34.6942H36.3266V33.0615Z" fill="black"/>
<path d="M16.7347 34.6943H5.30615V36.327H16.7347V34.6943Z" fill="black"/>
<path d="M34.6938 34.6943H23.2653V36.327H34.6938V34.6943Z" fill="black"/>
</svg>
