<svg width="40" height="40" viewBox="0 0 40 40" fill="none" xmlns="http://www.w3.org/2000/svg">
<path d="M34.6939 3.67383H5.30615V5.30648H34.6939V3.67383Z" fill="black"/>
<path d="M36.3265 5.30566H3.67346V6.93832H36.3265V5.30566Z" fill="black"/>
<path d="M6.93877 6.93848H3.67346V8.57113H6.93877V6.93848Z" fill="black"/>
<path d="M16.7347 6.93848H13.4694V8.57113H16.7347V6.93848Z" fill="black"/>
<path d="M36.3265 6.93848H33.0612V8.57113H36.3265V6.93848Z" fill="black"/>
<path d="M6.93877 8.57129H3.67346V10.2039H6.93877V8.57129Z" fill="black"/>
<path d="M16.7347 8.57129H13.4694V10.2039H16.7347V8.57129Z" fill="black"/>
<path d="M36.3265 8.57129H33.0612V10.2039H36.3265V8.57129Z" fill="black"/>
<path d="M6.93877 10.2041H3.67346V11.8368H6.93877V10.2041Z" fill="black"/>
<path d="M16.7347 10.2041H13.4694V11.8368H16.7347V10.2041Z" fill="black"/>
<path d="M36.3265 10.2041H33.0612V11.8368H36.3265V10.2041Z" fill="black"/>
<path d="M6.93877 11.8369H3.67346V13.4696H6.93877V11.8369Z" fill="black"/>
<path d="M16.7347 11.8369H13.4694V13.4696H16.7347V11.8369Z" fill="black"/>
<path d="M36.3265 11.8369H33.0612V13.4696H36.3265V11.8369Z" fill="black"/>
<path d="M6.93877 13.4697H3.67346V15.1024H6.93877V13.4697Z" fill="black"/>
<path d="M16.7347 13.4697H13.4694V15.1024H16.7347V13.4697Z" fill="black"/>
<path d="M28.1633 13.4697H24.8979V15.1024H28.1633V13.4697Z" fill="black"/>
<path d="M36.3265 13.4697H33.0612V15.1024H36.3265V13.4697Z" fill="black"/>
<path d="M6.93877 15.1016H3.67346V16.7342H6.93877V15.1016Z" fill="black"/>
<path d="M16.7347 15.1016H13.4694V16.7342H16.7347V15.1016Z" fill="black"/>
<path d="M28.1633 15.1016H23.2653V16.7342H28.1633V15.1016Z" fill="black"/>
<path d="M36.3265 15.1016H33.0612V16.7342H36.3265V15.1016Z" fill="black"/>
<path d="M6.93877 16.7344H3.67346V18.367H6.93877V16.7344Z" fill="black"/>
<path d="M16.7347 16.7344H13.4694V18.367H16.7347V16.7344Z" fill="black"/>
<path d="M26.5306 16.7344H21.6326V18.367H26.5306V16.7344Z" fill="black"/>
<path d="M36.3265 16.7344H33.0612V18.367H36.3265V16.7344Z" fill="black"/>
<path d="M6.93877 18.3672H3.67346V19.9998H6.93877V18.3672Z" fill="black"/>
<path d="M16.7347 18.3672H13.4694V19.9998H16.7347V18.3672Z" fill="black"/>
<path d="M24.898 18.3672H20V19.9998H24.898V18.3672Z" fill="black"/>
<path d="M36.3265 18.3672H33.0612V19.9998H36.3265V18.3672Z" fill="black"/>
<path d="M6.93877 20H3.67346V21.6327H6.93877V20Z" fill="black"/>
<path d="M16.7347 20H13.4694V21.6327H16.7347V20Z" fill="black"/>
<path d="M24.898 20H20V21.6327H24.898V20Z" fill="black"/>
<path d="M36.3265 20H33.0612V21.6327H36.3265V20Z" fill="black"/>
<path d="M6.93877 21.6328H3.67346V23.2655H6.93877V21.6328Z" fill="black"/>
<path d="M16.7347 21.6328H13.4694V23.2655H16.7347V21.6328Z" fill="black"/>
<path d="M26.5306 21.6328H21.6326V23.2655H26.5306V21.6328Z" fill="black"/>
<path d="M36.3265 21.6328H33.0612V23.2655H36.3265V21.6328Z" fill="black"/>
<path d="M6.93877 23.2656H3.67346V24.8983H6.93877V23.2656Z" fill="black"/>
<path d="M16.7347 23.2656H13.4694V24.8983H16.7347V23.2656Z" fill="black"/>
<path d="M28.1633 23.2656H23.2653V24.8983H28.1633V23.2656Z" fill="black"/>
<path d="M36.3265 23.2656H33.0612V24.8983H36.3265V23.2656Z" fill="black"/>
<path d="M6.93877 24.8984H3.67346V26.5311H6.93877V24.8984Z" fill="black"/>
<path d="M16.7347 24.8984H13.4694V26.5311H16.7347V24.8984Z" fill="black"/>
<path d="M28.1633 24.8984H24.8979V26.5311H28.1633V24.8984Z" fill="black"/>
<path d="M36.3265 24.8984H33.0612V26.5311H36.3265V24.8984Z" fill="black"/>
<path d="M6.93877 26.5303H3.67346V28.1629H6.93877V26.5303Z" fill="black"/>
<path d="M16.7347 26.5303H13.4694V28.1629H16.7347V26.5303Z" fill="black"/>
<path d="M36.3265 26.5303H33.0612V28.1629H36.3265V26.5303Z" fill="black"/>
<path d="M6.93877 28.1631H3.67346V29.7957H6.93877V28.1631Z" fill="black"/>
<path d="M16.7347 28.1631H13.4694V29.7957H16.7347V28.1631Z" fill="black"/>
<path d="M36.3265 28.1631H33.0612V29.7957H36.3265V28.1631Z" fill="black"/>
<path d="M6.93877 29.7959H3.67346V31.4286H6.93877V29.7959Z" fill="black"/>
<path d="M16.7347 29.7959H13.4694V31.4286H16.7347V29.7959Z" fill="black"/>
<path d="M36.3265 29.7959H33.0612V31.4286H36.3265V29.7959Z" fill="black"/>
<path d="M6.93877 31.4287H3.67346V33.0614H6.93877V31.4287Z" fill="black"/>
<path d="M16.7347 31.4287H13.4694V33.0614H16.7347V31.4287Z" fill="black"/>
<path d="M36.3265 31.4287H33.0612V33.0614H36.3265V31.4287Z" fill="black"/>
<path d="M36.3265 33.0615H3.67346V34.6942H36.3265V33.0615Z" fill="black"/>
<path d="M34.6939 34.6943H5.30615V36.327H34.6939V34.6943Z" fill="black"/>
</svg>
