<svg width="41" height="40" viewBox="0 0 41 40" fill="none" xmlns="http://www.w3.org/2000/svg">
<path d="M35.5612 3.67383H5.43872V5.30648H35.5612V3.67383Z" fill="black"/>
<path d="M37.2346 5.30566H3.76526V6.93832H37.2346V5.30566Z" fill="black"/>
<path d="M7.1122 6.93848H3.76526V8.57113H7.1122V6.93848Z" fill="black"/>
<path d="M27.1939 6.93848H23.8469V8.57113H27.1939V6.93848Z" fill="black"/>
<path d="M37.2346 6.93848H33.8877V8.57113H37.2346V6.93848Z" fill="black"/>
<path d="M7.1122 8.57129H3.76526V10.2039H7.1122V8.57129Z" fill="black"/>
<path d="M27.1939 8.57129H23.8469V10.2039H27.1939V8.57129Z" fill="black"/>
<path d="M37.2346 8.57129H33.8877V10.2039H37.2346V8.57129Z" fill="black"/>
<path d="M7.1122 10.2041H3.76526V11.8368H7.1122V10.2041Z" fill="black"/>
<path d="M27.1939 10.2041H23.8469V11.8368H27.1939V10.2041Z" fill="black"/>
<path d="M37.2346 10.2041H33.8877V11.8368H37.2346V10.2041Z" fill="black"/>
<path d="M7.1122 11.8369H3.76526V13.4696H7.1122V11.8369Z" fill="black"/>
<path d="M27.1939 11.8369H23.8469V13.4696H27.1939V11.8369Z" fill="black"/>
<path d="M37.2346 11.8369H33.8877V13.4696H37.2346V11.8369Z" fill="black"/>
<path d="M7.1122 13.4697H3.76526V15.1024H7.1122V13.4697Z" fill="black"/>
<path d="M15.4796 13.4697H12.1327V15.1024H15.4796V13.4697Z" fill="black"/>
<path d="M27.1939 13.4697H23.8469V15.1024H27.1939V13.4697Z" fill="black"/>
<path d="M37.2346 13.4697H33.8877V15.1024H37.2346V13.4697Z" fill="black"/>
<path d="M7.1122 15.1016H3.76526V16.7342H7.1122V15.1016Z" fill="black"/>
<path d="M17.1531 15.1016H12.1327V16.7342H17.1531V15.1016Z" fill="black"/>
<path d="M27.1939 15.1016H23.8469V16.7342H27.1939V15.1016Z" fill="black"/>
<path d="M37.2346 15.1016H33.8877V16.7342H37.2346V15.1016Z" fill="black"/>
<path d="M7.1122 16.7344H3.76526V18.367H7.1122V16.7344Z" fill="black"/>
<path d="M18.8266 16.7344H13.8062V18.367H18.8266V16.7344Z" fill="black"/>
<path d="M27.1939 16.7344H23.8469V18.367H27.1939V16.7344Z" fill="black"/>
<path d="M37.2346 16.7344H33.8877V18.367H37.2346V16.7344Z" fill="black"/>
<path d="M7.1122 18.3672H3.76526V19.9998H7.1122V18.3672Z" fill="black"/>
<path d="M20.5 18.3672H15.4796V19.9998H20.5V18.3672Z" fill="black"/>
<path d="M27.1939 18.3672H23.8469V19.9998H27.1939V18.3672Z" fill="black"/>
<path d="M37.2346 18.3672H33.8877V19.9998H37.2346V18.3672Z" fill="black"/>
<path d="M7.1122 20H3.76526V21.6327H7.1122V20Z" fill="black"/>
<path d="M20.5 20H15.4796V21.6327H20.5V20Z" fill="black"/>
<path d="M27.1939 20H23.8469V21.6327H27.1939V20Z" fill="black"/>
<path d="M37.2346 20H33.8877V21.6327H37.2346V20Z" fill="black"/>
<path d="M7.1122 21.6328H3.76526V23.2655H7.1122V21.6328Z" fill="black"/>
<path d="M18.8266 21.6328H13.8062V23.2655H18.8266V21.6328Z" fill="black"/>
<path d="M27.1939 21.6328H23.8469V23.2655H27.1939V21.6328Z" fill="black"/>
<path d="M37.2346 21.6328H33.8877V23.2655H37.2346V21.6328Z" fill="black"/>
<path d="M7.1122 23.2656H3.76526V24.8983H7.1122V23.2656Z" fill="black"/>
<path d="M17.1531 23.2656H12.1327V24.8983H17.1531V23.2656Z" fill="black"/>
<path d="M27.1939 23.2656H23.8469V24.8983H27.1939V23.2656Z" fill="black"/>
<path d="M37.2346 23.2656H33.8877V24.8983H37.2346V23.2656Z" fill="black"/>
<path d="M7.1122 24.8984H3.76526V26.5311H7.1122V24.8984Z" fill="black"/>
<path d="M15.4796 24.8984H12.1327V26.5311H15.4796V24.8984Z" fill="black"/>
<path d="M27.1939 24.8984H23.8469V26.5311H27.1939V24.8984Z" fill="black"/>
<path d="M37.2346 24.8984H33.8877V26.5311H37.2346V24.8984Z" fill="black"/>
<path d="M7.1122 26.5303H3.76526V28.1629H7.1122V26.5303Z" fill="black"/>
<path d="M27.1939 26.5303H23.8469V28.1629H27.1939V26.5303Z" fill="black"/>
<path d="M37.2346 26.5303H33.8877V28.1629H37.2346V26.5303Z" fill="black"/>
<path d="M7.1122 28.1631H3.76526V29.7957H7.1122V28.1631Z" fill="black"/>
<path d="M27.1939 28.1631H23.8469V29.7957H27.1939V28.1631Z" fill="black"/>
<path d="M37.2346 28.1631H33.8877V29.7957H37.2346V28.1631Z" fill="black"/>
<path d="M7.1122 29.7959H3.76526V31.4286H7.1122V29.7959Z" fill="black"/>
<path d="M27.1939 29.7959H23.8469V31.4286H27.1939V29.7959Z" fill="black"/>
<path d="M37.2346 29.7959H33.8877V31.4286H37.2346V29.7959Z" fill="black"/>
<path d="M7.1122 31.4287H3.76526V33.0614H7.1122V31.4287Z" fill="black"/>
<path d="M27.1939 31.4287H23.8469V33.0614H27.1939V31.4287Z" fill="black"/>
<path d="M37.2346 31.4287H33.8877V33.0614H37.2346V31.4287Z" fill="black"/>
<path d="M37.2346 33.0615H3.76526V34.6942H37.2346V33.0615Z" fill="black"/>
<path d="M35.5612 34.6943H5.43872V36.327H35.5612V34.6943Z" fill="black"/>
</svg>
