<svg width="41" height="40" viewBox="0 0 41 40" fill="none" xmlns="http://www.w3.org/2000/svg">
<path d="M35.5612 3.67383H5.43878V5.30648H35.5612V3.67383Z" fill="black"/>
<path d="M37.2347 5.30566H3.76532V6.93832H37.2347V5.30566Z" fill="black"/>
<path d="M7.11226 6.93848H3.76532V8.57113H7.11226V6.93848Z" fill="black"/>
<path d="M17.1531 6.93848H13.8062V8.57113H17.1531V6.93848Z" fill="black"/>
<path d="M37.2347 6.93848H33.8878V8.57113H37.2347V6.93848Z" fill="black"/>
<path d="M7.11226 8.57129H3.76532V10.2039H7.11226V8.57129Z" fill="black"/>
<path d="M17.1531 8.57129H13.8062V10.2039H17.1531V8.57129Z" fill="black"/>
<path d="M37.2347 8.57129H33.8878V10.2039H37.2347V8.57129Z" fill="black"/>
<path d="M7.11226 10.2041H3.76532V11.8368H7.11226V10.2041Z" fill="black"/>
<path d="M17.1531 10.2041H13.8062V11.8368H17.1531V10.2041Z" fill="black"/>
<path d="M37.2347 10.2041H33.8878V11.8368H37.2347V10.2041Z" fill="black"/>
<path d="M7.11226 11.8369H3.76532V13.4696H7.11226V11.8369Z" fill="black"/>
<path d="M17.1531 11.8369H13.8062V13.4696H17.1531V11.8369Z" fill="black"/>
<path d="M37.2347 11.8369H33.8878V13.4696H37.2347V11.8369Z" fill="black"/>
<path d="M7.11226 13.4697H3.76532V15.1024H7.11226V13.4697Z" fill="black"/>
<path d="M17.1531 13.4697H13.8062V15.1024H17.1531V13.4697Z" fill="black"/>
<path d="M37.2347 13.4697H33.8878V15.1024H37.2347V13.4697Z" fill="black"/>
<path d="M7.11226 15.1016H3.76532V16.7342H7.11226V15.1016Z" fill="black"/>
<path d="M17.1531 15.1016H13.8062V16.7342H17.1531V15.1016Z" fill="black"/>
<path d="M37.2347 15.1016H33.8878V16.7342H37.2347V15.1016Z" fill="black"/>
<path d="M7.11226 16.7344H3.76532V18.367H7.11226V16.7344Z" fill="black"/>
<path d="M17.1531 16.7344H13.8062V18.367H17.1531V16.7344Z" fill="black"/>
<path d="M37.2347 16.7344H33.8878V18.367H37.2347V16.7344Z" fill="black"/>
<path d="M7.11226 18.3672H3.76532V19.9998H7.11226V18.3672Z" fill="black"/>
<path d="M17.1531 18.3672H13.8062V19.9998H17.1531V18.3672Z" fill="black"/>
<path d="M37.2347 18.3672H33.8878V19.9998H37.2347V18.3672Z" fill="black"/>
<path d="M7.11226 20H3.76532V21.6327H7.11226V20Z" fill="black"/>
<path d="M17.1531 20H13.8062V21.6327H17.1531V20Z" fill="black"/>
<path d="M37.2347 20H33.8878V21.6327H37.2347V20Z" fill="black"/>
<path d="M7.11226 21.6328H3.76532V23.2655H7.11226V21.6328Z" fill="black"/>
<path d="M17.1531 21.6328H13.8062V23.2655H17.1531V21.6328Z" fill="black"/>
<path d="M37.2347 21.6328H33.8878V23.2655H37.2347V21.6328Z" fill="black"/>
<path d="M7.11226 23.2656H3.76532V24.8983H7.11226V23.2656Z" fill="black"/>
<path d="M17.1531 23.2656H13.8062V24.8983H17.1531V23.2656Z" fill="black"/>
<path d="M37.2347 23.2656H33.8878V24.8983H37.2347V23.2656Z" fill="black"/>
<path d="M7.11226 24.8984H3.76532V26.5311H7.11226V24.8984Z" fill="black"/>
<path d="M17.1531 24.8984H13.8062V26.5311H17.1531V24.8984Z" fill="black"/>
<path d="M37.2347 24.8984H33.8878V26.5311H37.2347V24.8984Z" fill="black"/>
<path d="M7.11226 26.5303H3.76532V28.1629H7.11226V26.5303Z" fill="black"/>
<path d="M17.1531 26.5303H13.8062V28.1629H17.1531V26.5303Z" fill="black"/>
<path d="M37.2347 26.5303H33.8878V28.1629H37.2347V26.5303Z" fill="black"/>
<path d="M7.11226 28.1631H3.76532V29.7957H7.11226V28.1631Z" fill="black"/>
<path d="M17.1531 28.1631H13.8062V29.7957H17.1531V28.1631Z" fill="black"/>
<path d="M37.2347 28.1631H33.8878V29.7957H37.2347V28.1631Z" fill="black"/>
<path d="M7.11226 29.7959H3.76532V31.4286H7.11226V29.7959Z" fill="black"/>
<path d="M17.1531 29.7959H13.8062V31.4286H17.1531V29.7959Z" fill="black"/>
<path d="M37.2347 29.7959H33.8878V31.4286H37.2347V29.7959Z" fill="black"/>
<path d="M7.11226 31.4287H3.76532V33.0614H7.11226V31.4287Z" fill="black"/>
<path d="M17.1531 31.4287H13.8062V33.0614H17.1531V31.4287Z" fill="black"/>
<path d="M37.2347 31.4287H33.8878V33.0614H37.2347V31.4287Z" fill="black"/>
<path d="M37.2347 33.0615H3.76532V34.6942H37.2347V33.0615Z" fill="black"/>
<path d="M35.5612 34.6943H5.43878V36.327H35.5612V34.6943Z" fill="black"/>
</svg>
