<svg width="41" height="41" viewBox="0 0 41 41" fill="none" xmlns="http://www.w3.org/2000/svg">
<path d="M10.4592 3.76562H7.1123V5.43909H10.4592V3.76562Z" fill="black"/>
<path d="M33.8877 3.76562H30.5408V5.43909H33.8877V3.76562Z" fill="black"/>
<path d="M10.4591 5.43848H5.43872V7.11195H10.4591V5.43848Z" fill="black"/>
<path d="M35.5612 5.43848H30.5408V7.11195H35.5612V5.43848Z" fill="black"/>
<path d="M8.78567 7.1123H3.76526V8.78577H8.78567V7.1123Z" fill="black"/>
<path d="M25.5204 7.1123H15.4796V8.78577H25.5204V7.1123Z" fill="black"/>
<path d="M37.2346 7.1123H32.2142V8.78577H37.2346V7.1123Z" fill="black"/>
<path d="M7.11221 8.78613H2.0918V10.4596H7.11221V8.78613Z" fill="black"/>
<path d="M28.8674 8.78613H12.1327V10.4596H28.8674V8.78613Z" fill="black"/>
<path d="M38.9081 8.78613H33.8877V10.4596H38.9081V8.78613Z" fill="black"/>
<path d="M5.43874 10.459H2.0918V12.1325H5.43874V10.459Z" fill="black"/>
<path d="M17.1531 10.459H10.4592V12.1325H17.1531V10.459Z" fill="black"/>
<path d="M30.5408 10.459H23.8469V12.1325H30.5408V10.459Z" fill="black"/>
<path d="M38.9082 10.459H35.5613V12.1325H38.9082V10.459Z" fill="black"/>
<path d="M13.8062 12.1328H8.78577V13.8063H13.8062V12.1328Z" fill="black"/>
<path d="M32.2143 12.1328H27.1938V13.8063H32.2143V12.1328Z" fill="black"/>
<path d="M12.1327 13.8057H7.1123V15.4791H12.1327V13.8057Z" fill="black"/>
<path d="M22.1735 13.8057H18.8265V15.4791H22.1735V13.8057Z" fill="black"/>
<path d="M33.8877 13.8057H28.8673V15.4791H33.8877V13.8057Z" fill="black"/>
<path d="M10.4592 15.4795H7.1123V17.153H10.4592V15.4795Z" fill="black"/>
<path d="M22.1735 15.4795H18.8265V17.153H22.1735V15.4795Z" fill="black"/>
<path d="M33.8877 15.4795H30.5408V17.153H33.8877V15.4795Z" fill="black"/>
<path d="M10.4591 17.1533H5.43872V18.8268H10.4591V17.1533Z" fill="black"/>
<path d="M22.1735 17.1533H18.8265V18.8268H22.1735V17.1533Z" fill="black"/>
<path d="M35.5612 17.1533H30.5408V18.8268H35.5612V17.1533Z" fill="black"/>
<path d="M8.78566 18.8262H5.43872V20.4996H8.78566V18.8262Z" fill="black"/>
<path d="M22.1735 18.8262H18.8265V20.4996H22.1735V18.8262Z" fill="black"/>
<path d="M35.5612 18.8262H32.2142V20.4996H35.5612V18.8262Z" fill="black"/>
<path d="M8.78566 20.5H5.43872V22.1735H8.78566V20.5Z" fill="black"/>
<path d="M22.1735 20.5H18.8265V22.1735H22.1735V20.5Z" fill="black"/>
<path d="M35.5612 20.5H32.2142V22.1735H35.5612V20.5Z" fill="black"/>
<path d="M8.78566 22.1738H5.43872V23.8473H8.78566V22.1738Z" fill="black"/>
<path d="M23.8469 22.1738H18.8265V23.8473H23.8469V22.1738Z" fill="black"/>
<path d="M35.5612 22.1738H32.2142V23.8473H35.5612V22.1738Z" fill="black"/>
<path d="M8.78566 23.8467H5.43872V25.5201H8.78566V23.8467Z" fill="black"/>
<path d="M25.5204 23.8467H20.5V25.5201H25.5204V23.8467Z" fill="black"/>
<path d="M35.5612 23.8467H32.2142V25.5201H35.5612V23.8467Z" fill="black"/>
<path d="M10.4591 25.5205H5.43872V27.194H10.4591V25.5205Z" fill="black"/>
<path d="M25.5204 25.5205H22.1735V27.194H25.5204V25.5205Z" fill="black"/>
<path d="M35.5612 25.5205H30.5408V27.194H35.5612V25.5205Z" fill="black"/>
<path d="M10.4592 27.1943H7.1123V28.8678H10.4592V27.1943Z" fill="black"/>
<path d="M33.8877 27.1943H30.5408V28.8678H33.8877V27.1943Z" fill="black"/>
<path d="M12.1327 28.8672H7.1123V30.5407H12.1327V28.8672Z" fill="black"/>
<path d="M33.8877 28.8672H28.8673V30.5407H33.8877V28.8672Z" fill="black"/>
<path d="M13.8062 30.541H8.78577V32.2145H13.8062V30.541Z" fill="black"/>
<path d="M32.2143 30.541H27.1938V32.2145H32.2143V30.541Z" fill="black"/>
<path d="M17.1531 32.2139H7.1123V33.8873H17.1531V32.2139Z" fill="black"/>
<path d="M33.8877 32.2139H23.8469V33.8873H33.8877V32.2139Z" fill="black"/>
<path d="M10.4591 33.8877H5.43872V35.5612H10.4591V33.8877Z" fill="black"/>
<path d="M28.8674 33.8877H12.1327V35.5612H28.8674V33.8877Z" fill="black"/>
<path d="M35.5612 33.8877H30.5408V35.5612H35.5612V33.8877Z" fill="black"/>
<path d="M8.78566 35.5615H5.43872V37.235H8.78566V35.5615Z" fill="black"/>
<path d="M25.5204 35.5615H15.4796V37.235H25.5204V35.5615Z" fill="black"/>
<path d="M35.5612 35.5615H32.2142V37.235H35.5612V35.5615Z" fill="black"/>
</svg>
