<svg width="40" height="41" viewBox="0 0 40 41" fill="none" xmlns="http://www.w3.org/2000/svg">
<path d="M15.1021 2.0918H11.8368V3.76527H15.1021V2.0918Z" fill="black"/>
<path d="M28.1633 2.0918H24.8979V3.76527H28.1633V2.0918Z" fill="black"/>
<path d="M15.1021 3.76562H11.8368V5.43909H15.1021V3.76562Z" fill="black"/>
<path d="M28.1633 3.76562H24.8979V5.43909H28.1633V3.76562Z" fill="black"/>
<path d="M34.6939 5.43848H5.30615V7.11195H34.6939V5.43848Z" fill="black"/>
<path d="M36.3265 7.1123H3.67346V8.78577H36.3265V7.1123Z" fill="black"/>
<path d="M6.93877 8.78613H3.67346V10.4596H6.93877V8.78613Z" fill="black"/>
<path d="M15.1021 8.78613H11.8368V10.4596H15.1021V8.78613Z" fill="black"/>
<path d="M28.1633 8.78613H24.8979V10.4596H28.1633V8.78613Z" fill="black"/>
<path d="M36.3266 8.78613H33.0613V10.4596H36.3266V8.78613Z" fill="black"/>
<path d="M6.93877 10.459H3.67346V12.1325H6.93877V10.459Z" fill="black"/>
<path d="M15.1021 10.459H11.8368V12.1325H15.1021V10.459Z" fill="black"/>
<path d="M28.1633 10.459H24.8979V12.1325H28.1633V10.459Z" fill="black"/>
<path d="M36.3266 10.459H33.0613V12.1325H36.3266V10.459Z" fill="black"/>
<path d="M6.93877 12.1328H3.67346V13.8063H6.93877V12.1328Z" fill="black"/>
<path d="M36.3266 12.1328H33.0613V13.8063H36.3266V12.1328Z" fill="black"/>
<path d="M6.93877 13.8057H3.67346V15.4791H6.93877V13.8057Z" fill="black"/>
<path d="M36.3266 13.8057H33.0613V15.4791H36.3266V13.8057Z" fill="black"/>
<path d="M36.3265 15.4795H3.67346V17.153H36.3265V15.4795Z" fill="black"/>
<path d="M36.3265 17.1533H3.67346V18.8268H36.3265V17.1533Z" fill="black"/>
<path d="M6.93877 18.8262H3.67346V20.4996H6.93877V18.8262Z" fill="black"/>
<path d="M36.3266 18.8262H33.0613V20.4996H36.3266V18.8262Z" fill="black"/>
<path d="M6.93877 20.5H3.67346V22.1735H6.93877V20.5Z" fill="black"/>
<path d="M36.3266 20.5H33.0613V22.1735H36.3266V20.5Z" fill="black"/>
<path d="M6.93877 22.1738H3.67346V23.8473H6.93877V22.1738Z" fill="black"/>
<path d="M36.3266 22.1738H33.0613V23.8473H36.3266V22.1738Z" fill="black"/>
<path d="M6.93877 23.8467H3.67346V25.5201H6.93877V23.8467Z" fill="black"/>
<path d="M36.3266 23.8467H33.0613V25.5201H36.3266V23.8467Z" fill="black"/>
<path d="M6.93877 25.5205H3.67346V27.194H6.93877V25.5205Z" fill="black"/>
<path d="M36.3266 25.5205H33.0613V27.194H36.3266V25.5205Z" fill="black"/>
<path d="M6.93877 27.1943H3.67346V28.8678H6.93877V27.1943Z" fill="black"/>
<path d="M36.3266 27.1943H33.0613V28.8678H36.3266V27.1943Z" fill="black"/>
<path d="M6.93877 28.8672H3.67346V30.5407H6.93877V28.8672Z" fill="black"/>
<path d="M36.3266 28.8672H33.0613V30.5407H36.3266V28.8672Z" fill="black"/>
<path d="M6.93877 30.541H3.67346V32.2145H6.93877V30.541Z" fill="black"/>
<path d="M36.3266 30.541H33.0613V32.2145H36.3266V30.541Z" fill="black"/>
<path d="M6.93877 32.2139H3.67346V33.8873H6.93877V32.2139Z" fill="black"/>
<path d="M36.3266 32.2139H33.0613V33.8873H36.3266V32.2139Z" fill="black"/>
<path d="M6.93877 33.8877H3.67346V35.5612H6.93877V33.8877Z" fill="black"/>
<path d="M36.3266 33.8877H33.0613V35.5612H36.3266V33.8877Z" fill="black"/>
<path d="M36.3265 35.5615H3.67346V37.235H36.3265V35.5615Z" fill="black"/>
<path d="M34.6939 37.2344H5.30615V38.9078H34.6939V37.2344Z" fill="black"/>
</svg>
