<svg width="41" height="41" viewBox="0 0 41 41" fill="none" xmlns="http://www.w3.org/2000/svg">
<path d="M27.1939 2.0918H13.8062V3.76527H27.1939V2.0918Z" fill="black"/>
<path d="M30.5409 3.76562H10.4592V5.43909H30.5409V3.76562Z" fill="black"/>
<path d="M17.1531 5.43848H8.78577V7.11195H17.1531V5.43848Z" fill="black"/>
<path d="M32.2143 5.43848H23.8469V7.11195H32.2143V5.43848Z" fill="black"/>
<path d="M12.1327 7.1123H7.1123V8.78577H12.1327V7.1123Z" fill="black"/>
<path d="M33.8877 7.1123H28.8673V8.78577H33.8877V7.1123Z" fill="black"/>
<path d="M10.4591 8.78613H5.43872V10.4596H10.4591V8.78613Z" fill="black"/>
<path d="M22.1735 8.78613H18.8265V10.4596H22.1735V8.78613Z" fill="black"/>
<path d="M35.5612 8.78613H30.5408V10.4596H35.5612V8.78613Z" fill="black"/>
<path d="M8.78567 10.459H3.76526V12.1325H8.78567V10.459Z" fill="black"/>
<path d="M22.1735 10.459H18.8265V12.1325H22.1735V10.459Z" fill="black"/>
<path d="M37.2346 10.459H32.2142V12.1325H37.2346V10.459Z" fill="black"/>
<path d="M7.1122 12.1328H3.76526V13.8063H7.1122V12.1328Z" fill="black"/>
<path d="M22.1735 12.1328H18.8265V13.8063H22.1735V12.1328Z" fill="black"/>
<path d="M37.2346 12.1328H33.8877V13.8063H37.2346V12.1328Z" fill="black"/>
<path d="M7.11221 13.8057H2.0918V15.4791H7.11221V13.8057Z" fill="black"/>
<path d="M22.1735 13.8057H18.8265V15.4791H22.1735V13.8057Z" fill="black"/>
<path d="M38.9081 13.8057H33.8877V15.4791H38.9081V13.8057Z" fill="black"/>
<path d="M7.11221 15.4795H2.0918V17.153H7.11221V15.4795Z" fill="black"/>
<path d="M22.1735 15.4795H18.8265V17.153H22.1735V15.4795Z" fill="black"/>
<path d="M38.9081 15.4795H33.8877V17.153H38.9081V15.4795Z" fill="black"/>
<path d="M5.43874 17.1533H2.0918V18.8268H5.43874V17.1533Z" fill="black"/>
<path d="M22.1735 17.1533H18.8265V18.8268H22.1735V17.1533Z" fill="black"/>
<path d="M38.9082 17.1533H35.5613V18.8268H38.9082V17.1533Z" fill="black"/>
<path d="M5.43874 18.8262H2.0918V20.4996H5.43874V18.8262Z" fill="black"/>
<path d="M23.8469 18.8262H18.8265V20.4996H23.8469V18.8262Z" fill="black"/>
<path d="M38.9082 18.8262H35.5613V20.4996H38.9082V18.8262Z" fill="black"/>
<path d="M5.43874 20.5H2.0918V22.1735H5.43874V20.5Z" fill="black"/>
<path d="M27.1939 20.5H18.8265V22.1735H27.1939V20.5Z" fill="black"/>
<path d="M38.9082 20.5H35.5613V22.1735H38.9082V20.5Z" fill="black"/>
<path d="M5.43874 22.1738H2.0918V23.8473H5.43874V22.1738Z" fill="black"/>
<path d="M28.8673 22.1738H20.5V23.8473H28.8673V22.1738Z" fill="black"/>
<path d="M38.9082 22.1738H35.5613V23.8473H38.9082V22.1738Z" fill="black"/>
<path d="M7.11221 23.8467H2.0918V25.5201H7.11221V23.8467Z" fill="black"/>
<path d="M28.8673 23.8467H23.8469V25.5201H28.8673V23.8467Z" fill="black"/>
<path d="M38.9081 23.8467H33.8877V25.5201H38.9081V23.8467Z" fill="black"/>
<path d="M7.11221 25.5205H2.0918V27.194H7.11221V25.5205Z" fill="black"/>
<path d="M38.9081 25.5205H33.8877V27.194H38.9081V25.5205Z" fill="black"/>
<path d="M7.1122 27.1943H3.76526V28.8678H7.1122V27.1943Z" fill="black"/>
<path d="M37.2346 27.1943H33.8877V28.8678H37.2346V27.1943Z" fill="black"/>
<path d="M8.78567 28.8672H3.76526V30.5407H8.78567V28.8672Z" fill="black"/>
<path d="M37.2346 28.8672H32.2142V30.5407H37.2346V28.8672Z" fill="black"/>
<path d="M10.4591 30.541H5.43872V32.2145H10.4591V30.541Z" fill="black"/>
<path d="M35.5612 30.541H30.5408V32.2145H35.5612V30.541Z" fill="black"/>
<path d="M12.1327 32.2139H7.1123V33.8873H12.1327V32.2139Z" fill="black"/>
<path d="M33.8877 32.2139H28.8673V33.8873H33.8877V32.2139Z" fill="black"/>
<path d="M17.1531 33.8877H8.78577V35.5612H17.1531V33.8877Z" fill="black"/>
<path d="M32.2143 33.8877H23.8469V35.5612H32.2143V33.8877Z" fill="black"/>
<path d="M30.5409 35.5615H10.4592V37.235H30.5409V35.5615Z" fill="black"/>
<path d="M27.1939 37.2344H13.8062V38.9078H27.1939V37.2344Z" fill="black"/>
</svg>
