<svg width="42" height="40" viewBox="0 0 42 40" fill="none" xmlns="http://www.w3.org/2000/svg">
<path d="M7.28575 3.67383H3.85718V5.30648H7.28575V3.67383Z" fill="black"/>
<path d="M27.8571 3.67383H14.1428V5.30648H27.8571V3.67383Z" fill="black"/>
<path d="M7.28575 5.30566H3.85718V6.93832H7.28575V5.30566Z" fill="black"/>
<path d="M29.5715 5.30566H10.7144V6.93832H29.5715V5.30566Z" fill="black"/>
<path d="M7.28575 6.93848H3.85718V8.57113H7.28575V6.93848Z" fill="black"/>
<path d="M17.5714 6.93848H9V8.57113H17.5714V6.93848Z" fill="black"/>
<path d="M32.9999 6.93848H24.4285V8.57113H32.9999V6.93848Z" fill="black"/>
<path d="M12.4286 8.57129H3.85718V10.2039H12.4286V8.57129Z" fill="black"/>
<path d="M34.7143 8.57129H27.8572V10.2039H34.7143V8.57129Z" fill="black"/>
<path d="M10.7143 10.2041H3.85718V11.8368H10.7143V10.2041Z" fill="black"/>
<path d="M22.7142 10.2041H19.2856V11.8368H22.7142V10.2041Z" fill="black"/>
<path d="M34.7142 10.2041H31.2856V11.8368H34.7142V10.2041Z" fill="black"/>
<path d="M15.8572 11.8369H3.85718V13.4696H15.8572V11.8369Z" fill="black"/>
<path d="M22.7142 11.8369H19.2856V13.4696H22.7142V11.8369Z" fill="black"/>
<path d="M36.4285 11.8369H31.2856V13.4696H36.4285V11.8369Z" fill="black"/>
<path d="M15.8572 13.4697H3.85718V15.1024H15.8572V13.4697Z" fill="black"/>
<path d="M22.7142 13.4697H19.2856V15.1024H22.7142V13.4697Z" fill="black"/>
<path d="M38.1429 13.4697H33V15.1024H38.1429V13.4697Z" fill="black"/>
<path d="M22.7142 15.1016H19.2856V16.7342H22.7142V15.1016Z" fill="black"/>
<path d="M38.1429 15.1016H33V16.7342H38.1429V15.1016Z" fill="black"/>
<path d="M22.7142 16.7344H19.2856V18.367H22.7142V16.7344Z" fill="black"/>
<path d="M38.1429 16.7344H34.7144V18.367H38.1429V16.7344Z" fill="black"/>
<path d="M7.28575 18.3672H3.85718V19.9998H7.28575V18.3672Z" fill="black"/>
<path d="M24.4285 18.3672H19.2856V19.9998H24.4285V18.3672Z" fill="black"/>
<path d="M38.1429 18.3672H34.7144V19.9998H38.1429V18.3672Z" fill="black"/>
<path d="M7.28575 20H3.85718V21.6327H7.28575V20Z" fill="black"/>
<path d="M27.8571 20H19.2856V21.6327H27.8571V20Z" fill="black"/>
<path d="M38.1429 20H34.7144V21.6327H38.1429V20Z" fill="black"/>
<path d="M7.28575 21.6328H3.85718V23.2655H7.28575V21.6328Z" fill="black"/>
<path d="M29.5714 21.6328H21V23.2655H29.5714V21.6328Z" fill="black"/>
<path d="M38.1429 21.6328H34.7144V23.2655H38.1429V21.6328Z" fill="black"/>
<path d="M9.00003 23.2656H3.85718V24.8983H9.00003V23.2656Z" fill="black"/>
<path d="M29.5713 23.2656H24.4285V24.8983H29.5713V23.2656Z" fill="black"/>
<path d="M38.1429 23.2656H33V24.8983H38.1429V23.2656Z" fill="black"/>
<path d="M9.00003 24.8984H3.85718V26.5311H9.00003V24.8984Z" fill="black"/>
<path d="M38.1429 24.8984H33V26.5311H38.1429V24.8984Z" fill="black"/>
<path d="M10.7144 26.5303H5.57153V28.1629H10.7144V26.5303Z" fill="black"/>
<path d="M36.4285 26.5303H31.2856V28.1629H36.4285V26.5303Z" fill="black"/>
<path d="M10.7142 28.1631H7.28564V29.7957H10.7142V28.1631Z" fill="black"/>
<path d="M34.7142 28.1631H31.2856V29.7957H34.7142V28.1631Z" fill="black"/>
<path d="M14.1428 29.7959H7.28564V31.4286H14.1428V29.7959Z" fill="black"/>
<path d="M34.7143 29.7959H27.8572V31.4286H34.7143V29.7959Z" fill="black"/>
<path d="M17.5714 31.4287H9V33.0614H17.5714V31.4287Z" fill="black"/>
<path d="M32.9999 31.4287H24.4285V33.0614H32.9999V31.4287Z" fill="black"/>
<path d="M29.5713 33.0615H12.4285V34.6942H29.5713V33.0615Z" fill="black"/>
<path d="M27.8571 34.6943H14.1428V36.327H27.8571V34.6943Z" fill="black"/>
</svg>
