<svg width="41" height="41" viewBox="0 0 41 41" fill="none" xmlns="http://www.w3.org/2000/svg">
<path d="M27.1939 3.76562H13.8062V5.43909H27.1939V3.76562Z" fill="black"/>
<path d="M37.2346 3.76562H33.8877V5.43909H37.2346V3.76562Z" fill="black"/>
<path d="M30.5409 5.43848H12.1327V7.11195H30.5409V5.43848Z" fill="black"/>
<path d="M37.2346 5.43848H33.8877V7.11195H37.2346V5.43848Z" fill="black"/>
<path d="M17.1531 7.1123H8.78577V8.78577H17.1531V7.1123Z" fill="black"/>
<path d="M32.2143 7.1123H23.8469V8.78577H32.2143V7.1123Z" fill="black"/>
<path d="M37.2346 7.1123H33.8877V8.78577H37.2346V7.1123Z" fill="black"/>
<path d="M13.8062 8.78613H7.1123V10.4596H13.8062V8.78613Z" fill="black"/>
<path d="M37.2347 8.78613H28.8673V10.4596H37.2347V8.78613Z" fill="black"/>
<path d="M10.4592 10.459H7.1123V12.1325H10.4592V10.459Z" fill="black"/>
<path d="M37.2346 10.459H30.5408V12.1325H37.2346V10.459Z" fill="black"/>
<path d="M10.4591 12.1328H5.43872V13.8063H10.4591V12.1328Z" fill="black"/>
<path d="M37.2347 12.1328H25.5204V13.8063H37.2347V12.1328Z" fill="black"/>
<path d="M8.78567 13.8057H3.76526V15.4791H8.78567V13.8057Z" fill="black"/>
<path d="M37.2347 13.8057H25.5204V15.4791H37.2347V13.8057Z" fill="black"/>
<path d="M8.78567 15.4795H3.76526V17.153H8.78567V15.4795Z" fill="black"/>
<path d="M7.1122 17.1533H3.76526V18.8268H7.1122V17.1533Z" fill="black"/>
<path d="M7.1122 18.8262H3.76526V20.4996H7.1122V18.8262Z" fill="black"/>
<path d="M37.2346 18.8262H33.8877V20.4996H37.2346V18.8262Z" fill="black"/>
<path d="M7.1122 20.5H3.76526V22.1735H7.1122V20.5Z" fill="black"/>
<path d="M37.2346 20.5H33.8877V22.1735H37.2346V20.5Z" fill="black"/>
<path d="M37.2346 22.1738H33.8877V23.8473H37.2346V22.1738Z" fill="black"/>
<path d="M37.2346 23.8467H32.2142V25.5201H37.2346V23.8467Z" fill="black"/>
<path d="M15.4795 25.5205H3.76526V27.194H15.4795V25.5205Z" fill="black"/>
<path d="M37.2346 25.5205H32.2142V27.194H37.2346V25.5205Z" fill="black"/>
<path d="M15.4795 27.1943H3.76526V28.8678H15.4795V27.1943Z" fill="black"/>
<path d="M35.5612 27.1943H30.5408V28.8678H35.5612V27.1943Z" fill="black"/>
<path d="M10.4591 28.8672H3.76526V30.5407H10.4591V28.8672Z" fill="black"/>
<path d="M33.8877 28.8672H30.5408V30.5407H33.8877V28.8672Z" fill="black"/>
<path d="M12.1326 30.541H3.76526V32.2145H12.1326V30.541Z" fill="black"/>
<path d="M33.8877 30.541H27.1938V32.2145H33.8877V30.541Z" fill="black"/>
<path d="M7.1122 32.2139H3.76526V33.8873H7.1122V32.2139Z" fill="black"/>
<path d="M17.1531 32.2139H8.78577V33.8873H17.1531V32.2139Z" fill="black"/>
<path d="M32.2143 32.2139H23.8469V33.8873H32.2143V32.2139Z" fill="black"/>
<path d="M7.1122 33.8877H3.76526V35.5612H7.1122V33.8877Z" fill="black"/>
<path d="M28.8674 33.8877H10.4592V35.5612H28.8674V33.8877Z" fill="black"/>
<path d="M7.1122 35.5615H3.76526V37.235H7.1122V35.5615Z" fill="black"/>
<path d="M27.1939 35.5615H13.8062V37.235H27.1939V35.5615Z" fill="black"/>
</svg>
