<svg width="40" height="40" viewBox="0 0 40 40" fill="none" xmlns="http://www.w3.org/2000/svg">
<path d="M29.7959 2.04102H26.5306V3.67367H29.7959V2.04102Z" fill="black"/>
<path d="M31.4286 3.67383H26.5306V5.30648H31.4286V3.67383Z" fill="black"/>
<path d="M33.0612 5.30566H28.1633V6.93832H33.0612V5.30566Z" fill="black"/>
<path d="M34.6939 6.93848H29.7959V8.57113H34.6939V6.93848Z" fill="black"/>
<path d="M36.3265 8.57129H8.57141V10.2039H36.3265V8.57129Z" fill="black"/>
<path d="M36.3266 10.2041H5.30615V11.8368H36.3266V10.2041Z" fill="black"/>
<path d="M10.2041 11.8369H5.30615V13.4696H10.2041V11.8369Z" fill="black"/>
<path d="M34.6939 11.8369H29.7959V13.4696H34.6939V11.8369Z" fill="black"/>
<path d="M8.57142 13.4697H3.67346V15.1024H8.57142V13.4697Z" fill="black"/>
<path d="M33.0612 13.4697H28.1633V15.1024H33.0612V13.4697Z" fill="black"/>
<path d="M6.93877 15.1016H3.67346V16.7342H6.93877V15.1016Z" fill="black"/>
<path d="M31.4286 15.1016H26.5306V16.7342H31.4286V15.1016Z" fill="black"/>
<path d="M6.93877 16.7344H3.67346V18.367H6.93877V16.7344Z" fill="black"/>
<path d="M29.7959 16.7344H26.5306V18.367H29.7959V16.7344Z" fill="black"/>
<path d="M6.93877 18.3672H3.67346V19.9998H6.93877V18.3672Z" fill="black"/>
<path d="M36.3265 20H33.0612V21.6327H36.3265V20Z" fill="black"/>
<path d="M13.4694 21.6328H10.2041V23.2655H13.4694V21.6328Z" fill="black"/>
<path d="M36.3265 21.6328H33.0612V23.2655H36.3265V21.6328Z" fill="black"/>
<path d="M13.4694 23.2656H8.57141V24.8983H13.4694V23.2656Z" fill="black"/>
<path d="M36.3265 23.2656H33.0612V24.8983H36.3265V23.2656Z" fill="black"/>
<path d="M11.8367 24.8984H6.93878V26.5311H11.8367V24.8984Z" fill="black"/>
<path d="M36.3265 24.8984H31.4286V26.5311H36.3265V24.8984Z" fill="black"/>
<path d="M10.2041 26.5303H5.30615V28.1629H10.2041V26.5303Z" fill="black"/>
<path d="M34.6939 26.5303H29.7959V28.1629H34.6939V26.5303Z" fill="black"/>
<path d="M34.6939 28.1631H3.67346V29.7957H34.6939V28.1631Z" fill="black"/>
<path d="M31.4286 29.7959H3.67346V31.4286H31.4286V29.7959Z" fill="black"/>
<path d="M10.2041 31.4287H5.30615V33.0614H10.2041V31.4287Z" fill="black"/>
<path d="M11.8367 33.0615H6.93878V34.6942H11.8367V33.0615Z" fill="black"/>
<path d="M13.4694 34.6943H8.57141V36.327H13.4694V34.6943Z" fill="black"/>
<path d="M13.4694 36.3262H10.2041V37.9588H13.4694V36.3262Z" fill="black"/>
</svg>
