<svg width="24" height="24" viewBox="0 0 24 24" fill="none" xmlns="http://www.w3.org/2000/svg">
<path d="M8 3H7C6.46957 3 5.96086 3.21071 5.58579 3.58579C5.21071 3.96086 5 4.46957 5 5V10C5 10.5304 4.78929 11.0391 4.41421 11.4142C4.03914 11.7893 3.53043 12 3 12C3.53043 12 4.03914 12.2107 4.41421 12.5858C4.78929 12.9609 5 13.4696 5 14V19C5 20.1 5.9 21 7 21H8" stroke="#DDDDDD" stroke-width="2" stroke-linecap="round" stroke-linejoin="round"/>
<path d="M15 21H16C16.5304 21 17.0391 20.7893 17.4142 20.4142C17.7893 20.0391 18 19.5304 18 19V14C18 13.4696 18.2107 12.9609 18.5858 12.5858C18.9609 12.2107 19.4696 12 20 12C19.4696 12 18.9609 11.7893 18.5858 11.4142C18.2107 11.0391 18 10.5304 18 10L18 5C18 3.9 17.1 3 16 3H15" stroke="#A4A5A6" stroke-width="2" stroke-linecap="round" stroke-linejoin="round"/>
</svg>
