<svg width="24" height="24" viewBox="0 0 24 24" fill="none" xmlns="http://www.w3.org/2000/svg">
<path d="M4.5 10H4C3.46957 10 2.96086 9.78929 2.58579 9.41421C2.21071 9.03914 2 8.53043 2 8V4C2 3.46957 2.21071 2.96086 2.58579 2.58579C2.96086 2.21071 3.46957 2 4 2H20C20.5304 2 21.0391 2.21071 21.4142 2.58579C21.7893 2.96086 22 3.46957 22 4V8C22 8.53043 21.7893 9.03914 21.4142 9.41421C21.0391 9.78929 20.5304 10 20 10H19.5M4.5 14H4C3.46957 14 2.96086 14.2107 2.58579 14.5858C2.21071 14.9609 2 15.4696 2 16V20C2 20.5304 2.21071 21.0391 2.58579 21.4142C2.96086 21.7893 3.46957 22 4 22H20C20.5304 22 21.0391 21.7893 21.4142 21.4142C21.7893 21.0391 22 20.5304 22 20V16C22 15.4696 21.7893 14.9609 21.4142 14.5858C21.0391 14.2107 20.5304 14 20 14H19.5M6 18H6.01M6 6H6.01" stroke="#A4A5A6" stroke-width="2" stroke-linecap="round" stroke-linejoin="round"/>
<path d="M10.852 14.7715L10.469 15.6945M10.852 14.7715C11.216 14.9223 11.6059 14.9998 11.9999 14.9998C12.3939 14.9999 12.784 14.9224 13.148 14.7717M10.852 14.7715C10.488 14.6207 10.157 14.3996 9.8784 14.1209C9.59981 13.8423 9.37883 13.5116 9.22807 13.1475L8.30493 13.5304M13.148 14.7717C13.512 14.6209 13.8428 14.3999 14.1214 14.1213C14.4 13.8428 14.6211 13.512 14.7719 13.148L15.695 13.5304M13.148 14.7717L13.5301 15.6955M15.0003 11.9999C15.0003 11.6059 14.9228 11.2157 14.772 10.8517M9.22821 10.8512C9.37901 10.4872 9.60004 10.1564 9.87866 9.87786C10.1573 9.59928 10.488 9.37844 10.852 9.22769C11.216 9.07693 11.6062 8.99935 12.0002 8.99937C12.3942 8.9994 12.7843 9.07702 13.1483 9.22783C13.5123 9.37863 13.8431 9.59965 14.1217 9.87827C14.4003 10.1569 14.6212 10.4877 14.772 10.8517M14.772 10.8517L15.695 10.4687M13.1483 9.22783L13.5309 8.30469M9.22821 10.8512C9.07741 11.2152 8.99978 11.6053 8.99976 11.9993M9.22821 10.8512L8.30493 10.4687M10.852 9.22769L10.469 8.30469" stroke="#DDDDDD" stroke-width="1.5" stroke-linecap="round" stroke-linejoin="round"/>
</svg>
