<svg width="24" height="24" viewBox="0 0 24 24" fill="none" xmlns="http://www.w3.org/2000/svg">
<path d="M14.487 7.858C14.3386 7.7693 14.2157 7.64362 14.1303 7.49324C14.045 7.34286 14.0001 7.17292 14 7V2M14 2L6 2.00001C5.46957 2.00001 4.96086 2.21072 4.58579 2.58579C4.21071 2.96087 4 3.46957 4 4.00001V20C4 20.5304 4.21071 21.0391 4.58579 21.4142C4.96086 21.7893 5.46957 22 6 22H18C18.5304 22 19.0391 21.7893 19.4142 21.4142C19.7893 21.0391 20 20.5304 20 20V19.645M14 2C14.3166 1.99949 14.6301 2.06161 14.9225 2.18278C15.215 2.30394 15.4806 2.48177 15.704 2.70601L18.22 5.22201M8 18H9M14.364 13.6339C14.1262 13.8715 13.9522 14.1652 13.858 14.4879L13.021 17.3579C12.9959 17.444 12.9944 17.5352 13.0166 17.622C13.0389 17.7088 13.084 17.7881 13.1474 17.8515C13.2108 17.9148 13.2901 17.96 13.3769 17.9823C13.4637 18.0045 13.5549 18.003 13.641 17.9779L16.511 17.1409C16.8336 17.0467 17.1274 16.8727 17.365 16.6349L21.378 12.6259C21.7763 12.2276 22.0001 11.6873 22.0001 11.1239C22.0001 10.5605 21.7763 10.0203 21.378 9.62191C20.9796 9.22355 20.4393 8.99976 19.876 8.99976C19.3126 8.99976 18.7723 9.22355 18.374 9.62191L14.364 13.6339Z" stroke="black" stroke-width="2" stroke-linecap="round" stroke-linejoin="round"/>
</svg>
