<svg width="40" height="40" viewBox="0 0 40 40" fill="none" xmlns="http://www.w3.org/2000/svg">
<path d="M29.7959 8.57129H3.67346V10.2039H29.7959V8.57129Z" fill="black"/>
<path d="M31.4285 10.2041H2.04077V11.8368H31.4285V10.2041Z" fill="black"/>
<path d="M5.30608 11.8369H2.04077V13.4696H5.30608V11.8369Z" fill="black"/>
<path d="M31.4285 11.8369H28.1632V13.4696H31.4285V11.8369Z" fill="black"/>
<path d="M5.30608 13.4697H2.04077V15.1024H5.30608V13.4697Z" fill="black"/>
<path d="M31.4285 13.4697H28.1632V15.1024H31.4285V13.4697Z" fill="black"/>
<path d="M5.30608 15.1016H2.04077V16.7342H5.30608V15.1016Z" fill="black"/>
<path d="M11.8367 15.1016H8.57141V16.7342H11.8367V15.1016Z" fill="black"/>
<path d="M18.3674 15.1016H15.1021V16.7342H18.3674V15.1016Z" fill="black"/>
<path d="M24.898 15.1016H21.6327V16.7342H24.898V15.1016Z" fill="black"/>
<path d="M31.4285 15.1016H28.1632V16.7342H31.4285V15.1016Z" fill="black"/>
<path d="M37.9592 15.1016H34.6938V16.7342H37.9592V15.1016Z" fill="black"/>
<path d="M5.30608 16.7344H2.04077V18.367H5.30608V16.7344Z" fill="black"/>
<path d="M11.8367 16.7344H8.57141V18.367H11.8367V16.7344Z" fill="black"/>
<path d="M18.3674 16.7344H15.1021V18.367H18.3674V16.7344Z" fill="black"/>
<path d="M24.898 16.7344H21.6327V18.367H24.898V16.7344Z" fill="black"/>
<path d="M31.4285 16.7344H28.1632V18.367H31.4285V16.7344Z" fill="black"/>
<path d="M37.9592 16.7344H34.6938V18.367H37.9592V16.7344Z" fill="black"/>
<path d="M5.30608 18.3672H2.04077V19.9998H5.30608V18.3672Z" fill="black"/>
<path d="M11.8367 18.3672H8.57141V19.9998H11.8367V18.3672Z" fill="black"/>
<path d="M18.3674 18.3672H15.1021V19.9998H18.3674V18.3672Z" fill="black"/>
<path d="M24.898 18.3672H21.6327V19.9998H24.898V18.3672Z" fill="black"/>
<path d="M31.4285 18.3672H28.1632V19.9998H31.4285V18.3672Z" fill="black"/>
<path d="M37.9592 18.3672H34.6938V19.9998H37.9592V18.3672Z" fill="black"/>
<path d="M5.30608 20H2.04077V21.6327H5.30608V20Z" fill="black"/>
<path d="M11.8367 20H8.57141V21.6327H11.8367V20Z" fill="black"/>
<path d="M18.3674 20H15.1021V21.6327H18.3674V20Z" fill="black"/>
<path d="M24.898 20H21.6327V21.6327H24.898V20Z" fill="black"/>
<path d="M31.4285 20H28.1632V21.6327H31.4285V20Z" fill="black"/>
<path d="M37.9592 20H34.6938V21.6327H37.9592V20Z" fill="black"/>
<path d="M5.30608 21.6328H2.04077V23.2655H5.30608V21.6328Z" fill="black"/>
<path d="M11.8367 21.6328H8.57141V23.2655H11.8367V21.6328Z" fill="black"/>
<path d="M18.3674 21.6328H15.1021V23.2655H18.3674V21.6328Z" fill="black"/>
<path d="M24.898 21.6328H21.6327V23.2655H24.898V21.6328Z" fill="black"/>
<path d="M31.4285 21.6328H28.1632V23.2655H31.4285V21.6328Z" fill="black"/>
<path d="M37.9592 21.6328H34.6938V23.2655H37.9592V21.6328Z" fill="black"/>
<path d="M5.30608 23.2656H2.04077V24.8983H5.30608V23.2656Z" fill="black"/>
<path d="M11.8367 23.2656H8.57141V24.8983H11.8367V23.2656Z" fill="black"/>
<path d="M18.3674 23.2656H15.1021V24.8983H18.3674V23.2656Z" fill="black"/>
<path d="M24.898 23.2656H21.6327V24.8983H24.898V23.2656Z" fill="black"/>
<path d="M31.4285 23.2656H28.1632V24.8983H31.4285V23.2656Z" fill="black"/>
<path d="M37.9592 23.2656H34.6938V24.8983H37.9592V23.2656Z" fill="black"/>
<path d="M5.30608 24.8984H2.04077V26.5311H5.30608V24.8984Z" fill="black"/>
<path d="M31.4285 24.8984H28.1632V26.5311H31.4285V24.8984Z" fill="black"/>
<path d="M5.30608 26.5303H2.04077V28.1629H5.30608V26.5303Z" fill="black"/>
<path d="M31.4285 26.5303H28.1632V28.1629H31.4285V26.5303Z" fill="black"/>
<path d="M31.4285 28.1631H2.04077V29.7957H31.4285V28.1631Z" fill="black"/>
<path d="M29.7959 29.7959H3.67346V31.4286H29.7959V29.7959Z" fill="black"/>
</svg>
