<svg width="41" height="40" viewBox="0 0 41 40" fill="none" xmlns="http://www.w3.org/2000/svg">
<path d="M30.5408 8.57129H3.76526V10.2039H30.5408V8.57129Z" fill="black"/>
<path d="M32.2142 10.2041H2.0918V11.8368H32.2142V10.2041Z" fill="black"/>
<path d="M5.43874 11.8369H2.0918V13.4696H5.43874V11.8369Z" fill="black"/>
<path d="M32.2142 11.8369H28.8673V13.4696H32.2142V11.8369Z" fill="black"/>
<path d="M5.43874 13.4697H2.0918V15.1024H5.43874V13.4697Z" fill="black"/>
<path d="M32.2142 13.4697H28.8673V15.1024H32.2142V13.4697Z" fill="black"/>
<path d="M5.43874 15.1016H2.0918V16.7342H5.43874V15.1016Z" fill="black"/>
<path d="M12.1327 15.1016H8.78577V16.7342H12.1327V15.1016Z" fill="black"/>
<path d="M32.2142 15.1016H28.8673V16.7342H32.2142V15.1016Z" fill="black"/>
<path d="M38.9082 15.1016H35.5613V16.7342H38.9082V15.1016Z" fill="black"/>
<path d="M5.43874 16.7344H2.0918V18.367H5.43874V16.7344Z" fill="black"/>
<path d="M12.1327 16.7344H8.78577V18.367H12.1327V16.7344Z" fill="black"/>
<path d="M32.2142 16.7344H28.8673V18.367H32.2142V16.7344Z" fill="black"/>
<path d="M38.9082 16.7344H35.5613V18.367H38.9082V16.7344Z" fill="black"/>
<path d="M5.43874 18.3672H2.0918V19.9998H5.43874V18.3672Z" fill="black"/>
<path d="M12.1327 18.3672H8.78577V19.9998H12.1327V18.3672Z" fill="black"/>
<path d="M32.2142 18.3672H28.8673V19.9998H32.2142V18.3672Z" fill="black"/>
<path d="M38.9082 18.3672H35.5613V19.9998H38.9082V18.3672Z" fill="black"/>
<path d="M5.43874 20H2.0918V21.6327H5.43874V20Z" fill="black"/>
<path d="M12.1327 20H8.78577V21.6327H12.1327V20Z" fill="black"/>
<path d="M32.2142 20H28.8673V21.6327H32.2142V20Z" fill="black"/>
<path d="M38.9082 20H35.5613V21.6327H38.9082V20Z" fill="black"/>
<path d="M5.43874 21.6328H2.0918V23.2655H5.43874V21.6328Z" fill="black"/>
<path d="M12.1327 21.6328H8.78577V23.2655H12.1327V21.6328Z" fill="black"/>
<path d="M32.2142 21.6328H28.8673V23.2655H32.2142V21.6328Z" fill="black"/>
<path d="M38.9082 21.6328H35.5613V23.2655H38.9082V21.6328Z" fill="black"/>
<path d="M5.43874 23.2656H2.0918V24.8983H5.43874V23.2656Z" fill="black"/>
<path d="M12.1327 23.2656H8.78577V24.8983H12.1327V23.2656Z" fill="black"/>
<path d="M32.2142 23.2656H28.8673V24.8983H32.2142V23.2656Z" fill="black"/>
<path d="M38.9082 23.2656H35.5613V24.8983H38.9082V23.2656Z" fill="black"/>
<path d="M5.43874 24.8984H2.0918V26.5311H5.43874V24.8984Z" fill="black"/>
<path d="M32.2142 24.8984H28.8673V26.5311H32.2142V24.8984Z" fill="black"/>
<path d="M5.43874 26.5303H2.0918V28.1629H5.43874V26.5303Z" fill="black"/>
<path d="M32.2142 26.5303H28.8673V28.1629H32.2142V26.5303Z" fill="black"/>
<path d="M32.2142 28.1631H2.0918V29.7957H32.2142V28.1631Z" fill="black"/>
<path d="M30.5408 29.7959H3.76526V31.4286H30.5408V29.7959Z" fill="black"/>
</svg>
