<svg width="41" height="41" viewBox="0 0 41 41" fill="none" xmlns="http://www.w3.org/2000/svg">
<path d="M30.5408 8.78613H3.76526V10.4596H30.5408V8.78613Z" fill="black"/>
<path d="M32.2142 10.459H2.0918V12.1325H32.2142V10.459Z" fill="black"/>
<path d="M5.43874 12.1328H2.0918V13.8063H5.43874V12.1328Z" fill="black"/>
<path d="M32.2142 12.1328H28.8673V13.8063H32.2142V12.1328Z" fill="black"/>
<path d="M5.43874 13.8057H2.0918V15.4791H5.43874V13.8057Z" fill="black"/>
<path d="M32.2142 13.8057H28.8673V15.4791H32.2142V13.8057Z" fill="black"/>
<path d="M5.43874 15.4795H2.0918V17.153H5.43874V15.4795Z" fill="black"/>
<path d="M12.1327 15.4795H8.78577V17.153H12.1327V15.4795Z" fill="black"/>
<path d="M18.8266 15.4795H15.4796V17.153H18.8266V15.4795Z" fill="black"/>
<path d="M32.2142 15.4795H28.8673V17.153H32.2142V15.4795Z" fill="black"/>
<path d="M38.9082 15.4795H35.5613V17.153H38.9082V15.4795Z" fill="black"/>
<path d="M5.43874 17.1533H2.0918V18.8268H5.43874V17.1533Z" fill="black"/>
<path d="M12.1327 17.1533H8.78577V18.8268H12.1327V17.1533Z" fill="black"/>
<path d="M18.8266 17.1533H15.4796V18.8268H18.8266V17.1533Z" fill="black"/>
<path d="M32.2142 17.1533H28.8673V18.8268H32.2142V17.1533Z" fill="black"/>
<path d="M38.9082 17.1533H35.5613V18.8268H38.9082V17.1533Z" fill="black"/>
<path d="M5.43874 18.8262H2.0918V20.4996H5.43874V18.8262Z" fill="black"/>
<path d="M12.1327 18.8262H8.78577V20.4996H12.1327V18.8262Z" fill="black"/>
<path d="M18.8266 18.8262H15.4796V20.4996H18.8266V18.8262Z" fill="black"/>
<path d="M32.2142 18.8262H28.8673V20.4996H32.2142V18.8262Z" fill="black"/>
<path d="M38.9082 18.8262H35.5613V20.4996H38.9082V18.8262Z" fill="black"/>
<path d="M5.43874 20.5H2.0918V22.1735H5.43874V20.5Z" fill="black"/>
<path d="M12.1327 20.5H8.78577V22.1735H12.1327V20.5Z" fill="black"/>
<path d="M18.8266 20.5H15.4796V22.1735H18.8266V20.5Z" fill="black"/>
<path d="M32.2142 20.5H28.8673V22.1735H32.2142V20.5Z" fill="black"/>
<path d="M38.9082 20.5H35.5613V22.1735H38.9082V20.5Z" fill="black"/>
<path d="M5.43874 22.1738H2.0918V23.8473H5.43874V22.1738Z" fill="black"/>
<path d="M12.1327 22.1738H8.78577V23.8473H12.1327V22.1738Z" fill="black"/>
<path d="M18.8266 22.1738H15.4796V23.8473H18.8266V22.1738Z" fill="black"/>
<path d="M32.2142 22.1738H28.8673V23.8473H32.2142V22.1738Z" fill="black"/>
<path d="M38.9082 22.1738H35.5613V23.8473H38.9082V22.1738Z" fill="black"/>
<path d="M5.43874 23.8467H2.0918V25.5201H5.43874V23.8467Z" fill="black"/>
<path d="M12.1327 23.8467H8.78577V25.5201H12.1327V23.8467Z" fill="black"/>
<path d="M18.8266 23.8467H15.4796V25.5201H18.8266V23.8467Z" fill="black"/>
<path d="M32.2142 23.8467H28.8673V25.5201H32.2142V23.8467Z" fill="black"/>
<path d="M38.9082 23.8467H35.5613V25.5201H38.9082V23.8467Z" fill="black"/>
<path d="M5.43874 25.5205H2.0918V27.194H5.43874V25.5205Z" fill="black"/>
<path d="M32.2142 25.5205H28.8673V27.194H32.2142V25.5205Z" fill="black"/>
<path d="M5.43874 27.1943H2.0918V28.8678H5.43874V27.1943Z" fill="black"/>
<path d="M32.2142 27.1943H28.8673V28.8678H32.2142V27.1943Z" fill="black"/>
<path d="M32.2142 28.8672H2.0918V30.5407H32.2142V28.8672Z" fill="black"/>
<path d="M30.5408 30.541H3.76526V32.2145H30.5408V30.541Z" fill="black"/>
</svg>
