<svg width="41" height="40" viewBox="0 0 41 40" fill="none" xmlns="http://www.w3.org/2000/svg">
<path d="M33.8878 6.93848H7.1123V8.57113H33.8878V6.93848Z" fill="black"/>
<path d="M35.5612 8.57129H5.43872V10.2039H35.5612V8.57129Z" fill="black"/>
<path d="M8.78566 10.2041H5.43872V11.8368H8.78566V10.2041Z" fill="black"/>
<path d="M35.5613 10.2041H32.2144V11.8368H35.5613V10.2041Z" fill="black"/>
<path d="M8.78566 11.8369H5.43872V13.4696H8.78566V11.8369Z" fill="black"/>
<path d="M35.5613 11.8369H32.2144V13.4696H35.5613V11.8369Z" fill="black"/>
<path d="M8.78566 13.4697H5.43872V15.1024H8.78566V13.4697Z" fill="black"/>
<path d="M35.5613 13.4697H32.2144V15.1024H35.5613V13.4697Z" fill="black"/>
<path d="M8.78566 15.1016H5.43872V16.7342H8.78566V15.1016Z" fill="black"/>
<path d="M35.5613 15.1016H32.2144V16.7342H35.5613V15.1016Z" fill="black"/>
<path d="M8.78566 16.7344H5.43872V18.367H8.78566V16.7344Z" fill="black"/>
<path d="M35.5613 16.7344H32.2144V18.367H35.5613V16.7344Z" fill="black"/>
<path d="M8.78566 18.3672H5.43872V19.9998H8.78566V18.3672Z" fill="black"/>
<path d="M35.5613 18.3672H32.2144V19.9998H35.5613V18.3672Z" fill="black"/>
<path d="M8.78566 20H5.43872V21.6327H8.78566V20Z" fill="black"/>
<path d="M35.5613 20H32.2144V21.6327H35.5613V20Z" fill="black"/>
<path d="M8.78566 21.6328H5.43872V23.2655H8.78566V21.6328Z" fill="black"/>
<path d="M35.5613 21.6328H32.2144V23.2655H35.5613V21.6328Z" fill="black"/>
<path d="M8.78566 23.2656H5.43872V24.8983H8.78566V23.2656Z" fill="black"/>
<path d="M35.5613 23.2656H32.2144V24.8983H35.5613V23.2656Z" fill="black"/>
<path d="M35.5612 24.8984H5.43872V26.5311H35.5612V24.8984Z" fill="black"/>
<path d="M37.2348 26.5303H3.76538V28.1629H37.2348V26.5303Z" fill="black"/>
<path d="M8.78579 28.1631H3.76538V29.7957H8.78579V28.1631Z" fill="black"/>
<path d="M37.2348 28.1631H32.2144V29.7957H37.2348V28.1631Z" fill="black"/>
<path d="M7.11232 29.7959H3.76538V31.4286H7.11232V29.7959Z" fill="black"/>
<path d="M37.2346 29.7959H33.8877V31.4286H37.2346V29.7959Z" fill="black"/>
<path d="M37.2348 31.4287H3.76538V33.0614H37.2348V31.4287Z" fill="black"/>
<path d="M37.2348 33.0615H3.76538V34.6942H37.2348V33.0615Z" fill="black"/>
</svg>
