<svg width="41" height="41" viewBox="0 0 41 41" fill="none" xmlns="http://www.w3.org/2000/svg">
<path d="M30.5409 2.0918H10.4592V3.76527H30.5409V2.0918Z" fill="black"/>
<path d="M32.2143 3.76562H8.78577V5.43909H32.2143V3.76562Z" fill="black"/>
<path d="M12.1327 5.43848H8.78577V7.11195H12.1327V5.43848Z" fill="black"/>
<path d="M32.2142 5.43848H28.8673V7.11195H32.2142V5.43848Z" fill="black"/>
<path d="M12.1327 7.1123H8.78577V8.78577H12.1327V7.1123Z" fill="black"/>
<path d="M32.2142 7.1123H28.8673V8.78577H32.2142V7.1123Z" fill="black"/>
<path d="M12.1327 8.78613H8.78577V10.4596H12.1327V8.78613Z" fill="black"/>
<path d="M32.2142 8.78613H28.8673V10.4596H32.2142V8.78613Z" fill="black"/>
<path d="M12.1327 10.459H8.78577V12.1325H12.1327V10.459Z" fill="black"/>
<path d="M32.2142 10.459H28.8673V12.1325H32.2142V10.459Z" fill="black"/>
<path d="M12.1327 12.1328H8.78577V13.8063H12.1327V12.1328Z" fill="black"/>
<path d="M32.2142 12.1328H28.8673V13.8063H32.2142V12.1328Z" fill="black"/>
<path d="M37.2346 13.8057H3.76526V15.4791H37.2346V13.8057Z" fill="black"/>
<path d="M38.9081 15.4795H2.0918V17.153H38.9081V15.4795Z" fill="black"/>
<path d="M5.43874 17.1533H2.0918V18.8268H5.43874V17.1533Z" fill="black"/>
<path d="M38.9082 17.1533H35.5613V18.8268H38.9082V17.1533Z" fill="black"/>
<path d="M5.43874 18.8262H2.0918V20.4996H5.43874V18.8262Z" fill="black"/>
<path d="M38.9082 18.8262H35.5613V20.4996H38.9082V18.8262Z" fill="black"/>
<path d="M5.43874 20.5H2.0918V22.1735H5.43874V20.5Z" fill="black"/>
<path d="M38.9082 20.5H35.5613V22.1735H38.9082V20.5Z" fill="black"/>
<path d="M5.43874 22.1738H2.0918V23.8473H5.43874V22.1738Z" fill="black"/>
<path d="M30.5409 22.1738H10.4592V23.8473H30.5409V22.1738Z" fill="black"/>
<path d="M38.9082 22.1738H35.5613V23.8473H38.9082V22.1738Z" fill="black"/>
<path d="M5.43874 23.8467H2.0918V25.5201H5.43874V23.8467Z" fill="black"/>
<path d="M32.2143 23.8467H8.78577V25.5201H32.2143V23.8467Z" fill="black"/>
<path d="M38.9082 23.8467H35.5613V25.5201H38.9082V23.8467Z" fill="black"/>
<path d="M5.43874 25.5205H2.0918V27.194H5.43874V25.5205Z" fill="black"/>
<path d="M12.1327 25.5205H8.78577V27.194H12.1327V25.5205Z" fill="black"/>
<path d="M32.2142 25.5205H28.8673V27.194H32.2142V25.5205Z" fill="black"/>
<path d="M38.9082 25.5205H35.5613V27.194H38.9082V25.5205Z" fill="black"/>
<path d="M5.43874 27.1943H2.0918V28.8678H5.43874V27.1943Z" fill="black"/>
<path d="M12.1327 27.1943H8.78577V28.8678H12.1327V27.1943Z" fill="black"/>
<path d="M32.2142 27.1943H28.8673V28.8678H32.2142V27.1943Z" fill="black"/>
<path d="M38.9082 27.1943H35.5613V28.8678H38.9082V27.1943Z" fill="black"/>
<path d="M12.1326 28.8672H2.0918V30.5407H12.1326V28.8672Z" fill="black"/>
<path d="M38.9081 28.8672H28.8673V30.5407H38.9081V28.8672Z" fill="black"/>
<path d="M12.1326 30.541H3.76526V32.2145H12.1326V30.541Z" fill="black"/>
<path d="M37.2347 30.541H28.8673V32.2145H37.2347V30.541Z" fill="black"/>
<path d="M12.1327 32.2139H8.78577V33.8873H12.1327V32.2139Z" fill="black"/>
<path d="M32.2142 32.2139H28.8673V33.8873H32.2142V32.2139Z" fill="black"/>
<path d="M12.1327 33.8877H8.78577V35.5612H12.1327V33.8877Z" fill="black"/>
<path d="M32.2142 33.8877H28.8673V35.5612H32.2142V33.8877Z" fill="black"/>
<path d="M32.2143 35.5615H8.78577V37.235H32.2143V35.5615Z" fill="black"/>
<path d="M30.5409 37.2344H10.4592V38.9078H30.5409V37.2344Z" fill="black"/>
</svg>
