<svg width="40" height="42" viewBox="0 0 40 42" fill="none" xmlns="http://www.w3.org/2000/svg">
<path d="M13.4694 2.14258H10.2041V3.85686H13.4694V2.14258Z" fill="black"/>
<path d="M29.7959 2.14258H26.5306V3.85686H29.7959V2.14258Z" fill="black"/>
<path d="M15.1021 3.85742H10.2041V5.57171H15.1021V3.85742Z" fill="black"/>
<path d="M29.7959 3.85742H24.8979V5.57171H29.7959V3.85742Z" fill="black"/>
<path d="M16.7347 5.57129H11.8367V7.28557H16.7347V5.57129Z" fill="black"/>
<path d="M28.1633 5.57129H23.2653V7.28557H28.1633V5.57129Z" fill="black"/>
<path d="M18.3673 7.28613H13.4694V9.00042H18.3673V7.28613Z" fill="black"/>
<path d="M26.5306 7.28613H21.6326V9.00042H26.5306V7.28613Z" fill="black"/>
<path d="M24.898 9H15.1021V10.7143H24.898V9Z" fill="black"/>
<path d="M36.3265 10.7139H3.67346V12.4282H36.3265V10.7139Z" fill="black"/>
<path d="M37.9592 12.4287H2.04083V14.143H37.9592V12.4287Z" fill="black"/>
<path d="M5.30614 14.1426H2.04083V15.8569H5.30614V14.1426Z" fill="black"/>
<path d="M37.9592 14.1426H34.6938V15.8569H37.9592V14.1426Z" fill="black"/>
<path d="M5.30614 15.8574H2.04083V17.5717H5.30614V15.8574Z" fill="black"/>
<path d="M37.9592 15.8574H34.6938V17.5717H37.9592V15.8574Z" fill="black"/>
<path d="M5.30614 17.5713H2.04083V19.2856H5.30614V17.5713Z" fill="black"/>
<path d="M37.9592 17.5713H34.6938V19.2856H37.9592V17.5713Z" fill="black"/>
<path d="M5.30614 19.2861H2.04083V21.0004H5.30614V19.2861Z" fill="black"/>
<path d="M37.9592 19.2861H34.6938V21.0004H37.9592V19.2861Z" fill="black"/>
<path d="M5.30614 21H2.04083V22.7143H5.30614V21Z" fill="black"/>
<path d="M37.9592 21H34.6938V22.7143H37.9592V21Z" fill="black"/>
<path d="M5.30614 22.7139H2.04083V24.4282H5.30614V22.7139Z" fill="black"/>
<path d="M37.9592 22.7139H34.6938V24.4282H37.9592V22.7139Z" fill="black"/>
<path d="M5.30614 24.4287H2.04083V26.143H5.30614V24.4287Z" fill="black"/>
<path d="M37.9592 24.4287H34.6938V26.143H37.9592V24.4287Z" fill="black"/>
<path d="M5.30614 26.1426H2.04083V27.8569H5.30614V26.1426Z" fill="black"/>
<path d="M37.9592 26.1426H34.6938V27.8569H37.9592V26.1426Z" fill="black"/>
<path d="M5.30614 27.8574H2.04083V29.5717H5.30614V27.8574Z" fill="black"/>
<path d="M37.9592 27.8574H34.6938V29.5717H37.9592V27.8574Z" fill="black"/>
<path d="M5.30614 29.5713H2.04083V31.2856H5.30614V29.5713Z" fill="black"/>
<path d="M37.9592 29.5713H34.6938V31.2856H37.9592V29.5713Z" fill="black"/>
<path d="M5.30614 31.2861H2.04083V33.0004H5.30614V31.2861Z" fill="black"/>
<path d="M37.9592 31.2861H34.6938V33.0004H37.9592V31.2861Z" fill="black"/>
<path d="M5.30614 33H2.04083V34.7143H5.30614V33Z" fill="black"/>
<path d="M37.9592 33H34.6938V34.7143H37.9592V33Z" fill="black"/>
<path d="M5.30614 34.7139H2.04083V36.4282H5.30614V34.7139Z" fill="black"/>
<path d="M37.9592 34.7139H34.6938V36.4282H37.9592V34.7139Z" fill="black"/>
<path d="M37.9592 36.4287H2.04083V38.143H37.9592V36.4287Z" fill="black"/>
<path d="M36.3265 38.1426H3.67346V39.8569H36.3265V38.1426Z" fill="black"/>
</svg>
