<svg width="40" height="40" viewBox="0 0 40 40" fill="none" xmlns="http://www.w3.org/2000/svg">
<path d="M24.898 2.04102H15.1021V3.67367H24.898V2.04102Z" fill="black"/>
<path d="M26.5306 3.67383H13.4694V5.30648H26.5306V3.67383Z" fill="black"/>
<path d="M16.7347 5.30566H13.4694V6.93832H16.7347V5.30566Z" fill="black"/>
<path d="M26.5306 5.30566H23.2653V6.93832H26.5306V5.30566Z" fill="black"/>
<path d="M16.7348 6.93848H11.8368V8.57113H16.7348V6.93848Z" fill="black"/>
<path d="M28.1632 6.93848H23.2653V8.57113H28.1632V6.93848Z" fill="black"/>
<path d="M28.1633 8.57129H11.8368V10.2039H28.1633V8.57129Z" fill="black"/>
<path d="M28.1633 10.2041H11.8368V11.8368H28.1633V10.2041Z" fill="black"/>
<path d="M16.7347 11.8369H10.2041V13.4696H16.7347V11.8369Z" fill="black"/>
<path d="M29.7959 11.8369H23.2653V13.4696H29.7959V11.8369Z" fill="black"/>
<path d="M15.1021 13.4697H10.2041V15.1024H15.1021V13.4697Z" fill="black"/>
<path d="M29.7959 13.4697H24.8979V15.1024H29.7959V13.4697Z" fill="black"/>
<path d="M13.4694 15.1016H8.57141V16.7342H13.4694V15.1016Z" fill="black"/>
<path d="M21.6326 15.1016H18.3673V16.7342H21.6326V15.1016Z" fill="black"/>
<path d="M31.4286 15.1016H26.5306V16.7342H31.4286V15.1016Z" fill="black"/>
<path d="M11.8367 16.7344H8.57141V18.367H11.8367V16.7344Z" fill="black"/>
<path d="M21.6326 16.7344H18.3673V18.367H21.6326V16.7344Z" fill="black"/>
<path d="M31.4285 16.7344H28.1632V18.367H31.4285V16.7344Z" fill="black"/>
<path d="M11.8367 18.3672H8.57141V19.9998H11.8367V18.3672Z" fill="black"/>
<path d="M21.6326 18.3672H18.3673V19.9998H21.6326V18.3672Z" fill="black"/>
<path d="M31.4285 18.3672H28.1632V19.9998H31.4285V18.3672Z" fill="black"/>
<path d="M11.8367 20H8.57141V21.6327H11.8367V20Z" fill="black"/>
<path d="M23.2653 20H18.3673V21.6327H23.2653V20Z" fill="black"/>
<path d="M31.4285 20H28.1632V21.6327H31.4285V20Z" fill="black"/>
<path d="M11.8367 21.6328H8.57141V23.2655H11.8367V21.6328Z" fill="black"/>
<path d="M24.898 21.6328H20V23.2655H24.898V21.6328Z" fill="black"/>
<path d="M31.4285 21.6328H28.1632V23.2655H31.4285V21.6328Z" fill="black"/>
<path d="M13.4694 23.2656H8.57141V24.8983H13.4694V23.2656Z" fill="black"/>
<path d="M31.4286 23.2656H26.5306V24.8983H31.4286V23.2656Z" fill="black"/>
<path d="M15.1021 24.8984H10.2041V26.5311H15.1021V24.8984Z" fill="black"/>
<path d="M29.7959 24.8984H24.8979V26.5311H29.7959V24.8984Z" fill="black"/>
<path d="M16.7347 26.5303H10.2041V28.1629H16.7347V26.5303Z" fill="black"/>
<path d="M29.7959 26.5303H23.2653V28.1629H29.7959V26.5303Z" fill="black"/>
<path d="M28.1633 28.1631H11.8368V29.7957H28.1633V28.1631Z" fill="black"/>
<path d="M28.1633 29.7959H11.8368V31.4286H28.1633V29.7959Z" fill="black"/>
<path d="M16.7348 31.4287H11.8368V33.0614H16.7348V31.4287Z" fill="black"/>
<path d="M28.1632 31.4287H23.2653V33.0614H28.1632V31.4287Z" fill="black"/>
<path d="M16.7347 33.0615H13.4694V34.6942H16.7347V33.0615Z" fill="black"/>
<path d="M28.1632 33.0615H23.2653V34.6942H28.1632V33.0615Z" fill="black"/>
<path d="M26.5306 34.6943H13.4694V36.327H26.5306V34.6943Z" fill="black"/>
<path d="M24.898 36.3262H15.1021V37.9588H24.898V36.3262Z" fill="black"/>
</svg>
