<svg xmlns="http://www.w3.org/2000/svg" viewBox="0 0 24 24" fill="none">
<path d="M16.25 20.25L9.41421 13.4142C8.63317 12.6332 7.36683 12.6332 6.58579 13.4142L3.75 16.25M16.25 20.25H18.25C19.3546 20.25 20.25 19.3546 20.25 18.25V5.75C20.25 4.64543 19.3546 3.75 18.25 3.75H5.75C4.64543 3.75 3.75 4.64543 3.75 5.75V16.25M16.25 20.25H5.75C4.64543 20.25 3.75 19.3546 3.75 18.25V16.25" stroke="black" stroke-width="1.5" stroke-linejoin="round"/><path d="M14.5 11.5C15.6046 11.5 16.5 10.6046 16.5 9.5C16.5 8.39543 15.6046 7.5 14.5 7.5C13.3954 7.5 12.5 8.39543 12.5 9.5C12.5 10.6046 13.3954 11.5 14.5 11.5Z" stroke="black" stroke-width="1.5"/>
</svg>