<svg width="24" height="24" viewBox="0 0 24 24" fill="none" xmlns="http://www.w3.org/2000/svg">
<path d="M21.25 8.20051C20.4957 6.36189 19.2106 4.78971 17.5588 3.68464C15.9071 2.57957 13.9635 1.99172 11.9761 1.99612C9.98881 2.00052 8.04785 2.59697 6.40098 3.70935C4.75412 4.82173 3.47605 6.39958 2.72989 8.24153C1.98373 10.0835 1.80332 12.106 2.21169 14.0509C2.62005 15.9959 3.59868 17.775 5.02265 19.1613C6.44663 20.5476 8.25138 21.4782 10.2066 21.8343C12.1617 22.1904 14.1787 21.9558 16 21.1605" stroke="#DDDDDD" stroke-width="2" stroke-linecap="round" stroke-linejoin="round"/>
<path d="M20 12V17M20 21H20.01" stroke="#DDDDDD" stroke-width="2" stroke-linecap="round" stroke-linejoin="round"/>
<path d="M12 6V12L16 14" stroke="#A4A5A6" stroke-width="2" stroke-linecap="round" stroke-linejoin="round"/>
</svg>
